<svg width="124" height="127" viewBox="0 0 124 127" fill="none" xmlns="http://www.w3.org/2000/svg">
<path d="M111.417 92.871C111.417 92.871 110.415 91.7723 106.874 85.6972C103.332 79.6221 101.662 79.7514 99.8579 76.4553C98.0538 73.1593 97.5861 69.1523 97.5861 69.1523L93.3766 70.1218C91.8399 65.7917 83.1536 56.6791 83.1536 56.6791L70.4584 66.5672L74.9352 65.3393L82.4855 59.0057L80.8151 67.8598L75.8706 72.2545C75.8706 72.2545 77.7415 73.8056 79.3451 75.0335C80.9487 76.2615 80.4142 78.9112 80.4142 78.9112C82.8196 77.037 80.8151 74.9689 80.8151 74.9689L77.9419 72.513C77.9419 72.513 78.9442 71.8667 81.1491 69.6694C83.3541 67.472 83.5546 59.3935 83.5546 59.3935L92.508 71.2204L96.0493 71.5436L90.9712 78.0711C90.9712 78.0711 92.3076 79.5575 93.243 81.1086C94.1785 82.595 91.7062 85.7618 91.7062 85.7618C91.7062 85.7618 94.3121 84.34 94.713 82.3365C95.1139 80.3331 92.8421 78.1357 92.8421 78.1357L97.252 72.7069C97.252 72.7069 97.987 77.9418 99.3234 78.8466C100.66 79.816 104.134 83.823 104.134 83.823L110.482 93.3234L104.936 92.9356L98.9225 93.0002V90.1566L100.593 91.5784H102.464L98.9893 87.8299V85.8911L101.528 87.0544L98.0538 81.8195L94.9803 86.9898L97.252 86.085V88.0238L93.7107 91.643H95.8489L97.3189 90.2212V93.1295L89.234 93.2587L85.4922 89.8981L79.2783 82.2073L72.3293 73.1593L65.5808 64.9515L53.2196 53.5123L47.607 50.3455L41.5935 57.1315C41.5935 57.1315 41.6603 54.9341 40.1903 53.7062C38.7203 52.4782 37.1835 53.1245 37.1835 53.1245C37.5844 51.3149 34.9786 49.7638 34.9786 49.7638C31.7714 47.6311 29.6332 48.7944 29.6332 48.7944C29.7669 46.8555 29.2991 46.5324 26.7601 44.5935C24.4883 43.2364 22.0161 44.1411 22.0161 44.1411C22.0161 44.1411 19.3434 45.4337 20.3457 45.8215C24.2879 43.5595 27.8292 46.597 28.2969 47.6311C28.7646 48.6651 27.161 50.087 26.5596 51.121C25.9583 52.1551 26.8937 52.6075 28.4305 51.121C29.9673 49.6346 31.7714 49.5053 34.2436 50.8625C36.7158 52.2197 35.4463 54.0939 34.5777 55.2572C33.7091 56.4205 35.179 56.4205 35.179 56.4205C37.7849 52.6075 40.5244 56.4205 40.5244 56.4205C40.5244 56.4205 41.1926 57.39 38.7872 60.686C36.3817 63.9821 35.1122 63.1419 34.9118 63.3358C34.7113 63.5297 28.3637 60.2336 28.3637 60.2336L23.4192 74.775C23.4192 74.775 22.6174 74.5165 21.1475 73.2886C19.6107 72.1252 18.3412 75.3567 17.5393 78.3942C16.7375 81.4317 16.7375 80.6562 15.1339 80.6562C13.5303 80.6562 11.3922 84.0169 11.3922 84.0169L8.45223 92.4832L5.5791 94.0343L115.159 94.0989L111.417 92.871ZM9.5213 93.0002L13.3967 84.1461C13.3967 84.1461 13.7976 81.8841 15.9357 82.0134C18.0739 82.1427 18.8089 79.5575 18.8089 79.5575L20.1452 75.0335C20.1452 75.0335 20.4793 73.8702 22.4838 75.5506C24.4883 77.2309 25.6242 75.3567 25.691 74.258C25.7578 73.0947 29.0987 62.3664 29.0987 62.3664L33.9095 64.1759C33.9095 64.1759 36.5154 65.4685 38.9876 62.8188C41.4598 60.169 46.7384 52.4782 46.7384 52.4782L45.4689 66.1794L49.4779 64.4345C49.4779 64.4345 49.5447 68.6353 47.7406 71.2204C45.9366 73.8056 42.3953 76.3261 42.3953 76.3261C42.3953 76.3261 40.2571 73.8056 37.9185 76.3261C35.5799 78.8466 32.3727 82.3365 32.3727 82.3365L32.1055 86.2142L25.0897 92.6771L9.5213 93.0002ZM56.8277 92.7417H52.7519L56.8277 87.1837V92.7417ZM58.2309 92.7417V88.1531L61.7054 92.7417H58.2309ZM62.8413 92.7417C62.574 92.7417 58.565 85.6972 58.565 85.6972H66.8503L71.9284 92.7417C71.8616 92.7417 63.1754 92.7417 62.8413 92.7417ZM73.1979 92.7417L67.7857 84.34H56.8277L50.9478 92.7417H47.0725V89.9627L50.4133 91.2553L47.0725 87.8299V85.9557L50.0124 86.8605C50.0124 86.8605 47.2061 84.0815 47.0725 84.0815C46.9388 84.0815 47.0725 81.6256 47.0725 81.6256L50.0124 82.9182L46.6047 78.1357C46.6047 78.1357 43.4643 82.3365 42.9966 82.5304L45.7361 81.6903V84.0815L43.2639 87.0544L45.6025 85.7618V88.2177L42.863 91.7723L45.8029 89.9627V92.8063H26.4928C26.4928 92.8063 31.9718 87.2483 32.1055 87.2483C32.2391 87.2483 34.0431 86.8605 34.0431 86.8605L33.375 83.2413L39.9899 76.7139L41.9944 77.9418L49.0102 72.2545L51.0147 67.989L52.6851 70.8327C52.6851 70.8327 54.4223 73.0947 55.8923 70.768C57.3623 68.4414 60.1018 72.6423 60.1018 72.6423L72.4629 82.7243L78.3428 87.9592L84.6236 92.7417H73.1979ZM72.1288 80.3977L59.8345 70.4449C59.8345 70.4449 56.7609 66.4379 55.7587 68.3768C54.7564 70.3156 53.9546 69.6047 53.9546 69.6047L50.2129 61.9786L49.4779 63.5943L47.7406 63.5297L48.1415 51.7673L54.8232 57.5192L64.9126 66.5026L74.8015 79.1697L87.029 92.7417L72.1288 80.3977Z" fill="#224040"/>
<path d="M25.6902 86.9248H16.6699V88.1528H25.6902V86.9248Z" fill="#224040"/>
<path d="M28.3635 82.4658H21.8154V83.6938H28.3635V82.4658Z" fill="#224040"/>
<path d="M32.4394 78.5234H26.0918V79.7514H32.4394V78.5234Z" fill="#224040"/>
<path d="M38.1182 73.8057H29.6992V75.0336H38.1182V73.8057Z" fill="#224040"/>
<path d="M43.5306 69.7344H32.8398V70.9623H43.5306V69.7344Z" fill="#224040"/>
<path d="M43.5321 66.7607H37.5186V67.9887H43.5321V66.7607Z" fill="#224040"/>
<path d="M67.0507 58.7476C67.1175 58.8122 67.1175 58.8122 67.0507 58.7476C67.1175 56.421 68.5207 54.159 70.6588 52.9957C71.1934 52.7372 71.7947 52.4787 72.4629 52.5433C73.3983 52.6079 74.2001 53.1896 74.8015 53.8359C75.4028 54.4821 75.8705 55.2577 76.5387 55.904C76.071 55.3869 76.6723 52.9311 76.8728 52.3494C77.8751 48.3424 84.0222 42.4613 88.4321 46.0804C91.3721 48.5363 92.1071 49.7643 92.1071 49.7643C92.1071 49.7643 94.0448 50.4106 91.8398 47.4376C89.6348 44.4647 88.1649 43.8831 87.764 43.8831C87.3631 43.8831 89.568 39.2945 93.4434 38.9067C97.3188 38.5189 95.7152 37.6788 94.9802 37.6141C94.2452 37.5495 90.6371 37.9373 89.0335 39.4237C87.4299 40.9102 86.6949 42.0089 86.4276 43.6892C86.4276 43.5599 84.2227 43.7538 84.089 43.8185C82.6191 44.077 81.1491 44.6586 79.9464 45.4342C77.541 46.9852 75.9374 49.6996 75.7369 52.4787C75.0687 51.5092 73.866 51.0568 72.6633 51.0568C71.4606 51.0568 70.3247 51.5092 69.3893 52.1555C68.2534 52.8664 67.318 53.8359 66.8502 55.0638C66.2489 56.2917 66.3157 57.7136 67.0507 58.7476Z" fill="#224040"/>
<path d="M55.3581 52.7369C55.3581 52.7369 55.9595 44.3998 62.6412 41.233C67.1179 39.1003 72.5301 41.0392 76.3387 43.6243C76.7396 43.8828 77.1405 44.2059 77.675 44.3352C77.9423 44.3998 78.0091 44.2059 77.9423 44.0121C77.3409 42.0732 75.2696 40.9099 73.3987 40.199C70.3252 39.0357 66.6502 38.3248 63.3762 39.1003C58.4985 40.2636 55.425 44.9815 54.4895 49.5055C54.2891 50.3456 54.2223 51.2504 54.2223 52.1552C54.2223 52.4784 54.1554 53.2539 54.4895 53.5124C54.9572 53.9648 55.3581 53.1247 55.3581 52.7369Z" fill="#224040"/>
<path d="M50.9479 45.6919L42.4622 45.0456C42.0613 45.0456 41.794 44.7225 41.8608 44.3347C41.8608 43.9469 42.1949 43.6884 42.5958 43.7531L51.0816 44.3993C51.4825 44.3993 51.7497 44.7225 51.6829 45.1103C51.6829 45.4334 51.3488 45.6919 50.9479 45.6919Z" fill="#224040"/>
<path d="M54.5555 38.9056L46.7379 32.4428C46.4707 32.1843 46.4039 31.7965 46.6711 31.4733C46.9384 31.2148 47.3393 31.1502 47.6734 31.4087L55.491 37.8716C55.7582 38.1301 55.825 38.5178 55.5578 38.841C55.2905 39.0995 54.8228 39.1641 54.5555 38.9056Z" fill="#224040"/>
<path d="M61.8395 36.4502L59.9018 23.5891C59.835 23.2014 60.1023 22.8782 60.5032 22.8136C60.9041 22.749 61.2382 23.0075 61.305 23.3953L63.2427 36.2563C63.3095 36.6441 63.0422 36.9672 62.6413 37.0319C62.2404 37.0319 61.9063 36.838 61.8395 36.4502Z" fill="#224040"/>
<path d="M69.7231 35.8691L75.2021 24.0421C75.3357 23.719 75.7366 23.5251 76.1375 23.719C76.4716 23.8482 76.6721 24.236 76.4716 24.6238L70.9926 36.4508C70.859 36.7739 70.4581 36.9678 70.0572 36.7739C69.7231 36.58 69.5894 36.1922 69.7231 35.8691Z" fill="#224040"/>
<path d="M77.0066 37.484L86.5614 31.732C86.8287 31.5381 87.2296 31.6674 87.43 31.9259L87.4968 31.9905C87.6973 32.2491 87.5637 32.6368 87.2964 32.8307L77.7416 38.5826C77.4743 38.7765 77.0734 38.6473 76.8729 38.3887L76.8061 38.3241C76.6057 38.0656 76.6725 37.6778 77.0066 37.484Z" fill="#224040"/>
<path d="M12.1934 114.198V111.161C12.6611 111.613 13.1956 111.936 13.797 112.195C14.3983 112.453 14.9329 112.518 15.5342 112.518C15.8683 112.518 16.2024 112.453 16.4696 112.389C16.7369 112.324 16.9374 112.195 17.1378 112.13C17.3383 112.001 17.4719 111.872 17.5387 111.678C17.6055 111.484 17.6724 111.355 17.6724 111.161C17.6724 110.902 17.6055 110.644 17.4719 110.45C17.3383 110.256 17.1378 110.062 16.9374 109.868C16.6701 109.674 16.4028 109.545 16.0687 109.351C15.7347 109.157 15.4006 109.028 14.9997 108.834C14.0642 108.382 13.3292 107.865 12.8615 107.218C12.3938 106.572 12.1934 105.797 12.1934 104.892C12.1934 104.181 12.327 103.599 12.5943 103.082C12.8615 102.565 13.1956 102.177 13.6633 101.854C14.1311 101.531 14.5988 101.273 15.2001 101.143C15.8015 101.014 16.4028 100.885 17.0042 100.885C17.6055 100.885 18.2069 100.949 18.6746 101.014C19.1423 101.079 19.61 101.208 20.0109 101.402V104.245C19.8105 104.116 19.61 103.922 19.3428 103.858C19.0755 103.728 18.8751 103.664 18.6078 103.535C18.3405 103.405 18.0733 103.405 17.8728 103.341C17.6724 103.276 17.4051 103.276 17.1378 103.276C16.8037 103.276 16.5365 103.341 16.2692 103.405C16.0019 103.47 15.8015 103.535 15.601 103.664C15.4006 103.793 15.2669 103.922 15.2001 104.116C15.1333 104.31 15.0665 104.439 15.0665 104.698C15.0665 104.956 15.1333 105.15 15.2001 105.279C15.2669 105.409 15.4674 105.603 15.6678 105.797C15.8683 105.926 16.1356 106.12 16.4028 106.249C16.6701 106.378 17.0042 106.572 17.3383 106.701C17.806 106.96 18.2737 107.154 18.6746 107.412C19.0755 107.671 19.4096 107.929 19.6769 108.252C19.9441 108.576 20.1446 108.963 20.345 109.351C20.4787 109.739 20.5455 110.256 20.5455 110.773C20.5455 111.548 20.4119 112.195 20.1446 112.712C19.8773 113.229 19.5432 113.617 19.0755 113.94C18.6078 114.263 18.1401 114.457 17.5387 114.651C16.9374 114.845 16.336 114.845 15.6678 114.845C14.9997 114.845 14.3315 114.78 13.7302 114.651C13.1288 114.521 12.6611 114.457 12.1934 114.198Z" fill="#224040"/>
<path d="M33.0391 114.715H30.2996V109.157H25.2883V114.715H22.5488V101.143H25.2883V106.571H30.2996V101.143H33.0391V114.715Z" fill="#224040"/>
<path d="M45.7345 108.834C45.7345 112.906 44.064 114.974 40.6564 114.974C37.3823 114.974 35.7119 112.97 35.7119 109.028V101.208H38.4514V109.093C38.4514 111.29 39.2532 112.389 40.79 112.389C42.3268 112.389 43.0618 111.355 43.0618 109.222V101.208H45.8013V108.834H45.7345Z" fill="#224040"/>
<path d="M57.5624 101.144L53.6202 109.869V114.716H50.8139V109.933L46.9385 101.144H50.1457L52.0834 106.185C52.1502 106.249 52.217 106.637 52.3507 107.283H52.4175C52.4843 106.831 52.5511 106.443 52.6847 106.185L54.6893 101.079H57.5624V101.144Z" fill="#224040"/>
<path d="M64.0434 114.974C62.3062 114.974 60.903 114.327 59.7671 113.1C58.6312 111.872 58.0967 110.191 58.0967 108.123C58.0967 105.99 58.6312 104.245 59.7671 102.888C60.903 101.531 62.373 100.885 64.177 100.885C65.9143 100.885 67.3174 101.531 68.3865 102.759C69.4556 103.987 69.9901 105.732 69.9901 107.8C69.9901 109.933 69.4556 111.678 68.3197 112.97C67.1838 114.263 65.8475 114.974 64.0434 114.974ZM64.177 103.535C63.2416 103.535 62.4398 103.922 61.9052 104.762C61.3707 105.538 61.0366 106.637 61.0366 107.929C61.0366 109.286 61.3039 110.321 61.9052 111.096C62.4398 111.872 63.2416 112.259 64.1102 112.259C65.0456 112.259 65.7806 111.872 66.382 111.096C66.9833 110.321 67.1838 109.286 67.1838 107.929C67.1838 106.507 66.9165 105.409 66.382 104.633C65.8475 103.858 65.1125 103.535 64.177 103.535Z" fill="#224040"/>
<path d="M82.0177 108.834C82.0177 112.906 80.3472 114.974 76.9396 114.974C73.6655 114.974 71.9951 112.97 71.9951 109.028V101.208H74.7346V109.093C74.7346 111.29 75.5364 112.389 77.0732 112.389C78.61 112.389 79.345 111.355 79.345 109.222V101.208H82.0845V108.834H82.0177Z" fill="#224040"/>
<path d="M95.6474 114.715H92.9079L87.8967 106.184C87.6294 105.667 87.429 105.279 87.2953 105.085H87.2285C87.2953 105.537 87.2953 106.313 87.2953 107.282V114.715H84.6895V101.143H87.6294L92.4402 109.415C92.6407 109.803 92.8411 110.126 93.0416 110.514H93.1084C93.0416 110.191 93.0416 109.544 93.0416 108.639V101.143H95.6474V114.715Z" fill="#224040"/>
<path d="M108.409 113.81C107.207 114.586 105.737 114.974 104 114.974C102.062 114.974 100.525 114.392 99.3892 113.164C98.2533 111.936 97.7188 110.32 97.7188 108.188C97.7188 106.055 98.3201 104.31 99.5896 102.953C100.859 101.595 102.463 100.949 104.534 100.949C105.804 100.949 106.939 101.143 107.942 101.531V104.375C107.006 103.793 105.87 103.47 104.467 103.47C103.331 103.47 102.396 103.857 101.661 104.698C100.926 105.538 100.592 106.637 100.592 107.994C100.592 109.416 100.926 110.45 101.527 111.225C102.129 112.001 103.064 112.388 104.133 112.388C104.801 112.388 105.336 112.259 105.67 112.065V109.416H103.265V106.96H108.409V113.81Z" fill="#224040"/>
<path d="M38.5877 126.736C38.5877 126.736 38.454 126.736 38.1868 126.671C37.9195 126.607 37.6522 126.542 37.385 126.413C37.1177 126.284 36.9172 126.154 36.7168 125.961L37.1177 125.444C37.385 125.702 37.7191 125.831 38.0531 125.961C38.3872 126.09 38.7213 126.154 39.1222 126.154C39.7236 126.154 40.1245 126.025 40.4585 125.831C40.7926 125.637 40.9263 125.314 40.9263 124.927C40.9263 124.668 40.8595 124.474 40.7258 124.345C40.5922 124.216 40.3917 124.086 40.1913 124.022C39.9908 123.957 39.7236 123.892 39.3895 123.828C39.3895 123.828 39.3895 123.828 39.3227 123.828H39.189C38.7213 123.763 38.3204 123.634 38.0531 123.569C37.7859 123.505 37.5186 123.311 37.3181 123.117C37.1177 122.923 37.0509 122.6 37.0509 122.212C37.0509 121.824 37.1177 121.501 37.3181 121.178C37.5186 120.92 37.7859 120.661 38.12 120.532C38.454 120.403 38.9218 120.338 39.3895 120.338C39.6567 120.338 39.8572 120.338 40.0576 120.403C40.2581 120.467 40.5254 120.532 40.7258 120.596C40.9263 120.726 41.1935 120.79 41.394 120.984L40.9931 121.501C40.7258 121.307 40.4585 121.178 40.1245 121.049C39.7904 120.92 39.5899 120.92 39.3227 120.92C38.7881 120.92 38.3872 121.049 38.0531 121.243C37.7191 121.437 37.5854 121.76 37.5854 122.147C37.5854 122.406 37.6522 122.6 37.7859 122.729C37.9195 122.858 38.12 122.988 38.3204 123.052C38.5209 123.117 38.8549 123.182 39.2558 123.246C39.2558 123.246 39.2558 123.246 39.3227 123.246C39.3227 123.246 39.3227 123.246 39.3895 123.246H39.4563H39.5231C39.924 123.311 40.2581 123.44 40.5922 123.505C40.9263 123.569 41.1267 123.763 41.2604 124.022C41.4608 124.216 41.5276 124.539 41.5276 124.927C41.5276 125.314 41.4608 125.637 41.2604 125.961C41.0599 126.284 40.7926 126.478 40.4585 126.607C40.1245 126.736 39.6567 126.801 39.1222 126.801C38.7213 126.736 38.5877 126.736 38.5877 126.736Z" fill="#224040"/>
<path d="M43.5315 126.672H42.8633V120.273H43.5315V126.672Z" fill="#224040"/>
<path d="M45.335 120.273H46.0031L49.8785 126.09L49.6112 125.896V120.273H50.2794V126.672H49.6112L45.669 120.855L46.0031 121.114V126.672H45.335V120.273Z" fill="#224040"/>
<path d="M53.3546 126.736C53.3546 126.736 53.1541 126.607 52.82 126.413C52.486 126.219 52.2187 125.961 52.0182 125.573C51.8178 125.185 51.751 124.798 51.751 124.345V122.6C51.751 122.148 51.8178 121.695 52.0182 121.372C52.2187 121.049 52.486 120.726 52.82 120.532C53.1541 120.338 53.555 120.209 54.0228 120.209C54.4237 120.209 54.7577 120.274 55.0918 120.403C55.4259 120.532 55.6932 120.791 55.8936 121.049C56.0941 121.308 56.2277 121.631 56.3614 122.019H55.6932C55.6264 121.76 55.4927 121.566 55.3591 121.372C55.2255 121.178 55.025 121.049 54.7577 120.92C54.4905 120.791 54.29 120.791 54.0896 120.791C53.7555 120.791 53.4882 120.855 53.2209 120.985C52.9537 121.114 52.7532 121.372 52.6196 121.631C52.486 121.889 52.4191 122.212 52.4191 122.6V124.345C52.4191 124.733 52.486 124.991 52.6196 125.315C52.7532 125.638 52.9537 125.767 53.2209 125.961C53.4882 126.155 53.7555 126.155 54.0896 126.155C54.3568 126.155 54.5573 126.09 54.7577 126.026C54.9582 125.961 55.1586 125.767 55.3591 125.573C55.4927 125.379 55.6264 125.185 55.6932 124.927H56.3614C56.2945 125.315 56.1609 125.638 55.8936 125.896C55.6264 126.155 55.4259 126.413 55.0918 126.543C54.7577 126.672 54.4237 126.736 54.0228 126.736C53.555 126.736 53.3546 126.736 53.3546 126.736Z" fill="#224040"/>
<path d="M57.5645 120.273H58.2326V126.672H57.5645V120.273ZM58.0322 120.273H61.8407V120.855H58.0322V120.273ZM58.0322 123.182H61.373V123.763H58.0322V123.182ZM58.0322 126.09H61.8407V126.672H58.0322V126.09Z" fill="#224040"/>
<path d="M65.4481 126.155L67.9203 122.988C68.054 122.794 68.1876 122.6 68.3212 122.406C68.388 122.212 68.4549 122.018 68.4549 121.889C68.4549 121.566 68.3212 121.307 68.1208 121.114C67.9203 120.92 67.653 120.855 67.2521 120.855C66.9181 120.855 66.6508 120.984 66.3835 121.178C66.1831 121.372 66.0494 121.631 65.9826 122.018H65.3145C65.3813 121.631 65.5149 121.307 65.6485 121.049C65.849 120.79 66.0494 120.597 66.3167 120.467C66.584 120.338 66.9181 120.273 67.2521 120.273C67.653 120.273 67.9871 120.338 68.2544 120.467C68.5217 120.597 68.7221 120.79 68.9226 121.049C69.123 121.307 69.123 121.631 69.123 121.954C69.123 122.148 69.0562 122.406 68.9226 122.665C68.7889 122.923 68.6553 123.182 68.388 123.44L66.1831 126.155H69.123V126.736H65.3813V126.155H65.4481Z" fill="#224040"/>
<path d="M70.8603 126.284C70.5262 125.961 70.3926 125.509 70.3926 124.927V122.019C70.3926 121.437 70.5262 120.985 70.8603 120.661C71.1944 120.338 71.6621 120.209 72.2635 120.209C72.8648 120.209 73.3325 120.338 73.6666 120.661C74.0007 120.985 74.1343 121.437 74.1343 122.019V124.927C74.1343 125.509 74.0007 125.961 73.6666 126.284C73.3325 126.607 72.8648 126.736 72.2635 126.736C71.5953 126.736 71.1276 126.607 70.8603 126.284ZM73.1989 125.832C73.3993 125.638 73.533 125.315 73.533 124.927V122.019C73.533 121.631 73.3993 121.308 73.1989 121.114C72.9984 120.92 72.6644 120.791 72.2635 120.791C71.8625 120.791 71.5285 120.92 71.328 121.114C71.1276 121.308 70.9939 121.631 70.9939 122.019V124.927C70.9939 125.315 71.1276 125.638 71.328 125.832C71.5285 126.026 71.8625 126.155 72.2635 126.155C72.6644 126.155 72.9984 126.026 73.1989 125.832Z" fill="#224040"/>
<path d="M75.4032 126.155L77.8754 122.988C78.009 122.794 78.1427 122.6 78.2763 122.406C78.3431 122.212 78.4099 122.018 78.4099 121.889C78.4099 121.566 78.2763 121.307 78.0758 121.114C77.8754 120.92 77.6081 120.855 77.2072 120.855C76.8731 120.855 76.6059 120.984 76.3386 121.178C76.1382 121.372 76.0045 121.631 75.9377 122.018H75.2695C75.3363 121.631 75.47 121.307 75.6036 121.049C75.8041 120.79 76.0045 120.597 76.2718 120.467C76.5391 120.338 76.8731 120.273 77.2072 120.273C77.6081 120.273 77.9422 120.338 78.2095 120.467C78.4767 120.597 78.6772 120.79 78.8777 121.049C79.0781 121.307 79.0781 121.631 79.0781 121.954C79.0781 122.148 79.0113 122.406 78.8777 122.665C78.744 122.923 78.6104 123.182 78.3431 123.44L76.205 126.09H79.1449V126.672H75.4032V126.155Z" fill="#224040"/>
<path d="M80.2137 126.155L82.6859 122.988C82.8196 122.794 82.9532 122.6 83.0868 122.406C83.1537 122.212 83.2205 122.018 83.2205 121.889C83.2205 121.566 83.0868 121.307 82.8864 121.114C82.6859 120.92 82.4187 120.855 82.0178 120.855C81.6837 120.855 81.4164 120.984 81.1491 121.178C80.9487 121.372 80.8151 121.631 80.7482 122.018H80.0801C80.1469 121.631 80.2805 121.307 80.4142 121.049C80.6146 120.79 80.8151 120.597 81.0823 120.467C81.3496 120.338 81.6837 120.273 82.0178 120.273C82.4187 120.273 82.7528 120.338 83.02 120.467C83.2873 120.597 83.4877 120.79 83.6882 121.049C83.8886 121.307 83.8886 121.631 83.8886 121.954C83.8886 122.148 83.8218 122.406 83.6882 122.665C83.5546 122.923 83.4209 123.182 83.1537 123.44L80.9487 126.155H83.8886V126.736H80.2137V126.155Z" fill="#224040"/>
<path d="M12.7295 33.5419C13.3309 33.9943 13.4645 34.5113 12.9968 35.093L10.6582 38.1951C10.1905 38.7768 9.65594 38.8414 9.05459 38.4537L0.568831 32.5725C-0.099339 32.1201 -0.166156 31.603 0.301563 31.0214L2.64016 27.9192C3.10788 27.3376 3.64241 27.2083 4.24377 27.6607L6.64918 29.3411L5.51329 30.8275L3.44196 29.4057L1.97199 31.3445L9.65594 36.7087L11.1259 34.7698L8.92096 33.2834L10.0568 31.7969L12.7295 33.5419Z" fill="#224040"/>
<path d="M21.148 26.6269L19.8117 27.9194L17.874 26.4976L16.1367 28.1133L17.5399 30.0522L16.2035 31.3448L8.9873 20.8103L10.3905 19.4531L21.148 26.6269ZM16.4708 25.5282L11.7936 22.1675L15.1345 26.7561L16.4708 25.5282Z" fill="#224040"/>
<path d="M30.5693 20.0993L29.0325 21.0688L25.558 16.0277C25.3576 15.7692 25.1571 15.3815 24.8899 14.8644L27.1616 21.0041L26.3598 21.5212L21.3486 17.1911C21.7495 17.6435 22.0167 17.9666 22.2172 18.2251L25.6917 23.2661L24.1549 24.2356L17.0723 13.9596L18.5422 12.9902L24.0881 17.5788C24.1549 17.6435 24.2885 17.7727 24.4221 18.0312C24.3553 17.902 24.2217 17.7727 24.1549 17.5142L21.9499 10.7282L23.4199 9.75879L30.5693 20.0993Z" fill="#224040"/>
<path d="M37.7847 10.6633C38.1188 11.3742 37.9184 11.8913 37.1834 12.1498L34.3103 13.3131L36.1143 17.4493L34.3771 18.1602L29.4326 6.85025L34.043 4.97603C34.778 4.65289 35.2457 4.9114 35.5798 5.55769L37.7847 10.6633ZM35.847 10.9865L33.9762 6.65637L31.838 7.56117L33.7089 11.8913L35.847 10.9865Z" fill="#224040"/>
<path d="M63.0429 11.2453C63.0429 12.0209 62.642 12.4087 61.907 12.4087L57.898 12.4733C57.163 12.4733 56.7621 12.0855 56.7621 11.3746L56.6953 1.22794C56.6953 0.452399 57.0294 0.0646284 57.8312 0.0646284L61.8402 0C62.642 0 63.0429 0.38777 63.0429 1.09868L63.1097 4.00696H61.2389V1.55108H58.7666L58.9003 10.7283H61.3725V8.14318H63.2434L63.0429 11.2453Z" fill="#224040"/>
<path d="M73.8682 12.6677C73.7346 13.3786 73.2669 13.7018 72.5319 13.5725L68.5229 12.9262C67.7879 12.797 67.4538 12.3446 67.5874 11.6337L69.5251 0.517578L71.396 0.84072L69.5251 11.4398L72.0642 11.8275L73.935 1.22849L75.8059 1.55163L73.8682 12.6677Z" fill="#224040"/>
<path d="M82.6874 16.4804L77.9434 14.8647L82.086 3.16699L83.8901 3.74865L80.282 13.8307L83.2219 14.8001L82.6874 16.4804Z" fill="#224040"/>
<path d="M96.4509 11.0514L94.58 10.082L89.4351 19.5824L87.7646 18.7422L92.9096 9.24184L91.0387 8.27241L91.8405 6.85059L97.2527 9.62961L96.4509 11.0514Z" fill="#224040"/>
<path d="M100.259 25.3342C99.7913 25.9158 99.2568 25.9804 98.5886 25.528L95.3814 23.1368C94.7801 22.6844 94.7132 22.1674 95.181 21.5857L102.264 12.667L103.8 13.7657L97.0518 22.2966L99.1232 23.7831L105.872 15.2521L107.408 16.3508L100.259 25.3342Z" fill="#224040"/>
<path d="M107.21 33.801L105.873 32.3792L108.813 27.015L109.682 26.2395L110.951 27.5967L113.958 24.9469L112.355 23.202L104.069 30.4404L102.8 29.0832L112.221 20.7461L115.629 24.3653C116.163 24.8823 116.096 25.464 115.562 25.981L112.154 29.0185C111.753 29.3417 111.352 29.4709 111.018 29.277C110.818 29.2124 110.484 28.8893 110.083 28.5015L107.21 33.801Z" fill="#224040"/>
<path d="M112.488 41.2329L109.615 36.9028L120.306 30.2461L123.179 34.5116L121.776 35.4164L119.972 32.702L116.831 34.6408L118.368 36.9674L116.965 37.8076L115.428 35.481L112.087 37.5491L113.892 40.3281L112.488 41.2329Z" fill="#224040"/>
</svg>
