<?xml version="1.0" encoding="utf-8"?>
<!-- Generator: Adobe Illustrator 22.1.0, SVG Export Plug-In . SVG Version: 6.00 Build 0)  -->
<svg version="1.1" id="圖層_1" xmlns="http://www.w3.org/2000/svg" xmlns:xlink="http://www.w3.org/1999/xlink" x="0px" y="0px"
	 viewBox="0 0 1920 1080" style="enable-background:new 0 0 1920 1080;" xml:space="preserve">
<style type="text/css">
	.st0{fill:#370A3E;}
</style>
<path class="st0" d="M1900.7,997.1c-2.3-9.1-25-29.5-25-29.5s-29.5-9.1-40.9-15.9c-11.4-6.8-38.6-43.1-52.2-50
	c-13.6-6.8-31.8-39.7-31.8-39.7l-18.2-39.7l-84-22.7l-90.8-12.5l-23.5,1.5c0.9-1.4,1.2-3.3,0.9-5.5c-0.8-5.3-2-10.6-3-15.9
	c-0.1-0.4-0.4-0.8-0.3-1.1c1.7-6.2-1.2-12-1.7-18.1c-1.1-14.7,3.5-28.8,4.6-43.2c1.3-16.6-1-32.2-10.1-46.7
	c-2.5-3.9-2.7-9.3-3.2-14.2c-0.2-1.6,2-3.6,3.4-5.2c4.3-4.8,4.4-4.8,0.3-9.5c-3.2-3.7-5-7.2-2.3-12.3c1-1.9,0.1-5.4-1-7.7
	c-2.2-4.5-3-9-3-13.9c0.1-4.3-0.9-8.6-0.6-12.8c0.4-5.5,1.8-10.8,2.8-17c1.8,1.3,2.8,1.9,3.6,2.6c9.4,7.4,20.1,11.1,32.1,10.6
	c7.3-0.3,14.5-0.4,21.8-0.8c6.7-0.3,12.7-2.9,18.1-6.5c9.2-6.2,11.2-15.7,11.1-26c-0.1-5.9-0.1-11.9,0-17.8c0-1.3,0.5-2.5,0.7-3.7
	c3.2,3.6,6,7.5,9.5,10.7c4.8,4.4,8.1,4.4,13,1c-1.5-0.9-3.1-1.5-4.4-2.5c-4.2-3.6-8.5-7.2-12.2-11.3c-3.1-3.5-3.6-7.3-2.1-12.4
	c3.5-12,5.6-24.5,2.3-36.8c-1.3-5.1-4.5-9.8-7.1-14.5c-2.1-3.8-4.8-7.3-7.8-11.9c4.6,0.8,7.9,1.4,11.5,2c0.2-1.2,0.4-1.9,0.5-2.6
	c0.1-3.7,0.9-6.6,5.7-6.3c1.6,0.1,3.2-0.8,5.1-1.4c-0.5-1.4-1.1-2.5-1.2-3.5c-0.2-3.7-1.6-8.2,0-10.9c10.6-18.6-1.7-47.2-24.5-55.2
	c-12.9-4.5-26.4-7.1-40.2-5c-7.1,1-13.8,3.5-18.6,9c-5.7,6.5-11.2,13.3-16.1,20.5c-2.6,3.7-3.6,8.5-5.6,13.3
	c-3.5-2.2-6.4-5.7-10.6-7.5c-1.6-0.7-1.8-4.7-1.1-8c1.7-8.8,9.7-13.6,12.4-21.7c1.4-4.2,1.9-7.8,0.5-12c-3.3-10.2-10-17.7-19.1-22.7
	c-6.9-3.8-14.4-2.3-21.3,1.2c-2.2,1.1-4.4,2.4-6.2,4c-4.3,3.9-9,4.3-14.4,2.9c-4.4-1.1-8.9-1.6-13.3-2.3c-1.3,6.7,2.6,9.9,17,14.6
	c0,2,0,4,0,6.1c-1.4,0.2-3,0.4-4.3,0.5c-2.2-1-4.3-1.9-7.1-3.1c-0.4-2.6-2.3-3.8-6-2.5c-1.9,0.7-4.1,0.2-6.2,0.6
	c-4.7,0.9-8.3,3.4-11.6,7c-1,1.2-3.9,0.9-6,0.9c-3.2,0-4.5,1.3-3.9,4.5c0.4,1.9,0.5,3.9,0.7,5.8c0.6,6.6,0.9,6.8,7.7,6.3
	c-0.4,2.6-0.4,5.2-1.1,7.5c-4.6,14.7-6.9,29.8-6.7,45.3c0,3.1-0.8,6.2-1.3,9.2c-0.9,5.9,1.4,8.6,7.3,8.3c1,0,2.1,0,3.1,0.3
	c10.3,2.9,20.7,3.7,31.3,2.7c0.5,0,1,0,1,0c1.3,6.4,2.6,12.6,3.6,18.8c0.3,1.5-0.3,3.1-0.3,4.6c-0.5,13-0.9,26-1.4,38.9
	c-0.1,2.7-0.5,5.4-0.6,8.2c-0.1,1.9-0.8,4.5,0.1,5.7c2.7,3.5,0.4,7.5,1.6,11.1c0.2,0.6,0,1.7-0.5,2.1c-3.1,3-2.8,6.8-2.8,10.6
	c0.1,10.6-0.8,21.4,0.4,31.9c1.7,15.2,4.8,30.2,7.4,45.3c0.6,3.5,1.4,6.9,1.7,10.4c0.2,2.6,1.2,3.9,3.6,4c2.7,0.2,3.6,1.7,3.6,4.1
	c-0.2,7.5,2.7,14.1,5.4,20.9c2.3,5.6,3.4,12,3.8,18.1c0.9,16.2,1.8,32.5,1.4,48.7c-0.2,9.4-2.8,18.7-4.4,28
	c-0.2,0.9-1.6,1.8-2.7,2.1c-1.5,0.5-3.1,0.4-4.6,0.6c-9.8,1.4-12.7,8-6.5,15.9c-3.4,0.7-6.6,1.6-9.8,2.1c-4.3,0.8-8.8,0.8-12.9,2.1
	c-2.9,0.9-6,3.1-7.5,5.6c-2.8,4.6-1.3,9.3,3.4,11.5l-58.2,17.1L1342,862l-48.8,85.2c0,0-21.6,31.8-37.5,31.8
	c-15.9,0-38.6-22.7-45.4-29.5s-22.7-43.1-27.3-56.8c-4.5-13.6-84-13.6-109-20.4c-25-6.8-61.3,13.6-61.3,13.6l-6.8,22.7l2.3,36.3
	c0,0-47.7,27.3-59,27.3c-11.4,0-74.9-20.4-84-27.3c-9.1-6.8-63.6-40.9-63.6-40.9s-63.6-15.9-88.6-27.3c-25-11.4-84-15.9-90.8-14.8
	c-6.8,1.1-54.5,14.8-54.5,14.8l-22.7,18.2l-96.4,19.4L346,903.1l-113.8,24.8l-118.3-14.7L0,931.2V1080h1920v-48.8
	C1920,1031.2,1903,1006.2,1900.7,997.1z M1459,378.3c0.2,0,0.6,0.3,0.6,0.4c0.2,2.1,0.2,4.2,0.4,6.3c0.1,0.7,0.7,1.3,0.9,2
	c0.2,0.8,0.4,1.7,0.2,2.4c-1.8,5.7-0.2,7.4,5.9,6.8c2.1-0.2,4.3,0.5,7,0.8c-5.2,1.6-9.4,2.9-13.5,4.1c-4.4,1.2-5.8,0.3-6.4-3.9
	c-1-6.6-2-13.2-3-19.8C1453.3,377.8,1456.1,378.1,1459,378.3z M1456.8,420.7c-3.7,3.4-10.3,3.5-15.2,5c-5.2-13.1-5.8-26.3-3.7-39.7
	c0.2-1.6,1.2-3.3,2.4-4.4c2-1.9,4.3-3.4,6.9-5.3c2.7,6.1,4.1,12.9,4.4,20c0.3,6.2,3.8,9.1,9.8,7.5c3.6-0.9,7-2.6,10.6-3.7
	c0.9-0.2,2.7,0.5,3,1.3c1.3,3.1,2.1,6.3,3,9.3C1471.2,414.6,1463.1,414.9,1456.8,420.7z"/>
</svg>
