<?xml version="1.0" encoding="utf-8"?>
<!-- Generator: Adobe Illustrator 22.1.0, SVG Export Plug-In . SVG Version: 6.00 Build 0)  -->
<svg version="1.1" id="圖層_1" xmlns="http://www.w3.org/2000/svg" xmlns:xlink="http://www.w3.org/1999/xlink" x="0px" y="0px"
	 viewBox="0 0 1920 1080" style="enable-background:new 0 0 1920 1080;" xml:space="preserve">
<style type="text/css">
	.st0{fill:#FFFFFF;}
	.st1{fill:#FF6B6F;}
</style>
<g>
	<rect class="st0" width="1920" height="1080"/>
</g>
<path class="st1" d="M1883,449c-10.2-4.4-20.5-8.7-30.8-13c-3.4-1.4-7.5-2.4-10.3-4.4c-9.3-6.7-28.4-3.9-31.2-17.1
	c-0.7-3.3-6.3-6-9.4-9.1c-7.5-7.4-14.8-7.8-23.4-0.7c-10.5,8.7-21.7,17-33.3,26c-27.5-14.4-105.9-38.9-135.4-42.6
	c-2.6-0.3-6-0.4-7.9,0.5c-11.4,5.8-20.4,1.7-29.5-3.1c-9.1-4.9-18.2-9.8-27.4-14.6c-22.6-11.7-45.2-23.6-68.1-35
	c-3.4-1.7-10.1-2.9-13.1-1.7c-8.3,3.3-16.3,7.5-22.8,12.4c-17.2,12.9-29.6,30.4-60.1,29.8c-2.3,0-4.6,3.5-7,5.3
	c-4.2,3.2-8.2,6.5-12.3,9.7c-12.6-5.2-26.7-7.9-39.4-3.1c-8.6,3.3-17.3,5.9-26.1,8.2c-1.1-0.6-2.2-1.4-3.2-2.3
	c-9.3-8.4-18.6-4.4-28.2,1.7c-5.3,3.4-10.7,6.9-16.3,10.2c-22.6,1.6-43.2-3.8-62.9-13.2c-6.7-3.2-12.8-7.2-19.9-9.7
	c-25.8-9.1-52.1-17.4-77.8-26.6c-5.8-2.1-12.2-5.7-14.6-9.8c-5.6-9.6-13.6-7.6-21.8-3.4c-26.7,13.7-47.3,32.5-76.6,44.7
	c-25.1,10.5-46.2,15.2-69.3,2.4c-22.6-12.5-44.8-25.5-47-49c-0.8-8-7.7-16.2-14.2-23.2c-4.9-5.3-13.1-9.4-20.9-12.7
	c-10-4.3-24.7,1-32.5,10.6c-5.7,7-9.1,15.9-17.3,20.6c-22.6,13.1-38.6,29.3-51.4,47.5c-6.7,9.6-17.4,12.5-30.8,7.4
	c-10.5-4-20.6-8.7-30.1-13.9c-16.4-8.9-27.2-9.1-44.2-0.8c-12.5,6.1-25.7,11.6-38.8,17.1c-11.8,5-22,3.1-32.7-3
	c-22.5-12.7-45.6-25-69.3-36.6c-17.9-8.7-34.5-3.2-41.5,11.4c-3.8,8-7.5,19-16,22.2c-20.3,7.6-42.8,13.7-65.4,16.2
	c-23.8,2.6-42.1,8.9-52.1,24.7c-1.2,2-3,4.1-5.2,5.8c-11.6-14-21.6-26.1-31.5-38.2c-2-0.9-3.9-1.8-5.9-2.8
	c-6.1,6.7-12.1,13.4-18.3,20.3c-22.2-12.3-27.3-28.5-36-43.3c-2.3-3.8-5.9-10.7-8.2-10.5c-13.9,0.9-15.7-7.2-20.9-12.6
	c-6.7-7.1-12.9-7.2-20.5-0.7c-4.5,3.8-10.7,6.6-14.7,10.6c-7.1,7.3-12.9,15.2-19.5,22.7c-2.4,2.7-4.9,5.7-8.5,7.4
	c-9.3,4.6-21.1,7.4-28.3,13.2c-10.7,8.6-17.9,19.4-27.5,28.8c-4.2,4.1-10.3,7.4-16,10.6c-9,5.1-18.5,9.7-27.7,14.6
	c-4.2,2.2-8.2,4.5-12.1,6.6V1080h1920V461.8c1.7,0-1.7,0,0,0c0.8-1-0.8-2.1,0-3.1C1912.7,455.5,1890.4,452.2,1883,449z"/>
</svg>
