<?xml version="1.0" encoding="utf-8"?>
<!-- Generator: Adobe Illustrator 22.1.0, SVG Export Plug-In . SVG Version: 6.00 Build 0)  -->
<svg version="1.1" id="圖層_1" xmlns="http://www.w3.org/2000/svg" xmlns:xlink="http://www.w3.org/1999/xlink" x="0px" y="0px"
	 viewBox="0 0 1920 1080" style="enable-background:new 0 0 1920 1080;" xml:space="preserve">
<style type="text/css">
	.st0{fill:#FF6B6F;}
</style>
<path class="st0" d="M1904.8,431.4c-10.4-4.5-20.8-9-31.2-13.4c-3.5-1.5-7.6-2.5-10.4-4.5c-9.4-6.9-28.7-4-31.6-17.6
	c-0.7-3.4-6.4-6.1-9.5-9.3c-7.6-7.6-15-8-23.7-0.7c-10.6,8.9-21.9,17.5-33.6,26.7c-27.8-14.9-107.1-40-137-43.8
	c-2.6-0.3-6.1-0.4-8,0.6c-11.5,6-20.7,1.8-29.8-3.2c-9.2-5-18.4-10.1-27.7-15c-22.9-12.1-45.7-24.2-68.9-36
	c-3.5-1.8-10.2-3-13.3-1.7c-8.4,3.4-16.4,7.7-23.1,12.8c-17.4,13.3-29.9,31.3-60.8,30.6c-2.3,0-4.7,3.6-7.1,5.5
	c-4.2,3.3-8.3,6.6-12.4,10c-12.8-5.3-27-8.2-39.8-3.2c-8.7,3.4-17.5,6.1-26.4,8.5c-1.1-0.6-2.2-1.4-3.3-2.4
	c-9.4-8.6-18.8-4.6-28.5,1.7c-5.4,3.5-10.8,7.1-16.5,10.5c-22.9,1.6-43.7-3.9-63.6-13.6c-6.8-3.3-12.9-7.4-20.2-10
	c-26.1-9.3-52.7-17.9-78.7-27.3c-5.9-2.1-12.4-5.9-14.8-10.1c-5.7-9.9-13.8-7.9-22.1-3.5c-27.1,14.1-47.8,33.4-77.5,46
	c-25.4,10.8-46.7,15.6-70.1,2.4c-22.8-12.8-45.3-26.3-47.5-50.4c-0.8-8.2-7.8-16.7-14.4-23.8c-5-5.4-13.2-9.7-21.1-13.1
	c-10.1-4.4-25,1-32.9,10.9c-5.7,7.2-9.2,16.3-17.5,21.2c-22.9,13.4-39.1,30.1-52,48.8c-6.8,9.8-17.6,12.9-31.1,7.6
	c-10.6-4.1-20.8-9-30.4-14.3c-16.5-9.2-27.5-9.4-44.8-0.8c-12.7,6.3-26,11.9-39.3,17.6c-12,5.2-22.2,3.2-33.1-3
	c-22.8-13.1-46.1-25.7-70.1-37.6c-18.1-8.9-34.9-3.3-42,11.7c-3.8,8.2-7.6,19.5-16.2,22.8c-20.5,7.8-43.3,14.1-66.2,16.6
	c-24,2.7-42.6,9.1-52.7,25.4c-1.2,2-3,4.2-5.2,5.9c-11.7-14.4-21.8-26.8-31.9-39.3c-2-1-4-1.9-5.9-2.9c-6.1,6.9-12.3,13.8-18.6,20.9
	c-22.5-12.6-27.6-29.3-36.5-44.5c-2.3-3.9-6-11-8.3-10.8c-14,0.9-15.9-7.4-21.1-13c-6.7-7.3-13.1-7.4-20.8-0.7
	c-4.5,3.9-10.9,6.8-14.8,10.9c-7.2,7.5-13,15.6-19.7,23.4c-2.4,2.8-5,5.8-8.5,7.6c-9.4,4.8-21.3,7.6-28.6,13.6
	c-10.8,8.9-18.1,20-27.8,29.6c-4.3,4.3-10.4,7.6-16.2,10.9c-9.1,5.2-18.7,10-28.1,15c-4.2,2.2-8.3,4.6-12.3,6.8V1080h1919.5V444.4
	c1.7,0-1.7,0,0,0c0.8-1.1-0.8-2.1,0-3.2C1912.1,438,1912.2,434.6,1904.8,431.4z"/>
</svg>
