<?xml version="1.0" encoding="utf-8"?>
<!-- Generator: Adobe Illustrator 22.1.0, SVG Export Plug-In . SVG Version: 6.00 Build 0)  -->
<svg version="1.1" id="圖層_1" xmlns="http://www.w3.org/2000/svg" xmlns:xlink="http://www.w3.org/1999/xlink" x="0px" y="0px"
	 viewBox="0 0 1920 1080" style="enable-background:new 0 0 1920 1080;" xml:space="preserve">
<style type="text/css">
	.st0{fill:#1C153F;}
</style>
<path class="st0" d="M776,1080h280.8c1.1,0,2.1,0,3.2,0c286.4,0,572.8,0,859.9,0c0-2.3,0-4.3,0-6.2c0-107.9,0-215.8,0.1-323.7
	c0-5.8-1.3-10.9-6.3-13.8c-5-2.9-10-0.2-14.6,2.1c-2.9,1.4-5.7,3.5-8.8,4.2c-4.6,1-6.8-1.9-6.9-6.5c-0.3-19.9,2.2-40-3.6-59.7
	c-1-3.3-0.6-6.9-0.9-10.4c-1-15.7-3-31.4-0.2-47.1c0.4-2.5,1.3-5,2.3-7.3c3.1-7.5,4-15.2,2.4-23.2c-0.7-3.4-0.7-7-0.6-10.5
	c0.3-7.1,2-13,8.1-18.2c5.4-4.6,9.2-11.4,13.1-17.5c0.8-1.3,0.1-4.7-1.2-6c-4.2-4.6-8.9-8.6-13.5-12.9c-1.1-1-2.7-1.7-3.3-2.9
	c-4.8-10.8-16.4-11.5-24.7-17c-2.4-1.6-3.9-2.7-3.6-5.9c0.3-3.3,0-6.6-0.3-9.9c-0.7-8.4-4.7-12.8-13.6-15.2c-7.3-2-16,0.7-19.9,6.1
	c-3.1,4.3-3.2,8.7-0.3,13.4c1.4,2.3,1.6,5.3,2.8,7.7c1.2,2.6,3.5,4.7,4.5,7.4c1.3,3.6,3.5,4.2,6.9,3.6c1-0.2,2.2,0.8,4,1.5
	c-1.6,2.2-2.9,3.8-4,5.6c-1.1,1.7-1.9,3.5-3.1,5.7c-1.7-0.8-3.1-1.5-4.6-2.2c-6.6-3-13.1-6.5-19.9-8.8c-6.3-2.1-8.3-4.2-8.1-10.7
	c0.3-8.6-1.8-16.3-9.8-21.3c-4.8-3-9.8-4.5-15.1-2.1c-6.6,3-11.1,7.9-12.2,15.2c-0.3,1.9,1,4.1,1.8,6.1c1.2,2.9,2.4,5.9,4,8.6
	c1.1,1.7,3.1,2.7,4.5,4.2c1.2,1.4,2.1,3.1,3.1,4.6c-1.7,0.7-3.5,2.3-5,2.1c-9.5-1.4-19-3.1-28.5-4.8c-0.7-0.1-1.4-0.6-1.9-1.1
	c-7.8-9.3-16.1-18.5-20.1-30.1c-1.7-4.8-0.8-10.5-1.5-16.2c-1.2,4.4-3.1,6.4-7.9,5.1c-1.3-0.4-4.4,3.6-5.6,6.1
	c-0.6,1.2,0.9,4.9,2.1,5.2c9.7,2.5,9.4,11.7,13,18.3c4,7.3,8.6,14.3,13.1,21.4c0.4,0.7,1.4,1.4,2.3,1.5c6.6,1.1,9.3,5.1,9.2,11.6
	c0,0.9,2.4,2.2,3.9,2.6c5.7,1.5,11.6,2.2,17.1,4.3c2.3,0.9,4.8,4.3,5,6.7c1.2,15.2,1.9,30.4,2.6,45.7c0.1,2.9,0,5.9-0.7,8.8
	c-4.5,18.4-9.3,36.7-13.5,55.1c-1,4.5-0.5,9.4-0.7,14.1c-0.1,2.2,0.2,4.4-0.2,6.5c-1.3,7-4,14-4,21.1c0,10.4-3.7,19.3-7.6,28.4
	c-0.4,1-1.2,2.1-1.1,3.1c0.6,10.3-6.5,14.3-14.4,17.4c-4.2,1.6-8.8,2-12.9,3.6c-2,0.8-4.2,2.9-4.7,4.9c-1.2,4.8-3.5,7.1-8.5,6.4
	c-1.4-0.2-2.9-0.1-4.4-0.1c-2.9,0.1-6.6-0.8-8.6,0.7c-1.6,1.2-0.9,5.3-1.6,7.9c-0.4,1.3-1.6,3.1-2.7,3.3c-3.7,0.8-7.6,0.9-12.9,1.5
	c0-15.8-0.1-31.1,0.1-46.4c0.1-5.2-0.6-9.9-3.5-14.6c-3.2-5.2-4.4-11.5-7.1-17c-2.1-4.2-4.6-8.4-7.8-11.9c-3.4-3.8-3.7-7.8-0.7-10.8
	c3.8-3.8,3-7.4,1.1-11c-3.4-6.3-3.9-12.1,0.5-18c1.2-1.6,1.8-3.6,2.6-5.5c2.5-6,9-7.1,12.6-1.7c3.3,5.1,8,5.5,13,5.2
	c1.8-0.1,3.5-2,6.2-3.6c4.3,3.6,9.3,7.7,14.2,11.9c0.7,0.6,1.2,1.4,2,1.9c6.2,3.6,10,8.4,9.6,16c-0.1,1.9,0.8,3.8,1.1,5.2
	c2.7,0,4.7,0.3,6.6-0.1c1.5-0.3,3.6-1.3,4-2.5c0.7-1.8,1-4.6,0-6c-5.7-7.5-11.4-15.1-17.9-22c-8.1-8.6-16.8-16.7-25.4-24.9
	c-3.2-3.1-6.4-6.2-10-8.7c-6-4.1-12.1-8-18.5-11.6c-4.3-2.4-9.1-3.9-13.6-6.1c-3.2-1.6-4.4-3.6-3.3-7.9c3.2-12.5,1.4-20.6-8.3-25
	c-8.2-3.7-14.4,1-20.8,5.1c-1.4,0.9-2.5,2.2-3.9,3c-3.3,1.8-3.4,4.4-1.6,6.9c3.6,5,5,10.1,4.2,16.5c-0.4,3.6-1.4,4.4-4.4,5.4
	c-11.1,3.7-22.2,7.7-33.2,11.8c-1.2,0.5-3.1,1.7-3.1,2.6c0.1,4.8-3.3,5.4-6.6,5.8c-15.1,2.2-27.6,11.1-41.7,15.9
	c-3.6,1.2-7.4,1.7-11.2,2.5c-3.4,0.7-6.7,1.9-10.1,2.1c-7.1,0.5-14.2,1-21.3,0.6c-5.1-0.2-10.1-2.1-15.1-2.7
	c-17.5-2.2-34.9-4.6-52-9.4c-5.4-1.5-11.3-1.5-17-2.2c-4-0.5-5.4-2-4.6-6.6c1.5-9-0.8-17.9-6.6-24.7c-2.3-2.7-8.6-3.8-12.6-3
	c-7,1.2-11.3,6.4-12,13.9c-0.4,3.5-0.9,7.1-1.4,11.4c0,0,1.2,0.2,1.7,0.9c1.6,2.3,3.5,4.7,4.1,7.3c0.2,0.8-2.9,2.7-4.7,3.8
	c-1.6,0.9-3.4,1.6-5.2,1.9c-10.3,2.1-15.7,9.8-21.6,17.6c-4.5,5.9-10.2,11.2-16.3,15.3c-7.7,5.1-14.9,10.5-21.5,17
	c-7.4,7.3-14.8,15.2-26.5,15.3c-0.7,0-1.4,0.4-2.1,0.7c-0.3,0.1-0.5,0.5-1,1.1c1.4,0.8,2.8,1.5,4.9,2.7c-2.5,2.6-4.8,5-8.2,8.6
	c3.8,2.1,7,4.1,10.4,5.6c0.9,0.4,2.8-0.4,3.6-1.3c1.6-1.8,3-3.8,3.9-6c3.7-8.5,10.8-13.2,18.7-17.1c9.7-4.9,19.1-10.2,26.1-19.1
	c1.3-1.6,5.5-2.5,7.6-1.7c7.8,3,7.7,3.3,12.8-3.5c0.3-0.4,0.9-0.6,2.1-1.4c1.5,5.7,3,11.1,4.3,16.4c3.4,13.4,7.3,26.7,4.7,40.8
	c-0.1,0.7-0.1,1.6,0.2,2.1c4.3,5.8,1.4,11.9,1.1,18.1c-1,20-2.7,39.9,5.3,59.3c4.5,10.9,7.7,22.2,11.4,33.4c0.6,1.7,0.9,3.7,0.5,5.4
	c-2.3,9.8-4.9,19.5-7.3,29.2c-0.3,1.2-0.8,2.5-0.7,3.8c0.9,9.6,2.1,19.3,2.8,28.9c0.4,4.9,0.4,10-0.3,14.8c-0.5,3.5-3.2,3.4-5.1,0.9
	c-2.9-3.8-5.4-7.8-8.1-11.8c-4.1-6.2-8.3-12.5-12.3-18.8c-2.7-4.3-5.1-8.9-8-13.1c-1.4-2.1-3.5-5-5.5-5.2c-2-0.2-5.2,1.8-6.5,3.8
	c-3.7,5.8-7.8,10.2-15,12c-5.5,1.4-12.3,13.6-12.3,19.4c0,10.9-0.2,21.7-0.3,32.6c0,1.6-0.5,3.1-1.1,6.1c-1.4-2.2-2.3-3-2.6-4.1
	c-1.8-7.6-6.3-13.1-11.8-18.5c-2.9-2.8-3.5-8.2-4.9-12.4c-2.2-6.9-2-6.4-8.7-4.2c-5.5,1.8-11.4,2.7-17.2,3.2
	c-6.2,0.5-10.5-4.4-8.5-10.3c1.8-5.3,0.9-8.7-2.9-12.6c-2.5-2.5-4.7-6-5.6-9.4c-1.5-5.8-5.4-7.6-10.4-8.9c-1.9-0.5-3.7-1.6-5.7-2.2
	c-3.3-1-4.7-3.1-4.5-6.6c0.1-3.3,0-6.7-0.5-9.9c-0.3-1.9-1.6-5.1-2.5-5.1c-3.6,0-8.9-0.3-10.5,1.9c-4.6,5.9-8.2,12.7-11,19.7
	c-1.7,4.2-1.1,9.3-2.1,13.9c-0.5,2.4-2.2,4.6-3.8,7.7c-1.9-2.7-2.9-4.1-3.8-5.5c-3.6,1.5-7,3.4-10.6,4.2c-3.5,0.8-7.3,0.5-11,0.6
	c-0.2-0.6-0.3-1.2-0.5-1.8c1.1-1.2,2.3-2.5,3.5-3.7c-4.9-16.9-9.6-33.8-14.7-50.6c-0.8-2.7-2.5-5.4-4.2-7.7c-2-2.7-4.2-6.1-1.2-8.3
	c3.2-2.4,8.6-5.1,11.6-4c15.3,5.7,29.6,5.5,44.7-1.1c9-4,19.2-5.4,29.6-8.3c0-0.4,0.3-1.9,0.5-3.4c0.6-4-1.5-5.9-5.1-4.9
	c-4.1,1.1-6-0.1-6.8-5.4c-4.1,13.3-15,12.6-24.3,14.5c-3.4,0.7-7.1,0.4-10.4,1.4c-9.2,3-16.4-1.5-23.7-5.8c-0.6-0.4-1.3-1.9-1.1-2.2
	c0.7-1,1.8-2.3,2.7-2.3c5.9-0.1,8.2-3.6,10.7-8.5c1.4-2.9,5.9-5.2,9.4-6.1c11.3-2.7,20.3-9.1,29.3-15.9c5.7-4.2,11.8-7.9,18.1-11.1
	c7.5-3.7,9.4-8.6,4.8-16c-2.2,1.2-4.2,3-6.6,3.6c-1.9,0.4-4.2-0.6-6.9-1.1c0.2-0.2-0.4,0.2-0.4,0.6c-0.3,10.1-8,13.6-15.5,17.2
	c-8.3,4-16.3,8.4-24.8,11.8c-6.2,2.5-13,3.6-19.6,5.1c-1.3,0.3-3-0.1-4.2-0.7c-1.7-0.9-3.4-14.1-2.5-15.9c0.5-1,1.1-2.5,0.7-3.3
	c-3-5.7-7.7-9.5-14.2-10.1c-6.5-0.6-13-0.9-17,6.1c-3.2,5.6-2.5,11-0.1,16.4c4.2,9.6,3.3,14.1-5.2,20.3
	c-16.9,12.4-28.7,28.7-36.4,48c-0.1,0.2-0.1,0.4-0.2,0.5c-10,10.2-5,20.3,0.7,30c2.4,4.2,5.4,8.5,9.1,11.7
	c9.1,8,10.8,19.4,14.9,29.7c3.7,9.3,2.1,18.6-0.1,28.1c-1.7,7.4-1.6,15.3-2.9,22.9c-1.1,6.9-3.2,13.6-4.2,20.4
	c-0.6,4-0.9,8.4,0,12.3c2.5,10.4-7,26.8-17.7,28.2c-6.2,0.8-8.4,3.9-8.4,9.4c0,5.8,0.5,11.6,0.7,17.4c-0.5,0.1-0.9,0.2-1.4,0.3
	c-0.6-3.2-1-6.4-1.7-9.5c-0.7-3.2-1.5-6.3-2.2-9.1c-3.2,1.4-5.8,2.6-8.4,3.7c0,0.2,0,0.4,0,0.5l-65.1,25.1c0,0-53.9,2.4-61.1,0
	c-7.2-2.4-34.7,10.8-34.7,10.8l-39.5,7.2l-45.5-1.2L776,1080z M1829.7,598.3c-0.4,0-0.8,0-1.1,0c0-8.4,0-16.7,0-25.1
	c0.4,0,0.8,0,1.1,0C1829.7,581.6,1829.7,589.9,1829.7,598.3z M1820.7,739.6c0-2.2,0.4-4.4,0.4-6.5c0.1-6.6,0.1-13.2,0.2-19.8
	c0.2-16.2,1.2-32.4,0.6-48.5c-0.4-10.1-1.8-20.1,0.7-30.1c0.6-2.4,7.2-7.7,9.4-6.4c1.5,0.8,2,4.1,2.1,6.3c0.3,13,0.2,26.1,0.6,39.1
	c0.1,2.6,1.3,5.3,2.1,7.9c1.1,3.2,2.8,6.3,3.5,9.6c2,9.3,3.8,18.6,5.2,28c0.6,4.1,0.3,8.4-0.3,12.5c-0.2,1.3-2.7,3.4-4.1,3.3
	c-6.4-0.3-10.3,3-13.9,8.6c1.1,0.9,1.9,2,3,2.6c3.7,2,3.9,5.7,2.1,8c-1.7,2.1-5.4,2.9-8.3,3.7c-0.8,0.2-3.1-1.2-3.2-2
	C1820.5,750.4,1820.6,745,1820.7,739.6z M1768.2,758.3c2.8-2.9,3.6-5.9,2.2-10.3c-1.3-4.1-0.5-9,0.1-13.4c0.6-4.8,2.1-9.5,3.2-14.3
	c0.4-1.6,0.3-3.3,0.9-4.8c4.4-11.5,6.8-23.4,8.2-35.8c1.3-11.6,2.5-23.8,13.7-33.6c0.8,5.2,1.2,9.4,2.2,13.6
	c2.6,11.5,5.5,22.8,4.9,34.7c-0.5,9.8,0.6,19.6-2.6,29.5c-2.4,7.2-4,15.3,1,22.8c1.8,2.7-2.1,9-5,9.1c-2.1,0.1-4.1,0.2-6.2,0.3
	c1.3,2,2.6,4,3.9,6c0.5,0.8,1.6,1.6,1.5,2.2c-0.2,1.4-1.2,3.8-1.6,3.7C1785.2,766.8,1774,770.1,1768.2,758.3z M1544.2,831.6
	c1.7-2.5,4.3-4.5,5.5-7.2c4.6-10.2,8.6-20.6,13.1-30.9c4.7-10.9,9.3-22,14.7-32.6c3.7-7.3,8.3-14.2,13.1-20.9
	c6.7-9.4,13.4-18.8,21-27.4c3.8-4.4,8.9-7.8,15.9-7.5c10.9,0.5,17.3,8.2,24.3,14.5c2.2,1.9,1.6,6.8,2.5,10.2c0.9,3.4,2,6.7,3,10
	c0.8,2.6,2,5.3,2.1,7.9c0.4,11.3,3.6,22.8-1.1,34c-0.3,0.8-0.1,1.9-0.5,2.7c-1.5,3.7-2.8,7.7-5.1,11c-0.8,1.1-4.5,0.3-6.8-0.2
	c-1-0.2-1.6-2.4-2.6-2.5c-6.3-0.8-12.7-1.9-19.1-1.8c-6.2,0.1-12.3,1.5-18.5,2.3c0-0.2-0.1-0.4-0.1-0.6c-2.9,0.2-6-0.1-8.8,0.6
	c-4.3,1.2-9.5,2-9.8,7.9c-0.4,6.5-0.1,13.1-0.5,19.6c-0.5,9.9-7.4,17.9-17.3,17.6c-7.5-0.2-15.1,0-22.6-0.3c-1.3,0-3.3-1.2-3.8-2.4
	C1542.5,834.8,1543.4,832.9,1544.2,831.6z M1444.9,746.6c-3.8-3.7-7.6-10.6-6.8-15.3c2.8-16.1-7.4-24.5-17.6-32.3
	c-9.2-7-13.4-14.7-10.5-26c0.9-3.4,2.2-6.7,2.7-10.1c0.9-5.3,4.1-6.4,8.8-5.9c4.6,0.5,9.2,1.4,13.7,0.9c3.1-0.4,7.1-2.1,8.7-4.6
	c2.6-3.9,5.4-4,9.3-3.9c7.5,0.2,15-0.4,22.5-0.6c10.5-0.2,21-0.9,31.5-0.1c4.2,0.3,7.9,1.3,11.3-1.5c7.2-5.9,16-7,24.6-8.9
	c8.6-1.8,17-4.3,25.3-7.1c3.7-1.3,6.9-3.5,10.7-0.4c0.6,0.5,2.1,0.3,3.1,0.1c5-1.3,10-2.5,14.9-4c4.4-1.4,6.2-0.2,6.1,4.5
	c0,1.3-0.2,2.6-0.3,3.8c0.4,0.1,0.8,0.2,1.1,0.3c-1.1,4.6-1.9,9.2-3.2,13.7c-1.3,4.4-4.4,8.7-4.2,12.9c0.6,11.2-6.8,19.9-8.5,30.3
	c-0.8,4.8-4.5,9.1-7.1,13.5c-8.3,13.8-11.1,30.7-23.9,42c-0.5,0.4-0.7,1.3-1,2c-4.6,11.4-9.1,22.9-13.7,34.3
	c-2.7,6.8-5.6,13.6-8.3,20.4c-2.1,5.4-3.4,11.3-6.4,16.2c-2.3,3.8-6.4,7.1-10.3,9.4c-3.9,2.2-11.1-1.7-10.8-5.4
	c0.5-4.9,1.5-9.8,2.6-14.6c1.9-8.6,7.6-17.5-2.8-24.7c-0.5-0.4-0.9-1.2-1-1.9c-1.5-7.1-6.4-9.1-13-8.9c-1.8,0.1-3.7-0.2-5.5-0.1
	c-5.6,0.1-7.5-2.2-5.5-7.6c1.2-3.4,3-6.7,4.7-10c3-5.7,2.5-9.6-2.2-14.1c-0.7-0.6-1.1-1.4-1.7-2.2c-4-5.6-5.1-5.8-11.2-2.2
	c-3.9,2.4-7.9,4.8-11.7,7.3C1454.6,749,1448.3,749.8,1444.9,746.6z M1380.3,758.6c2.5-7.1,4.2-14.5,6.8-21.5
	c1.6-4.4,3.6-8.8,6.2-12.8c3.3-5.2,13.2-6.3,18.5-3.3c8.7,4.9,11.9,12.9,13.6,21.9c1.9,10.2,5.2,13.7,15.4,15.7
	c1.8,0.4,3.9,1.7,4.7,3.1c0.4,0.8-1.4,3-2.5,4.4c-1.4,1.7-3,3.2-4.6,4.7c-6.7,6.2-5.5,14.7-4.2,21.8c2.4,13-2.2,20.8-13.2,26.6
	c-5,2.7-8.5,7.1-9.1,13.6c-1,9.5-9.7,11.9-16.8,17.3c-0.4-4.1,0.1-7.3-1.1-9.2c-2.4-3.8-6.2-6.8-0.5-10.8c0.6-0.4,0.3-2.5-0.1-3.6
	c-3-10.8-5.9-21.6-9.2-32.3C1380.5,782.5,1375.8,771.1,1380.3,758.6z M1125.3,924.1c-0.6-11.5-1.5-23.1-2.7-34.6
	c-0.7-6.4-1.3-12.9-3.5-18.9c-5.4-14.5-4.6-18.3,7.6-26.9c0.2-0.1,0.3-0.2,0.4-0.4c2.8-2.2,4.3-1.8,5.5,1.8
	c4.5,13.6,9.1,27.2,13.7,40.8c1,3.1,1.9,6.3,3.2,9.3c1.6,3.8,2.6,8.5,5.4,11c3.3,3,3.2,5.1,0.9,7.7c-6.1,6.8-4.4,13.5,2.6,20.3
	c1.4,1.3,3.1,3.1,3.1,4.7c0,5,2.7,7.7,6.7,9.9c1.4,0.8,2.9,1.7,3.9,3c4.8,6.2,9.5,12.5,14,18.9c0.9,1.3,1.7,3.9,1,4.9
	c-0.9,1.3-3.2,1.9-5,2.3c-2.8,0.6-5.9,0.2-8.6,1c-5.7,1.7-11.2,4.3-17,5.7c-5.4,1.3-7.8,4.5-9.3,9.6c-1,3.5-3.7,6.5-5.7,9.8
	c-0.5-0.5-1-1-1.5-1.4c-2.3-1.9-4.5-5.4-6.8-5.4c-7.1,0-10-6.3-15.2-9.1c-1-0.5-1.3-2.9-1.5-4.4c-2-16.9,2.5-32.8,6.9-48.8
	C1124.5,931.3,1125.5,927.6,1125.3,924.1z"/>
</svg>
