<?xml version="1.0" encoding="utf-8"?>
<!-- Generator: Adobe Illustrator 22.1.0, SVG Export Plug-In . SVG Version: 6.00 Build 0)  -->
<svg version="1.1" id="圖層_1" xmlns="http://www.w3.org/2000/svg" xmlns:xlink="http://www.w3.org/1999/xlink" x="0px" y="0px"
	 viewBox="0 0 1920 1080" style="enable-background:new 0 0 1920 1080;" xml:space="preserve">
<style type="text/css">
	.st0{fill:#002D20;}
</style>
<path class="st0" d="M1856.3,778.1c0,0-13.5-2.5-34-5.3c-0.4-9.4-0.7-18.7-1.1-28c3.9-0.5,8.6-2.4,9.8-1c2.8,3.3,5.5,3.8,9.2,3
	c2.5-0.5,5.1-0.6,7.7-0.7c7.7-0.4,15.4-0.6,23.1-1.1c1.3-0.1,2.4-1.7,4.7-3.3c-4.4-0.9-5.2-2.7-2.9-5.1c-1.9-1.5-3.5-2.8-5.3-4.3
	c4-3.4,9.1-6.1,2.2-12.3c4.3,0,7.4,0,10.4,0c-0.5-0.4-1-0.8-1.4-1.2c1.1-2.7,2.4-5.4,3.3-8.2c0.4-1.3,0.8-3.1,0.3-4.2
	c-0.4-0.8-2.2-1.1-3.5-1.3c-1-0.2-2,0.2-3,0.3c0.3-0.5,0.7-1,1-1.6c-2-1.7-4-3.5-6.3-5.5c1.7-1.5,3.7-3.3,5.8-5.1
	c-0.2-0.3-0.3-0.5-0.5-0.8c-2.1,0.7-4.1,1.5-7.1,2.5c-1.1-3.6-3.7-7.3-2.9-10c0.9-3.2,4.7-5.7,7.3-8.4c-1.9-0.7-4-1.5-5.7-2.1
	c1.4-3.2,2.5-5.9,4-9.3c-2.6,0-4.8-0.7-5.5,0.1c-4.4,4.5-8.2,1.9-11.6,0c0.6-1.7,1.1-3.2,1.6-4.4c5.6-0.2,7.2-4.6,9-9.2
	c-2.5,0.8-5,1.6-8.2,2.6c0.1-1.7,0.2-3,0.3-4.4c0.1-1.5,0.1-2.9,0.2-4.4c-1.3,0.2-2.6,0.5-4,0.6c-0.9,0.1-2.3,0.2-2.7-0.4
	c-0.5-0.7-0.7-2.2-0.2-2.9c1-1.5,2.4-2.8,4.1-4.6c-2.4,0-4.3,0-6.1,0c-2.5-6.9-2.5-6.9-12.8-3.5c1.1-3.6,2-7,2.6-8.9
	c-2.8-2.9-4.7-5.1-5.9-6.3c2.5-4.3,4.4-7.7,6.3-11.1c-2.9-0.5-4.6-0.1-6.3,0.3c-4.9,1.2-6.1,0-5.1-5c0.3-1.7,0.1-3.5,0.1-6
	c-2.1,1.5-3.4,2.3-5.4,3.7c-0.6-6-0.1-13.1-9.4-10c-0.3,1.7-0.7,3.6-1.1,5.9c-9.5-6.2-5.7,3.9-7.9,6.2c-3.1-0.7-5.9-1.4-9.4-2.2
	c0.8,4.6,1.3,7.9,1.9,11.7c-2-0.4-4.1-0.9-6.1-1.3c-0.7,7.8-0.2,14.7,8.8,17.4c-1.2,1.6-1.8,2.5-2.7,3.6c3.2,1.9,6.3,3.7,9.3,5.5
	c-0.1,0.4-0.2,0.9-0.3,1.3c-1.7-0.2-3.5-0.3-5.2-0.7c-1.3-0.3-2.5-1.6-3.8-1.6c-5.4,0.1-8.7-4-12.7-6.4c-3.1-1.8-5.4-5.1-8.3-8
	c-4.3,8.2,5.4,10.6,5.5,17.4c-2.2-1.5-3.8-2.5-6.5-4.4c1.2,4.1,2,7,3.3,11.5c-4.2-1.7-6.9-2.9-9.7-4c-0.5,0.3-1.1,0.6-1.6,0.9
	c2.3,5,4.6,10,6.9,15c-1-0.1-2.2-0.3-3.2-0.4c-4.9,6.9,3.3,9.2,5.2,13.5c-6,3.7-14-2-18.4,5.9c2.7,1.1,5.2,2.1,7.7,3.2
	c-0.2,0.7-0.3,1.4-0.5,2.1c-5-1-10-2.1-15-3.1c-0.2,0.5-0.4,1.1-0.5,1.6c3,2.6,5.9,5.3,9.1,8.1c-2.2,0.9-4,1.7-7.3,3
	c4.7,1.7,8,2.8,11.2,4.2c0.7,0.3,1.1,1.6,1.6,2.5c4.3-3.3,8.6-3.6,14.2,0c-5.2,3.4-9.8-1.1-14.1-0.1c-2,1.6-4,3.3-6.8,5.6
	c3.9,1.7,6.9,3.1,10.1,4.4c-2.9,3.7-5.4,7-7.8,10.2c-2.3-0.6-4.1-1.1-5.9-1.6c-0.3,0.4-0.5,0.7-0.8,1.1c1.8,1,3.7,2,5.5,3
	c-0.4,0.5-0.7,1-1.1,1.4c-1.4,0-2.7,0-4.6,0c1.7,2,2.9,3.4,4.2,4.9c-1.3,0.6-2.5,1.1-3.7,1.6c-1.4,0.7-2.7,1.4-4,2.1
	c1.4,1.2,2.6,2.7,4.1,3.6c1,0.6,2.5,0.2,3.6,0.7c5.1,1.9,10.1,3.9,15.4,5.9c1.2-3.6,4.1-2.9,7.7-0.8c2.6,1.5,5.7,2.4,9.1,3.8
	c0.2,0.4,0.7,1.7,1.4,3.5c1-2.3,1.6-3.8,2.3-5.6c1.2,1.1,2.1,1.9,3.1,2.8c0.9-1.7,1.7-3.1,2.5-4.6c0.5,0.4,1,0.9,1.5,1.3
	c-0.4,2-0.8,4-1.2,6.1c6.8-0.1,3.9-5.5,5-8.9c1.9,0,3.6,0,5.4,0c-0.2,1.3-0.4,2.3-0.7,3.6c7.6-2.9,7.7-2.8,7,5.2
	c-0.1,1.2,0,2.5-0.1,3.7c-0.5,6.2-1,12.3-1.5,18.5c-28.9-3.6-67.8-7-103.4-5.4c-25.6,1.1-41.9-7.6-56.5-16.9
	c-0.7-2.1-2.4-4.5-1.2-6.7c2.3,2,4.5,3.9,6.8,5.8c5.5,4.7,6.8,4.4,9.8-1.9c3.9,1.9,7.8,3.8,11.7,5.8c0.3-0.4,0.6-0.9,1-1.3
	c-1-1.7-2-3.5-3.2-5.6c2-0.6,3.9-1.2,7.5-2.4c-3.1-1.9-5.4-3.3-7.6-4.7c0.4-0.5,0.8-1,1.2-1.4c5.3,2.3,10.7,4.7,16,7
	c0.5-0.8,1-1.5,1.6-2.3c-1.6-0.8-3.3-1.7-5.2-2.7c5.2-1.3,9.5-2.3,13.8-3.3c-0.1-0.5-0.2-1-0.3-1.5c-13.4-2.3-27.3-2.5-39.5-9.1
	c0.1-0.5,0.2-1,0.3-1.4c2.5,0.3,5,0.6,8.2,1c-0.7-1.8-1.2-2.9-1.9-4.6c3.6,0,6.8,0,11.1,0c-1.7-2-2.7-3.2-4.5-5.3
	c4.6,0,8.4,0,12.2,0c0.1-0.6,0.2-1.1,0.3-1.7c-2-0.9-4.1-1.8-6.3-2.8c2.2-0.7,4.2-1.3,6.2-1.9c0.3-0.4,0.6-0.9,0.8-1.3
	c-1.4-0.7-2.7-1.4-4.1-2.1c0.1-0.3,0.2-0.7,0.4-1c4.5,0.3,8.9,0.5,13.4,0.8c0.2-0.5,0.4-1,0.5-1.4c-3.2-1.4-6.3-2.8-9.5-4.2
	c0.1-0.3,0.1-0.6,0.2-0.9c3.7-0.2,7.5-0.4,11.2-0.6c0-0.6,0.1-1.2,0.1-1.7c-5.8-1-11.7-2.1-17.5-3.1c0-0.3-0.1-0.6-0.1-0.8
	c7-2.4,14-4.9,21-7.3c-0.2-0.9-0.4-1.8-0.6-2.7c-6.8,1.1-13.5,2.2-20.5,3.4c2.1-2.4,4.1-4.8,6.2-7.1c-0.3-0.4-0.6-0.8-0.8-1.3
	c-3,1.1-6.3,1.8-8.9,3.5c-10.7,7-21.9,6.8-33.1,1.9c-10.2-4.5-20.2-9.6-30.2-14.6c-1.8-0.9-3.2-2.7-4.5-4.6
	c3.9,1.5,6.6,7.3,11.9,2.6c2.1,1.8,4.2,3.5,7,5.9c-0.2-2.7-0.3-4.7-0.5-8.1c5.2,2.8,9.8,5.3,15.2,8.3c-0.3-2.9-0.5-4.9-0.8-7.3
	c4.3,1.7,8.4,3.3,10.6-2.4c3.8,2.8,7.3,5.5,10.8,8.1c0.5-0.4,1-0.8,1.4-1.2c-1.9-2.9-3.7-5.7-5.8-8.9c10.4-6.2,22-5.3,33.6-4
	c0.1-0.8,0.3-1.6,0.4-2.4c-4.5-2.1-8.9-4.3-14.7-7c8.6,1,15.9,4.2,23.8-0.1c-3.5-4.6-8.4-3.1-12.8-4.1c1.8-1.2,3.5-2.4,5.1-3.5
	c-0.1-0.3-0.3-0.7-0.4-1c-8.8,0-17.5,0-26.7,0c0.3-1.6,0.7-3.2,1.3-6.2c-11.3,3.8-22.1,4.3-32.5,0.2c-10-3.8-21.1-5.4-30.4-13.1
	c6.6-2.4,11.4-0.9,16.6,0.6c6.4,1.8,13.5,1.7,20.2,2.2c1.1,0.1,2.2-1,3.4-1.6c1.3,0.9,2.7,1.9,4.4,3.2c0.7-1.3,1.2-2.2,2-3.6
	c6.5,6.3,10.7-0.5,16.3-2.5c-1-1.3-1.8-2.2-1.7-2.1c2.8-0.9,5.7-1.9,8.6-2.7c6.4-1.9,12.9-3.7,19.3-5.6c1.2-0.4,2.4-1,4.5-1.9
	c-2.8-1-4.5-1.7-6.1-2.3c-0.8-2.3-1.6-4.6-2.5-6.9c4.2-1.7,8.7-3.6,13.2-5.5c-0.1-0.3-0.2-0.6-0.3-0.8c-10.4,0.5-20.7,1-32,1.5
	c1-1.8,1.6-2.7,2.5-4.3c-10.9-1.5-22.2-0.1-32.8-6.4c4.6-1.7,8.2-4.2,12-4.3c3.9-0.1,7.8,2.2,11.6,3.4c0.4-0.5,0.8-1.1,1.1-1.6
	c-1.7-1.2-3.5-2.5-6.5-4.6c5.1-0.3,8.7-0.5,14-0.8c-3.5-1.8-5.6-3-7-3.7c5.1-3.1,10.5-6.2,15.8-9.7c1.2-0.8,1.6-2.9,2.4-4.3
	c-1.5-0.4-3.2-1.3-4.6-1c-4.9,1-9.6,2.4-15.1,3.7c0.2-2.4,0.4-3.8,0.7-6.7c-15,7.5-28.1,2.8-40.9-4.3c5,0.8,9.4-4.7,15.2-0.5
	c2.7,1.9,7.8,0.3,13.3,0.3c-1.9-2.9-2.7-4.1-3.9-6c2.5,0.9,4.3,1.5,6.1,2.1c1.5-4.7,10.7-6.5,4.3-13.6c2-2.4,3.9-4.8,5.8-7.1
	c-0.3-0.4-0.5-0.8-0.8-1.2c-5.6,1.5-11.2,3.3-16.9,4.5c-4.2,0.9-8.6,1.5-12.9,1.5c-4.2,0.1-6.9-2.5-9.2-7.6
	c5.1,0.9,9.1,1.5,13.2,2.2c0.3-0.4,0.5-0.7,0.8-1.1c-1.8-2.1-3.6-4.2-5.3-6.3c2.6-0.8,5.4-1.7,8.1-2.6c-0.6-0.7-1.3-1.4-2.5-2.7
	c1.5-1.1,3.2-2.4,5.3-3.9c-8.5,0.4-16.1,1-23.7,1.1c-7.8,0-15.8,0.8-22.7-3c1.3-2,2.5-3.8,4-6c6.8,8,13.6,0.2,22.4-0.3
	c-3.8-3.5-6.4-5.9-9.6-8.8c5.7,0.5,10.8,1,16.3,1.6c-1.2-5.5,1.7-6.6,5.6-8c3.9-1.5,7.1-4.8,11.2-7.8c-9.5-6.7-18.4-10.5-29.3-5.5
	c-0.1-0.4-0.2-0.9-0.3-1.3c2-1.6,4-3.2,5.9-4.9c-0.2-0.4-0.5-0.8-0.7-1.2c-2.2,0.5-4.4,1-7,1.6c0.8-2,1.4-3.5,2-5
	c-7.7,5.3-15.6,8.5-25,6.5c-8.4-1.8-17.6-2.3-19.8-14.3c4.9,6.7,12,2.7,17.8,5.5c0.6-1.8,1-3.2,1.6-5.1c2.1,1.2,4,2.3,5.9,3.4
	c3.4,2,5.2,1.4,4.6-3.3c6.1,0,12,0,18.8,0c-1.3-2.6-2-3.9-2.6-5.2c0.7-2.5,7.7-0.9,4.3-6.4c4.2-3,8.7-6.2,13.9-10
	c-6.3-1.8-11.4-3.2-16.9-4.8c0.1-0.3,0.4-1.5,0.9-3.5c-7,1.6-13.4,3.1-19.9,4.7c0.6-3.6,1.1-6.3,1.8-10.6
	c-20.5,13.2-35,0.6-50.5-6.9c0.1-0.7,0.3-1.3,0.4-2c5.6,1.3,11.2,2.5,17,3.8c0.2-1.1,0.4-2.8,0.7-4.4c4.1,0.3,7.1,8,11.1,2.3
	c3.2,1.3,6.6,4.2,9.1,3.5c3.3-0.9,7.4-3.5,5.5-9.3c2.7,0.6,4.8,1,6.9,1.5c0.3-2.1,0.5-3.9,0.7-5.8c0.5,0,1-0.1,1.4-0.1
	c-0.9-1.6-1.7-3.1-2.6-4.7c0.3-0.3,0.5-0.6,0.8-0.8c1.7,1.2,3.3,2.9,5.2,3.6c1.8,0.7,4,0.4,6.6,0.6c-0.5-2.2-0.8-3.8-1-5
	c4.1-2,7.9-3.9,11.7-5.8c-0.1-0.5-0.3-1-0.4-1.5c-4.2,0-8.4,0-13.2,0c1-2,1.5-3.1,2.8-5.7c-5.1,2.7-9,4.8-12.6,6.7
	c-1-1.6-1.9-2.9-3.1-4.8c0.4-0.6,1.3-2,2.1-3.4c-0.2-0.3-0.5-0.6-0.7-1c-2.5,1.7-5.3,3-7.4,5.1c-4.8,4.7-10.1,5.9-16.3,3.3
	c-5.6-2.4-11.3-4.5-16.7-7.3c-2.2-1.1-3.7-3.7-5.5-5.6c0.5-0.6,0.9-1.2,1.4-1.8c2,1.2,4.2,2.2,6,3.6c3.3,2.8,5,2.4,6.4-2
	c1.6,1.4,3.1,3,4.8,4c1.6,0.9,3.5,1.2,5.8,1.9c0.2-2,0.3-3.3,0.4-4.6c0.1-1.4,0.1-2.8,0.2-4.7c5.9,0.4,9,8.1,16.6,5.1
	c-3.3-2.6-6.2-4.9-9.1-7.2c0.4-0.5,0.7-1,1.1-1.5c4.7,2.1,9.4,4.2,14.1,6.3c0.3-0.4,0.6-0.8,0.8-1.2c-0.8-1.1-1.5-2.3-2.7-4
	c2.8-1.1,5.5-2.1,8.6-3.2c-0.9-1.1-1.6-2-2.6-3.2c4.3-0.6,9.3,1.3,12-4.5c-1.3-0.7-2.4-1.4-3.6-1.8c-3.7-1.4-8.1,0.6-11.4-3.5
	c-0.9-1-5.5,0.8-8.3,1.6c-2.1,0.6-4.1,1.8-6.1,2.7c-1.6-3-3.1-5.6-4.6-8.3c-1.9,0.6-3.8,1.2-5.9,1.8c-0.4-1.7-0.7-3-1.3-5.1
	c-7.7,5.9-15.2,11.4-24.5,5.9c0.9-2,1.7-3.8,2.5-5.6c-1.9-0.5-4-1.6-5.7-1.3c-10,1.9-14.9-6.4-13.6-17.4c0.4,6.1,1.7,11.6,8,15.3
	c1.3-2.3,2.5-4.4,3.8-6.5c2.3,4.1,4.9,8,11.2,6.9c-0.5-2.1-1-3.8-1.5-5.6c1.2-0.9,2.4-1.8,3.2-2.3c3.7,3.7,7.2,7.3,11.3,11.4
	c1.2-2.3,2-3.3,2.2-4.3c0.6-3.6,1.6-5.2,5.4-2.5c2.7,2,11.9-1.3,16.8-6.2c-7.6-3.8-14.9-7.3-22.3-11c0.4-0.8,1-2.1,1.6-3.5
	c-6-5.6-10.8,2.6-16.5,1.3c0.8-3.2,8.1-1,5-6.4c2.9-1.7,5.8-3.3,8.6-4.9c-0.1-0.5-0.2-1.1-0.3-1.6c-4.5-0.8-8.9-1.6-13.4-2.5
	c1.6-6.4,1.6-6.4,7.8-3.1c4.1-2.8,7.9-5.4,13.2-9c-4.2-1.6-7.5-2.9-11.6-4.5c3.2-3.4,6.4-6.8,10.4-11.1c-3.9-0.7-6.8-1.2-10.4-1.8
	c1.5-2,3.1-3.8,4.1-6c0.6-1.3,0.2-3.1,0.3-4.7c-1.4,0.4-3.2,0.5-4.1,1.4c-2.1,2.1-3.7,4.6-5.7,7c-2.7-2.2-4.2-3.4-6.4-5.2
	c-6.9,9.6-9.1,23.1-22.3,26.5c-1-6.7-2.2-13.3-2.9-20c-0.5-4.6,1.3-8,7-7.7c0.2,1.6,0.4,3.2,0.7,4.9c5-1.5,9.7-2.9,14.6-4.3
	c-2.2-6.1-7.5-8-13-10.2c6.2-2,12.9,2.5,19.5-1.7c-3.7-2.2-6.7-4.1-9.9-6c2.7-2.4,5.3-4.7,7.8-7.1c-0.4-0.6-0.7-1.2-1.1-1.8
	c-4.5,1.8-9,3.7-13.8,5.6c-0.1-1.1-0.2-2.5-0.3-4c-0.4-0.2-0.9-0.5-1.3-0.7c-3.3,5.2-6.6,10.4-9.9,15.6c-0.5-0.3-1-0.6-1.5-0.9
	c-0.4-5.9,0.8-11.2,4.8-15.9c2.7-3.2,5.3-6.6,7.6-10c0.6-0.9,0.3-2.5,0.5-3.8c-1.3,0-2.8-0.4-3.9,0.2c-2.9,1.5-5.6,3.5-8.2,5.1
	c-1.7-4.3,2-12.5-4.1-17.7c-0.7,0-1.4,0-2.1,0c0,7.8,0,15.6,0,24.8c-4.4-4.2-7.8-7.4-12-11.4c-1.7,6.2,1.5,9.6,4.3,12.4
	c5.6,5.5,6.6,12,6.3,19.2c0,0.5-0.2,1-0.3,1.5c0,0.1-0.3,0.2-1.4,1c-2.4-6.7-4.6-13.1-6.9-19.5c-0.6,0.1-1.2,0.1-1.8,0.2
	c-0.8,1.9-1.6,3.9-2.8,6.6c-1.9-1.3-3.9-2.9-6.1-3.9c-1.4-0.6-3.2-0.3-4.7-0.4c0.1,1.5-0.4,3.2,0.3,4.3c1.7,2.8,4.2,5.1,5.9,8
	c0.7,1.2,0.4,3.2,0,4.7c-0.4,1.7-1.5,3.2-2.3,4.8c2.1,0.3,4.3,0.7,6.4,0.8c0.5,0,1.1-0.7,2.3-1.5c0.2,2.8,0.3,5.1,0.5,8.1
	c-3.6-1.6-6.4-2.8-9.6-4.2c-2.4,6.4,3.6,8,5.9,11.7c-1.1,0.2-2.5,0.1-2.9,0.6c-3.4,5.2-6.6,2-10,0c-4.4-2.6-8.9-5.1-13.8-7.9
	c-2.3,6.9,2.4,8.9,6.5,12c-1.5,0.3-2.4,0.3-3.2,0.8c-1.4,0.9-2.6,2-3.9,3c1.4,0.8,2.9,1.6,4.3,2.4c1.4,0.8,3.2,1.3,4.2,2.5
	c1.5,1.8,2.3,4.2,3.6,6.5c-2,0.4-4.4,0.5-6.6,1.4c-1.4,0.6-2.3,2.4-3.5,3.6c1.6,1.1,3.5,3.4,4.8,3.1c4-0.9,7.4-1.6,10.6,1.8
	c0.5,0.6,2.8-0.3,4.1-0.8c1.7-0.6,3.2-1.5,5.5-1.2c-1.6,1.8-3.2,3.6-4.8,5.3c0.2,0.5,0.3,1,0.5,1.5c2.8-0.4,5.6-0.7,8.6-1.1
	c0,1.1,0,2.8,0,6.2c4.2-2,7.5-3.6,11.2-5.3c0.5,1.4,1.2,3.8,2.2,6.8c-10.6,1.5-20.3,4.1-29.5-2.4c-2.9-2.1-6.3-4.6-11.3-1.9
	c2.3,2.1,4.1,3.9,6,5.7c-0.3,0.5-0.5,0.9-0.8,1.4c-6.3-3.5-12.5-7.1-18.9-10.4c-1.8-1-4.1-1.1-6.2-1.6c-0.3,1.7-0.6,3.5-1,5.6
	c-4.5,0.8-9.5,1.6-15.8,2.7c6.7,7.4,13.9,6.8,22.1,6c-1.8,1.4-3.1,2-3.8,3c-0.9,1.3-1.3,2.9-1.9,4.3c1.4,0.4,3,1.3,4.2,1
	c2.1-0.6,4-2,5.8-3.2c1.8-1.1,3.6-2.4,5.3-3.6c0.3,0.3,0.5,0.7,0.8,1c-2.1,1.5-4.2,2.9-6,4.2c0.1,0.9,0,1.3,0.2,1.6
	c1.5,2.1,3.6,6.3,4.6,6c4.4-1.1,8.6-3.3,12.8-5.3c1.3-0.6,2.4-1.8,3.6-2.7c0.3,0.4,0.6,0.7,0.9,1.1c-2,1.5-4.2,2.8-6,4.6
	c-1.4,1.4-2.2,3.3-3.2,5c2.1-0.1,4.2-0.2,6.2-0.4c0.4,0,0.8-0.6,1.6-1.2c0.3,1.5,0.6,2.9,1,5.4c2.5-2.6,4.3-4.6,6.3-6.6
	c8,1.7,18.9-3.5,22.3-10.7c0.4,0.1,0.9,0.3,1.3,0.4c-0.9,2.1-1.1,5-2.7,6.1c-7.5,5.3-15.4,10.2-23.3,15c-1.1,0.7-3.3,0-4.8-0.6
	c-4.5-1.8-8.8-3.9-13.2-5.9c-0.4,0.3-0.8,0.7-1.1,1c0.7,1.7,1.3,3.5,2.3,6c-5.1-1.4-9.6-2.6-14.5-4c-0.3,1.4-0.7,2.8-0.9,3.9
	c-4.6,2.5-12.1-4.9-14.9,5.1c2.2,0.2,3.6,0.3,5.3,0.5c-0.9,1.5-1.7,2.7-2.8,4.4c2.5,0.1,4.3,0.2,6.6,0.4c0.3,1.1,0.6,2.3,1.1,3.8
	c1.4,0.1,2.9,0.2,4.8,0.3c0.2,1.4,0.4,2.7,0.4,2.7c3.4,0.9,6.3,1.3,8.7,2.6c0.7,0.4,0.1,3.2,0.1,6.5c-6-5.9-11.5-4.8-17.5-2
	c2.1,3.1,6.6,5.9,3,11.3c-3.9-2.4-8-4.8-12.1-7.3c-0.4,0.4-0.7,0.8-1.1,1.2c0.4,1.7,0.8,3.5,1.3,5.9c-5.3-0.7-10.3-1.4-15.3-2.1
	c-0.3,0.7-0.5,1.5-0.8,2.2c3.7,2,7.4,4.1,11.5,6.3c-2,3.3,0.2,3.6,3.7,4.6c4.8,1.4,9.1,4.3,13.7,6.6c0,0.6-0.1,1.2-0.1,1.8
	c0.9-1.5,1.9-2.9,3-4.6c6.8,6.9,13.1,13.3,19.5,19.8c-11.1,3.4-22.5,8.6-34.3-0.9c-0.3,2-0.4,2.9-0.5,3.7c-0.1,0.9,0,1.7,0,2.4
	c-4.5,4.1-10.3-4.8-14.3,1.9c2.8,3,5.6,6,8.4,9.1c-0.4,0.4-0.8,0.9-1.1,1.3c1.7,0.2,3.4,0.4,5.1,0.6c2,6.7,2.7,7,9.2,4.6
	c-0.3,8,6.3,3,9.4,4.8c-4.7,4.9-13.4,5.9-19.1,2.4c-2.4-1.4-5.1-4.3-6.7,0.9c-0.2,0.5-2.2,0.5-3.3,0.6c-2.5,0.1-5,0-7.5,0
	c-0.1,0.5-0.2,1-0.4,1.4c1.6,0.8,3.2,1.6,4.7,2.5c1.2,0.7,2.7,1.2,3.4,2.3c3.5,5.4,3.4,5.4,9.9,4.4c0.3,1.5,0.5,3,0.7,4.1
	c3.3,1.7,6.2,3.6,9.3,4.8c1.4,0.5,3.6,0.5,4.7-0.2c2.5-1.6,4.4-4,6.7-5.9c3.4-2.7,5.7-2.2,8.7,1.9c-2.6,0.2-4.9,0.4-8.5,0.6
	c1.3,3.2,2.4,5.9,3.5,8.3c-3.4,1.7-6.7,4.1-10.4,5c-7.3,1.9-14.9,3.2-22.3,4.5c-3,0.5-6.3-0.1-7.2,4.4c-0.2,1.1-3,2.1-4.7,2.4
	c-3.2,0.5-6.5,0.4-10.7,0.7c3.5,5.4,8.4,6.7,13.9,7.5c-1.2,1.7-2,2.9-3.2,4.7c1.7,0.4,3.3,0.4,4.5,1.1c1,0.6,1.4,2,2.1,3.2
	c3.7-0.4,7.4-0.8,11.6-1.2c0.4,2,0.7,3.6,1,5.2c0.6,0.5,1.1,0.9,1.7,1.4c1.3-1.9,2.6-3.8,3.3-4.7c2.6,1.2,5,2.9,7.7,3.5
	c5.2,1.1,6.8-3.1,8.6-7.4c1.1,2.2,1.8,3.8,2.8,5.8c1.6-2,2.9-3.6,4.4-5.5c0.7,1.8,1.4,3.4,2.5,6.1c1.5-3.3,2.6-5.5,3.3-7
	c3.2,0.5,5.9,0.9,10.3,1.6c-10.7,7.4-21.7,10-33.6,11.5c2,6.7,7.9,5,12.7,7.1c-1.5,0.6-3.1,1.5-4.6,1.7c-11,0.9-22,1.6-32.9,2.6
	c-10,0.9-19.9,2.2-30.3,3.4c2.2,5.9,7.4,4.7,11.6,6.5c-3,2.4-5.6,4.6-7.7,6.3c4.9,1.8,9.4,4,14.1,4.9c2.5,0.4,5.4-1.6,8.4-2.6
	c-0.9,1.7-1.9,3.5-2.9,5.3c0.2,0.4,0.4,0.8,0.6,1.2c2.6-0.8,5.1-1.5,7.9-2.4c5.2,5,5.2,5,13.2,0.6c0.3,2.2,0.6,4.5,0.9,6.8
	c3-1,5.9-2.1,8.9-3.1c-0.2,0.8-0.5,2.1-0.9,4.2c7.9-0.2,15,2.1,22.4,4.4c-16.1,6.1-32,14.6-50.2,4.6c0,0.6-0.1,1.1-0.1,1.7
	c1,1.2,1.9,2.5,3.4,4.4c-10.9-1.6-21-3.1-31.1-4.5c-0.2,0.4-0.5,0.7-0.7,1.1c4.3,2.5,8.5,5,12.7,7.5c-0.5,0.2-1.7,0.3-2.6,0.8
	c-0.7,0.5-1.7,1.5-1.6,2.1c0.1,0.8,1.2,1.8,2,2c2.5,0.6,5.1,0.9,8.1,1.5c-1.1,1.6-2,2.9-3.5,5.2c2.7-0.6,4.5-0.9,6.4-1.3
	c3.5,6.5,8.5,1.2,13.1,1.7c-0.3,0.8-0.6,1.6-1,2.8c2.3,1.3,7.3-1.7,6.5,4.7c2-1.4,3.2-2.3,5-3.5c-0.8,2.4-1.5,4.4-2.7,8
	c5-1.8,8.8-3.1,14.2-5c-2.7,3.1-4.1,6.1-6.4,7.1c-6.9,2.8-14.1,5.1-21.4,7c-2.3,0.6-5-0.8-7.6-1.3c-3.9-0.8-7.8-1.9-11.7-2.5
	c-3-0.4-5.3,0.3-2.4,4.6c-5.9-1-11-1.9-16.2-2.8c-0.2,0.4-0.5,0.9-0.7,1.3c1.3,1.9,2.7,3.8,4.3,6.1c-6.3-0.6-12.4-4-18.4-0.7
	c-0.2,0.6-0.3,1.2-0.5,1.8c5.6,1.8,11.2,3.5,16.6,5.2c-1.5,2-3.5,4.6-5.4,7.3c0.7,0,1.5-0.1,2.2-0.1c1.4,2.2,2.6,4.5,4.1,6.6
	c2.3,3.3,12.1,4.1,15.9,1.2c3.6,2.3,5.8,4.8,2.5,8.8c-6.5,1.2-13.1,2.3-19.6,3.5c1.1,5.1,4.3,5.9,16.3,3.5c-3.2,2-5.3,2.9-6.9,4.3
	c-1,0.9-1.3,2.5-1.9,3.8c1.2,0.4,2.4,0.8,3.6,1.1c2.5,0.6,5.1,1.2,7.6,1.8c-0.1,0.7-0.2,1.5-0.5,3c3.2-1,6.1-1.9,10-3.2
	c-1.4,1.8-2.1,2.8-3.9,5.1c3.9-0.7,6.4-1.2,9.2-1.6c0.7,0.8,1.7,1.9,3.8,4.4c-10.8,0-21.1,0-31.3,0c1.1-2.5,2.2-5,3.4-8
	c-3.7,0-6.9-0.9-7.9,0.2c-6.3,6.5-11.8,2.7-16.6,0c0.9-2.4,1.6-4.6,2.3-6.4c8-0.3,10.3-6.5,13-13.1c-3.6,1.1-7.2,2.3-11.7,3.7
	c0.2-2.5,0.3-4.3,0.4-6.2c0.1-2.1,0.2-4.2,0.3-6.2c-1.9,0.3-3.8,0.7-5.7,0.9c-1.3,0.1-3.3,0.2-3.8-0.5c-0.7-1-0.9-3.2-0.3-4.1
	c1.4-2.2,3.4-3.9,5.8-6.6c-3.5,0-6.2,0-8.7,0c-3.6-9.8-3.6-9.8-18.4-5.1c1.5-5.2,2.9-9.9,3.7-12.8c-3.9-4.2-6.8-7.2-8.4-9
	c3.5-6.2,6.3-11.1,9-15.9c-4.2-0.7-6.6-0.2-9,0.4c-7.1,1.7-8.7,0-7.2-7.1c0.5-2.4,0.1-5,0.1-8.6c-3,2.1-4.9,3.3-7.7,5.3
	c-0.9-8.5-0.1-18.7-13.5-14.4c-0.5,2.5-1,5.1-1.6,8.4c-13.6-8.8-8.1,5.7-11.3,8.8c-4.4-1-8.4-2-13.4-3.1c1.1,6.6,1.9,11.4,2.8,16.7
	c-2.9-0.6-5.9-1.3-8.7-1.9c-1,11.2-0.2,21,12.6,24.9c-1.6,2.2-2.6,3.6-3.9,5.2c4.6,2.7,9,5.3,13.3,7.9c-0.2,0.6-0.3,1.2-0.5,1.8
	c-2.5-0.3-5-0.4-7.4-1c-1.9-0.5-3.6-2.3-5.4-2.3c-7.7,0.2-12.4-5.7-18.2-9.2c-4.5-2.6-7.8-7.3-11.9-11.4
	c-6.1,11.8,7.7,15.2,7.9,24.9c-3.2-2.2-5.4-3.6-9.3-6.3c1.7,5.9,2.9,10,4.7,16.4c-6-2.5-9.9-4.1-13.9-5.7c-0.8,0.5-1.5,0.9-2.3,1.4
	c2.6,5.6,5.2,11.3,7.8,16.9c-2.6,0.7-5.3,1.4-8.2,2.1c0.2-2.4,0.4-3.8,0.7-6.7c-15,7.5-28.1,2.8-40.9-4.3c5,0.8,9.4-4.7,15.2-0.5
	c2.7,1.9,7.8,0.3,13.3,0.3c-1.9-2.9-2.7-4.1-3.9-6c2.5,0.9,4.3,1.5,6.1,2.1c1.5-4.7,10.7-6.5,4.3-13.6c2-2.4,3.9-4.8,5.8-7.1
	c-0.3-0.4-0.5-0.8-0.8-1.2c-5.6,1.5-11.2,3.3-16.9,4.5c-4.2,0.9-8.6,1.5-12.9,1.5c-4.2,0.1-6.9-2.5-9.2-7.6
	c5.1,0.9,9.1,1.5,13.2,2.2c0.3-0.4,0.5-0.7,0.8-1.1c-1.8-2.1-3.6-4.2-5.3-6.3c2.6-0.8,5.4-1.7,8.1-2.6c-0.6-0.7-1.3-1.4-2.5-2.7
	c1.5-1.1,3.2-2.4,5.3-3.9c-8.5,0.4-16.1,1-23.7,1.1c-7.8,0-15.8,0.8-22.7-3c1.3-2,2.5-3.8,4-6c6.8,8,13.6,0.2,22.4-0.3
	c-3.8-3.5-6.4-5.9-9.6-8.8c5.7,0.5,10.8,1,16.3,1.6c-1.2-5.5,1.7-6.6,5.6-8c3.9-1.5,7.1-4.8,11.2-7.8c-9.5-6.7-18.4-10.5-29.3-5.5
	c-0.1-0.4-0.2-0.9-0.3-1.3c2-1.6,4-3.2,5.9-4.9c-0.2-0.4-0.5-0.8-0.7-1.2c-2.2,0.5-4.4,1-7,1.6c0.8-2,1.4-3.5,2-5
	c-7.7,5.3-15.6,8.5-25,6.5c-8.4-1.8-17.6-2.3-19.8-14.3c4.9,6.7,12,2.7,17.8,5.5c0.6-1.8,1-3.2,1.6-5.1c2.1,1.2,4,2.3,5.9,3.4
	c3.4,2,5.2,1.4,4.6-3.3c6.1,0,12,0,18.8,0c-1.3-2.6-2-3.9-2.6-5.2c0.7-2.5,7.7-0.9,4.3-6.4c4.2-3,8.7-6.2,13.9-10
	c-6.3-1.8-11.4-3.2-16.9-4.8c0.1-0.3,0.4-1.5,0.9-3.5c-7,1.6-13.4,3.1-19.9,4.7c0.6-3.6,1.1-6.3,1.8-10.6
	c-20.5,13.2-35,0.6-50.5-6.9c0.1-0.7,0.3-1.3,0.4-2c5.6,1.3,11.2,2.5,17,3.8c0.2-1.1,0.4-2.8,0.7-4.4c4.1,0.3,7.1,8,11.1,2.3
	c3.2,1.3,6.6,4.2,9.1,3.5c3.3-0.9,7.4-3.5,5.5-9.3c2.7,0.6,4.8,1,6.9,1.5c0.3-2.1,0.5-3.9,0.7-5.8c0.5,0,1-0.1,1.4-0.1
	c-0.9-1.6-1.7-3.1-2.6-4.7c0.3-0.3,0.5-0.6,0.8-0.8c1.7,1.2,3.3,2.9,5.2,3.6c1.8,0.7,4,0.4,6.6,0.6c-0.5-2.2-0.8-3.8-1-5
	c4.1-2,7.9-3.9,11.7-5.8c-0.1-0.5-0.3-1-0.4-1.5c-4.2,0-8.4,0-13.2,0c1-2,1.5-3.1,2.8-5.7c-5.1,2.7-9,4.8-12.6,6.7
	c-1-1.6-1.9-2.9-3.1-4.8c0.4-0.6,1.3-2,2.1-3.4c-0.2-0.3-0.5-0.6-0.7-1c-2.5,1.7-5.3,3-7.4,5.1c-4.8,4.7-10.1,5.9-16.3,3.3
	c-5.6-2.4-11.3-4.5-16.7-7.3c-2.2-1.1-3.7-3.7-5.5-5.6c0.5-0.6,0.9-1.2,1.4-1.8c2,1.2,4.2,2.2,6,3.6c3.3,2.8,5,2.4,6.4-2
	c1.6,1.4,3.1,3,4.8,4c1.6,0.9,3.5,1.2,5.8,1.9c0.2-2,0.3-3.3,0.4-4.6c0.1-1.4,0.1-2.8,0.2-4.7c5.9,0.4,9,8.1,16.6,5.1
	c-3.3-2.6-6.2-4.9-9.1-7.2c0.4-0.5,0.7-1,1.1-1.5c4.7,2.1,9.4,4.2,14.1,6.3c0.3-0.4,0.6-0.8,0.8-1.2c-0.8-1.1-1.5-2.3-2.7-4
	c2.8-1.1,5.5-2.1,8.6-3.2c-0.9-1.1-1.6-2-2.6-3.2c4.3-0.6,9.3,1.3,12-4.5c-1.3-0.7-2.4-1.4-3.6-1.8c-3.7-1.4-8.1,0.6-11.4-3.5
	c-0.9-1-5.5,0.8-8.3,1.6c-2.1,0.6-4.1,1.8-6.1,2.7c-1.6-3-3.1-5.6-4.6-8.3c-1.9,0.6-3.8,1.2-5.9,1.8c-0.4-1.7-0.7-3-1.3-5.1
	c-7.7,5.9-15.2,11.4-24.5,5.9c0.9-2,1.7-3.8,2.5-5.6c-1.9-0.5-4-1.6-5.7-1.3c-10,1.9-14.9-6.4-13.6-17.4c0.4,6.1,1.7,11.6,8,15.3
	c1.3-2.3,2.5-4.4,3.8-6.5c2.3,4.1,4.9,8,11.2,6.9c-0.5-2.1-1-3.8-1.5-5.6c1.2-0.9,2.4-1.8,3.2-2.3c3.7,3.7,7.2,7.3,11.3,11.4
	c1.2-2.3,2-3.3,2.2-4.3c0.6-3.6,1.6-5.2,5.4-2.5c2.7,2,11.9-1.3,16.8-6.2c-7.6-3.8-14.9-7.3-22.3-11c0.4-0.8,1-2.1,1.6-3.5
	c-6-5.6-10.8,2.6-16.5,1.3c0.8-3.2,8.1-1,5-6.4c2.9-1.7,5.8-3.3,8.6-4.9c-0.1-0.5-0.2-1.1-0.3-1.6c-4.5-0.8-8.9-1.6-13.4-2.5
	c1.6-6.4,1.6-6.4,7.8-3.1c4.1-2.8,7.9-5.4,13.2-9c-4.2-1.6-7.5-2.9-11.6-4.5c3.2-3.4,6.4-6.8,10.4-11.1c-3.9-0.7-6.8-1.2-10.4-1.8
	c1.5-2,3.1-3.8,4.1-6c0.6-1.3,0.2-3.1,0.3-4.7c-1.4,0.4-3.2,0.5-4.1,1.4c-2.1,2.1-3.7,4.6-5.7,7c-2.7-2.2-4.2-3.4-6.4-5.2
	c-6.9,9.6-9.1,23.1-22.3,26.5c-1-6.7-2.2-13.3-2.9-20c-0.5-4.6,1.3-8,7-7.7c0.2,1.6,0.4,3.2,0.7,4.9c5-1.5,9.7-2.9,14.6-4.3
	c-2.2-6.1-7.5-8-13-10.2c6.2-2,12.9,2.5,19.5-1.7c-3.7-2.2-6.7-4.1-9.9-6c2.7-2.4,5.3-4.7,7.8-7.1c-0.4-0.6-0.7-1.2-1.1-1.8
	c-4.5,1.8-9,3.7-13.8,5.6c-0.1-1.1-0.2-2.5-0.3-4c-0.4-0.2-0.9-0.5-1.3-0.7c-3.3,5.2-6.6,10.4-9.9,15.6c-0.5-0.3-1-0.6-1.5-0.9
	c-0.4-5.9,0.8-11.2,4.8-15.9c2.7-3.2,5.3-6.6,7.6-10c0.6-0.9,0.3-2.5,0.5-3.8c-1.3,0-2.8-0.4-3.9,0.2c-2.9,1.5-5.6,3.5-8.2,5.1
	c-1.7-4.3,2-12.5-4.1-17.7c-0.7,0-1.4,0-2.1,0c0,7.8,0,15.6,0,24.8c-4.4-4.2-7.8-7.4-12-11.4c-1.7,6.2,1.5,9.6,4.3,12.4
	c5.6,5.5,6.6,12,6.3,19.2c0,0.5-0.2,1-0.3,1.5c0,0.1-0.3,0.2-1.4,1c-2.4-6.7-4.6-13.1-6.9-19.5c-0.6,0.1-1.2,0.1-1.8,0.2
	c-0.8,1.9-1.6,3.9-2.8,6.6c-1.9-1.3-3.9-2.9-6.1-3.9c-1.4-0.6-3.2-0.3-4.7-0.4c0.1,1.5-0.4,3.2,0.3,4.3c1.7,2.8,4.2,5.1,5.9,8
	c0.7,1.2,0.4,3.2,0,4.7c-0.4,1.7-1.5,3.2-2.3,4.8c2.1,0.3,4.3,0.7,6.4,0.8c0.5,0,1.1-0.7,2.3-1.5c0.2,2.8,0.3,5.1,0.5,8.1
	c-3.6-1.6-6.4-2.8-9.6-4.2c-2.4,6.4,3.6,8,5.9,11.7c-1.1,0.2-2.5,0.1-2.9,0.6c-3.4,5.2-6.6,2-10,0c-4.4-2.6-8.9-5.1-13.8-7.9
	c-2.3,6.9,2.4,8.9,6.5,12c-1.5,0.3-2.4,0.3-3.2,0.8c-1.4,0.9-2.6,2-3.9,3c1.4,0.8,2.9,1.6,4.3,2.4c1.4,0.8,3.2,1.3,4.2,2.5
	c1.5,1.8,2.3,4.2,3.6,6.5c-2,0.4-4.4,0.5-6.6,1.4c-1.4,0.6-2.3,2.4-3.5,3.6c1.6,1.1,3.5,3.4,4.8,3.1c4-0.9,7.4-1.6,10.6,1.8
	c0.5,0.6,2.8-0.3,4.1-0.8c1.7-0.6,3.2-1.5,5.5-1.2c-1.6,1.8-3.2,3.6-4.8,5.3c0.2,0.5,0.3,1,0.5,1.5c2.8-0.4,5.6-0.7,8.6-1.1
	c0,1.1,0,2.8,0,6.2c4.2-2,7.5-3.6,11.2-5.3c0.5,1.4,1.2,3.8,2.2,6.8c-10.6,1.5-20.3,4.1-29.5-2.4c-2.9-2.1-6.3-4.6-11.3-1.9
	c2.3,2.1,4.1,3.9,6,5.7c-0.3,0.5-0.5,0.9-0.8,1.4c-6.3-3.5-12.5-7.1-18.9-10.4c-1.8-1-4.1-1.1-6.2-1.6c-0.3,1.7-0.6,3.5-1,5.6
	c-4.5,0.8-9.5,1.6-15.8,2.7c6.7,7.4,13.9,6.8,22.1,6c-1.8,1.4-3.1,2-3.8,3c-0.9,1.3-1.3,2.9-1.9,4.3c1.4,0.4,3,1.3,4.2,1
	c2.1-0.6,4-2,5.8-3.2c1.8-1.1,3.6-2.4,5.3-3.6c0.3,0.3,0.5,0.7,0.8,1c-2.1,1.5-4.2,2.9-6,4.2c0.1,0.9,0,1.3,0.2,1.6
	c1.5,2.1,3.6,6.3,4.6,6c4.4-1.1,8.6-3.3,12.8-5.3c1.3-0.6,2.4-1.8,3.6-2.7c0.3,0.4,0.6,0.7,0.9,1.1c-2,1.5-4.2,2.8-6,4.6
	c-1.4,1.4-2.2,3.3-3.2,5c2.1-0.1,4.2-0.2,6.2-0.4c0.4,0,0.8-0.6,1.6-1.2c0.3,1.5,0.6,2.9,1,5.4c2.5-2.6,4.3-4.6,6.3-6.6
	c8,1.7,18.9-3.5,22.3-10.7c0.4,0.1,0.9,0.3,1.3,0.4c-0.9,2.1-1.1,5-2.7,6.1c-7.5,5.3-15.4,10.2-23.3,15c-1.1,0.7-3.3,0-4.8-0.6
	c-4.5-1.8-8.8-3.9-13.2-5.9c-0.4,0.3-0.8,0.7-1.1,1c0.7,1.7,1.3,3.5,2.3,6c-5.1-1.4-9.6-2.6-14.5-4c-0.3,1.4-0.7,2.8-0.9,3.9
	c-4.6,2.5-12.1-4.9-14.9,5.1c2.2,0.2,3.6,0.3,5.3,0.5c-0.9,1.5-1.7,2.7-2.8,4.4c2.5,0.1,4.3,0.2,6.6,0.4c0.3,1.1,0.6,2.3,1.1,3.8
	c1.4,0.1,2.9,0.2,4.8,0.3c0.2,1.4,0.4,2.7,0.4,2.7c3.4,0.9,6.3,1.3,8.7,2.6c0.7,0.4,0.1,3.2,0.1,6.5c-6-5.9-11.5-4.8-17.5-2
	c2.1,3.1,6.6,5.9,3,11.3c-3.9-2.4-8-4.8-12.1-7.3c-0.4,0.4-0.7,0.8-1.1,1.2c0.4,1.7,0.8,3.5,1.3,5.9c-5.3-0.7-10.3-1.4-15.3-2.1
	c-0.3,0.7-0.5,1.5-0.8,2.2c3.7,2,7.4,4.1,11.5,6.3c-2,3.3,0.2,3.6,3.7,4.6c4.8,1.4,9.1,4.3,13.7,6.6c0,0.6-0.1,1.2-0.1,1.8
	c0.9-1.5,1.9-2.9,3-4.6c6.8,6.9,13.1,13.3,19.5,19.8c-11.1,3.4-22.5,8.6-34.3-0.9c-0.3,2-0.4,2.9-0.5,3.7c-0.1,0.9,0,1.7,0,2.4
	c-4.5,4.1-10.3-4.8-14.3,1.9c2.8,3,5.6,6,8.4,9.1c-0.4,0.4-0.8,0.9-1.1,1.3c1.7,0.2,3.4,0.4,5.1,0.6c2,6.7,2.7,7,9.2,4.6
	c-0.3,8,6.3,3,9.4,4.8c-4.7,4.9-13.4,5.9-19.1,2.4c-2.4-1.4-5.1-4.3-6.7,0.9c-0.2,0.5-2.2,0.5-3.3,0.6c-2.5,0.1-5,0-7.5,0
	c-0.1,0.5-0.2,1-0.4,1.4c1.6,0.8,3.2,1.6,4.7,2.5c1.2,0.7,2.7,1.2,3.4,2.3c3.5,5.4,3.4,5.4,9.9,4.4c0.3,1.5,0.5,3,0.7,4.1
	c3.3,1.7,6.2,3.6,9.3,4.8c1.4,0.5,3.6,0.5,4.7-0.2c2.5-1.6,4.4-4,6.7-5.9c3.4-2.7,5.7-2.2,8.7,1.9c-2.6,0.2-4.9,0.4-8.5,0.6
	c1.3,3.2,2.4,5.9,3.5,8.3c-3.4,1.7-6.7,4.1-10.4,5c-7.3,1.9-14.9,3.2-22.3,4.5c-3,0.5-6.3-0.1-7.2,4.4c-0.2,1.1-3,2.1-4.7,2.4
	c-3.2,0.5-6.5,0.4-10.7,0.7c3.5,5.4,8.4,6.7,13.9,7.5c-1.2,1.7-2,2.9-3.2,4.7c1.7,0.4,3.3,0.4,4.5,1.1c1,0.6,1.4,2,2.1,3.2
	c3.7-0.4,7.4-0.8,11.6-1.2c0.4,2,0.7,3.6,1,5.2c0.6,0.5,1.1,0.9,1.7,1.4c1.3-1.9,2.6-3.8,3.3-4.7c2.6,1.2,5,2.9,7.7,3.5
	c5.2,1.1,6.8-3.1,8.6-7.4c1.1,2.2,1.8,3.8,2.8,5.8c1.6-2,2.9-3.6,4.4-5.5c0.7,1.8,1.4,3.4,2.5,6.1c1.5-3.3,2.6-5.5,3.3-7
	c3.2,0.5,5.9,0.9,10.3,1.6c-10.7,7.4-21.7,10-33.6,11.5c2,6.7,7.9,5,12.7,7.1c-1.5,0.6-3.1,1.5-4.6,1.7c-11,0.9-22,1.6-32.9,2.6
	c-10,0.9-19.9,2.2-30.3,3.4c2.2,5.9,7.4,4.7,11.6,6.5c-3,2.4-5.6,4.6-7.7,6.3c4.9,1.8,9.4,4,14.1,4.9c2.5,0.4,5.4-1.6,8.4-2.6
	c-0.9,1.7-1.9,3.5-2.9,5.3c0.2,0.4,0.4,0.8,0.6,1.2c2.6-0.8,5.1-1.5,7.9-2.4c5.2,5,5.2,5,13.2,0.6c0.3,2.2,0.6,4.5,0.9,6.8
	c3-1,5.9-2.1,8.9-3.1c-0.2,0.8-0.5,2.1-0.9,4.2c7.9-0.2,15,2.1,22.4,4.4c-16.1,6.1-32,14.6-50.2,4.6c0,0.6-0.1,1.1-0.1,1.7
	c1,1.2,1.9,2.5,3.4,4.4c-10.9-1.6-21-3.1-31.1-4.5c-0.2,0.4-0.5,0.7-0.7,1.1c4.3,2.5,8.5,5,12.7,7.5c-0.5,0.2-1.7,0.3-2.6,0.8
	c-0.7,0.5-1.7,1.5-1.6,2.1c0.1,0.8,1.2,1.8,2,2c2.5,0.6,5.1,0.9,8.1,1.5c-1.1,1.6-2,2.9-3.5,5.2c2.7-0.6,4.5-0.9,6.4-1.3
	c3.5,6.5,8.5,1.2,13.1,1.7c-0.3,0.8-0.6,1.6-1,2.8c2.3,1.3,7.3-1.7,6.5,4.7c2-1.4,3.2-2.3,5-3.5c-0.8,2.4-1.5,4.4-2.7,8
	c5-1.8,8.8-3.1,14.2-5c-2.7,3.1-4.1,6.1-6.4,7.1c-6.9,2.8-14.1,5.1-21.4,7c-2.3,0.6-5-0.8-7.6-1.3c-3.9-0.8-7.8-1.9-11.7-2.5
	c-3-0.4-5.3,0.3-2.4,4.6c-5.9-1-11-1.9-16.2-2.8c-0.2,0.4-0.5,0.9-0.7,1.3c1.3,1.9,2.7,3.8,4.3,6.1c-6.3-0.6-12.4-4-18.4-0.7
	c-0.2,0.6-0.3,1.2-0.5,1.8c5.6,1.8,11.2,3.5,16.6,5.2c-1.5,2-3.5,4.6-5.4,7.3c0.7,0,1.5-0.1,2.2-0.1c1.4,2.2,2.6,4.5,4.1,6.6
	c2.3,3.3,12.1,4.1,15.9,1.2c3.6,2.3,5.8,4.8,2.5,8.8c-6.5,1.2-13.1,2.3-19.6,3.5c1.1,5.1,4.3,5.9,16.3,3.5c-3.2,2-5.3,2.9-6.9,4.3
	c-1,0.9-1.3,2.5-1.9,3.8c1.2,0.4,2.4,0.8,3.6,1.1c2.5,0.6,5.1,1.2,7.6,1.8c-0.1,0.7-0.2,1.5-0.5,3c3.2-1,6.1-1.9,10-3.2
	c-1.4,1.8-2.1,2.8-3.9,5.1c3.9-0.7,6.4-1.2,9.2-1.6c0.7,0.8,1.7,1.9,3.8,4.4c-15.1,0-29.2,0-43.3,0c0,0.6-0.1,1.2-0.1,1.7
	c2.4,1.4,4.9,2.8,7.3,4.2c-0.2,0.4-0.3,0.9-0.5,1.3c-5.2,1-10.5,2-15.7,3c0.1,0.7,0.1,1.4,0.2,2.2c6.5,5.3,13.4,0.9,20.4-0.3
	c-1.9,3.1-3.7,6-5.5,8.9c0.4,0.5,0.8,0.9,1.2,1.4c3.3-0.9,6.5-1.7,10.1-2.7c0.7,2.8,1.4,5.6,2.4,9.5c4-2.4,7.5-4.4,11.7-6.8
	c-0.6,3.2-1.2,6.3-1.8,9.3c0.4,0.3,0.7,0.6,1.1,0.9c5-4.1,10-8.3,14.9-12.4c-1,2.8-2,5.6-3.1,8.5c0.5,0.3,1,0.7,1.5,1
	c2.1-1.6,4.2-3.1,6.4-4.7c1.1,4.1-1,5.9-4.3,6.5c-8.5,1.4-17,4.2-25.7,0.1c-2-0.9-5.4-2.6-6.9,2.2c-1.8-0.1-4.3-0.2-7.2-0.3
	c0.3,1.4,0.5,2.8,0.8,4.1c-4.4,0.3-8.7,0.7-12.9,1c0,0.7-0.1,1.4-0.1,2c2.6,0.7,5.1,1.4,8.6,2.3c-3.2,1.9-6.1,3.6-9,5.3
	c-0.9-0.6-1.7-1-2.5-1.4c-5.2-2.6-47.3-3.5-96.3-3.5c3.8-3.5-3-8.4-0.7-12.9c2.9,2.5,5.7,5,8.6,7.4c7,5.9,8.6,5.6,12.4-2.4
	c4.9,2.4,9.8,4.9,14.7,7.3c0.4-0.6,0.8-1.1,1.2-1.7c-1.2-2.2-2.5-4.4-4-7.1c2.5-0.8,4.9-1.6,9.4-3c-3.9-2.4-6.8-4.2-9.6-5.9
	c0.5-0.6,1-1.2,1.5-1.8c6.7,2.9,13.5,5.9,20.2,8.8c0.7-1,1.3-1.9,2-2.9c-2.1-1.1-4.1-2.1-6.6-3.4c6.6-1.6,12-2.9,17.5-4.2
	c-0.1-0.7-0.2-1.3-0.3-2c-16.9-2.9-34.5-3.2-49.9-11.5c0.1-0.6,0.3-1.2,0.4-1.8c3.2,0.4,6.3,0.8,10.3,1.2c-0.9-2.2-1.5-3.7-2.4-5.8
	c4.6,0,8.6,0,14,0c-2.1-2.5-3.4-4-5.6-6.7c5.8,0,10.6,0,15.4,0c0.1-0.7,0.3-1.4,0.4-2.2c-2.6-1.1-5.1-2.3-8-3.5
	c2.8-0.9,5.3-1.7,7.9-2.4c0.4-0.6,0.7-1.1,1.1-1.7c-1.7-0.9-3.4-1.8-5.2-2.7c0.1-0.4,0.3-0.9,0.4-1.3c5.6,0.3,11.3,0.6,16.9,1
	c0.2-0.6,0.4-1.2,0.7-1.8c-4-1.8-8-3.6-12-5.3c0.1-0.4,0.2-0.8,0.3-1.2c4.7-0.2,9.4-0.5,14.1-0.7c0-0.7,0.1-1.5,0.1-2.2
	c-7.4-1.3-14.8-2.6-22.2-3.9c-0.1-0.4-0.1-0.7-0.2-1.1c8.8-3.1,17.7-6.2,26.5-9.2c-0.3-1.1-0.5-2.2-0.8-3.4
	c-8.5,1.4-17.1,2.8-25.9,4.3c2.6-3,5.2-6,7.8-9c-0.4-0.5-0.7-1.1-1.1-1.6c-3.8,1.4-8,2.3-11.3,4.4c-13.6,8.9-27.6,8.6-41.8,2.4
	c-12.9-5.7-25.5-12.1-38.1-18.5c-2.3-1.2-4.1-3.4-5.7-5.8c5,1.9,8.4,9.3,15,3.3c2.6,2.2,5.3,4.5,8.8,7.4c-0.2-3.4-0.4-5.9-0.6-10.2
	c6.6,3.6,12.4,6.7,19.2,10.4c-0.4-3.6-0.7-6.2-1-9.2c5.4,2.1,10.6,4.1,13.4-3.1c4.7,3.6,9.2,6.9,13.7,10.3c0.6-0.5,1.2-1,1.8-1.5
	c-2.3-3.6-4.7-7.2-7.3-11.3c13.2-7.8,27.8-6.7,42.4-5c0.2-1,0.3-2.1,0.5-3.1c-5.6-2.7-11.3-5.4-18.5-8.9c10.9,1.3,20.1,5.3,30.1-0.1
	c-4.4-5.8-10.6-4-16.2-5.2c2.3-1.6,4.4-3,6.5-4.4c-0.2-0.4-0.3-0.9-0.5-1.3c-11.1,0-22.2,0-33.7,0c0.4-2.1,0.9-4.1,1.7-7.9
	c-14.3,4.8-27.9,5.4-41.1,0.3c-12.6-4.8-26.6-6.8-38.4-16.6c8.4-3,14.3-1.1,20.9,0.7c8.1,2.3,17,2.2,25.6,2.8c1.3,0.1,2.8-1.3,4.2-2
	c1.6,1.2,3.4,2.4,5.6,4c0.9-1.6,1.5-2.8,2.5-4.6c8.2,8,13.5-0.6,20.6-3.2c-1.3-1.6-2.3-2.8-2.2-2.6c3.6-1.1,7.2-2.3,10.9-3.4
	c8.1-2.4,16.3-4.7,24.4-7.1c1.6-0.5,3-1.3,5.7-2.4c-3.5-1.3-5.7-2.2-7.7-2.9c-1-2.9-2-5.8-3.1-8.8c5.3-2.2,11-4.6,16.7-7
	c-0.1-0.4-0.2-0.7-0.4-1.1c-13.1,0.6-26.2,1.2-40.4,1.9c1.3-2.3,2-3.4,3.1-5.4c-13.8-1.9-28-0.2-41.5-8.1c5.8-2.2,10.4-5.3,15.1-5.4
	c4.9-0.1,9.8,2.8,14.7,4.3c0.5-0.7,1-1.4,1.4-2.1c-2.2-1.6-4.4-3.1-8.2-5.8c6.4-0.4,11-0.6,17.7-1c-4.4-2.3-7.1-3.8-8.8-4.7
	c6.4-3.9,13.3-7.8,20-12.2c1.5-1,2-3.6,3-5.5c-2-0.5-4-1.7-5.8-1.3c-6.1,1.2-12.2,3-19,4.7c0.3-3,0.5-4.8,0.9-8.4
	c-18.9,9.4-35.5,3.6-51.7-5.5c6.4,1,11.8-5.9,19.2-0.7c3.4,2.4,9.9,0.4,16.8,0.4c-2.4-3.7-3.4-5.2-4.9-7.5c3.2,1.1,5.4,1.9,7.6,2.7
	c1.9-5.9,13.5-8.2,5.4-17.2c2.5-3.1,4.9-6,7.3-9c-0.3-0.5-0.6-1-1-1.5c-7.1,1.9-14.1,4.1-21.3,5.7c-5.3,1.1-10.9,1.8-16.3,1.9
	c-5.3,0.1-8.7-3.2-11.7-9.6c6.4,1.1,11.5,1.9,16.6,2.8c0.3-0.5,0.6-0.9,1-1.4c-2.3-2.7-4.5-5.3-6.7-7.9c3.3-1.1,6.8-2.2,10.2-3.3
	c-0.8-0.9-1.6-1.8-3.1-3.4c1.9-1.4,4.1-3,6.7-5c-10.7,0.5-20.3,1.3-30,1.3c-9.8,0-19.9,1-28.6-3.8c1.7-2.5,3.2-4.9,5-7.6
	c8.6,10.1,17.1,0.3,28.3-0.3c-4.8-4.4-8.1-7.5-12.1-11.2c7.2,0.7,13.6,1.3,20.6,2c-1.5-6.9,2.1-8.3,7.1-10.1
	c4.9-1.8,8.9-6.1,14.2-9.9c-12-8.5-23.3-13.3-37-7c-0.1-0.5-0.3-1.1-0.4-1.6c2.5-2.1,5-4.1,7.5-6.2c-0.3-0.5-0.6-1-0.9-1.5
	c-2.7,0.6-5.5,1.3-8.9,2c1-2.6,1.7-4.4,2.5-6.3c-9.7,6.7-19.7,10.8-31.6,8.2c-10.7-2.3-22.2-2.9-25-18c6.2,8.5,15.2,3.4,22.5,7
	c0.7-2.3,1.3-4,2.1-6.4c2.6,1.5,5,2.9,7.5,4.3c4.3,2.5,6.6,1.8,5.8-4.2c7.7,0,15.2,0,23.7,0c-1.6-3.2-2.5-4.9-3.3-6.5
	c0.9-3.2,9.7-1.2,5.4-8c5.3-3.8,10.9-7.8,17.6-12.6c-7.9-2.2-14.4-4.1-21.4-6c0.1-0.4,0.5-1.9,1.1-4.4c-8.8,2.1-16.9,4-25.1,5.9
	c0.8-4.6,1.4-8,2.3-13.4c-25.9,16.6-44.3,0.8-63.8-8.7c0.2-0.8,0.4-1.7,0.5-2.5c7.1,1.6,14.2,3.2,21.5,4.8c0.2-1.4,0.5-3.5,0.8-5.5
	c5.2,0.3,9,10.1,14.1,2.9c4,1.7,8.4,5.3,11.6,4.4c4.2-1.1,9.4-4.5,7-11.7c3.4,0.7,6.1,1.3,8.8,1.9c0.3-2.6,0.6-5,0.9-7.4
	c0.6-0.1,1.2-0.1,1.8-0.2c-1.1-2-2.2-4-3.3-5.9c0.3-0.3,0.6-0.7,1-1c2.2,1.6,4.2,3.6,6.6,4.5c2.3,0.9,5.1,0.5,8.4,0.7
	c-0.6-2.8-1-4.8-1.3-6.3c5.2-2.6,10-4.9,14.7-7.3c-0.2-0.6-0.3-1.3-0.5-1.9c-5.3,0-10.6,0-16.7,0c1.2-2.5,1.9-3.9,3.5-7.2
	c-6.5,3.5-11.4,6.1-15.9,8.5c-1.3-2-2.4-3.7-3.9-6.1c0.5-0.8,1.6-2.6,2.7-4.3c-0.3-0.4-0.6-0.8-0.9-1.2c-3.1,2.1-6.7,3.8-9.3,6.5
	c-6.1,6-12.8,7.5-20.6,4.2c-7.1-3-14.3-5.7-21.2-9.2c-2.8-1.4-4.7-4.6-7-7c0.6-0.8,1.2-1.5,1.8-2.3c2.5,1.5,5.3,2.7,7.5,4.6
	c4.2,3.5,6.3,3,8-2.6c2.1,1.7,3.9,3.7,6.1,5c2,1.1,4.4,1.5,7.3,2.4c0.2-2.5,0.4-4.2,0.5-5.8c0.1-1.7,0.2-3.5,0.3-5.9
	c7.4,0.5,11.4,10.2,21,6.5c-4.2-3.3-7.8-6.2-11.5-9.1c0.5-0.6,0.9-1.2,1.4-1.8c5.9,2.7,11.9,5.3,17.8,8c0.4-0.5,0.7-1.1,1.1-1.6
	c-1-1.4-2-2.9-3.5-5c3.6-1.3,7-2.6,10.8-4c-1.1-1.3-2.1-2.5-3.3-4c5.5-0.8,11.7,1.7,15.1-5.6c-1.6-0.8-3-1.7-4.5-2.3
	c-4.6-1.7-10.3,0.8-14.5-4.4c-1.1-1.3-6.9,1-10.5,2c-2.7,0.8-5.2,2.3-7.8,3.5c-2.1-3.7-3.9-7-5.8-10.5c-2.4,0.7-4.8,1.5-7.4,2.3
	c-0.5-2.1-0.9-3.8-1.6-6.5c-9.8,7.5-19.1,14.4-30.9,7.4c1.1-2.6,2.1-4.8,3.1-7.1c-2.4-0.6-5-2-7.3-1.6c-12.6,2.4-18.8-8.1-17.2-22
	c0.5,7.7,2.2,14.7,10.1,19.4c1.7-2.9,3.2-5.5,4.8-8.2c2.8,5.2,6.1,10.1,14.2,8.7c-0.7-2.6-1.2-4.8-1.8-7.1c1.5-1.1,3.1-2.2,4-2.9
	c4.6,4.7,9.1,9.2,14.2,14.5c1.5-2.9,2.5-4.1,2.7-5.5c0.7-4.6,2-6.6,6.8-3.1c3.4,2.5,15-1.7,21.2-7.8c-9.6-4.8-18.8-9.3-28.2-13.9
	c0.5-1,1.2-2.7,2-4.4c-7.6-7-13.7,3.2-20.8,1.7c1-4,10.3-1.2,6.3-8.1c3.7-2.1,7.3-4.2,10.9-6.2c-0.1-0.7-0.3-1.4-0.4-2.1
	c-5.6-1-11.2-2.1-16.9-3.1c2-8.1,2-8.1,9.9-4c5.2-3.5,10-6.8,16.6-11.3c-5.3-2-9.4-3.6-14.7-5.7c4.1-4.4,8.1-8.6,13.1-14
	c-4.9-0.9-8.6-1.5-13.1-2.3c1.8-2.6,3.9-4.9,5.2-7.5c0.8-1.7,0.3-4,0.3-6c-1.8,0.5-4,0.6-5.2,1.7c-2.6,2.6-4.7,5.8-7.2,8.9
	c-3.4-2.7-5.3-4.3-8.1-6.6c-8.7,12.1-11.4,29.2-28.2,33.4c-1.2-8.5-2.7-16.8-3.6-25.2c-0.6-5.8,1.6-10.1,8.9-9.7
	c0.3,2,0.6,4.1,0.9,6.2c6.3-1.9,12.2-3.6,18.5-5.5c-2.7-7.6-9.4-10.1-16.4-12.8c7.9-2.6,16.3,3.2,24.7-2.2
	c-4.6-2.8-8.4-5.1-12.5-7.6c3.4-3,6.6-6,9.9-8.9c-0.4-0.7-0.9-1.5-1.3-2.2c-5.7,2.3-11.4,4.7-17.4,7.1c-0.1-1.4-0.2-3.2-0.3-5.1
	c-0.6-0.3-1.1-0.6-1.7-0.9c-4.2,6.6-8.4,13.1-12.6,19.7c-0.6-0.4-1.3-0.7-1.9-1.1c-0.5-7.4,1-14.2,6-20.1c3.4-4.1,6.6-8.3,9.6-12.7
	c0.8-1.2,0.4-3.2,0.6-4.8c-1.7,0-3.6-0.5-4.9,0.2c-3.7,1.9-7.1,4.4-10.4,6.5c-2.1-5.5,2.5-15.7-5.2-22.4c-0.9,0-1.8,0-2.7,0
	c0,9.9,0,19.8,0,31.4c-5.6-5.3-9.9-9.4-15.2-14.4c-2.2,7.8,1.8,12.1,5.5,15.7c7.1,6.9,8.4,15.2,7.9,24.3c0,0.7-0.2,1.3-0.4,1.9
	c0,0.2-0.3,0.3-1.7,1.2c-3-8.5-5.8-16.5-8.7-24.6c-0.8,0.1-1.5,0.2-2.3,0.3c-1,2.5-2.1,4.9-3.5,8.3c-2.4-1.6-4.9-3.7-7.7-5
	c-1.7-0.8-4-0.4-6-0.5c0.1,1.8-0.5,4.1,0.3,5.4c2.2,3.5,5.4,6.5,7.5,10.1c0.9,1.5,0.5,4,0,5.9c-0.6,2.1-1.9,4-2.8,6
	c2.7,0.4,5.4,0.9,8.1,1c0.7,0,1.4-0.9,2.9-1.9c0.2,3.6,0.4,6.4,0.6,10.2c-4.5-2-8-3.5-12.1-5.3c-3.1,8,4.6,10.1,7.4,14.8
	c-1.4,0.3-3.2,0.1-3.7,0.8c-4.3,6.6-8.4,2.5-12.6,0c-5.6-3.3-11.3-6.4-17.5-10c-2.9,8.8,3,11.3,8.1,15.2c-1.8,0.4-3.1,0.4-4,1
	c-1.7,1.1-3.3,2.5-4.9,3.8c1.8,1,3.7,2,5.5,3c1.8,1,4.1,1.7,5.3,3.2c1.9,2.3,3,5.2,4.5,8.2c-2.5,0.5-5.6,0.6-8.3,1.8
	c-1.8,0.8-2.9,3-4.4,4.6c2.1,1.4,4.5,4.3,6.1,3.9c5-1.1,9.3-2.1,13.4,2.3c0.6,0.7,3.5-0.4,5.2-1c2.1-0.7,4-1.9,6.9-1.5
	c-2,2.2-4,4.5-6,6.7c0.2,0.6,0.4,1.3,0.6,1.9c3.6-0.5,7.1-0.9,10.8-1.4c0,1.4,0,3.5,0,7.8c5.3-2.5,9.5-4.5,14.2-6.7
	c0.6,1.8,1.5,4.8,2.8,8.6c-13.3,1.9-25.6,5.1-37.3-3.1c-3.7-2.6-7.9-5.8-14.3-2.4c2.8,2.7,5.2,4.9,7.6,7.1c-0.3,0.6-0.6,1.2-1,1.7
	c-7.9-4.4-15.8-9-23.9-13.2c-2.3-1.2-5.2-1.4-7.8-2c-0.4,2.2-0.8,4.4-1.3,7.1c-5.6,1-12,2-20,3.4c8.5,9.3,17.6,8.6,27.9,7.6
	c-2.3,1.7-3.9,2.5-4.8,3.8c-1.1,1.6-1.7,3.6-2.5,5.5c1.8,0.5,3.8,1.7,5.4,1.2c2.6-0.8,5-2.6,7.4-4.1c2.3-1.4,4.5-3,6.7-4.5
	c0.3,0.4,0.7,0.9,1,1.3c-2.6,1.8-5.2,3.7-7.6,5.3c0.1,1.1,0,1.7,0.3,2c1.9,2.7,4.5,7.9,5.8,7.6c5.6-1.3,10.9-4.1,16.1-6.6
	c1.7-0.8,3-2.2,4.5-3.4c0.4,0.5,0.8,0.9,1.1,1.4c-2.5,1.9-5.3,3.6-7.5,5.8c-1.7,1.7-2.7,4.2-4.1,6.3c2.6-0.1,5.3-0.2,7.9-0.4
	c0.6-0.1,1.1-0.7,2-1.5c0.4,2,0.7,3.6,1.3,6.8c3.2-3.3,5.5-5.8,7.9-8.4c10.1,2.1,23.9-4.4,28.1-13.5c0.5,0.2,1.1,0.4,1.6,0.5
	c-1.1,2.6-1.4,6.3-3.4,7.7c-9.5,6.7-19.4,12.9-29.4,18.9c-1.4,0.8-4.2,0-6-0.8c-5.6-2.3-11.1-4.9-16.7-7.4c-0.5,0.4-0.9,0.8-1.4,1.3
	c0.9,2.2,1.7,4.4,3,7.6c-6.4-1.8-12.1-3.3-18.4-5.1c-0.4,1.8-0.9,3.5-1.2,5c-5.8,3.1-15.3-6.2-18.8,6.4c2.7,0.2,4.5,0.4,6.7,0.6
	c-1.2,1.9-2.2,3.4-3.6,5.6c3.1,0.2,5.5,0.3,8.4,0.5c0.4,1.4,0.8,3,1.3,4.8c1.8,0.1,3.7,0.2,6,0.4c0.3,1.7,0.5,3.4,0.5,3.4
	c4.3,1.2,7.9,1.7,11,3.3c0.9,0.5,0.1,4.1,0.1,8.2c-7.5-7.5-14.5-6.1-22.1-2.5c2.6,3.9,8.4,7.4,3.8,14.2c-5-3-10.1-6.1-15.2-9.2
	c-0.5,0.5-0.9,1-1.4,1.5c0.5,2.2,1,4.4,1.7,7.4c-6.7-0.9-13-1.8-19.3-2.7c-0.3,0.9-0.7,1.8-1,2.8c4.7,2.6,9.4,5.2,14.5,8
	c-2.5,4.1,0.2,4.5,4.7,5.8c6.1,1.7,11.5,5.5,17.3,8.3c0,0.8-0.1,1.5-0.1,2.3c1.2-1.8,2.4-3.7,3.8-5.8c8.6,8.7,16.6,16.8,24.7,25
	c-14,4.3-28.4,10.8-43.3-1.1c-0.4,2.6-0.6,3.6-0.6,4.7c-0.1,1.1,0,2.2,0,3c-5.7,5.1-13-6-18,2.4c3.5,3.8,7.1,7.6,10.7,11.5
	c-0.5,0.6-1,1.1-1.4,1.7c2.1,0.2,4.3,0.5,6.4,0.7c2.6,8.4,3.4,8.8,11.6,5.9c-0.4,10.1,8,3.8,11.9,6.1c-5.9,6.2-16.9,7.4-24.2,3.1
	c-3-1.8-6.4-5.5-8.5,1.2c-0.2,0.6-2.7,0.7-4.2,0.7c-3.2,0.1-6.3,0-9.5,0c-0.2,0.6-0.3,1.2-0.5,1.8c2,1,4,2,5.9,3.1
	c1.5,0.9,3.4,1.6,4.3,2.9c4.4,6.8,4.3,6.8,12.5,5.5c0.3,1.9,0.7,3.8,0.9,5.2c4.2,2.2,7.8,4.5,11.8,6.1c1.7,0.7,4.5,0.7,5.9-0.3
	c3.1-2,5.5-5.1,8.5-7.4c4.3-3.4,7.2-2.7,11,2.5c-3.3,0.2-6.2,0.5-10.7,0.8c1.7,4,3.1,7.4,4.4,10.5c-4.3,2.1-8.5,5.1-13.1,6.3
	c-9.3,2.4-18.8,4-28.2,5.7c-3.8,0.7-8-0.2-9,5.6c-0.2,1.4-3.8,2.7-5.9,3.1c-4,0.7-8.2,0.6-13.5,0.9c4.5,6.8,10.6,8.5,17.6,9.4
	c-1.5,2.1-2.5,3.7-4.1,6c2.1,0.5,4.2,0.5,5.6,1.4c1.2,0.7,1.8,2.5,2.7,4c4.6-0.5,9.4-1,14.6-1.5c0.5,2.5,0.8,4.5,1.2,6.5
	c0.7,0.6,1.4,1.2,2.1,1.8c1.7-2.4,3.3-4.8,4.1-5.9c3.2,1.5,6.3,3.6,9.8,4.4c6.6,1.4,8.6-3.9,10.9-9.4c1.3,2.7,2.3,4.8,3.6,7.3
	c2-2.5,3.6-4.5,5.6-6.9c0.9,2.3,1.8,4.2,3.2,7.7c1.9-4.1,3.3-7,4.2-8.8c4,0.6,7.4,1.1,13.1,2c-13.6,9.4-27.5,12.6-42.4,14.5
	c2.5,8.4,10,6.3,16.1,9c-1.9,0.7-3.9,1.9-5.9,2.1c-13.9,1.2-27.8,2-41.6,3.3c-12.6,1.2-25.1,2.8-38.3,4.3c2.7,7.5,9.3,5.9,14.7,8.3
	c-3.8,3-7.1,5.7-9.8,7.9c6.2,2.2,11.9,5.1,17.9,6.1c3.2,0.6,6.9-2.1,10.6-3.3c-1.1,2.1-2.4,4.4-3.7,6.7c0.2,0.5,0.5,1,0.7,1.5
	c3.2-1,6.5-1.9,9.9-3c6.6,6.3,6.6,6.3,16.6,0.7c0.4,2.8,0.7,5.7,1.1,8.6c3.8-1.3,7.5-2.6,11.3-3.9c-0.2,1-0.6,2.7-1.2,5.3
	c10-0.2,19,2.7,28.3,5.6c-20.4,7.7-40.4,18.4-63.4,5.8c-0.1,0.7-0.1,1.4-0.2,2.1c1.2,1.6,2.4,3.1,4.3,5.6c-13.8-2-26.6-3.9-39.3-5.7
	c-0.3,0.5-0.6,0.9-0.9,1.4c5.4,3.2,10.7,6.3,16.1,9.5c-0.7,0.2-2.2,0.3-3.3,1c-0.9,0.6-2.2,1.9-2.1,2.7c0.2,1,1.5,2.3,2.5,2.5
	c3.2,0.8,6.5,1.2,10.3,1.8c-1.3,2-2.5,3.7-4.4,6.5c3.5-0.7,5.7-1.2,8.1-1.7c4.4,8.2,10.7,1.6,16.5,2.2c-0.4,1-0.8,2-1.3,3.5
	c2.9,1.7,9.2-2.2,8.2,5.9c2.6-1.8,4.1-2.9,6.3-4.5c-1,3.1-1.8,5.5-3.4,10.1c6.3-2.2,11.1-3.9,18-6.3c-3.4,3.9-5.2,7.7-8.1,8.9
	c-8.8,3.6-17.8,6.5-27,8.9c-2.9,0.7-6.4-1-9.6-1.7c-4.9-1-9.8-2.4-14.8-3.2c-3.8-0.6-6.7,0.4-3,5.8c-7.4-1.3-14-2.4-20.5-3.5
	c-0.3,0.6-0.6,1.1-0.9,1.7c1.7,2.4,3.4,4.7,5.5,7.7c-8-0.7-15.7-5-23.2-0.9c-0.2,0.8-0.4,1.5-0.6,2.3c7.1,2.2,14.2,4.4,20.9,6.6
	c-1.9,2.5-4.4,5.8-6.9,9.2c0.9-0.1,1.8-0.1,2.8-0.2c1.7,2.8,3.3,5.6,5.2,8.3c3,4.2,15.2,5.1,20.1,1.5c4.5,2.8,7.4,6.1,3.1,11.1
	c-8.3,1.5-16.5,2.9-24.8,4.4c1.4,6.4,5.5,7.5,20.6,4.5c-4,2.5-6.7,3.7-8.7,5.5c-1.3,1.1-1.7,3.1-2.5,4.8c1.5,0.5,3,1,4.6,1.4
	c3.2,0.8,6.4,1.5,9.6,2.2c-0.1,0.8-0.3,1.9-0.6,3.8c4.1-1.3,7.7-2.4,12.6-4c-1.7,2.3-2.7,3.5-4.9,6.4c4.9-0.9,8.1-1.5,11.6-2.1
	c0.9,1.1,2.1,2.4,4.8,5.6c-19.1,0-36.9,0-54.7,0c-0.1,0.7-0.1,1.5-0.2,2.2c3.1,1.8,6.2,3.5,9.3,5.3c-0.2,0.6-0.4,1.1-0.6,1.7
	c-6.6,1.3-13.2,2.5-19.8,3.8c0.1,0.9,0.2,1.8,0.3,2.7c8.2,6.7,16.9,1.2,25.8-0.3c-2.4,3.9-4.7,7.6-7,11.3c0.5,0.6,1,1.1,1.5,1.7
	c4.1-1.1,8.2-2.2,12.8-3.4c0.9,3.6,1.8,7.1,3.1,12c5.1-3,9.5-5.5,14.8-8.6c-0.8,4.1-1.5,7.9-2.2,11.7c0.4,0.4,0.9,0.7,1.4,1.1
	c6.3-5.2,12.6-10.5,18.9-15.6c-1.3,3.5-2.6,7.1-3.9,10.7c0.6,0.4,1.3,0.9,1.9,1.3c2.7-2,5.3-3.9,8.1-6c1.4,5.2-1.2,7.5-5.4,8.2
	c-10.8,1.7-21.5,5.3-32.5,0.1c-2.6-1.2-6.8-3.3-8.7,2.7c-2.3-0.1-5.4-0.2-9-0.4c0.4,1.8,0.7,3.5,1,5.1c-5.5,0.4-10.9,0.9-16.3,1.3
	c0,0.9-0.1,1.7-0.1,2.6c3.2,0.9,6.4,1.7,10.9,2.9c-7,4.1-13.1,7.7-19.2,11.2c0,0.4,0,0.9,0,1.3c7.3-1.1,14.6-2.2,21.6-3.2
	c-1.7,2.2-3.6,4.6-6.4,8.2c3.9,0,6.2,0,9,0c-0.7,2-1.2,3.5-2.5,7.1c5.5-2.6,9.4-4.5,13.8-6.7c-0.2,1.7-0.4,3.1-0.8,5.9
	c4.4-1,8.4-1.8,12.8-2.8c0.1,1,0.4,2.5,0.7,4.6c6.8-1.8,13.5-3.6,20.2-5.5c0.3,0.8,0.5,1.6,0.8,2.4c-8.5,2.4-16.9,4.7-25.4,7.1
	c5.1,7.8,10.7,1.9,16.3,3.2c-3,3.4-5.7,6.7-8.5,9.9c0.3,0.5,0.5,1.1,0.8,1.6c6.3-1.9,12.6-3.8,19.7-5.9c-1.7,3.3-3.2,6.4-4.7,9.3
	c3.3,1.4,6.1,2.6,10.2,4.4c0.8-0.6,2.8-2,4.9-3.5c3.2,7.5,7.8,6.7,18.5-3.3c0,3.3,0,6.2,0,9.1c0.6,0.5,1.1,1,1.7,1.6
	c4.6-3.5,9.2-7,13.8-10.4c4,11.7,4,11.7,11.5,5.4c1.4,1,3,2,4.4,2.9c3.7-3.6,7.4-7.1,11.2-10.9c8,4.1,9,3.7,13.8-5.4
	c1.4-2.7,3.2-5.1,5.7-7.3c-0.1,1.8-0.2,3.6-0.3,5.9c1.3-0.3,2.7-0.1,3.3-0.7c5.3-5.4,14.7-8,13-18.2c0.6-0.1,0.8-0.2,1-0.2
	c12,3.2,9.9,12.5,8.1,20.8c-0.9,4.5-2.2,9-3.5,13.5c-2.6,0.2-4.9,0.3-6.6,0.5c-34.5,3-139.7,24-154.7,28.5
	c-11.8,3.5-101.5,19.1-139.4,25.6c1.2-0.9,1.9-2.7,2.2-5.2c0.8-7.3,1.9-14.4-2.9-21c-0.9-1.3-0.4-3.9,0-5.8c1.7-9.4,3.6-18.7,5.4-28
	c1.8-8.9,3.6-17.8,5.4-27.1c4.4,0,8.2,0,12.4,0c-0.9-2.3-1.6-3.9-2.3-5.8c5.9-0.8,4.5-4.7,3.8-8.3c-2.3-12.8-5-25.5-6.7-38.3
	c-1.5-11.4-1.9-23-2.8-34.5c-0.7-8-2.7-16.2-1.9-24c1.5-15.1,4.6-30.1,6.7-43.3c1.5,2.4,4.3,6.7,7.1,11c0.6-0.3,1.2-0.6,1.9-0.9
	c0-9.1,0-18.1,0-28.2c2.9,2.4,5.4,4.5,7.9,6.6c0.2-0.1,0.4-0.3,0.6-0.4c-1.6-2.2-3.1-4.4-4.7-6.7c0.3-0.3,0.6-0.7,0.9-1
	c5.7,4,11.4,7.9,17.4,12.1c-0.8-10-4.5-18.2-12.9-24.2c-2.3-1.7-4.2-4.4-5.4-7.1c-1.3-2.8-1.5-6-2.1-9.1
	c-1.5-7.3-4.4-12.9-12.9-14.2c-3.4-0.5-6.4-3.8-10.7-6.6c3.6-1.5,5.2-2.2,6.8-3c5.5-2.7,6.1-4.5,2.5-9.2
	c-4.1-5.4-8.7-10.4-13.1-15.6c-1.2-1.4-2.5-2.8-3.2-4.4c-5.6-13.5-15.6-16.7-28-8.9c-1.6,1-3.5,1.8-5.4,2.1
	c-14,2.3-20.1,15.4-12.1,26.9c2.8,4,6.5,7.4,9.7,11.2c1,1.2,2.6,2.7,2.4,3.8c-0.6,5.2,1.4,9,5,11.3c-3.2,2.9-6.8,5.3-9.1,8.5
	c-2.8,3.9-5.1,8.4-6.6,12.9c-1,3.2-0.9,7.1-0.3,10.6c0.5,3,2.6,5.7,3.6,8.6c1.2,3.8,2.5,7.4-1.8,10.7c-1.6,1.2-2.6,6.6-2,6.9
	c5.2,2.9,2.3,7.3,2,10.7c-0.5,5.2-2.4,10.3-3.4,15.5c-5.1,25.7-10.4,51.3-14.9,77.1c-2.1,12-2.8,24.3-4,36.4
	c-0.1,1.2,0.8,2.8,1.7,3.8c3.3,3.5,6.2,7.3,11.8,7.9c4.4,0.5,8.8,2.3,13,3.8c1.4,0.5,3.1,1.9,3.6,3.3c5.3,15,10.5,30.1,15.5,45.2
	c0.5,1.6,0.9,4.1,0,5.3c-6.3,8.2-9,19-18.1,25.2c-1.1,0.8-1.9,1.8-3,3.1c-49.7-6.5-163.7-22.1-228.1-36.9c-0.6-14.6-1.2-29-1.7-43.4
	c4.7-0.6,10.4-2.8,11.8-1.3c3.4,4,6.6,4.5,11.1,3.6c3-0.6,6.2-0.7,9.3-0.8c9.3-0.4,18.6-0.7,27.8-1.4c1.5-0.1,2.9-2,5.7-4
	c-5.3-1.1-6.3-3.3-3.4-6.2c-2.2-1.8-4.2-3.4-6.4-5.2c4.9-4.1,11-7.4,2.6-14.8c5.2,0,8.9,0,12.5,0c-0.6-0.5-1.1-1-1.7-1.5
	c1.4-3.3,2.9-6.5,4-9.9c0.5-1.6,1-3.7,0.3-5.1c-0.4-1-2.7-1.3-4.2-1.5c-1.2-0.2-2.4,0.2-3.6,0.4c0.4-0.6,0.8-1.3,1.2-1.9
	c-2.4-2.1-4.8-4.2-7.6-6.6c2-1.8,4.5-4,6.9-6.2c-0.2-0.3-0.4-0.6-0.6-0.9c-2.5,0.9-5,1.8-8.5,3.1c-1.4-4.3-4.4-8.8-3.4-12.1
	c1.1-3.9,5.7-6.8,8.8-10.1c-2.3-0.9-4.9-1.8-6.8-2.5c1.7-3.9,3-7.1,4.8-11.2c-3.1,0-5.8-0.8-6.7,0.1c-5.3,5.5-10,2.2-14,0
	c0.7-2.1,1.4-3.9,1.9-5.4c6.7-0.3,8.7-5.5,10.9-11.1c-3,1-6,1.9-9.8,3.1c0.1-2.1,0.2-3.7,0.3-5.3c0.1-1.8,0.2-3.5,0.3-5.3
	c-1.6,0.3-3.2,0.6-4.8,0.7c-1.1,0.1-2.8,0.2-3.2-0.4c-0.6-0.8-0.8-2.7-0.3-3.5c1.2-1.8,2.9-3.3,4.9-5.5c-2.9,0-5.2,0-7.4,0
	c-3-8.3-3-8.3-15.5-4.3c1.3-4.4,2.4-8.4,3.1-10.7c-3.3-3.6-5.7-6.1-7.1-7.6c3-5.2,5.3-9.3,7.6-13.4c-3.6-0.6-5.6-0.1-7.6,0.3
	c-6,1.4-7.3,0-6.1-6c0.4-2,0.1-4.2,0.1-7.2c-2.6,1.7-4.1,2.8-6.5,4.5c-0.8-7.2-0.1-15.8-11.4-12.1c-0.4,2.1-0.8,4.3-1.3,7.1
	c-11.5-7.4-6.9,4.8-9.5,7.5c-3.7-0.9-7.1-1.7-11.3-2.6c0.9,5.6,1.6,9.6,2.4,14.1c-2.5-0.5-4.9-1.1-7.3-1.6
	c-0.9,9.4-0.2,17.7,10.6,21c-1.4,1.9-2.2,3-3.2,4.4c3.9,2.3,7.6,4.5,11.2,6.6c-0.1,0.5-0.3,1-0.4,1.5c-2.1-0.3-4.2-0.3-6.3-0.8
	c-1.6-0.4-3-2-4.5-1.9c-6.5,0.1-10.5-4.8-15.3-7.7c-3.8-2.2-6.5-6.1-10.1-9.6c-5.2,10,6.5,12.8,6.6,21c-2.7-1.8-4.5-3.1-7.9-5.3
	c1.4,4.9,2.4,8.4,4,13.8c-5.1-2.1-8.4-3.4-11.7-4.8c-0.6,0.4-1.3,0.8-1.9,1.1c2.8,6,5.6,12.1,8.4,18.1c-1.3-0.2-2.7-0.3-3.8-0.5
	c-5.9,8.3,4,11.1,6.3,16.3c-7.3,4.4-16.9-2.5-22.2,7.1c3.2,1.3,6.2,2.6,9.2,3.8c-0.2,0.8-0.4,1.7-0.6,2.5
	c-6.1-1.3-12.1-2.5-18.2-3.8c-0.2,0.6-0.4,1.3-0.6,1.9c3.6,3.2,7.1,6.3,11,9.7c-2.7,1.1-4.9,2-8.8,3.7c5.7,2,9.7,3.4,13.5,5
	c0.9,0.4,1.3,2,1.9,3c5.1-4,10.4-4.4,17.1,0.1c-6.3,4.1-11.8-1.3-17.1-0.1c-2.4,2-4.8,4-8.2,6.7c4.6,2.1,8.4,3.7,12.2,5.4
	c-3.4,4.5-6.5,8.5-9.5,12.3c-2.8-0.8-5-1.4-7.2-2c-0.3,0.4-0.6,0.9-0.9,1.3c2.2,1.2,4.4,2.4,6.7,3.6c-0.4,0.6-0.9,1.2-1.3,1.7
	c-1.6,0-3.3,0-5.5,0c2,2.4,3.5,4.1,5,6c-1.5,0.7-3,1.3-4.5,2c-1.6,0.8-3.2,1.7-4.9,2.5c1.6,1.5,3.1,3.2,5,4.3c1.2,0.7,3,0.3,4.4,0.8
	c6.1,2.3,12.2,4.7,18.5,7.1c1.5-4.4,5-3.5,9.3-0.9c3.2,1.9,6.8,2.9,11,4.6c0.2,0.5,0.8,2.1,1.7,4.2c1.1-2.8,1.9-4.6,2.8-6.7
	c1.4,1.3,2.5,2.3,3.8,3.4c1.1-2,2-3.8,3-5.6c0.6,0.5,1.2,1,1.8,1.6c-0.5,2.4-1,4.9-1.5,7.4c8.2-0.2,4.7-6.7,6-10.7
	c2.3,0,4.3,0,6.6,0c-0.3,1.5-0.5,2.8-0.8,4.4c9.1-3.5,9.3-3.4,8.5,6.3c-0.1,1.5,0,3-0.1,4.5c-0.8,10.1-1.7,20.2-2.3,30.4
	c-6.5-1.7-12.3-3.3-17.1-4.9c-63.1-21-127.7,0-127.7,0V1080h1922.3V766.1L1856.3,778.1z M1518.3,278.1c6.2,2.6,10.8,5.2,11.5,11.7
	C1526.7,285.7,1519.5,285.9,1518.3,278.1z M1530.5,275.1c-2.9-6.3-5.2-11.4-8.1-17.8C1528.6,261.9,1531.9,266.6,1530.5,275.1z
	 M1108.3,374.2c6.2,2.6,10.8,5.2,11.5,11.7C1116.7,381.8,1109.5,382,1108.3,374.2z M1120.5,371.2c-2.9-6.3-5.2-11.4-8.1-17.8
	C1118.6,358,1121.9,362.8,1120.5,371.2z M712.7,211.3c7.9,3.3,13.7,6.6,14.5,14.8C723.2,220.8,714.2,221.1,712.7,211.3z
	 M728.1,207.5c-3.6-7.9-6.6-14.4-10.3-22.5C725.7,190.8,729.9,196.8,728.1,207.5z M596.1,675c3-3.3,5-5.6,7.9-8.9
	c2.3,3.2,4.4,6.2,6.9,9.8c2.9-3.9,4.7-6.2,6.8-9c3.9,2.8,7.6,5.5,11.9,8.6C617.9,678.4,607.7,676.6,596.1,675z M707.4,332.1
	c-8.6,1.5-17.2,3.6-25.8,3.8c-4.5,0.1-5.5-5.1-5-11.8c7.7,7.3,14.5,12.9,21.5,3.4c2.2,1.4,3.8,3.4,5.4,3.3c2-0.1,3.9-1.8,6.7-1.6
	C709.3,330.2,708.5,331.9,707.4,332.1z M430.1,607.3c0.6,13.4,1.2,25.5,1.8,38.4C421.7,638.3,421.4,622.2,430.1,607.3z M421.1,869
	c0.4,0.1,0.7,0.1,1.1,0.2c-2.4,0.4-4.5,0.8-6.3,1.1c0.2-0.3,0.5-0.7,0.7-1.1C416.9,868.5,419.6,868.7,421.1,869z M417.7,781
	c-0.9,12.7-1.7,24.8-2.5,36.8c-0.3,0-0.6,0-0.8,0c-1.7-11.5-3.5-22.9-5.3-34.7C411.6,782.4,413.9,781.9,417.7,781z M755.1,237.5
	c-4.4,2.2-8.1,4-11.9,5.8C741.2,236.3,742.5,235.6,755.1,237.5z M747.8,309.6c-0.5,0-1,0-1.5,0.1c0-5.1,0-10.3,0-15.4
	c0.5,0,1,0,1.5,0C747.8,299.3,747.8,304.4,747.8,309.6z M765.3,812.3c-1-5.7-2-11.3-2.9-16.9c0.9-0.4,1.7-0.7,2.6-1.1
	c3,3.4,5.9,6.8,9.4,10.9c0.6-2.1,0.9-3.2,1.6-5.4c2.1,8.2,6.7,11,12.4,12C780.2,811.9,772.5,812.1,765.3,812.3z M832.2,811
	c0.1-2.3,0.3-5.1,0.4-8.1c3,1.2,7,2.7,10.4,4c1.4-1.4,2.6-3.3,3.6-3.3c1.5,0,3.5,1.2,4.4,2.5c1.2,1.9,2.2,3.9,3.7,4.7
	C847.3,810.9,839.7,810.9,832.2,811z M858.4,810.8c0.5-0.2,1.1-0.5,1.7-0.9c0.5-0.3,1.5,0.1,2.7,0.9
	C861.3,810.8,859.9,810.8,858.4,810.8z M869.9,810.7c0.2-0.3,0.3-0.6,0.5-0.9c0.9,0.2,1.7,0.6,2.6,0.9
	C871.9,810.7,870.9,810.7,869.9,810.7z M988.5,821c-1.3-0.8-2.6-1.6-3.7-2.3c2.1-0.3,4.1-0.6,6.2-0.9
	C990.3,818.7,989.5,819.8,988.5,821z M1001.6,827.6c-1-0.4-2-0.9-3-1.3c1.1-0.5,2.2-1.1,3.4-1.6
	C1001.9,825.6,1001.8,826.5,1001.6,827.6z M1014.5,832.3c-3.8-1.2-7.2-2.4-10.3-3.6c2.4-0.5,4.8-1,7.3-1.6c0.1,0.8,0.3,2,0.5,3.7
	c5.4-1.5,10.7-2.9,16-4.3c0.2,0.6,0.4,1.3,0.7,1.9C1024,829.6,1019.2,831,1014.5,832.3z M1016,741.3c2.3-2.6,3.9-4.4,6.3-7.1
	c1.8,2.6,3.5,4.9,5.4,7.7c2.3-3.1,3.7-4.9,5.4-7.1c3.1,2.2,6,4.3,9.4,6.8C1033.3,744,1025.2,742.6,1016,741.3z M1083.7,472.9
	c-3.6,0.1-4.4-4-3.9-9.4c6.1,5.8,11.5,10.2,17,2.7c1.7,1.1,3,2.7,4.2,2.6c1.6-0.1,3.1-1.4,5.3-1.3c-0.7,0.8-1.3,2.1-2.2,2.3
	C1097.4,471.1,1090.6,472.8,1083.7,472.9z M1122.8,840.5c-0.2,1.1-0.5,2.3-0.8,3.4c-9.1,0.1-17.5,0-25.5-0.3c0.6-0.9,1.2-2,1.9-3.4
	c1.1-2.1,2.5-4.1,4.5-5.8c-0.1,1.4-0.2,2.9-0.3,4.7c1.1-0.2,2.1-0.1,2.6-0.6c4.2-4.3,11.7-6.3,10.3-14.4c0.5-0.1,0.6-0.2,0.8-0.2
	C1125.9,826.6,1124.2,833.9,1122.8,840.5z M1141.9,395c-3.5,1.7-6.4,3.2-9.4,4.6C1130.9,394.1,1131.9,393.5,1141.9,395z M1136.1,452
	c-0.4,0-0.8,0-1.2,0c0-4.1,0-8.1,0-12.2c0.4,0,0.8,0,1.2,0C1136.1,443.9,1136.1,448,1136.1,452z M1148.8,843.3
	c-0.4-2.2-0.8-4.4-1.2-6.6c0.7-0.3,1.4-0.6,2.1-0.8c2,2.3,4,4.6,6.2,7.2C1153.5,843.1,1151.1,843.2,1148.8,843.3z M1157.6,842.9
	c0.3-0.9,0.5-1.6,0.8-2.8c0.3,1,0.6,1.9,0.9,2.7C1158.8,842.8,1158.2,842.8,1157.6,842.9z M1290.8,778.4c-5,0.8-10.1,1.7-15.2,2.5
	c1.9-2.2,3.7-4.3,5.5-6.4C1284,775.9,1287.3,777,1290.8,778.4z M1261.9,710.5c1.3-0.4,2.7-0.9,4.1-1.3c3.2,0.1,6.6,1.3,10.3,3.8
	c-5.1,3.3-9.7,1.4-14.2,0.3c0.5-0.3,1-0.5,1.5-0.7C1262.6,711.3,1261.8,710.4,1261.9,710.5z M1264.2,662.3c0.6,1.6,1.8,3.1,3.2,4.4
	c-2.7-1.4-4.4-2.3-5.6-3C1262.5,663.3,1263.4,662.8,1264.2,662.3z M1248.4,671.1c3.9-0.1,7.8,2.2,11.6,3.4c0.4-0.5,0.8-1.1,1.1-1.6
	c-1.7-1.2-3.5-2.5-6.5-4.6c4.9-0.3,8.4-0.5,13.4-0.8c2.1,2,4.3,3.9,5.3,6.2c-8,4.9-18.3-1.7-24.7,6.1c-4.1-0.8-8.2-2-12.3-4.4
	C1241,673.7,1244.7,671.2,1248.4,671.1z M1217.4,714.9c6.4,1.8,13.5,1.7,20.2,2.2c1.1,0.1,2.2-1,3.4-1.6c1.3,0.9,2.7,1.9,4.4,3.2
	c0.7-1.3,1.2-2.2,2-3.6c1.2,1.1,2.2,1.8,3.3,2.2c-1.3,1.1-2.7,2.2-4.3,3.6c5.5,2.4,9.9,4.4,14.4,6.4c-0.3,0.4-0.6,0.8-0.9,1.2
	c-9.9,2.6-19.3,2.6-28.6-0.9c-10-3.8-21.1-5.4-30.4-13.1C1207.5,712,1212.2,713.5,1217.4,714.9z M1238.9,778
	c-10.2-4.5-20.2-9.6-30.2-14.6c-1.8-0.9-3.2-2.7-4.5-4.6c3.9,1.5,6.6,7.3,11.9,2.6c2.1,1.8,4.2,3.5,7,5.9c-0.2-2.7-0.3-4.7-0.5-8.1
	c5.2,2.8,9.8,5.3,15.2,8.3c-0.2-1.9-0.4-3.4-0.5-4.9c1,0.9,2,1.8,3.2,2.5c1.4,0.9,3.6,0.3,5.2,0.9c7.3,2.7,14.5,5.5,22,8.4
	c1.7-5.2,5.9-4.1,11.1-1.1c0,0,0,0,0,0c-2.4,0.8-4.8,1.5-6.8,2.8C1261.2,783.1,1250,782.9,1238.9,778z M1329.4,783.9
	c-0.1,1.8,0,3.6-0.1,5.3c-0.7,9.7-1.6,19.3-2.3,29c-15.6,3.5-31.4,6.8-47.3,9.8c-8.6-1.2-17.2-2.8-25-7c0.1-0.5,0.2-1,0.3-1.4
	c2.5,0.3,5,0.6,8.2,1c-0.7-1.8-1.2-2.9-1.9-4.6c3.6,0,6.8,0,11.1,0c-1.7-2-2.7-3.2-4.5-5.3c4.6,0,8.4,0,12.2,0
	c0.1-0.6,0.2-1.1,0.3-1.7c-2-0.9-4.1-1.8-6.3-2.8c2.2-0.7,4.2-1.3,6.2-1.9c0.3-0.4,0.6-0.9,0.8-1.3c-1.4-0.7-2.7-1.4-4.1-2.1
	c0.1-0.3,0.2-0.7,0.4-1c4.5,0.3,8.9,0.5,13.4,0.8c0.2-0.5,0.4-1,0.5-1.4c-3.2-1.4-6.3-2.8-9.5-4.2c0.1-0.3,0.1-0.6,0.2-0.9
	c3.7-0.2,7.5-0.4,11.2-0.6c0-0.6,0.1-1.2,0.1-1.7c-5.8-1-11.7-2.1-17.5-3.1c0-0.3-0.1-0.6-0.1-0.8c5.7-2,11.4-4,17.1-5.9
	c0.3,0.7,0.6,1.4,0.9,2.2c0.5-1.1,0.9-2.1,1.2-3c0.6-0.2,1.2-0.4,1.8-0.6c-0.2-0.8-0.4-1.6-0.6-2.4c0.3-0.7,0.5-1.3,0.8-2
	c1.7,1.5,3,2.7,4.5,4.1c1.3-2.4,2.4-4.5,3.6-6.6c0.7,0.6,1.4,1.2,2.1,1.9c-0.6,2.9-1.2,5.8-1.8,8.8c9.7-0.2,5.5-7.9,7.1-12.7
	c2.7,0,5.1,0,7.8,0c-0.3,1.8-0.6,3.3-1,5.2C1330.2,772.3,1330.3,772.4,1329.4,783.9z M1493.7,376.8c-3.6,0.1-4.4-4-3.9-9.4
	c6.1,5.8,11.5,10.2,17,2.7c1.7,1.1,3,2.7,4.2,2.6c1.6-0.1,3.1-1.4,5.3-1.3c-0.7,0.8-1.3,2.1-2.2,2.3
	C1507.4,375,1500.6,376.7,1493.7,376.8z M1426,645.2c2.3-2.6,3.9-4.4,6.3-7.1c1.8,2.6,3.5,4.9,5.4,7.7c2.3-3.1,3.7-4.9,5.4-7.1
	c3.1,2.2,6,4.3,9.4,6.8C1443.3,647.9,1435.2,646.5,1426,645.2z M1403.5,693.8c3.3-0.9,6.5-1.7,10.1-2.7c0.7,2.8,1.4,5.6,2.4,9.5
	c4-2.4,7.5-4.4,11.7-6.8c-0.6,3.2-1.2,6.3-1.8,9.3c0.4,0.3,0.7,0.6,1.1,0.9c5-4.1,10-8.3,14.9-12.4c-1,2.8-2,5.6-3.1,8.5
	c0.5,0.3,1,0.7,1.5,1c2.1-1.6,4.2-3.1,6.4-4.7c1.1,4.1-1,5.9-4.3,6.5c-8,1.3-16.1,3.9-24.2,0.7c0,0,0.1-0.1,0.1-0.1
	c-0.2-0.4-0.5-0.7-0.7-1.1c-0.4,0.1-0.8,0.3-1.2,0.4c-2-1-5.2-2.2-6.6,2.3c-0.8,0-1.7-0.1-2.7-0.1c-1.5-4-3.8-8-3.9-11.4
	C1403.4,693.7,1403.4,693.8,1403.5,693.8z M1438.7,732.2c-5.1,1.4-10.2,2.8-15.3,4.3c0.4-0.8,0.7-1.6,1-2.5
	c4.6-1.2,9.1-2.5,13.6-3.7C1438.3,731,1438.5,731.6,1438.7,732.2z M1532.8,744.4c-0.7,3.5-1.7,7-2.7,10.5c-48,20-115.9,42.6-189,60
	c-0.5-12.6-1-25-1.5-37.5c5.6-0.7,12.4-3.4,14-1.5c4.1,4.7,7.8,5.4,13.2,4.3c3.6-0.7,7.3-0.8,11-1c11-0.5,22-0.8,33-1.6
	c1.8-0.1,3.5-2.4,6.8-4.8c-6.3-1.3-7.5-3.9-4.1-7.3c-2.7-2.2-5-4-7.6-6.2c5.8-4.9,13.1-8.8,3.1-17.5c6.2,0,10.5,0,14.9,0
	c-0.3-0.3-0.6-0.5-0.9-0.8c2.8,0.4,5.6-1.3,8.5-0.7c-2.3,2.7-4.5,5.3-6.7,7.9c0.2,0.4,0.4,0.9,0.6,1.3c5-1.5,9.9-3,15.6-4.7
	c-1.3,2.6-2.5,5.1-3.7,7.4c2.6,1.1,4.8,2.1,8.1,3.4c0.6-0.4,2.2-1.6,3.9-2.8c2.5,5.9,6.2,5.3,14.6-2.6c0,2.6,0,4.9,0,7.2
	c0.4,0.4,0.9,0.8,1.3,1.2c3.6-2.8,7.3-5.5,10.9-8.3c3.2,9.3,3.2,9.3,9.1,4.2c1.1,0.8,2.4,1.6,3.5,2.3c2.9-2.8,5.8-5.6,8.9-8.6
	c6.3,3.2,7.1,2.9,10.9-4.3c1.1-2.1,2.5-4.1,4.5-5.8c-0.1,1.4-0.2,2.9-0.3,4.7c1.1-0.2,2.1-0.1,2.6-0.6c4.2-4.3,11.7-6.3,10.3-14.4
	c0.5-0.1,0.6-0.2,0.8-0.2C1535.9,730.5,1534.2,737.8,1532.8,744.4z M1551.9,298.9c-3.5,1.7-6.4,3.2-9.4,4.6
	C1540.9,298,1541.9,297.4,1551.9,298.9z M1546.1,355.9c-0.4,0-0.8,0-1.2,0c0-4.1,0-8.1,0-12.2c0.4,0,0.8,0,1.2,0
	C1546.1,347.8,1546.1,351.9,1546.1,355.9z M1558,742.5c-0.1-0.7-0.2-1.3-0.3-2c0.7-0.3,1.4-0.6,2.1-0.8c0.4,0.5,0.8,0.9,1.2,1.4
	C1560,741.5,1559,742,1558,742.5z"/>
</svg>
