<?xml version="1.0" encoding="utf-8"?>
<!-- Generator: Adobe Illustrator 22.1.0, SVG Export Plug-In . SVG Version: 6.00 Build 0)  -->
<svg version="1.1" id="圖層_1" xmlns="http://www.w3.org/2000/svg" xmlns:xlink="http://www.w3.org/1999/xlink" x="0px" y="0px"
	 viewBox="0 0 1920 1080" style="enable-background:new 0 0 1920 1080;" xml:space="preserve">
<style type="text/css">
	.st0{fill:#35253A;}
</style>
<path class="st0" d="M1271.4,1072.2l-6.4-12.8c-0.1-0.2-0.2-0.4-0.3-0.7c-0.9-2.6-7.1-20.2-15.6-31.1c-7.1-9.2-19.8-12-25.1-12.8
	c-1.6-0.2-2.9-1.1-3.8-2.4c-4.6-7.2-18.9-30.7-15.6-38.4c3.4-7.9,0.9-19.7,0.2-22.8c-0.1-0.5-0.2-1-0.1-1.6
	c0.2-3.8,1.1-19.8-0.1-26.6c-1.3-7.8-3.9-15.7-9.2-20.9c-5.2-5.2-17-20.9-22.2-32.7c-5.2-11.8,2.6-14.4,0-23.5
	c-2.6-9.2,2.6-25.1,2.6-32.7c0-6.5-2.6-6.5-2.6-6.5l-13.7-1.1c-1.3-0.1-2.4-0.6-3.3-1.5c-4.2-4.1-17-16.3-23.5-19.6
	c-2.6-1.3-3.5-2.9-3.5-4.5c0-4.3-2.5-8.2-6.6-9.3c-4.6-1.3-10.3-2.6-16.1-3.2c-12.1-1.2-24.1-0.2-25.9,0c-0.2,0-0.3,0-0.5,0h-23.3
	h-14.1c0-1.5-2-3.3-3.9-5.3c14.6-1.3,17.4-15.1,25.9-22.9c4.5-4.1,3.6-12.1-2.7-16.6c-6.3-4.5-14.1-7.1-21.4-10.1
	c-4.2-1.7-9.2,1.4-13.4-3.4c-1.6-1.8-7.8,0.1-11.8,1.1c-4,0.9-5.9-0.4-8.5-3.4c-10.8-12.1-10.2-26.8-10.3-41.3c0-2,1.5-4,2.3-5.9
	c1.8-4.3,3.6-8.6,5.6-13.4c6.2,8.2,12.8,16.8,19.2,25.5c3.3,4.3,6.3,8.9,9.7,13.1c4.2,5.1,7.7,5.3,11.6-0.2
	c3.7-5.3,6.9-11.1,9.2-17.1c4.6-11.7,8.4-23.7,12.9-35.4c1.9-4.8,4.8-9.2,7.6-13.6c3.4-5.4,7.9-6.2,13.2-2.3c3,2.2,6.3,3.9,9.5,5.7
	c5.6,3.1,10.2,2.5,14.1-3.1c1.8-2.6,4.4-4.7,6.7-7c0-0.9,0-1.7,0-2.6c-2.1,0.2-4.2,0.3-6.7,0.5c-0.3-5.9-4.4-6.1-9-5.9
	c-2.8,0.1-5.9,0.3-8.4-0.7c-8.3-3.2-13.8,0.4-19.7,5.9c-12.8,12.3-21.2,27.4-30.1,42.4c-2.2,3.7-4.8,7.1-8.5,12.7
	c-7.8-14.8-15.5-27.8-21.8-41.5c-4.3-9.4-10.6-13.7-20.7-13.6c-10.7,0.1-18-6.9-18.6-17.6c-0.1-1.5,0.8-3.2,1.5-4.7
	c2.4-5,5-10,7.6-14.9c0.6-1.2,1.6-2.3,2.7-3.2c4-3.1,6.2-12.2,4.4-17.2c-0.5-1.2-0.4-2.9,0.1-4.2c3.5-10.2,2.7-19.2-6.8-26.1
	c-1-0.7-2.2-2.3-2-3.1c2.1-9.3-4.9-9.5-10.7-11.1c-0.8-0.2-1.5-0.7-2.3-1.1c-3.1,0-6.1,0-9.2,0c-4.1,2.6-7.1,5.6-5.6,11.2
	c0.3,1.2-0.9,3.3-2,4.3c-8.3,7.1-12.4,15.6-10.4,26.7c0.5,2.8-1.5,6.4-0.6,8.8c3.7,9.3,7.5,18.6,12.5,27.2c4,6.9,1.7,13.1,0,19.3
	c-1.5,5.6-6.9,5.9-11.8,6.2c-1.7,0.1-3.5,0.2-5.2,0c-8.5-0.9-13.8,3.1-17.7,10.4c-7.7,14.6-15.9,28.9-23.9,43.3
	c-0.6,1.1-1.6,2-3,3.8c-4.1-5.7-8-11-11.7-16.4c-6.7-9.9-13-20.1-20.1-29.7c-3-4.1-7.2-7.4-11.1-10.9c-1.1-1-2.7-2.1-4-2.1
	c-9.3,0.4-18.6,1.2-27.9,1.8c0,0.7,0.1,1.5,0.1,2.2c5.1,0.3,10.2,0.6,16.2,0.9c-3.4,4.8-8,5.9-11.5,3.8c-4-2.3-7.6-1.7-11.4-1.2
	c0,0.9,0,1.7,0,2.6c0.7,0.5,1.7,0.7,2.2,1.4c7.7,11.6,17.4,7.6,27,3.2c10.2-4.7,12.9-4.1,17.2,6.5c5.4,13.2,10,26.8,15.5,40
	c3.1,7.4,7.1,14.4,10.9,21.4c2.2,4.1,5.5,3.8,8.7,1c1.9-1.7,3.6-3.8,5.2-5.8c10.6-13.4,21.3-26.8,31-39.1c2.8,5.3,6.7,11,8.9,17.3
	c4.1,11.8,4.3,23.9-1.1,35.6c-0.9,2-2.2,3.8-3.2,5.7c-4.9,8.7-7.5,9.9-17.5,7.6c-3.4-0.8-6.7-2.2-10.1-2.4c-3.1-0.1-6.2,1-9.3,1.7
	c-3.8,0.8-7.6,1.8-11.4,2.6c-15.8,3.4-21.2,15.6-13,29.7c6.6,11.4,6.6,11.4,20.9,17.1c-0.9,2.3-2,4.5-2.9,6.7
	c-23,0.1-43.5-0.2-51.6-1.2c-19.2-2.3-25.7,27.6-27.1,35.8c-0.2,1.4-1,2.6-2.1,3.4l-22.9,17.2c-1,0.7-1.6,1.7-2,2.9l-5.5,19.9
	c-0.3,1.2-1.1,2.3-2.2,3L747,869.9c-0.9,0.6-1.5,1.4-1.9,2.3l-10.7,24.9c-0.3,0.7-0.8,1.4-1.4,1.9l-29.9,26.3
	c-1.2,1-1.8,2.5-1.8,4.1V968c0,0.6-0.1,1.2-0.3,1.7l-12.6,37.8c-0.1,0.4-0.3,0.8-0.5,1.1l-39,63.1c-2.2,3.6,0.4,8.3,4.6,8.3h613.2
	C1270.6,1080,1273.2,1075.8,1271.4,1072.2z M1107.3,609.1c-1.1,5.6-3.7,5.4-12.1-1.3C1099.8,608.3,1103.5,608.7,1107.3,609.1z"/>
</svg>
