<?xml version="1.0" encoding="utf-8"?>
<!-- Generator: Adobe Illustrator 22.1.0, SVG Export Plug-In . SVG Version: 6.00 Build 0)  -->
<svg version="1.1" id="圖層_1" xmlns="http://www.w3.org/2000/svg" xmlns:xlink="http://www.w3.org/1999/xlink" x="0px" y="0px"
	 viewBox="0 0 1920 1080" style="enable-background:new 0 0 1920 1080;" xml:space="preserve">
<style type="text/css">
	.st0{fill:#584FA3;}
</style>
<path class="st0" d="M461.6,902.2c-5.2-24.8-20.9-47.1-20.9-47.1s-34-14.4-61.5-19.6c-27.5-5.2-48.4-2.6-73.6-18.5
	c-25.2-15.8-0.9-23.4-14-40.4c-13.1-17-31.4-37.9-49.7-51c-18.3-13.1-36.6,0-36.6,0s-11.6-0.8-26.4-2.8c-0.5-3-1-5.9-1.5-8.9
	c0.3-0.1,0.6-0.3,0.9-0.4c1.1,1.2,2.1,2.4,3.4,3.9c0.2-0.8,0.3-1.1,0.6-1.9c1.1,4.3,4.2,4.4,7.5,4.5c0.9,0,1.8,1.1,2.9,1.9
	c0.2-0.7,0.4-1.2,0.4-1.5c3,0,6,0,9.3,0c0-0.9,0.1-2.3,0.2-3.8c1.1,0.4,2.5,1,3.7,1.4c0.5-0.5,0.9-1.2,1.3-1.2
	c0.5,0,1.3,0.4,1.6,0.9c0.8,1.2,1.2,2.6,3.2,1.4c0.4-0.3,1.8,1,2.8,1.6c0.3-0.5,0.6-1.2,0.8-1.6c1.2,0.3,2.4,1.1,3.2,0.8
	c2.9-1.3-0.4-3.3,0.5-5.1c1,0.9,2,1.8,3.1,2.6c2.5,2.1,3.1,2,4.5-0.8c1.8,0.9,3.5,1.7,5.3,2.6c0.1-0.2,0.3-0.4,0.4-0.6
	c-0.4-0.8-0.9-1.6-1.4-2.5c0.9-0.3,1.8-0.6,3.4-1.1c-1.4-0.9-2.4-1.5-3.5-2.1c0.2-0.2,0.4-0.4,0.5-0.7c2.4,1.1,4.8,2.1,7.2,3.2
	c0.2-0.3,0.5-0.7,0.7-1c-0.7-0.4-1.5-0.8-2.4-1.2c2.4-0.6,4.3-1,6.3-1.5c0-0.2-0.1-0.5-0.1-0.7c-6-1.1-12.4-1.1-17.9-4.1
	c0.1-0.2,0.1-0.4,0.2-0.6c1.1,0.1,2.3,0.3,3.7,0.4c-0.3-0.8-0.5-1.3-0.9-2.1c1.6,0,3.1,0,5,0c-0.8-0.9-1.2-1.4-2-2.4
	c2.1,0,3.8,0,5.5,0c0.1-0.3,0.1-0.5,0.2-0.8c-0.9-0.4-1.8-0.8-2.9-1.3c1-0.3,1.9-0.6,2.8-0.9c0.1-0.2,0.3-0.4,0.4-0.6
	c-0.6-0.3-1.2-0.6-1.8-1c0.1-0.2,0.1-0.3,0.2-0.5c2,0.1,4,0.2,6,0.3c0.1-0.2,0.2-0.4,0.2-0.6c-1.4-0.6-2.9-1.3-4.3-1.9
	c0-0.1,0.1-0.3,0.1-0.4c1.7-0.1,3.4-0.2,5.1-0.3c0-0.3,0-0.5,0-0.8c-2.6-0.5-5.3-0.9-7.9-1.4c0-0.1,0-0.3-0.1-0.4
	c3.2-1.1,6.3-2.2,9.5-3.3c-0.1-0.4-0.2-0.8-0.3-1.2c-3.1,0.5-6.1,1-9.3,1.5c0.9-1.1,1.9-2.2,2.8-3.2c-0.1-0.2-0.3-0.4-0.4-0.6
	c-1.4,0.5-2.9,0.8-4,1.6c-4.9,3.2-9.9,3.1-15,0.9c-4.6-2-9.1-4.4-13.7-6.6c-0.8-0.4-1.5-1.2-2-2.1c1.8,0.7,3,3.3,5.4,1.2
	c0.9,0.8,1.9,1.6,3.2,2.6c-0.1-1.2-0.1-2.1-0.2-3.7c2.4,1.3,4.4,2.4,6.9,3.7c-0.1-1.3-0.2-2.2-0.4-3.3c1.9,0.8,3.8,1.5,4.8-1.1
	c1.7,1.3,3.3,2.5,4.9,3.7c0.2-0.2,0.4-0.4,0.6-0.5c-0.8-1.3-1.7-2.6-2.6-4c4.7-2.8,9.9-2.4,15.2-1.8c0.1-0.4,0.1-0.7,0.2-1.1
	c-2-1-4-1.9-6.6-3.2c3.9,0.5,7.2,1.9,10.8,0c-1.6-2.1-3.8-1.4-5.8-1.9c0.8-0.6,1.6-1.1,2.3-1.6c-0.1-0.2-0.1-0.3-0.2-0.5
	c-4,0-7.9,0-12.1,0c0.2-0.7,0.3-1.5,0.6-2.8c-5.1,1.7-10,1.9-14.7,0.1c-4.5-1.7-9.5-2.4-13.7-5.9c3-1.1,5.1-0.4,7.5,0.3
	c2.9,0.8,6.1,0.8,9.2,1c0.5,0,1-0.5,1.5-0.7c0.6,0.4,1.2,0.9,2,1.4c0.3-0.6,0.5-1,0.9-1.6c2.9,2.9,4.8-0.2,7.4-1.1
	c-0.5-0.6-0.8-1-0.8-0.9c1.3-0.4,2.6-0.8,3.9-1.2c2.9-0.9,5.8-1.7,8.8-2.5c0.6-0.2,1.1-0.5,2-0.9c-1.3-0.5-2-0.8-2.8-1
	c-0.4-1.1-0.7-2.1-1.1-3.1c1.9-0.8,3.9-1.6,6-2.5c0-0.1-0.1-0.3-0.1-0.4c-4.7,0.2-9.4,0.4-14.5,0.7c0.5-0.8,0.7-1.2,1.1-1.9
	c-4.9-0.7-10-0.1-14.9-2.9c2.1-0.8,3.7-1.9,5.4-1.9c1.7,0,3.5,1,5.3,1.5c0.2-0.2,0.3-0.5,0.5-0.7c-0.8-0.6-1.6-1.1-2.9-2.1
	c2.3-0.1,3.9-0.2,6.3-0.4c-1.6-0.8-2.5-1.3-3.2-1.7c2.3-1.4,4.8-2.8,7.1-4.4c0.6-0.4,0.7-1.3,1.1-2c-0.7-0.2-1.4-0.6-2.1-0.5
	c-2.2,0.4-4.4,1.1-6.8,1.7c0.1-1.1,0.2-1.7,0.3-3c-6.8,3.4-12.7,1.3-18.5-2c2.3,0.3,4.2-2.1,6.9-0.2c1.2,0.9,3.5,0.1,6,0.1
	c-0.9-1.3-1.2-1.9-1.7-2.7c1.1,0.4,1.9,0.7,2.7,1c0.7-2.1,4.9-2.9,1.9-6.1c0.9-1.1,1.7-2.2,2.6-3.2c-0.1-0.2-0.2-0.4-0.3-0.5
	c-2.5,0.7-5.1,1.5-7.6,2c-1.9,0.4-3.9,0.7-5.9,0.7c-1.9,0-3.1-1.1-4.2-3.4c2.3,0.4,4.1,0.7,6,1c0.1-0.2,0.2-0.3,0.3-0.5
	c-0.8-1-1.6-1.9-2.4-2.8c1.2-0.4,2.4-0.8,3.7-1.2c-0.3-0.3-0.6-0.6-1.1-1.2c0.7-0.5,1.5-1.1,2.4-1.8c-3.8,0.2-7.3,0.5-10.7,0.5
	c-3.5,0-7.1,0.4-10.3-1.4c0.6-0.9,1.2-1.7,1.8-2.7c3.1,3.6,6.1,0.1,10.1-0.1c-1.7-1.6-2.9-2.7-4.3-4c2.6,0.2,4.9,0.5,7.4,0.7
	c-0.5-2.5,0.8-3,2.5-3.6c1.8-0.7,3.2-2.2,5.1-3.5c-4.3-3.1-8.3-4.8-13.2-2.5c0-0.2-0.1-0.4-0.1-0.6c0.9-0.7,1.8-1.5,2.7-2.2
	c-0.1-0.2-0.2-0.4-0.3-0.5c-1,0.2-2,0.4-3.2,0.7c0.4-0.9,0.6-1.6,0.9-2.2c-3.5,2.4-7.1,3.9-11.3,2.9c-3.8-0.8-8-1.1-9-6.5
	c2.2,3,5.4,1.2,8.1,2.5c0.3-0.8,0.5-1.4,0.7-2.3c0.9,0.5,1.8,1,2.7,1.5c1.5,0.9,2.4,0.7,2.1-1.5c2.8,0,5.4,0,8.5,0
	c-0.6-1.2-0.9-1.8-1.2-2.3c0.3-1.1,3.5-0.4,1.9-2.9c1.9-1.4,3.9-2.8,6.3-4.5c-2.8-0.8-5.2-1.5-7.7-2.2c0-0.2,0.2-0.7,0.4-1.6
	c-3.2,0.7-6,1.4-9,2.1c0.3-1.6,0.5-2.9,0.8-4.8c-9.3,6-15.8,0.3-22.9-3.1c0.1-0.3,0.1-0.6,0.2-0.9c2.5,0.6,5.1,1.1,7.7,1.7
	c0.1-0.5,0.2-1.3,0.3-2c1.8,0.1,3.2,3.6,5,1c1.4,0.6,3,1.9,4.1,1.6c1.5-0.4,3.3-1.6,2.5-4.2c1.2,0.3,2.2,0.5,3.1,0.7
	c0.1-0.9,0.2-1.8,0.3-2.6c0.2,0,0.4,0,0.6-0.1c-0.4-0.7-0.8-1.4-1.2-2.1c0.1-0.1,0.2-0.2,0.3-0.4c0.8,0.6,1.5,1.3,2.4,1.6
	c0.8,0.3,1.8,0.2,3,0.3c-0.2-1-0.3-1.7-0.5-2.3c1.9-0.9,3.6-1.8,5.3-2.6c-0.1-0.2-0.1-0.5-0.2-0.7c-1.9,0-3.8,0-6,0
	c0.4-0.9,0.7-1.4,1.3-2.6c-2.3,1.2-4.1,2.2-5.7,3c-0.5-0.7-0.9-1.3-1.4-2.2c0.2-0.3,0.6-0.9,1-1.5c-0.1-0.1-0.2-0.3-0.3-0.4
	c-1.1,0.8-2.4,1.4-3.3,2.3c-2.2,2.1-4.6,2.7-7.4,1.5c-2.5-1.1-5.1-2-7.6-3.3c-1-0.5-1.7-1.7-2.5-2.5c0.2-0.3,0.4-0.5,0.6-0.8
	c0.9,0.5,1.9,1,2.7,1.6c1.5,1.3,2.3,1.1,2.9-0.9c0.7,0.6,1.4,1.3,2.2,1.8c0.7,0.4,1.6,0.5,2.6,0.8c0.1-0.9,0.1-1.5,0.2-2.1
	c0-0.6,0.1-1.2,0.1-2.1c2.7,0.2,4.1,3.7,7.5,2.3c-1.5-1.2-2.8-2.2-4.1-3.2c0.2-0.2,0.3-0.4,0.5-0.7c2.1,1,4.2,1.9,6.4,2.9
	c0.1-0.2,0.3-0.4,0.4-0.6c-0.4-0.5-0.7-1-1.2-1.8c1.3-0.5,2.5-0.9,3.9-1.4c-0.4-0.5-0.7-0.9-1.2-1.4c2-0.3,4.2,0.6,5.4-2
	c-0.6-0.3-1.1-0.6-1.6-0.8c-1.7-0.6-3.7,0.3-5.2-1.6c-0.4-0.5-2.5,0.4-3.8,0.7c-1,0.3-1.9,0.8-2.8,1.2c-0.7-1.3-1.4-2.5-2.1-3.8
	c-0.9,0.3-1.7,0.5-2.7,0.8c-0.2-0.8-0.3-1.4-0.6-2.3c-3.5,2.7-6.9,5.2-11.1,2.7c0.4-0.9,0.8-1.7,1.1-2.6c-0.9-0.2-1.8-0.7-2.6-0.6
	c-4.5,0.9-6.7-2.9-6.1-7.9c0.2,2.7,0.8,5.3,3.6,6.9c0.6-1,1.1-2,1.7-3c1,1.9,2.2,3.6,5.1,3.1c-0.2-0.9-0.4-1.7-0.7-2.5
	c0.5-0.4,1.1-0.8,1.4-1c1.7,1.7,3.2,3.3,5.1,5.2c0.5-1,0.9-1.5,1-2c0.3-1.6,0.7-2.4,2.4-1.1c1.2,0.9,5.4-0.6,7.6-2.8
	c-3.5-1.7-6.7-3.3-10.1-5c0.2-0.4,0.4-1,0.7-1.6c-2.7-2.5-4.9,1.2-7.5,0.6c0.4-1.4,3.7-0.4,2.2-2.9c1.3-0.8,2.6-1.5,3.9-2.2
	c0-0.2-0.1-0.5-0.1-0.7c-2-0.4-4-0.7-6-1.1c0.7-2.9,0.7-2.9,3.6-1.4c1.9-1.3,3.6-2.4,6-4.1c-1.9-0.7-3.4-1.3-5.3-2
	c1.5-1.6,2.9-3.1,4.7-5c-1.8-0.3-3.1-0.5-4.7-0.8c0.7-0.9,1.4-1.7,1.9-2.7c0.3-0.6,0.1-1.4,0.1-2.1c-0.6,0.2-1.4,0.2-1.9,0.6
	c-0.9,0.9-1.7,2.1-2.6,3.2c-1.2-1-1.9-1.5-2.9-2.4c-3.1,4.3-4.1,10.5-10.1,12c-0.4-3-1-6-1.3-9c-0.2-2.1,0.6-3.6,3.2-3.5
	c0.1,0.7,0.2,1.5,0.3,2.2c2.2-0.7,4.4-1.3,6.6-2c-1-2.7-3.4-3.6-5.9-4.6c2.8-0.9,5.8,1.1,8.8-0.8c-1.7-1-3-1.8-4.5-2.7
	c1.2-1.1,2.4-2.1,3.6-3.2c-0.2-0.3-0.3-0.5-0.5-0.8c-2,0.8-4.1,1.7-6.2,2.5c0-0.5-0.1-1.1-0.1-1.8c-0.2-0.1-0.4-0.2-0.6-0.3
	c-1.5,2.4-3,4.7-4.5,7.1c-0.2-0.1-0.5-0.3-0.7-0.4c-0.2-2.6,0.4-5.1,2.2-7.2c1.2-1.5,2.4-3,3.4-4.5c0.3-0.4,0.2-1.1,0.2-1.7
	c-0.6,0-1.3-0.2-1.8,0.1c-1.3,0.7-2.5,1.6-3.7,2.3c-0.8-2,0.9-5.6-1.9-8c-0.3,0-0.6,0-1,0c0,3.5,0,7.1,0,11.2
	c-2-1.9-3.5-3.4-5.4-5.2c-0.8,2.8,0.7,4.3,2,5.6c2.5,2.5,3,5.4,2.8,8.7c0,0.2-0.1,0.5-0.1,0.7c0,0.1-0.1,0.1-0.6,0.4
	c-1.1-3-2.1-5.9-3.1-8.8c-0.3,0-0.5,0.1-0.8,0.1c-0.4,0.9-0.7,1.8-1.3,3c-0.9-0.6-1.7-1.3-2.7-1.8c-0.6-0.3-1.4-0.1-2.1-0.2
	c0,0.7-0.2,1.5,0.1,2c0.8,1.3,1.9,2.3,2.7,3.6c0.3,0.5,0.2,1.4,0,2.1c-0.2,0.8-0.7,1.4-1,2.2c1,0.1,1.9,0.3,2.9,0.4
	c0.2,0,0.5-0.3,1.1-0.7c0.1,1.3,0.1,2.3,0.2,3.7c-1.6-0.7-2.9-1.3-4.3-1.9c-1.1,2.9,1.6,3.6,2.7,5.3c-0.5,0.1-1.1,0-1.3,0.3
	c-1.5,2.4-3,0.9-4.5,0c-2-1.2-4-2.3-6.3-3.6c-1,3.1,1.1,4,2.9,5.4c-0.7,0.2-1.1,0.2-1.4,0.4c-0.6,0.4-1.2,0.9-1.7,1.3
	c0.7,0.4,1.3,0.7,2,1.1c0.6,0.4,1.5,0.6,1.9,1.1c0.7,0.8,1.1,1.9,1.6,2.9c-0.9,0.2-2,0.2-3,0.6c-0.6,0.3-1.1,1.1-1.6,1.6
	c0.7,0.5,1.6,1.5,2.2,1.4c1.8-0.4,3.3-0.7,4.8,0.8c0.2,0.3,1.3-0.1,1.9-0.3c0.7-0.3,1.4-0.7,2.5-0.5c-0.7,0.8-1.4,1.6-2.2,2.4
	c0.1,0.2,0.1,0.5,0.2,0.7c1.3-0.2,2.5-0.3,3.9-0.5c0,0.5,0,1.3,0,2.8c1.9-0.9,3.4-1.6,5.1-2.4c0.2,0.6,0.6,1.7,1,3.1
	c-4.8,0.7-9.2,1.8-13.3-1.1c-1.3-0.9-2.8-2.1-5.1-0.8c1,1,1.9,1.8,2.7,2.6c-0.1,0.2-0.2,0.4-0.3,0.6c-2.8-1.6-5.7-3.2-8.5-4.7
	c-0.8-0.4-1.9-0.5-2.8-0.7c-0.1,0.8-0.3,1.6-0.5,2.6c-2,0.3-4.3,0.7-7.2,1.2c3,3.3,6.3,3.1,10,2.7c-0.8,0.6-1.4,0.9-1.7,1.4
	c-0.4,0.6-0.6,1.3-0.9,2c0.6,0.2,1.4,0.6,1.9,0.4c0.9-0.3,1.8-0.9,2.6-1.5c0.8-0.5,1.6-1.1,2.4-1.6c0.1,0.2,0.2,0.3,0.4,0.5
	c-0.9,0.7-1.9,1.3-2.7,1.9c0,0.4,0,0.6,0.1,0.7c0.7,1,1.6,2.8,2.1,2.7c2-0.5,3.9-1.5,5.8-2.4c0.6-0.3,1.1-0.8,1.6-1.2
	c0.1,0.2,0.3,0.3,0.4,0.5c-0.9,0.7-1.9,1.3-2.7,2.1c-0.6,0.6-1,1.5-1.5,2.3c0.9,0,1.9-0.1,2.8-0.2c0.2,0,0.4-0.3,0.7-0.5
	c0.1,0.7,0.2,1.3,0.5,2.4c1.1-1.2,2-2.1,2.8-3c3.6,0.7,8.5-1.6,10.1-4.8c0.2,0.1,0.4,0.1,0.6,0.2c-0.4,0.9-0.5,2.3-1.2,2.7
	c-3.4,2.4-7,4.6-10.5,6.8c-0.5,0.3-1.5,0-2.2-0.3c-2-0.8-4-1.8-6-2.6c-0.2,0.2-0.3,0.3-0.5,0.5c0.3,0.8,0.6,1.6,1.1,2.7
	c-2.3-0.6-4.4-1.2-6.6-1.8c-0.2,0.6-0.3,1.3-0.4,1.8c-2.1,1.1-5.5-2.2-6.7,2.3c1,0.1,1.6,0.1,2.4,0.2c-0.4,0.7-0.8,1.2-1.3,2
	c1.1,0.1,2,0.1,3,0.2c0.1,0.5,0.3,1.1,0.5,1.7c0.6,0,1.3,0.1,2.2,0.1c0.1,0.6,0.2,1.2,0.2,1.2c1.5,0.4,2.8,0.6,3.9,1.2
	c0.3,0.2,0,1.5,0,2.9c-2.7-2.7-5.2-2.2-7.9-0.9c0.9,1.4,3,2.7,1.4,5.1c-1.8-1.1-3.6-2.2-5.5-3.3c-0.2,0.2-0.3,0.4-0.5,0.5
	c0.2,0.8,0.4,1.6,0.6,2.7c-2.4-0.3-4.7-0.6-6.9-1c-0.1,0.3-0.2,0.7-0.4,1c1.7,0.9,3.4,1.9,5.2,2.9c-0.9,1.5,0.1,1.6,1.7,2.1
	c2.2,0.6,4.1,2,6.2,3c0,0.3,0,0.6,0,0.8c0.4-0.7,0.9-1.3,1.4-2.1c3.1,3.1,5.9,6,8.8,9c-5,1.6-10.2,3.9-15.5-0.4
	c-0.1,0.9-0.2,1.3-0.2,1.7c0,0.4,0,0.8,0,1.1c-2,1.8-4.7-2.2-6.5,0.9c1.3,1.4,2.5,2.7,3.8,4.1c-0.2,0.2-0.3,0.4-0.5,0.6
	c0.8,0.1,1.5,0.2,2.3,0.3c0.9,3,1.2,3.2,4.1,2.1c-0.1,3.6,2.9,1.4,4.3,2.2c-2.1,2.2-6,2.7-8.7,1.1c-1.1-0.6-2.3-2-3,0.4
	c-0.1,0.2-1,0.2-1.5,0.3c-1.1,0-2.3,0-3.4,0c-0.1,0.2-0.1,0.4-0.2,0.7c0.7,0.4,1.4,0.7,2.1,1.1c0.5,0.3,1.2,0.6,1.5,1
	c1.6,2.4,1.6,2.4,4.5,2c0.1,0.7,0.2,1.3,0.3,1.9c1.5,0.8,2.8,1.6,4.2,2.2c0.6,0.2,1.6,0.2,2.1-0.1c1.1-0.7,2-1.8,3-2.7
	c1.5-1.2,2.6-1,3.9,0.9c-1.2,0.1-2.2,0.2-3.8,0.3c0.6,1.4,1.1,2.7,1.6,3.8c-1.5,0.8-3,1.8-4.7,2.3c-3.3,0.9-6.7,1.4-10.1,2
	c-1.4,0.2-2.9-0.1-3.2,2c-0.1,0.5-1.3,1-2.1,1.1c-1.4,0.2-2.9,0.2-4.8,0.3c1.6,2.5,3.8,3,6.3,3.4c-0.5,0.8-0.9,1.3-1.5,2.1
	c0.8,0.2,1.5,0.2,2,0.5c0.4,0.3,0.6,0.9,1,1.4c1.7-0.2,3.4-0.4,5.2-0.5c0.2,0.9,0.3,1.6,0.4,2.3c0.3,0.2,0.5,0.4,0.8,0.6
	c0.6-0.9,1.2-1.7,1.5-2.1c1.2,0.5,2.3,1.3,3.5,1.6c2.4,0.5,3.1-1.4,3.9-3.4c0.5,1,0.8,1.7,1.3,2.6c0.7-0.9,1.3-1.6,2-2.5
	c0.3,0.8,0.6,1.5,1.1,2.7c0.7-1.5,1.2-2.5,1.5-3.2c1.4,0.2,2.7,0.4,4.7,0.7c-4.9,3.4-9.8,4.5-15.2,5.2c0.9,3,3.6,2.3,5.7,3.2
	c-0.7,0.3-1.4,0.7-2.1,0.8c-5,0.4-9.9,0.7-14.9,1.2c-4.5,0.4-9,1-13.7,1.5c1,2.7,3.3,2.1,5.3,3c-1.3,1.1-2.5,2.1-3.5,2.8
	c2.2,0.8,4.2,1.8,6.4,2.2c1.1,0.2,2.5-0.7,3.8-1.2c-0.4,0.7-0.9,1.6-1.3,2.4c0.1,0.2,0.2,0.4,0.3,0.6c1.2-0.3,2.3-0.7,3.6-1.1
	c2.4,2.3,2.4,2.3,6,0.2c0.1,1,0.3,2,0.4,3.1c1.3-0.5,2.7-0.9,4-1.4c-0.1,0.3-0.2,1-0.4,1.9c3.6-0.1,6.8,1,10.1,2
	c-7.3,2.8-14.5,6.6-22.7,2.1c0,0.3,0,0.5-0.1,0.8c0.4,0.6,0.9,1.1,1.5,2c-4.9-0.7-9.5-1.4-14.1-2c-0.1,0.2-0.2,0.3-0.3,0.5
	c1.9,1.1,3.8,2.3,5.8,3.4c-0.2,0.1-0.8,0.1-1.2,0.4c-0.3,0.2-0.8,0.7-0.7,1c0.1,0.3,0.5,0.8,0.9,0.9c1.1,0.3,2.3,0.4,3.7,0.7
	c-0.5,0.7-0.9,1.3-1.6,2.3c1.2-0.3,2-0.4,2.9-0.6c1.6,2.9,3.8,0.6,5.9,0.8c-0.1,0.3-0.3,0.7-0.5,1.3c1,0.6,3.3-0.8,2.9,2.1
	c0.9-0.6,1.5-1,2.3-1.6c-0.4,1.1-0.7,2-1.2,3.6c2.3-0.8,4-1.4,6.4-2.3c-1.2,1.4-1.9,2.8-2.9,3.2c-3.1,1.3-6.4,2.3-9.7,3.2
	c-1,0.3-2.3-0.4-3.4-0.6c-1.8-0.4-3.5-0.9-5.3-1.1c-1.4-0.2-2.4,0.2-1.1,2.1c-2.7-0.5-5-0.9-7.3-1.3c-0.1,0.2-0.2,0.4-0.3,0.6
	c0.6,0.9,1.2,1.7,2,2.8c-2.9-0.3-5.6-1.8-8.3-0.3c-0.1,0.3-0.1,0.6-0.2,0.8c2.5,0.8,5.1,1.6,7.5,2.4c-0.7,0.9-1.6,2.1-2.5,3.3
	c0.3,0,0.7,0,1-0.1c0.6,1,1.2,2,1.9,3c1.1,1.5,5.5,1.8,7.2,0.5c1.6,1,2.6,2.2,1.1,4c-3,0.5-5.9,1.1-8.9,1.6c0.5,2.3,2,2.7,7.4,1.6
	c-1.4,0.9-2.4,1.3-3.1,2c-0.4,0.4-0.6,1.1-0.9,1.7c0.5,0.2,1.1,0.4,1.6,0.5c1.1,0.3,2.3,0.5,3.4,0.8c0,0.3-0.1,0.7-0.2,1.4
	c1.5-0.5,2.8-0.9,4.5-1.4c-0.6,0.8-1,1.3-1.8,2.3c1.8-0.3,2.9-0.5,4.1-0.7c0.3,0.4,0.7,0.9,1.7,2c-6.8,0-13.2,0-19.6,0
	c0,0.3,0,0.5-0.1,0.8c1.1,0.6,2.2,1.3,3.3,1.9c-0.1,0.2-0.1,0.4-0.2,0.6c-2.4,0.5-4.7,0.9-7.1,1.4c0,0.3,0.1,0.6,0.1,1
	c2.9,2.4,6,0.4,9.2-0.1c-0.9,1.4-1.7,2.7-2.5,4c0.2,0.2,0.4,0.4,0.5,0.6c1.5-0.4,2.9-0.8,4.6-1.2c0.3,1.3,0.6,2.5,1.1,4.3
	c1.8-1.1,3.4-2,5.3-3.1c-0.3,1.5-0.5,2.8-0.8,4.2c0.2,0.1,0.3,0.3,0.5,0.4c2.3-1.9,4.5-3.7,6.8-5.6c-0.5,1.3-0.9,2.6-1.4,3.8
	c0.2,0.2,0.5,0.3,0.7,0.5c1-0.7,1.9-1.4,2.9-2.1c0.5,1.9-0.4,2.7-2,2.9c-3.9,0.6-7.7,1.9-11.6,0c-0.8-0.4-2-0.9-2.8,0.2
	c-12.1-8.6-27.3-10.7-44.1-21.2C45.8,662.8,0,642,0,642v438h597.6C597.6,1080,466.8,927,461.6,902.2z M159.5,504.7
	c2.8,1.2,4.9,2.3,5.2,5.3C163.3,508.2,160.1,508.2,159.5,504.7z M165,503.4c-1.3-2.8-2.4-5.1-3.7-8.1
	C164.2,497.4,165.7,499.5,165,503.4z M117.8,670.8c1.1-1.2,1.8-2,2.8-3.2c0.8,1.2,1.6,2.2,2.5,3.5c1-1.4,1.7-2.2,2.4-3.2
	c1.4,1,2.7,2,4.3,3.1C125.6,672,121.9,671.4,117.8,670.8z M149.9,717.7c0.1-0.1,0.2-0.2,0.3-0.3c0.5,0.2,0.9,0.4,1.2,0.6
	C150.9,718,150.4,717.8,149.9,717.7z M148.4,549.4c-1.6,0-2-1.8-1.8-4.2c2.8,2.6,5.2,4.6,7.7,1.2c0.8,0.5,1.4,1.2,1.9,1.2
	c0.7,0,1.4-0.6,2.4-0.6c-0.3,0.4-0.6,1-1,1C154.6,548.6,151.5,549.3,148.4,549.4z M166.1,715.7c-0.3,1.7-0.8,3.3-1.3,5
	c-4-0.7-8.1-1.5-12.1-2.3c0.8-0.1,1.4-0.9,2.3-2.8c0.5-1,1.1-1.8,2-2.6c0,0.7-0.1,1.3-0.1,2.1c0.5-0.1,1,0,1.2-0.3
	c1.9-1.9,5.3-2.9,4.6-6.5c0.2,0,0.3-0.1,0.3-0.1C167.5,709.4,166.7,712.7,166.1,715.7z M174.7,514.1c-1.6,0.8-2.9,1.4-4.3,2.1
	C169.8,513.7,170.2,513.4,174.7,514.1z M172.1,539.9c-0.2,0-0.4,0-0.5,0c0-1.8,0-3.7,0-5.5c0.2,0,0.4,0,0.5,0
	C172.1,536.3,172.1,538.1,172.1,539.9z"/>
</svg>
