<?xml version="1.0" encoding="utf-8"?>
<!-- Generator: Adobe Illustrator 22.1.0, SVG Export Plug-In . SVG Version: 6.00 Build 0)  -->
<svg version="1.1" id="圖層_1" xmlns="http://www.w3.org/2000/svg" xmlns:xlink="http://www.w3.org/1999/xlink" x="0px" y="0px"
	 viewBox="0 0 1920 1080" style="enable-background:new 0 0 1920 1080;" xml:space="preserve">
<style type="text/css">
	.st0{fill:#C685FD;}
</style>
<path class="st0" d="M521.8,1008.1c0,0-26.2-39.2-24.8-57.5s1.3-47.1,0-57.5s-35.3-27.5-35.3-27.5s-28.8-43.2-20.9-60.2
	c7.8-17,7.8-56.2,0-73.2c-7.8-17-20.9-40.5-20.9-40.5s-15.7-49.7-20.9-71.9c-5.2-22.2,0-37.9-3.9-56.2
	c-3.4-15.8-17.5-29.7-30.6-38.2c0.1-0.2,0.1-0.3,0.1-0.4c1.9,0,3.7,0,5.8,0c0-0.6,0.1-1.4,0.1-2.4c0.7,0.3,1.6,0.6,2.3,0.9
	c0.3-0.3,0.6-0.7,0.8-0.7c0.3,0,0.8,0.3,1,0.6c0.5,0.8,0.8,1.6,2,0.9c0.3-0.2,1.1,0.6,1.8,1c0.2-0.3,0.4-0.8,0.5-1
	c0.8,0.2,1.5,0.7,2,0.5c1.8-0.8-0.3-2,0.3-3.2c0.6,0.6,1.3,1.1,1.9,1.7c1.6,1.3,1.9,1.3,2.8-0.5c1.1,0.5,2.2,1.1,3.3,1.6
	c0.1-0.1,0.2-0.3,0.3-0.4c-0.3-0.5-0.6-1-0.9-1.6c0.6-0.2,1.1-0.4,2.1-0.7c-0.9-0.5-1.5-0.9-2.2-1.3c0.1-0.1,0.2-0.3,0.3-0.4
	c1.5,0.7,3,1.3,4.5,2c0.1-0.2,0.3-0.4,0.4-0.6c-0.5-0.2-0.9-0.5-1.5-0.8c1.5-0.4,2.7-0.6,3.9-0.9c0-0.1-0.1-0.3-0.1-0.4
	c-3.8-0.7-7.7-0.7-11.2-2.6c0-0.1,0.1-0.3,0.1-0.4c0.7,0.1,1.4,0.2,2.3,0.3c-0.2-0.5-0.3-0.8-0.5-1.3c1,0,1.9,0,3.1,0
	c-0.5-0.6-0.8-0.9-1.3-1.5c1.3,0,2.4,0,3.5,0c0-0.2,0.1-0.3,0.1-0.5c-0.6-0.3-1.2-0.5-1.8-0.8c0.6-0.2,1.2-0.4,1.8-0.5
	c0.1-0.1,0.2-0.2,0.2-0.4c-0.4-0.2-0.8-0.4-1.2-0.6c0-0.1,0.1-0.2,0.1-0.3c1.3,0.1,2.5,0.1,3.8,0.2c0-0.1,0.1-0.3,0.1-0.4
	c-0.9-0.4-1.8-0.8-2.7-1.2c0-0.1,0-0.2,0.1-0.3c1.1-0.1,2.1-0.1,3.2-0.2c0-0.2,0-0.3,0-0.5c-1.7-0.3-3.3-0.6-5-0.9
	c0-0.1,0-0.2,0-0.2c2-0.7,4-1.4,5.9-2.1c-0.1-0.3-0.1-0.5-0.2-0.8c-1.9,0.3-3.8,0.6-5.8,1c0.6-0.7,1.2-1.4,1.7-2
	c-0.1-0.1-0.2-0.2-0.2-0.4c-0.9,0.3-1.8,0.5-2.5,1c-3,2-6.2,1.9-9.4,0.5c-2.9-1.3-5.7-2.7-8.6-4.1c-0.5-0.3-0.9-0.8-1.3-1.3
	c1.1,0.4,1.9,2.1,3.4,0.7c0.6,0.5,1.2,1,2,1.7c0-0.8-0.1-1.3-0.1-2.3c1.5,0.8,2.8,1.5,4.3,2.3c-0.1-0.8-0.2-1.4-0.2-2.1
	c1.2,0.5,2.4,0.9,3-0.7c1.1,0.8,2.1,1.6,3.1,2.3c0.1-0.1,0.3-0.2,0.4-0.3c-0.5-0.8-1-1.6-1.6-2.5c3-1.8,6.2-1.5,9.5-1.1
	c0-0.2,0.1-0.5,0.1-0.7c-1.3-0.6-2.5-1.2-4.2-2c2.4,0.3,4.5,1.2,6.7,0c-1-1.3-2.4-0.9-3.6-1.2c0.5-0.4,1-0.7,1.5-1
	c0-0.1-0.1-0.2-0.1-0.3c-2.5,0-5,0-7.6,0c0.1-0.5,0.2-0.9,0.4-1.8c-3.2,1.1-6.3,1.2-9.2,0.1c-2.8-1.1-6-1.5-8.6-3.7
	c1.9-0.7,3.2-0.3,4.7,0.2c1.8,0.5,3.8,0.5,5.7,0.6c0.3,0,0.6-0.3,1-0.5c0.4,0.3,0.8,0.5,1.3,0.9c0.2-0.4,0.3-0.6,0.6-1
	c1.8,1.8,3-0.1,4.6-0.7c-0.3-0.4-0.5-0.6-0.5-0.6c0.8-0.3,1.6-0.5,2.4-0.8c1.8-0.5,3.7-1.1,5.5-1.6c0.3-0.1,0.7-0.3,1.3-0.5
	c-0.8-0.3-1.3-0.5-1.7-0.7c-0.2-0.7-0.5-1.3-0.7-2c1.2-0.5,2.5-1,3.8-1.6c0-0.1-0.1-0.2-0.1-0.2c-2.9,0.1-5.9,0.3-9.1,0.4
	c0.3-0.5,0.4-0.8,0.7-1.2c-3.1-0.4-6.3,0-9.3-1.8c1.3-0.5,2.3-1.2,3.4-1.2c1.1,0,2.2,0.6,3.3,1c0.1-0.2,0.2-0.3,0.3-0.5
	c-0.5-0.3-1-0.7-1.8-1.3c1.4-0.1,2.5-0.1,4-0.2c-1-0.5-1.6-0.8-2-1.1c1.4-0.9,3-1.8,4.5-2.7c0.3-0.2,0.5-0.8,0.7-1.2
	c-0.4-0.1-0.9-0.4-1.3-0.3c-1.4,0.3-2.7,0.7-4.3,1.1c0.1-0.7,0.1-1.1,0.2-1.9c-4.3,2.1-8,0.8-11.6-1.2c1.4,0.2,2.7-1.3,4.3-0.2
	c0.8,0.5,2.2,0.1,3.8,0.1c-0.5-0.8-0.8-1.2-1.1-1.7c0.7,0.3,1.2,0.4,1.7,0.6c0.4-1.3,3-1.8,1.2-3.9c0.6-0.7,1.1-1.4,1.6-2
	c-0.1-0.1-0.1-0.2-0.2-0.3c-1.6,0.4-3.2,0.9-4.8,1.3c-1.2,0.3-2.4,0.4-3.7,0.4c-1.2,0-2-0.7-2.6-2.2c1.4,0.2,2.6,0.4,3.7,0.6
	c0.1-0.1,0.1-0.2,0.2-0.3c-0.5-0.6-1-1.2-1.5-1.8c0.7-0.2,1.5-0.5,2.3-0.7c-0.2-0.2-0.4-0.4-0.7-0.8c0.4-0.3,0.9-0.7,1.5-1.1
	c-2.4,0.1-4.6,0.3-6.7,0.3c-2.2,0-4.5,0.2-6.4-0.9c0.4-0.6,0.7-1.1,1.1-1.7c1.9,2.3,3.8,0.1,6.3-0.1c-1.1-1-1.8-1.7-2.7-2.5
	c1.6,0.2,3.1,0.3,4.6,0.4c-0.3-1.5,0.5-1.9,1.6-2.3c1.1-0.4,2-1.4,3.2-2.2c-2.7-1.9-5.2-3-8.3-1.6c0-0.1-0.1-0.2-0.1-0.4
	c0.6-0.5,1.1-0.9,1.7-1.4c-0.1-0.1-0.1-0.2-0.2-0.3c-0.6,0.1-1.2,0.3-2,0.5c0.2-0.6,0.4-1,0.6-1.4c-2.2,1.5-4.4,2.4-7.1,1.8
	c-2.4-0.5-5-0.7-5.6-4c1.4,1.9,3.4,0.8,5,1.6c0.2-0.5,0.3-0.9,0.5-1.4c0.6,0.3,1.1,0.6,1.7,1c1,0.6,1.5,0.4,1.3-0.9
	c1.7,0,3.4,0,5.3,0c-0.4-0.7-0.6-1.1-0.7-1.5c0.2-0.7,2.2-0.3,1.2-1.8c1.2-0.8,2.5-1.8,3.9-2.8c-1.8-0.5-3.2-0.9-4.8-1.4
	c0-0.1,0.1-0.4,0.2-1c-2,0.5-3.8,0.9-5.6,1.3c0.2-1,0.3-1.8,0.5-3c-5.8,3.7-9.9,0.2-14.3-1.9c0-0.2,0.1-0.4,0.1-0.6
	c1.6,0.4,3.2,0.7,4.8,1.1c0-0.3,0.1-0.8,0.2-1.2c1.2,0.1,2,2.3,3.2,0.7c0.9,0.4,1.9,1.2,2.6,1c0.9-0.3,2.1-1,1.6-2.6
	c0.8,0.2,1.4,0.3,2,0.4c0.1-0.6,0.1-1.1,0.2-1.7c0.1,0,0.3,0,0.4,0c-0.2-0.4-0.5-0.9-0.7-1.3c0.1-0.1,0.1-0.2,0.2-0.2
	c0.5,0.3,0.9,0.8,1.5,1c0.5,0.2,1.1,0.1,1.9,0.2c-0.1-0.6-0.2-1.1-0.3-1.4c1.2-0.6,2.2-1.1,3.3-1.6c0-0.1-0.1-0.3-0.1-0.4
	c-1.2,0-2.4,0-3.8,0c0.3-0.6,0.4-0.9,0.8-1.6c-1.5,0.8-2.6,1.4-3.6,1.9c-0.3-0.5-0.5-0.8-0.9-1.4c0.1-0.2,0.4-0.6,0.6-1
	c-0.1-0.1-0.1-0.2-0.2-0.3c-0.7,0.5-1.5,0.9-2.1,1.4c-1.4,1.3-2.9,1.7-4.6,0.9c-1.6-0.7-3.2-1.3-4.7-2.1c-0.6-0.3-1.1-1-1.6-1.6
	c0.1-0.2,0.3-0.3,0.4-0.5c0.6,0.3,1.2,0.6,1.7,1c0.9,0.8,1.4,0.7,1.8-0.6c0.5,0.4,0.9,0.8,1.4,1.1c0.4,0.3,1,0.3,1.6,0.5
	c0.1-0.6,0.1-0.9,0.1-1.3c0-0.4,0-0.8,0.1-1.3c1.7,0.1,2.6,2.3,4.7,1.5c-0.9-0.7-1.8-1.4-2.6-2c0.1-0.1,0.2-0.3,0.3-0.4
	c1.3,0.6,2.7,1.2,4,1.8c0.1-0.1,0.2-0.2,0.2-0.4c-0.2-0.3-0.4-0.6-0.8-1.1c0.8-0.3,1.6-0.6,2.4-0.9c-0.2-0.3-0.5-0.6-0.7-0.9
	c1.2-0.2,2.6,0.4,3.4-1.3c-0.4-0.2-0.7-0.4-1-0.5c-1-0.4-2.3,0.2-3.2-1c-0.2-0.3-1.6,0.2-2.4,0.5c-0.6,0.2-1.2,0.5-1.7,0.8
	c-0.5-0.8-0.9-1.6-1.3-2.4c-0.5,0.2-1.1,0.3-1.7,0.5c-0.1-0.5-0.2-0.9-0.4-1.4c-2.2,1.7-4.3,3.2-6.9,1.7c0.2-0.6,0.5-1.1,0.7-1.6
	c-0.5-0.1-1.1-0.5-1.6-0.4c-2.8,0.5-4.2-1.8-3.9-4.9c0.1,1.7,0.5,3.3,2.3,4.4c0.4-0.6,0.7-1.2,1.1-1.9c0.6,1.2,1.4,2.3,3.2,2
	c-0.2-0.6-0.3-1.1-0.4-1.6c0.3-0.2,0.7-0.5,0.9-0.7c1,1.1,2,2.1,3.2,3.2c0.3-0.7,0.6-0.9,0.6-1.2c0.2-1,0.5-1.5,1.5-0.7
	c0.8,0.6,3.4-0.4,4.8-1.8c-2.2-1.1-4.2-2.1-6.3-3.1c0.1-0.2,0.3-0.6,0.4-1c-1.7-1.6-3.1,0.7-4.7,0.4c0.2-0.9,2.3-0.3,1.4-1.8
	c0.8-0.5,1.6-0.9,2.4-1.4c0-0.2-0.1-0.3-0.1-0.5c-1.3-0.2-2.5-0.5-3.8-0.7c0.5-1.8,0.5-1.8,2.2-0.9c1.2-0.8,2.2-1.5,3.7-2.5
	c-1.2-0.5-2.1-0.8-3.3-1.3c0.9-1,1.8-1.9,2.9-3.1c-1.1-0.2-1.9-0.3-2.9-0.5c0.4-0.6,0.9-1.1,1.2-1.7c0.2-0.4,0.1-0.9,0.1-1.3
	c-0.4,0.1-0.9,0.1-1.2,0.4c-0.6,0.6-1.1,1.3-1.6,2c-0.8-0.6-1.2-1-1.8-1.5c-2,2.7-2.6,6.6-6.3,7.5c-0.3-1.9-0.6-3.8-0.8-5.7
	c-0.1-1.3,0.4-2.3,2-2.2c0.1,0.4,0.1,0.9,0.2,1.4c1.4-0.4,2.7-0.8,4.2-1.2c-0.6-1.7-2.1-2.3-3.7-2.9c1.8-0.6,3.7,0.7,5.5-0.5
	c-1-0.6-1.9-1.2-2.8-1.7c0.8-0.7,1.5-1.3,2.2-2c-0.1-0.2-0.2-0.3-0.3-0.5c-1.3,0.5-2.6,1-3.9,1.6c0-0.3,0-0.7-0.1-1.1
	c-0.1-0.1-0.2-0.1-0.4-0.2c-0.9,1.5-1.9,2.9-2.8,4.4c-0.1-0.1-0.3-0.2-0.4-0.2c-0.1-1.7,0.2-3.2,1.4-4.5c0.8-0.9,1.5-1.9,2.2-2.8
	c0.2-0.3,0.1-0.7,0.1-1.1c-0.4,0-0.8-0.1-1.1,0.1c-0.8,0.4-1.6,1-2.3,1.5c-0.5-1.2,0.6-3.5-1.2-5c-0.2,0-0.4,0-0.6,0
	c0,2.2,0,4.4,0,7c-1.3-1.2-2.2-2.1-3.4-3.2c-0.5,1.8,0.4,2.7,1.2,3.5c1.6,1.5,1.9,3.4,1.8,5.5c0,0.1,0,0.3-0.1,0.4
	c0,0-0.1,0.1-0.4,0.3c-0.7-1.9-1.3-3.7-1.9-5.5c-0.2,0-0.3,0-0.5,0.1c-0.2,0.6-0.5,1.1-0.8,1.9c-0.5-0.4-1.1-0.8-1.7-1.1
	c-0.4-0.2-0.9-0.1-1.3-0.1c0,0.4-0.1,0.9,0.1,1.2c0.5,0.8,1.2,1.5,1.7,2.3c0.2,0.3,0.1,0.9,0,1.3c-0.1,0.5-0.4,0.9-0.6,1.4
	c0.6,0.1,1.2,0.2,1.8,0.2c0.1,0,0.3-0.2,0.7-0.4c0,0.8,0.1,1.4,0.1,2.3c-1-0.4-1.8-0.8-2.7-1.2c-0.7,1.8,1,2.3,1.7,3.3
	c-0.3,0.1-0.7,0-0.8,0.2c-1,1.5-1.9,0.6-2.8,0c-1.3-0.7-2.5-1.4-3.9-2.2c-0.6,2,0.7,2.5,1.8,3.4c-0.4,0.1-0.7,0.1-0.9,0.2
	c-0.4,0.2-0.7,0.6-1.1,0.8c0.4,0.2,0.8,0.4,1.2,0.7c0.4,0.2,0.9,0.4,1.2,0.7c0.4,0.5,0.7,1.2,1,1.8c-0.6,0.1-1.3,0.1-1.9,0.4
	c-0.4,0.2-0.7,0.7-1,1c0.5,0.3,1,1,1.4,0.9c1.1-0.3,2.1-0.5,3,0.5c0.1,0.2,0.8-0.1,1.2-0.2c0.5-0.2,0.9-0.4,1.6-0.3
	c-0.4,0.5-0.9,1-1.3,1.5c0,0.1,0.1,0.3,0.1,0.4c0.8-0.1,1.6-0.2,2.4-0.3c0,0.3,0,0.8,0,1.8c1.2-0.6,2.1-1,3.2-1.5
	c0.1,0.4,0.3,1.1,0.6,1.9c-3,0.4-5.7,1.2-8.4-0.7c-0.8-0.6-1.8-1.3-3.2-0.5c0.6,0.6,1.2,1.1,1.7,1.6c-0.1,0.1-0.1,0.3-0.2,0.4
	c-1.8-1-3.5-2-5.4-3c-0.5-0.3-1.2-0.3-1.8-0.4c-0.1,0.5-0.2,1-0.3,1.6c-1.3,0.2-2.7,0.5-4.5,0.8c1.9,2.1,3.9,1.9,6.3,1.7
	c-0.5,0.4-0.9,0.6-1.1,0.8c-0.3,0.4-0.4,0.8-0.6,1.2c0.4,0.1,0.9,0.4,1.2,0.3c0.6-0.2,1.1-0.6,1.7-0.9c0.5-0.3,1-0.7,1.5-1
	c0.1,0.1,0.1,0.2,0.2,0.3c-0.6,0.4-1.2,0.8-1.7,1.2c0,0.3,0,0.4,0.1,0.4c0.4,0.6,1,1.8,1.3,1.7c1.3-0.3,2.4-0.9,3.6-1.5
	c0.4-0.2,0.7-0.5,1-0.8c0.1,0.1,0.2,0.2,0.3,0.3c-0.6,0.4-1.2,0.8-1.7,1.3c-0.4,0.4-0.6,0.9-0.9,1.4c0.6,0,1.2,0,1.8-0.1
	c0.1,0,0.2-0.2,0.5-0.3c0.1,0.4,0.2,0.8,0.3,1.5c0.7-0.7,1.2-1.3,1.8-1.9c2.3,0.5,5.4-1,6.3-3c0.1,0,0.2,0.1,0.4,0.1
	c-0.2,0.6-0.3,1.4-0.8,1.7c-2.1,1.5-4.4,2.9-6.6,4.3c-0.3,0.2-0.9,0-1.3-0.2c-1.3-0.5-2.5-1.1-3.7-1.7c-0.1,0.1-0.2,0.2-0.3,0.3
	c0.2,0.5,0.4,1,0.7,1.7c-1.4-0.4-2.7-0.8-4.1-1.1c-0.1,0.4-0.2,0.8-0.3,1.1c-1.3,0.7-3.4-1.4-4.2,1.4c0.6,0.1,1,0.1,1.5,0.1
	c-0.3,0.4-0.5,0.8-0.8,1.3c0.7,0,1.2,0.1,1.9,0.1c0.1,0.3,0.2,0.7,0.3,1.1c0.4,0,0.8,0.1,1.4,0.1c0.1,0.4,0.1,0.8,0.1,0.8
	c1,0.3,1.8,0.4,2.5,0.7c0.2,0.1,0,0.9,0,1.8c-1.7-1.7-3.3-1.4-5-0.6c0.6,0.9,1.9,1.7,0.9,3.2c-1.1-0.7-2.3-1.4-3.4-2.1
	c-0.1,0.1-0.2,0.2-0.3,0.3c0.1,0.5,0.2,1,0.4,1.7c-1.5-0.2-2.9-0.4-4.3-0.6c-0.1,0.2-0.1,0.4-0.2,0.6c1.1,0.6,2.1,1.2,3.2,1.8
	c-0.6,0.9,0.1,1,1,1.3c1.4,0.4,2.6,1.2,3.9,1.9c0,0.2,0,0.3,0,0.5c0.3-0.4,0.5-0.8,0.8-1.3c1.9,2,3.7,3.8,5.5,5.6
	c-3.1,1-6.4,2.4-9.7-0.2c-0.1,0.6-0.1,0.8-0.1,1.1c0,0.2,0,0.5,0,0.7c-1.3,1.2-2.9-1.4-4,0.5c0.8,0.8,1.6,1.7,2.4,2.6
	c-0.1,0.1-0.2,0.3-0.3,0.4c0.5,0.1,1,0.1,1.4,0.2c0.6,1.9,0.8,2,2.6,1.3c-0.1,2.3,1.8,0.8,2.7,1.4c-1.3,1.4-3.8,1.7-5.4,0.7
	c-0.7-0.4-1.4-1.2-1.9,0.3c0,0.1-0.6,0.2-0.9,0.2c-0.7,0-1.4,0-2.1,0c0,0.1-0.1,0.3-0.1,0.4c0.4,0.2,0.9,0.5,1.3,0.7
	c0.3,0.2,0.8,0.4,1,0.7c1,1.5,1,1.5,2.8,1.2c0.1,0.4,0.1,0.8,0.2,1.2c0.9,0.5,1.8,1,2.6,1.4c0.4,0.2,1,0.2,1.3-0.1
	c0.7-0.5,1.2-1.1,1.9-1.7c1-0.8,1.6-0.6,2.5,0.6c-0.7,0.1-1.4,0.1-2.4,0.2c0.4,0.9,0.7,1.7,1,2.4c-1,0.5-1.9,1.1-3,1.4
	c-2.1,0.5-4.2,0.9-6.3,1.3c-0.9,0.2-1.8,0-2,1.3c-0.1,0.3-0.8,0.6-1.3,0.7c-0.9,0.1-1.8,0.1-3,0.2c1,1.5,2.4,1.9,4,2.1
	c-0.3,0.5-0.6,0.8-0.9,1.3c0.5,0.1,0.9,0.1,1.3,0.3c0.3,0.2,0.4,0.6,0.6,0.9c1-0.1,2.1-0.2,3.3-0.3c0.1,0.6,0.2,1,0.3,1.5
	c0.2,0.1,0.3,0.3,0.5,0.4c0.4-0.5,0.8-1.1,0.9-1.3c0.7,0.3,1.4,0.8,2.2,1c1.5,0.3,1.9-0.9,2.4-2.1c0.3,0.6,0.5,1.1,0.8,1.6
	c0.5-0.6,0.8-1,1.3-1.6c0.2,0.5,0.4,1,0.7,1.7c0.4-0.9,0.7-1.6,0.9-2c0.9,0.1,1.7,0.2,2.9,0.4c-3,2.1-6.2,2.8-9.5,3.3
	c0.6,1.9,2.2,1.4,3.6,2c-0.4,0.2-0.9,0.4-1.3,0.5c-3.1,0.3-6.2,0.4-9.3,0.7c-2.8,0.3-5.6,0.6-8.6,1c0.6,1.7,2.1,1.3,3.3,1.9
	c-0.8,0.7-1.6,1.3-2.2,1.8c1.4,0.5,2.7,1.1,4,1.4c0.7,0.1,1.5-0.5,2.4-0.7c-0.3,0.5-0.5,1-0.8,1.5c0.1,0.1,0.1,0.2,0.2,0.3
	c0.7-0.2,1.4-0.4,2.2-0.7c1.5,1.4,1.5,1.4,3.7,0.2c0.1,0.6,0.2,1.3,0.3,1.9c0.8-0.3,1.7-0.6,2.5-0.9c0,0.2-0.1,0.6-0.3,1.2
	c2.2,0,4.3,0.6,6.3,1.2c-4.6,1.7-9.1,4.1-14.2,1.3c0,0.2,0,0.3,0,0.5c0.3,0.4,0.5,0.7,1,1.3c-3.1-0.4-6-0.9-8.8-1.3
	c-0.1,0.1-0.1,0.2-0.2,0.3c1.2,0.7,2.4,1.4,3.6,2.1c-0.2,0-0.5,0.1-0.7,0.2c-0.2,0.1-0.5,0.4-0.5,0.6c0,0.2,0.3,0.5,0.6,0.6
	c0.7,0.2,1.5,0.3,2.3,0.4c-0.3,0.4-0.6,0.8-1,1.5c0.8-0.2,1.3-0.3,1.8-0.4c1,1.8,2.4,0.4,3.7,0.5c-0.1,0.2-0.2,0.5-0.3,0.8
	c0.6,0.4,2.1-0.5,1.8,1.3c0.6-0.4,0.9-0.6,1.4-1c-0.2,0.7-0.4,1.2-0.8,2.3c1.4-0.5,2.5-0.9,4-1.4c-0.8,0.9-1.2,1.7-1.8,2
	c-2,0.8-4,1.5-6.1,2c-0.6,0.2-1.4-0.2-2.1-0.4c-1.1-0.2-2.2-0.5-3.3-0.7c-0.9-0.1-1.5,0.1-0.7,1.3c-1.7-0.3-3.1-0.5-4.6-0.8
	c-0.1,0.1-0.1,0.3-0.2,0.4c0.4,0.5,0.8,1.1,1.2,1.7c-1.8-0.2-3.5-1.1-5.2-0.2c0,0.2-0.1,0.3-0.1,0.5c1.6,0.5,3.2,1,4.7,1.5
	c-0.4,0.6-1,1.3-1.5,2.1c0.2,0,0.4,0,0.6,0c0.4,0.6,0.8,1.3,1.2,1.9c0.7,0.9,3.4,1.2,4.5,0.3c1,0.6,1.7,1.4,0.7,2.5
	c-1.9,0.3-3.7,0.7-5.6,1c0.3,1.4,1.2,1.7,4.6,1c-0.9,0.6-1.5,0.8-2,1.2c-0.3,0.2-0.4,0.7-0.6,1.1c0.3,0.1,0.7,0.2,1,0.3
	c0.7,0.2,1.4,0.3,2.2,0.5c0,0.2-0.1,0.4-0.1,0.9c0.9-0.3,1.7-0.5,2.8-0.9c-0.4,0.5-0.6,0.8-1.1,1.4c1.1-0.2,1.8-0.3,2.6-0.5
	c0.2,0.2,0.5,0.5,1.1,1.2c-4.3,0-8.3,0-12.3,0c0,0.2,0,0.3,0,0.5c0.7,0.4,1.4,0.8,2.1,1.2c0,0.1-0.1,0.2-0.1,0.4
	c-1.5,0.3-3,0.6-4.4,0.9c0,0.2,0,0.4,0.1,0.6c1.8,1.5,3.8,0.3,5.8-0.1c-0.5,0.9-1.1,1.7-1.6,2.5c0.1,0.1,0.2,0.3,0.3,0.4
	c0.9-0.2,1.8-0.5,2.9-0.8c0.1,0.4,0.2,0.9,0.3,1.3c-8-1.4-15.8-2.2-22.5-2.2c-20.9,0-19.6-74.5-19.6-74.5s-11.8-48.4-30.1-61.5
	c-18.3-13.1-45.8-28.8-45.8-28.8l-33.8-27.2c0-0.5,0.1-1.2,0.1-2c0.7,0.3,1.6,0.6,2.3,0.9c0.3-0.3,0.6-0.7,0.8-0.7
	c0.3,0,0.8,0.3,1,0.6c0.5,0.8,0.8,1.6,2,0.9c0.3-0.2,1.1,0.6,1.8,1c0.2-0.3,0.4-0.8,0.5-1c0.8,0.2,1.5,0.7,2,0.5
	c1.8-0.8-0.3-2,0.3-3.2c0.6,0.6,1.3,1.1,1.9,1.7c1.6,1.3,1.9,1.3,2.8-0.5c1.1,0.5,2.2,1.1,3.3,1.6c0.1-0.1,0.2-0.3,0.3-0.4
	c-0.3-0.5-0.6-1-0.9-1.6c0.6-0.2,1.1-0.4,2.1-0.7c-0.9-0.5-1.5-0.9-2.2-1.3c0.1-0.1,0.2-0.3,0.3-0.4c1.5,0.7,3,1.3,4.5,2
	c0.1-0.2,0.3-0.4,0.4-0.6c-0.5-0.2-0.9-0.5-1.5-0.8c1.5-0.4,2.7-0.6,3.9-0.9c0-0.1-0.1-0.3-0.1-0.4c-3.8-0.7-7.7-0.7-11.2-2.6
	c0-0.1,0.1-0.3,0.1-0.4c0.7,0.1,1.4,0.2,2.3,0.3c-0.2-0.5-0.3-0.8-0.5-1.3c1,0,1.9,0,3.1,0c-0.5-0.6-0.8-0.9-1.3-1.5
	c1.3,0,2.4,0,3.5,0c0-0.2,0.1-0.3,0.1-0.5c-0.6-0.3-1.2-0.5-1.8-0.8c0.6-0.2,1.2-0.4,1.8-0.5c0.1-0.1,0.2-0.2,0.2-0.4
	c-0.4-0.2-0.8-0.4-1.2-0.6c0-0.1,0.1-0.2,0.1-0.3c1.3,0.1,2.5,0.1,3.8,0.2c0-0.1,0.1-0.3,0.1-0.4c-0.9-0.4-1.8-0.8-2.7-1.2
	c0-0.1,0-0.2,0.1-0.3c1.1-0.1,2.1-0.1,3.2-0.2c0-0.2,0-0.3,0-0.5c-1.7-0.3-3.3-0.6-5-0.9c0-0.1,0-0.2,0-0.2c2-0.7,4-1.4,5.9-2.1
	c-0.1-0.3-0.1-0.5-0.2-0.8c-1.9,0.3-3.8,0.6-5.8,1c0.6-0.7,1.2-1.4,1.7-2c-0.1-0.1-0.2-0.2-0.2-0.4c-0.9,0.3-1.8,0.5-2.5,1
	c-3,2-6.2,1.9-9.4,0.5c-2.9-1.3-5.7-2.7-8.6-4.1c-0.5-0.3-0.9-0.8-1.3-1.3c1.1,0.4,1.9,2.1,3.4,0.7c0.6,0.5,1.2,1,2,1.7
	c0-0.8-0.1-1.3-0.1-2.3c1.5,0.8,2.8,1.5,4.3,2.3c-0.1-0.8-0.2-1.4-0.2-2.1c1.2,0.5,2.4,0.9,3-0.7c1.1,0.8,2.1,1.6,3.1,2.3
	c0.1-0.1,0.3-0.2,0.4-0.3c-0.5-0.8-1-1.6-1.6-2.5c3-1.8,6.2-1.5,9.5-1.1c0-0.2,0.1-0.5,0.1-0.7c-1.3-0.6-2.5-1.2-4.2-2
	c2.4,0.3,4.5,1.2,6.7,0c-1-1.3-2.4-0.9-3.6-1.2c0.5-0.4,1-0.7,1.5-1c0-0.1-0.1-0.2-0.1-0.3c-2.5,0-5,0-7.6,0
	c0.1-0.5,0.2-0.9,0.4-1.8c-3.2,1.1-6.3,1.2-9.2,0.1c-2.8-1.1-6-1.5-8.6-3.7c1.9-0.7,3.2-0.3,4.7,0.2c1.8,0.5,3.8,0.5,5.7,0.6
	c0.3,0,0.6-0.3,1-0.5c0.4,0.3,0.8,0.5,1.3,0.9c0.2-0.4,0.3-0.6,0.6-1c1.8,1.8,3-0.1,4.6-0.7c-0.3-0.4-0.5-0.6-0.5-0.6
	c0.8-0.3,1.6-0.5,2.4-0.8c1.8-0.5,3.7-1.1,5.5-1.6c0.3-0.1,0.7-0.3,1.3-0.5c-0.8-0.3-1.3-0.5-1.7-0.7c-0.2-0.7-0.5-1.3-0.7-2
	c1.2-0.5,2.5-1,3.8-1.6c0-0.1-0.1-0.2-0.1-0.2c-2.9,0.1-5.9,0.3-9.1,0.4c0.3-0.5,0.4-0.8,0.7-1.2c-3.1-0.4-6.3,0-9.3-1.8
	c1.3-0.5,2.3-1.2,3.4-1.2c1.1,0,2.2,0.6,3.3,1c0.1-0.2,0.2-0.3,0.3-0.5c-0.5-0.3-1-0.7-1.8-1.3c1.4-0.1,2.5-0.1,4-0.2
	c-1-0.5-1.6-0.8-2-1.1c1.4-0.9,3-1.8,4.5-2.7c0.3-0.2,0.5-0.8,0.7-1.2c-0.4-0.1-0.9-0.4-1.3-0.3c-1.4,0.3-2.7,0.7-4.3,1.1
	c0.1-0.7,0.1-1.1,0.2-1.9c-4.3,2.1-8,0.8-11.6-1.2c1.4,0.2,2.7-1.3,4.3-0.2c0.8,0.5,2.2,0.1,3.8,0.1c-0.5-0.8-0.8-1.2-1.1-1.7
	c0.7,0.3,1.2,0.4,1.7,0.6c0.4-1.3,3-1.8,1.2-3.9c0.6-0.7,1.1-1.4,1.6-2c-0.1-0.1-0.1-0.2-0.2-0.3c-1.6,0.4-3.2,0.9-4.8,1.3
	c-1.2,0.3-2.4,0.4-3.7,0.4c-1.2,0-2-0.7-2.6-2.2c1.4,0.2,2.6,0.4,3.7,0.6c0.1-0.1,0.1-0.2,0.2-0.3c-0.5-0.6-1-1.2-1.5-1.8
	c0.7-0.2,1.5-0.5,2.3-0.7c-0.2-0.2-0.4-0.4-0.7-0.8c0.4-0.3,0.9-0.7,1.5-1.1c-2.4,0.1-4.6,0.3-6.7,0.3c-2.2,0-4.5,0.2-6.4-0.9
	c0.4-0.6,0.7-1.1,1.1-1.7c1.9,2.3,3.8,0.1,6.3-0.1c-1.1-1-1.8-1.7-2.7-2.5c1.6,0.2,3.1,0.3,4.6,0.4c-0.3-1.5,0.5-1.9,1.6-2.3
	c1.1-0.4,2-1.4,3.2-2.2c-2.7-1.9-5.2-3-8.3-1.6c0-0.1-0.1-0.2-0.1-0.4c0.6-0.5,1.1-0.9,1.7-1.4c-0.1-0.1-0.1-0.2-0.2-0.3
	c-0.6,0.1-1.2,0.3-2,0.5c0.2-0.6,0.4-1,0.6-1.4c-2.2,1.5-4.4,2.4-7.1,1.8c-2.4-0.5-5-0.7-5.6-4c1.4,1.9,3.4,0.8,5,1.6
	c0.2-0.5,0.3-0.9,0.5-1.4c0.6,0.3,1.1,0.6,1.7,1c1,0.6,1.5,0.4,1.3-0.9c1.7,0,3.4,0,5.3,0c-0.4-0.7-0.6-1.1-0.7-1.5
	c0.2-0.7,2.2-0.3,1.2-1.8c1.2-0.8,2.5-1.8,3.9-2.8c-1.8-0.5-3.2-0.9-4.8-1.4c0-0.1,0.1-0.4,0.2-1c-2,0.5-3.8,0.9-5.6,1.3
	c0.2-1,0.3-1.8,0.5-3c-5.8,3.7-9.9,0.2-14.3-1.9c0-0.2,0.1-0.4,0.1-0.6c1.6,0.4,3.2,0.7,4.8,1.1c0-0.3,0.1-0.8,0.2-1.2
	c1.2,0.1,2,2.3,3.2,0.7c0.9,0.4,1.9,1.2,2.6,1c0.9-0.3,2.1-1,1.6-2.6c0.8,0.2,1.4,0.3,2,0.4c0.1-0.6,0.1-1.1,0.2-1.7
	c0.1,0,0.3,0,0.4,0c-0.2-0.4-0.5-0.9-0.7-1.3c0.1-0.1,0.1-0.2,0.2-0.2c0.5,0.3,0.9,0.8,1.5,1c0.5,0.2,1.1,0.1,1.9,0.2
	c-0.1-0.6-0.2-1.1-0.3-1.4c1.2-0.6,2.2-1.1,3.3-1.6c0-0.1-0.1-0.3-0.1-0.4c-1.2,0-2.4,0-3.8,0c0.3-0.6,0.4-0.9,0.8-1.6
	c-1.5,0.8-2.6,1.4-3.6,1.9c-0.3-0.5-0.5-0.8-0.9-1.4c0.1-0.2,0.4-0.6,0.6-1c-0.1-0.1-0.1-0.2-0.2-0.3c-0.7,0.5-1.5,0.9-2.1,1.4
	c-1.4,1.3-2.9,1.7-4.6,0.9c-1.6-0.7-3.2-1.3-4.7-2.1c-0.6-0.3-1.1-1-1.6-1.6c0.1-0.2,0.3-0.3,0.4-0.5c0.6,0.3,1.2,0.6,1.7,1
	c0.9,0.8,1.4,0.7,1.8-0.6c0.5,0.4,0.9,0.8,1.4,1.1c0.4,0.3,1,0.3,1.6,0.5c0.1-0.6,0.1-0.9,0.1-1.3c0-0.4,0-0.8,0.1-1.3
	c1.7,0.1,2.6,2.3,4.7,1.5c-0.9-0.7-1.8-1.4-2.6-2c0.1-0.1,0.2-0.3,0.3-0.4c1.3,0.6,2.7,1.2,4,1.8c0.1-0.1,0.2-0.2,0.2-0.4
	c-0.2-0.3-0.4-0.6-0.8-1.1c0.8-0.3,1.6-0.6,2.4-0.9c-0.2-0.3-0.5-0.6-0.7-0.9c1.2-0.2,2.6,0.4,3.4-1.3c-0.4-0.2-0.7-0.4-1-0.5
	c-1-0.4-2.3,0.2-3.2-1c-0.2-0.3-1.6,0.2-2.4,0.5c-0.6,0.2-1.2,0.5-1.7,0.8c-0.5-0.8-0.9-1.6-1.3-2.4c-0.5,0.2-1.1,0.3-1.7,0.5
	c-0.1-0.5-0.2-0.9-0.4-1.4c-2.2,1.7-4.3,3.2-6.9,1.7c0.2-0.6,0.5-1.1,0.7-1.6c-0.5-0.1-1.1-0.5-1.6-0.4c-2.8,0.5-4.2-1.8-3.9-4.9
	c0.1,1.7,0.5,3.3,2.3,4.4c0.4-0.6,0.7-1.2,1.1-1.9c0.6,1.2,1.4,2.3,3.2,2c-0.2-0.6-0.3-1.1-0.4-1.6c0.3-0.2,0.7-0.5,0.9-0.7
	c1,1.1,2,2.1,3.2,3.2c0.3-0.7,0.6-0.9,0.6-1.2c0.2-1,0.5-1.5,1.5-0.7c0.8,0.6,3.4-0.4,4.8-1.8c-2.2-1.1-4.2-2.1-6.3-3.1
	c0.1-0.2,0.3-0.6,0.4-1c-1.7-1.6-3.1,0.7-4.7,0.4c0.2-0.9,2.3-0.3,1.4-1.8c0.8-0.5,1.6-0.9,2.4-1.4c0-0.2-0.1-0.3-0.1-0.5
	c-1.3-0.2-2.5-0.5-3.8-0.7c0.5-1.8,0.5-1.8,2.2-0.9c1.2-0.8,2.2-1.5,3.7-2.5c-1.2-0.5-2.1-0.8-3.3-1.3c0.9-1,1.8-1.9,2.9-3.1
	c-1.1-0.2-1.9-0.3-2.9-0.5c0.4-0.6,0.9-1.1,1.2-1.7c0.2-0.4,0.1-0.9,0.1-1.3c-0.4,0.1-0.9,0.1-1.2,0.4c-0.6,0.6-1.1,1.3-1.6,2
	c-0.8-0.6-1.2-1-1.8-1.5c-2,2.7-2.6,6.6-6.3,7.5c-0.3-1.9-0.6-3.8-0.8-5.7c-0.1-1.3,0.4-2.3,2-2.2c0.1,0.4,0.1,0.9,0.2,1.4
	c1.4-0.4,2.7-0.8,4.2-1.2c-0.6-1.7-2.1-2.3-3.7-2.9c1.8-0.6,3.7,0.7,5.5-0.5c-1-0.6-1.9-1.2-2.8-1.7c0.8-0.7,1.5-1.3,2.2-2
	c-0.1-0.2-0.2-0.3-0.3-0.5c-1.3,0.5-2.6,1-3.9,1.6c0-0.3,0-0.7-0.1-1.1c-0.1-0.1-0.2-0.1-0.4-0.2c-0.9,1.5-1.9,2.9-2.8,4.4
	c-0.1-0.1-0.3-0.2-0.4-0.2c-0.1-1.7,0.2-3.2,1.4-4.5c0.8-0.9,1.5-1.9,2.2-2.8c0.2-0.3,0.1-0.7,0.1-1.1c-0.4,0-0.8-0.1-1.1,0.1
	c-0.8,0.4-1.6,1-2.3,1.5c-0.5-1.2,0.6-3.5-1.2-5c-0.2,0-0.4,0-0.6,0c0,2.2,0,4.4,0,7c-1.3-1.2-2.2-2.1-3.4-3.2
	c-0.5,1.8,0.4,2.7,1.2,3.5c1.6,1.5,1.9,3.4,1.8,5.5c0,0.1-0.1,0.3-0.1,0.4c0,0-0.1,0.1-0.4,0.3c-0.7-1.9-1.3-3.7-1.9-5.5
	c-0.2,0-0.3,0-0.5,0.1c-0.2,0.6-0.5,1.1-0.8,1.9c-0.5-0.4-1.1-0.8-1.7-1.1c-0.4-0.2-0.9-0.1-1.3-0.1c0,0.4-0.1,0.9,0.1,1.2
	c0.5,0.8,1.2,1.5,1.7,2.3c0.2,0.3,0.1,0.9,0,1.3c-0.1,0.5-0.4,0.9-0.6,1.4c0.6,0.1,1.2,0.2,1.8,0.2c0.1,0,0.3-0.2,0.7-0.4
	c0,0.8,0.1,1.4,0.1,2.3c-1-0.4-1.8-0.8-2.7-1.2c-0.7,1.8,1,2.3,1.7,3.3c-0.3,0.1-0.7,0-0.8,0.2c-1,1.5-1.9,0.6-2.8,0
	c-1.3-0.7-2.5-1.4-3.9-2.2c-0.6,2,0.7,2.5,1.8,3.4c-0.4,0.1-0.7,0.1-0.9,0.2c-0.4,0.2-0.7,0.6-1.1,0.8c0.4,0.2,0.8,0.4,1.2,0.7
	c0.4,0.2,0.9,0.4,1.2,0.7c0.4,0.5,0.7,1.2,1,1.8c-0.6,0.1-1.3,0.1-1.9,0.4c-0.4,0.2-0.7,0.7-1,1c0.5,0.3,1,1,1.4,0.9
	c1.1-0.3,2.1-0.5,3,0.5c0.1,0.2,0.8-0.1,1.2-0.2c0.5-0.2,0.9-0.4,1.6-0.3c-0.4,0.5-0.9,1-1.3,1.5c0,0.1,0.1,0.3,0.1,0.4
	c0.8-0.1,1.6-0.2,2.4-0.3c0,0.3,0,0.8,0,1.8c1.2-0.6,2.1-1,3.2-1.5c0.1,0.4,0.3,1.1,0.6,1.9c-3,0.4-5.7,1.2-8.4-0.7
	c-0.8-0.6-1.8-1.3-3.2-0.5c0.6,0.6,1.2,1.1,1.7,1.6c-0.1,0.1-0.1,0.3-0.2,0.4c-1.8-1-3.5-2-5.4-3c-0.5-0.3-1.2-0.3-1.8-0.4
	c-0.1,0.5-0.2,1-0.3,1.6c-1.3,0.2-2.7,0.5-4.5,0.8c1.9,2.1,3.9,1.9,6.3,1.7c-0.5,0.4-0.9,0.6-1.1,0.8c-0.3,0.4-0.4,0.8-0.6,1.2
	c0.4,0.1,0.9,0.4,1.2,0.3c0.6-0.2,1.1-0.6,1.7-0.9c0.5-0.3,1-0.7,1.5-1c0.1,0.1,0.1,0.2,0.2,0.3c-0.6,0.4-1.2,0.8-1.7,1.2
	c0,0.3,0,0.4,0.1,0.4c0.4,0.6,1,1.8,1.3,1.7c1.3-0.3,2.4-0.9,3.6-1.5c0.4-0.2,0.7-0.5,1-0.8c0.1,0.1,0.2,0.2,0.3,0.3
	c-0.6,0.4-1.2,0.8-1.7,1.3c-0.4,0.4-0.6,0.9-0.9,1.4c0.6,0,1.2,0,1.8-0.1c0.1,0,0.2-0.2,0.5-0.3c0.1,0.4,0.2,0.8,0.3,1.5
	c0.7-0.7,1.2-1.3,1.8-1.9c2.3,0.5,5.4-1,6.3-3c0.1,0,0.2,0.1,0.4,0.1c-0.2,0.6-0.3,1.4-0.8,1.7c-2.1,1.5-4.4,2.9-6.6,4.3
	c-0.3,0.2-0.9,0-1.3-0.2c-1.3-0.5-2.5-1.1-3.7-1.7c-0.1,0.1-0.2,0.2-0.3,0.3c0.2,0.5,0.4,1,0.7,1.7c-1.4-0.4-2.7-0.8-4.1-1.1
	c-0.1,0.4-0.2,0.8-0.3,1.1c-1.3,0.7-3.4-1.4-4.2,1.4c0.6,0.1,1,0.1,1.5,0.1c-0.3,0.4-0.5,0.8-0.8,1.3c0.7,0,1.2,0.1,1.9,0.1
	c0.1,0.3,0.2,0.7,0.3,1.1c0.4,0,0.8,0.1,1.4,0.1c0.1,0.4,0.1,0.8,0.1,0.8c1,0.3,1.8,0.4,2.5,0.7c0.2,0.1,0,0.9,0,1.8
	c-1.7-1.7-3.3-1.4-5-0.6c0.6,0.9,1.9,1.7,0.9,3.2c-1.1-0.7-2.3-1.4-3.4-2.1c-0.1,0.1-0.2,0.2-0.3,0.3c0.1,0.5,0.2,1,0.4,1.7
	c-1.5-0.2-2.9-0.4-4.3-0.6c-0.1,0.2-0.1,0.4-0.2,0.6c1.1,0.6,2.1,1.2,3.2,1.8c-0.6,0.9,0.1,1,1,1.3c1.4,0.4,2.6,1.2,3.9,1.9
	c0,0.2,0,0.3,0,0.5c0.3-0.4,0.5-0.8,0.8-1.3c1.9,2,3.7,3.8,5.5,5.6c-3.1,1-6.4,2.4-9.7-0.2c-0.1,0.6-0.1,0.8-0.1,1.1
	c0,0.2,0,0.5,0,0.7c-1.3,1.2-2.9-1.4-4,0.5c0.8,0.8,1.6,1.7,2.4,2.6c-0.1,0.1-0.2,0.3-0.3,0.4c0.5,0.1,1,0.1,1.4,0.2
	c0.6,1.9,0.8,2,2.6,1.3c-0.1,2.3,1.8,0.8,2.7,1.4c-1.3,1.4-3.8,1.7-5.4,0.7c-0.7-0.4-1.4-1.2-1.9,0.3c0,0.1-0.6,0.2-0.9,0.2
	c-0.7,0-1.4,0-2.1,0c0,0.1-0.1,0.3-0.1,0.4c0.4,0.2,0.9,0.5,1.3,0.7c0.3,0.2,0.8,0.4,1,0.7c1,1.5,1,1.5,2.8,1.2
	c0.1,0.4,0.1,0.8,0.2,1.2c0.9,0.5,1.8,1,2.6,1.4c0.4,0.2,1,0.2,1.3-0.1c0.7-0.5,1.2-1.1,1.9-1.7c1-0.8,1.6-0.6,2.5,0.6
	c-0.7,0.1-1.4,0.1-2.4,0.2c0.4,0.9,0.7,1.7,1,2.4c-1,0.5-1.9,1.1-3,1.4c-2.1,0.5-4.2,0.9-6.3,1.3c-0.9,0.2-1.8,0-2,1.3
	c-0.1,0.3-0.8,0.6-1.3,0.7c-0.9,0.1-1.8,0.1-3,0.2c1,1.5,2.4,1.9,4,2.1c-0.3,0.5-0.6,0.8-0.9,1.3c0.5,0.1,0.9,0.1,1.3,0.3
	c0.3,0.2,0.4,0.6,0.6,0.9c1-0.1,2.1-0.2,3.3-0.3c0.1,0.6,0.2,1,0.3,1.5c0.2,0.1,0.3,0.3,0.5,0.4c0.4-0.5,0.8-1.1,0.9-1.3
	c0.7,0.3,1.4,0.8,2.2,1c1.5,0.3,1.9-0.9,2.4-2.1c0.3,0.6,0.5,1.1,0.8,1.6c0.5-0.6,0.8-1,1.3-1.6c0.2,0.5,0.4,1,0.7,1.7
	c0.4-0.9,0.7-1.6,0.9-2c0.9,0.1,1.7,0.2,2.9,0.4c-3,2.1-6.2,2.8-9.5,3.3c0.6,1.9,2.2,1.4,3.6,2c-0.4,0.2-0.9,0.4-1.3,0.5
	c-3.1,0.3-6.2,0.4-9.3,0.7c-2.8,0.3-5.6,0.6-8.6,1c0.6,1.7,2.1,1.3,3.3,1.9c-0.8,0.7-1.6,1.3-2.2,1.8c1.4,0.5,2.7,1.1,4,1.4
	c0.7,0.1,1.5-0.5,2.4-0.7c-0.3,0.5-0.5,1-0.8,1.5c0.1,0.1,0.1,0.2,0.2,0.3c0.7-0.2,1.4-0.4,2.2-0.7c1.5,1.4,1.5,1.4,3.7,0.2
	c0.1,0.6,0.2,1.3,0.3,1.9c0.8-0.3,1.7-0.6,2.5-0.9c0,0.2-0.1,0.6-0.3,1.2c2.2,0,4.3,0.6,6.3,1.2c-4.6,1.7-9.1,4.1-14.2,1.3
	c0,0.2,0,0.3,0,0.5c0.3,0.4,0.5,0.7,1,1.3c-3.1-0.4-6-0.9-8.8-1.3c-0.1,0.1-0.1,0.2-0.2,0.3c1.2,0.7,2.4,1.4,3.6,2.1
	c-0.2,0-0.5,0.1-0.7,0.2c-0.2,0.1-0.5,0.4-0.5,0.6c0,0.2,0.3,0.5,0.6,0.6c0.7,0.2,1.5,0.3,2.3,0.4c-0.3,0.4-0.6,0.8-1,1.5
	c0.8-0.2,1.3-0.3,1.8-0.4c1,1.8,2.4,0.4,3.7,0.5c-0.1,0.2-0.2,0.5-0.3,0.8c0.6,0.4,2.1-0.5,1.8,1.3c0.6-0.4,0.9-0.6,1.4-1
	c-0.2,0.7-0.4,1.2-0.8,2.3c1.4-0.5,2.5-0.9,4-1.4c-0.8,0.9-1.2,1.7-1.8,2c-2,0.8-4,1.5-6.1,2c-0.6,0.2-1.4-0.2-2.1-0.4
	c-1.1-0.2-2.2-0.5-3.3-0.7c-0.9-0.1-1.5,0.1-0.7,1.3c-1.2-0.2-2.3-0.4-3.4-0.6c-9.9-5.9-18.5-10.2-22.4-10.2c-11.8,0-40.5,0-40.5,0
	L0,210.4V1080h532.3L521.8,1008.1z M343.4,389.7c1.8,0.7,3.1,1.5,3.2,3.3C345.8,391.8,343.8,391.9,343.4,389.7z M346.9,388.8
	c-0.8-1.8-1.5-3.2-2.3-5C346.4,385.1,347.3,386.4,346.9,388.8z M135.5,179.1c1.8,0.7,3.1,1.5,3.2,3.3
	C137.9,181.3,135.9,181.3,135.5,179.1z M139,178.3c-0.8-1.8-1.5-3.2-2.3-5C138.4,174.5,139.4,175.9,139,178.3z M143.1,197.7
	c0.1,0,0.2,0,0.3,0c0,1.2,0,2.3,0,3.5c-0.1,0-0.2,0-0.3,0C143.1,200,143.1,198.9,143.1,197.7z M145,185c-1,0.5-1.8,0.9-2.7,1.3
	C141.9,184.7,142.2,184.6,145,185z M128.6,207.1c-1,0-1.2-1.1-1.1-2.7c1.7,1.6,3.3,2.9,4.8,0.8c0.5,0.3,0.9,0.8,1.2,0.7
	c0.4,0,0.9-0.4,1.5-0.4c-0.2,0.2-0.4,0.6-0.6,0.7C132.4,206.6,130.5,207.1,128.6,207.1z M321.5,509.5c0.6-0.4,1.1-0.8,1.7-1.2
	c0.2,0.8,0,1.2-0.4,1.5C322.4,509.7,321.9,509.6,321.5,509.5z M351,408.3c0.1,0,0.2,0,0.3,0c0,1.2,0,2.3,0,3.5c-0.1,0-0.2,0-0.3,0
	C351,410.6,351,409.4,351,408.3z M353,395.5c-1,0.5-1.8,0.9-2.7,1.3C349.9,395.3,350.1,395.1,353,395.5z M336.5,417.6
	c-1,0-1.2-1.1-1.1-2.7c1.7,1.6,3.3,2.9,4.8,0.8c0.5,0.3,0.9,0.8,1.2,0.7c0.4,0,0.9-0.4,1.5-0.4c-0.2,0.2-0.4,0.6-0.6,0.7
	C340.3,417.1,338.4,417.6,336.5,417.6z M317.3,493.7c0.7-0.7,1.1-1.3,1.8-2c0.5,0.7,1,1.4,1.5,2.2c0.7-0.9,1.1-1.4,1.5-2
	c0.9,0.6,1.7,1.2,2.7,1.9C322.2,494.5,319.9,494.1,317.3,493.7z M321.8,506.9c-0.3,0.8-0.6,1.6-0.9,2.4c0.1,0,0.1,0.1,0.2,0.1
	c-0.6-0.1-1.3-0.3-1.9-0.4C320.1,508.3,320.9,507.6,321.8,506.9z M317.8,507.5c-0.1,0.4-0.2,0.8-0.2,1.2c-0.5-0.1-0.9-0.2-1.4-0.3
	C316.7,508.2,317.2,507.9,317.8,507.5z"/>
</svg>
