<?xml version="1.0" encoding="utf-8"?>
<!-- Generator: Adobe Illustrator 22.1.0, SVG Export Plug-In . SVG Version: 6.00 Build 0)  -->
<svg version="1.1" id="圖層_1" xmlns="http://www.w3.org/2000/svg" xmlns:xlink="http://www.w3.org/1999/xlink" x="0px" y="0px"
	 viewBox="0 0 1920 1080" style="enable-background:new 0 0 1920 1080;" xml:space="preserve">
<style type="text/css">
	.st0{fill:#2F1308;}
</style>
<path class="st0" d="M1601.3,749.6c0,0-54.6,6.5-80.6,14.3s-140.5,31.2-140.5,31.2L1229.2,812L1094,823.7l-96.3,41.6
	c0,0-46.8,15.6-59.8,22.1s-72.8,13-72.8,13s-85.9,1.3-124.9,6.5c-13.6,1.8-34.8,4.4-56.8,7c30.3-13.9,49.7-43.8,49.8-77.8
	c0-0.8,0.2-1.6,0.4-2.4c-0.8-5.7-1.5-11.4-2.3-17c-2.2-5.8-3.9-11.7-6.6-17.3c-18.7-39.3-64.1-58.1-105.3-43.7
	c-2.7,0.9-5.3,2-8.3,3.1c-4.4-8.6-8.9-17.1-13.3-25.7c-0.5-1-1-1.9-1.5-2.9c-2.8-5.3-2.8-5.3,1.6-10.5c5.7,2.8,11.6,5.7,17.4,8.6
	c1,0.5,1.8,1.1,2.8,1.6c2.4,1.1,5.2,2,6.7-0.6c0.5-0.9-1.3-4-2.7-5c-7.4-5.1-15-9.8-22.9-14.8c4.8-5,8.2-11.7,16.5-12.6
	c5.2-0.5,10.4-1.7,15.5-2.6c3.4-0.6,6.1-2.1,7.5-5.4c2.9-6.4,5.8-12.8,8.7-18.9c-0.6-0.8-0.8-1.1-1-1.3c-5.4-3.6-5.9-3.5-8,2.7
	c-1.4,3.9-2.7,7.9-4.1,11.8c-1,2.9-2.9,4.6-5.9,5.1c-5.7,1.1-11.6,1.7-17.2,3.5c-4.8,1.5-9.2,4.3-13.4,6.3c-3.5-1-7-1.9-10.4-3.1
	c-1-0.3-1.9-1.3-2.6-2.2c-7.9-9.2-15.1-19.3-23.9-27.5c-13.7-12.7-22-28.9-30.7-45.4c2.4,1,4.9,1.8,7.3,2.9c1.3,0.6,2.5,1.4,3.7,2.2
	c5.5,3.3,6.6,2.9,9.6-2.6c1.5-2.8,2.9-7.2,7.7-7.2c0.5,0,1.2-1.8,1.4-2.8c0.9-4.8,1.6-9.7,2.3-14.4c3.9-0.5,7-0.9,10.1-1.4
	c3.7-0.6,5.8-2.7,6.3-6.6c1.9-14.3-1.9-32.2-20.5-40.6c-7.7-3.5-15.5-6.3-24-6.4c-1.7,0-3.5-0.2-5,0.4c-5.9,2.3-11.5-0.2-17.2-0.8
	c-1.4,0.2-2.8,0.4-4.3,0.6c-0.2,2-0.3,4-0.7,5.9c-0.2,1.1-0.8,2.2-1.1,3.3c-0.3,1.3-1,2.8-0.6,3.9c1.1,2.8,0.6,5.1-1.1,7.3
	c-3.3,4.1-2.5,7.7,0.8,11.4c1.4,1.5,2.4,3.8,2.6,5.8c0.2,2.5-1.7,3.2-3.9,1.8c-1.2-0.8-2.3-1.7-3.3-2.8c-4.5-4.6-7.9-5-13.1-1.1
	c-3.7,2.8-7.7,4.7-13,4.4c1.2,1.1,2.3,2.2,3.5,3.3c-6.2,1.7-12.6,3-18.7,5.1c-33,11.5-58.3,32-73.3,64c-4.2,9-8,18.4-10.5,28
	c-5.5,20.6,0.5,38,15.9,52.6c10.2,9.7,21.7,17.5,34.4,24.5c-3.4,10.4-6.7,20.8-10.2,31.4c-4.2-1.2-8.1-2.4-12.1-3.4
	c-53.5-12.9-105.9,29.4-104.8,84.4c0,0.9-0.2,1.9-0.3,2.8c0.7,5.2,1.4,10.4,2.1,15.6c2.4,6.2,4.1,12.7,7.2,18.5
	c13.4,25,32.9,40.1,58.3,45.3c-15.3,0.5-29.5,0.2-40.7-1.6c-48.1-7.8-141.8,13-165.2,18.2S0,985,0,985v95h1920V666L1601.3,749.6z
	 M582.7,818.8c16.1,4.3,31.8,8.5,47.5,12.7c0.7,3.9-0.9,5-4.1,5.4c-13.7,1.7-27.4,3.6-41.2,5.5c-1.3,0.2-2.6,0.3-4.2,0.6
	C579.6,834.6,580.5,826.8,582.7,818.8z M582.5,816.6c3.8-7.3,7.3-14.1,10.8-20.9c13.8,10.5,26.8,20.5,39.9,30.6
	c-0.5,0.9-1.2,2-1.9,3.4C615.3,825.3,599.4,821.1,582.5,816.6z M629.8,838.7c2,3,1.2,4.7-2,6.5c-12.5,7-24.8,14.2-37.1,21.4
	c-0.7,0.4-1.5,0.8-3.2,1.7c-2.5-7.8-4.8-15.1-7.2-22.9C597.3,843.1,613.5,840.9,629.8,838.7z M632,845c1.1,1.3,2.1,2.5,3,3.6
	c-10,13.2-20,26.3-30.1,39.7c-6.3-4.9-11.2-11-15.7-18.5C603.4,861.6,617.5,853.4,632,845z M637.5,850.9c1.1,0.6,2.4,1.3,4,2.1
	c-4.2,15.9-8.5,31.8-13,48.7c-7.5-3.8-14.5-7.3-21.4-10.8C617.5,877.2,627.4,864.2,637.5,850.9z M638.6,871.9
	c1.2-4.5,2.4-9,3.6-13.5c1.3-4.8,1.3-4.8,6.5-4.4c2.2,16.2,4.4,32.4,6.7,49.9c-8.5-0.6-16.5-1.1-24.9-1.7
	C633.4,891.5,636,881.7,638.6,871.9z M651.2,854.1c4.6-2.5,4.6-2.5,7.2,1.9c7,12.1,14.1,24.3,21.1,36.5c0.4,0.7,0.8,1.5,1.3,2.5
	c-7.2,4.1-14.6,6.9-22.9,7.8C655.6,886.3,653.4,870.2,651.2,854.1z M683.1,894.5c-8.8-15.3-17-29.4-25.2-43.6
	c1.2-1.2,2.4-2.4,3.4-3.4c13.2,10,26.2,20,40,30.5C695.4,883.4,689.5,888.7,683.1,894.5z M703.2,875.5c-13.8-10.6-26.8-20.7-40-30.9
	c0.3-0.8,0.9-2.2,1.6-3.9c15.9,4.3,31.8,8.5,48.7,13C709.9,861.2,706.6,868.3,703.2,875.5z M713.1,851.3c-11.5-3.1-22.7-6-33.8-9
	c-3.5-0.9-6.9-2.1-10.4-2.7c-3.5-0.7-4.5-2.4-3.5-5.9c16.1-2.2,32.2-4.4,48.8-6.6C715.5,835.2,715.1,843,713.1,851.3z M714.5,824.6
	c-2,0.4-3.1,0.7-4.1,0.8c-14.1,1.9-28.2,3.7-42.2,5.8c-3.2,0.5-4.6-0.5-5.3-4c14-8.1,28.2-16.3,43.4-25.2
	C709.2,809.8,711.8,817,714.5,824.6z M705.4,800.2c-15.1,8.7-29.4,17-43.9,25.4c-1.2-1.3-2.1-2.2-2.9-3c10-13.1,19.9-26.1,30.4-39.9
	C694.4,788.4,699.6,794,705.4,800.2z M686.6,780.8c-10.5,13.7-20.5,26.7-30.7,40.1c-0.7-0.3-1.8-0.8-3.2-1.4
	c4.2-15.9,8.4-31.7,13-48.6C672.8,774.3,679.7,777.5,686.6,780.8z M663.4,771.1c-4.3,16.1-8.5,32-12.8,48.1
	c-1.7-0.2-2.9-0.3-4.2-0.4c-2.2-16.2-4.4-32.4-6.6-48.9C647.8,768.4,655.4,769.3,663.4,771.1z M637.5,769.5c0.4,3.3,0.8,5.7,1.1,8.2
	c1.7,12.9,3.5,25.8,5.2,38.7c0.1,0.9-0.3,1.9-0.4,2.9c-0.7-0.6-1.8-1-2.2-1.8c-6.9-13.3-13.8-26.7-20.7-40.1
	c-0.3-0.6-0.5-1.3-0.9-2.7C625.7,773,631.3,771.3,637.5,769.5z M605.3,783.8c9.2,12.7,18,25,26.9,37.2c-0.1,0.1-0.2,0.2-0.4,0.2
	c-11.9-9.1-23.9-18.3-36.3-27.8C598.7,790.4,601.8,787.3,605.3,783.8z M582.9,717.4c0,0.5,0.1,1.1,0.1,1.6
	c-13.3,5.7-26.5,11.4-40.3,17.3c0.6-5.2,1.2-10,1.6-14.7c0.2-2,0.4-4.2-0.3-6c-1.2-3.2-3.1-6.2-4.6-9.2
	C553.2,710.6,568.6,711.8,582.9,717.4z M563.2,755.9c-11.8,17.6-23.7,35.2-35.6,52.7c-0.6,0.9-1.1,1.9-1.9,2.6
	c-1.1,1.1-2.9,2.9-3.5,2.6c-1.6-0.8-2.7-2.6-4-4c-0.3-0.4-0.3-1.1-0.5-1.7c-0.3-0.1-0.6-0.1-0.9-0.2c1-4.6,1.3-9.4,3-13.7
	c5.9-15.1,12.4-30,18.5-45c0.9-2.1,1.9-3.1,4.1-3c5.8,0.3,11.7,0.1,17.4,1.1C565.8,748.5,566.5,750.9,563.2,755.9z M511,640.5
	c0.5-0.1,1-0.3,1.5-0.4c12.6,15.6,25.2,31.2,37.7,46.9c-0.1,0.2-0.2,0.3-0.3,0.5c-8.3-3.4-16.7-6.8-25-10.4c-0.8-0.4-1.5-1.5-2-2.4
	c-4.1-8.7-8.4-17.4-12.1-26.3C509.9,646.2,510.9,643.1,511,640.5z M512.1,732.6c0.1,4.2-4,9.3-8,9.9c-4.8,0.7-9.7,1.5-14.5,2
	c-1.1,0.1-2.6,0-3.2-0.6c-6.5-6.7-12.9-13.6-19.3-20.5c0.2-0.2,0.3-0.4,0.5-0.6C482.5,726,497.3,729.3,512.1,732.6z M497.8,834
	c3.4,0,6.8-0.4,10.9,0.3c-3.8,3.8-7.5,7.6-11.5,11.1c-0.8,0.7-3.6,0.4-4.3-0.4c-4-4.7-7.6-9.6-11.3-14.6c-0.3-0.4-0.1-1.6,0.3-2.2
	c1.3-1.8,2.8-3.5,4.7-5.8C486.7,833.9,486.9,834.2,497.8,834z M494.2,754.4c4-0.5,7.3-1,11.1-1.5c-1,3.8-1.8,7.2-2.9,11.4
	C499.6,760.8,497,757.8,494.2,754.4z M466.1,668.4c0.7-0.7,1.9-1.3,2.8-1.2c8.8,0.7,17.6,1.3,26.3-1.6c4.1,8.1,8.1,15.9,12,23.6
	c-15.4-4.8-30.7-9.6-46.5-14.6C462.7,672.3,464.3,670.3,466.1,668.4z M456.1,777.8c5.6,3.4,11.2,6.8,17.4,10.6
	c-3,2.4-5.4,4.4-8.1,6.7c-3.4-5.7-6.7-11.2-9.9-16.6C455.7,778.2,455.9,778,456.1,777.8z M426.7,795.9c0.8-2.1,1.9-4,3.3-6.7
	c2.9,2.4,5.4,4.3,7.7,6.4c4.6,4,9,8.2,13.6,12.2c1.8,1.6,2.8,2.9,1.3,5.4c-0.9,1.4-1.2,3.1-2,5.3c-6.9-8.3-14.4-14.8-23.1-20
	C427,798,426.5,796.5,426.7,795.9z M387.7,889.6c3.3-2.5,5.2-1.6,7.1,2c6.8,12.3,14,24.4,21.1,36.6c0.4,0.7,0.7,1.5,1.6,3.1
	c-7.7,2.7-15.2,5.2-23.1,8C392.1,921.9,389.9,905.7,387.7,889.6z M391.8,938.2c-4.7,1.9-17.1,1.4-24.5-1.2
	c4.2-15.8,8.4-31.6,12.7-47.6c1.9,0.1,3.5,0.2,5.3,0.3C387.4,905.9,389.6,922,391.8,938.2z M394.3,886.5c1.3-1.2,2.4-2.4,3.5-3.5
	c13.1,10,26.1,20,40,30.6c-6.1,5.4-11.9,10.7-18.3,16.3C410.8,915,402.6,900.8,394.3,886.5z M403.2,867c-3.2,0.5-2.9-2-4-4
	c14.4-8.3,28.6-16.5,43.6-25.2c-0.1,2-0.1,3.2-0.3,4.3c-1.4,5.7-5.4,9.6-9.9,13c-3.8,2.9-7.5,5.8-11.3,8.7c-0.6,0.5-1.4,0.9-2.2,1
	C413.8,865.5,408.5,866.1,403.2,867z M417.9,867.3c-0.9,3.3-1.9,6.6-3,10.5c-3.7-1-7.7-1.7-11.4-3.2c-1.3-0.5-1.8-2.9-3-4.9
	C407,868.7,412.5,868,417.9,867.3z M399.6,880.1c0.4-0.8,0.9-2.1,1.8-3.9c7.9,3,16.8,2.6,23.3,10c5.5,6.3,12.3,11.5,18.9,17.4
	c-1.4,2.3-2.8,4.7-4.2,7C426,900.4,413,890.4,399.6,880.1z M441.1,836.2c-14.5,8.4-28.7,16.6-43,24.9c-1.1-1.1-2.1-2-3.1-2.9
	c10-13.2,19.9-26.1,29.9-39.4C431.4,823.3,436.4,829.2,441.1,836.2z M422.8,816.3c-10.5,13.7-20.5,26.9-30.6,40.2
	c-0.6-0.3-1.7-0.8-3.1-1.4c4.2-15.9,8.5-31.7,13-48.5C409.3,809.9,416.1,813.1,422.8,816.3z M399.7,807.1c-3.3,12.5-6.7,25-10,37.5
	c-0.6,2.2-1.4,4.3-1.7,6.6c-0.5,3.3-2.1,4.2-5.2,2.9c-2.2-16.1-4.4-32.2-6.5-48.3C381.6,804,394.2,804.7,399.7,807.1z M373.7,804.9
	c2.3,17.2,4.5,33.3,6.7,49.8c-1.3,0.5-2.4,0.9-3.8,1.4c-8.3-14.3-16.5-28.5-25.3-43.6C358.9,809.9,366.1,807.5,373.7,804.9z
	 M349.5,813.4c8.7,15,16.9,29.2,25.2,43.5c-1.2,1-2.2,1.8-3.1,2.6c-13.1-10.1-26.1-20.1-39.9-30.7
	C337.5,823.8,343.2,818.8,349.5,813.4z M329.7,831.3c13.8,10.6,26.8,20.5,39.9,30.6c-0.7,3.2-2.7,3.2-5.5,2.4
	c-13.8-3.8-27.6-7.4-41.4-11.1c-0.9-0.2-1.8-0.6-3.6-1.2C322.7,844.9,326.2,838.1,329.7,831.3z M319,854.4
	c16.3,4.3,32.1,8.6,47.7,12.7c0.6,4-1.2,5-4.5,5.4c-13.1,1.6-26.3,3.5-39.4,5.3c-1.7,0.2-3.5,0.5-5.6,0.8
	C315.9,870.3,317.1,862.7,319,854.4z M316.5,880.9c17.4-2.3,33.5-4.5,49.7-6.7c2.1,3.3,1,5-2.3,6.8c-13.1,7.3-26,14.9-40,23
	C321.4,896.2,319.1,888.9,316.5,880.9z M324.9,905.9c15-8.7,29.1-16.9,43.6-25.3c1.2,1.5,2.1,2.7,2.8,3.7
	c-10.1,13.2-20,26.3-30.5,40.2C335.7,918.4,330.5,912.4,324.9,905.9z M343.4,926.5c10.4-13.8,20.3-26.8,30.4-40.1
	c1.3,0.7,2.6,1.5,4.1,2.4c-4.3,15.9-8.5,31.7-13,48.6C357.3,933.5,350.3,930,343.4,926.5z M478.7,942.1c0,0-28.8,5.3-63.1,9.3
	c0,0,0.1,0,0.1-0.1c18.5-7.3,32.7-19.8,42.6-37.1c1.1-1.8,2.1-2.3,4.1-2.4c3.9-0.1,7.8-0.7,11.6-1.5c1.2-0.2,2.8-1.5,3-2.6
	c0.2-0.9-1.3-2.3-2.3-3.1c-2.3-1.8-5-3.3-7.2-5.2c-0.9-0.8-1.6-2.7-1.3-3.8c4.2-15.2,4.3-30.4,0.5-45.7c-0.4-1.5,0.4-3.5,1.2-5
	c0.9-1.6,2.3-2.9,4-4.9c2.4,7.2,4.6,13.9,7,20.4c2.9,7.8,5.6,15.7,9.1,23.3c3.5,7.6,6.8,8.3,12,1.9c7.5-9.1,14.2-18.8,20.8-28.6
	c4.6-6.8,8.7-14,12.9-21c1.2-2.1,2.6-2.5,5-2.8c5.2-0.6,10.5-1.7,15.5-3.4c3.7-1.3,4.2-4.2,1.3-7c-2.8-2.6-6.3-4.3-10-6.6
	c11.7-20,24.3-40.2,40.7-58.4c1.5,2.1,2.9,3.9,4.2,5.7c1.3,1.8,2.6,3.7,4,5.7c-9.3,7.5-16.6,16.3-22.3,26.6
	c-28,50.5,3.6,113.7,57.8,124.5c-18.6,2.2-31.7,3.7-31.7,3.7L478.7,942.1z"/>
</svg>
