<?xml version="1.0" encoding="utf-8"?>
<!-- Generator: Adobe Illustrator 22.1.0, SVG Export Plug-In . SVG Version: 6.00 Build 0)  -->
<svg version="1.1" id="圖層_1" xmlns="http://www.w3.org/2000/svg" xmlns:xlink="http://www.w3.org/1999/xlink" x="0px" y="0px"
	 viewBox="0 0 1920 1080" style="enable-background:new 0 0 1920 1080;" xml:space="preserve">
<style type="text/css">
	.st0{fill:#B8491C;}
</style>
<path class="st0" d="M1548,766.8c0,0-130.5,25.2-198,8.4c-67.5-16.8-238.5-35-238.5-35L918,678.8c0,0-117,12.6-150,15.4
	c-6.1,0.5-22.7-1-45.8-3.9c-0.5-2.9-1-5.7-1.5-8.5c0.3-0.1,0.6-0.2,0.9-0.4c1,1.2,2,2.3,3.2,3.7c0.2-0.7,0.3-1.1,0.5-1.8
	c1,4.1,4,4.2,7.1,4.3c0.9,0,1.7,1.1,2.7,1.8c0.2-0.7,0.4-1.2,0.4-1.4c2.9,0,5.7,0,8.9,0c0-0.9,0.1-2.2,0.2-3.6
	c1,0.4,2.4,0.9,3.5,1.4c0.5-0.5,0.9-1.1,1.2-1.1c0.5,0,1.2,0.4,1.5,0.8c0.8,1.1,1.2,2.5,3.1,1.3c0.4-0.3,1.7,0.9,2.7,1.5
	c0.2-0.5,0.6-1.1,0.8-1.5c1.2,0.3,2.3,1.1,3,0.8c2.7-1.2-0.4-3.1,0.5-4.9c1,0.8,1.9,1.7,2.9,2.5c2.4,2,2.9,1.9,4.2-0.8
	c1.7,0.8,3.3,1.7,5,2.5c0.1-0.2,0.3-0.4,0.4-0.6c-0.4-0.7-0.8-1.5-1.4-2.4c0.9-0.3,1.7-0.5,3.2-1c-1.3-0.8-2.3-1.4-3.3-2
	c0.2-0.2,0.3-0.4,0.5-0.6c2.3,1,4.6,2,6.9,3c0.2-0.3,0.4-0.7,0.7-1c-0.7-0.4-1.4-0.7-2.3-1.2c2.2-0.5,4.1-1,6-1.4
	c0-0.2-0.1-0.4-0.1-0.7c-5.8-1-11.8-1.1-17-3.9c0-0.2,0.1-0.4,0.1-0.6c1.1,0.1,2.2,0.3,3.5,0.4c-0.3-0.8-0.5-1.3-0.8-2
	c1.6,0,3,0,4.8,0c-0.7-0.9-1.2-1.4-1.9-2.3c2,0,3.6,0,5.3,0c0-0.2,0.1-0.5,0.1-0.7c-0.9-0.4-1.8-0.8-2.7-1.2
	c0.9-0.3,1.8-0.6,2.7-0.8c0.1-0.2,0.2-0.4,0.4-0.6c-0.6-0.3-1.2-0.6-1.8-0.9c0.1-0.1,0.1-0.3,0.2-0.4c1.9,0.1,3.8,0.2,5.8,0.3
	c0.1-0.2,0.2-0.4,0.2-0.6c-1.4-0.6-2.7-1.2-4.1-1.8c0-0.1,0.1-0.3,0.1-0.4c1.6-0.1,3.2-0.2,4.8-0.3c0-0.2,0-0.5,0-0.7
	c-2.5-0.4-5-0.9-7.6-1.3c0-0.1,0-0.2-0.1-0.4c3-1.1,6-2.1,9-3.2c-0.1-0.4-0.2-0.8-0.3-1.2c-2.9,0.5-5.8,1-8.9,1.5
	c0.9-1,1.8-2.1,2.7-3.1c-0.1-0.2-0.2-0.4-0.4-0.5c-1.3,0.5-2.7,0.8-3.9,1.5c-4.6,3-9.4,2.9-14.3,0.8c-4.4-1.9-8.7-4.1-13-6.3
	c-0.8-0.4-1.4-1.2-1.9-2c1.7,0.6,2.9,3.2,5.1,1.1c0.9,0.8,1.8,1.5,3,2.5c-0.1-1.2-0.1-2-0.2-3.5c2.3,1.2,4.2,2.3,6.6,3.6
	c-0.1-1.2-0.2-2.1-0.3-3.1c1.8,0.7,3.6,1.4,4.6-1c1.6,1.2,3.1,2.4,4.7,3.5c0.2-0.2,0.4-0.3,0.6-0.5c-0.8-1.2-1.6-2.5-2.5-3.9
	c4.5-2.7,9.5-2.3,14.5-1.7c0.1-0.4,0.1-0.7,0.2-1.1c-1.9-0.9-3.8-1.8-6.3-3c3.7,0.4,6.9,1.8,10.3,0c-1.5-2-3.6-1.4-5.5-1.8
	c0.8-0.5,1.5-1,2.2-1.5c-0.1-0.1-0.1-0.3-0.2-0.4c-3.8,0-7.6,0-11.5,0c0.1-0.7,0.3-1.4,0.6-2.7c-4.9,1.6-9.5,1.8-14,0.1
	c-4.3-1.7-9.1-2.3-13.1-5.7c2.9-1,4.9-0.4,7.1,0.2c2.8,0.8,5.8,0.7,8.7,1c0.5,0,0.9-0.4,1.4-0.7c0.6,0.4,1.2,0.8,1.9,1.4
	c0.3-0.5,0.5-1,0.8-1.6c2.8,2.7,4.6-0.2,7-1.1c-0.4-0.5-0.8-0.9-0.7-0.9c1.2-0.4,2.5-0.8,3.7-1.2c2.8-0.8,5.6-1.6,8.3-2.4
	c0.5-0.2,1-0.4,1.9-0.8c-1.2-0.5-1.9-0.7-2.6-1c-0.4-1-0.7-2-1.1-3c1.8-0.7,3.8-1.6,5.7-2.4c0-0.1-0.1-0.2-0.1-0.4
	c-4.5,0.2-8.9,0.4-13.8,0.6c0.5-0.8,0.7-1.2,1.1-1.9c-4.7-0.7-9.6-0.1-14.2-2.8c2-0.8,3.6-1.8,5.2-1.8c1.7,0,3.3,0.9,5,1.5
	c0.2-0.2,0.3-0.5,0.5-0.7c-0.8-0.5-1.5-1.1-2.8-2c2.2-0.1,3.8-0.2,6-0.4c-1.5-0.8-2.4-1.3-3-1.6c2.2-1.3,4.6-2.7,6.8-4.2
	c0.5-0.3,0.7-1.2,1-1.9c-0.7-0.2-1.4-0.6-2-0.4c-2.1,0.4-4.2,1-6.5,1.6c0.1-1,0.2-1.6,0.3-2.9c-6.5,3.2-12.1,1.2-17.6-1.9
	c2.2,0.3,4-2,6.5-0.2c1.2,0.8,3.4,0.1,5.7,0.1c-0.8-1.3-1.1-1.8-1.7-2.6c1.1,0.4,1.9,0.6,2.6,0.9c0.6-2,4.6-2.8,1.8-5.9
	c0.8-1.1,1.7-2.1,2.5-3.1c-0.1-0.2-0.2-0.3-0.3-0.5c-2.4,0.7-4.8,1.4-7.3,1.9c-1.8,0.4-3.7,0.6-5.6,0.7c-1.8,0-3-1.1-4-3.3
	c2.2,0.4,3.9,0.7,5.7,1c0.1-0.2,0.2-0.3,0.3-0.5c-0.8-0.9-1.5-1.8-2.3-2.7c1.1-0.4,2.3-0.7,3.5-1.1c-0.3-0.3-0.5-0.6-1.1-1.2
	c0.6-0.5,1.4-1,2.3-1.7c-3.6,0.2-6.9,0.5-10.2,0.5c-3.4,0-6.8,0.3-9.8-1.3c0.6-0.9,1.1-1.7,1.7-2.6c2.9,3.5,5.8,0.1,9.7-0.1
	c-1.6-1.5-2.8-2.5-4.1-3.8c2.5,0.2,4.6,0.4,7,0.7c-0.5-2.4,0.7-2.8,2.4-3.5c1.7-0.6,3-2.1,4.8-3.4c-4.1-2.9-7.9-4.5-12.6-2.4
	c0-0.2-0.1-0.4-0.1-0.6c0.9-0.7,1.7-1.4,2.6-2.1c-0.1-0.2-0.2-0.3-0.3-0.5c-0.9,0.2-1.9,0.4-3,0.7c0.3-0.9,0.6-1.5,0.8-2.1
	c-3.3,2.3-6.7,3.7-10.8,2.8c-3.6-0.8-7.6-1-8.5-6.2c2.1,2.9,5.2,1.2,7.7,2.4c0.3-0.8,0.4-1.4,0.7-2.2c0.9,0.5,1.7,1,2.5,1.5
	c1.5,0.8,2.3,0.6,2-1.4c2.6,0,5.2,0,8.1,0c-0.6-1.1-0.8-1.7-1.1-2.2c0.3-1.1,3.3-0.4,1.9-2.7c1.8-1.3,3.7-2.7,6-4.3
	c-2.7-0.8-4.9-1.4-7.3-2.1c0-0.1,0.2-0.7,0.4-1.5c-3,0.7-5.8,1.4-8.6,2c0.3-1.6,0.5-2.7,0.8-4.6c-8.8,5.7-15.1,0.3-21.8-3
	c0.1-0.3,0.1-0.6,0.2-0.9c2.4,0.5,4.8,1.1,7.3,1.7c0.1-0.5,0.2-1.2,0.3-1.9c1.8,0.1,3.1,3.5,4.8,1c1.4,0.6,2.9,1.8,3.9,1.5
	c1.4-0.4,3.2-1.5,2.4-4c1.2,0.2,2.1,0.4,3,0.6c0.1-0.9,0.2-1.7,0.3-2.5c0.2,0,0.4,0,0.6-0.1c-0.4-0.7-0.8-1.4-1.1-2
	c0.1-0.1,0.2-0.2,0.3-0.4c0.7,0.5,1.4,1.2,2.2,1.5c0.8,0.3,1.7,0.2,2.9,0.3c-0.2-1-0.3-1.6-0.4-2.2c1.8-0.9,3.4-1.7,5-2.5
	c-0.1-0.2-0.1-0.4-0.2-0.7c-1.8,0-3.6,0-5.7,0c0.4-0.9,0.7-1.3,1.2-2.5c-2.2,1.2-3.9,2.1-5.4,2.9c-0.4-0.7-0.8-1.3-1.3-2.1
	c0.2-0.3,0.5-0.9,0.9-1.5c-0.1-0.1-0.2-0.3-0.3-0.4c-1.1,0.7-2.3,1.3-3.2,2.2c-2.1,2-4.4,2.6-7,1.4c-2.4-1-4.9-1.9-7.2-3.1
	c-1-0.5-1.6-1.6-2.4-2.4c0.2-0.3,0.4-0.5,0.6-0.8c0.9,0.5,1.8,0.9,2.6,1.6c1.4,1.2,2.1,1,2.7-0.9c0.7,0.6,1.3,1.3,2.1,1.7
	c0.7,0.4,1.5,0.5,2.5,0.8c0.1-0.9,0.1-1.4,0.2-2c0-0.6,0.1-1.2,0.1-2c2.5,0.2,3.9,3.5,7.2,2.2c-1.4-1.1-2.7-2.1-3.9-3.1
	c0.2-0.2,0.3-0.4,0.5-0.6c2,0.9,4,1.8,6.1,2.7c0.1-0.2,0.2-0.4,0.4-0.5c-0.3-0.5-0.7-1-1.2-1.7c1.2-0.5,2.4-0.9,3.7-1.4
	c-0.4-0.5-0.7-0.9-1.1-1.4c1.9-0.3,4,0.6,5.2-1.9c-0.6-0.3-1-0.6-1.5-0.8c-1.6-0.6-3.5,0.3-4.9-1.5c-0.4-0.5-2.4,0.3-3.6,0.7
	c-0.9,0.3-1.8,0.8-2.6,1.2c-0.7-1.3-1.3-2.4-2-3.6c-0.8,0.3-1.7,0.5-2.5,0.8c-0.2-0.7-0.3-1.3-0.5-2.2c-3.3,2.5-6.5,4.9-10.6,2.5
	c0.4-0.9,0.7-1.7,1.1-2.4c-0.8-0.2-1.7-0.7-2.5-0.6c-4.3,0.8-6.4-2.8-5.9-7.5c0.2,2.6,0.7,5,3.4,6.6c0.6-1,1.1-1.9,1.6-2.8
	c1,1.8,2.1,3.4,4.8,3c-0.2-0.9-0.4-1.6-0.6-2.4c0.5-0.4,1-0.8,1.4-1c1.6,1.6,3.1,3.1,4.9,4.9c0.5-1,0.9-1.4,0.9-1.9
	c0.3-1.6,0.7-2.2,2.3-1.1c1.2,0.9,5.1-0.6,7.2-2.7c-3.3-1.6-6.4-3.2-9.6-4.8c0.2-0.4,0.4-0.9,0.7-1.5c-2.6-2.4-4.7,1.1-7.1,0.6
	c0.3-1.4,3.5-0.4,2.1-2.8c1.3-0.7,2.5-1.4,3.7-2.1c0-0.2-0.1-0.5-0.1-0.7c-1.9-0.4-3.8-0.7-5.8-1.1c0.7-2.8,0.7-2.8,3.4-1.4
	c1.8-1.2,3.4-2.3,5.7-3.9c-1.8-0.7-3.2-1.2-5-1.9c1.4-1.5,2.7-2.9,4.5-4.8c-1.7-0.3-3-0.5-4.5-0.8c0.6-0.9,1.3-1.7,1.8-2.6
	c0.3-0.6,0.1-1.4,0.1-2c-0.6,0.2-1.4,0.2-1.8,0.6c-0.9,0.9-1.6,2-2.4,3c-1.1-0.9-1.8-1.5-2.8-2.3c-3,4.1-3.9,10-9.6,11.4
	c-0.4-2.9-0.9-5.7-1.2-8.6c-0.2-2,0.5-3.4,3-3.3c0.1,0.7,0.2,1.4,0.3,2.1c2.1-0.6,4.2-1.2,6.3-1.9c-0.9-2.6-3.2-3.5-5.6-4.4
	c2.7-0.9,5.6,1.1,8.4-0.7c-1.6-1-2.9-1.8-4.3-2.6c1.2-1,2.3-2,3.4-3c-0.2-0.3-0.3-0.5-0.5-0.8c-2,0.8-3.9,1.6-5.9,2.4
	c0-0.5-0.1-1.1-0.1-1.7c-0.2-0.1-0.4-0.2-0.6-0.3c-1.4,2.2-2.9,4.5-4.3,6.7c-0.2-0.1-0.4-0.2-0.6-0.4c-0.2-2.5,0.4-4.8,2.1-6.9
	c1.2-1.4,2.3-2.8,3.3-4.3c0.3-0.4,0.2-1.1,0.2-1.6c-0.6,0-1.2-0.2-1.7,0.1c-1.2,0.7-2.4,1.5-3.5,2.2c-0.7-1.9,0.9-5.4-1.8-7.6
	c-0.3,0-0.6,0-0.9,0c0,3.4,0,6.7,0,10.7c-1.9-1.8-3.4-3.2-5.2-4.9c-0.8,2.7,0.6,4.1,1.9,5.3c2.4,2.4,2.9,5.2,2.7,8.3
	c0,0.2-0.1,0.4-0.1,0.7c0,0.1-0.1,0.1-0.6,0.4c-1-2.9-2-5.6-3-8.4c-0.3,0-0.5,0.1-0.8,0.1c-0.4,0.8-0.7,1.7-1.2,2.8
	c-0.8-0.6-1.7-1.3-2.6-1.7c-0.6-0.3-1.4-0.1-2-0.2c0,0.6-0.2,1.4,0.1,1.9c0.8,1.2,1.8,2.2,2.6,3.4c0.3,0.5,0.2,1.4,0,2
	c-0.2,0.7-0.6,1.4-1,2.1c0.9,0.1,1.8,0.3,2.8,0.4c0.2,0,0.5-0.3,1-0.7c0.1,1.2,0.1,2.2,0.2,3.5c-1.5-0.7-2.7-1.2-4.1-1.8
	c-1,2.7,1.6,3.5,2.5,5.1c-0.5,0.1-1.1,0-1.3,0.3c-1.5,2.3-2.9,0.9-4.3,0c-1.9-1.1-3.9-2.2-6-3.4c-1,3,1,3.8,2.8,5.2
	c-0.6,0.1-1.1,0.1-1.4,0.3c-0.6,0.4-1.1,0.8-1.7,1.3c0.6,0.3,1.3,0.7,1.9,1c0.6,0.3,1.4,0.6,1.8,1.1c0.6,0.8,1,1.8,1.6,2.8
	c-0.8,0.2-1.9,0.2-2.8,0.6c-0.6,0.3-1,1-1.5,1.6c0.7,0.5,1.5,1.5,2.1,1.3c1.7-0.4,3.2-0.7,4.6,0.8c0.2,0.2,1.2-0.1,1.8-0.3
	c0.7-0.3,1.4-0.6,2.4-0.5c-0.7,0.8-1.4,1.5-2.1,2.3c0.1,0.2,0.1,0.4,0.2,0.7c1.2-0.2,2.4-0.3,3.7-0.5c0,0.5,0,1.2,0,2.7
	c1.8-0.9,3.2-1.5,4.8-2.3c0.2,0.6,0.5,1.6,0.9,2.9c-4.6,0.6-8.7,1.8-12.7-1.1c-1.3-0.9-2.7-2-4.9-0.8c1,0.9,1.8,1.7,2.6,2.4
	c-0.1,0.2-0.2,0.4-0.3,0.6c-2.7-1.5-5.4-3.1-8.2-4.5c-0.8-0.4-1.8-0.5-2.7-0.7c-0.1,0.7-0.3,1.5-0.4,2.4c-1.9,0.3-4.1,0.7-6.8,1.2
	c2.9,3.2,6,2.9,9.5,2.6c-0.8,0.6-1.3,0.9-1.6,1.3c-0.4,0.6-0.6,1.2-0.8,1.9c0.6,0.2,1.3,0.6,1.8,0.4c0.9-0.3,1.7-0.9,2.5-1.4
	c0.8-0.5,1.5-1,2.3-1.5c0.1,0.1,0.2,0.3,0.3,0.4c-0.9,0.6-1.8,1.3-2.6,1.8c0,0.4,0,0.6,0.1,0.7c0.7,0.9,1.5,2.7,2,2.6
	c1.9-0.5,3.7-1.4,5.5-2.3c0.6-0.3,1-0.8,1.6-1.2c0.1,0.2,0.3,0.3,0.4,0.5c-0.9,0.7-1.8,1.2-2.6,2c-0.6,0.6-0.9,1.4-1.4,2.2
	c0.9,0,1.8-0.1,2.7-0.2c0.2,0,0.4-0.3,0.7-0.5c0.1,0.7,0.2,1.2,0.4,2.3c1.1-1.1,1.9-2,2.7-2.9c3.4,0.7,8.1-1.5,9.6-4.6
	c0.2,0.1,0.4,0.1,0.6,0.2c-0.4,0.9-0.5,2.2-1.2,2.6c-3.3,2.3-6.6,4.4-10,6.5c-0.5,0.3-1.4,0-2.1-0.3c-1.9-0.8-3.8-1.7-5.7-2.5
	c-0.2,0.1-0.3,0.3-0.5,0.4c0.3,0.7,0.6,1.5,1,2.6c-2.2-0.6-4.1-1.1-6.3-1.7c-0.1,0.6-0.3,1.2-0.4,1.7c-2,1.1-5.2-2.1-6.4,2.2
	c0.9,0.1,1.5,0.1,2.3,0.2c-0.4,0.6-0.8,1.2-1.2,1.9c1.1,0.1,1.9,0.1,2.9,0.2c0.1,0.5,0.3,1,0.5,1.6c0.6,0,1.3,0.1,2.1,0.1
	c0.1,0.6,0.2,1.2,0.2,1.2c1.5,0.4,2.7,0.6,3.8,1.1c0.3,0.2,0,1.4,0,2.8c-2.6-2.5-5-2.1-7.6-0.9c0.9,1.3,2.9,2.5,1.3,4.9
	c-1.7-1-3.5-2.1-5.2-3.1c-0.2,0.2-0.3,0.3-0.5,0.5c0.2,0.8,0.3,1.5,0.6,2.5c-2.3-0.3-4.4-0.6-6.6-0.9c-0.1,0.3-0.2,0.6-0.3,0.9
	c1.6,0.9,3.2,1.8,4.9,2.7c-0.9,1.4,0.1,1.5,1.6,2c2.1,0.6,3.9,1.9,5.9,2.8c0,0.3,0,0.5,0,0.8c0.4-0.6,0.8-1.3,1.3-2
	c2.9,3,5.7,5.7,8.4,8.5c-4.8,1.5-9.7,3.7-14.8-0.4c-0.1,0.9-0.2,1.2-0.2,1.6c0,0.4,0,0.7,0,1c-1.9,1.7-4.5-2.1-6.2,0.8
	c1.2,1.3,2.4,2.6,3.6,3.9c-0.2,0.2-0.3,0.4-0.5,0.6c0.7,0.1,1.5,0.2,2.2,0.2c0.9,2.9,1.1,3,3.9,2c-0.1,3.4,2.7,1.3,4.1,2.1
	c-2,2.1-5.8,2.5-8.3,1c-1-0.6-2.2-1.9-2.9,0.4c-0.1,0.2-0.9,0.2-1.4,0.3c-1.1,0-2.2,0-3.2,0c-0.1,0.2-0.1,0.4-0.2,0.6
	c0.7,0.4,1.4,0.7,2,1.1c0.5,0.3,1.2,0.5,1.5,1c1.5,2.3,1.5,2.3,4.3,1.9c0.1,0.6,0.2,1.3,0.3,1.8c1.4,0.8,2.7,1.5,4,2.1
	c0.6,0.2,1.5,0.2,2-0.1c1.1-0.7,1.9-1.7,2.9-2.5c1.5-1.2,2.5-0.9,3.8,0.8c-1.1,0.1-2.1,0.2-3.7,0.3c0.6,1.4,1.1,2.5,1.5,3.6
	c-1.5,0.7-2.9,1.7-4.5,2.2c-3.2,0.8-6.4,1.4-9.6,1.9c-1.3,0.2-2.7-0.1-3.1,1.9c-0.1,0.5-1.3,0.9-2,1c-1.4,0.2-2.8,0.2-4.6,0.3
	c1.5,2.3,3.6,2.9,6,3.2c-0.5,0.7-0.9,1.3-1.4,2c0.7,0.2,1.4,0.2,1.9,0.5c0.4,0.3,0.6,0.9,0.9,1.4c1.6-0.2,3.2-0.3,5-0.5
	c0.2,0.9,0.3,1.5,0.4,2.2c0.2,0.2,0.5,0.4,0.7,0.6c0.6-0.8,1.1-1.6,1.4-2c1.1,0.5,2.2,1.2,3.3,1.5c2.2,0.5,2.9-1.3,3.7-3.2
	c0.5,0.9,0.8,1.6,1.2,2.5c0.7-0.9,1.2-1.5,1.9-2.4c0.3,0.8,0.6,1.4,1.1,2.6c0.7-1.4,1.1-2.4,1.4-3c1.4,0.2,2.5,0.4,4.5,0.7
	c-4.6,3.2-9.4,4.3-14.5,5c0.9,2.9,3.4,2.1,5.5,3.1c-0.7,0.2-1.3,0.7-2,0.7c-4.7,0.4-9.5,0.7-14.2,1.1c-4.3,0.4-8.6,0.9-13.1,1.5
	c0.9,2.6,3.2,2,5,2.8c-1.3,1-2.4,2-3.3,2.7c2.1,0.8,4,1.7,6.1,2.1c1.1,0.2,2.3-0.7,3.6-1.1c-0.4,0.7-0.8,1.5-1.2,2.3
	c0.1,0.2,0.2,0.4,0.2,0.5c1.1-0.3,2.2-0.7,3.4-1c2.3,2.2,2.3,2.2,5.7,0.2c0.1,0.9,0.3,1.9,0.4,2.9c1.3-0.4,2.6-0.9,3.9-1.3
	c-0.1,0.3-0.2,0.9-0.4,1.8c3.4-0.1,6.5,0.9,9.6,1.9c-7,2.6-13.8,6.3-21.7,2c0,0.2,0,0.5-0.1,0.7c0.4,0.5,0.8,1.1,1.5,1.9
	c-4.7-0.7-9.1-1.3-13.4-2c-0.1,0.2-0.2,0.3-0.3,0.5c1.8,1.1,3.7,2.2,5.5,3.2c-0.2,0.1-0.7,0.1-1.1,0.3c-0.3,0.2-0.7,0.6-0.7,0.9
	c0.1,0.3,0.5,0.8,0.9,0.9c1.1,0.3,2.2,0.4,3.5,0.6c-0.5,0.7-0.8,1.3-1.5,2.2c1.2-0.2,1.9-0.4,2.8-0.6c1.5,2.8,3.6,0.5,5.6,0.7
	c-0.1,0.3-0.3,0.7-0.4,1.2c1,0.6,3.1-0.8,2.8,2c0.9-0.6,1.4-1,2.2-1.5c-0.3,1.1-0.6,1.9-1.1,3.5c2.2-0.8,3.8-1.3,6.1-2.2
	c-1.2,1.3-1.8,2.6-2.8,3.1c-3,1.2-6.1,2.2-9.2,3c-1,0.3-2.2-0.3-3.3-0.6c-1.7-0.4-3.4-0.8-5.1-1.1c-1.3-0.2-2.3,0.1-1,2
	c-2.5-0.4-4.8-0.8-7-1.2c-0.1,0.2-0.2,0.4-0.3,0.6c0.6,0.8,1.2,1.6,1.9,2.6c-2.7-0.2-5.3-1.7-7.9-0.3c-0.1,0.3-0.1,0.5-0.2,0.8
	c2.4,0.8,4.8,1.5,7.1,2.2c-0.6,0.9-1.5,2-2.3,3.1c0.3,0,0.6,0,0.9-0.1c0.6,0.9,1.1,1.9,1.8,2.8c1,1.4,5.2,1.8,6.8,0.5
	c1.5,1,2.5,2.1,1.1,3.8c-2.8,0.5-5.6,1-8.5,1.5c0.5,2.2,1.9,2.5,7,1.5c-1.4,0.8-2.3,1.3-3,1.9c-0.4,0.4-0.6,1.1-0.8,1.6
	c0.5,0.2,1,0.3,1.6,0.5c1.1,0.3,2.2,0.5,3.3,0.8c0,0.3-0.1,0.6-0.2,1.3c1.4-0.4,2.6-0.8,4.3-1.4c-0.6,0.8-0.9,1.2-1.7,2.2
	c1.7-0.3,2.8-0.5,4-0.7c0.3,0.4,0.7,0.8,1.6,1.9c-6.5,0-12.6,0-18.7,0c0,0.2,0,0.5-0.1,0.7c1.1,0.6,2.1,1.2,3.2,1.8
	c-0.1,0.2-0.1,0.4-0.2,0.6c-2.3,0.4-4.5,0.9-6.8,1.3c0,0.3,0.1,0.6,0.1,0.9c2.8,2.3,5.8,0.4,8.8-0.1c-0.8,1.3-1.6,2.6-2.4,3.9
	c0.2,0.2,0.3,0.4,0.5,0.6c1.4-0.4,2.8-0.7,4.4-1.2c0.3,1.2,0.6,2.4,1,4.1c1.7-1,3.2-1.9,5.1-2.9c-0.3,1.4-0.5,2.7-0.8,4
	c0.2,0.1,0.3,0.3,0.5,0.4c2.2-1.8,4.3-3.6,6.4-5.3c-0.4,1.2-0.9,2.4-1.3,3.7c0.2,0.1,0.4,0.3,0.6,0.4c0.9-0.7,1.8-1.3,2.8-2
	c0.5,1.8-0.4,2.6-1.9,2.8c-3.7,0.6-7.4,1.8-11.1,0c-0.9-0.4-2.3-1.1-3,0.9c-0.8,0-1.8-0.1-3.1-0.1c0.1,0.6,0.2,1.2,0.3,1.8
	c-1.9,0.2-3.7,0.3-5.6,0.4c0,0.3,0,0.6,0,0.9c1.1,0.3,2.2,0.6,3.7,1c-2.4,1.4-4.5,2.6-6.6,3.8c0,0.2,0,0.3,0,0.5
	c2.5-0.4,5-0.7,7.4-1.1c-0.6,0.7-1.2,1.6-2.2,2.8c1.3,0,2.1,0,3.1,0c-0.2,0.7-0.4,1.2-0.9,2.4c1.9-0.9,3.2-1.5,4.7-2.3
	c-0.1,0.6-0.1,1.1-0.3,2c1.5-0.3,2.9-0.6,4.4-0.9c0,0.3,0.1,0.9,0.2,1.6c2.3-0.6,4.6-1.2,6.9-1.9c0.1,0.3,0.2,0.5,0.3,0.8
	c-2.9,0.8-5.8,1.6-8.7,2.4c1.7,2.7,3.7,0.6,5.6,1.1c-0.2,0.3-0.5,0.6-0.7,0.8C554.4,666.5,392.4,638.8,375,634
	c-6.5-1.8-16.9-3.3-28.8-4.8c1.6,0,3.2,0,5,0c0-0.6,0.1-1.6,0.1-2.7c0.8,0.3,1.8,0.7,2.7,1c0.4-0.4,0.7-0.9,0.9-0.8
	c0.4,0,0.9,0.3,1.1,0.6c0.6,0.9,0.9,1.9,2.3,1c0.3-0.2,1.3,0.7,2,1.1c0.2-0.3,0.5-0.9,0.6-1.1c0.9,0.2,1.8,0.8,2.3,0.6
	c2.1-0.9-0.3-2.3,0.4-3.7c0.7,0.6,1.5,1.3,2.2,1.9c1.8,1.5,2.2,1.4,3.2-0.6c1.3,0.6,2.5,1.3,3.8,1.9c0.1-0.1,0.2-0.3,0.3-0.4
	c-0.3-0.6-0.6-1.1-1-1.8c0.7-0.2,1.3-0.4,2.4-0.8c-1-0.6-1.7-1.1-2.5-1.5c0.1-0.2,0.3-0.3,0.4-0.5c1.7,0.8,3.5,1.5,5.2,2.3
	c0.2-0.2,0.3-0.5,0.5-0.7c-0.5-0.3-1.1-0.5-1.7-0.9c1.7-0.4,3.1-0.7,4.5-1.1c0-0.2-0.1-0.3-0.1-0.5c-4.3-0.8-8.9-0.8-12.9-3
	c0-0.2,0.1-0.3,0.1-0.5c0.8,0.1,1.6,0.2,2.7,0.3c-0.2-0.6-0.4-0.9-0.6-1.5c1.2,0,2.2,0,3.6,0c-0.5-0.6-0.9-1-1.5-1.7
	c1.5,0,2.7,0,4,0c0-0.2,0.1-0.4,0.1-0.6c-0.7-0.3-1.3-0.6-2.1-0.9c0.7-0.2,1.4-0.4,2-0.6c0.1-0.1,0.2-0.3,0.3-0.4
	c-0.4-0.2-0.9-0.5-1.3-0.7c0-0.1,0.1-0.2,0.1-0.3c1.4,0.1,2.9,0.2,4.3,0.2c0.1-0.2,0.1-0.3,0.2-0.5c-1-0.5-2.1-0.9-3.1-1.4
	c0-0.1,0-0.2,0.1-0.3c1.2-0.1,2.4-0.1,3.6-0.2c0-0.2,0-0.4,0-0.6c-1.9-0.3-3.8-0.7-5.7-1c0-0.1,0-0.2,0-0.3c2.3-0.8,4.5-1.6,6.8-2.4
	c-0.1-0.3-0.1-0.6-0.2-0.9c-2.2,0.4-4.4,0.7-6.7,1.1c0.7-0.8,1.3-1.6,2-2.3c-0.1-0.1-0.2-0.3-0.3-0.4c-1,0.4-2.1,0.6-2.9,1.1
	c-3.5,2.3-7.1,2.2-10.8,0.6c-3.3-1.5-6.6-3.1-9.8-4.8c-0.6-0.3-1.1-0.9-1.5-1.5c1.3,0.5,2.2,2.4,3.9,0.9c0.7,0.6,1.4,1.1,2.3,1.9
	c-0.1-0.9-0.1-1.5-0.2-2.6c1.7,0.9,3.2,1.7,4.9,2.7c-0.1-0.9-0.2-1.6-0.3-2.4c1.4,0.5,2.7,1.1,3.4-0.8c1.2,0.9,2.4,1.8,3.5,2.7
	c0.2-0.1,0.3-0.3,0.5-0.4c-0.6-0.9-1.2-1.9-1.9-2.9c3.4-2,7.1-1.7,10.9-1.3c0-0.3,0.1-0.5,0.1-0.8c-1.4-0.7-2.9-1.4-4.8-2.3
	c2.8,0.3,5.2,1.4,7.7,0c-1.1-1.5-2.7-1-4.2-1.3c0.6-0.4,1.1-0.8,1.7-1.1c0-0.1-0.1-0.2-0.1-0.3c-2.9,0-5.7,0-8.7,0
	c0.1-0.5,0.2-1,0.4-2c-3.7,1.2-7.2,1.4-10.6,0.1c-3.2-1.2-6.8-1.8-9.9-4.3c2.2-0.8,3.7-0.3,5.4,0.2c2.1,0.6,4.4,0.6,6.6,0.7
	c0.3,0,0.7-0.3,1.1-0.5c0.4,0.3,0.9,0.6,1.4,1c0.2-0.4,0.4-0.7,0.6-1.2c2.1,2.1,3.5-0.1,5.3-0.8c-0.3-0.4-0.6-0.7-0.6-0.7
	c0.9-0.3,1.9-0.6,2.8-0.9c2.1-0.6,4.2-1.2,6.3-1.8c0.4-0.1,0.8-0.3,1.5-0.6c-0.9-0.3-1.5-0.6-2-0.8c-0.3-0.8-0.5-1.5-0.8-2.3
	c1.4-0.6,2.8-1.2,4.3-1.8c0-0.1-0.1-0.2-0.1-0.3c-3.4,0.2-6.7,0.3-10.4,0.5c0.3-0.6,0.5-0.9,0.8-1.4c-3.5-0.5-7.2,0-10.7-2.1
	c1.5-0.6,2.7-1.4,3.9-1.4c1.3,0,2.5,0.7,3.8,1.1c0.1-0.2,0.2-0.4,0.4-0.5c-0.6-0.4-1.1-0.8-2.1-1.5c1.7-0.1,2.8-0.2,4.6-0.3
	c-1.1-0.6-1.8-1-2.3-1.2c1.6-1,3.4-2,5.1-3.1c0.4-0.3,0.5-0.9,0.8-1.4c-0.5-0.1-1-0.4-1.5-0.3c-1.6,0.3-3.1,0.8-4.9,1.2
	c0.1-0.8,0.1-1.2,0.2-2.2c-4.9,2.4-9.1,0.9-13.3-1.4c1.6,0.2,3-1.5,4.9-0.2c0.9,0.6,2.5,0.1,4.3,0.1c-0.6-1-0.9-1.3-1.3-1.9
	c0.8,0.3,1.4,0.5,2,0.7c0.5-1.5,3.5-2.1,1.4-4.4c0.6-0.8,1.3-1.6,1.9-2.3c-0.1-0.1-0.2-0.3-0.2-0.4c-1.8,0.5-3.6,1.1-5.5,1.5
	c-1.4,0.3-2.8,0.5-4.2,0.5c-1.4,0-2.3-0.8-3-2.5c1.7,0.3,3,0.5,4.3,0.7c0.1-0.1,0.2-0.2,0.2-0.4c-0.6-0.7-1.2-1.4-1.7-2
	c0.9-0.3,1.7-0.6,2.6-0.8c-0.2-0.2-0.4-0.5-0.8-0.9c0.5-0.4,1.1-0.8,1.7-1.3c-2.8,0.1-5.2,0.3-7.7,0.3c-2.5,0-5.1,0.3-7.4-1
	c0.4-0.7,0.8-1.3,1.3-2c2.2,2.6,4.4,0.1,7.3-0.1c-1.2-1.1-2.1-1.9-3.1-2.9c1.9,0.2,3.5,0.3,5.3,0.5c-0.4-1.8,0.6-2.1,1.8-2.6
	c1.3-0.5,2.3-1.6,3.7-2.5c-3.1-2.2-6-3.4-9.5-1.8c0-0.1-0.1-0.3-0.1-0.4c0.6-0.5,1.3-1.1,1.9-1.6c-0.1-0.1-0.1-0.3-0.2-0.4
	c-0.7,0.2-1.4,0.3-2.3,0.5c0.3-0.7,0.4-1.1,0.6-1.6c-2.5,1.7-5.1,2.8-8.1,2.1c-2.7-0.6-5.7-0.8-6.4-4.6c1.6,2.2,3.9,0.9,5.8,1.8
	c0.2-0.6,0.3-1,0.5-1.7c0.7,0.4,1.3,0.7,1.9,1.1c1.1,0.6,1.7,0.5,1.5-1.1c2,0,3.9,0,6.1,0c-0.4-0.8-0.6-1.3-0.8-1.7
	c0.2-0.8,2.5-0.3,1.4-2.1c1.4-1,2.8-2,4.5-3.2c-2-0.6-3.7-1-5.5-1.6c0-0.1,0.1-0.5,0.3-1.1c-2.3,0.5-4.3,1-6.5,1.5
	c0.2-1.2,0.4-2.1,0.6-3.5c-6.7,4.3-11.4,0.2-16.4-2.2c0-0.2,0.1-0.4,0.1-0.7c1.8,0.4,3.6,0.8,5.5,1.2c0.1-0.4,0.1-0.9,0.2-1.4
	c1.3,0.1,2.3,2.6,3.6,0.8c1,0.4,2.2,1.4,3,1.1c1.1-0.3,2.4-1.2,1.8-3c0.9,0.2,1.6,0.3,2.3,0.5c0.1-0.7,0.2-1.3,0.2-1.9
	c0.2,0,0.3,0,0.5,0c-0.3-0.5-0.6-1-0.8-1.5c0.1-0.1,0.2-0.2,0.2-0.3c0.6,0.4,1.1,0.9,1.7,1.2c0.6,0.2,1.3,0.1,2.2,0.2
	c-0.1-0.7-0.2-1.2-0.3-1.6c1.3-0.7,2.6-1.3,3.8-1.9c0-0.2-0.1-0.3-0.1-0.5c-1.4,0-2.7,0-4.3,0c0.3-0.6,0.5-1,0.9-1.9
	c-1.7,0.9-2.9,1.6-4.1,2.2c-0.3-0.5-0.6-1-1-1.6c0.1-0.2,0.4-0.7,0.7-1.1c-0.1-0.1-0.2-0.2-0.2-0.3c-0.8,0.5-1.7,1-2.4,1.7
	c-1.6,1.5-3.3,1.9-5.3,1.1c-1.8-0.8-3.7-1.5-5.4-2.4c-0.7-0.4-1.2-1.2-1.8-1.8c0.2-0.2,0.3-0.4,0.5-0.6c0.7,0.4,1.4,0.7,1.9,1.2
	c1.1,0.9,1.6,0.8,2.1-0.7c0.5,0.4,1,1,1.6,1.3c0.5,0.3,1.1,0.4,1.9,0.6c0.1-0.6,0.1-1.1,0.1-1.5c0-0.4,0-0.9,0.1-1.5
	c1.9,0.1,2.9,2.6,5.4,1.7c-1.1-0.9-2-1.6-3-2.3c0.1-0.2,0.2-0.3,0.4-0.5c1.5,0.7,3.1,1.4,4.6,2c0.1-0.1,0.2-0.3,0.3-0.4
	c-0.3-0.4-0.5-0.7-0.9-1.3c0.9-0.3,1.8-0.7,2.8-1c-0.3-0.3-0.5-0.7-0.8-1c1.4-0.2,3,0.4,3.9-1.5c-0.4-0.2-0.8-0.5-1.2-0.6
	c-1.2-0.4-2.6,0.2-3.7-1.1c-0.3-0.3-1.8,0.3-2.7,0.5c-0.7,0.2-1.3,0.6-2,0.9c-0.5-1-1-1.8-1.5-2.7c-0.6,0.2-1.2,0.4-1.9,0.6
	c-0.1-0.5-0.2-1-0.4-1.7c-2.5,1.9-4.9,3.7-8,1.9c0.3-0.7,0.5-1.2,0.8-1.8c-0.6-0.2-1.3-0.5-1.9-0.4c-3.2,0.6-4.8-2.1-4.4-5.7
	c0.1,2,0.6,3.8,2.6,5c0.4-0.7,0.8-1.4,1.2-2.1c0.7,1.3,1.6,2.6,3.7,2.3c-0.2-0.7-0.3-1.2-0.5-1.8c0.4-0.3,0.8-0.6,1-0.8
	c1.2,1.2,2.3,2.4,3.7,3.7c0.4-0.7,0.7-1.1,0.7-1.4c0.2-1.2,0.5-1.7,1.7-0.8c0.9,0.6,3.9-0.4,5.5-2c-2.5-1.2-4.8-2.4-7.3-3.6
	c0.1-0.3,0.3-0.7,0.5-1.1c-2-1.8-3.5,0.8-5.4,0.4c0.3-1,2.6-0.3,1.6-2.1c0.9-0.5,1.9-1.1,2.8-1.6c0-0.2-0.1-0.4-0.1-0.5
	c-1.4-0.3-2.9-0.5-4.3-0.8c0.5-2.1,0.5-2.1,2.6-1c1.3-0.9,2.6-1.8,4.3-2.9c-1.4-0.5-2.4-0.9-3.8-1.5c1.1-1.1,2.1-2.2,3.4-3.6
	c-1.3-0.2-2.2-0.4-3.4-0.6c0.5-0.7,1-1.2,1.3-1.9c0.2-0.4,0.1-1,0.1-1.5c-0.5,0.1-1,0.1-1.3,0.4c-0.7,0.7-1.2,1.5-1.8,2.3
	c-0.9-0.7-1.4-1.1-2.1-1.7c-2.2,3.1-2.9,7.5-7.3,8.6c-0.3-2.2-0.7-4.3-0.9-6.5c-0.2-1.5,0.4-2.6,2.3-2.5c0.1,0.5,0.1,1,0.2,1.6
	c1.6-0.5,3.1-0.9,4.8-1.4c-0.7-2-2.4-2.6-4.2-3.3c2-0.7,4.2,0.8,6.4-0.6c-1.2-0.7-2.2-1.3-3.2-2c0.9-0.8,1.7-1.5,2.6-2.3
	c-0.1-0.2-0.2-0.4-0.3-0.6c-1.5,0.6-2.9,1.2-4.5,1.8c0-0.3-0.1-0.8-0.1-1.3c-0.1-0.1-0.3-0.2-0.4-0.2c-1.1,1.7-2.2,3.4-3.2,5.1
	c-0.2-0.1-0.3-0.2-0.5-0.3c-0.1-1.9,0.3-3.6,1.6-5.2c0.9-1,1.7-2.1,2.5-3.3c0.2-0.3,0.1-0.8,0.2-1.2c-0.4,0-0.9-0.1-1.3,0.1
	c-0.9,0.5-1.8,1.1-2.7,1.7c-0.5-1.4,0.7-4.1-1.3-5.8c-0.2,0-0.5,0-0.7,0c0,2.5,0,5.1,0,8.1c-1.4-1.4-2.5-2.4-3.9-3.7
	c-0.6,2,0.5,3.1,1.4,4c1.8,1.8,2.2,3.9,2,6.3c0,0.2-0.1,0.3-0.1,0.5c0,0-0.1,0.1-0.4,0.3c-0.8-2.2-1.5-4.3-2.2-6.3
	c-0.2,0-0.4,0-0.6,0.1c-0.3,0.6-0.5,1.3-0.9,2.1c-0.6-0.4-1.3-0.9-2-1.3c-0.4-0.2-1-0.1-1.5-0.1c0,0.5-0.1,1.1,0.1,1.4
	c0.6,0.9,1.4,1.7,1.9,2.6c0.2,0.4,0.1,1,0,1.5c-0.1,0.5-0.5,1-0.7,1.5c0.7,0.1,1.4,0.2,2.1,0.3c0.2,0,0.4-0.2,0.8-0.5
	c0.1,0.9,0.1,1.7,0.2,2.6c-1.2-0.5-2.1-0.9-3.1-1.4c-0.8,2.1,1.2,2.6,1.9,3.8c-0.3,0.1-0.8,0-0.9,0.2c-1.1,1.7-2.2,0.6-3.2,0
	c-1.4-0.8-2.9-1.7-4.5-2.6c-0.7,2.3,0.8,2.9,2.1,3.9c-0.5,0.1-0.8,0.1-1,0.3c-0.4,0.3-0.8,0.6-1.3,1c0.5,0.3,0.9,0.5,1.4,0.8
	c0.5,0.3,1,0.4,1.4,0.8c0.5,0.6,0.8,1.4,1.2,2.1c-0.6,0.1-1.4,0.2-2.1,0.5c-0.5,0.2-0.8,0.8-1.1,1.2c0.5,0.4,1.1,1.1,1.6,1
	c1.3-0.3,2.4-0.5,3.4,0.6c0.2,0.2,0.9-0.1,1.3-0.3c0.5-0.2,1-0.5,1.8-0.4c-0.3,0.3-0.6,0.7-0.9,1c-3.9,0.2-7.9,0.4-12,0.6
	c-0.3-0.1-0.6-0.1-0.9-0.2c0.6-1.1,1-1.7,1.6-2.8c-7.6-1.1-15.4-0.1-22.8-4.5c3.2-1.2,5.7-2.9,8.3-3c2.7,0,5.4,1.5,8.1,2.4
	c0.3-0.4,0.5-0.8,0.8-1.1c-1.2-0.9-2.4-1.7-4.5-3.2c3.5-0.2,6-0.4,9.7-0.6c-2.4-1.3-3.9-2.1-4.8-2.6c3.5-2.1,7.3-4.3,11-6.7
	c0.8-0.6,1.1-2,1.7-3c-1.1-0.3-2.2-0.9-3.2-0.7c-3.4,0.7-6.7,1.6-10.4,2.6c0.2-1.6,0.3-2.6,0.5-4.6c-10.4,5.2-19.5,2-28.3-3
	c3.5,0.5,6.5-3.3,10.5-0.4c1.8,1.3,5.4,0.2,9.2,0.2c-1.3-2-1.8-2.8-2.7-4.1c1.8,0.6,3,1,4.2,1.5c1-3.2,7.4-4.5,3-9.4
	c1.4-1.7,2.7-3.3,4-4.9c-0.2-0.3-0.4-0.6-0.5-0.8c-3.9,1.1-7.8,2.3-11.7,3.1c-2.9,0.6-6,1-9,1.1c-2.9,0-4.8-1.7-6.4-5.3
	c3.5,0.6,6.3,1.1,9.1,1.5c0.2-0.3,0.3-0.5,0.5-0.8c-1.2-1.5-2.5-2.9-3.7-4.3c1.8-0.6,3.7-1.2,5.6-1.8c-0.4-0.5-0.9-1-1.7-1.9
	c1-0.8,2.2-1.7,3.7-2.7c-5.9,0.3-11.2,0.7-16.4,0.7c-5.4,0-10.9,0.6-15.7-2.1c0.9-1.4,1.8-2.7,2.8-4.2c4.7,5.6,9.4,0.2,15.5-0.2
	c-2.6-2.4-4.4-4.1-6.7-6.1c4,0.4,7.5,0.7,11.3,1.1c-0.8-3.8,1.2-4.5,3.9-5.6c2.7-1,4.9-3.3,7.8-5.4c-6.6-4.7-12.8-7.3-20.3-3.8
	c-0.1-0.3-0.1-0.6-0.2-0.9c1.4-1.1,2.7-2.3,4.1-3.4c-0.2-0.3-0.3-0.5-0.5-0.8c-1.5,0.3-3,0.7-4.9,1.1c0.6-1.4,1-2.4,1.4-3.4
	c-5.4,3.7-10.8,5.9-17.3,4.5c-5.9-1.2-12.2-1.6-13.7-9.9c3.4,4.7,8.3,1.9,12.3,3.8c0.4-1.3,0.7-2.2,1.1-3.5c1.4,0.8,2.8,1.6,4.1,2.3
	c2.3,1.4,3.6,1,3.2-2.3c4.2,0,8.3,0,13,0c-0.9-1.8-1.4-2.7-1.8-3.6c0.5-1.8,5.3-0.6,3-4.4c2.9-2.1,6-4.3,9.6-6.9
	c-4.3-1.2-7.9-2.2-11.7-3.3c0.1-0.2,0.3-1.1,0.6-2.4c-4.8,1.1-9.3,2.2-13.8,3.2c0.4-2.5,0.8-4.4,1.3-7.4c-14.2,9.1-24.3,0.4-35-4.8
	c0.1-0.5,0.2-0.9,0.3-1.4c3.9,0.9,7.8,1.7,11.8,2.7c0.1-0.8,0.3-1.9,0.5-3c2.8,0.2,4.9,5.6,7.7,1.6c2.2,0.9,4.6,2.9,6.3,2.4
	c2.3-0.6,5.1-2.5,3.8-6.4c1.9,0.4,3.3,0.7,4.8,1c0.2-1.4,0.3-2.7,0.5-4c0.3,0,0.7-0.1,1-0.1c-0.6-1.1-1.2-2.2-1.8-3.3
	c0.2-0.2,0.3-0.4,0.5-0.6c1.2,0.9,2.3,2,3.6,2.5c1.3,0.5,2.8,0.3,4.6,0.4c-0.3-1.5-0.5-2.6-0.7-3.5c2.8-1.4,5.5-2.7,8.1-4
	c-0.1-0.4-0.2-0.7-0.3-1.1c-2.9,0-5.8,0-9.2,0c0.7-1.4,1.1-2.2,1.9-3.9c-3.6,1.9-6.2,3.3-8.7,4.7c-0.7-1.1-1.3-2-2.2-3.4
	c0.3-0.4,0.9-1.4,1.5-2.4c-0.2-0.2-0.3-0.4-0.5-0.7c-1.7,1.2-3.7,2.1-5.1,3.5c-3.3,3.3-7,4.1-11.3,2.3c-3.9-1.6-7.9-3.1-11.6-5
	c-1.5-0.8-2.6-2.5-3.8-3.9c0.3-0.4,0.7-0.8,1-1.3c1.4,0.8,2.9,1.5,4.1,2.5c2.3,1.9,3.5,1.7,4.4-1.4c1.1,1,2.1,2.1,3.3,2.8
	c1.1,0.6,2.4,0.8,4,1.3c0.1-1.4,0.2-2.3,0.3-3.2c0.1-1,0.1-1.9,0.2-3.2c4.1,0.3,6.2,5.6,11.5,3.6c-2.3-1.8-4.3-3.4-6.3-5
	c0.3-0.3,0.5-0.7,0.8-1c3.3,1.5,6.5,2.9,9.8,4.4c0.2-0.3,0.4-0.6,0.6-0.9c-0.5-0.8-1.1-1.6-1.9-2.8c2-0.7,3.8-1.4,5.9-2.2
	c-0.6-0.7-1.1-1.4-1.8-2.2c3-0.4,6.4,0.9,8.3-3.1c-0.9-0.5-1.6-1-2.5-1.3c-2.5-1-5.6,0.4-7.9-2.4c-0.6-0.7-3.8,0.5-5.8,1.1
	c-1.5,0.4-2.8,1.2-4.3,1.9c-1.1-2.1-2.1-3.9-3.2-5.8c-1.3,0.4-2.7,0.8-4.1,1.3c-0.3-1.2-0.5-2.1-0.9-3.5c-5.4,4.1-10.5,7.9-17,4.1
	c0.6-1.4,1.2-2.7,1.7-3.9c-1.3-0.3-2.8-1.1-4-0.9c-6.9,1.3-10.3-4.5-9.4-12.1c0.3,4.2,1.2,8.1,5.5,10.6c0.9-1.6,1.8-3,2.6-4.5
	c1.6,2.8,3.4,5.5,7.8,4.8c-0.4-1.4-0.7-2.6-1-3.9c0.8-0.6,1.7-1.2,2.2-1.6c2.5,2.6,5,5.1,7.8,7.9c0.8-1.6,1.4-2.3,1.5-3
	c0.4-2.5,1.1-3.6,3.7-1.7c1.9,1.4,8.2-0.9,11.6-4.3c-5.3-2.6-10.3-5.1-15.5-7.6c0.3-0.6,0.7-1.5,1.1-2.4c-4.2-3.9-7.5,1.8-11.4,0.9
	c0.6-2.2,5.6-0.7,3.4-4.4c2-1.2,4-2.3,6-3.4c-0.1-0.4-0.2-0.8-0.2-1.1c-3.1-0.6-6.2-1.1-9.3-1.7c1.1-4.4,1.1-4.4,5.4-2.2
	c2.9-1.9,5.5-3.7,9.1-6.2c-2.9-1.1-5.2-2-8.1-3.1c2.2-2.4,4.4-4.7,7.2-7.7c-2.7-0.5-4.7-0.8-7.2-1.3c1-1.4,2.2-2.7,2.8-4.1
	c0.4-0.9,0.1-2.2,0.2-3.3c-1,0.3-2.2,0.3-2.8,0.9c-1.4,1.4-2.6,3.2-3.9,4.9c-1.8-1.5-2.9-2.4-4.5-3.6c-4.8,6.6-6.3,16-15.5,18.3
	c-0.7-4.7-1.5-9.2-2-13.9c-0.3-3.2,0.9-5.5,4.9-5.3c0.1,1.1,0.3,2.2,0.5,3.4c3.4-1,6.7-2,10.2-3c-1.5-4.2-5.2-5.6-9-7
	c4.3-1.4,8.9,1.8,13.6-1.2c-2.5-1.5-4.6-2.8-6.8-4.2c1.9-1.7,3.6-3.3,5.4-4.9c-0.2-0.4-0.5-0.8-0.7-1.2c-3.1,1.3-6.3,2.6-9.5,3.9
	c0-0.7-0.1-1.8-0.2-2.8c-0.3-0.2-0.6-0.3-0.9-0.5c-2.3,3.6-4.6,7.2-6.9,10.8c-0.3-0.2-0.7-0.4-1-0.6c-0.3-4.1,0.6-7.8,3.3-11
	c1.9-2.2,3.6-4.5,5.3-7c0.4-0.7,0.2-1.7,0.3-2.6c-0.9,0-2-0.3-2.7,0.1c-2,1.1-3.9,2.4-5.7,3.6c-1.2-3,1.4-8.6-2.9-12.3
	c-0.5,0-1,0-1.5,0c0,5.4,0,10.8,0,17.2c-3.1-2.9-5.4-5.2-8.3-7.9c-1.2,4.3,1,6.7,3,8.6c3.9,3.8,4.6,8.3,4.4,13.3
	c0,0.4-0.1,0.7-0.2,1.1c0,0.1-0.2,0.1-1,0.7c-1.6-4.6-3.2-9.1-4.8-13.5c-0.4,0-0.8,0.1-1.3,0.1c-0.6,1.3-1.1,2.7-1.9,4.6
	c-1.3-0.9-2.7-2-4.2-2.7c-0.9-0.4-2.2-0.2-3.3-0.3c0,1-0.3,2.2,0.2,3c1.2,1.9,2.9,3.6,4.1,5.5c0.5,0.8,0.3,2.2,0,3.3
	c-0.3,1.2-1,2.2-1.6,3.3c1.5,0.2,2.9,0.5,4.4,0.6c0.4,0,0.8-0.5,1.6-1c0.1,2,0.2,3.5,0.3,5.6c-2.5-1.1-4.4-1.9-6.7-2.9
	c-1.7,4.4,2.5,5.5,4.1,8.1c-0.7,0.1-1.8,0-2,0.4c-2.4,3.6-4.6,1.4-6.9,0c-3.1-1.8-6.2-3.5-9.6-5.5c-1.6,4.8,1.6,6.2,4.5,8.3
	c-1,0.2-1.7,0.2-2.2,0.5c-0.9,0.6-1.8,1.4-2.7,2.1c1,0.5,2,1.1,3,1.6c1,0.6,2.2,0.9,2.9,1.7c1,1.3,1.6,2.9,2.5,4.5
	c-1.4,0.3-3.1,0.3-4.5,1c-1,0.4-1.6,1.7-2.4,2.5c1.1,0.8,2.4,2.4,3.4,2.1c2.7-0.6,5.1-1.1,7.3,1.3c0.4,0.4,1.9-0.2,2.9-0.5
	c1.1-0.4,2.2-1,3.8-0.8c-1.1,1.2-2.2,2.5-3.3,3.7c0.1,0.4,0.2,0.7,0.3,1.1c2-0.3,3.9-0.5,5.9-0.8c0,0.8,0,1.9,0,4.3
	c2.9-1.4,5.2-2.5,7.8-3.7c0.3,1,0.8,2.6,1.5,4.7c-7.3,1-14,2.8-20.5-1.7c-2-1.4-4.4-3.2-7.8-1.3c1.6,1.5,2.9,2.7,4.2,3.9
	c-0.2,0.3-0.4,0.6-0.5,1c-4.4-2.4-8.7-4.9-13.1-7.2c-1.3-0.7-2.9-0.7-4.3-1.1c-0.2,1.2-0.4,2.4-0.7,3.9c-3.1,0.5-6.6,1.1-11,1.9
	c4.7,5.1,9.7,4.7,15.3,4.1c-1.2,1-2.1,1.4-2.6,2.1c-0.6,0.9-0.9,2-1.3,3c1,0.3,2.1,0.9,2.9,0.7c1.4-0.4,2.7-1.4,4.1-2.2
	c1.3-0.8,2.5-1.7,3.7-2.5c0.2,0.2,0.4,0.5,0.5,0.7c-1.4,1-2.9,2-4.2,2.9c0.1,0.6,0,0.9,0.1,1.1c1.1,1.5,2.5,4.3,3.2,4.2
	c3.1-0.7,6-2.3,8.9-3.6c0.9-0.4,1.7-1.2,2.5-1.9c0.2,0.3,0.4,0.5,0.6,0.8c-1.4,1-2.9,2-4.1,3.2c-0.9,1-1.5,2.3-2.2,3.5
	c1.4-0.1,2.9-0.1,4.3-0.2c0.3,0,0.6-0.4,1.1-0.8c0.2,1.1,0.4,2,0.7,3.7c1.7-1.8,3-3.2,4.4-4.6c5.5,1.1,13.1-2.4,15.4-7.4
	c0.3,0.1,0.6,0.2,0.9,0.3c-0.6,1.4-0.8,3.5-1.9,4.2c-5.2,3.7-10.7,7.1-16.1,10.4c-0.8,0.5-2.3,0-3.3-0.4c-3.1-1.3-6.1-2.7-9.2-4.1
	c-0.3,0.2-0.5,0.5-0.8,0.7c0.5,1.2,0.9,2.4,1.6,4.2c-3.5-1-6.7-1.8-10.1-2.8c-0.2,1-0.5,1.9-0.7,2.7c-3.2,1.7-8.4-3.4-10.3,3.5
	c1.5,0.1,2.5,0.2,3.7,0.3c-0.7,1-1.2,1.9-2,3.1c1.7,0.1,3,0.2,4.6,0.3c0.2,0.8,0.4,1.6,0.7,2.7c1,0.1,2,0.1,3.3,0.2
	c0.1,0.9,0.3,1.9,0.3,1.9c2.3,0.6,4.4,0.9,6,1.8c0.5,0.3,0.1,2.2,0.1,4.5c-4.1-4.1-8-3.3-12.2-1.4c1.4,2.1,4.6,4.1,2.1,7.8
	c-2.7-1.6-5.5-3.3-8.4-5c-0.2,0.3-0.5,0.5-0.7,0.8c0.3,1.2,0.5,2.4,0.9,4.1c-3.7-0.5-7.1-1-10.6-1.5c-0.2,0.5-0.4,1-0.5,1.5
	c2.6,1.4,5.2,2.8,7.9,4.4c-1.4,2.3,0.1,2.5,2.6,3.2c3.3,0.9,6.3,3,9.5,4.6c0,0.4,0,0.8-0.1,1.3c0.7-1,1.3-2,2.1-3.2
	c4.7,4.8,9.1,9.2,13.6,13.7c-7.7,2.4-15.6,5.9-23.8-0.6c-0.2,1.4-0.3,2-0.3,2.6c0,0.6,0,1.2,0,1.7c-3.1,2.8-7.2-3.3-9.9,1.3
	c1.9,2.1,3.9,4.2,5.8,6.3c-0.3,0.3-0.5,0.6-0.8,0.9c1.2,0.1,2.4,0.3,3.5,0.4c1.4,4.6,1.8,4.8,6.3,3.2c-0.2,5.5,4.4,2.1,6.5,3.3
	c-3.2,3.4-9.3,4.1-13.3,1.7c-1.6-1-3.5-3-4.7,0.6c-0.1,0.4-1.5,0.4-2.3,0.4c-1.7,0.1-3.5,0-5.2,0c-0.1,0.3-0.2,0.7-0.3,1
	c1.1,0.6,2.2,1.1,3.2,1.7c0.8,0.5,1.9,0.9,2.3,1.6c2.4,3.7,2.4,3.7,6.9,3c0.2,1,0.4,2.1,0.5,2.8c2.3,1.2,4.3,2.5,6.5,3.3
	c0.9,0.4,2.5,0.4,3.3-0.2c1.7-1.1,3-2.8,4.6-4.1c2.4-1.9,4-1.5,6,1.3c-1.8,0.1-3.4,0.2-5.9,0.4c0.9,2.2,1.7,4.1,2.4,5.8
	c-2.4,1.2-4.7,2.8-7.2,3.5c-5.1,1.3-10.3,2.2-15.5,3.1c-2.1,0.4-4.4-0.1-5,3.1c-0.1,0.8-2.1,1.5-3.3,1.7c-2.2,0.4-4.5,0.3-7.4,0.5
	c2.4,3.8,5.8,4.6,9.7,5.2c-0.8,1.2-1.4,2-2.2,3.3c1.2,0.3,2.3,0.3,3.1,0.8c0.7,0.4,1,1.4,1.5,2.2c2.5-0.3,5.2-0.5,8-0.8
	c0.3,1.4,0.5,2.5,0.7,3.6c0.4,0.3,0.8,0.7,1.2,1c0.9-1.3,1.8-2.6,2.3-3.2c1.8,0.8,3.5,2,5.4,2.4c3.6,0.8,4.7-2.1,6-5.1
	c0.7,1.5,1.3,2.6,2,4c1.1-1.4,2-2.5,3.1-3.8c0.5,1.2,1,2.3,1.7,4.2c1.1-2.3,1.8-3.8,2.3-4.8c2.2,0.3,4.1,0.6,7.2,1.1
	c-7.4,5.1-15.1,6.9-23.3,8c1.4,4.6,5.5,3.5,8.8,4.9c-1.1,0.4-2.1,1.1-3.2,1.2c-7.6,0.7-15.2,1.1-22.8,1.8c-6.9,0.6-13.8,1.5-21,2.3
	c1.5,4.1,5.1,3.2,8,4.5c-2.1,1.7-3.9,3.2-5.4,4.4c3.4,1.2,6.5,2.8,9.8,3.4c1.7,0.3,3.8-1.1,5.8-1.8c-0.6,1.1-1.3,2.4-2,3.7
	c0.1,0.3,0.3,0.6,0.4,0.8c1.8-0.5,3.5-1.1,5.4-1.6c3.6,3.5,3.6,3.5,9.1,0.4c0.2,1.5,0.4,3.1,0.6,4.7c2.1-0.7,4.1-1.4,6.2-2.1
	c-0.1,0.5-0.3,1.5-0.6,2.9c5.5-0.1,10.4,1.5,15.5,3.1c-11.2,4.2-22.2,10.1-34.8,3.2c0,0.4-0.1,0.8-0.1,1.2c0.7,0.9,1.3,1.7,2.4,3.1
	c-7.6-1.1-14.6-2.1-21.6-3.1c-0.2,0.3-0.3,0.5-0.5,0.8c2.9,1.7,5.9,3.5,8.8,5.2c-0.4,0.1-1.2,0.2-1.8,0.6c-0.5,0.3-1.2,1-1.1,1.5
	c0.1,0.5,0.8,1.2,1.4,1.4c1.7,0.4,3.6,0.7,5.6,1c-0.7,1.1-1.4,2-2.4,3.6c1.9-0.4,3.1-0.6,4.4-0.9c2.4,4.5,5.9,0.9,9.1,1.2
	c-0.2,0.5-0.4,1.1-0.7,1.9c1.6,0.9,5-1.2,4.5,3.3c1.4-1,2.2-1.6,3.5-2.4c-0.6,1.7-1,3-1.8,5.6c3.5-1.2,6.1-2.1,9.9-3.5
	c-1.9,2.1-2.9,4.2-4.5,4.9c-4.8,2-9.8,3.6-14.8,4.9c-1.6,0.4-3.5-0.5-5.3-0.9c-2.7-0.6-5.4-1.3-8.1-1.7c-2.1-0.3-3.7,0.2-1.7,3.2
	c-4.1-0.7-7.7-1.3-11.2-1.9c-0.2,0.3-0.3,0.6-0.5,0.9c0.9,1.3,1.9,2.6,3,4.2c-4.4-0.4-8.6-2.8-12.7-0.5c-0.1,0.4-0.2,0.8-0.3,1.3
	c3.9,1.2,7.8,2.4,11.5,3.6c-1,1.4-2.4,3.2-3.8,5c0.5,0,1-0.1,1.5-0.1c1,1.5,1.8,3.1,2.9,4.6c1.6,2.3,8.4,2.8,11,0.8
	c2.5,1.6,4,3.3,1.7,6.1c-4.5,0.8-9.1,1.6-13.6,2.4c0.7,3.5,3,4.1,11.3,2.5c-2.2,1.4-3.7,2-4.8,3c-0.7,0.6-0.9,1.7-1.3,2.6
	c0.8,0.3,1.7,0.5,2.5,0.8c1.7,0.4,3.5,0.8,5.3,1.2c-0.1,0.5-0.2,1-0.3,2.1c2.2-0.7,4.2-1.3,6.9-2.2c-1,1.2-1.5,1.9-2.7,3.5
	c2.7-0.5,4.5-0.8,6.4-1.1c0.5,0.6,1.1,1.3,2.6,3c-10.5,0-20.2,0-30,0c0,0.4-0.1,0.8-0.1,1.2c1.7,1,3.4,1.9,5.1,2.9
	c-0.1,0.3-0.2,0.6-0.3,0.9c-3.6,0.7-7.2,1.4-10.9,2.1c0.1,0.5,0.1,1,0.2,1.5c4.5,3.7,9.3,0.7,14.2-0.2c-1.3,2.1-2.6,4.2-3.8,6.2
	c0.3,0.3,0.6,0.6,0.8,0.9c2.3-0.6,4.5-1.2,7-1.9c0.5,2,1,3.9,1.7,6.6c2.8-1.6,5.2-3,8.1-4.7c-0.4,2.3-0.8,4.3-1.2,6.4
	c0.2,0.2,0.5,0.4,0.7,0.6c3.5-2.9,6.9-5.7,10.4-8.6c-0.7,1.9-1.4,3.9-2.1,5.9c0.3,0.2,0.7,0.5,1,0.7c1.5-1.1,2.9-2.2,4.4-3.3
	c0.7,2.8-0.7,4.1-3,4.5c-5.9,0.9-11.8,2.9-17.8,0.1c-1.4-0.7-3.8-1.8-4.8,1.5c-1.3-0.1-3-0.1-5-0.2c0.2,1,0.4,1.9,0.5,2.8
	c-3,0.2-6,0.5-9,0.7c0,0.5,0,0.9-0.1,1.4c1.8,0.5,3.5,0.9,6,1.6c-3.8,2.2-7.2,4.2-10.5,6.2c0,0.2,0,0.5,0,0.7c4-0.6,8-1.2,11.9-1.8
	c-0.9,1.2-2,2.5-3.5,4.5c2.2,0,3.4,0,4.9,0c-0.4,1.1-0.7,1.9-1.4,3.9c3-1.4,5.1-2.5,7.6-3.6c-0.1,1-0.2,1.7-0.4,3.2
	c2.4-0.5,4.6-1,7-1.5c0.1,0.5,0.2,1.4,0.4,2.5c3.7-1,7.4-2,11.1-3c0.2,0.4,0.3,0.9,0.5,1.3c-4.6,1.3-9.3,2.6-13.9,3.9
	c2.8,4.3,5.9,1,8.9,1.7c-1.6,1.9-3.1,3.7-4.7,5.5c0.1,0.3,0.3,0.6,0.4,0.9c3.4-1,6.9-2.1,10.8-3.2c-0.9,1.8-1.8,3.5-2.6,5.1
	c1.8,0.8,3.4,1.4,5.6,2.4c0.4-0.3,1.6-1.1,2.7-1.9c1.8,4.1,4.3,3.7,10.1-1.8c0,1.8,0,3.4,0,5c0.1,0.1,0.3,0.3,0.4,0.4
	C86.1,601.6,0,607.5,0,607.5V1080h1920v-90.9L1548,766.8z M703.7,482.4c2.7,1.1,4.7,2.2,4.9,5C707.3,485.6,704.2,485.7,703.7,482.4z
	 M709,481.1c-1.2-2.7-2.2-4.9-3.5-7.7C708.1,475.4,709.6,477.4,709,481.1z M195.9,267.6c4.3,1.8,7.5,3.6,7.9,8.1
	C201.7,272.9,196.7,273,195.9,267.6z M204.4,265.5c-2-4.3-3.6-7.9-5.6-12.3C203,256.4,205.3,259.7,204.4,265.5z M131.9,522.1
	c1.6-1.8,2.7-3.1,4.4-4.9c1.3,1.8,2.4,3.4,3.8,5.4c1.6-2.1,2.6-3.4,3.7-4.9c2.2,1.6,4.2,3,6.5,4.7
	C143.9,523.9,138.3,523,131.9,522.1z M333.9,624.2c0.8,0.9,1.5,1.8,2.4,2.8c0.2-0.5,0.2-0.8,0.4-1.4c0.3,1.3,1,2.1,1.7,2.5
	c-1.5-0.2-3.1-0.4-4.7-0.6c-0.2-1-0.4-2.1-0.5-3.1C333.5,624.4,333.7,624.3,333.9,624.2z M281.6,619.3c-0.7-0.2-1.5-0.3-2.2-0.5
	c1-0.1,2-0.3,2.9-0.4C282.1,618.7,281.8,619,281.6,619.3z M292.7,621.7c0.6-0.1,1.1-0.3,1.7-0.5c0.1,0.2,0.1,0.4,0.2,0.6
	c-0.1,0-0.3,0.1-0.4,0.1C293.7,621.8,293.2,621.8,292.7,621.7z M275.1,534.5c3.6,2,6.8,3.7,10.5,5.7c-0.2-2-0.4-3.4-0.6-5.1
	c3,1.2,5.8,2.3,7.3-1.7c2.6,2,5.1,3.8,7.5,5.6c0.3-0.3,0.7-0.6,1-0.8c-1.3-2-2.6-4-4-6.2c0.2-0.1,0.3-0.2,0.5-0.3
	c1,1.6,1.1,1.6,3.1,1.3c0.1,0.5,0.2,1,0.2,1.3c1.1,0.6,2,1.2,3,1.6c0.4,0.2,1.2,0.2,1.5-0.1c0.8-0.5,1.4-1.3,2.2-1.9
	c1.1-0.9,1.9-0.7,2.8,0.6c-0.8,0.1-1.6,0.1-2.8,0.2c0.4,1,0.8,1.9,1.1,2.7c-1.1,0.6-2.2,1.3-3.4,1.6c-2.4,0.6-4.8,1-7.3,1.5
	c-1,0.2-2.1,0-2.3,1.4c-0.1,0.4-1,0.7-1.5,0.8c-1,0.2-2.1,0.1-3.5,0.2c1.1,1.8,2.7,2.2,4.5,2.4c-0.4,0.6-0.7,1-1,1.5
	c0.6,0.1,1.1,0.1,1.4,0.4c0.3,0.2,0.5,0.7,0.7,1c1.2-0.1,2.4-0.3,3.8-0.4c0.1,0.6,0.2,1.2,0.3,1.7c0,0,0,0,0,0
	c-4.6,0.7-9.3-0.1-14.1-2.2c-7.1-3.1-14-6.7-20.9-10.1c-1.3-0.6-2.2-1.9-3.1-3.2c2.7,1,4.6,5.1,8.3,1.8c1.5,1.2,2.9,2.4,4.8,4.1
	C275.4,538.2,275.3,536.8,275.1,534.5z M305.3,513.8c0,0.2,0,0.4,0,0.6c0.3-0.5,0.6-0.9,1-1.5c1.3,1.3,2.5,2.6,3.8,3.8
	c-2.4,0-4.8,0-7.3,0c0.2-1,0.4-2.1,0.8-3.9C304.2,513.1,304.7,513.5,305.3,513.8z M324.9,484.8c0.1,0.5,0.4,1.1,0.6,1.9
	c-2.2,0.3-4.3,0.7-6.2,0.5C321,486.4,322.9,485.6,324.9,484.8z M299.1,593.6c0,0-0.1,0-0.1,0C298.9,593.6,299,593.6,299.1,593.6
	C299,593.6,299,593.6,299.1,593.6z M321.7,492.4c1.5-0.6,2.9-1.7,3.5-3c0.1,0,0.3,0.1,0.4,0.1c-0.3,0.7-0.4,1.6-0.9,2
	c-0.6,0.5-1.3,0.9-2,1.3C322.4,492.7,322.1,492.6,321.7,492.4z M313.7,547.5c0.4,0.1,0.8,0.1,1.3,0.2c-1,0.7-1.9,1.2-2.9,1.6
	C312.6,548.7,313.1,548.1,313.7,547.5z M297.4,577.3c0.1-0.3,0.1-0.6,0.2-1c0.5,0.1,0.8,0.3,0.7,1.4c0.7-0.5,1-0.7,1.6-1.1
	c0,0,0,0,0,0c-0.2,0.6-0.3,1-0.6,1.7C298.8,578,298.1,577.7,297.4,577.3z M300.4,578.7c1-0.4,2-0.7,3.3-1.2c-0.6,0.7-1,1.4-1.5,1.9
	C301.6,579.2,301,579,300.4,578.7z M305.9,529c-1,0.6-2.3,0.9-3.5,0.7C303.6,529.4,304.7,529.2,305.9,529z M307.4,547.4
	C307.4,547.4,307.4,547.3,307.4,547.4C307.4,547.3,307.4,547.3,307.4,547.4C307.4,547.4,307.4,547.4,307.4,547.4z M301.4,549.5
	c0.3-0.4,0.5-0.7,0.6-0.9c0.3,0.2,0.7,0.3,1,0.5C302.5,549.3,302,549.4,301.4,549.5z M317.6,496.2c-0.1,0.1-0.3,0.2-0.4,0.2
	c-0.2,0.1-0.4,0.1-0.6,0.1C316.9,496.4,317.3,496.3,317.6,496.2z M311.2,503.2c2,1.9,3.7,3.3,5.5,0.9c0.6,0.4,1,0.9,1.4,0.9
	c0.5,0,1-0.5,1.7-0.4c-0.2,0.3-0.4,0.7-0.7,0.7c-2.2,0.4-4.4,0.9-6.7,1C311.3,506.2,311,504.9,311.2,503.2z M289,593.7
	c-0.1,0-0.1,0-0.2,0c-0.3-0.9-0.8-1.8-0.9-2.7c0.1-0.1,0.2-0.1,0.3-0.2C289.4,591.5,290.1,592.4,289,593.7z M291.4,592.4
	c0.5,0.4,0.9,0.8,1.4,1.2c0.1,0.1,0.3,0.2,0.4,0.3c-0.9-0.1-1.8-0.2-2.8-0.4C290.8,593.1,291.1,592.7,291.4,592.4z M318.7,623.8
	c0,0.5-0.1,0.9-0.1,1.5c0.3-0.1,0.7,0,0.8-0.2c1.4-1.4,3.8-2,3.3-4.7c0.2,0,0.2-0.1,0.3-0.1c3.1,0.8,2.5,3.2,2.1,5.4
	c-0.1,0.2-0.1,0.5-0.2,0.7c-2.5-0.3-5.1-0.7-7.6-1C317.7,624.9,318.1,624.3,318.7,623.8z M329.1,495.5c0.1,0,0.3,0,0.4,0
	c0,1.3,0,2.6,0,4c-0.1,0-0.3,0-0.4,0C329.1,498.1,329.1,496.8,329.1,495.5z M331.4,480.9c-1.1,0.6-2.1,1-3.1,1.5
	C327.8,480.6,328.1,480.4,331.4,480.9z M324.4,473.2c-0.9-2-1.7-3.7-2.6-5.8C323.8,468.9,324.9,470.4,324.4,473.2z M324.2,477.9
	c-1-1.3-3.3-1.3-3.7-3.8C322.5,475,324,475.8,324.2,477.9z M271.5,503.8c4.5,1.3,9.3,1.2,14,1.5c0.7,0.1,1.5-0.7,2.3-1.1
	c0.9,0.6,1.8,1.3,3.1,2.2c0.5-0.9,0.8-1.5,1.4-2.5c4.5,4.4,7.4-0.3,11.3-1.7c-0.7-0.9-1.2-1.5-1.2-1.4c0.8-0.3,1.6-0.5,2.5-0.8
	c0.1,0.4,0.2,0.8,0.3,1.2c0.5,0,1,0.1,1.6,0.1c0.1,0.4,0.1,0.9,0.1,0.9c1.1,0.3,2,0.4,2.8,0.9c0.2,0.1,0,1.1,0,2.1
	c-1.9-1.9-3.7-1.6-5.7-0.6c0.7,1,2.2,1.9,1,3.7c-1.3-0.8-2.6-1.6-3.9-2.4c-0.1,0.1-0.2,0.3-0.3,0.4c0.1,0.6,0.3,1.1,0.4,1.9
	c-1.7-0.2-3.3-0.5-5-0.7c-0.1,0.2-0.2,0.5-0.3,0.7c1.2,0.7,2.4,1.3,3.7,2.1c-0.6,1.1,0.1,1.2,1.2,1.5c0.7,0.2,1.5,0.5,2.2,0.9
	c-7.6,2.4-14.9,2.7-21.9,0c-6.9-2.7-14.6-3.7-21.1-9.1C264.6,501.8,267.9,502.8,271.5,503.8z M214.4,313.1c0.3,0,0.6,0,0.8,0
	c0,2.8,0,5.6,0,8.5c-0.3,0-0.6,0-0.8,0C214.4,318.8,214.4,316,214.4,313.1z M219.2,282c-2.4,1.2-4.5,2.2-6.5,3.2
	C211.6,281.4,212.3,281,219.2,282z M178.9,336c-2.5,0-3-2.8-2.7-6.5c4.2,4,8,7.1,11.8,1.9c1.2,0.8,2.1,1.9,2.9,1.8
	c1.1,0,2.1-1,3.7-0.9c-0.5,0.6-0.9,1.5-1.5,1.6C188.3,334.8,183.6,335.9,178.9,336z M166.6,595c1,3,1.6,4.6,2.3,5.1
	c-3,0-6.1,0.1-9.2,0.1C162,598.5,164.3,596.7,166.6,595z M170.1,600.1c0.7-0.3,1.5-1.1,2.8-2.1c0.8,0.5,1.6,1.1,2.4,1.6
	c2-2,4-3.9,6.2-6c4.4,2.2,5,2,7.5-3c0.8-1.5,1.7-2.8,3.1-4c-0.1,1-0.1,2-0.2,3.3c0.7-0.1,1.5-0.1,1.8-0.4c2.9-3,8.1-4.4,7.1-10
	c0.3-0.1,0.4-0.1,0.5-0.1c6.6,1.8,5.4,6.9,4.5,11.4c-0.6,3.1-1.5,6.2-2.5,9.3C193.2,600,181.9,600,170.1,600.1z M256.5,607.5
	c-1.8-3.4-13.6-5.4-31.1-6.5c-0.8-4.3-1.5-8.6-2.2-12.8c0.5-0.2,1-0.4,1.4-0.6c1.6,1.9,3.2,3.7,5.2,6c0.3-1.2,0.5-1.8,0.9-3
	c1.7,6.6,6.4,6.8,11.5,6.9c1.4,0,2.7,1.7,4.4,2.9c0.3-1.1,0.6-1.9,0.7-2.2c4.6,0,9.1,0,14.2,0c0.1-1.4,0.2-3.5,0.3-5.8
	c1.6,0.6,3.8,1.5,5.7,2.2c0.8-0.8,1.4-1.8,2-1.8c0.8,0,1.9,0.6,2.4,1.3c1.2,1.8,1.9,4,5,2.1c0.7-0.4,2.7,1.5,4.3,2.4
	c0.4-0.7,1-1.8,1.3-2.4c1.2,0.3,2.4,0.9,3.4,1.2c0,0-0.1,0.1-0.1,0.1c-0.3,0.3-0.4,0.8-0.6,1.2c0.4,0.1,0.8,0.3,1.2,0.4
	c0.8,0.2,1.6,0.4,2.5,0.6c0,0.2-0.1,0.5-0.2,1c1.1-0.3,2-0.6,3.2-1c-0.4,0.6-0.7,0.9-1.3,1.6c1.3-0.2,2.1-0.4,3-0.5
	c0.2,0.3,0.5,0.6,1.2,1.4c-4.9,0-9.5,0-14.1,0c0,0.2,0,0.4,0,0.6c0.8,0.5,1.6,0.9,2.4,1.4c-0.1,0.1-0.1,0.3-0.2,0.4
	c-1.7,0.3-3.4,0.7-5.1,1c0,0.2,0,0.5,0.1,0.7c2.1,1.7,4.3,0.3,6.6-0.1c-0.6,1-1.2,2-1.8,2.9c0.1,0.1,0.3,0.3,0.4,0.4
	c1.1-0.3,2.1-0.6,3.3-0.9c0.2,0.9,0.5,1.8,0.8,3.1c1.3-0.8,2.4-1.4,3.8-2.2c-0.2,1.1-0.4,2-0.6,3c0.1,0.1,0.2,0.2,0.3,0.3
	c1.6-1.3,3.2-2.7,4.9-4c-0.3,0.9-0.7,1.8-1,2.8c0.2,0.1,0.3,0.2,0.5,0.3c0.7-0.5,1.4-1,2.1-1.5c0.3,1.3-0.3,1.9-1.4,2.1
	c-2.8,0.4-5.5,1.4-8.4,0c-0.7-0.3-1.8-0.8-2.2,0.7c-0.6,0-1.4-0.1-2.3-0.1c0.1,0.5,0.2,0.9,0.3,1.3c-1.4,0.1-2.8,0.2-4.2,0.3
	c0,0.2,0,0.4,0,0.7c0.8,0.2,1.7,0.4,2.8,0.7c-1.5,0.9-2.8,1.6-4.1,2.4C266.9,615.5,258.9,612,256.5,607.5z M715.2,510.7
	c0.2,0,0.3,0,0.5,0c0,1.8,0,3.5,0,5.3c-0.2,0-0.3,0-0.5,0C715.2,514.2,715.2,512.5,715.2,510.7z M718.2,491.3
	c-1.5,0.7-2.8,1.4-4.1,2C713.5,490.9,713.9,490.7,718.2,491.3z M693.1,524.9c-1.6,0-1.9-1.7-1.7-4c2.6,2.5,5,4.4,7.3,1.2
	c0.7,0.5,1.3,1.2,1.8,1.1c0.7,0,1.3-0.6,2.3-0.5c-0.3,0.3-0.6,0.9-0.9,1C699,524.2,696.1,524.9,693.1,524.9z M663.9,640.7
	c1-1.1,1.7-1.9,2.7-3c0.8,1.1,1.5,2.1,2.3,3.3c1-1.3,1.6-2.1,2.3-3.1c1.3,1,2.6,1.9,4.1,2.9C671.4,641.9,667.9,641.3,663.9,640.7z
	 M694.8,685.2c2.7,1.4,3.1,1.3,4.7-1.8c0.5-0.9,1.1-1.7,2-2.5c0,0.6-0.1,1.2-0.1,2c0.5-0.1,0.9,0,1.1-0.2c1.8-1.9,5-2.7,4.4-6.2
	c0.2,0,0.3-0.1,0.3-0.1c4.1,1.1,3.4,4.3,2.8,7.1c-0.4,1.7-0.8,3.4-1.3,5.1c-4.9-0.6-10-1.3-15.2-2
	C693.9,686.1,694.3,685.7,694.8,685.2z"/>
</svg>
