<?xml version="1.0" encoding="utf-8"?>
<!-- Generator: Adobe Illustrator 22.1.0, SVG Export Plug-In . SVG Version: 6.00 Build 0)  -->
<svg version="1.1" id="圖層_1" xmlns="http://www.w3.org/2000/svg" xmlns:xlink="http://www.w3.org/1999/xlink" x="0px" y="0px"
	 viewBox="0 0 1920 1080" style="enable-background:new 0 0 1920 1080;" xml:space="preserve">
<style type="text/css">
	.st0{fill:#E18C24;}
</style>
<path class="st0" d="M1764.5,375.6c0,0-6.3-0.4-16.3-1c-0.2-5.3-0.5-10.4-0.7-15.5c0.5-0.1,1-0.1,1.5-0.2c0.8,1,1.6,2,2.5,3
	c0.2-0.4,0.3-0.9,0.5-1.3c1.8,0.4,3.6,0.6,5.3,1.1c3.3,0.9,6.5,2.8,9.7,2.9c4.2,0.1,8.7-2.3,12.6-1.4c4.4,1.1,4.4-2.8,6.5-4.2
	c2.4-1.5,4.9-2.8,7.4-4.1c1-0.5,1-0.5-3.2-7.3c-0.1-0.1,0.2-0.5,0.3-0.8c4.8,1.2,9-0.3,8.4-3.2c-1.3-5.9,0.8-6.2,5.1-4.6
	c0.2,0.1,0.7-0.6,1.2-1.1c-2-3.9-3.9-7.7-6.1-12c2.9,1.4,5.4,2.7,8.3,4.1c2.3-1.5,1-3.8-0.4-6c-2.2-3.5-4.3-7.3-9.5-4.7
	c-0.3-0.5-0.5-0.9-0.8-1.4c1.2-1.7,2.5-3.5,4.1-5.7c-1.5-1.6-5.1-4.5-4.7-5.3c2.2-4.8-2.7-5.1-3-7.7c0-2.8,0-5.7,0-8.5
	c-0.3,0-0.6-0.1-0.9-0.1c-0.3,1.7-0.6,3.4-0.8,4.4c-3.5-0.5-6.6-1-10.1-1.6c1.8-4.4,9.1-0.6,7.3-7.7c1.7,0.5,3,0.9,4.2,1.2
	c0.1-0.3,0.3-0.6,0.4-0.9c-1.9-1.4-3.8-2.8-5.7-4.2c-1.2,0.7-2.4,1.4-4.5,2.6c0.5-5,0.8-8.9,1.3-13.7c-3.7,0.3-7.6,0.6-11.6,0.9
	c-0.3-0.3-0.7-0.5-1-0.8c8.3-6.9,3.8-12.9-0.6-18.8c-8.2,3.9-4-5.4-6.6-7.6c-0.1,0.5-0.1,1-0.2,1.5c-2.1-0.2-4.2-0.3-6.3-0.5
	c5.6-2.2,7.6-4.6,8.3-12.6c-4.1,1.7-7.5,3.1-11.4,4.8c1.7-3.7,3.2-7,4.9-10.5c-4.7-2-10.7-1.8-14.2-7.6c1.5-0.7,2.7-1.3,4.2-2
	c-1.2-3.6-2.4-7-3.2-9.4c-2.3-0.6-3.7-0.8-5-1.2c-2.7-0.9-3.8,0.7-3.3,3.1c0.9,4.4-1,6.2-4.8,6.6c3.3,5.3,2.9,6.5-2.3,8.6
	c0,2.6,0,4.9,0,7.3c1.6,3.4,3.2,6.7,5.1,10.7c-7.2-1.6-7.2-1.6-5.1-10.7c-1.5-0.1-3-0.3-4.5-0.3c-2.2,0.1-4.4,0.4-6.6,0.6
	c0.7,1.8,1.4,3.6,2.1,5.5c0.3,4-10.6,2.3-5.3,8.9c-1.5,3.7-2.6,6.3-3.9,9.4c3.5,0,5.5,0,7.6,0c0.2,0.5,0.3,1.1,0.5,1.6
	c-1.5,0.7-2.9,1.3-4.5,2c0.6,0.9,1.4,2.3,2.5,4c-2.8,1.2-3.6,2.7,0.8,5.2c-4,0.2-6.7,0.3-10.4,0.5c2-1.6,3.2-2.6,4.3-3.5
	c-0.8-0.5-1.5-0.9-2.1-1.5c-3.8-3.3-5.1,0-7.7,3.2c2.3-0.2,3.3-0.3,3.6-0.3c0,2.5,0,4.9,0,7.6c-7.1-2.2-10.3,3-13.7,8.7
	c3.2,1.1,5.9,2,8.1,2.7c-0.2,2.1-0.3,4.3-0.5,6.6c-5.9-1-6.7,5.7-10.5,8.9c1.7,1.3,2.8,2.3,2.8,2.3c0.6,3.1,1,4.9,1.4,7
	c-0.9,0.5-2.6,1.5-4.3,2.3c-6.2,2.9-6.5,4.2-1.2,9.2c-4.6,1.7-8.6,3.9-6.5,10.1c0.1,0.2-0.7,0.7-0.9,1.2c-0.6,1.4-1.1,2.8-1.8,4.7
	c2.2,0.7,3.8,1.3,5.8,1.9c0.1,1.1,0,3.6,0.4,3.7c4.9,1.2,7.7,5.4,11.5,8.3c3.4,2.7,8.1,3.7,12.3,4.8c2.3,0.6,4.8-0.4,7.4-0.6
	c-0.8-1.2-1.4-2-2.3-3.3c1.9-0.3,3.3-0.5,3.3-0.5c2.6,2.8,4.5,4.8,7.3,7.9c0.2-3.1,0.3-4.5,0.4-6.1c1.5,0.2,2.8,0.4,4.2,0.6
	c-0.8,1.2-1.4,2.2-2.2,3.6c1.2,0.4,2,0.6,2.7,0.8c7.7,2.1,7.7,2.1,7.5,10.9c0,1,0,1.9,0,2.9c-39.5-2.1-112.1-4.8-126.9,1.5
	c-20.6,8.8-152.8,16.2-185.8,58.8c-16.1,20.7-70.8,38-126.9,50.9c-0.5-14.4-1.1-28.3-1.6-42.3c3.6-0.5,7.9-2.3,9-1
	c2.6,3.2,5,3.7,8.5,2.9c2.3-0.5,4.7-0.5,7-0.7c7-0.4,14.1-0.6,21.1-1.1c1.2-0.1,2.2-1.6,4.3-3.3c-4-0.9-4.8-2.7-2.6-5
	c-1.7-1.5-3.2-2.8-4.9-4.2c3.7-3.3,8.4-6,2-12c4,0,6.7,0,9.5,0c-0.4-0.4-0.9-0.8-1.3-1.2c1-2.7,2.2-5.3,3-8c0.4-1.3,0.7-3,0.3-4.1
	c-0.3-0.8-2-1-3.2-1.2c-0.9-0.1-1.8,0.2-2.8,0.3c0.3-0.5,0.6-1,0.9-1.5c-1.8-1.7-3.7-3.4-5.8-5.3c1.5-1.4,3.4-3.2,5.3-5
	c-0.2-0.2-0.3-0.5-0.5-0.7c-1.9,0.7-3.8,1.5-6.5,2.5c-1-3.5-3.4-7.1-2.6-9.8c0.9-3.2,4.3-5.5,6.7-8.2c-1.8-0.7-3.7-1.5-5.2-2
	c1.3-3.2,2.3-5.7,3.6-9.1c-2.4,0-4.4-0.6-5.1,0.1c-4,4.4-7.6,1.8-10.6,0c0.6-1.7,1-3.2,1.4-4.4c5.1-0.2,6.6-4.5,8.3-9
	c-2.3,0.8-4.6,1.5-7.5,2.5c0.1-1.7,0.2-3,0.2-4.3c0.1-1.4,0.1-2.8,0.2-4.3c-1.2,0.2-2.4,0.5-3.6,0.6c-0.8,0.1-2.1,0.1-2.4-0.3
	c-0.5-0.7-0.6-2.2-0.2-2.8c0.9-1.5,2.2-2.7,3.7-4.5c-2.2,0-4,0-5.6,0c-2.3-6.7-2.3-6.7-11.8-3.5c1-3.5,1.9-6.8,2.4-8.7
	c-2.5-2.9-4.3-4.9-5.4-6.1c2.2-4.2,4-7.6,5.8-10.9c-2.7-0.5-4.2-0.1-5.8,0.3c-4.5,1.2-5.6,0-4.6-4.9c0.3-1.7,0-3.4,0-5.9
	c-1.9,1.4-3.1,2.3-5,3.6c-0.6-5.8-0.1-12.8-8.6-9.8c-0.3,1.7-0.6,3.5-1,5.7c-8.7-6-5.2,3.9-7.2,6c-2.8-0.7-5.4-1.3-8.6-2.1
	c0.7,4.5,1.2,7.8,1.8,11.4c-1.9-0.4-3.7-0.9-5.6-1.3c-0.6,7.7-0.1,14.4,8.1,17c-1.1,1.5-1.7,2.4-2.5,3.6c3,1.9,5.7,3.6,8.5,5.4
	c-0.1,0.4-0.2,0.8-0.3,1.3c-1.6-0.2-3.2-0.3-4.8-0.7c-1.2-0.3-2.3-1.6-3.4-1.6c-5,0.1-8-3.9-11.7-6.3c-2.9-1.8-5-5-7.6-7.8
	c-3.9,8.1,5,10.4,5,17c-2-1.5-3.5-2.5-6-4.3c1.1,4,1.8,6.8,3,11.2c-3.9-1.7-6.4-2.8-8.9-3.9c-0.5,0.3-1,0.6-1.4,0.9
	c2.1,4.9,4.2,9.8,6.3,14.7c-1-0.1-2.1-0.3-2.9-0.4c-4.5,6.7,3.1,9,4.8,13.2c-5.5,3.6-12.9-2-16.8,5.7c2.4,1.1,4.7,2.1,7,3.1
	c-0.1,0.7-0.3,1.4-0.4,2c-4.6-1-9.2-2-13.8-3.1c-0.2,0.5-0.3,1-0.5,1.6c2.7,2.6,5.4,5.1,8.3,7.9c-2,0.9-3.7,1.7-6.7,3
	c4.3,1.7,7.3,2.7,10.3,4.1c0.7,0.3,1,1.6,1.4,2.4c3.9-3.3,7.9-3.5,13,0c-4.8,3.3-9-1.1-13-0.1c-1.8,1.6-3.7,3.2-6.2,5.5
	c3.5,1.7,6.3,3,9.2,4.4c-2.6,3.6-5,6.9-7.2,9.9c-2.1-0.6-3.8-1.1-5.5-1.6c-0.2,0.4-0.5,0.7-0.7,1.1c1.7,1,3.4,2,5.1,2.9
	c-0.3,0.5-0.7,0.9-1,1.4c-1.2,0-2.5,0-4.2,0c1.5,1.9,2.7,3.4,3.8,4.8c-1.2,0.5-2.3,1-3.4,1.6c-1.2,0.6-2.5,1.4-3.7,2.1
	c1.2,1.2,2.4,2.6,3.8,3.5c0.9,0.6,2.3,0.2,3.3,0.6c4.7,1.8,9.3,3.8,14.1,5.8c1.1-3.6,3.8-2.8,7.1-0.7c2.4,1.5,5.2,2.4,8.3,3.8
	c0.2,0.4,0.6,1.7,1.3,3.4c0.9-2.3,1.4-3.8,2.1-5.5c1.1,1,1.9,1.8,2.9,2.8c0.8-1.6,1.6-3.1,2.3-4.5c0.4,0.4,0.9,0.9,1.3,1.3
	c-0.4,2-0.7,4-1.1,6c6.2-0.1,3.6-5.4,4.6-8.7c1.7,0,3.3,0,5,0c-0.2,1.2-0.4,2.3-0.6,3.5c6.9-2.8,7-2.7,6.5,5.1
	c-0.1,1.2,0,2.4-0.1,3.6c-0.8,10.6-1.7,21.2-2.2,31.8c-0.1,1.3,1,3.3,2.2,4.3c-54.6,12.2-108.8,20.2-128.4,23.4c0-0.1,0-0.2,0-0.3
	c0.1-5.4,0-10.7,0-16.7c7.1,1.6,13.7,3,20.4,4.5c-0.1-1.1-0.2-1.8-0.2-1.6c5.1-1.8,9.7-3.5,14.7-5.3c-0.7-0.8-1.3-1.5-1.4-1.6
	c1.5-1.2,3-2.4,4.5-3.6c0.6-0.5,1.1-1.1,1.8-1.3c4.7-1.3,6.9-4.8,6-10.6c-1.6,1.2-2.8,2.1-4.1,3.1c-0.1-2.1,1.3-3.7,1.1-5
	c-0.3-1.9-1.9-3.6-3.6-6.6c0,2.8,0,3.9,0,6.6c-2.8-3.3-4.7-5.6-7.5-9c1.9-1.3,4-2.9,6.2-4.1c2.5-1.4,3.6-2.7,1.9-4.3
	c-3.7,1-6.6,1.8-9.5,2.6c-0.1-0.4-0.2-0.9-0.3-1.3c1.1-0.8,2.3-1.7,3.6-2.6c-3.5-1.4-7.2,3.6-9.9-0.6c3.3-2.9,6.3-5.6,8.6-7.7
	c0-5.9,4.9-7.2,7.2-11.2c-4.7,1-9.3,1.9-14.7,3c3.5-4,6.6-7.5,10.4-11.8c-5.6,2-9.9,3.5-15.9,5.6c2.7-4.2,5-7,6.5-10.2
	c1.6-3.4,2.4-7.2,3.6-10.8c-0.3-0.2-0.6-0.3-0.9-0.5c-1.6,1.4-3.2,2.7-5.1,4.4c-1.4-2.2-2.8-4.4-3.6-5.6c2.1-2.7,3.5-4.5,4.9-6.3
	c-0.3-0.3-0.6-0.6-0.9-0.9c-2.1,1.6-4.1,3.2-7.1,5.5c0.3-2.9,0.5-4.4,0.7-6.2c-1.7,1.1-3,1.9-4.4,2.8c-0.3-0.4-0.6-0.8-0.9-1.1
	c1.3-2,2.6-4,4.2-6.5c-4.9-0.7-9.1-1.6-5.2-7.9c0.4-0.7-1.1-2.7-1.8-4c-0.6-1.1-2.1-2.3-2-3.2c0.4-4.2-0.4-7.5-3-11.1
	c-3.3-4.4-5.5-9.8-8.2-14.8c-0.2-0.4-0.8-0.6-1.5-1c-3.1,6.5-6.5,12.7-11.3,18.3c-0.4,1.8-1,4.5-1.6,7.2c-0.4,2.2,0.1,5-3.6,4.6
	c-0.7-0.1-2.5,3.2-2.2,3.6c3,4.2-0.1,6.3-2,9.3c-1.8,2.8-1.6,7.1-5.6,8.5c-0.3,0.1-0.2,1.3-0.3,2c-0.3,3.3-0.6,6.5-1,9.8
	c1.3,0.5,3.3,0.5,3.7,1.5c0.8,1.6,0.6,3.7,0.9,5.4c-5.3-1-7-2.9-5-6.3c-2.9,1.1-6.5,7-5.6,9.5c1,2.6,2.3,5.2,3.8,8.7
	c-2.8-1.1-4.6-1.7-7.7-2.9c7,8.9-1.7,6.8-4.1,9.4c3.2,3.3,6.3,6.4,9,9.1c-3,3.2-5.6,5.9-8.7,9.3c-0.5,0.1-2.2,0.3-4.3,0.6
	c4.3,3.9,4.2,4.4,0.2,6.1c0.5,1.8,2,4.3,1.4,5.1c-5.6,7.2-4.8,12.1,2.9,15.3c0.6,0.3,1.4,1,1.6,1.6c1.9,7,8.4,7.6,13,8.7
	c5.4,1.2,11.5-0.3,17.1-1.9c3-0.9,3.9-0.6,3.8,2.4c0,4.7-0.4,9.4-0.5,14.1c0,0,0,0.1,0,0.1c-43.7,4.2-146.4,1.3-150.2,13.5
	c-4.1,13.2-61.9,86.8-61.9,86.8L876.8,633l-145.9,41.2c0,0-46.8,64.7-55,94.1C667.6,797.7,540,1080,540,1080h1380V434.5
	L1764.5,375.6z"/>
</svg>
