<?xml version="1.0" encoding="utf-8"?>
<!-- Generator: Adobe Illustrator 22.1.0, SVG Export Plug-In . SVG Version: 6.00 Build 0)  -->
<svg version="1.1" id="圖層_1" xmlns="http://www.w3.org/2000/svg" xmlns:xlink="http://www.w3.org/1999/xlink" x="0px" y="0px"
	 viewBox="0 0 1920 1080" style="enable-background:new 0 0 1920 1080;" xml:space="preserve">
<style type="text/css">
	.st0{fill:#F9DD40;}
</style>
<path class="st0" d="M0,288c0,0,205.5,3.5,262.5,24.4S396,371.5,396,371.5h96c0,0,88.5,11.6,120,19.7s121.5,49.9,144,60.3
	s22.5,20.9,108,13.9c85.5-7,130.5-20.9,171-7c40.5,13.9,319.5,32.5,319.5,32.5s130.5-42.9,180-32.5s124.5,37.1,166.5,46.4
	c42,9.3,144,26.7,162,26.7s57,0,57,0V1080H0V288z"/>
</svg>
