<?xml version="1.0" encoding="utf-8"?>
<!-- Generator: Adobe Illustrator 22.1.0, SVG Export Plug-In . SVG Version: 6.00 Build 0)  -->
<svg version="1.1" id="圖層_1" xmlns="http://www.w3.org/2000/svg" xmlns:xlink="http://www.w3.org/1999/xlink" x="0px" y="0px"
	 viewBox="0 0 1920 1080" style="enable-background:new 0 0 1920 1080;" xml:space="preserve">
<style type="text/css">
	.st0{fill:#2A1E51;}
</style>
<path class="st0" d="M356.1,826c-2.4,0-4,0-5.7,0c-71.7,0-143.5,0.3-215.2-0.3c-12.7-0.1-27.5-10.1-30.5-24.1
	c-2.4-11.3,1.9-20.2,10.6-27c9.4-7.4,20-11.7,32.4-10.3c8,0.9,16,1,24.8,1.5c-3.1-10.7,3-20.3,3.2-31.4c-2.2,1.1-4,1.8-5.6,2.7
	c-2.4,1.4-4.6,0.8-5.5-1.4c-0.6-1.3,0-3.6,0.9-4.9c1.5-2.2,0.8-8.4-1-10.2c0.7-2.5,1.7-4.5,1.9-6.5c0.4-5.2,0.6-10.3,0.6-15.5
	c-0.1-4.6,1.3-8.3,4.6-11.5c1.7-1.7,3.1-3.8,4.7-5.7c-1.4-1.6-3.1-2.7-3.8-4.3c-1.3-3,1.5-7.1,5.2-8.1c1.5-0.4,3.1-0.5,4.6-0.6
	c1.4,0,2.8,0.2,4.6,0.4c-0.4-3.9-0.9-7.6-1.3-11.2c-0.6-6.2,2.9-10.7,6.8-14.7c1.4-1.4,4.4-2,6.5-1.7c6.3,0.8,12.8,1.8,17.6,6.3
	c2.2,2,4.1,5.3,4.4,8.1c0.3,3.1-1.5,6.4-2.4,9.6c-0.2,0.7-0.9,1.8-0.7,2.1c2.8,4.1-0.8,6.8-1.9,10.2c-1.5,5-3.8,8.2-9.9,6.6
	c2,2.3,4.3,4.4,5.8,7c1.5,2.6,2.2,5.7,3.3,8.6c5.1-2.1,10.1-4.1,15-6.4c4.9-2.2,9.7-4.6,11.3-10.7c1.2-4.7,5.1-3.1,8.3-2.8
	c3.1,0.2,4.8,2.1,5.1,4.9c0.1,1.4-1.1,3.1-2.1,4.2c-1.8,1.8-4.8,2.9-5.7,5c-10.6,23.1-21,46.4-31.4,69.7c-0.1,0.2,0,0.5,0,1.1
	c4.5,0.4,9.1,1.1,13.6,1.2c15.8,0.1,31.6,0.2,47.4,0c12.8-0.2,25.6-0.9,38.4-1.3c5-0.1,10,0,15.3,0c-3-10.6,1.8-20.1,3.6-29.9
	c-3-3.5-9.3,0.3-11.2-5.7c5.7-5.2,2.5-12.7,4.3-19.2c1.5-5.6,1.8-11.6,3.6-17c0.9-2.6,3.7-4.8,6-6.7c2.5-2.2,3.7-3.7,0.9-6.8
	c-3-3.3-2.2-6,1.8-7.8c3.2-1.4,6.5-2.2,10.1-3.3c-1.5-7.9,1.5-14.6,8-19.2c2.3-1.6,6.5-2.5,9-1.5c6.3,2.4,12.1,6,15.1,12.6
	c0.6,1.3,0.6,3,0.3,4.4c-0.9,4.2-3.8,8.1-1.9,12.7c0.2,0.4-0.2,1.2-0.5,1.7c-1.2,1.9-2.8,3.7-3.5,5.7c-0.9,2.7-2.2,4.3-5.5,3.7
	c0.2,1,0.3,1.7,0.6,2.2c5.4,8.6,5.3,17.9,4,27.4c-0.5,3.6,0.2,5.7,3.7,7.6c8.4,4.5,16.5,9.7,24.6,14.7c3,1.8,5.8,3.8,9.3,6.2
	c-0.9,0.6-2.2,1.3-3.4,2c-1.4,0.8-3.3,1.4-3.9,2.6c-2.4,4.7-4.4,9.6-6.8,15c5.3,0,10-0.2,14.7,0.1c4,0.2,7.9,1,11.9,1.4
	c1.9,0.2,3.9-0.1,5.9,0.1c1.2,0.2,2.6,0.7,3.5,1.6c1.4,1.3,2.2,3.3,3.6,4.4c16.1,12,16.2,32.5,0,44.4c-7,5.2-15,7.6-23.6,7.8
	c-11.3,0.2-22.5,0-34.1,0c-4.3,9.4-8.8,18.6-12.8,28.1c-1.8,4.3-4.5,6.3-9.2,5.9c-4.3-0.3-8.5,0-12.8-0.1c-3.8-0.1-4.4-1-2.9-4.5
	C346.9,845.9,351.3,836.3,356.1,826z M401.1,750.6c-2.4-2.3-4.2-3.8-5.7-5.5c-6.2-6.7-15.3-7.5-22.8-11.8c-2.7,9.6-3.4,10.3-8.1,8.3
	c-0.3,1.8-0.6,3.5-0.9,5.2c-1.5,8.4,5.2,12.9,8.9,18.9c0.3,0.5,1.4,0.5,2.1,0.5c5.7,0,11.4,0.1,17.1-0.1c1,0,2.5-0.9,2.9-1.7
	C397.1,759.6,399.3,754.6,401.1,750.6z M240.7,698.3c-7.9,5.1-16,10.3-24.1,15.5c-0.6,0.4-1.3,1.2-1.2,1.7c1.4,5.1-2.8,12.3,7,14.8
	c-2.5,1.6-3.9,2.6-5.3,3.5c-0.4-0.2-0.7-0.4-1.1-0.5c0,4,0.3,8-0.1,11.9c-0.6,6.7-3,12.4-9.2,16c-1,0.6-1.4,2.1-2.3,3.5
	c5.5,0.6,5.5,0.6,7.2-3.2c2.3-5,4.6-10.1,7-15.1C226,730.2,233.4,714.1,240.7,698.3z M208.7,742.3c-3.2,4.8-3.6,6.7-2.3,10.3
	C211.5,747.6,211.7,746.8,208.7,742.3z"/>
</svg>
