<?xml version="1.0" encoding="utf-8"?>
<!-- Generator: Adobe Illustrator 22.1.0, SVG Export Plug-In . SVG Version: 6.00 Build 0)  -->
<svg version="1.1" id="圖層_1" xmlns="http://www.w3.org/2000/svg" xmlns:xlink="http://www.w3.org/1999/xlink" x="0px" y="0px"
	 viewBox="0 0 1920 1080" style="enable-background:new 0 0 1920 1080;" xml:space="preserve">
<style type="text/css">
	.st0{fill:#920A62;}
</style>
<path class="st0" d="M1889.7,455.5c0.4-0.3,0.8-0.5,1.1-0.8c0-0.1-0.1-0.2-0.1-0.3c-2.9,0-5.8,0-8.8,0c0.1-0.5,0.2-1.1,0.4-2.1
	c-3.7,1.2-7.2,1.4-10.7,0.1c-3.3-1.3-6.9-1.8-10-4.3c2.2-0.8,3.7-0.3,5.4,0.2c2.1,0.6,4.4,0.6,6.6,0.7c0.3,0,0.7-0.3,1.1-0.5
	c0.4,0.3,0.9,0.6,1.4,1c0.2-0.4,0.4-0.7,0.6-1.2c2.1,2.1,3.5-0.1,5.3-0.8c-0.3-0.4-0.6-0.7-0.6-0.7c0.9-0.3,1.9-0.6,2.8-0.9
	c2.1-0.6,4.2-1.2,6.4-1.8c0.4-0.1,0.8-0.3,1.5-0.6c-0.9-0.3-1.5-0.6-2-0.8c-0.3-0.8-0.5-1.5-0.8-2.3c1.4-0.6,2.9-1.2,4.3-1.8
	c0-0.1-0.1-0.2-0.1-0.3c-3.4,0.2-6.8,0.3-10.5,0.5c0.3-0.6,0.5-0.9,0.8-1.4c-3.6-0.5-7.3,0-10.8-2.1c1.5-0.6,2.7-1.4,3.9-1.4
	c1.3,0,2.5,0.7,3.8,1.1c0.1-0.2,0.2-0.4,0.4-0.5c-0.6-0.4-1.1-0.8-2.1-1.5c1.7-0.1,2.9-0.2,4.6-0.3c-1.1-0.6-1.8-1-2.3-1.2
	c1.7-1,3.5-2,5.2-3.2c0.4-0.3,0.5-0.9,0.8-1.4c-0.5-0.1-1.1-0.4-1.5-0.3c-1.6,0.3-3.2,0.8-5,1.2c0.1-0.8,0.1-1.3,0.2-2.2
	c-4.9,2.5-9.2,0.9-13.4-1.4c1.7,0.2,3.1-1.5,5-0.2c0.9,0.6,2.6,0.1,4.4,0.1c-0.6-1-0.9-1.3-1.3-2c0.8,0.3,1.4,0.5,2,0.7
	c0.5-1.5,3.5-2.1,1.4-4.5c0.6-0.8,1.3-1.6,1.9-2.3c-0.1-0.1-0.2-0.3-0.2-0.4c-1.8,0.5-3.7,1.1-5.5,1.5c-1.4,0.3-2.8,0.5-4.2,0.5
	c-1.4,0-2.3-0.8-3-2.5c1.7,0.3,3,0.5,4.3,0.7c0.1-0.1,0.2-0.2,0.2-0.4c-0.6-0.7-1.2-1.4-1.7-2.1c0.9-0.3,1.8-0.6,2.7-0.8
	c-0.2-0.2-0.4-0.5-0.8-0.9c0.5-0.4,1.1-0.8,1.7-1.3c-2.8,0.1-5.3,0.3-7.8,0.3c-2.6,0-5.2,0.3-7.4-1c0.4-0.7,0.8-1.3,1.3-2
	c2.2,2.6,4.5,0.1,7.4-0.1c-1.3-1.2-2.1-1.9-3.2-2.9c1.9,0.2,3.5,0.3,5.4,0.5c-0.4-1.8,0.6-2.2,1.8-2.6c1.3-0.5,2.3-1.6,3.7-2.6
	c-3.1-2.2-6.1-3.4-9.6-1.8c0-0.1-0.1-0.3-0.1-0.4c0.7-0.5,1.3-1.1,2-1.6c-0.1-0.1-0.1-0.3-0.2-0.4c-0.7,0.2-1.4,0.3-2.3,0.5
	c0.3-0.7,0.5-1.1,0.6-1.6c-2.5,1.7-5.1,2.8-8.2,2.1c-2.8-0.6-5.8-0.8-6.5-4.7c1.6,2.2,3.9,0.9,5.8,1.8c0.2-0.6,0.3-1,0.5-1.7
	c0.7,0.4,1.3,0.7,1.9,1.1c1.1,0.6,1.7,0.5,1.5-1.1c2,0,3.9,0,6.2,0c-0.4-0.8-0.6-1.3-0.9-1.7c0.2-0.8,2.5-0.3,1.4-2.1
	c1.4-1,2.8-2,4.6-3.3c-2.1-0.6-3.8-1.1-5.6-1.6c0-0.1,0.1-0.5,0.3-1.2c-2.3,0.5-4.4,1-6.5,1.5c0.2-1.2,0.4-2.1,0.6-3.5
	c-6.7,4.3-11.5,0.2-16.6-2.3c0-0.2,0.1-0.4,0.1-0.7c1.8,0.4,3.7,0.8,5.6,1.3c0.1-0.4,0.1-0.9,0.2-1.4c1.3,0.1,2.3,2.6,3.7,0.8
	c1,0.4,2.2,1.4,3,1.2c1.1-0.3,2.4-1.2,1.8-3c0.9,0.2,1.6,0.3,2.3,0.5c0.1-0.7,0.2-1.3,0.2-1.9c0.2,0,0.3,0,0.5,0
	c-0.3-0.5-0.6-1-0.9-1.5c0.1-0.1,0.2-0.2,0.2-0.3c0.6,0.4,1.1,0.9,1.7,1.2c0.6,0.2,1.3,0.1,2.2,0.2c-0.1-0.7-0.3-1.2-0.3-1.6
	c1.3-0.7,2.6-1.3,3.8-1.9c0-0.2-0.1-0.3-0.1-0.5c-1.4,0-2.7,0-4.3,0c0.3-0.6,0.5-1,0.9-1.9c-1.7,0.9-3,1.6-4.1,2.2
	c-0.3-0.5-0.6-1-1-1.6c0.1-0.2,0.4-0.7,0.7-1.1c-0.1-0.1-0.2-0.2-0.2-0.3c-0.8,0.6-1.7,1-2.4,1.7c-1.6,1.6-3.3,1.9-5.3,1.1
	c-1.8-0.8-3.7-1.5-5.5-2.4c-0.7-0.4-1.2-1.2-1.8-1.8c0.2-0.2,0.3-0.4,0.5-0.6c0.7,0.4,1.4,0.7,2,1.2c1.1,0.9,1.6,0.8,2.1-0.7
	c0.5,0.5,1,1,1.6,1.3c0.5,0.3,1.1,0.4,1.9,0.6c0.1-0.7,0.1-1.1,0.1-1.5c0-0.5,0-0.9,0.1-1.5c1.9,0.1,3,2.7,5.5,1.7
	c-1.1-0.9-2-1.6-3-2.4c0.1-0.2,0.2-0.3,0.4-0.5c1.5,0.7,3.1,1.4,4.6,2.1c0.1-0.1,0.2-0.3,0.3-0.4c-0.3-0.4-0.5-0.7-0.9-1.3
	c0.9-0.3,1.8-0.7,2.8-1c-0.3-0.3-0.5-0.7-0.9-1c1.4-0.2,3,0.4,3.9-1.5c-0.4-0.2-0.8-0.5-1.2-0.6c-1.2-0.5-2.7,0.2-3.8-1.1
	c-0.3-0.3-1.8,0.3-2.7,0.5c-0.7,0.2-1.3,0.6-2,0.9c-0.5-1-1-1.8-1.5-2.7c-0.6,0.2-1.3,0.4-1.9,0.6c-0.1-0.5-0.2-1-0.4-1.7
	c-2.5,1.9-5,3.7-8,1.9c0.3-0.7,0.5-1.3,0.8-1.9c-0.6-0.2-1.3-0.5-1.9-0.4c-3.3,0.6-4.9-2.1-4.5-5.7c0.1,2,0.6,3.8,2.6,5
	c0.4-0.7,0.8-1.4,1.2-2.1c0.7,1.3,1.6,2.6,3.7,2.3c-0.2-0.7-0.3-1.2-0.5-1.8c0.4-0.3,0.8-0.6,1-0.8c1.2,1.2,2.4,2.4,3.7,3.8
	c0.4-0.8,0.7-1.1,0.7-1.4c0.2-1.2,0.5-1.7,1.8-0.8c0.9,0.6,3.9-0.4,5.5-2c-2.5-1.2-4.9-2.4-7.3-3.6c0.1-0.3,0.3-0.7,0.5-1.1
	c-2-1.8-3.6,0.8-5.4,0.4c0.3-1,2.7-0.3,1.6-2.1c1-0.6,1.9-1.1,2.8-1.6c0-0.2-0.1-0.4-0.1-0.5c-1.5-0.3-2.9-0.5-4.4-0.8
	c0.5-2.1,0.5-2.1,2.6-1c1.4-0.9,2.6-1.8,4.3-2.9c-1.4-0.5-2.5-0.9-3.8-1.5c1.1-1.1,2.1-2.2,3.4-3.6c-1.3-0.2-2.2-0.4-3.4-0.6
	c0.5-0.7,1-1.3,1.3-2c0.2-0.4,0.1-1,0.1-1.6c-0.5,0.1-1,0.1-1.3,0.4c-0.7,0.7-1.2,1.5-1.9,2.3c-0.9-0.7-1.4-1.1-2.1-1.7
	c-2.3,3.1-3,7.6-7.3,8.7c-0.3-2.2-0.7-4.4-0.9-6.6c-0.2-1.5,0.4-2.6,2.3-2.5c0.1,0.5,0.1,1.1,0.2,1.6c1.6-0.5,3.2-0.9,4.8-1.4
	c-0.7-2-2.5-2.6-4.3-3.3c2-0.7,4.2,0.8,6.4-0.6c-1.2-0.7-2.2-1.3-3.2-2c0.9-0.8,1.7-1.6,2.6-2.3c-0.1-0.2-0.2-0.4-0.3-0.6
	c-1.5,0.6-3,1.2-4.5,1.8c0-0.4-0.1-0.8-0.1-1.3c-0.1-0.1-0.3-0.2-0.4-0.2c-1.1,1.7-2.2,3.4-3.3,5.1c-0.2-0.1-0.3-0.2-0.5-0.3
	c-0.1-1.9,0.3-3.7,1.6-5.2c0.9-1.1,1.7-2.2,2.5-3.3c0.2-0.3,0.1-0.8,0.2-1.2c-0.4,0-0.9-0.1-1.3,0.1c-1,0.5-1.8,1.1-2.7,1.7
	c-0.5-1.4,0.7-4.1-1.4-5.8c-0.2,0-0.5,0-0.7,0c0,2.6,0,5.1,0,8.2c-1.5-1.4-2.6-2.4-3.9-3.7c-0.6,2,0.5,3.2,1.4,4.1
	c1.8,1.8,2.2,4,2.1,6.3c0,0.2-0.1,0.3-0.1,0.5c0,0-0.1,0.1-0.5,0.3c-0.8-2.2-1.5-4.3-2.3-6.4c-0.2,0-0.4,0-0.6,0.1
	c-0.3,0.6-0.5,1.3-0.9,2.2c-0.6-0.4-1.3-1-2-1.3c-0.4-0.2-1-0.1-1.6-0.1c0,0.5-0.1,1.1,0.1,1.4c0.6,0.9,1.4,1.7,1.9,2.6
	c0.2,0.4,0.1,1.1,0,1.5c-0.1,0.5-0.5,1-0.7,1.6c0.7,0.1,1.4,0.2,2.1,0.3c0.2,0,0.4-0.2,0.8-0.5c0.1,0.9,0.1,1.7,0.2,2.7
	c-1.2-0.5-2.1-0.9-3.2-1.4c-0.8,2.1,1.2,2.6,1.9,3.9c-0.4,0.1-0.8,0-1,0.2c-1.1,1.7-2.2,0.7-3.3,0c-1.5-0.9-2.9-1.7-4.5-2.6
	c-0.7,2.3,0.8,2.9,2.1,3.9c-0.5,0.1-0.8,0.1-1,0.3c-0.4,0.3-0.8,0.6-1.3,1c0.5,0.3,1,0.5,1.4,0.8c0.5,0.3,1.1,0.4,1.4,0.8
	c0.5,0.6,0.8,1.4,1.2,2.1c-0.6,0.1-1.5,0.2-2.2,0.5c-0.5,0.2-0.8,0.8-1.1,1.2c0.5,0.4,1.2,1.1,1.6,1c1.3-0.3,2.4-0.5,3.5,0.6
	c0.2,0.2,0.9-0.1,1.4-0.3c0.5-0.2,1.1-0.5,1.8-0.4c-0.5,0.6-1,1.2-1.6,1.8c0.1,0.2,0.1,0.3,0.2,0.5c0.9-0.1,1.8-0.2,2.8-0.4
	c0,0.4,0,0.9,0,2c1.4-0.7,2.5-1.2,3.7-1.7c0.1,0.5,0.4,1.2,0.7,2.2c-3.5,0.5-6.7,1.3-9.7-0.8c-1-0.7-2.1-1.5-3.7-0.6
	c0.7,0.7,1.4,1.3,2,1.9c-0.1,0.2-0.2,0.3-0.3,0.5c-2.1-1.2-4.1-2.3-6.2-3.4c-0.6-0.3-1.4-0.4-2-0.5c-0.1,0.6-0.2,1.1-0.3,1.9
	c-1.5,0.2-3.1,0.5-5.2,0.9c2.2,2.4,4.6,2.2,7.3,2c-0.6,0.5-1,0.7-1.2,1c-0.3,0.4-0.4,0.9-0.6,1.4c0.5,0.1,1,0.4,1.4,0.3
	c0.7-0.2,1.3-0.7,1.9-1.1c0.6-0.4,1.2-0.8,1.7-1.2c0.1,0.1,0.2,0.2,0.3,0.3c-0.7,0.5-1.4,1-2,1.4c0,0.3,0,0.4,0.1,0.5
	c0.5,0.7,1.2,2.1,1.5,2c1.5-0.3,2.8-1.1,4.2-1.7c0.4-0.2,0.8-0.6,1.2-0.9c0.1,0.1,0.2,0.2,0.3,0.4c-0.7,0.5-1.4,0.9-2,1.5
	c-0.4,0.5-0.7,1.1-1.1,1.6c0.7,0,1.4-0.1,2-0.1c0.1,0,0.3-0.2,0.5-0.4c0.1,0.5,0.2,0.9,0.3,1.8c0.8-0.9,1.4-1.5,2.1-2.2
	c2.6,0.5,6.2-1.1,7.3-3.5c0.1,0,0.3,0.1,0.4,0.1c-0.3,0.7-0.4,1.6-0.9,2c-2.5,1.7-5.1,3.4-7.6,4.9c-0.4,0.2-1.1,0-1.6-0.2
	c-1.5-0.6-2.9-1.3-4.3-1.9c-0.1,0.1-0.2,0.2-0.4,0.3c0.2,0.6,0.4,1.1,0.8,2c-1.7-0.5-3.2-0.9-4.8-1.3c-0.1,0.5-0.2,0.9-0.3,1.3
	c-1.5,0.8-4-1.6-4.9,1.7c0.7,0.1,1.2,0.1,1.8,0.2c-0.3,0.5-0.6,0.9-0.9,1.5c0.8,0,1.4,0.1,2.2,0.1c0.1,0.4,0.2,0.8,0.3,1.3
	c0.5,0,1,0.1,1.6,0.1c0.1,0.4,0.1,0.9,0.1,0.9c1.1,0.3,2.1,0.4,2.9,0.9c0.2,0.1,0,1.1,0,2.1c-2-1.9-3.8-1.6-5.8-0.7
	c0.7,1,2.2,1.9,1,3.7c-1.3-0.8-2.6-1.6-4-2.4c-0.1,0.1-0.2,0.3-0.4,0.4c0.1,0.6,0.3,1.1,0.4,1.9c-1.7-0.2-3.4-0.5-5-0.7
	c-0.1,0.2-0.2,0.5-0.3,0.7c1.2,0.7,2.4,1.3,3.8,2.1c-0.7,1.1,0.1,1.2,1.2,1.5c1.6,0.4,3,1.4,4.5,2.2c0,0.2,0,0.4,0,0.6
	c0.3-0.5,0.6-1,1-1.5c2.2,2.3,4.3,4.4,6.4,6.5c-3.6,1.1-7.4,2.8-11.3-0.3c-0.1,0.7-0.1,0.9-0.2,1.2c0,0.3,0,0.6,0,0.8
	c-1.5,1.3-3.4-1.6-4.7,0.6c0.9,1,1.8,2,2.8,3c-0.1,0.1-0.2,0.3-0.4,0.4c0.6,0.1,1.1,0.1,1.7,0.2c0.7,2.2,0.9,2.3,3,1.5
	c-0.1,2.6,2.1,1,3.1,1.6c-1.5,1.6-4.4,1.9-6.3,0.8c-0.8-0.5-1.7-1.4-2.2,0.3c-0.1,0.2-0.7,0.2-1.1,0.2c-0.8,0-1.6,0-2.5,0
	c0,0.2-0.1,0.3-0.1,0.5c0.5,0.3,1,0.5,1.5,0.8c0.4,0.2,0.9,0.4,1.1,0.8c1.2,1.8,1.1,1.8,3.3,1.4c0.1,0.5,0.2,1,0.2,1.3
	c1.1,0.6,2,1.2,3.1,1.6c0.4,0.2,1.2,0.2,1.5-0.1c0.8-0.5,1.4-1.3,2.2-1.9c1.1-0.9,1.9-0.7,2.9,0.6c-0.9,0.1-1.6,0.1-2.8,0.2
	c0.4,1,0.8,1.9,1.1,2.7c-1.1,0.6-2.2,1.3-3.4,1.6c-2.4,0.6-4.9,1-7.3,1.5c-1,0.2-2.1,0-2.4,1.5c-0.1,0.4-1,0.7-1.5,0.8
	c-1,0.2-2.1,0.1-3.5,0.2c1.2,1.8,2.7,2.2,4.6,2.4c-0.4,0.6-0.7,1-1.1,1.6c0.6,0.1,1.1,0.1,1.5,0.4c0.3,0.2,0.5,0.7,0.7,1
	c1.2-0.1,2.4-0.3,3.8-0.4c0.1,0.7,0.2,1.2,0.3,1.7c0.2,0.2,0.4,0.3,0.6,0.5c0.4-0.6,0.9-1.2,1.1-1.5c0.8,0.4,1.6,0.9,2.5,1.1
	c1.7,0.4,2.2-1,2.8-2.4c0.3,0.7,0.6,1.2,0.9,1.9c0.5-0.6,0.9-1.2,1.5-1.8c0.2,0.6,0.5,1.1,0.8,2c0.5-1.1,0.9-1.8,1.1-2.3
	c1,0.2,1.9,0.3,3.4,0.5c-3.5,2.4-7.1,3.3-11,3.8c0.7,2.2,2.6,1.6,4.2,2.3c-0.5,0.2-1,0.5-1.5,0.6c-3.6,0.3-7.2,0.5-10.8,0.9
	c-3.3,0.3-6.5,0.7-10,1.1c0.7,2,2.4,1.5,3.8,2.1c-1,0.8-1.8,1.5-2.5,2.1c1.6,0.6,3.1,1.3,4.6,1.6c0.8,0.1,1.8-0.5,2.8-0.9
	c-0.3,0.5-0.6,1.1-1,1.7c0.1,0.1,0.1,0.3,0.2,0.4c0.8-0.3,1.7-0.5,2.6-0.8c1.7,1.6,1.7,1.6,4.3,0.2c0.1,0.7,0.2,1.5,0.3,2.2
	c1-0.3,2-0.7,2.9-1c-0.1,0.2-0.2,0.7-0.3,1.4c2.6-0.1,4.9,0.7,7.3,1.4c-5.3,2-10.5,4.8-16.5,1.5c0,0.2,0,0.4,0,0.6
	c0.3,0.4,0.6,0.8,1.1,1.5c-3.6-0.5-6.9-1-10.2-1.5c-0.1,0.1-0.2,0.2-0.2,0.4c1.4,0.8,2.8,1.6,4.2,2.5c-0.2,0.1-0.6,0.1-0.9,0.3
	c-0.2,0.1-0.6,0.5-0.5,0.7c0,0.3,0.4,0.6,0.6,0.7c0.8,0.2,1.7,0.3,2.7,0.5c-0.3,0.5-0.6,1-1.1,1.7c0.9-0.2,1.5-0.3,2.1-0.4
	c1.1,2.1,2.8,0.4,4.3,0.6c-0.1,0.2-0.2,0.5-0.3,0.9c0.7,0.4,2.4-0.6,2.1,1.5c0.7-0.5,1.1-0.7,1.6-1.2c-0.3,0.8-0.5,1.4-0.9,2.6
	c1.6-0.6,2.9-1,4.7-1.6c-0.9,1-1.4,2-2.1,2.3c-2.3,0.9-4.6,1.7-7,2.3c-0.7,0.2-1.7-0.3-2.5-0.4c-1.3-0.3-2.6-0.6-3.9-0.8
	c-1-0.1-1.7,0.1-0.8,1.5c-1.9-0.3-3.6-0.6-5.3-0.9c-0.1,0.1-0.2,0.3-0.2,0.4c0.4,0.6,0.9,1.2,1.4,2c-2.1-0.2-4.1-1.3-6-0.2
	c-0.1,0.2-0.1,0.4-0.2,0.6c1.8,0.6,3.7,1.2,5.4,1.7c-0.5,0.7-1.1,1.5-1.8,2.4c0.2,0,0.5,0,0.7,0c0.5,0.7,0.9,1.5,1.4,2.2
	c0.8,1.1,4,1.3,5.2,0.4c1.2,0.7,1.9,1.6,0.8,2.9c-2.1,0.4-4.3,0.8-6.4,1.1c0.4,1.7,1.4,1.9,5.4,1.2c-1.1,0.6-1.7,1-2.3,1.4
	c-0.3,0.3-0.4,0.8-0.6,1.2c0.4,0.1,0.8,0.3,1.2,0.4c0.8,0.2,1.7,0.4,2.5,0.6c0,0.2-0.1,0.5-0.2,1c1.1-0.3,2-0.6,3.3-1
	c-0.5,0.6-0.7,0.9-1.3,1.7c1.3-0.2,2.1-0.4,3-0.5c0.2,0.3,0.5,0.6,1.2,1.4c-5,0-9.6,0-14.2,0c0,0.2,0,0.4,0,0.6
	c0.8,0.5,1.6,0.9,2.4,1.4c-0.1,0.1-0.1,0.3-0.2,0.4c-1.7,0.3-3.4,0.7-5.1,1c0,0.2,0,0.5,0.1,0.7c2.1,1.7,4.4,0.3,6.7-0.1
	c-0.6,1-1.2,2-1.8,2.9c0.1,0.1,0.3,0.3,0.4,0.4c1.1-0.3,2.1-0.6,3.3-0.9c0.2,0.9,0.5,1.8,0.8,3.1c1.3-0.8,2.5-1.4,3.8-2.2
	c-0.2,1.1-0.4,2.1-0.6,3c0.1,0.1,0.2,0.2,0.4,0.3c1.6-1.4,3.3-2.7,4.9-4.1c-0.3,0.9-0.7,1.9-1,2.8c0.2,0.1,0.3,0.2,0.5,0.3
	c0.7-0.5,1.4-1,2.1-1.6c0.4,1.3-0.3,2-1.4,2.1c-2.8,0.4-5.6,1.4-8.4,0c-0.7-0.3-1.8-0.9-2.3,0.7c-0.6,0-1.4-0.1-2.4-0.1
	c0.1,0.5,0.2,0.9,0.3,1.3c-1.4,0.1-2.8,0.2-4.2,0.3c0,0.2,0,0.4,0,0.7c0.8,0.2,1.7,0.4,2.8,0.8c-1.8,1.1-3.4,2-5,2.9
	c0,0.1,0,0.2,0,0.3c1.9-0.3,3.8-0.6,5.6-0.8c-0.4,0.6-0.9,1.2-1.7,2.1c1,0,1.6,0,2.3,0c-0.2,0.5-0.3,0.9-0.7,1.9
	c1.4-0.7,2.4-1.2,3.6-1.7c-0.1,0.5-0.1,0.8-0.2,1.5c1.2-0.2,2.2-0.5,3.3-0.7c0,0.2,0.1,0.7,0.2,1.2c1.8-0.5,3.5-0.9,5.2-1.4
	c0.1,0.2,0.1,0.4,0.2,0.6c-2.2,0.6-4.4,1.2-6.6,1.8c1.3,2,2.8,0.5,4.2,0.8c-0.8,0.9-1.5,1.7-2.2,2.6c0.1,0.1,0.1,0.3,0.2,0.4
	c1.6-0.5,3.3-1,5.1-1.5c-0.4,0.9-0.8,1.7-1.2,2.4c0.3,0.1,0.6,0.3,0.9,0.4c-4.9,4.5-9,8.6-10.3,10.8c-3.9,6.5-49.3,54.5-53.2,59.7
	c-3.9,5.2-22.1,55.8-23.4,66.2c-0.6,5.2-11.9,19.7-23.9,33.6c-0.5,0.1-1,0.3-1.6,0.4c0.1-0.9,0.2-1.5,0.3-2.6
	c-5.8,2.9-10.9,1.1-15.9-1.7c2,0.3,3.6-1.8,5.9-0.2c1,0.7,3,0.1,5.2,0.1c-0.7-1.1-1-1.6-1.5-2.3c1,0.3,1.7,0.6,2.4,0.8
	c0.6-1.8,4.2-2.5,1.7-5.3c0.8-0.9,1.5-1.9,2.2-2.8c-0.1-0.2-0.2-0.3-0.3-0.5c-2.2,0.6-4.3,1.3-6.6,1.7c-1.6,0.4-3.3,0.6-5,0.6
	c-1.6,0-2.7-1-3.6-3c2,0.3,3.5,0.6,5.1,0.9c0.1-0.1,0.2-0.3,0.3-0.4c-0.7-0.8-1.4-1.6-2.1-2.4c1-0.3,2.1-0.7,3.1-1
	c-0.2-0.3-0.5-0.5-1-1.1c0.6-0.4,1.3-0.9,2.1-1.5c-3.3,0.2-6.2,0.4-9.2,0.4c-3,0-6.1,0.3-8.8-1.2c0.5-0.8,1-1.5,1.5-2.3
	c2.6,3.1,5.3,0.1,8.7-0.1c-1.5-1.4-2.5-2.3-3.7-3.4c2.2,0.2,4.2,0.4,6.3,0.6c-0.4-2.1,0.7-2.5,2.2-3.1c1.5-0.6,2.7-1.9,4.4-3
	c-3.7-2.6-7.2-4.1-11.4-2.1c0-0.2-0.1-0.3-0.1-0.5c0.8-0.6,1.5-1.3,2.3-1.9c-0.1-0.2-0.2-0.3-0.3-0.5c-0.8,0.2-1.7,0.4-2.7,0.6
	c0.3-0.8,0.5-1.4,0.8-1.9c-3,2.1-6.1,3.3-9.7,2.5c-3.3-0.7-6.8-0.9-7.7-5.5c1.9,2.6,4.7,1.1,6.9,2.1c0.2-0.7,0.4-1.2,0.6-2
	c0.8,0.5,1.6,0.9,2.3,1.3c1.3,0.8,2,0.6,1.8-1.3c2.4,0,4.7,0,7.3,0c-0.5-1-0.8-1.5-1-2c0.3-1,3-0.4,1.7-2.5c1.6-1.2,3.4-2.4,5.4-3.9
	c-2.4-0.7-4.4-1.3-6.6-1.9c0-0.1,0.1-0.6,0.3-1.4c-2.7,0.6-5.2,1.2-7.7,1.8c0.2-1.4,0.4-2.5,0.7-4.1c-8,5.1-13.6,0.3-19.6-2.7
	c0.1-0.3,0.1-0.5,0.2-0.8c2.2,0.5,4.4,1,6.6,1.5c0.1-0.4,0.2-1.1,0.3-1.7c1.6,0.1,2.8,3.1,4.3,0.9c1.2,0.5,2.6,1.6,3.6,1.4
	c1.3-0.3,2.9-1.4,2.1-3.6c1,0.2,1.9,0.4,2.7,0.6c0.1-0.8,0.2-1.5,0.3-2.3c0.2,0,0.4,0,0.6,0c-0.3-0.6-0.7-1.2-1-1.8
	c0.1-0.1,0.2-0.2,0.3-0.3c0.7,0.5,1.3,1.1,2,1.4c0.7,0.3,1.6,0.2,2.6,0.2c-0.2-0.9-0.3-1.5-0.4-1.9c1.6-0.8,3.1-1.5,4.5-2.2
	c0-0.2-0.1-0.4-0.1-0.6c-1.6,0-3.2,0-5.1,0c0.4-0.8,0.6-1.2,1.1-2.2c-2,1.1-3.5,1.9-4.9,2.6c-0.4-0.6-0.7-1.1-1.2-1.9
	c0.2-0.2,0.5-0.8,0.8-1.3c-0.1-0.1-0.2-0.2-0.3-0.4c-1,0.7-2.1,1.2-2.9,2c-1.9,1.8-3.9,2.3-6.3,1.3c-2.2-0.9-4.4-1.7-6.5-2.8
	c-0.9-0.4-1.4-1.4-2.2-2.2c0.2-0.2,0.4-0.5,0.5-0.7c0.8,0.5,1.6,0.8,2.3,1.4c1.3,1.1,1.9,0.9,2.5-0.8c0.6,0.5,1.2,1.2,1.9,1.5
	c0.6,0.3,1.3,0.5,2.2,0.7c0.1-0.8,0.1-1.3,0.2-1.8c0-0.5,0.1-1.1,0.1-1.8c2.3,0.2,3.5,3.1,6.5,2c-1.3-1-2.4-1.9-3.5-2.8
	c0.1-0.2,0.3-0.4,0.4-0.6c1.8,0.8,3.6,1.6,5.5,2.4c0.1-0.2,0.2-0.3,0.3-0.5c-0.3-0.4-0.6-0.9-1.1-1.6c1.1-0.4,2.1-0.8,3.3-1.2
	c-0.3-0.4-0.6-0.8-1-1.2c1.7-0.2,3.6,0.5,4.6-1.7c-0.5-0.3-0.9-0.5-1.4-0.7c-1.4-0.5-3.2,0.2-4.4-1.3c-0.3-0.4-2.1,0.3-3.2,0.6
	c-0.8,0.2-1.6,0.7-2.4,1.1c-0.6-1.1-1.2-2.2-1.8-3.2c-0.7,0.2-1.5,0.5-2.3,0.7c-0.2-0.6-0.3-1.2-0.5-2c-3,2.3-5.9,4.4-9.5,2.3
	c0.3-0.8,0.6-1.5,1-2.2c-0.7-0.2-1.5-0.6-2.2-0.5c-3.9,0.7-5.8-2.5-5.3-6.8c0.2,2.4,0.7,4.5,3.1,6c0.5-0.9,1-1.7,1.5-2.5
	c0.9,1.6,1.9,3.1,4.4,2.7c-0.2-0.8-0.4-1.5-0.6-2.2c0.5-0.3,0.9-0.7,1.2-0.9c1.4,1.4,2.8,2.8,4.4,4.4c0.5-0.9,0.8-1.3,0.8-1.7
	c0.2-1.4,0.6-2,2.1-1c1.1,0.8,4.6-0.5,6.5-2.4c-3-1.5-5.8-2.8-8.7-4.3c0.1-0.3,0.4-0.8,0.6-1.3c-2.3-2.2-4.2,1-6.4,0.5
	c0.3-1.2,3.2-0.4,1.9-2.5c1.1-0.7,2.2-1.3,3.3-1.9c0-0.2-0.1-0.4-0.1-0.6c-1.7-0.3-3.5-0.6-5.2-1c0.6-2.5,0.6-2.5,3-1.2
	c1.6-1.1,3.1-2.1,5.1-3.5c-1.6-0.6-2.9-1.1-4.5-1.7c1.3-1.3,2.5-2.6,4-4.3c-1.5-0.3-2.7-0.5-4-0.7c0.6-0.8,1.2-1.5,1.6-2.3
	c0.2-0.5,0.1-1.2,0.1-1.8c-0.5,0.2-1.2,0.2-1.6,0.5c-0.8,0.8-1.5,1.8-2.2,2.7c-1-0.8-1.6-1.3-2.5-2c-2.7,3.7-3.5,9-8.7,10.3
	c-0.4-2.6-0.8-5.2-1.1-7.8c-0.2-1.8,0.5-3.1,2.7-3c0.1,0.6,0.2,1.2,0.3,1.9c1.9-0.6,3.8-1.1,5.7-1.7c-0.8-2.4-2.9-3.1-5-3.9
	c2.4-0.8,5,1,7.6-0.7c-1.4-0.9-2.6-1.6-3.8-2.3c1-0.9,2-1.8,3-2.7c-0.1-0.2-0.3-0.5-0.4-0.7c-1.8,0.7-3.5,1.4-5.3,2.2
	c0-0.4-0.1-1-0.1-1.6c-0.2-0.1-0.3-0.2-0.5-0.3c-1.3,2-2.6,4-3.9,6.1c-0.2-0.1-0.4-0.2-0.6-0.3c-0.1-2.3,0.3-4.4,1.9-6.2
	c1.1-1.2,2-2.5,3-3.9c0.2-0.4,0.1-1,0.2-1.5c-0.5,0-1.1-0.1-1.5,0.1c-1.1,0.6-2.2,1.3-3.2,2c-0.6-1.7,0.8-4.8-1.6-6.9
	c-0.3,0-0.5,0-0.8,0c0,3,0,6.1,0,9.6c-1.7-1.6-3-2.9-4.7-4.4c-0.7,2.4,0.6,3.7,1.7,4.8c2.2,2.1,2.6,4.7,2.4,7.5
	c0,0.2-0.1,0.4-0.1,0.6c0,0.1-0.1,0.1-0.5,0.4c-0.9-2.6-1.8-5.1-2.7-7.6c-0.2,0-0.5,0.1-0.7,0.1c-0.3,0.8-0.6,1.5-1.1,2.6
	c-0.7-0.5-1.5-1.1-2.4-1.5c-0.5-0.2-1.2-0.1-1.8-0.1c0,0.6-0.2,1.3,0.1,1.7c0.7,1.1,1.6,2,2.3,3.1c0.3,0.5,0.1,1.2,0,1.8
	c-0.2,0.6-0.6,1.2-0.9,1.8c0.8,0.1,1.7,0.3,2.5,0.3c0.2,0,0.4-0.3,0.9-0.6c0.1,1.1,0.1,2,0.2,3.1c-1.4-0.6-2.5-1.1-3.7-1.6
	c-0.9,2.5,1.4,3.1,2.3,4.6c-0.4,0.1-1,0-1.1,0.2c-1.3,2-2.6,0.8-3.9,0c-1.7-1-3.5-2-5.4-3.1c-0.9,2.7,0.9,3.5,2.5,4.7
	c-0.6,0.1-0.9,0.1-1.2,0.3c-0.5,0.3-1,0.8-1.5,1.2c0.6,0.3,1.1,0.6,1.7,0.9c0.6,0.3,1.3,0.5,1.6,1c0.6,0.7,0.9,1.6,1.4,2.5
	c-0.8,0.2-1.7,0.2-2.5,0.6c-0.6,0.2-0.9,0.9-1.3,1.4c0.6,0.4,1.4,1.3,1.9,1.2c1.5-0.3,2.9-0.6,4.1,0.7c0.2,0.2,1.1-0.1,1.6-0.3
	c0.6-0.2,1.2-0.6,2.1-0.5c-0.6,0.7-1.2,1.4-1.8,2.1c0.1,0.2,0.1,0.4,0.2,0.6c1.1-0.1,2.2-0.3,3.3-0.4c0,0.4,0,1.1,0,2.4
	c1.6-0.8,2.9-1.4,4.4-2.1c0.2,0.5,0.5,1.5,0.9,2.6c-4.1,0.6-7.9,1.6-11.5-0.9c-1.1-0.8-2.4-1.8-4.4-0.7c0.9,0.8,1.6,1.5,2.3,2.2
	c-0.1,0.2-0.2,0.4-0.3,0.5c-2.4-1.4-4.9-2.8-7.3-4.1c-0.7-0.4-1.6-0.4-2.4-0.6c-0.1,0.7-0.2,1.3-0.4,2.2c-1.7,0.3-3.7,0.6-6.2,1
	c2.6,2.9,5.4,2.7,8.6,2.3c-0.7,0.5-1.2,0.8-1.5,1.2c-0.3,0.5-0.5,1.1-0.8,1.7c0.6,0.1,1.2,0.5,1.6,0.4c0.8-0.2,1.5-0.8,2.3-1.2
	c0.7-0.4,1.4-0.9,2.1-1.4c0.1,0.1,0.2,0.3,0.3,0.4c-0.8,0.6-1.6,1.1-2.3,1.6c0,0.4,0,0.5,0.1,0.6c0.6,0.8,1.4,2.4,1.8,2.3
	c1.7-0.4,3.3-1.3,5-2c0.5-0.2,0.9-0.7,1.4-1c0.1,0.1,0.2,0.3,0.3,0.4c-0.8,0.6-1.6,1.1-2.3,1.8c-0.5,0.5-0.8,1.3-1.3,1.9
	c0.8,0,1.6-0.1,2.4-0.1c0.2,0,0.3-0.2,0.6-0.5c0.1,0.6,0.2,1.1,0.4,2.1c1-1,1.7-1.8,2.4-2.6c3.1,0.6,7.3-1.4,8.6-4.2
	c0.2,0.1,0.3,0.1,0.5,0.2c-0.3,0.8-0.4,1.9-1,2.4c-2.9,2.1-6,4-9,5.8c-0.4,0.3-1.3,0-1.8-0.2c-1.7-0.7-3.4-1.5-5.1-2.3
	c-0.1,0.1-0.3,0.3-0.4,0.4c0.3,0.7,0.5,1.3,0.9,2.3c-2-0.5-3.7-1-5.6-1.6c-0.1,0.5-0.3,1.1-0.4,1.5c-1.8,1-4.7-1.9-5.8,2
	c0.8,0.1,1.4,0.1,2.1,0.2c-0.4,0.6-0.7,1.1-1.1,1.7c1,0.1,1.7,0.1,2.6,0.1c0.1,0.4,0.3,0.9,0.4,1.5c0.6,0,1.1,0.1,1.9,0.1
	c0.1,0.5,0.2,1,0.2,1.1c1.3,0.4,2.4,0.5,3.4,1c0.3,0.1,0,1.3,0,2.5c-2.3-2.3-4.5-1.9-6.8-0.8c0.8,1.2,2.6,2.3,1.2,4.4
	c-1.5-0.9-3.1-1.9-4.7-2.8c-0.1,0.2-0.3,0.3-0.4,0.5c0.2,0.7,0.3,1.4,0.5,2.3c-2.1-0.3-4-0.6-5.9-0.8c-0.1,0.3-0.2,0.6-0.3,0.8
	c1.4,0.8,2.9,1.6,4.4,2.5c-0.8,1.3,0.1,1.4,1.4,1.8c1.9,0.5,3.6,1.7,5.3,2.6c0,0.2,0,0.5,0,0.7c0.4-0.6,0.7-1.1,1.2-1.8
	c2.6,2.7,5.1,5.2,7.6,7.7c-4.3,1.3-8.7,3.3-13.3-0.3c-0.1,0.8-0.2,1.1-0.2,1.4c0,0.3,0,0.7,0,0.9c-1.7,1.6-4-1.9-5.5,0.7
	c1.1,1.2,2.2,2.3,3.3,3.5c-0.1,0.2-0.3,0.3-0.4,0.5c0.7,0.1,1.3,0.1,2,0.2c0.8,2.6,1,2.7,3.6,1.8c-0.1,3.1,2.4,1.2,3.7,1.9
	c-1.8,1.9-5.2,2.3-7.4,0.9c-0.9-0.5-2-1.7-2.6,0.4c-0.1,0.2-0.8,0.2-1.3,0.2c-1,0-1.9,0-2.9,0c0,0.2-0.1,0.4-0.1,0.6
	c0.6,0.3,1.2,0.6,1.8,1c0.5,0.3,1,0.5,1.3,0.9c1.4,2.1,1.3,2.1,3.9,1.7c0.1,0.6,0.2,1.2,0.3,1.6c1.3,0.7,2.4,1.4,3.6,1.9
	c0.5,0.2,1.4,0.2,1.8-0.1c1-0.6,1.7-1.6,2.6-2.3c1.3-1,2.2-0.8,3.4,0.8c-1,0.1-1.9,0.1-3.3,0.2c0.5,1.2,0.9,2.3,1.3,3.2
	c-1.3,0.7-2.6,1.6-4,1.9c-2.8,0.7-5.8,1.2-8.7,1.8c-1.2,0.2-2.5,0-2.8,1.7c-0.1,0.4-1.2,0.8-1.8,0.9c-1.2,0.2-2.5,0.2-4.1,0.3
	c1.4,2.1,3.2,2.6,5.4,2.9c-0.4,0.7-0.8,1.1-1.3,1.8c0.7,0.1,1.3,0.1,1.7,0.4c0.4,0.2,0.5,0.8,0.8,1.2c1.4-0.1,2.9-0.3,4.5-0.5
	c0.1,0.8,0.3,1.4,0.4,2c0.2,0.2,0.4,0.4,0.7,0.6c0.5-0.7,1-1.5,1.3-1.8c1,0.5,2,1.1,3,1.3c2,0.4,2.6-1.2,3.3-2.9
	c0.4,0.8,0.7,1.5,1.1,2.2c0.6-0.8,1.1-1.4,1.7-2.1c0.3,0.7,0.5,1.3,1,2.4c0.6-1.3,1-2.1,1.3-2.7c1.2,0.2,2.3,0.3,4,0.6
	c-4.2,2.9-8.4,3.9-13,4.5c0.8,2.6,3.1,1.9,4.9,2.8c-0.6,0.2-1.2,0.6-1.8,0.7c-4.3,0.4-8.5,0.6-12.8,1c-3.9,0.4-7.7,0.9-11.8,1.3
	c0.8,2.3,2.9,1.8,4.5,2.5c-1.2,0.9-2.2,1.8-3,2.4c1.9,0.7,3.6,1.6,5.5,1.9c1,0.2,2.1-0.6,3.3-1c-0.4,0.6-0.7,1.3-1.1,2
	c0.1,0.2,0.1,0.3,0.2,0.5c1-0.3,2-0.6,3.1-0.9c2,1.9,2,1.9,5.1,0.2c0.1,0.9,0.2,1.7,0.3,2.6c1.2-0.4,2.3-0.8,3.5-1.2
	c-0.1,0.3-0.2,0.8-0.4,1.6c3.1-0.1,5.8,0.8,8.7,1.7c-6.3,2.4-12.4,5.7-19.5,1.8c0,0.2,0,0.4,0,0.7c0.4,0.5,0.7,1,1.3,1.7
	c-4.2-0.6-8.2-1.2-12.1-1.8c-0.1,0.1-0.2,0.3-0.3,0.4c1.7,1,3.3,1.9,4.9,2.9c-0.2,0.1-0.7,0.1-1,0.3c-0.3,0.2-0.7,0.6-0.6,0.8
	c0,0.3,0.4,0.7,0.8,0.8c1,0.2,2,0.4,3.2,0.6c-0.4,0.6-0.8,1.1-1.4,2c1.1-0.2,1.8-0.4,2.5-0.5c1.4,2.5,3.3,0.5,5.1,0.7
	c-0.1,0.3-0.2,0.6-0.4,1.1c0.9,0.5,2.8-0.7,2.5,1.8c0.8-0.6,1.3-0.9,1.9-1.4c-0.3,0.9-0.6,1.7-1,3.1c1.9-0.7,3.4-1.2,5.5-1.9
	c-1,1.2-1.6,2.4-2.5,2.7c-2.7,1.1-5.5,2-8.3,2.7c-0.9,0.2-2-0.3-2.9-0.5c-1.5-0.3-3-0.7-4.6-1c-1.2-0.2-2.1,0.1-0.9,1.8
	c-2.3-0.4-4.3-0.7-6.3-1.1c-0.1,0.2-0.2,0.3-0.3,0.5c0.5,0.7,1,1.5,1.7,2.4c-2.5-0.2-4.8-1.5-7.1-0.3c-0.1,0.2-0.1,0.5-0.2,0.7
	c2.2,0.7,4.3,1.4,6.4,2c-0.6,0.8-1.3,1.8-2.1,2.8c0.3,0,0.6,0,0.9,0c0.5,0.9,1,1.7,1.6,2.6c0.9,1.3,4.7,1.6,6.2,0.4
	c1.4,0.9,2.3,1.9,1,3.4c-2.5,0.5-5.1,0.9-7.6,1.4c0.4,2,1.7,2.3,6.3,1.4c-1.2,0.8-2,1.1-2.7,1.7c-0.4,0.3-0.5,1-0.8,1.5
	c0.5,0.1,0.9,0.3,1.4,0.4c1,0.2,2,0.5,3,0.7c0,0.3-0.1,0.6-0.2,1.2c1.3-0.4,2.4-0.8,3.9-1.2c-0.5,0.7-0.8,1.1-1.5,2
	c1.5-0.3,2.5-0.4,3.6-0.6c0.3,0.3,0.6,0.7,1.5,1.7c-5.9,0-11.3,0-16.8,0c0,0.2,0,0.4-0.1,0.7c1,0.5,1.9,1.1,2.9,1.6
	c-0.1,0.2-0.1,0.3-0.2,0.5c-2,0.4-4.1,0.8-6.1,1.2c0,0.3,0.1,0.6,0.1,0.8c2.5,2.1,5.2,0.4,7.9-0.1c-0.7,1.2-1.4,2.3-2.1,3.5
	c0.2,0.2,0.3,0.4,0.5,0.5c1.3-0.3,2.5-0.7,3.9-1c0.3,1.1,0.6,2.2,0.9,3.7c1.6-0.9,2.9-1.7,4.5-2.6c-0.2,1.3-0.5,2.4-0.7,3.6
	c0.1,0.1,0.3,0.2,0.4,0.3c1.9-1.6,3.9-3.2,5.8-4.8c-0.4,1.1-0.8,2.2-1.2,3.3c0.2,0.1,0.4,0.3,0.6,0.4c0.8-0.6,1.6-1.2,2.5-1.8
	c0.4,1.6-0.4,2.3-1.7,2.5c-3.3,0.5-6.6,1.6-10,0c-0.8-0.4-2.1-1-2.7,0.8c-0.7,0-1.7-0.1-2.8-0.1c0.1,0.6,0.2,1.1,0.3,1.6
	c-1.7,0.1-3.4,0.3-5,0.4c0,0.3,0,0.5,0,0.8c1,0.3,2,0.5,3.3,0.9c-2.1,1.3-4,2.4-5.9,3.5c0,0.1,0,0.3,0,0.4c2.2-0.3,4.5-0.7,6.6-1
	c-0.5,0.7-1.1,1.4-2,2.5c1.2,0,1.9,0,2.8,0c-0.2,0.6-0.4,1.1-0.8,2.2c1.7-0.8,2.9-1.4,4.2-2c-0.1,0.5-0.1,1-0.2,1.8
	c1.4-0.3,2.6-0.6,3.9-0.9c0,0.3,0.1,0.8,0.2,1.4c2.1-0.6,4.1-1.1,6.2-1.7c0.1,0.2,0.2,0.5,0.3,0.7c-2.6,0.7-5.2,1.4-7.8,2.2
	c1.6,2.4,3.3,0.6,5,1c-0.9,1.1-1.8,2.1-2.6,3.1c0.1,0.2,0.2,0.3,0.2,0.5c1.9-0.6,3.9-1.2,6.1-1.8c-0.5,1-1,2-1.4,2.9
	c1,0.4,1.9,0.8,3.1,1.3c0.2-0.1,0.6-0.4,1-0.7c-5.1,7.3-11.1,16.5-14.1,21.8c-5.2,9.1-35.1,18.2-35.1,18.2s-72.7,32.5-72.7,48
	s68.8,48,105.2,49.3c36.4,1.3,135,3.9,146.7,6.5s46.7-13,62.3-14.3c15.6-1.3,24.7,0,24.7,0s-6.5,42.8,1.3,44.1
	c7.8,1.3-10.4,33.8,33.8,45.4c44.1,11.7,61,9.1,61,9.1V447.5L1889.7,455.5z M1831.4,336.4c2,0.8,3.6,1.7,3.8,3.8
	C1834.1,338.9,1831.8,339,1831.4,336.4z M1835.4,335.4c-0.9-2.1-1.7-3.7-2.7-5.8C1834.8,331.1,1835.9,332.7,1835.4,335.4z
	 M1634.3,555.2c2.4,1,4.2,2,4.4,4.5C1637.5,558.2,1634.7,558.2,1634.3,555.2z M1639,554c-1.1-2.4-2-4.4-3.2-6.9
	C1638.3,548.9,1639.6,550.8,1639,554z M1688.1,670.6c-0.7,0.8-1.5,1.7-2.2,2.5c-0.6-0.2-1.2-0.5-1.8-0.9
	C1685.6,671.6,1686.9,670.8,1688.1,670.6z M1673.1,686.8c-0.5,0.5-1,1-1.5,1.5c-0.5-0.3-0.9-0.6-1.4-1
	C1671.3,686.9,1672.2,686.8,1673.1,686.8z M1644.6,580.7c0.2,0,0.3,0,0.5,0c0,1.6,0,3.2,0,4.7c-0.2,0-0.3,0-0.5,0
	C1644.6,583.9,1644.6,582.3,1644.6,580.7z M1647.3,563.3c-1.4,0.7-2.5,1.2-3.7,1.8C1643.1,562.9,1643.5,562.7,1647.3,563.3z
	 M1624.7,593.5c-1.4,0-1.7-1.6-1.5-3.6c2.4,2.3,4.5,4,6.6,1c0.7,0.4,1.2,1,1.6,1c0.6,0,1.2-0.6,2.1-0.5c-0.3,0.3-0.5,0.8-0.8,0.9
	C1630,592.8,1627.4,593.5,1624.7,593.5z M1598.4,697.7c0.9-1,1.5-1.7,2.4-2.7c0.7,1,1.3,1.9,2.1,3c0.9-1.2,1.4-1.9,2.1-2.8
	c1.2,0.9,2.3,1.7,3.7,2.6C1605.2,698.8,1602,698.2,1598.4,697.7z M1862.9,462.7L1862.9,462.7
	C1862.9,462.7,1862.9,462.7,1862.9,462.7C1862.9,462.7,1862.9,462.7,1862.9,462.7z M1840.1,358c0.1,0,0.3,0,0.4,0c0,1.3,0,2.7,0,4
	c-0.1,0-0.3,0-0.4,0C1840.1,360.7,1840.1,359.3,1840.1,358z M1842.4,343.2c-1.2,0.6-2.1,1-3.1,1.5
	C1838.8,342.9,1839.1,342.8,1842.4,343.2z M1823.3,368.8c-1.2,0-1.4-1.3-1.3-3.1c2,1.9,3.8,3.3,5.6,0.9c0.6,0.4,1,0.9,1.4,0.9
	c0.5,0,1-0.5,1.7-0.4c-0.2,0.3-0.4,0.7-0.7,0.8C1827.8,368.2,1825.6,368.8,1823.3,368.8z M1801.1,457c0.8-0.9,1.3-1.4,2.1-2.3
	c0.6,0.8,1.1,1.6,1.8,2.5c0.8-1,1.2-1.6,1.8-2.3c1,0.7,2,1.4,3.1,2.2C1806.8,457.9,1804.1,457.4,1801.1,457z"/>
</svg>
