<?xml version="1.0" encoding="utf-8"?>
<!-- Generator: Adobe Illustrator 22.1.0, SVG Export Plug-In . SVG Version: 6.00 Build 0)  -->
<svg version="1.1" id="圖層_1" xmlns="http://www.w3.org/2000/svg" xmlns:xlink="http://www.w3.org/1999/xlink" x="0px" y="0px"
	 viewBox="0 0 1920 1080" style="enable-background:new 0 0 1920 1080;" xml:space="preserve">
<style type="text/css">
	.st0{fill:#790A62;}
	.st1{fill:#590A62;}
</style>
<path class="st0" d="M882.8,699.5l-30.5,31.7c0,0,13.4,12.2,30.5,12.2s75.6-8.5,75.6-8.5s259.6-31.7,252.3-6.1s-32.9,34.1-32.9,34.1
	s-50,28-37.8,28s108.5,1.2,129.2,0s121.9-20.7,121.9-20.7l97.5,2.4l91.4,18.3l-54.8,35.3c0,0-7.3,15.8,18.3,26.8
	s124.3,21.9,135.3,21.9s29.3,1.2,54.8-8.5s102.4,0,102.4,0s-3.7,12.2,0,30.5s0,41.4,18.3,50s65.8,12.2,65.8,12.2V478.9l-62.2,24.4
	l-11-48.8l-84.1-65.8l-51.2-43.9l-43.9-40.2h-54.8c0,0-76.8,29.3-76.8,40.2s-109.7,102.4-109.7,102.4l-65.8,31.7l-76.8-82.9
	l-51.2-11l-36.6,3.7l-29.3,40.2l-56.1,50l-46.3,24.4l-62.2,32.9l-78,42.7c0,0-53.6-11-57.3,0s-70.7,52.4-70.7,52.4h-97.5h-58.5
	H530.6l-51.2,36.6l-95.1,57.3L360,743.3h119.4l188.9-12.2l52.4-20.7l75.6-2.4L882.8,699.5z"/>
<path class="st1" d="M924.3,578.8l-32.9,57.3l-8.5,63.4l-91.8,8.7l-70.3-0.2l-52.4,21.9l-188.9,13.4H360l91.5-58.7l37.4-23.6
	l41.8-29.9l110.9-19.5c0,0,36.6,0,41.4,0s47.5-17.1,47.5-17.1l39-8.5c0,0,36.6,2.4,42.7,2.4s31.7-9.8,31.7-9.8s17.1-8.5,23.2-9.8
	s18.3-1.2,25.6-1.2S924.3,578.8,924.3,578.8z"/>
</svg>
