<?xml version="1.0" encoding="utf-8"?>
<!-- Generator: Adobe Illustrator 22.1.0, SVG Export Plug-In . SVG Version: 6.00 Build 0)  -->
<svg version="1.1" id="圖層_1" xmlns="http://www.w3.org/2000/svg" xmlns:xlink="http://www.w3.org/1999/xlink" x="0px" y="0px"
	 viewBox="0 0 1920 1080" style="enable-background:new 0 0 1920 1080;" xml:space="preserve">
<style type="text/css">
	.st0{fill:#B83686;}
</style>
<path class="st0" d="M1856.1,180.9c0.2-0.3,0.4-0.5,0.5-0.9c0-0.1-0.3-0.2-0.4-0.3c-0.3,0.4-0.5,0.8-0.8,1.3c-0.2-0.8-0.3-1.3-0.5-2
	c-0.4,0.4-0.7,0.6-0.9,0.8c-1.8-1.4-2.4,0.2-3.4,0.9c-0.3-0.5-0.5-0.9-0.7-1.3c0.3-0.1,0.8-0.3,1.2-0.4c1.2-0.3,2.4-0.6,3.6-1
	c0.4-0.1,0.9-0.5,1-0.9c0.1-0.2-0.5-0.6-0.8-0.9c0,0.2-0.1,0.3-0.1,0.5c-1,0.1-2,0.3-3,0.4c-0.1-0.4-0.3-0.8-0.3-0.9
	c0.7-0.6,1.2-1.1,1.7-1.6c0.1-0.1-0.2-0.6-0.3-0.7c-0.6-0.1-1.1,0-1.7,0.1c0-0.4-0.1-0.9-0.1-1.5c0.5,0.6,0.8,1,1.7,0.6
	c1.5-0.7,3-1.4,4.5-2.1c0.2-0.1,0.3-0.4,0.3-0.5c-0.8-0.1-1.5-0.1-2.3-0.1c-0.2,1-0.4,1.1-1.8,0.6c-0.3,0.4-0.6,0.7-0.9,1
	c-0.5-0.6-0.8-1-1.2-1.5c0-0.3,0.5-0.9,1-1.4c0.3-0.3,0.4-0.7,0.6-1c-0.4,0-0.9,0.1-1.3,0.1c-0.2,0-0.3,0.1-0.5,0.2
	c0.2-1.5-1.1-0.9-1.9-1c-0.1-0.3-0.2-0.6-0.3-0.9c0.7-0.3,1.3-0.5,1.9-0.7c0.9-0.4,1.2-0.9,0.6-1.6c-0.1-0.1-0.2-0.2-0.3-0.2
	c-0.7,0.1-1.1-0.2-0.9-0.8c0.2-0.5,0.7-1,1.1-1.4c0.2-0.2,0.4-0.5,0.6-0.7c-0.1-0.1-0.1-0.1-0.2-0.2c-0.4,0.1-0.8,0.3-1.3,0.4
	c-0.1-0.4-0.2-0.8-0.3-1.1c-0.1,0-0.2,0-0.3-0.1c-0.4,0.7-0.8,1.4-1.2,2.1c-0.8-1.2,0.1-2.4,0.3-3.4c0.2-1,2-1.8,3.2-2.8
	c-0.9,0.1-1.6,0.2-2.3,0.3c-0.4-1.2-0.8-1.3-3.7-1.2c0.8-1.3,1.6-2.5,2.4-3.7c-0.1,0-0.4,0-0.6,0.1c-0.3,0.1-0.5,0.4-0.7,0.5
	c-0.1,0-0.1-0.1-0.2-0.1c0.4-0.5,0.8-1,1.5-1.8c-1.6,0.8-2.9,1.4-4.6,0.5c0.9-1,1.7-1.8,2.5-2.7c-0.4,0-0.8,0-1.2,0
	c0-0.5,0.1-1,0.1-1.4c-0.4,0.1-0.7,0.2-0.9,0.2c-0.1-0.4-0.1-0.8-0.2-1.2c-2,1-2.1,1.3-1.2,2.8c0.2-0.1,0.5-0.2,0.7-0.2
	c0.1,0.1,0.1,0.1,0.2,0.2c-0.2,0.3-0.4,0.6-0.6,0.9c0-0.1,0-0.2,0-0.4c-0.7-0.1-1.7-0.6-2-0.3c-0.5,0.4,0.2,0.9,0.6,1.3
	c0.2,0.2,0.1,0.5,0.1,0.7c-0.1,0-0.3,0.1-0.4,0.1c-0.3-0.9-0.8-1.5-2.3-1.3c0.5,0.6,0.9,1,1.4,1.5c-0.4,0-0.8-0.1-1.3-0.1
	c0.3,0.5,0.6,0.8,0.8,1.2c-0.5-0.1-1-0.1-1.5-0.2c0,0.1,0,0.2-0.1,0.2c0.5,0.4,1.1,0.8,1.7,1.2c-0.5,0-0.9-0.1-1-0.1
	c-0.3,0.4-0.5,0.7-0.7,1c0.3,0.4,0.8,0.8,1,1.2c0.1,0.2-0.1,0.8-0.3,0.8c-1.3,0.2-1.1,0.9-1,1.6c0,0.3,0,0.7-0.1,1.1
	c-0.8-0.3-1.3-0.5-1.8-0.7c0.1,1.5,0.2,2.6,0.3,3.7c-0.6,0.1-1.1,0.2-1.6,0.3c0.3,0.4,0.5,0.7,0.8,1.1c0.2,0.2,0.5,0.3,0.9,0.6
	c-0.7,0.1-1.1,0.1-1.7,0.2c0.1,0.3,0.2,0.6,0.3,0.9c-0.1,0.3-0.2,0.6-0.3,1c0.6,0.3,1.3,0.7,1.9,1c1.4,0.7,1.4,1,0.5,2.2
	c-0.8-0.5-1.6-1-2.5-1.6c-0.1,0.1-0.1,0.2-0.2,0.2c0.3,1,0.6,2,0.9,2.9c-1,0-2-0.1-3.3-0.2c0.2,0.4,0.2,0.6,0.3,0.8
	c-0.6,0.5-1.2,0.9-1.9,1.4c3.2,1.8,6.4,3.6,9.6,5.4c-1.5-0.1-2.7-0.4-4-0.6c-0.2,0-0.4,0-0.5,0.1c-1.3,0.7-1.2,0-1-0.7
	c0-0.2-0.1-0.3-0.2-0.7c-0.4,0.5-0.6,0.8-0.9,1.3c-0.3-0.7-0.6-1.2-0.9-2c-1,0.8-1.9,1.6-3,2.4c0.8,0.4,1.4,0.8,2.3,1.2
	c-1,0.1-1.7,0.1-2.7,0.2c0.9,0.5,1.4,0.8,2.1,1.2c-0.7,0.1-1.4,0.2-2.2,0.4c-0.2,0.5-0.5,1.2-1,2.1c-0.4-0.5-0.7-0.9-1-1.2
	c-0.6,0.5-0.7,1.1,0.3,1.6c0.7,0.4,1.4,0.7,2,1c-0.2,0.1-0.4,0.1-0.7,0.3c0.8,0.5,1.5,1.1,2.3,1.5c1.2,0.6,1.2,0.6,0.5,2
	c-0.1-0.7-0.2-1.1-0.2-1.7c-0.8,0.2-1.6,0.5-2.3,0.6c-0.3,0-0.6-0.4-1-0.6c-0.1-0.1-0.2-0.2-0.3-0.3c-0.3,0.3-0.6,0.5-0.9,0.7
	c0.2,0.5,0.4,0.8,0.6,1.5c-0.5-0.5-0.8-0.7-1-0.9c-0.1,0.1-0.3,0.3-0.4,0.4c1.9,0.9,3.7,1.9,5.5,2.8c-1,0.9-2.8-0.1-3.6,1.3
	c1.9,0.8,3.8,1.5,5.6,2.2c-0.4,0.3-0.8,0.5-1.3,0.8c-1.2-0.2-2.2-0.3-3.5-0.5c0.5,0.7,1,1.2,1.4,1.8c-10,6.3-17.7,11.8-20.9,15.4
	c-13.8,15.4-73.5,130.6-82.6,111.4c-3.3-7-15.7-17-30.6-27.5c1.5-0.5,2.7-1.4,4.2-2c0.3-0.1,0.5-0.4,0.7-0.6
	c-0.1-0.1-0.2-0.2-0.3-0.3c-0.4,0.3-0.7,0.5-0.9,0.7c-0.7-0.1-1.4-0.2-2.4-0.3c1.2-0.3,2-0.4,2.8-0.7c0.7-0.2,1.4-0.6,2.1-0.9
	c-0.1-0.1-0.2-0.3-0.3-0.4c-0.3,0.2-0.6,0.3-1,0.6c0.1-0.4,0.1-0.8,0.1-1.1c-0.8,0.2-1.6,0.4-2.5,0.7c0.2-0.6,0.3-1,0.4-1.3
	c-1.5,1.2-1.8,1.3-3.4,1c0.3-0.2,0.6-0.5,1-0.8c-0.5-0.1-0.8-0.1-1.3-0.2c1.8-0.8,3.4-1.4,5.1-2.2c-0.9-0.4-1.3-0.5-1.5-0.6
	c-0.8,0.2-1.4,0.3-2,0.4c-0.1-0.1-0.1-0.2-0.2-0.3c0.7-0.4,1.4-0.9,2.1-1.3c-0.1-0.1-0.1-0.3-0.2-0.4c-0.7,0-1.3,0.1-2,0.1
	c0.2-0.3,0.4-0.6,0.6-0.9c-0.2-0.2-0.4-0.3-0.6-0.5c-0.2,0.4-0.3,0.9-0.6,1.5c-0.8-1.1-0.8-2.6-2.4-1.7c-0.2-0.3-0.4-0.6-0.6-0.9
	c0.7-0.7,1.5-1.3,2.4-2.1c-0.2,0.5-0.4,0.7-0.5,1c0.1,0.1,0.2,0.2,0.3,0.3c1-0.3,2-0.6,2.9-0.9c0.3-0.1,0.6-0.7,0.5-1
	c-0.2-0.6-0.7-1.2-1.2-1.9c-0.2,0.2-0.5,0.5-0.9,0.6c-0.4,0.2-0.9,0.3-1.5,0.5c0.1-0.5,0.1-0.9,0.2-1.3c1.3,0.3,2.5-0.3,3.5-1.7
	c-1.5,0.1-2.8,0.2-4,0.3c0-0.2,0.1-0.5,0.1-1c-0.5,0.5-0.7,0.8-1,1.1c0.3-1.2,1.3-1.7,2.2-1.2c0.5-0.5,1-0.9,1.5-1.4
	c0.1-0.1,0.1-0.3,0.1-0.5c0-0.1-0.3-0.2-0.3-0.1c-0.6,0.3-1.1,0.6-1.6,0.8c-0.1-0.3-0.2-0.5-0.2-0.8c0.4-0.2,0.8-0.4,1.2-0.6
	c0.1-0.1,0.1-0.4,0.1-0.4c-0.2-0.1-0.4-0.1-0.6-0.1c-0.6,0.1-1.3,0.1-1.9,0.2c0-0.1,0-0.2-0.1-0.3c-0.2,0.2-0.4,0.4-0.6,0.6
	c-0.1-0.1-0.2-0.2-0.3-0.3c1.3-0.7,2.7-1.3,4.1-2c-0.7-0.3-1.1-0.5-1.6-0.7c-1.6,1.3-2.1,1.4-2.8,0.5c0.9-0.8,1.8-1.6,2.7-2.4
	c-0.1-0.1-0.2-0.3-0.2-0.4c-0.6,0.1-1.2,0.1-1.8,0.3c-0.9,0.2-1.6,0.4-1.9-0.7c1.3-0.1,2-0.7,2.2-1.7c0-0.1-0.3-0.2-0.4-0.3
	c-0.3,0.4-0.5,0.8-0.8,1.3c-0.2-0.8-0.3-1.3-0.5-2c-0.4,0.4-0.7,0.6-0.9,0.8c-1.8-1.4-2.4,0.2-3.4,0.9c-0.3-0.5-0.5-0.9-0.7-1.3
	c0.3-0.1,0.8-0.3,1.2-0.4c1.2-0.3,2.4-0.6,3.6-1c0.4-0.1,0.9-0.5,1-0.9c0.1-0.2-0.5-0.6-0.8-0.9c0,0.2-0.1,0.3-0.1,0.5
	c-1,0.1-2,0.3-3,0.4c-0.1-0.4-0.3-0.8-0.3-0.9c0.7-0.6,1.2-1.1,1.7-1.6c0.1-0.1-0.2-0.6-0.3-0.7c-0.6-0.1-1.1,0-1.7,0.1
	c0-0.4-0.1-0.9-0.1-1.5c0.5,0.6,0.8,1,1.7,0.6c1.5-0.7,3-1.4,4.5-2.1c0.2-0.1,0.3-0.4,0.3-0.5c-0.8-0.1-1.5-0.1-2.3-0.1
	c-0.2,1-0.4,1.1-1.8,0.6c-0.3,0.4-0.6,0.7-0.9,1c-0.5-0.6-0.8-1-1.2-1.5c0-0.3,0.5-0.9,1-1.4c0.3-0.3,0.4-0.7,0.6-1
	c-0.4,0-0.9,0.1-1.3,0.1c-0.2,0-0.3,0.1-0.5,0.2c0.2-1.5-1.1-0.9-1.9-1c-0.1-0.3-0.2-0.6-0.3-0.9c0.7-0.3,1.3-0.5,1.9-0.7
	c0.9-0.4,1.2-0.9,0.6-1.6c-0.1-0.1-0.2-0.2-0.3-0.2c-0.7,0.1-1.1-0.2-0.9-0.8c0.2-0.5,0.7-1,1.1-1.4c0.2-0.2,0.4-0.5,0.6-0.7
	c-0.1-0.1-0.1-0.1-0.2-0.2c-0.4,0.1-0.8,0.3-1.3,0.4c-0.1-0.4-0.2-0.8-0.3-1.1c-0.1,0-0.2,0-0.3-0.1c-0.4,0.7-0.8,1.4-1.2,2.1
	c-0.8-1.2,0.1-2.4,0.3-3.4c0.2-1,2-1.8,3.2-2.8c-0.9,0.1-1.6,0.2-2.3,0.3c-0.4-1.2-0.8-1.3-3.7-1.2c0.8-1.3,1.6-2.5,2.4-3.7
	c-0.1,0-0.4,0-0.6,0.1c-0.3,0.1-0.5,0.4-0.7,0.5c-0.1,0-0.1-0.1-0.2-0.1c0.4-0.5,0.8-1,1.5-1.8c-1.6,0.8-2.9,1.4-4.6,0.5
	c0.9-1,1.7-1.8,2.5-2.7c-0.4,0-0.8,0-1.2,0c0-0.5,0.1-1,0.1-1.4c-0.4,0.1-0.7,0.2-0.9,0.2c-0.1-0.4-0.1-0.8-0.2-1.2
	c-2,1-2.1,1.3-1.2,2.8c0.2-0.1,0.5-0.2,0.7-0.2c0.1,0.1,0.1,0.1,0.2,0.2c-0.2,0.3-0.4,0.6-0.6,0.9c0-0.1,0-0.2,0-0.4
	c-0.7-0.1-1.7-0.6-2-0.3c-0.5,0.4,0.2,0.9,0.6,1.3c0.2,0.2,0.1,0.5,0.1,0.7c-0.1,0-0.3,0.1-0.4,0.1c-0.3-0.9-0.8-1.5-2.3-1.3
	c0.5,0.6,0.9,1,1.4,1.5c-0.4,0-0.8-0.1-1.3-0.1c0.3,0.5,0.6,0.8,0.8,1.2c-0.5-0.1-1-0.1-1.5-0.2c0,0.1,0,0.2-0.1,0.2
	c0.5,0.4,1.1,0.8,1.7,1.2c-0.5,0-0.9-0.1-1-0.1c-0.3,0.4-0.5,0.7-0.7,1c0.3,0.4,0.8,0.8,1,1.2c0.1,0.2-0.1,0.8-0.3,0.8
	c-1.3,0.2-1.1,0.9-1,1.6c0,0.3,0,0.7-0.1,1.1c-0.8-0.3-1.3-0.5-1.8-0.7c0.1,1.5,0.2,2.6,0.3,3.7c-0.6,0.1-1.1,0.2-1.6,0.3
	c0.3,0.4,0.5,0.7,0.8,1.1c0.2,0.2,0.5,0.3,0.9,0.6c-0.7,0.1-1.1,0.1-1.7,0.2c0.1,0.3,0.2,0.6,0.3,0.9c-0.1,0.3-0.2,0.6-0.3,1
	c0.6,0.3,1.3,0.7,1.9,1c1.4,0.7,1.4,1,0.5,2.2c-0.8-0.5-1.6-1-2.5-1.6c-0.1,0.1-0.1,0.2-0.2,0.2c0.3,1,0.6,2,0.9,2.9
	c-1,0-2-0.1-3.3-0.2c0.2,0.4,0.2,0.6,0.3,0.8c-0.6,0.5-1.2,0.9-1.9,1.4c3.2,1.8,6.4,3.6,9.6,5.4c-1.5-0.1-2.7-0.4-4-0.6
	c-0.2,0-0.4,0-0.5,0.1c-1.3,0.7-1.2,0-1-0.7c0-0.2-0.1-0.3-0.2-0.7c-0.4,0.5-0.6,0.8-0.9,1.3c-0.3-0.7-0.6-1.2-0.9-2
	c-1,0.8-1.9,1.6-3,2.4c0.8,0.4,1.4,0.8,2.3,1.2c-1,0.1-1.7,0.1-2.7,0.2c0.9,0.5,1.4,0.8,2.1,1.2c-0.7,0.1-1.4,0.2-2.2,0.4
	c-0.2,0.5-0.5,1.2-1,2.1c-0.4-0.5-0.7-0.9-1-1.2c-0.6,0.5-0.7,1.1,0.3,1.6c0.7,0.4,1.4,0.7,2,1c-0.2,0.1-0.4,0.1-0.7,0.3
	c0.8,0.5,1.5,1.1,2.3,1.5c1.2,0.6,1.2,0.6,0.5,2c-0.1-0.7-0.2-1.1-0.2-1.7c-0.8,0.2-1.6,0.5-2.3,0.6c-0.3,0-0.6-0.4-1-0.6
	c-0.1-0.1-0.2-0.2-0.3-0.3c-0.3,0.3-0.6,0.5-0.9,0.7c0.2,0.5,0.4,0.8,0.6,1.5c-0.5-0.5-0.8-0.7-1-0.9c-0.1,0.1-0.3,0.3-0.4,0.4
	c1.9,0.9,3.7,1.9,5.5,2.8c-0.3,0.3-0.8,0.4-1.2,0.4c-17.9-11.7-33.9-22-37.8-26.8c-7.2-9-112-11-178.9-5.9c0.4-0.3,0.6-0.7,0.7-1.2
	c0-0.1-0.3-0.2-0.4-0.3c-0.3,0.4-0.5,0.8-0.8,1.3c-0.2-0.8-0.3-1.3-0.5-2c-0.4,0.4-0.7,0.6-0.9,0.8c-1.8-1.4-2.4,0.2-3.4,0.9
	c-0.3-0.5-0.5-0.9-0.7-1.3c0.3-0.1,0.8-0.3,1.2-0.4c1.2-0.3,2.4-0.6,3.6-1c0.4-0.1,0.9-0.5,1-0.9c0.1-0.2-0.5-0.6-0.8-0.9
	c0,0.2-0.1,0.3-0.1,0.5c-1,0.1-2,0.3-3,0.4c-0.1-0.4-0.3-0.8-0.3-0.9c0.7-0.6,1.2-1.1,1.7-1.6c0.1-0.1-0.2-0.6-0.3-0.7
	c-0.6-0.1-1.1,0-1.7,0.1c0-0.4-0.1-0.9-0.1-1.5c0.5,0.6,0.8,1,1.7,0.6c1.5-0.7,3-1.4,4.5-2.1c0.2-0.1,0.3-0.4,0.3-0.5
	c-0.8-0.1-1.5-0.1-2.3-0.1c-0.2,1-0.4,1.1-1.8,0.6c-0.3,0.4-0.6,0.7-0.9,1c-0.5-0.6-0.8-1-1.2-1.5c0-0.3,0.5-0.9,1-1.4
	c0.3-0.3,0.4-0.7,0.6-1c-0.4,0-0.9,0.1-1.3,0.1c-0.2,0-0.3,0.1-0.5,0.2c0.2-1.5-1.1-0.9-1.9-1c-0.1-0.3-0.2-0.6-0.3-0.9
	c0.7-0.3,1.3-0.5,1.9-0.7c0.9-0.4,1.2-0.9,0.6-1.6c-0.1-0.1-0.2-0.2-0.3-0.2c-0.7,0.1-1.1-0.2-0.9-0.8c0.2-0.5,0.7-1,1.1-1.4
	c0.2-0.2,0.4-0.5,0.6-0.7c-0.1-0.1-0.1-0.1-0.2-0.2c-0.4,0.1-0.8,0.3-1.3,0.4c-0.1-0.4-0.2-0.8-0.3-1.1c-0.1,0-0.2,0-0.3-0.1
	c-0.4,0.7-0.8,1.4-1.2,2.1c-0.8-1.2,0.1-2.4,0.3-3.4c0.2-1,2-1.8,3.2-2.8c-0.9,0.1-1.6,0.2-2.3,0.3c-0.4-1.2-0.8-1.3-3.7-1.2
	c0.8-1.3,1.6-2.5,2.4-3.7c-0.1,0-0.4,0-0.6,0.1c-0.3,0.1-0.5,0.4-0.7,0.5c-0.1,0-0.1-0.1-0.2-0.1c0.4-0.5,0.8-1,1.5-1.8
	c-1.6,0.8-2.9,1.4-4.6,0.5c0.9-1,1.7-1.8,2.5-2.7c-0.4,0-0.8,0-1.2,0c0-0.5,0.1-1,0.1-1.4c-0.4,0.1-0.7,0.2-0.9,0.2
	c-0.1-0.4-0.1-0.8-0.2-1.2c-2,1-2.1,1.3-1.2,2.8c0.2-0.1,0.5-0.2,0.7-0.2c0.1,0.1,0.1,0.1,0.2,0.2c-0.2,0.3-0.4,0.6-0.6,0.9
	c0-0.1,0-0.2,0-0.4c-0.7-0.1-1.7-0.6-2-0.3c-0.5,0.4,0.2,0.9,0.6,1.3c0.2,0.2,0.1,0.5,0.1,0.7c-0.1,0-0.3,0.1-0.4,0.1
	c-0.3-0.9-0.8-1.5-2.3-1.3c0.5,0.6,0.9,1,1.4,1.5c-0.4,0-0.8-0.1-1.3-0.1c0.3,0.5,0.6,0.8,0.8,1.2c-0.5-0.1-1-0.1-1.5-0.2
	c0,0.1,0,0.2-0.1,0.2c0.5,0.4,1.1,0.8,1.7,1.2c-0.5,0-0.9-0.1-1-0.1c-0.3,0.4-0.5,0.7-0.7,1c0.3,0.4,0.8,0.8,1,1.2
	c0.1,0.2-0.1,0.8-0.3,0.8c-1.3,0.2-1.1,0.9-1,1.6c0,0.3,0,0.7-0.1,1.1c-0.8-0.3-1.3-0.5-1.8-0.7c0.1,1.5,0.2,2.6,0.3,3.7
	c-0.6,0.1-1.1,0.2-1.6,0.3c0.3,0.4,0.5,0.7,0.8,1.1c0.2,0.2,0.5,0.3,0.9,0.6c-0.7,0.1-1.1,0.1-1.7,0.2c0.1,0.3,0.2,0.6,0.3,0.9
	c-0.1,0.3-0.2,0.6-0.3,1c0.6,0.3,1.3,0.7,1.9,1c1.4,0.7,1.4,1,0.5,2.2c-0.8-0.5-1.6-1-2.5-1.6c-0.1,0.1-0.1,0.2-0.2,0.2
	c0.3,1,0.6,2,0.9,2.9c-1,0-2-0.1-3.3-0.2c0.2,0.4,0.2,0.6,0.3,0.8c-0.6,0.5-1.2,0.9-1.9,1.4c3.2,1.8,6.4,3.6,9.6,5.4
	c-1.5-0.1-2.7-0.4-4-0.6c-0.2,0-0.4,0-0.5,0.1c-1.3,0.7-1.2,0-1-0.7c0-0.2-0.1-0.3-0.2-0.7c-0.4,0.5-0.6,0.8-0.9,1.3
	c-0.3-0.7-0.6-1.2-0.9-2c-1,0.8-1.9,1.6-3,2.4c0.8,0.4,1.4,0.8,2.3,1.2c-1,0.1-1.7,0.1-2.7,0.2c0.9,0.5,1.4,0.8,2.1,1.2
	c-0.7,0.1-1.4,0.2-2.2,0.4c-0.2,0.5-0.5,1.2-1,2.1c-0.4-0.5-0.7-0.9-1-1.2c-0.6,0.5-0.7,1.1,0.3,1.6c0.4,0.2,0.8,0.4,1.2,0.6
	c-7,1-13,2-17.7,3.2c-31.4,8.1-85.7,52.8-124.6,85c-0.1-0.1-0.1-0.2-0.2-0.3c-0.6,0.1-1.2,0.1-1.8,0.3c-0.9,0.2-1.6,0.4-1.9-0.7
	c1.3-0.1,2-0.7,2.2-1.7c0-0.1-0.3-0.2-0.4-0.3c-0.3,0.4-0.5,0.8-0.8,1.3c-0.2-0.8-0.3-1.3-0.5-2c-0.4,0.4-0.7,0.6-0.9,0.8
	c-1.8-1.4-2.4,0.2-3.4,0.9c-0.3-0.5-0.5-0.9-0.7-1.3c0.3-0.1,0.8-0.3,1.2-0.4c1.2-0.3,2.4-0.6,3.6-1c0.4-0.1,0.9-0.5,1-0.9
	c0.1-0.2-0.5-0.6-0.8-0.9c0,0.2-0.1,0.3-0.1,0.5c-1,0.1-2,0.3-3,0.4c-0.1-0.4-0.3-0.8-0.3-0.9c0.7-0.6,1.2-1.1,1.7-1.6
	c0.1-0.1-0.2-0.6-0.3-0.7c-0.6-0.1-1.1,0-1.7,0.1c0-0.4-0.1-0.9-0.1-1.5c0.5,0.6,0.8,1,1.7,0.6c1.5-0.7,3-1.4,4.5-2.1
	c0.2-0.1,0.3-0.4,0.3-0.5c-0.8-0.1-1.5-0.1-2.3-0.1c-0.2,1-0.4,1.1-1.8,0.6c-0.3,0.4-0.6,0.7-0.9,1c-0.5-0.6-0.8-1-1.2-1.5
	c0-0.3,0.5-0.9,1-1.4c0.3-0.3,0.4-0.7,0.6-1c-0.4,0-0.9,0.1-1.3,0.1c-0.2,0-0.3,0.1-0.5,0.2c0.2-1.5-1.1-0.9-1.9-1
	c-0.1-0.3-0.2-0.6-0.3-0.9c0.7-0.3,1.3-0.5,1.9-0.7c0.9-0.4,1.2-0.9,0.6-1.6c-0.1-0.1-0.2-0.2-0.3-0.2c-0.7,0.1-1.1-0.2-0.9-0.8
	c0.2-0.5,0.7-1,1.1-1.4c0.2-0.2,0.4-0.5,0.6-0.7c-0.1-0.1-0.1-0.1-0.2-0.2c-0.4,0.1-0.8,0.3-1.3,0.4c-0.1-0.4-0.2-0.8-0.3-1.1
	c-0.1,0-0.2,0-0.3-0.1c-0.4,0.7-0.8,1.4-1.2,2.1c-0.8-1.2,0.1-2.4,0.3-3.4c0.2-1,2-1.8,3.2-2.8c-0.9,0.1-1.6,0.2-2.3,0.3
	c-0.4-1.2-0.8-1.3-3.7-1.2c0.8-1.3,1.6-2.5,2.4-3.7c-0.1,0-0.4,0-0.6,0.1c-0.3,0.1-0.5,0.4-0.7,0.5c-0.1,0-0.1-0.1-0.2-0.1
	c0.4-0.5,0.8-1,1.5-1.8c-1.6,0.8-2.9,1.4-4.6,0.5c0.9-1,1.7-1.8,2.5-2.7c-0.4,0-0.8,0-1.2,0c0-0.5,0.1-1,0.1-1.4
	c-0.4,0.1-0.7,0.2-0.9,0.2c-0.1-0.4-0.1-0.8-0.2-1.2c-2,1-2.1,1.3-1.2,2.8c0.2-0.1,0.5-0.2,0.7-0.2c0.1,0.1,0.1,0.1,0.2,0.2
	c-0.2,0.3-0.4,0.6-0.6,0.9c0-0.1,0-0.2,0-0.4c-0.7-0.1-1.7-0.6-2-0.3c-0.5,0.4,0.2,0.9,0.6,1.3c0.2,0.2,0.1,0.5,0.1,0.7
	c-0.1,0-0.3,0.1-0.4,0.1c-0.3-0.9-0.8-1.5-2.3-1.3c0.5,0.6,0.9,1,1.4,1.5c-0.4,0-0.8-0.1-1.3-0.1c0.3,0.5,0.6,0.8,0.8,1.2
	c-0.5-0.1-1-0.1-1.5-0.2c0,0.1,0,0.2-0.1,0.2c0.5,0.4,1.1,0.8,1.7,1.2c-0.5,0-0.9-0.1-1-0.1c-0.3,0.4-0.5,0.7-0.7,1
	c0.3,0.4,0.8,0.8,1,1.2c0.1,0.2-0.1,0.8-0.3,0.8c-1.3,0.2-1.1,0.9-1,1.6c0,0.3,0,0.7-0.1,1.1c-0.8-0.3-1.3-0.5-1.8-0.7
	c0.1,1.5,0.2,2.6,0.3,3.7c-0.6,0.1-1.1,0.2-1.6,0.3c0.3,0.4,0.5,0.7,0.8,1.1c0.2,0.2,0.5,0.3,0.9,0.6c-0.7,0.1-1.1,0.1-1.7,0.2
	c0.1,0.3,0.2,0.6,0.3,0.9c-0.1,0.3-0.2,0.6-0.3,1c0.6,0.3,1.3,0.7,1.9,1c1.4,0.7,1.4,1,0.5,2.2c-0.8-0.5-1.6-1-2.5-1.6
	c-0.1,0.1-0.1,0.2-0.2,0.2c0.3,1,0.6,2,0.9,2.9c-1,0-2-0.1-3.3-0.2c0.2,0.4,0.2,0.6,0.3,0.8c-0.6,0.5-1.2,0.9-1.9,1.4
	c3.2,1.8,6.4,3.6,9.6,5.4c-1.5-0.1-2.7-0.4-4-0.6c-0.2,0-0.4,0-0.5,0.1c-1.3,0.7-1.2,0-1-0.7c0-0.2-0.1-0.3-0.2-0.7
	c-0.4,0.5-0.6,0.8-0.9,1.3c-0.3-0.7-0.6-1.2-0.9-2c-1,0.8-1.9,1.6-3,2.4c0.8,0.4,1.4,0.8,2.3,1.2c-1,0.1-1.7,0.1-2.7,0.2
	c0.9,0.5,1.4,0.8,2.1,1.2c-0.7,0.1-1.4,0.2-2.2,0.4c-0.2,0.5-0.5,1.2-1,2.1c-0.4-0.5-0.7-0.9-1-1.2c-0.6,0.5-0.7,1.1,0.3,1.6
	c0.7,0.4,1.4,0.7,2,1c-0.2,0.1-0.4,0.1-0.7,0.3c0.8,0.5,1.5,1.1,2.3,1.5c1.2,0.6,1.2,0.6,0.5,2c-0.1-0.7-0.2-1.1-0.2-1.7
	c-0.8,0.2-1.6,0.5-2.3,0.6c-0.3,0-0.6-0.4-1-0.6c-0.1-0.1-0.2-0.2-0.3-0.3c-0.3,0.3-0.6,0.5-0.9,0.7c0.2,0.5,0.4,0.8,0.6,1.5
	c-0.5-0.5-0.8-0.7-1-0.9c-0.1,0.1-0.3,0.3-0.4,0.4c1.9,0.9,3.7,1.9,5.5,2.8c-1,0.9-2.8-0.1-3.6,1.3c3,1.2,6,2.4,8.9,3.5
	c0,0.1-0.1,0.3-0.1,0.4c-0.5-0.1-1.1-0.1-1.5-0.4c-0.8-0.6-2.4-0.8-2.8-0.5c-1.3-0.2-2.4-0.3-3.7-0.5c1,1.2,1.7,2.2,2.6,3.3
	c-1,0.2-1.5,0.5-0.7,1.2c0.2,0.3,0.4,0.7,0.6,1c1.2,0.5,2.4,1,3.7,1.5c-0.6,0.5-1.2,1-1.8,1.4c-0.8-0.1-1.7-0.2-2.5-0.3
	c-0.2,0-0.5,0.3-0.7,0.5c0.2,0.1,0.3,0.3,0.5,0.4c0.4,0.2,0.8,0.2,1.4,0.4c0,0,0,0,0,0c-2.6,0.7-2.9,0.5-4.2-0.6
	c-0.4,0.6-0.8,1.2-1,1.5c0.6,0.7,0.9,1.2,1.4,1.6c0.1,0.1,0.3,0.2,0.4,0.2c-3.2,2.5-6,4.6-8.3,6.2c-27.5,19.2-64.3,19.2-73.5,0
	c-9.2-19.2-68.9-38.4-101-42.3c-9-1.1-22.9,1.1-39.4,5.1c-0.3,0-0.6,0.1-0.8,0.1c0-0.1,0-0.2-0.1-0.3c-0.2,0.2-0.3,0.3-0.5,0.5
	c-0.1,0-0.1,0-0.2,0.1c-0.1-0.1-0.1-0.1-0.2-0.2c1.3-0.7,2.7-1.3,4.1-2c-0.7-0.3-1.1-0.5-1.6-0.7c-1.6,1.3-2.1,1.4-2.8,0.5
	c0.9-0.8,1.8-1.6,2.7-2.4c-0.1-0.1-0.2-0.3-0.2-0.4c-0.6,0.1-1.2,0.1-1.8,0.3c-0.9,0.2-1.6,0.4-1.9-0.7c1.3-0.1,2-0.7,2.2-1.7
	c0-0.1-0.3-0.2-0.4-0.3c-0.3,0.4-0.5,0.8-0.8,1.3c-0.2-0.8-0.3-1.3-0.5-2c-0.4,0.4-0.7,0.6-0.9,0.8c-1.8-1.4-2.4,0.2-3.4,0.9
	c-0.3-0.5-0.5-0.9-0.7-1.3c0.3-0.1,0.8-0.3,1.2-0.4c1.2-0.3,2.4-0.6,3.6-1c0.4-0.1,0.9-0.5,1-0.9c0.1-0.2-0.5-0.6-0.8-0.9
	c0,0.2-0.1,0.3-0.1,0.5c-1,0.1-2,0.3-3,0.4c-0.1-0.4-0.3-0.8-0.3-0.9c0.7-0.6,1.2-1.1,1.7-1.6c0.1-0.1-0.2-0.6-0.3-0.7
	c-0.6-0.1-1.1,0-1.7,0.1c0-0.4-0.1-0.9-0.1-1.5c0.5,0.6,0.8,1,1.7,0.6c1.5-0.7,3-1.4,4.5-2.1c0.2-0.1,0.3-0.4,0.3-0.5
	c-0.8-0.1-1.5-0.1-2.3-0.1c-0.2,1-0.4,1.1-1.8,0.6c-0.3,0.4-0.6,0.7-0.9,1c-0.5-0.6-0.8-1-1.2-1.5c0-0.3,0.5-0.9,1-1.4
	c0.3-0.3,0.4-0.7,0.6-1c-0.4,0-0.9,0.1-1.3,0.1c-0.2,0-0.3,0.1-0.5,0.2c0.2-1.5-1.1-0.9-1.9-1c-0.1-0.3-0.2-0.6-0.3-0.9
	c0.7-0.3,1.3-0.5,1.9-0.7c0.9-0.4,1.2-0.9,0.6-1.6c-0.1-0.1-0.2-0.2-0.3-0.2c-0.7,0.1-1.1-0.2-0.9-0.8c0.2-0.5,0.7-1,1.1-1.4
	c0.2-0.2,0.4-0.5,0.6-0.7c-0.1-0.1-0.1-0.1-0.2-0.2c-0.4,0.1-0.8,0.3-1.3,0.4c-0.1-0.4-0.2-0.8-0.3-1.1c-0.1,0-0.2,0-0.3-0.1
	c-0.4,0.7-0.8,1.4-1.2,2.1c-0.8-1.2,0.1-2.4,0.3-3.4c0.2-1,2-1.8,3.2-2.8c-0.9,0.1-1.6,0.2-2.3,0.3c-0.4-1.2-0.8-1.3-3.7-1.2
	c0.8-1.3,1.6-2.5,2.4-3.7c-0.1,0-0.4,0-0.6,0.1c-0.3,0.1-0.5,0.4-0.7,0.5c-0.1,0-0.1-0.1-0.2-0.1c0.4-0.5,0.8-1,1.5-1.8
	c-1.6,0.8-2.9,1.4-4.6,0.5c0.9-1,1.7-1.8,2.5-2.7c-0.4,0-0.8,0-1.2,0c0-0.5,0.1-1,0.1-1.4c-0.4,0.1-0.7,0.2-0.9,0.2
	c-0.1-0.4-0.1-0.8-0.2-1.2c-2,1-2.1,1.3-1.2,2.8c0.2-0.1,0.5-0.2,0.7-0.2c0.1,0.1,0.1,0.1,0.2,0.2c-0.2,0.3-0.4,0.6-0.6,0.9
	c0-0.1,0-0.2,0-0.4c-0.7-0.1-1.7-0.6-2-0.3c-0.5,0.4,0.2,0.9,0.6,1.3c0.2,0.2,0.1,0.5,0.1,0.7c-0.1,0-0.3,0.1-0.4,0.1
	c-0.3-0.9-0.8-1.5-2.3-1.3c0.5,0.6,0.9,1,1.4,1.5c-0.4,0-0.8-0.1-1.3-0.1c0.3,0.5,0.6,0.8,0.8,1.2c-0.5-0.1-1-0.1-1.5-0.2
	c0,0.1,0,0.2-0.1,0.2c0.5,0.4,1.1,0.8,1.7,1.2c-0.5,0-0.9-0.1-1-0.1c-0.3,0.4-0.5,0.7-0.7,1c0.3,0.4,0.8,0.8,1,1.2
	c0.1,0.2-0.1,0.8-0.3,0.8c-1.3,0.2-1.1,0.9-1,1.6c0,0.3,0,0.7-0.1,1.1c-0.8-0.3-1.3-0.5-1.8-0.7c0.1,1.5,0.2,2.6,0.3,3.7
	c-0.6,0.1-1.1,0.2-1.6,0.3c0.3,0.4,0.5,0.7,0.8,1.1c0.2,0.2,0.5,0.3,0.9,0.6c-0.7,0.1-1.1,0.1-1.7,0.2c0.1,0.3,0.2,0.6,0.3,0.9
	c-0.1,0.3-0.2,0.6-0.3,1c0.6,0.3,1.3,0.7,1.9,1c1.4,0.7,1.4,1,0.5,2.2c-0.8-0.5-1.6-1-2.5-1.6c-0.1,0.1-0.1,0.2-0.2,0.2
	c0.3,1,0.6,2,0.9,2.9c-1,0-2-0.1-3.3-0.2c0.2,0.4,0.2,0.6,0.3,0.8c-0.6,0.5-1.2,0.9-1.9,1.4c3.2,1.8,6.4,3.6,9.6,5.4
	c-1.5-0.1-2.7-0.4-4-0.6c-0.2,0-0.4,0-0.5,0.1c-1.3,0.7-1.2,0-1-0.7c0-0.2-0.1-0.3-0.2-0.7c-0.4,0.5-0.6,0.8-0.9,1.3
	c-0.3-0.7-0.6-1.2-0.9-2c-1,0.8-1.9,1.6-3,2.4c0.8,0.4,1.4,0.8,2.3,1.2c-1,0.1-1.7,0.1-2.7,0.2c0.9,0.5,1.4,0.8,2.1,1.2
	c-0.7,0.1-1.4,0.2-2.2,0.4c-0.2,0.5-0.5,1.2-1,2.1c-0.4-0.5-0.7-0.9-1-1.2c-0.6,0.5-0.7,1.1,0.3,1.6c0.7,0.4,1.4,0.7,2,1
	c-0.2,0.1-0.4,0.1-0.7,0.3c0.8,0.5,1.5,1.1,2.3,1.5c1.2,0.6,1.2,0.6,0.5,2c-0.1-0.7-0.2-1.1-0.2-1.7c-0.8,0.2-1.6,0.5-2.3,0.6
	c-0.3,0-0.6-0.4-1-0.6c-0.1-0.1-0.2-0.2-0.3-0.3c-0.3,0.3-0.6,0.5-0.9,0.7c0.2,0.5,0.4,0.8,0.6,1.5c-0.5-0.5-0.8-0.7-1-0.9
	c-0.1,0.1-0.3,0.3-0.4,0.4c1.9,0.9,3.7,1.9,5.5,2.8c-1,0.9-2.8-0.1-3.6,1.3c1.5,0.6,3,1.2,4.5,1.8c-1,0.3-2,0.6-3,0.8
	c-0.2,0-0.4-0.1-0.7-0.1c0.1,0.1,0.1,0.2,0.2,0.2c-37.8,10.8-80.6,25.3-106.9,29.7c-5,0.8-10.3,2.6-15.8,5.2c0,0,0.1-0.1,0.1-0.1
	c0.3-0.3,0.4-0.7,0.6-1c-0.4,0-0.9,0.1-1.3,0.1c-0.2,0-0.3,0.1-0.5,0.2c0.2-1.5-1.1-0.9-1.9-1c-0.1-0.3-0.2-0.6-0.3-0.9
	c0.7-0.3,1.3-0.5,1.9-0.7c0.9-0.4,1.2-0.9,0.6-1.6c-0.1-0.1-0.2-0.2-0.3-0.2c-0.7,0.1-1.1-0.2-0.9-0.8c0.2-0.5,0.7-1,1.1-1.4
	c0.2-0.2,0.4-0.5,0.6-0.7c-0.1-0.1-0.1-0.1-0.2-0.2c-0.4,0.1-0.8,0.3-1.3,0.4c-0.1-0.4-0.2-0.8-0.3-1.1c-0.1,0-0.2,0-0.3-0.1
	c-0.4,0.7-0.8,1.4-1.2,2.1c-0.8-1.2,0.1-2.4,0.3-3.4c0.2-1,2-1.8,3.2-2.8c-0.9,0.1-1.6,0.2-2.3,0.3c-0.4-1.2-0.8-1.3-3.7-1.2
	c0.8-1.3,1.6-2.5,2.4-3.7c-0.1,0-0.4,0-0.6,0.1c-0.3,0.1-0.5,0.4-0.7,0.5c-0.1,0-0.1-0.1-0.2-0.1c0.4-0.5,0.8-1,1.5-1.8
	c-1.6,0.8-2.9,1.4-4.6,0.5c0.9-1,1.7-1.8,2.5-2.7c-0.4,0-0.8,0-1.2,0c0-0.5,0.1-1,0.1-1.4c-0.4,0.1-0.7,0.2-0.9,0.2
	c-0.1-0.4-0.1-0.8-0.2-1.2c-2,1-2.1,1.3-1.2,2.8c0.2-0.1,0.5-0.2,0.7-0.2c0.1,0.1,0.1,0.1,0.2,0.2c-0.2,0.3-0.4,0.6-0.6,0.9
	c0-0.1,0-0.2,0-0.4c-0.7-0.1-1.7-0.6-2-0.3c-0.5,0.4,0.2,0.9,0.6,1.3c0.2,0.2,0.1,0.5,0.1,0.7c-0.1,0-0.3,0.1-0.4,0.1
	c-0.3-0.9-0.8-1.5-2.3-1.3c0.5,0.6,0.9,1,1.4,1.5c-0.4,0-0.8-0.1-1.3-0.1c0.3,0.5,0.6,0.8,0.8,1.2c-0.5-0.1-1-0.1-1.5-0.2
	c0,0.1,0,0.2-0.1,0.2c0.5,0.4,1.1,0.8,1.7,1.2c-0.5,0-0.9-0.1-1-0.1c-0.3,0.4-0.5,0.7-0.7,1c0.3,0.4,0.8,0.8,1,1.2
	c0.1,0.2-0.1,0.8-0.3,0.8c-1.3,0.2-1.1,0.9-1,1.6c0,0.3,0,0.7-0.1,1.1c-0.8-0.3-1.3-0.5-1.8-0.7c0.1,1.5,0.2,2.6,0.3,3.7
	c-0.6,0.1-1.1,0.2-1.6,0.3c0.3,0.4,0.5,0.7,0.8,1.1c0.2,0.2,0.5,0.3,0.9,0.6c-0.7,0.1-1.1,0.1-1.7,0.2c0.1,0.3,0.2,0.6,0.3,0.9
	c-0.1,0.3-0.2,0.6-0.3,1c0.6,0.3,1.3,0.7,1.9,1c1.4,0.7,1.4,1,0.5,2.2c-0.8-0.5-1.6-1-2.5-1.6c-0.1,0.1-0.1,0.2-0.2,0.2
	c0.3,1,0.6,2,0.9,2.9c-1,0-2-0.1-3.3-0.2c0.2,0.4,0.2,0.6,0.3,0.8c-0.6,0.5-1.2,0.9-1.9,1.4c2.5,1.4,5,2.8,7.6,4.2
	c-0.4,0.2-0.7,0.5-1.1,0.7c-0.3-0.1-0.6-0.1-0.9-0.2c-0.2,0-0.4,0-0.5,0.1c-1.3,0.7-1.2,0-1-0.7c0-0.2-0.1-0.3-0.2-0.7
	c-0.4,0.5-0.6,0.8-0.9,1.3c-0.3-0.7-0.6-1.2-0.9-2c-1,0.8-1.9,1.6-3,2.4c0.8,0.4,1.4,0.8,2.3,1.2c-1,0.1-1.7,0.1-2.7,0.2
	c0.9,0.5,1.4,0.8,2.1,1.2c-0.7,0.1-1.4,0.2-2.2,0.4c-0.2,0.5-0.5,1.2-1,2.1c-0.4-0.5-0.7-0.9-1-1.2c-0.6,0.5-0.7,1.1,0.3,1.6
	c0.3,0.1,0.5,0.3,0.8,0.4c-19.5,14.2-39.4,33.5-55.8,49.5c0,0-0.1,0-0.1-0.1c-1.6,1.3-2.1,1.4-2.8,0.5c0.9-0.8,1.8-1.6,2.7-2.4
	c-0.1-0.1-0.2-0.3-0.2-0.4c-0.6,0.1-1.2,0.1-1.8,0.3c-0.9,0.2-1.6,0.4-1.9-0.7c1.3-0.1,2-0.7,2.2-1.7c0-0.1-0.3-0.2-0.4-0.3
	c-0.3,0.4-0.5,0.8-0.8,1.3c-0.2-0.8-0.3-1.3-0.5-2c-0.4,0.4-0.7,0.6-0.9,0.8c-1.8-1.4-2.4,0.2-3.4,0.9c-0.3-0.5-0.5-0.9-0.7-1.3
	c0.3-0.1,0.8-0.3,1.2-0.4c1.2-0.3,2.4-0.6,3.6-1c0.4-0.1,0.9-0.5,1-0.9c0.1-0.2-0.5-0.6-0.8-0.9c0,0.2-0.1,0.3-0.1,0.5
	c-1,0.1-2,0.3-3,0.4c-0.1-0.4-0.3-0.8-0.3-0.9c0.7-0.6,1.2-1.1,1.7-1.6c0.1-0.1-0.2-0.6-0.3-0.7c-0.6-0.1-1.1,0-1.7,0.1
	c0-0.4-0.1-0.9-0.1-1.5c0.5,0.6,0.8,1,1.7,0.6c1.5-0.7,3-1.4,4.5-2.1c0.2-0.1,0.3-0.4,0.3-0.5c-0.8-0.1-1.5-0.1-2.3-0.1
	c-0.2,1-0.4,1.1-1.8,0.6c-0.3,0.4-0.6,0.7-0.9,1c-0.5-0.6-0.8-1-1.2-1.5c0-0.3,0.5-0.9,1-1.4c0.3-0.3,0.4-0.7,0.6-1
	c-0.4,0-0.9,0.1-1.3,0.1c-0.2,0-0.3,0.1-0.5,0.2c0.2-1.5-1.1-0.9-1.9-1c-0.1-0.3-0.2-0.6-0.3-0.9c0.7-0.3,1.3-0.5,1.9-0.7
	c0.9-0.4,1.2-0.9,0.6-1.6c-0.1-0.1-0.2-0.2-0.3-0.2c-0.7,0.1-1.1-0.2-0.9-0.8c0.2-0.5,0.7-1,1.1-1.4c0.2-0.2,0.4-0.5,0.6-0.7
	c-0.1-0.1-0.1-0.1-0.2-0.2c-0.4,0.1-0.8,0.3-1.3,0.4c-0.1-0.4-0.2-0.8-0.3-1.1c-0.1,0-0.2,0-0.3-0.1c-0.4,0.7-0.8,1.4-1.2,2.1
	c-0.8-1.2,0.1-2.4,0.3-3.4c0.2-1,2-1.8,3.2-2.8c-0.9,0.1-1.6,0.2-2.3,0.3c-0.4-1.2-0.8-1.3-3.7-1.2c0.8-1.3,1.6-2.5,2.4-3.7
	c-0.1,0-0.4,0-0.6,0.1c-0.3,0.1-0.5,0.4-0.7,0.5c-0.1,0-0.1-0.1-0.2-0.1c0.4-0.5,0.8-1,1.5-1.8c-1.6,0.8-2.9,1.4-4.6,0.5
	c0.9-1,1.7-1.8,2.5-2.7c-0.4,0-0.8,0-1.2,0c0-0.5,0.1-1,0.1-1.4c-0.4,0.1-0.7,0.2-0.9,0.2c-0.1-0.4-0.1-0.8-0.2-1.2
	c-2,1-2.1,1.3-1.2,2.8c0.2-0.1,0.5-0.2,0.7-0.2c0.1,0.1,0.1,0.1,0.2,0.2c-0.2,0.3-0.4,0.6-0.6,0.9c0-0.1,0-0.2,0-0.4
	c-0.7-0.1-1.7-0.6-2-0.3c-0.5,0.4,0.2,0.9,0.6,1.3c0.2,0.2,0.1,0.5,0.1,0.7c-0.1,0-0.3,0.1-0.4,0.1c-0.3-0.9-0.8-1.5-2.3-1.3
	c0.5,0.6,0.9,1,1.4,1.5c-0.4,0-0.8-0.1-1.3-0.1c0.3,0.5,0.6,0.8,0.8,1.2c-0.5-0.1-1-0.1-1.5-0.2c0,0.1,0,0.2-0.1,0.2
	c0.5,0.4,1.1,0.8,1.7,1.2c-0.5,0-0.9-0.1-1-0.1c-0.3,0.4-0.5,0.7-0.7,1c0.3,0.4,0.8,0.8,1,1.2c0.1,0.2-0.1,0.8-0.3,0.8
	c-1.3,0.2-1.1,0.9-1,1.6c0,0.3,0,0.7-0.1,1.1c-0.8-0.3-1.3-0.5-1.8-0.7c0.1,1.5,0.2,2.6,0.3,3.7c-0.6,0.1-1.1,0.2-1.6,0.3
	c0.3,0.4,0.5,0.7,0.8,1.1c0.2,0.2,0.5,0.3,0.9,0.6c-0.7,0.1-1.1,0.1-1.7,0.2c0.1,0.3,0.2,0.6,0.3,0.9c-0.1,0.3-0.2,0.6-0.3,1
	c0.6,0.3,1.3,0.7,1.9,1c1.4,0.7,1.4,1,0.5,2.2c-0.8-0.5-1.6-1-2.5-1.6c-0.1,0.1-0.1,0.2-0.2,0.2c0.3,1,0.6,2,0.9,2.9
	c-1,0-2-0.1-3.3-0.2c0.2,0.4,0.2,0.6,0.3,0.8c-0.6,0.5-1.2,0.9-1.9,1.4c3.2,1.8,6.4,3.6,9.6,5.4c-1.5-0.1-2.7-0.4-4-0.6
	c-0.2,0-0.4,0-0.5,0.1c-1.3,0.7-1.2,0-1-0.7c0-0.2-0.1-0.3-0.2-0.7c-0.4,0.5-0.6,0.8-0.9,1.3c-0.3-0.7-0.6-1.2-0.9-2
	c-1,0.8-1.9,1.6-3,2.4c0.8,0.4,1.4,0.8,2.3,1.2c-1,0.1-1.7,0.1-2.7,0.2c0.9,0.5,1.4,0.8,2.1,1.2c-0.7,0.1-1.4,0.2-2.2,0.4
	c-0.2,0.5-0.5,1.2-1,2.1c-0.4-0.5-0.7-0.9-1-1.2c-0.6,0.5-0.7,1.1,0.3,1.6c0.7,0.4,1.4,0.7,2,1c-0.2,0.1-0.4,0.1-0.7,0.3
	c0.8,0.5,1.5,1.1,2.3,1.5c1.2,0.6,1.2,0.6,0.5,2c-0.1-0.7-0.2-1.1-0.2-1.7c-0.8,0.2-1.6,0.5-2.3,0.6c-0.3,0-0.6-0.4-1-0.6
	c-0.1-0.1-0.2-0.2-0.3-0.3c-0.3,0.3-0.6,0.5-0.9,0.7c0.2,0.5,0.4,0.8,0.6,1.5c-0.5-0.5-0.8-0.7-1-0.9c-0.1,0.1-0.3,0.3-0.4,0.4
	c1.9,0.9,3.7,1.9,5.5,2.8c-1,0.9-2.8-0.1-3.6,1.3c3,1.2,6,2.4,8.9,3.5c0,0.1-0.1,0.3-0.1,0.4c-0.5-0.1-1.1-0.1-1.5-0.4
	c-0.8-0.6-2.4-0.8-2.8-0.5c-1.3-0.2-2.4-0.3-3.7-0.5c1,1.2,1.7,2.2,2.6,3.3c-1,0.2-1.5,0.5-0.7,1.2c0.2,0.3,0.4,0.7,0.6,1
	c1.7,0.7,3.3,1.4,5,2c0.6,0.2,1.2,0.3,1.8,0.5c-0.1,0.2-0.1,0.3-0.2,0.5c-0.4-0.1-0.8-0.2-1.2-0.3c-0.3,0-0.7-0.2-0.8-0.1
	c-0.5,0.6-1.3,0.4-1.9,0.4c-1.2,0-2.3-0.2-3.5-0.3c-0.2,0-0.5,0.3-0.7,0.5c0.2,0.1,0.3,0.3,0.5,0.4c0.4,0.2,0.8,0.2,1.4,0.4
	c-2.6,0.8-3,0.6-4.3-0.5c-0.4,0.6-0.8,1.2-1,1.5c0.6,0.7,0.9,1.2,1.4,1.6c0.2,0.2,0.7,0.3,1,0.3c0.9,0,2-0.5,2.7-0.2
	c0.8,0.3,1.7,0.4,2.5,0.5c-4.8,4.1-8.6,6.7-11.1,7.1c-9.7,1.6-39.8-15.3-69.8-27.9c0-0.2-0.2-0.5-0.3-0.5c-0.3,0-0.6,0-0.9,0
	c-0.3-0.1-0.6-0.2-0.9-0.4c0-0.3-0.1-0.7-0.1-1.1c0.5,0.6,0.8,1,1.7,0.6c1.5-0.7,3-1.4,4.5-2.1c0.2-0.1,0.3-0.4,0.3-0.5
	c-0.8-0.1-1.5-0.1-2.3-0.1c-0.2,1-0.4,1.1-1.8,0.6c-0.3,0.4-0.6,0.7-0.9,1c-0.5-0.6-0.8-1-1.2-1.5c0-0.3,0.5-0.9,1-1.4
	c0.3-0.3,0.4-0.7,0.6-1c-0.4,0-0.9,0.1-1.3,0.1c-0.2,0-0.3,0.1-0.5,0.2c0.2-1.5-1.1-0.9-1.9-1c-0.1-0.3-0.2-0.6-0.3-0.9
	c0.7-0.3,1.3-0.5,1.9-0.7c0.9-0.4,1.2-0.9,0.6-1.6c-0.1-0.1-0.2-0.2-0.3-0.2c-0.7,0.1-1.1-0.2-0.9-0.8c0.2-0.5,0.7-1,1.1-1.4
	c0.2-0.2,0.4-0.5,0.6-0.7c-0.1-0.1-0.1-0.1-0.2-0.2c-0.4,0.1-0.8,0.3-1.3,0.4c-0.1-0.4-0.2-0.8-0.3-1.1c-0.1,0-0.2,0-0.3-0.1
	c-0.4,0.7-0.8,1.4-1.2,2.1c-0.8-1.2,0.1-2.4,0.3-3.4c0.2-1,2-1.8,3.2-2.8c-0.9,0.1-1.6,0.2-2.3,0.3c-0.4-1.2-0.8-1.3-3.7-1.2
	c0.8-1.3,1.6-2.5,2.4-3.7c-0.1,0-0.4,0-0.6,0.1c-0.3,0.1-0.5,0.4-0.7,0.5c-0.1,0-0.1-0.1-0.2-0.1c0.4-0.5,0.8-1,1.5-1.8
	c-1.6,0.8-2.9,1.4-4.6,0.5c0.9-1,1.7-1.8,2.5-2.7c-0.4,0-0.8,0-1.2,0c0-0.5,0.1-1,0.1-1.4c-0.4,0.1-0.7,0.2-0.9,0.2
	c-0.1-0.4-0.1-0.8-0.2-1.2c-2,1-2.1,1.3-1.2,2.8c0.2-0.1,0.5-0.2,0.7-0.2c0.1,0.1,0.1,0.1,0.2,0.2c-0.2,0.3-0.4,0.6-0.6,0.9
	c0-0.1,0-0.2,0-0.4c-0.7-0.1-1.7-0.6-2-0.3c-0.5,0.4,0.2,0.9,0.6,1.3c0.2,0.2,0.1,0.5,0.1,0.7c-0.1,0-0.3,0.1-0.4,0.1
	c-0.3-0.9-0.8-1.5-2.3-1.3c0.5,0.6,0.9,1,1.4,1.5c-0.4,0-0.8-0.1-1.3-0.1c0.3,0.5,0.6,0.8,0.8,1.2c-0.5-0.1-1-0.1-1.5-0.2
	c0,0.1,0,0.2-0.1,0.2c0.5,0.4,1.1,0.8,1.7,1.2c-0.5,0-0.9-0.1-1-0.1c-0.3,0.4-0.5,0.7-0.7,1c0.3,0.4,0.8,0.8,1,1.2
	c0.1,0.2-0.1,0.8-0.3,0.8c-1.3,0.2-1.1,0.9-1,1.6c0,0.3,0,0.7-0.1,1.1c-0.8-0.3-1.3-0.5-1.8-0.7c0.1,1.5,0.2,2.6,0.3,3.7
	c-0.6,0.1-1.1,0.2-1.6,0.3c0.3,0.4,0.5,0.7,0.8,1.1c0.2,0.2,0.5,0.3,0.9,0.6c-0.7,0.1-1.1,0.1-1.7,0.2c0.1,0.3,0.2,0.6,0.3,0.9
	c-0.1,0.3-0.2,0.6-0.3,1c0.6,0.3,1.3,0.7,1.9,1c1.2,0.6,1.4,0.9,0.8,1.8c-0.7-0.2-1.4-0.5-2.1-0.7c-0.2-0.1-0.5-0.3-0.7-0.4
	c0,0.1-0.1,0.1-0.1,0.2c-10.8-3.7-21.1-6.1-29.8-6.1c-10.7,0-26.9,7-44.6,17c0-1.2-1.1-0.8-1.9-0.8c-0.1-0.3-0.2-0.6-0.3-0.9
	c0.7-0.3,1.3-0.5,1.9-0.7c0.9-0.4,1.2-0.9,0.6-1.6c-0.1-0.1-0.2-0.2-0.3-0.2c-0.7,0.1-1.1-0.2-0.9-0.8c0.2-0.5,0.7-1,1.1-1.4
	c0.2-0.2,0.4-0.5,0.6-0.7c-0.1-0.1-0.1-0.1-0.2-0.2c-0.4,0.1-0.8,0.3-1.3,0.4c-0.1-0.4-0.2-0.8-0.3-1.1c-0.1,0-0.2,0-0.3-0.1
	c-0.4,0.7-0.8,1.4-1.2,2.1c-0.8-1.2,0.1-2.4,0.3-3.4c0.2-1,2-1.8,3.2-2.8c-0.9,0.1-1.6,0.2-2.3,0.3c-0.4-1.2-0.8-1.3-3.7-1.2
	c0.8-1.3,1.6-2.5,2.4-3.7c-0.1,0-0.4,0-0.6,0.1c-0.3,0.1-0.5,0.4-0.7,0.5c-0.1,0-0.1-0.1-0.2-0.1c0.4-0.5,0.8-1,1.5-1.8
	c-1.6,0.8-2.9,1.4-4.6,0.5c0.9-1,1.7-1.8,2.5-2.7c-0.4,0-0.8,0-1.2,0c0-0.5,0.1-1,0.1-1.4c-0.4,0.1-0.7,0.2-0.9,0.2
	c-0.1-0.4-0.1-0.8-0.2-1.2c-2,1-2.1,1.3-1.2,2.8c0.2-0.1,0.5-0.2,0.7-0.2c0.1,0.1,0.1,0.1,0.2,0.2c-0.2,0.3-0.4,0.6-0.6,0.9
	c0-0.1,0-0.2,0-0.4c-0.7-0.1-1.7-0.6-2-0.3c-0.5,0.4,0.2,0.9,0.6,1.3c0.2,0.2,0.1,0.5,0.1,0.7c-0.1,0-0.3,0.1-0.4,0.1
	c-0.3-0.9-0.8-1.5-2.3-1.3c0.5,0.6,0.9,1,1.4,1.5c-0.4,0-0.8-0.1-1.3-0.1c0.3,0.5,0.6,0.8,0.8,1.2c-0.5-0.1-1-0.1-1.5-0.2
	c0,0.1,0,0.2-0.1,0.2c0.5,0.4,1.1,0.8,1.7,1.2c-0.5,0-0.9-0.1-1-0.1c-0.3,0.4-0.5,0.7-0.7,1c0.3,0.4,0.8,0.8,1,1.2
	c0.1,0.2-0.1,0.8-0.3,0.8c-1.3,0.2-1.1,0.9-1,1.6c0,0.3,0,0.7-0.1,1.1c-0.8-0.3-1.3-0.5-1.8-0.7c0.1,1.5,0.2,2.6,0.3,3.7
	c-0.6,0.1-1.1,0.2-1.6,0.3c0.3,0.4,0.5,0.7,0.8,1.1c0.2,0.2,0.5,0.3,0.9,0.6c-0.7,0.1-1.1,0.1-1.7,0.2c0.1,0.3,0.2,0.6,0.3,0.9
	c-0.1,0.3-0.2,0.6-0.3,1c0.6,0.3,1.3,0.7,1.9,1c1.4,0.7,1.4,1,0.5,2.2c-0.8-0.5-1.6-1-2.5-1.6c-0.1,0.1-0.1,0.2-0.2,0.2
	c0.3,1,0.6,2,0.9,2.9c-1,0-2-0.1-3.3-0.2c0.2,0.4,0.2,0.6,0.3,0.8c-0.6,0.5-1.2,0.9-1.9,1.4c2.1,1.2,4.3,2.4,6.5,3.6
	c-0.8,0.5-1.5,1-2.3,1.4c-0.3-0.1-0.2-0.5-0.2-1c0-0.2-0.1-0.3-0.2-0.7c-0.4,0.5-0.6,0.8-0.9,1.3c-0.3-0.7-0.6-1.2-0.9-2
	c-1,0.8-1.9,1.6-3,2.4c0.8,0.4,1.4,0.8,2.3,1.2c-1,0.1-1.7,0.1-2.7,0.2c0.7,0.4,1.3,0.7,1.8,1c-0.2,0.1-0.3,0.2-0.5,0.3
	c-0.5,0.1-0.9,0.2-1.4,0.3c-0.1,0.3-0.3,0.6-0.4,0.9c-0.3,0.2-0.7,0.4-1,0.6c-0.2-0.2-0.4-0.4-0.5-0.6c-0.4,0.4-0.6,0.8-0.3,1.1
	c-36.3,23.6-71,51.7-71,51.7c-38.3-1.3,0,55.1,0,55.1h226.5L1920,691.6V146.1C1920,146.1,1886.5,163.5,1856.1,180.9z M1835.7,173.3
	c-0.5-0.4-1-1.1-1.5-1.1c-1,0-1.1-0.5-1.4-0.9c0.9,0.3,1.8,0.5,2.6,0.8c0.3,0.1,0.5,0.6,0.7,0.9
	C1836.2,173.1,1835.8,173.3,1835.7,173.3z M1673.5,259.1c-0.5-0.4-1-1.1-1.5-1.1c-1,0-1.1-0.5-1.4-0.9c0.9,0.3,1.8,0.5,2.6,0.8
	c0.3,0.1,0.5,0.6,0.7,0.9C1674,258.9,1673.6,259.1,1673.5,259.1z M1691.8,267.7c-0.7,0.8-1.2,1.3-1.7,1.8
	C1689.7,268,1689.7,268,1691.8,267.7z M1686.7,241.9c-0.7,0.9-1.2,1.6-1.7,2.3C1684.2,242.6,1684.3,242.5,1686.7,241.9z
	 M1679.5,239.7c0.1,0.1,0.2,0.2,0.2,0.2c-0.3,0.5-0.6,1-1.1,1.7c-0.3-0.7-0.4-1.1-0.6-1.4C1678.5,240.1,1679,239.9,1679.5,239.7z
	 M1676.1,257.3c-0.1-0.2-0.3-0.5-0.5-1.1c1.3,0.4,2.3,0.7,3.6,1.1C1678,257.3,1677.1,257.3,1676.1,257.3z M1677.3,279.5
	c1.2,0.2,2.4,0.5,3.6,0.7c0,0.1-0.1,0.3-0.1,0.4c-1.1-0.5-2.6,0.4-3.6-0.8C1677.2,279.7,1677.2,279.6,1677.3,279.5z M1431.7,236.1
	c-0.5-0.4-1-1.1-1.5-1.1c-1,0-1.1-0.5-1.4-0.9c0.9,0.3,1.8,0.5,2.6,0.8c0.3,0.1,0.5,0.6,0.7,0.9
	C1432.2,235.8,1431.8,236,1431.7,236.1z M1444.9,218.8c-0.7,0.9-1.2,1.6-1.7,2.3C1442.4,219.5,1442.5,219.5,1444.9,218.8z
	 M1437.7,216.7c0.1,0.1,0.2,0.2,0.2,0.2c-0.3,0.5-0.6,1-1.1,1.7c-0.3-0.7-0.4-1.1-0.6-1.4C1436.7,217,1437.2,216.8,1437.7,216.7z
	 M1434.3,234.3c-0.1-0.2-0.3-0.5-0.5-1.1c1.3,0.4,2.3,0.7,3.6,1.1C1436.2,234.3,1435.3,234.3,1434.3,234.3z M1260.3,325.7
	c-0.5-0.4-1-1.1-1.5-1.1c-1,0-1.1-0.5-1.4-0.9c0.9,0.3,1.8,0.5,2.6,0.8c0.3,0.1,0.5,0.6,0.7,0.9
	C1260.8,325.5,1260.4,325.7,1260.3,325.7z M1278.6,334.3c-0.7,0.8-1.2,1.3-1.7,1.8C1276.5,334.6,1276.5,334.6,1278.6,334.3z
	 M1273.5,308.5c-0.7,0.9-1.2,1.6-1.7,2.3C1271,309.1,1271.1,309.1,1273.5,308.5z M1266.3,306.3c0.1,0.1,0.2,0.2,0.2,0.2
	c-0.3,0.5-0.6,1-1.1,1.7c-0.3-0.7-0.4-1.1-0.6-1.4C1265.3,306.7,1265.8,306.5,1266.3,306.3z M1262.9,323.9c-0.1-0.2-0.3-0.5-0.5-1.1
	c1.3,0.4,2.3,0.7,3.6,1.1C1264.8,323.9,1263.9,323.9,1262.9,323.9z M1264.1,346.1c1.2,0.2,2.4,0.5,3.6,0.7c0,0.1-0.1,0.3-0.1,0.4
	c-1.1-0.5-2.6,0.4-3.6-0.8C1264,346.3,1264,346.2,1264.1,346.1z M1009.3,314.2c-0.5-0.4-1-1.1-1.5-1.1c-1,0-1.1-0.5-1.4-0.9
	c0.9,0.3,1.8,0.5,2.6,0.8c0.3,0.1,0.5,0.6,0.7,0.9C1009.8,313.9,1009.4,314.1,1009.3,314.2z M1027.7,322.8c-0.7,0.8-1.2,1.3-1.7,1.8
	C1025.5,323.1,1025.5,323.1,1027.7,322.8z M1022.5,296.9c-0.7,0.9-1.2,1.6-1.7,2.3C1020,297.6,1020.1,297.6,1022.5,296.9z
	 M1015.3,294.8c0.1,0.1,0.2,0.2,0.2,0.2c-0.3,0.5-0.6,1-1.1,1.7c-0.3-0.7-0.4-1.1-0.6-1.4C1014.4,295.2,1014.8,295,1015.3,294.8z
	 M1011.9,312.4c-0.1-0.2-0.3-0.5-0.5-1.1c1.3,0.4,2.3,0.7,3.6,1.1C1013.8,312.4,1012.9,312.4,1011.9,312.4z M864,374.4
	c-0.5-0.4-1-1.1-1.5-1.1c-1,0-1.1-0.5-1.4-0.9c0.9,0.3,1.8,0.5,2.6,0.8c0.3,0.1,0.5,0.6,0.7,0.9C864.4,374.1,864,374.3,864,374.4z
	 M877.2,357.1c-0.7,0.9-1.2,1.6-1.7,2.3C874.7,357.8,874.7,357.8,877.2,357.1z M869.9,355c0.1,0.1,0.2,0.2,0.2,0.2
	c-0.3,0.5-0.6,1-1.1,1.7c-0.3-0.7-0.4-1.1-0.6-1.4C869,355.3,869.4,355.2,869.9,355z M866,371.5c1.3,0.4,2.3,0.7,3.6,1.1
	c-1.2,0-2.1,0-3.1,0C866.5,372.4,866.3,372.1,866,371.5z M778.3,423c-0.5-0.4-1-1.1-1.5-1.1c-1,0-1.1-0.5-1.4-0.9
	c0.9,0.3,1.8,0.5,2.6,0.8c0.3,0.1,0.5,0.6,0.7,0.9C778.7,422.8,778.3,423,778.3,423z M692,417.3c-0.7,0.9-1.2,1.6-1.7,2.3
	C689.5,418,689.5,418,692,417.3z M684.7,415.2c0.1,0.1,0.2,0.2,0.2,0.2c-0.3,0.5-0.6,1-1.1,1.7c-0.3-0.7-0.4-1.1-0.6-1.4
	C683.8,415.5,684.3,415.3,684.7,415.2z M601.7,427.6c-0.7,0.9-1.2,1.6-1.7,2.3C599.2,428.2,599.2,428.2,601.7,427.6z M594.4,425.4
	c0.1,0.1,0.2,0.2,0.2,0.2c-0.3,0.5-0.6,1-1.1,1.7c-0.3-0.7-0.4-1.1-0.6-1.4C593.5,425.8,594,425.6,594.4,425.4z M594.2,443
	c-1.2,0-2.1,0-3.1,0c-0.1-0.2-0.3-0.5-0.5-1.1C591.8,442.3,592.8,442.6,594.2,443z M588.5,444.8c-0.5-0.4-1-1.1-1.5-1.1
	c-1,0-1.1-0.5-1.4-0.9c0.9,0.3,1.8,0.5,2.6,0.8c0.3,0.1,0.5,0.6,0.7,0.9C589,444.6,588.5,444.8,588.5,444.8z M796.6,431.7
	c-0.7,0.8-1.2,1.3-1.7,1.8C794.4,432,794.4,432,796.6,431.7z M791.5,405.8c-0.7,0.9-1.2,1.6-1.7,2.3
	C789,406.5,789,406.4,791.5,405.8z M784.2,403.6c0.1,0.1,0.2,0.2,0.2,0.2c-0.3,0.5-0.6,1-1.1,1.7c-0.3-0.7-0.4-1.1-0.6-1.4
	C783.3,404,783.7,403.8,784.2,403.6z M780.9,421.3c-0.1-0.2-0.3-0.5-0.5-1.1c1.3,0.4,2.3,0.7,3.6,1.1
	C782.7,421.3,781.8,421.3,780.9,421.3z M782,443.4c1.2,0.2,2.4,0.5,3.6,0.7c0,0.1-0.1,0.3-0.1,0.4c-1.1-0.5-2.6,0.4-3.6-0.8
	C781.9,443.6,782,443.5,782,443.4z M777.1,454.4c-0.2,0-0.4-0.1-0.6-0.1c-0.4,0-0.9,0-1.3,0c0-0.5,0-0.9,0-1.4c0.1,0,0.2,0,0.4,0
	c0.1,0.4,0.2,0.7,0.4,1.2c0.5-0.3,0.8-0.6,0.9-0.6c0.8,0.1,1.4,0.3,1.9,0.3c0.5,0.1,0.9,0.1,1.4,0.1c-0.3,0.3-0.7,0.6-1,0.9
	C778.5,454.7,777.8,454.6,777.1,454.4z M1257.3,355.6c0.1,0,0.1,0,0.2,0c-0.1,0.1-0.1,0.1-0.2,0.2
	C1257.3,355.7,1257.3,355.7,1257.3,355.6z M1854.9,181.6c-0.2,0.1-0.3,0.2-0.5,0.3c0-0.1,0-0.1-0.1-0.2
	C1854.6,181.7,1854.7,181.6,1854.9,181.6z M1848.9,156.1c-0.7,0.9-1.2,1.6-1.7,2.3C1846.4,156.8,1846.5,156.7,1848.9,156.1z
	 M1841.7,153.9c0.1,0.1,0.2,0.2,0.2,0.2c-0.3,0.5-0.6,1-1.1,1.7c-0.3-0.7-0.4-1.1-0.6-1.4C1840.7,154.3,1841.2,154.1,1841.7,153.9z
	 M1838.3,171.5c-0.1-0.2-0.3-0.5-0.5-1.1c1.3,0.4,2.3,0.7,3.6,1.1C1840.2,171.5,1839.3,171.5,1838.3,171.5z M1854.1,181.9
	c-0.1,0.1-0.2,0.2-0.2,0.3c-0.6,0.3-1.1,0.6-1.7,1C1851.9,182.3,1852.2,182.2,1854.1,181.9z"/>
</svg>
