<?xml version="1.0" encoding="utf-8"?>
<!-- Generator: Adobe Illustrator 22.1.0, SVG Export Plug-In . SVG Version: 6.00 Build 0)  -->
<svg version="1.1" id="圖層_1" xmlns="http://www.w3.org/2000/svg" xmlns:xlink="http://www.w3.org/1999/xlink" x="0px" y="0px"
	 viewBox="0 0 1920 1080" style="enable-background:new 0 0 1920 1080;" xml:space="preserve">
<style type="text/css">
	.st0{fill:#2A1E51;}
</style>
<path class="st0" d="M-3.7,568.4c0,0,198.2-15.4,209,5.7c10.9,21.1,32.3,14.7,74.8,14.5c42.5-0.2,119.6-12,145.7-8.5
	c26.1,3.5,96.7-9.8,122.8-9.1c26.1,0.7,147.1-1.5,161.8-1.1c14.7,0.4,70.3,0.5,99.6,2.7c29.4,2.2,88.7-0.4,88.7-0.4
	S784,509.5,775.6,517.6c-8.4,8.1-84.9-2.3-84.9-2.3l-41.6-34.4L595.8,460l-84.2,31l-67.5,17.6c0,0-40.4-16.3-45-28.9
	s-20.3-35.2-20.3-35.2s-60.1-14.1-84.6-14.8c-24.5-0.7-59.6,28.9-59.6,28.9l-18.4-43.4c0,0-41.6-34.4-54.6-34.7s-63.3-17-63.3-17
	l-15.9-17.1L47.5,308l-24-18.7L4.4,272.2L-3.7,568.4z"/>
</svg>
