<svg width="72" height="74" viewBox="0 0 72 74" fill="none" xmlns="http://www.w3.org/2000/svg">
  <path d="M40.8928 15.125C42.293 21.3434 43.6862 27.5331 45.0795 33.7229C45.1169 33.7213 45.1551 33.7189 45.1925 33.7173C45.3284 33.227 45.4658 32.7368 45.5986 32.2457C46.4437 29.1294 47.282 26.0107 48.1332 22.8968C48.6332 21.0676 49.134 19.2377 49.6761 17.4221C49.8563 16.819 50.1624 16.2557 50.4197 15.678C50.4708 15.5636 50.5632 15.4683 50.7143 15.2529C50.9594 15.7948 51.2113 16.2374 51.3655 16.7142C51.7641 17.945 51.7755 19.2195 51.6992 20.5035C51.5671 22.7378 50.9365 24.8554 50.341 26.9833C49.7433 29.1215 49.157 31.2637 48.5684 33.405C48.5477 33.4797 48.5554 33.5632 48.5454 33.7189C48.6684 33.6013 48.7447 33.5361 48.8111 33.4622C51.477 30.4993 54.1398 27.5331 56.8096 24.5749C57.4669 23.8463 58.1456 23.1383 58.8212 22.4287C59.5564 21.6572 60.4816 21.2631 61.4779 21.0303C62.0276 20.9024 62.5856 20.815 63.2468 20.6886C63.2468 21.6048 63.2353 22.4431 63.2491 23.2813C63.2865 25.5951 62.1971 27.3798 60.758 28.984C58.2463 31.7833 55.7125 34.5611 53.1878 37.3477C52.6489 37.9421 52.1084 38.5348 51.5098 39.1919C51.6663 39.2007 51.7473 39.2134 51.8282 39.2094C52.5679 39.1737 53.3069 39.1093 54.0467 39.1061C54.7223 39.1029 55.3216 39.3612 55.7644 39.9086C55.8629 40.0302 55.8522 40.2463 55.8919 40.4196C55.7461 40.4418 55.5904 40.5086 55.456 40.4784C54.9002 40.3528 54.3574 40.2916 53.8375 40.6063C53.3222 40.9186 53.084 41.4581 53.2199 42.0071C53.339 42.4886 53.7749 42.8088 54.3651 42.816C55.5232 42.8295 56.6805 42.8303 57.8387 42.8319C58.2303 42.8319 58.2944 42.7596 58.2975 42.3369C58.3036 41.5773 58.3059 40.8184 58.3097 40.0588C58.3105 39.9293 58.3097 39.7998 58.3097 39.6258C59.0769 39.7307 59.7457 39.9682 60.3664 40.3473C61.2428 40.8828 61.9115 41.6241 62.2436 42.6309C62.3711 43.017 62.3757 43.454 62.3902 43.8696C62.394 43.9793 62.2452 44.1318 62.1306 44.2017C61.2527 44.7357 60.2908 45.013 59.2838 45.017C56.2736 45.0305 53.2627 45.0051 50.2517 44.9931C50.1975 44.9931 50.1441 44.9788 50.1059 44.9733C50.2662 44.4075 50.4594 43.8672 50.5716 43.3086C51.2381 40.0024 49.0447 36.6008 45.8528 35.9842C45.4459 35.9056 45.0268 35.865 44.613 35.8611C43.0266 35.8476 41.4402 35.8555 39.8538 35.8563C39.3698 35.8571 38.8888 35.6386 38.3972 35.8388C38.3651 35.8523 38.2102 35.6879 38.2063 35.602C38.1934 35.3303 38.2247 35.0554 38.2415 34.7256C37.862 34.7757 37.5277 34.8194 37.1566 34.8679C37.1566 34.4785 37.1566 34.1281 37.1566 33.734C36.8818 33.7737 36.6375 33.7817 36.4092 33.8484C36.113 33.935 36.0588 33.8095 36.0886 33.5449C36.1077 33.378 36.1 33.2072 36.1184 33.0395C36.1428 32.8115 36.0581 32.7281 35.8405 32.7694C35.5832 32.8186 35.3244 32.8568 35.0458 32.9029C35.0458 32.6359 35.0389 32.4102 35.0473 32.1854C35.0641 31.7189 35.0648 31.7181 34.6106 31.8056C34.4106 31.8445 34.209 31.8755 33.9541 31.9192C33.9708 31.6228 33.9838 31.3876 33.9976 31.1516C34.0212 30.7329 34.0159 30.7329 33.6326 30.8115C33.4097 30.8568 33.183 30.8815 32.9173 30.922C32.9173 30.5207 32.9173 30.1687 32.9173 29.7754C32.5524 29.8263 32.2264 29.8723 31.8416 29.9256C31.8562 29.6173 31.8569 29.3447 31.8852 29.0762C31.9104 28.8394 31.8264 28.7695 31.6103 28.8108C31.3523 28.8601 31.092 28.895 30.8057 28.9403C30.8057 28.5454 30.8057 28.1918 30.8057 27.7921C30.4476 27.8446 30.1117 27.8931 29.7186 27.9511C29.7315 27.6523 29.7331 27.3925 29.7567 27.1342C29.7796 26.8855 29.7323 26.783 29.4544 26.8379C28.6757 26.9904 28.6658 26.9785 28.7139 26.1672C28.7299 25.8979 28.6734 25.7572 28.3932 25.8597C27.8031 26.0759 27.3817 25.855 27.0412 25.3441C26.7908 24.9698 26.503 24.6226 26.2396 24.2571C26.174 24.1665 26.1381 24.0521 26.0625 23.8939C26.6885 23.7843 27.2588 23.7883 27.826 23.8987C29.3361 24.1919 30.637 24.9674 31.9157 25.8065C33.6235 26.9268 35.0152 28.4365 36.5146 29.812C38.2079 31.3646 39.8744 32.9482 41.5532 34.5182C41.6456 34.6048 41.7456 34.6835 41.8807 34.7995C41.9532 34.6295 42.0502 34.4944 42.0601 34.353C42.0693 34.2306 42.0136 34.0304 41.9281 33.9859C41.6196 33.8262 41.6036 33.6013 41.7326 33.328C41.8639 33.0499 41.87 32.8472 41.5524 32.6907C41.2822 32.558 41.373 32.2934 41.4669 32.0892C41.5952 31.8111 41.5937 31.6307 41.2845 31.4885C41.0333 31.3733 41.0906 31.1167 41.1807 30.9204C41.315 30.6288 41.3524 30.4174 41.0005 30.2625C40.7692 30.16 40.8058 29.9343 40.8997 29.7325C41.0326 29.4472 41.1036 29.2105 40.718 29.046C40.4997 28.953 40.5417 28.7107 40.6287 28.5057C40.7402 28.2419 40.8364 28.0075 40.4615 27.8422C40.1966 27.7254 40.2859 27.4465 40.3768 27.2383C40.4966 26.9634 40.4951 26.7799 40.192 26.6321C39.9256 26.5018 40.0088 26.2356 40.1027 26.029C40.2271 25.7549 40.2371 25.5729 39.9263 25.4259C39.6935 25.3154 39.7118 25.0771 39.8134 24.8602C39.9424 24.5844 40.0065 24.3564 39.6362 24.2022C39.4126 24.1093 39.4408 23.8804 39.5309 23.6707C39.6492 23.3965 39.7531 23.1439 39.3591 22.9714C39.2713 22.9333 39.2324 22.6051 39.2782 22.4438C39.3622 22.1538 39.4431 21.9385 39.0927 21.7685C38.8293 21.6413 38.9209 21.3759 39.0148 21.1662C39.1286 20.9111 39.1484 20.7284 38.8507 20.5845C38.5934 20.4606 38.6339 20.2047 38.7339 19.987C38.8621 19.7081 38.882 19.5111 38.5545 19.3537C38.2934 19.2282 38.3667 18.9644 38.4659 18.7522C38.5888 18.4884 38.6232 18.293 38.2995 18.1484C38.2033 18.1055 38.0895 17.8448 38.13 17.7725C38.385 17.318 38.1537 16.8596 38.1842 16.4074C38.1896 16.324 38.1666 16.2374 38.1773 16.1548C38.1949 16.0221 38.217 15.7853 38.2613 15.7789C38.4216 15.7567 38.6384 15.7543 38.7469 15.8512C38.9232 16.007 39.0583 16.2334 39.1606 16.4543C39.2851 16.7237 39.3416 17.0264 39.4561 17.3013C39.5538 17.5373 39.6943 17.7662 39.9981 17.705C40.3088 17.6422 40.3462 17.388 40.3226 17.1186C40.289 16.7356 40.2203 16.3542 40.2081 15.9704C40.1966 15.5024 40.4172 15.241 40.8928 15.125Z" fill="white" />
  <path d="M34.1059 47.2066C30.5656 47.2066 27.0253 47.2105 23.485 47.205C21.1525 47.2011 19.287 45.917 18.4195 43.7382C17.2208 40.7258 18.991 37.1877 22.0826 36.4466C22.529 36.34 22.9967 36.2812 23.4545 36.2805C30.5236 36.2695 37.592 36.2695 44.6611 36.2726C47.6917 36.2734 49.9731 38.4428 50.1188 41.5477C50.2386 44.1009 48.6081 46.3855 46.1314 47.0279C45.6232 47.1596 45.08 47.1972 44.5528 47.1995C41.0705 47.2136 37.5882 47.2066 34.1059 47.2066ZM23.192 40.338C22.4305 40.3403 21.8232 40.9648 21.8308 41.738C21.8384 42.5215 22.4496 43.1577 23.1889 43.1498C23.9557 43.142 24.5913 42.4901 24.5791 41.7231C24.5677 40.9554 23.9474 40.3356 23.192 40.338Z" fill="white" />
  <path d="M18.139 17.848C19.4693 19.75 20.7715 21.6119 22.0737 23.4737C22.1117 23.4705 22.1497 23.4674 22.1878 23.4642C22.4576 21.1882 22.7282 18.9122 23.0042 16.5833C23.5606 16.7995 23.943 17.164 24.2615 17.601C24.9085 18.4878 25.0727 19.5141 24.9944 20.591C24.8644 22.3676 24.7215 24.1443 24.5702 25.9193C24.5458 26.2033 24.6181 26.4203 24.7724 26.6475C26.5847 29.314 28.3893 31.9861 30.1963 34.6565C30.2298 34.7054 30.264 34.7536 30.2936 34.8049C30.4152 35.0163 30.5338 35.234 30.3172 35.4533C30.1302 35.6427 29.7736 35.6222 29.5631 35.395C29.3723 35.1883 29.2035 34.9595 29.0325 34.7338C27.7265 33.0022 26.422 31.2689 25.1183 29.5349C24.7154 28.9992 24.168 28.7121 23.5485 28.5622C23.4459 28.5377 23.2885 28.5835 23.2094 28.6576C22.637 29.1909 22.222 29.7874 22.2303 30.6583C22.2463 32.3206 22.1946 33.9836 22.187 35.6458C22.1855 35.9535 22.1231 36.0884 21.7993 36.1783C18.6096 37.0635 16.7433 40.1702 17.3803 43.5263C17.4746 44.0225 17.6677 44.499 17.8266 45.0205C17.5369 45.0205 17.2648 45.0213 16.9934 45.0205C14.3305 45.0094 11.6676 45.0016 9.00463 44.9834C7.96317 44.9763 6.97265 44.7317 6.05207 44.2142C5.66057 43.9941 5.49637 43.2707 5.81185 42.933C6.20107 42.5157 6.62525 42.1173 7.08896 41.7962C7.61425 41.4333 8.19807 41.4167 8.80394 41.6865C9.98147 42.2112 11.1909 42.6395 12.4688 42.8194C12.6968 42.8518 12.9272 42.8746 13.1568 42.877C14.1442 42.8849 14.8489 42.0234 14.6931 41.0081C14.6216 40.5442 14.348 40.2586 13.901 40.1868C13.8326 40.1758 13.7505 40.1947 13.6972 40.1608C13.5787 40.0858 13.4198 40.0046 13.3825 39.8894C13.3574 39.8113 13.4928 39.5943 13.5863 39.5715C14.0515 39.4571 14.5251 39.3687 15.001 39.3174C15.0785 39.3088 15.1925 39.5225 15.2663 39.6488C15.4213 39.9115 15.6798 39.9817 15.8136 39.7292C16.0827 39.2212 16.4886 39.2811 16.9174 39.3372C17.1181 39.364 17.318 39.3892 17.6054 39.4263C17.4997 39.2859 17.4548 39.2101 17.3955 39.1486C15.6471 37.3452 13.8538 35.5851 12.1609 33.7264C10.8412 32.2772 10.0157 30.5337 9.9427 28.4896C9.91229 27.6423 9.98755 27.5863 10.7888 27.6076C11.7276 27.6321 12.5585 28.0241 13.2487 28.6277C14.2507 29.5034 15.1887 30.4611 16.1283 31.4109C17.5727 32.8704 18.995 34.3528 20.4272 35.8241C20.4963 35.8951 20.5739 35.9567 20.7138 36.0829C20.7335 35.8486 20.7525 35.7011 20.7571 35.5535C20.8133 33.7485 20.843 31.9411 20.9327 30.1376C20.9753 29.2935 21.1144 28.4533 21.2482 27.6179C21.3052 27.2597 21.2474 26.9836 21.0513 26.6838C20.1315 25.2811 19.2268 23.8674 18.3283 22.4489C17.4009 20.9815 17.3241 19.4644 18.139 17.848ZM22.8347 27.2494C23.2604 27.2471 23.6032 26.8944 23.604 26.4582C23.6047 26.0337 23.2459 25.67 22.8271 25.6708C22.4044 25.6724 22.0578 26.0321 22.0585 26.4668C22.06 26.8984 22.4105 27.2518 22.8347 27.2494Z" fill="white" />
  <path d="M16.7123 58.4346H16.4044L16.622 49.321L16.7123 58.4346ZM16.9473 58.4346L16.7479 49.321L18.6678 49.3778L18.6405 56.5336L23.1057 56.279L23.2778 51.204L22.6803 51.2796L22.7615 54.3109L21.8918 55.4404L19.0658 55.5436L19.1743 51.3821L18.8027 51.4294L18.993 49.4338L20.6596 49.4054L20.7142 53.7742L21.2124 53.6804L21.1669 49.4527L25.134 49.3305L25.1158 56.9379L23.5311 58.3219L16.9473 58.4346Z" fill="white" />
  <path d="M25.6612 58.4531H25.4079L25.6976 49.2638L25.6612 58.4531ZM27.4544 58.4436L25.8689 58.4531L25.8052 49.2638L27.4264 49.3482L27.4544 58.4436ZM29.4205 50.469L29.4114 50.7133L29.7829 50.6849L29.7011 51.8711H29.3477L29.3295 52.2384L29.8459 52.2289L29.7731 53.3867L27.6174 53.4624L27.5719 52.2762L28.0701 52.2668L28.0792 51.8427L27.6356 51.8333L27.6174 50.826L28.0883 50.7976V50.5155L27.6174 50.5249L27.5901 49.2441L29.8724 49.3293L29.7905 50.4492L29.4205 50.469ZM31.8021 50.469L31.793 50.7133L32.1828 50.6849L32.11 51.8711H31.7293L31.7202 52.1438L32.2366 52.1154L32.1373 53.4151L30.018 53.4529L30.0089 52.2478L30.4525 52.2195L30.4616 51.8427L30.0536 51.8333L30.0354 50.826L30.4699 50.7976V50.5155L30.0263 50.5249L29.999 49.2441L32.2366 49.3293L32.1555 50.4492L31.8021 50.469ZM31.6482 56.7301L32.3003 56.8145L32.3549 49.2914L34.1845 49.2536L34.0215 57.3883L33.3148 58.4523H32.2366L31.6482 56.7301Z" fill="white" />
  <path d="M37.7442 50.6111L37.726 49.2271H40.0083L39.9264 50.6773L43.2778 50.7711L42.9973 52.5507L40.3435 52.6351L42.898 56.7493L43.3233 56.5893L42.9245 58.4533H41.1942L39.0931 54.8853L40.044 52.6445L39.7361 52.654L36.4932 58.4533H34.9714L34.4641 56.6736L34.935 56.8147L37.3083 52.7289L34.6271 52.8045L34.5369 50.507L37.7442 50.6111ZM39.8006 52.8045L37.174 58.4533H36.7934L39.8006 52.8045Z" fill="white" />
  <path d="M43.7495 58.4533L43.5046 58.4628L43.7404 52.1173L43.7859 52.0889L43.7495 58.4533ZM43.5137 50.347L43.7314 50.4038L43.9399 49.2271H45.7422L45.398 50.8278L43.9399 51.7878H43.6684L43.5137 50.347ZM45.307 52.2583L45.7596 52.1827L45.8051 51.3827L45.4882 51.4394L45.8324 49.7165L47.2367 49.6322L47.2276 52.5129L46.4754 53.6802L45.2797 53.7929L45.2342 56.6642L45.8408 56.598L45.9045 55.7034L45.3881 55.8067L45.5238 54.1121L47.2807 53.9805L47.154 57.1812L46.348 58.339L43.9565 58.4423L43.9292 52.0306L45.3244 51.1644L45.307 52.2583ZM47.5809 57.7755H47.336L47.5809 51.8627V57.7755ZM47.4717 50.7049L47.408 49.2357L52.3623 49.3295L52.2084 50.7514L47.4717 50.7049ZM50.8322 50.9776L50.8049 51.7586L52.2994 51.7208L52.1819 56.918L51.385 57.7463H50.977L50.7329 56.315L50.9505 56.3529L51.0498 53.3121L50.7511 53.3405L50.579 58.4525H49.1482V51.1273L47.4907 51.2684L47.4725 50.9295L52.0651 50.8633L50.8322 50.9776ZM48.8578 57.7755H47.7439L47.7075 51.8532L48.9397 51.8248L48.8578 57.7755Z" fill="white" />
  <path d="M35.9062 72C54.6322 72 69.8125 56.33 69.8125 37C69.8125 17.67 54.6322 2 35.9062 2C17.1803 2 2 17.67 2 37C2 56.33 17.1803 72 35.9062 72Z" stroke="white" stroke-width="3" stroke-miterlimit="10" />
</svg>