<svg width="214" height="100" viewBox="0 0 214 100" fill="none" xmlns="http://www.w3.org/2000/svg">
<g clip-path="url(#clip0_2_5370)">
<path d="M9.80362 0.416992C9.50352 4.54647 5.68551 7.86672 0.925504 7.86672C0.742107 7.86672 0.592054 7.77498 0.416992 7.75829V91.157C0.592054 91.1486 0.742107 91.0485 0.925504 91.0485C5.87724 91.0485 9.92033 94.5773 9.92033 98.9571C9.92033 99.174 9.78695 99.3575 9.76194 99.5744H204.93C204.914 99.3575 204.78 99.174 204.78 98.9571C204.78 94.6441 208.715 91.182 213.575 91.0819V7.83337C208.907 7.73326 205.189 4.48807 204.897 0.416992H9.80362V0.416992Z" fill="url(#paint0_linear_2_5370)" stroke="#FFF6E7"/>
<path d="M197.014 10.6279H17.6864C15.133 10.6279 13.063 12.6994 13.063 15.2548V84.1824C13.063 86.7378 15.133 88.8093 17.6864 88.8093H197.014C199.567 88.8093 201.637 86.7378 201.637 84.1824V15.2548C201.637 12.6994 199.567 10.6279 197.014 10.6279Z" fill="url(#paint1_linear_2_5370)" stroke="#FFF6E7"/>
</g>
<defs>
<linearGradient id="paint0_linear_2_5370" x1="106.996" y1="0.416992" x2="106.996" y2="99.5744" gradientUnits="userSpaceOnUse">
<stop stop-color="#FBBC05" stop-opacity="0.25"/>
<stop offset="1" stop-color="#D2AF48" stop-opacity="0.58"/>
</linearGradient>
<linearGradient id="paint1_linear_2_5370" x1="107.35" y1="10.6279" x2="107.35" y2="88.8093" gradientUnits="userSpaceOnUse">
<stop stop-color="#FBBC05" stop-opacity="0.25"/>
<stop offset="1" stop-color="#D2AF48" stop-opacity="0.58"/>
</linearGradient>
<clipPath id="clip0_2_5370">
<rect width="214" height="100" fill="white"/>
</clipPath>
</defs>
</svg>
