<svg width="36" height="36" viewBox="0 0 36 36" fill="none" xmlns="http://www.w3.org/2000/svg">
<g clip-path="url(#clip0_1460_8444)">
<path d="M32.625 6.75C32.9234 6.75 33.2095 6.86853 33.4205 7.0795C33.6315 7.29048 33.75 7.57663 33.75 7.875V28.125C33.75 28.4234 33.6315 28.7095 33.4205 28.9205C33.2095 29.1315 32.9234 29.25 32.625 29.25H3.375C3.07663 29.25 2.79048 29.1315 2.5795 28.9205C2.36853 28.7095 2.25 28.4234 2.25 28.125V7.875C2.25 7.57663 2.36853 7.29048 2.5795 7.0795C2.79048 6.86853 3.07663 6.75 3.375 6.75H32.625ZM3.375 4.5C2.47989 4.5 1.62145 4.85558 0.988515 5.48851C0.355579 6.12145 0 6.97989 0 7.875L0 28.125C0 29.0201 0.355579 29.8786 0.988515 30.5115C1.62145 31.1444 2.47989 31.5 3.375 31.5H32.625C33.5201 31.5 34.3786 31.1444 35.0115 30.5115C35.6444 29.8786 36 29.0201 36 28.125V7.875C36 6.97989 35.6444 6.12145 35.0115 5.48851C34.3786 4.85558 33.5201 4.5 32.625 4.5H3.375Z" fill="white"/>
<path d="M11.25 18C11.25 17.7016 11.3685 17.4155 11.5795 17.2045C11.7905 16.9935 12.0766 16.875 12.375 16.875H28.125C28.4234 16.875 28.7095 16.9935 28.9205 17.2045C29.1315 17.4155 29.25 17.7016 29.25 18C29.25 18.2984 29.1315 18.5845 28.9205 18.7955C28.7095 19.0065 28.4234 19.125 28.125 19.125H12.375C12.0766 19.125 11.7905 19.0065 11.5795 18.7955C11.3685 18.5845 11.25 18.2984 11.25 18ZM11.25 12.375C11.25 12.0766 11.3685 11.7905 11.5795 11.5795C11.7905 11.3685 12.0766 11.25 12.375 11.25H28.125C28.4234 11.25 28.7095 11.3685 28.9205 11.5795C29.1315 11.7905 29.25 12.0766 29.25 12.375C29.25 12.6734 29.1315 12.9595 28.9205 13.1705C28.7095 13.3815 28.4234 13.5 28.125 13.5H12.375C12.0766 13.5 11.7905 13.3815 11.5795 13.1705C11.3685 12.9595 11.25 12.6734 11.25 12.375ZM11.25 23.625C11.25 23.3266 11.3685 23.0405 11.5795 22.8295C11.7905 22.6185 12.0766 22.5 12.375 22.5H28.125C28.4234 22.5 28.7095 22.6185 28.9205 22.8295C29.1315 23.0405 29.25 23.3266 29.25 23.625C29.25 23.9234 29.1315 24.2095 28.9205 24.4205C28.7095 24.6315 28.4234 24.75 28.125 24.75H12.375C12.0766 24.75 11.7905 24.6315 11.5795 24.4205C11.3685 24.2095 11.25 23.9234 11.25 23.625ZM9 12.375C9 12.6734 8.88147 12.9595 8.67049 13.1705C8.45952 13.3815 8.17337 13.5 7.875 13.5C7.57663 13.5 7.29048 13.3815 7.07951 13.1705C6.86853 12.9595 6.75 12.6734 6.75 12.375C6.75 12.0766 6.86853 11.7905 7.07951 11.5795C7.29048 11.3685 7.57663 11.25 7.875 11.25C8.17337 11.25 8.45952 11.3685 8.67049 11.5795C8.88147 11.7905 9 12.0766 9 12.375ZM9 18C9 18.2984 8.88147 18.5845 8.67049 18.7955C8.45952 19.0065 8.17337 19.125 7.875 19.125C7.57663 19.125 7.29048 19.0065 7.07951 18.7955C6.86853 18.5845 6.75 18.2984 6.75 18C6.75 17.7016 6.86853 17.4155 7.07951 17.2045C7.29048 16.9935 7.57663 16.875 7.875 16.875C8.17337 16.875 8.45952 16.9935 8.67049 17.2045C8.88147 17.4155 9 17.7016 9 18ZM9 23.625C9 23.9234 8.88147 24.2095 8.67049 24.4205C8.45952 24.6315 8.17337 24.75 7.875 24.75C7.57663 24.75 7.29048 24.6315 7.07951 24.4205C6.86853 24.2095 6.75 23.9234 6.75 23.625C6.75 23.3266 6.86853 23.0405 7.07951 22.8295C7.29048 22.6185 7.57663 22.5 7.875 22.5C8.17337 22.5 8.45952 22.6185 8.67049 22.8295C8.88147 23.0405 9 23.3266 9 23.625Z" fill="white"/>
</g>
<defs>
<clipPath id="clip0_1460_8444">
<rect width="36" height="36" fill="white"/>
</clipPath>
</defs>
</svg>
