<svg width="25" height="25" viewBox="0 0 25 25" fill="none" xmlns="http://www.w3.org/2000/svg">
<g clip-path="url(#clip0_1460_8472)">
<path d="M0 20.1385C0 21.2886 0.93316 22.2218 2.08333 22.2218H22.9167C24.0668 22.2218 25 21.2886 25 20.1385V12.4996H0V20.1385ZM8.33333 17.1871C8.33333 16.9006 8.56771 16.6662 8.85417 16.6662H14.7569C15.0434 16.6662 15.2778 16.9006 15.2778 17.1871V18.9232C15.2778 19.2096 15.0434 19.444 14.7569 19.444H8.85417C8.56771 19.444 8.33333 19.2096 8.33333 18.9232V17.1871ZM2.77778 17.1871C2.77778 16.9006 3.01215 16.6662 3.29861 16.6662H6.42361C6.71007 16.6662 6.94444 16.9006 6.94444 17.1871V18.9232C6.94444 19.2096 6.71007 19.444 6.42361 19.444H3.29861C3.01215 19.444 2.77778 19.2096 2.77778 18.9232V17.1871ZM25 4.86068V6.94401H0V4.86068C0 3.7105 0.93316 2.77734 2.08333 2.77734H22.9167C24.0668 2.77734 25 3.7105 25 4.86068Z" fill="white"/>
</g>
<defs>
<clipPath id="clip0_1460_8472">
<rect width="25" height="25" fill="white"/>
</clipPath>
</defs>
</svg>
