<svg width="29" height="24" viewBox="0 0 29 24" fill="none" xmlns="http://www.w3.org/2000/svg">
<path d="M1.8125 3.5387C3.41656 2.86104 5.71663 2.13027 7.95325 1.90317C10.3639 1.65775 12.4084 2.01855 13.5938 3.28046V21.1303C11.8991 20.1596 9.75125 20.0259 7.77019 20.2274C5.63144 20.4471 3.47456 21.0717 1.8125 21.7127V3.5387ZM15.4062 3.28046C16.5916 2.01855 18.6361 1.65775 21.0468 1.90317C23.2834 2.13027 25.5834 2.86104 27.1875 3.5387V21.7127C25.5236 21.0717 23.3686 20.4453 21.2298 20.2292C19.2469 20.0259 17.1009 20.1578 15.4062 21.1303V3.28046ZM14.5 1.62478C12.7147 0.0734961 10.1264 -0.157273 7.77019 0.0808221C5.02606 0.361042 2.25656 1.31159 0.531063 2.10463C0.372739 2.17739 0.23848 2.29466 0.144313 2.44242C0.0501459 2.59019 4.81607e-05 2.76221 0 2.93797L0 23.0845C4.19811e-05 23.2377 0.0381298 23.3885 0.110775 23.523C0.18342 23.6575 0.288299 23.7714 0.415807 23.8543C0.543315 23.9372 0.689374 23.9865 0.840607 23.9976C0.99184 24.0087 1.14341 23.9813 1.28144 23.9178C2.88006 23.1852 5.45563 22.3043 7.95144 22.0497C10.5053 21.7896 12.6458 22.209 13.7931 23.6559C13.878 23.7629 13.9856 23.8492 14.108 23.9085C14.2303 23.9678 14.3643 23.9986 14.5 23.9986C14.6357 23.9986 14.7697 23.9678 14.892 23.9085C15.0144 23.8492 15.122 23.7629 15.2069 23.6559C16.3542 22.209 18.4948 21.7896 21.0468 22.0497C23.5444 22.3043 26.1218 23.1852 27.7186 23.9178C27.8566 23.9813 28.0082 24.0087 28.1594 23.9976C28.3106 23.9865 28.4567 23.9372 28.5842 23.8543C28.7117 23.7714 28.8166 23.6575 28.8892 23.523C28.9619 23.3885 29 23.2377 29 23.0845V2.93797C29 2.76221 28.9499 2.59019 28.8557 2.44242C28.7615 2.29466 28.6273 2.17739 28.4689 2.10463C26.7434 1.31159 23.9739 0.361042 21.2298 0.0808221C18.8736 -0.159105 16.2853 0.0734961 14.5 1.62478Z" fill="white"/>
</svg>
