<svg width="28" height="28" viewBox="0 0 28 28" fill="none" xmlns="http://www.w3.org/2000/svg">
<path d="M27.0318 14.12C27.0318 13.2109 26.9512 12.3479 26.8131 11.5078H13.8096V16.6977H21.255C20.9213 18.4009 19.9431 19.8393 18.4932 20.8174V24.2697H22.9351C25.5358 21.8646 27.0318 18.3203 27.0318 14.12Z" fill="#4285F4"/>
<path d="M13.809 27.6182C17.5374 27.6182 20.656 26.3754 22.9345 24.2695L18.4926 20.8172C17.2498 21.6458 15.6732 22.1521 13.809 22.1521C10.2071 22.1521 7.15761 19.724 6.06439 16.4443H1.48438V20.0002C3.75137 24.5111 8.41194 27.6182 13.809 27.6182Z" fill="#34A853"/>
<path d="M6.06449 16.4445C5.7768 15.6159 5.6272 14.7298 5.6272 13.8092C5.6272 12.8886 5.78831 12.0026 6.06449 11.174V7.61816H1.48448C0.540855 9.48239 0 11.5768 0 13.8092C0 16.0417 0.540855 18.1361 1.48448 20.0003L6.06449 16.4445Z" fill="#FBBC05"/>
<path d="M13.809 5.4661C15.8458 5.4661 17.664 6.16806 19.1025 7.53747L23.0381 3.60187C20.656 1.3694 17.5374 0 13.809 0C8.41194 0 3.75137 3.10705 1.48438 7.61802L6.06439 11.1739C7.15761 7.8942 10.2071 5.4661 13.809 5.4661Z" fill="#EA4335"/>
</svg>
