<svg width="25" height="25" viewBox="0 0 25 25" fill="none" xmlns="http://www.w3.org/2000/svg">
<g clip-path="url(#clip0_1460_8470)">
<path d="M7.07772 23.0581C6.86874 23.896 7.37753 24.7441 8.21444 24.9531C8.34188 24.9854 8.46932 24.9995 8.5953 24.9995C9.29501 24.9995 9.93172 24.5259 10.1099 23.8164L11.3424 18.8862L8.76522 16.3091L7.07772 23.0581ZM7.80477 13.4819L9.81454 5.71289C9.92147 5.30176 9.66122 4.88525 9.23251 4.78223C7.08993 4.26855 4.91854 5.51807 4.3829 7.57373L3.14901 12.3652C3.04208 12.7764 3.30233 13.1929 3.73104 13.2959L6.83456 14.0405C7.26376 14.1431 7.69784 13.8931 7.80477 13.4819ZM21.0938 7.8125H20.3126C19.8809 7.8125 19.5313 8.16211 19.5313 8.59375V9.375H17.8346L15.5504 7.09082C15.0089 6.54834 14.2877 6.25 13.5211 6.25C12.2017 6.25 11.0567 7.14356 10.7364 8.42383L9.42196 13.6836C9.35658 13.9454 9.36009 14.2196 9.43213 14.4797C9.50418 14.7397 9.64231 14.9767 9.83309 15.1675L14.0626 19.397V23.4375C14.0626 24.3003 14.7623 25 15.6251 25C16.4879 25 17.1876 24.3003 17.1876 23.4375V19.397C17.1876 18.5625 16.8624 17.7778 16.2721 17.1875L13.9859 14.9014C13.9932 14.877 14.0099 14.8579 14.0162 14.8325L14.9874 10.9473L16.0826 12.0425C16.3756 12.3354 16.773 12.5005 17.1871 12.5005H19.5308V24.2192C19.5308 24.6509 19.8805 25.0005 20.3121 25.0005H21.0933C21.525 25.0005 21.8746 24.6509 21.8746 24.2192V8.59375C21.8751 8.16211 21.5255 7.8125 21.0938 7.8125ZM14.8438 4.6875C16.1383 4.6875 17.1876 3.63818 17.1876 2.34375C17.1876 1.04932 16.1383 0 14.8438 0C13.5494 0 12.5001 1.04932 12.5001 2.34375C12.5001 3.63818 13.5494 4.6875 14.8438 4.6875Z" fill="white"/>
</g>
<defs>
<clipPath id="clip0_1460_8470">
<rect width="25" height="25" fill="white"/>
</clipPath>
</defs>
</svg>
