<svg width="80" height="82" viewBox="0 0 80 82" fill="none" xmlns="http://www.w3.org/2000/svg">
<g filter="url(#filter0_d_2_4808)">
<path d="M30.8044 21.2416C35.3482 24.2351 39.8708 27.215 44.3934 30.1949C44.4155 30.1718 44.4375 30.1477 44.4596 30.1246C44.2527 29.7427 44.0468 29.36 43.8377 28.9794C42.5114 26.5631 41.1796 24.1494 39.8585 21.7309C39.0826 20.3103 38.3066 18.8888 37.5645 17.4516C37.318 16.9741 37.1726 16.4465 36.9886 15.939C36.9523 15.8384 36.9526 15.725 36.918 15.5031C37.3896 15.6911 37.8066 15.814 38.1837 16.0157C39.1577 16.5363 39.9196 17.313 40.6332 18.1476C41.8754 19.5994 42.7419 21.2746 43.6362 22.9354C44.5351 24.6039 45.4435 26.2681 46.3499 27.9331C46.3815 27.9913 46.4356 28.038 46.5217 28.1397C46.5276 27.9946 46.536 27.9093 46.5331 27.8245C46.417 24.4241 46.2971 21.0235 46.1862 17.6237C46.1588 16.7865 46.1567 15.9493 46.1518 15.1129C46.1467 14.2032 46.4821 13.4129 46.9567 12.6797C47.2188 12.2755 47.5101 11.8912 47.8417 11.4219C48.3843 11.9851 48.8738 12.5073 49.3788 13.0144C50.7722 14.4147 51.1595 16.157 51.225 17.9956C51.3389 21.2041 51.4265 24.4125 51.5249 27.6208C51.5456 28.3054 51.5644 28.99 51.5857 29.7484C51.6871 29.6611 51.7444 29.621 51.7918 29.5706C52.2253 29.1105 52.6415 28.6332 53.0944 28.1931C53.5079 27.791 54.0292 27.5948 54.6257 27.6691C54.7582 27.6855 54.8797 27.8247 55.0067 27.9077C54.9302 28.0077 54.874 28.141 54.7735 28.202C54.3575 28.454 53.9876 28.7379 53.8543 29.2392C53.7225 29.7364 53.8956 30.2092 54.3044 30.4662C54.6628 30.6917 55.1204 30.6303 55.4874 30.2852C56.2074 29.6076 56.9193 28.9226 57.6322 28.2376C57.873 28.0057 57.8696 27.9232 57.6211 27.6616C57.1749 27.191 56.7269 26.7231 56.2793 26.2539C56.2031 26.1738 56.1259 26.0947 56.0228 25.9877C56.5566 25.5977 57.1085 25.3477 57.7145 25.2131C58.5705 25.0232 59.4207 25.0829 60.2211 25.505C60.5282 25.6669 60.7899 25.9329 61.0449 26.1798C61.1122 26.2449 61.111 26.4269 61.082 26.5377C60.8586 27.3859 60.4315 28.1261 59.8148 28.725C57.9723 30.5162 56.1063 32.2839 54.2482 34.0599C54.2149 34.092 54.1736 34.1149 54.1468 34.134C53.9103 33.6913 53.709 33.2447 53.4472 32.8349C51.8986 30.4076 48.5356 29.6156 46.2082 31.1271C45.9114 31.3197 45.6298 31.543 45.3731 31.7857C44.3898 32.717 43.4193 33.6615 42.4445 34.6015C42.1475 34.8887 41.7224 35.0392 41.5387 35.4535C41.527 35.4808 41.3343 35.4715 41.2811 35.421C41.1122 35.2616 40.9686 35.0741 40.7836 34.8614C40.58 35.1169 40.4004 35.3418 40.201 35.5914C39.9704 35.352 39.7628 35.1366 39.5294 34.8944C39.384 35.0816 39.2385 35.2311 39.1377 35.4074C39.0069 35.636 38.8993 35.591 38.7608 35.4107C38.6737 35.2968 38.5679 35.1963 38.4798 35.0824C38.3598 34.9277 38.2583 34.9266 38.149 35.0809C38.02 35.2636 37.8835 35.4403 37.7395 35.6337C37.5814 35.4695 37.4435 35.3349 37.3155 35.1917C37.0495 34.895 37.0495 34.8941 36.8221 35.2168C36.7222 35.3592 36.6166 35.4976 36.4858 35.6755C36.3205 35.4834 36.1892 35.3311 36.0579 35.1779C35.8244 34.9065 35.8211 34.9096 35.6321 35.185C35.5219 35.3449 35.3971 35.4943 35.2578 35.6766C35.0201 35.4299 34.8117 35.2135 34.5787 34.9717C34.3845 35.2191 34.2114 35.4405 34.0064 35.7011C33.8327 35.503 33.6717 35.335 33.53 35.1532C33.4053 34.9927 33.3122 34.9995 33.2039 35.1528C33.0745 35.3359 32.9351 35.5116 32.786 35.709C32.5521 35.4663 32.3426 35.2489 32.1059 35.0032C31.9169 35.2475 31.7391 35.4762 31.5317 35.7448C31.3628 35.5534 31.2098 35.3928 31.0714 35.22C30.9382 35.0536 30.8484 35.0186 30.71 35.2169C30.3217 35.7719 30.3085 35.7704 29.8576 35.2432C29.7079 35.0681 29.5899 35.0151 29.4783 35.2441C29.2436 35.7265 28.8537 35.8403 28.3418 35.7279C27.9662 35.6461 27.5836 35.6031 27.2052 35.5344C27.1112 35.5176 27.0213 35.4685 26.8812 35.4161C27.2011 34.9779 27.554 34.6426 27.9682 34.3745C29.0701 33.6604 30.3292 33.3666 31.6122 33.1251C33.3257 32.8023 35.0754 32.9061 36.8118 32.8636C38.7723 32.8151 40.7347 32.8016 42.6967 32.7724C42.8048 32.771 42.9129 32.7601 43.0646 32.7514C43.0085 32.6039 42.9881 32.4634 42.9104 32.3706C42.8436 32.29 42.6907 32.1999 42.6118 32.2232C42.3276 32.3077 42.1846 32.1789 42.102 31.9345C42.018 31.6857 41.9018 31.5576 41.6138 31.6494C41.3691 31.7279 41.2682 31.5115 41.205 31.3303C41.1191 31.0834 41.0114 30.9734 40.7371 31.0691C40.5144 31.147 40.3976 30.9553 40.3367 30.7813C40.2466 30.5225 40.1444 30.3704 39.8363 30.4836C39.6334 30.5576 39.5223 30.3972 39.4605 30.2175C39.3732 29.9634 39.2766 29.7758 38.9421 29.9031C38.7529 29.9752 38.6351 29.8014 38.5672 29.6238C38.4795 29.3956 38.3998 29.1945 38.0715 29.315C37.8394 29.4001 37.7292 29.1757 37.6617 28.9939C37.5726 28.7539 37.4629 28.642 37.1891 28.7306C36.9481 28.8083 36.8416 28.5954 36.777 28.4128C36.6911 28.1706 36.5894 28.0528 36.3113 28.1465C36.1028 28.2165 35.9729 28.0591 35.9068 27.8656C35.8228 27.6197 35.7272 27.4416 35.4083 27.5661C35.2157 27.6414 35.0975 27.484 35.0286 27.3017C34.939 27.0631 34.8532 26.8463 34.5089 26.9736C34.4323 27.0021 34.214 26.8235 34.1467 26.6972C34.0265 26.4692 33.9487 26.2889 33.6326 26.3919C33.3954 26.4697 33.2945 26.2523 33.228 26.0677C33.1469 25.8436 33.0508 25.7195 32.7826 25.8074C32.551 25.8836 32.4244 25.7023 32.3569 25.5092C32.2706 25.2618 32.1661 25.1289 31.8715 25.2262C31.6367 25.3037 31.5255 25.0981 31.4608 24.9089C31.3802 24.6739 31.2855 24.5334 31.0009 24.6362C30.9163 24.6668 30.692 24.574 30.6741 24.5056C30.5616 24.0751 30.1479 23.9303 29.8989 23.6343C29.8527 23.5798 29.7874 23.5401 29.745 23.483C29.6772 23.391 29.5506 23.2324 29.574 23.2022C29.6594 23.0936 29.7913 22.9637 29.9153 22.9591C30.116 22.9504 30.3332 23.0096 30.5269 23.0848C30.7629 23.1767 30.977 23.3293 31.2102 23.4305C31.41 23.5177 31.6319 23.5752 31.7825 23.3576C31.9363 23.135 31.8087 22.9565 31.6346 22.8049C31.3871 22.5894 31.119 22.3956 30.8842 22.1669C30.6 21.886 30.5808 21.5946 30.8044 21.2416Z" fill="white"/>
<path d="M45.6333 44.9835C43.4569 47.0804 41.2828 49.1797 39.1032 51.2732C37.667 52.6522 35.7596 52.9678 33.9358 52.1422C31.4148 51.0003 30.4074 47.7768 31.869 45.49C32.0803 45.1602 32.333 44.847 32.614 44.5754C36.9532 40.3817 41.2985 36.1952 45.6461 32.0102C47.5096 30.2157 50.197 30.1981 52.1255 32.0205C53.7114 33.5192 54.0622 35.8893 52.9202 37.7512C52.6857 38.1331 52.374 38.4779 52.0513 38.7917C49.9189 40.8628 47.774 42.921 45.6333 44.9835ZM34.8558 47.2252C34.3891 47.6777 34.3856 48.4212 34.8483 48.8921C35.317 49.3692 36.0695 49.3983 36.5194 48.9556C36.9861 48.4966 36.9908 47.7194 36.529 47.2552C36.0672 46.7899 35.3188 46.7764 34.8558 47.2252Z" fill="white"/>
<path d="M18.4292 36.3916C20.3736 36.773 22.2768 37.1462 24.1801 37.5195C24.2016 37.4951 24.2231 37.4706 24.2446 37.4462C23.0624 35.8872 21.8807 34.3277 20.671 32.7326C21.1411 32.5359 21.5921 32.5335 22.0467 32.6135C22.9696 32.7755 23.6785 33.3092 24.2682 34.0176C25.2405 35.1867 26.2049 36.3636 27.1633 37.5444C27.3165 37.7334 27.4894 37.824 27.7189 37.8722C30.4123 38.4381 33.1043 39.0119 35.7968 39.5833C35.8464 39.5935 35.8959 39.6029 35.9445 39.6168C36.1445 39.6748 36.3464 39.7384 36.3431 40.0015C36.3403 40.2287 36.1089 40.4272 35.8449 40.4123C35.6052 40.3982 35.3659 40.3575 35.1272 40.3201C33.2987 40.0291 31.4702 39.7362 29.6417 39.4424C29.0767 39.3517 28.5702 39.4994 28.1005 39.7742C28.0229 39.8199 27.9533 39.9413 27.9486 40.0337C27.9126 40.7006 28.0107 41.3131 28.5317 41.8435C29.526 42.8559 30.4792 43.9089 31.4591 44.9352C31.6404 45.1253 31.682 45.2451 31.5361 45.4922C30.0995 47.9256 30.7923 50.9408 33.1717 52.6266C33.5235 52.8759 33.9244 53.0544 34.331 53.2809C34.1529 53.4525 33.9861 53.6141 33.8188 53.7744C32.1752 55.3448 30.5335 56.9172 28.8857 58.4832C28.2413 59.0957 27.4875 59.532 26.6151 59.7591C26.244 59.8557 25.7146 59.5082 25.7086 59.1138C25.7007 58.6267 25.7255 58.1305 25.8203 57.6585C25.9283 57.1243 26.2774 56.7683 26.8097 56.5753C27.8443 56.2004 28.8415 55.7474 29.7336 55.1011C29.893 54.9859 30.0481 54.8636 30.1907 54.7291C30.8024 54.1491 30.7254 53.2021 30.0282 52.6702C29.7095 52.4274 29.3721 52.4139 29.0548 52.6345C29.0062 52.6682 28.967 52.7285 28.9142 52.7392C28.7969 52.7633 28.6511 52.8075 28.5599 52.7587C28.4983 52.7256 28.4529 52.512 28.4969 52.4426C28.7151 52.0967 28.9539 51.7619 29.2161 51.4485C29.2586 51.3973 29.4554 51.4612 29.5755 51.4951C29.8264 51.5647 30.0269 51.4548 29.9596 51.2204C29.8241 50.7487 30.1092 50.5451 30.4059 50.3256C30.5452 50.2232 30.683 50.1203 30.8816 49.9729C30.7335 49.9492 30.6611 49.9292 30.5882 49.9265C28.4452 49.8534 26.3003 49.8335 24.1587 49.6936C22.4891 49.5843 20.9489 49.0014 19.6934 47.7881C19.1729 47.2852 19.1859 47.2062 19.6911 46.7447C20.2827 46.2037 21.0258 45.9526 21.8075 45.9148C22.9421 45.8597 24.0861 45.8929 25.2263 45.9203C26.9786 45.9621 28.7309 46.0309 30.4828 46.0872C30.5674 46.0898 30.6515 46.0817 30.8123 46.0765C30.6856 45.9208 30.6099 45.8188 30.5254 45.7254C29.4909 44.5825 28.4386 43.4538 27.4256 42.292C26.9518 41.7479 26.5397 41.149 26.1271 40.5561C25.95 40.3022 25.7509 40.1666 25.4528 40.0985C24.0566 39.781 22.6631 39.4477 21.2706 39.1079C19.8314 38.7551 18.8856 37.868 18.4292 36.3916ZM26.8842 39.39C27.1445 39.1364 27.1464 38.7165 26.8884 38.4479C26.6375 38.1865 26.2015 38.1754 25.9445 38.424C25.6856 38.6753 25.6856 39.1018 25.9435 39.3686C26.2 39.6329 26.6248 39.6427 26.8842 39.39Z" fill="white"/>
<path d="M39.9062 72C58.6322 72 73.8125 56.33 73.8125 37C73.8125 17.67 58.6322 2 39.9062 2C21.1803 2 6 17.67 6 37C6 56.33 21.1803 72 39.9062 72Z" stroke="white" stroke-width="3" stroke-miterlimit="10"/>
</g>
<defs>
<filter id="filter0_d_2_4808" x="0.5" y="0.5" width="78.8125" height="81" filterUnits="userSpaceOnUse" color-interpolation-filters="sRGB">
<feFlood flood-opacity="0" result="BackgroundImageFix"/>
<feColorMatrix in="SourceAlpha" type="matrix" values="0 0 0 0 0 0 0 0 0 0 0 0 0 0 0 0 0 0 127 0" result="hardAlpha"/>
<feOffset dy="4"/>
<feGaussianBlur stdDeviation="2"/>
<feComposite in2="hardAlpha" operator="out"/>
<feColorMatrix type="matrix" values="0 0 0 0 0 0 0 0 0 0 0 0 0 0 0 0 0 0 0.25 0"/>
<feBlend mode="normal" in2="BackgroundImageFix" result="effect1_dropShadow_2_4808"/>
<feBlend mode="normal" in="SourceGraphic" in2="effect1_dropShadow_2_4808" result="shape"/>
</filter>
</defs>
</svg>
