<svg width="79" height="83" viewBox="0 0 79 83" fill="none" xmlns="http://www.w3.org/2000/svg">
<path d="M70.7556 60.1542C70.7556 60.1542 70.1191 59.4425 67.8702 55.5076C65.6214 51.5726 64.5606 51.6563 63.4149 49.5214C62.2693 47.3865 61.9723 44.7911 61.9723 44.7911L59.2991 45.419C58.3231 42.6143 52.807 36.7119 52.807 36.7119L44.745 43.1166L47.5879 42.3213L52.3827 38.2189L51.3219 43.9539L48.182 46.8004C48.182 46.8004 49.3701 47.8051 50.3884 48.6005C51.4068 49.3958 51.0673 51.1121 51.0673 51.1121C52.5949 49.8982 51.3219 48.5586 51.3219 48.5586L49.4974 46.9679C49.4974 46.9679 50.1338 46.5493 51.5341 45.126C52.9343 43.7027 53.0616 38.47 53.0616 38.47L58.7475 46.1306L60.9963 46.34L57.7715 50.5679C57.7715 50.5679 58.6202 51.5307 59.2142 52.5354C59.8082 53.4982 58.2383 55.5494 58.2383 55.5494C58.2383 55.5494 59.8931 54.6285 60.1477 53.3308C60.4023 52.0331 58.9596 50.6098 58.9596 50.6098L61.7601 47.0935C61.7601 47.0935 62.2268 50.4842 63.0755 51.0703C63.9241 51.6982 66.1306 54.2936 66.1306 54.2936L70.1616 60.4472L66.6397 60.196L62.8209 60.2379V58.396L63.8817 59.3169H65.0698L62.8633 56.889V55.6332L64.4757 56.3867L62.2693 52.9959L60.3174 56.3448L61.7601 55.7587V57.0146L59.5112 59.3588H60.869L61.8025 58.4379V60.3216L56.6683 60.4053L54.2921 58.2285L50.346 53.2471L45.9331 47.3865L41.6475 42.0701L33.7977 34.6607L30.2334 32.6095L26.4146 37.0049C26.4146 37.0049 26.457 35.5816 25.5235 34.7862C24.59 33.9909 23.6141 34.4095 23.6141 34.4095C23.8687 33.2374 22.2138 32.2327 22.2138 32.2327C20.1771 30.8513 18.8193 31.6048 18.8193 31.6048C18.9042 30.349 18.6072 30.1396 16.9948 28.8838C15.5521 28.0047 13.9821 28.5908 13.9821 28.5908C13.9821 28.5908 12.2849 29.428 12.9213 29.6792C15.4248 28.214 17.6737 30.1815 17.9707 30.8513C18.2677 31.5211 17.2494 32.442 16.8675 33.1118C16.4856 33.7816 17.0796 34.0746 18.0556 33.1118C19.0315 32.149 20.1771 32.0653 21.7471 32.9443C23.3171 33.8234 22.5109 35.0374 21.9593 35.7909C21.4076 36.5444 22.3411 36.5444 22.3411 36.5444C23.996 34.0746 25.7357 36.5444 25.7357 36.5444C25.7357 36.5444 26.16 37.1723 24.6325 39.3073C23.1049 41.4422 22.2987 40.898 22.1714 41.0236C22.0441 41.1492 18.0131 39.0142 18.0131 39.0142L14.8732 48.433C14.8732 48.433 14.364 48.2656 13.4305 47.4702C12.4546 46.7167 11.6484 48.8098 11.1392 50.7772C10.63 52.7447 10.63 52.2424 9.61166 52.2424C8.59331 52.2424 7.23549 54.4192 7.23549 54.4192L5.3685 59.903L3.54395 60.9077L73.1318 60.9495L70.7556 60.1542ZM6.04741 60.2379L8.50844 54.5029C8.50844 54.5029 8.76303 53.0378 10.1208 53.1215C11.4787 53.2052 11.9454 51.5307 11.9454 51.5307L12.794 48.6005C12.794 48.6005 13.0062 47.847 14.2791 48.9354C15.5521 50.0237 16.2734 48.8098 16.3159 48.0981C16.3583 47.3446 18.4799 40.3957 18.4799 40.3957L21.5349 41.5678C21.5349 41.5678 23.1898 42.405 24.7597 40.6887C26.3297 38.9724 29.6818 33.9909 29.6818 33.9909L28.8756 42.8655L31.4215 41.7352C31.4215 41.7352 31.4639 44.4562 30.3183 46.1306C29.1726 47.8051 26.9238 49.4377 26.9238 49.4377C26.9238 49.4377 25.5659 47.8051 24.0808 49.4377C22.5957 51.0703 20.559 53.3308 20.559 53.3308L20.3893 55.8425L15.934 60.0286L6.04741 60.2379ZM36.089 60.0704H33.5007L36.089 56.4704V60.0704ZM36.98 60.0704V57.0983L39.1865 60.0704H36.98ZM39.9078 60.0704C39.7381 60.0704 37.1922 55.5076 37.1922 55.5076H42.4537L45.6785 60.0704C45.6361 60.0704 40.12 60.0704 39.9078 60.0704ZM46.4847 60.0704L43.0478 54.6285H36.089L32.355 60.0704H29.894V58.2704L32.0155 59.1076L29.894 56.889V55.675L31.761 56.2611C31.761 56.2611 29.9788 54.461 29.894 54.461C29.8091 54.461 29.894 52.8703 29.894 52.8703L31.761 53.7075L29.5969 50.6098C29.5969 50.6098 27.6027 53.3308 27.3056 53.4564L29.0453 52.9122V54.461L27.4754 56.3867L28.9605 55.5494V57.1402L27.2208 59.4425L29.0878 58.2704V60.1123H16.825C16.825 60.1123 20.3044 56.5122 20.3893 56.5122C20.4742 56.5122 21.6198 56.2611 21.6198 56.2611L21.1955 53.9168L25.3962 49.6889L26.6692 50.4842L31.1245 46.8004L32.3974 44.0376L33.4582 45.8795C33.4582 45.8795 34.5614 47.3446 35.4949 45.8376C36.4284 44.3306 38.1681 47.0516 38.1681 47.0516L46.018 53.5819L49.752 56.9727L53.7405 60.0704H46.4847ZM45.8058 52.0749L37.9984 45.6283C37.9984 45.6283 36.0466 43.0329 35.4101 44.2887C34.7736 45.5446 34.2644 45.0841 34.2644 45.0841L31.8883 40.1445L31.4215 41.191L30.3183 41.1492L30.5729 33.5304L34.816 37.2561L41.2232 43.0748L47.5031 51.2796L55.2681 60.0704L45.8058 52.0749Z" fill="white"/>
<path d="M16.3162 56.3027H10.5879V57.0981H16.3162V56.3027Z" fill="white"/>
<path d="M18.0138 53.415H13.8555V54.2104H18.0138V53.415Z" fill="white"/>
<path d="M20.6013 50.8613H16.5703V51.6567H20.6013V50.8613Z" fill="white"/>
<path d="M24.2077 47.8057H18.8613V48.601H24.2077V47.8057Z" fill="white"/>
<path d="M27.6455 45.1689H20.8564V45.9643H27.6455V45.1689Z" fill="white"/>
<path d="M27.645 43.2432H23.8262V44.0385H27.645V43.2432Z" fill="white"/>
<path d="M42.5814 38.0524C42.6238 38.0942 42.6238 38.0942 42.5814 38.0524C42.6238 36.5453 43.5148 35.0802 44.8727 34.3267C45.2121 34.1593 45.594 33.9918 46.0183 34.0337C46.6124 34.0755 47.1215 34.4523 47.5034 34.8709C47.8853 35.2895 48.1823 35.7918 48.6066 36.2105C48.3096 35.8756 48.6915 34.2848 48.8188 33.9081C49.4553 31.3127 53.359 27.5033 56.1595 29.8475C58.0265 31.4383 58.4932 32.2336 58.4932 32.2336C58.4932 32.2336 59.7237 32.6522 58.3235 30.7266C56.9232 28.801 55.9897 28.4243 55.7352 28.4243C55.4806 28.4243 56.8808 25.4521 59.3418 25.2009C61.8029 24.9498 60.7845 24.4056 60.3178 24.3637C59.851 24.3219 57.5597 24.573 56.5413 25.5358C55.523 26.4986 55.0562 27.2103 54.8865 28.2987C54.8865 28.215 53.4863 28.3405 53.4014 28.3824C52.4679 28.5498 51.5344 28.9266 50.7707 29.4289C49.2431 30.4336 48.2248 32.1918 48.0975 33.9918C47.6731 33.3639 46.9094 33.0709 46.1456 33.0709C45.3818 33.0709 44.6605 33.3639 44.0665 33.7825C43.3451 34.243 42.7511 34.8709 42.4541 35.6663C42.0722 36.4616 42.1146 37.3826 42.5814 38.0524Z" fill="white"/>
<path d="M35.1555 34.1594C35.1555 34.1594 35.5373 28.7593 39.7805 26.7081C42.6234 25.3267 46.0604 26.5825 48.479 28.2569C48.7336 28.4244 48.9882 28.6337 49.3276 28.7174C49.4973 28.7593 49.5398 28.6337 49.4973 28.5081C49.1155 27.2523 47.8001 26.4988 46.612 26.0383C44.6601 25.2848 42.3264 24.8243 40.2473 25.3267C37.1498 26.0802 35.1979 29.136 34.6039 32.0663C34.4766 32.6105 34.4341 33.1966 34.4341 33.7826C34.4341 33.9919 34.3917 34.4943 34.6039 34.6617C34.9009 34.9547 35.1555 34.4106 35.1555 34.1594Z" fill="white"/>
<path d="M32.3553 29.5962L26.9665 29.1776C26.7119 29.1776 26.5422 28.9683 26.5846 28.7171C26.5846 28.466 26.7968 28.2985 27.0514 28.3404L32.4402 28.759C32.6948 28.759 32.8645 28.9683 32.8221 29.2195C32.8221 29.4288 32.6099 29.5962 32.3553 29.5962Z" fill="white"/>
<path d="M34.6462 25.2008L29.6817 21.0147C29.512 20.8472 29.4696 20.596 29.6393 20.3867C29.809 20.2193 30.0636 20.1774 30.2758 20.3449L35.2403 24.531C35.41 24.6984 35.4524 24.9496 35.2827 25.1589C35.113 25.3264 34.816 25.3682 34.6462 25.2008Z" fill="white"/>
<path d="M39.2712 23.6096L38.0407 15.2793C37.9982 15.0281 38.168 14.8188 38.4226 14.7769C38.6772 14.7351 38.8893 14.9025 38.9317 15.1537L40.1623 23.4841C40.2047 23.7352 40.035 23.9445 39.7804 23.9864C39.5258 23.9864 39.3136 23.8608 39.2712 23.6096Z" fill="white"/>
<path d="M44.2786 23.2335L47.758 15.5729C47.8429 15.3636 48.0975 15.238 48.352 15.3636C48.5642 15.4473 48.6915 15.6985 48.5642 15.9496L45.0848 23.6102C44.9999 23.8196 44.7454 23.9451 44.4908 23.8196C44.2786 23.694 44.1938 23.4428 44.2786 23.2335Z" fill="white"/>
<path d="M48.904 24.2793L54.9717 20.5536C55.1414 20.428 55.396 20.5118 55.5233 20.6792L55.5657 20.7211C55.693 20.8885 55.6082 21.1397 55.4384 21.2653L49.3707 24.9909C49.201 25.1165 48.9464 25.0328 48.8191 24.8653L48.7767 24.8235C48.6494 24.656 48.6918 24.4049 48.904 24.2793Z" fill="white"/>
<path d="M7.74414 73.9691V72.0016C8.04116 72.2947 8.38061 72.504 8.7625 72.6714C9.14438 72.8389 9.48384 72.8807 9.86572 72.8807C10.0779 72.8807 10.29 72.8389 10.4598 72.797C10.6295 72.7551 10.7568 72.6714 10.8841 72.6296C11.0114 72.5458 11.0962 72.4621 11.1387 72.3365C11.1811 72.2109 11.2235 72.1272 11.2235 72.0016C11.2235 71.8342 11.1811 71.6668 11.0962 71.5412C11.0114 71.4156 10.8841 71.29 10.7568 71.1644C10.5871 71.0388 10.4173 70.9551 10.2052 70.8295C9.99302 70.7039 9.78086 70.6202 9.52627 70.4946C8.93222 70.2016 8.46548 69.8667 8.16846 69.4481C7.87144 69.0295 7.74414 68.5272 7.74414 67.9411C7.74414 67.4806 7.829 67.1039 7.99873 66.769C8.16846 66.4341 8.38061 66.1829 8.67764 65.9736C8.97466 65.7643 9.27168 65.5969 9.65356 65.5131C10.0354 65.4294 10.4173 65.3457 10.7992 65.3457C11.1811 65.3457 11.563 65.3876 11.86 65.4294C12.157 65.4713 12.454 65.555 12.7086 65.6806V67.5225C12.5813 67.4388 12.454 67.3132 12.2843 67.2713C12.1146 67.1876 11.9873 67.1457 11.8176 67.062C11.6478 66.9783 11.4781 66.9783 11.3508 66.9364C11.2235 66.8946 11.0538 66.8946 10.8841 66.8946C10.6719 66.8946 10.5022 66.9364 10.3325 66.9783C10.1627 67.0202 10.0354 67.062 9.90815 67.1457C9.78086 67.2295 9.69599 67.3132 9.65356 67.4388C9.61113 67.5643 9.5687 67.6481 9.5687 67.8155C9.5687 67.983 9.61113 68.1085 9.65356 68.1923C9.69599 68.276 9.82329 68.4016 9.95058 68.5272C10.0779 68.6109 10.2476 68.7365 10.4173 68.8202C10.5871 68.9039 10.7992 69.0295 11.0114 69.1132C11.3084 69.2807 11.6054 69.4062 11.86 69.5737C12.1146 69.7411 12.3268 69.9086 12.4965 70.1179C12.6662 70.3272 12.7935 70.5784 12.9208 70.8295C13.0057 71.0807 13.0481 71.4156 13.0481 71.7505C13.0481 72.2528 12.9632 72.6714 12.7935 73.0063C12.6238 73.3412 12.4116 73.5924 12.1146 73.8017C11.8176 74.011 11.5206 74.1366 11.1387 74.2622C10.7568 74.3877 10.3749 74.3877 9.95058 74.3877C9.52627 74.3877 9.10195 74.3459 8.72007 74.2622C8.33818 74.1784 8.04116 74.1366 7.74414 73.9691Z" fill="white"/>
<path d="M20.9831 74.3036H19.2434V70.7035H16.061V74.3036H14.3213V65.5127H16.061V69.029H19.2434V65.5127H20.9831V74.3036Z" fill="white"/>
<path d="M29.0444 70.4943C29.0444 73.1316 27.9836 74.4711 25.8196 74.4711C23.7405 74.4711 22.6797 73.1734 22.6797 70.6199V65.5547H24.4194V70.6618C24.4194 72.085 24.9286 72.7967 25.9045 72.7967C26.8804 72.7967 27.3472 72.1269 27.3472 70.7455V65.5547H29.0869V70.4943H29.0444Z" fill="white"/>
<path d="M36.5552 65.5126L34.0518 71.1638V74.3034H32.2696V71.2057L29.8086 65.5126H31.8453L33.0758 68.7777C33.1183 68.8196 33.1607 69.0708 33.2456 69.4894H33.288C33.3304 69.1964 33.3729 68.9452 33.4577 68.7777L34.7307 65.4707H36.5552V65.5126Z" fill="white"/>
<path d="M40.6709 74.4715C39.5677 74.4715 38.6767 74.0528 37.9553 73.2575C37.234 72.4621 36.8945 71.3737 36.8945 70.0342C36.8945 68.6527 37.234 67.5225 37.9553 66.6434C38.6767 65.7643 39.6102 65.3457 40.7558 65.3457C41.859 65.3457 42.7501 65.7643 43.429 66.5597C44.1079 67.355 44.4474 68.4853 44.4474 69.8249C44.4474 71.2063 44.1079 72.3365 43.3866 73.1738C42.6652 74.011 41.8166 74.4715 40.6709 74.4715ZM40.7558 67.062C40.1618 67.062 39.6526 67.3132 39.3131 67.8574C38.9737 68.3597 38.7615 69.0714 38.7615 69.9086C38.7615 70.7877 38.9312 71.4574 39.3131 71.9598C39.6526 72.4621 40.1618 72.7133 40.7134 72.7133C41.3074 72.7133 41.7742 72.4621 42.156 71.9598C42.5379 71.4574 42.6652 70.7877 42.6652 69.9086C42.6652 68.9876 42.4955 68.276 42.156 67.7737C41.8166 67.2713 41.3498 67.062 40.7558 67.062Z" fill="white"/>
<path d="M52.0845 70.4943C52.0845 73.1316 51.0237 74.4711 48.8597 74.4711C46.7805 74.4711 45.7197 73.1734 45.7197 70.6199V65.5547H47.4594V70.6618C47.4594 72.085 47.9686 72.7967 48.9445 72.7967C49.9205 72.7967 50.3872 72.1269 50.3872 70.7455V65.5547H52.1269V70.4943H52.0845Z" fill="white"/>
<path d="M60.742 74.3036H59.0023L55.8199 68.7779C55.6502 68.443 55.5229 68.1918 55.438 68.0662H55.3956C55.438 68.3593 55.438 68.8616 55.438 69.4895V74.3036H53.7832V65.5127H55.6502L58.7053 70.8709C58.8326 71.1221 58.9599 71.3314 59.0872 71.5826H59.1296C59.0872 71.3733 59.0872 70.9547 59.0872 70.3686V65.5127H60.742V74.3036Z" fill="white"/>
<path d="M68.8457 73.7181C68.0819 74.2204 67.1484 74.4716 66.0452 74.4716C64.8147 74.4716 63.8388 74.0948 63.1174 73.2995C62.3961 72.5041 62.0566 71.4576 62.0566 70.0762C62.0566 68.6947 62.4385 67.5645 63.2447 66.6854C64.0509 65.8063 65.0693 65.3877 66.3847 65.3877C67.1909 65.3877 67.9122 65.5133 68.5487 65.7644V67.6063C67.9546 67.2296 67.2333 67.0203 66.3422 67.0203C65.6209 67.0203 65.0269 67.2714 64.5601 67.8156C64.0934 68.3598 63.8812 69.0715 63.8812 69.9506C63.8812 70.8715 64.0934 71.5413 64.4752 72.0436C64.8571 72.546 65.4512 72.7971 66.1301 72.7971C66.5544 72.7971 66.8938 72.7134 67.106 72.5878V70.8715H65.5785V69.2808H68.8457V73.7181Z" fill="white"/>
<path d="M24.5055 82.0906C24.5055 82.0906 24.4206 82.0905 24.2509 82.0487C24.0812 82.0068 23.9114 81.965 23.7417 81.8812C23.572 81.7975 23.4447 81.7138 23.3174 81.5882L23.572 81.2533C23.7417 81.4208 23.9539 81.5045 24.166 81.5882C24.3782 81.6719 24.5903 81.7138 24.8449 81.7138C25.2268 81.7138 25.4814 81.6301 25.6936 81.5045C25.9057 81.3789 25.9906 81.1696 25.9906 80.9184C25.9906 80.751 25.9481 80.6254 25.8633 80.5417C25.7784 80.458 25.6511 80.3742 25.5238 80.3324C25.3965 80.2905 25.2268 80.2487 25.0146 80.2068C25.0146 80.2068 25.0146 80.2068 24.9722 80.2068H24.8874C24.5903 80.1649 24.3357 80.0812 24.166 80.0394C23.9963 79.9975 23.8266 79.8719 23.6993 79.7463C23.572 79.6207 23.5295 79.4114 23.5295 79.1603C23.5295 78.9091 23.572 78.6998 23.6993 78.4905C23.8266 78.323 23.9963 78.1556 24.2084 78.0719C24.4206 77.9881 24.7176 77.9463 25.0146 77.9463C25.1844 77.9463 25.3117 77.9463 25.439 77.9881C25.5663 78.03 25.736 78.0719 25.8633 78.1137C25.9906 78.1975 26.1603 78.2393 26.2876 78.3649L26.033 78.6998C25.8633 78.5742 25.6936 78.4905 25.4814 78.4068C25.2692 78.323 25.1419 78.323 24.9722 78.323C24.6328 78.323 24.3782 78.4068 24.166 78.5323C23.9539 78.6579 23.869 78.8672 23.869 79.1184C23.869 79.2858 23.9114 79.4114 23.9963 79.4952C24.0812 79.5789 24.2084 79.6626 24.3357 79.7045C24.463 79.7463 24.6752 79.7882 24.9298 79.83C24.9298 79.83 24.9298 79.83 24.9722 79.83C24.9722 79.83 24.9722 79.83 25.0146 79.83H25.0571H25.0995C25.3541 79.8719 25.5663 79.9556 25.7784 79.9975C25.9906 80.0393 26.1179 80.1649 26.2027 80.3324C26.33 80.458 26.3725 80.6673 26.3725 80.9184C26.3725 81.1696 26.33 81.3789 26.2027 81.5882C26.0754 81.7975 25.9057 81.9231 25.6936 82.0068C25.4814 82.0906 25.1844 82.1324 24.8449 82.1324C24.5903 82.0906 24.5055 82.0906 24.5055 82.0906Z" fill="white"/>
<path d="M27.645 82.0486H27.2207V77.9043H27.645V82.0486Z" fill="white"/>
<path d="M28.791 77.9043H29.2153L31.6764 81.6718L31.5066 81.5462V77.9043H31.931V82.0486H31.5066L29.0032 78.281L29.2153 78.4485V82.0486H28.791V77.9043Z" fill="white"/>
<path d="M33.8826 82.0903C33.8826 82.0903 33.7553 82.0066 33.5432 81.881C33.331 81.7554 33.1613 81.588 33.034 81.3368C32.9067 81.0856 32.8643 80.8345 32.8643 80.5414V79.4112C32.8643 79.1181 32.9067 78.8251 33.034 78.6158C33.1613 78.4065 33.331 78.1972 33.5432 78.0716C33.7553 77.946 34.0099 77.8623 34.3069 77.8623C34.5615 77.8623 34.7737 77.9042 34.9858 77.9879C35.198 78.0716 35.3677 78.2391 35.495 78.4065C35.6223 78.5739 35.7072 78.7833 35.792 79.0344H35.3677C35.3253 78.867 35.2404 78.7414 35.1556 78.6158C35.0707 78.4902 34.9434 78.4065 34.7737 78.3228C34.604 78.2391 34.4767 78.2391 34.3494 78.2391C34.1372 78.2391 33.9675 78.2809 33.7978 78.3646C33.628 78.4484 33.5007 78.6158 33.4159 78.7833C33.331 78.9507 33.2886 79.16 33.2886 79.4112V80.5414C33.2886 80.7926 33.331 80.96 33.4159 81.1693C33.5007 81.3787 33.628 81.4624 33.7978 81.588C33.9675 81.7135 34.1372 81.7135 34.3494 81.7135C34.5191 81.7135 34.6464 81.6717 34.7737 81.6298C34.901 81.588 35.0283 81.4624 35.1556 81.3368C35.2404 81.2112 35.3253 81.0856 35.3677 80.9182H35.792C35.7496 81.1693 35.6647 81.3787 35.495 81.5461C35.3253 81.7135 35.198 81.881 34.9858 81.9647C34.7737 82.0484 34.5615 82.0903 34.3069 82.0903C34.0099 82.0903 33.8826 82.0903 33.8826 82.0903Z" fill="white"/>
<path d="M36.5557 77.9043H36.98V82.0486H36.5557V77.9043ZM36.8527 77.9043H39.2713V78.281H36.8527V77.9043ZM36.8527 79.7881H38.9743V80.1648H36.8527V79.7881ZM36.8527 81.6718H39.2713V82.0486H36.8527V81.6718Z" fill="white"/>
<path d="M41.5634 81.7137L43.1333 79.6625C43.2182 79.5369 43.3031 79.4113 43.3879 79.2857C43.4304 79.1601 43.4728 79.0346 43.4728 78.9508C43.4728 78.7415 43.3879 78.5741 43.2606 78.4485C43.1333 78.3229 42.9636 78.281 42.709 78.281C42.4969 78.281 42.3272 78.3648 42.1574 78.4904C42.0301 78.6159 41.9453 78.7834 41.9028 79.0345H41.4785C41.5209 78.7834 41.6058 78.5741 41.6907 78.4066C41.818 78.2392 41.9453 78.1136 42.115 78.0299C42.2847 77.9462 42.4969 77.9043 42.709 77.9043C42.9636 77.9043 43.1758 77.9462 43.3455 78.0299C43.5152 78.1136 43.6425 78.2392 43.7698 78.4066C43.8971 78.5741 43.8971 78.7834 43.8971 78.9927C43.8971 79.1183 43.8547 79.2857 43.7698 79.4532C43.685 79.6206 43.6001 79.7881 43.4304 79.9555L42.0301 81.7137H43.8971V82.0904H41.5209V81.7137H41.5634Z" fill="white"/>
<path d="M45.0001 81.7973C44.788 81.588 44.7031 81.2949 44.7031 80.9182V79.0344C44.7031 78.6577 44.788 78.3646 45.0001 78.1553C45.2123 77.946 45.5093 77.8623 45.8912 77.8623C46.2731 77.8623 46.5701 77.946 46.7823 78.1553C46.9944 78.3646 47.0793 78.6577 47.0793 79.0344V80.9182C47.0793 81.2949 46.9944 81.588 46.7823 81.7973C46.5701 82.0066 46.2731 82.0903 45.8912 82.0903C45.4669 82.0903 45.1699 82.0066 45.0001 81.7973ZM46.4853 81.5042C46.6125 81.3787 46.6974 81.1693 46.6974 80.9182V79.0344C46.6974 78.7833 46.6125 78.5739 46.4853 78.4484C46.358 78.3228 46.1458 78.2391 45.8912 78.2391C45.6366 78.2391 45.4245 78.3228 45.2972 78.4484C45.1699 78.5739 45.085 78.7833 45.085 79.0344V80.9182C45.085 81.1693 45.1699 81.3787 45.2972 81.5042C45.4245 81.6298 45.6366 81.7135 45.8912 81.7135C46.1458 81.7135 46.358 81.6298 46.4853 81.5042Z" fill="white"/>
<path d="M47.8847 81.7137L49.4546 79.6625C49.5395 79.5369 49.6244 79.4113 49.7092 79.2857C49.7517 79.1601 49.7941 79.0346 49.7941 78.9508C49.7941 78.7415 49.7092 78.5741 49.5819 78.4485C49.4546 78.3229 49.2849 78.281 49.0303 78.281C48.8182 78.281 48.6484 78.3648 48.4787 78.4904C48.3514 78.6159 48.2666 78.7834 48.2241 79.0345H47.7998C47.8422 78.7834 47.9271 78.5741 48.012 78.4066C48.1393 78.2392 48.2666 78.1136 48.4363 78.0299C48.606 77.9462 48.8182 77.9043 49.0303 77.9043C49.2849 77.9043 49.4971 77.9462 49.6668 78.0299C49.8365 78.1136 49.9638 78.2392 50.0911 78.4066C50.2184 78.5741 50.2184 78.7834 50.2184 78.9927C50.2184 79.1183 50.176 79.2857 50.0911 79.4532C50.0062 79.6206 49.9214 79.7881 49.7517 79.9555L48.3938 81.6718H50.2608V82.0486H47.8847V81.7137Z" fill="white"/>
<path d="M50.9403 81.7137L52.5103 79.6625C52.5952 79.5369 52.68 79.4113 52.7649 79.2857C52.8073 79.1601 52.8498 79.0346 52.8498 78.9508C52.8498 78.7415 52.7649 78.5741 52.6376 78.4485C52.5103 78.3229 52.3406 78.281 52.086 78.281C51.8738 78.281 51.7041 78.3648 51.5344 78.4904C51.4071 78.6159 51.3222 78.7834 51.2798 79.0345H50.8555C50.8979 78.7834 50.9828 78.5741 51.0676 78.4066C51.1949 78.2392 51.3222 78.1136 51.4919 78.0299C51.6617 77.9462 51.8738 77.9043 52.086 77.9043C52.3406 77.9043 52.5527 77.9462 52.7225 78.0299C52.8922 78.1136 53.0195 78.2392 53.1468 78.4066C53.2741 78.5741 53.2741 78.7834 53.2741 78.9927C53.2741 79.1183 53.2316 79.2857 53.1468 79.4532C53.0619 79.6206 52.977 79.7881 52.8073 79.9555L51.4071 81.7137H53.2741V82.0904H50.9403V81.7137Z" fill="white"/>
<path d="M8.08378 21.7258C8.46567 22.0188 8.55053 22.3537 8.25351 22.7305L6.7684 24.7398C6.47138 25.1166 6.13193 25.1584 5.75004 24.9073L0.361232 21.0979C-0.0630844 20.8049 -0.105516 20.47 0.191505 20.0932L1.67661 18.0839C1.97363 17.7071 2.31309 17.6234 2.69497 17.9164L4.22251 19.0048L3.50117 19.9676L2.18579 19.0467L1.2523 20.3025L6.13193 23.777L7.06542 22.5212L5.66518 21.5584L6.38652 20.5956L8.08378 21.7258Z" fill="white"/>
<path d="M13.4296 17.2472L12.581 18.0844L11.3504 17.1635L10.2472 18.21L11.1383 19.4658L10.2896 20.3031L5.70703 13.4797L6.59809 12.6006L13.4296 17.2472ZM10.4594 16.5355L7.48916 14.3588L9.61074 17.3309L10.4594 16.5355Z" fill="white"/>
<path d="M19.413 13.0191L18.4371 13.647L16.2306 10.3818C16.1033 10.2144 15.976 9.96322 15.8063 9.62833L17.249 13.6051L16.7398 13.94L13.5574 11.1353C13.812 11.4284 13.9817 11.6377 14.109 11.8051L16.3155 15.0703L15.3395 15.6982L10.8418 9.04227L11.7753 8.41435L15.2971 11.3865C15.3395 11.4284 15.4244 11.5121 15.5093 11.6795C15.4668 11.5958 15.382 11.5121 15.3395 11.3446L13.9393 6.94921L14.8728 6.32129L19.413 13.0191Z" fill="white"/>
<path d="M23.9954 6.90671C24.2075 7.36719 24.0802 7.70208 23.6135 7.86952L21.7889 8.62302L22.9346 11.3021L21.8313 11.7626L18.6914 4.4369L21.6192 3.22292C22.0859 3.01362 22.383 3.18106 22.5951 3.59967L23.9954 6.90671ZM22.7648 7.11602L21.5768 4.31131L20.2189 4.89737L21.407 7.70208L22.7648 7.11602Z" fill="white"/>
<path d="M40.0349 7.28386C40.0349 7.78619 39.7803 8.03736 39.3136 8.03736L36.7677 8.07922C36.3009 8.07922 36.0463 7.82806 36.0463 7.36758L36.0039 0.795364C36.0039 0.293029 36.2161 0.0418613 36.7252 0.0418613L39.2711 0C39.7803 0 40.0349 0.251168 40.0349 0.711641L40.0773 2.5954H38.8893V1.00467H37.3193L37.4041 6.94897H38.9741V5.27452H40.1622L40.0349 7.28386Z" fill="white"/>
<path d="M46.9092 8.20488C46.8244 8.66535 46.5273 8.87466 46.0606 8.79093L43.5147 8.37232C43.0479 8.2886 42.8358 7.99557 42.9207 7.5351L44.1512 0.334961L45.3393 0.544267L44.1512 7.40951L45.7636 7.66068L46.9517 0.795435L48.1397 1.00474L46.9092 8.20488Z" fill="white"/>
<path d="M52.5097 10.6752L49.4971 9.62865L52.1278 2.05176L53.2735 2.42851L50.9822 8.95887L52.8492 9.58678L52.5097 10.6752Z" fill="white"/>
<path d="M61.2505 7.15848L60.0624 6.53056L56.7952 12.6842L55.7344 12.14L59.0016 5.98637L57.8135 5.35845L58.3227 4.4375L61.7597 6.23753L61.2505 7.15848Z" fill="white"/>
<path d="M63.6697 16.4089C63.3727 16.7857 63.0332 16.8275 62.6089 16.5345L60.5722 14.9856C60.1903 14.6926 60.1479 14.3577 60.4449 13.981L64.9427 8.2041L65.9186 8.91574L61.633 14.4414L62.9484 15.4042L67.234 9.87855L68.2099 10.5902L63.6697 16.4089Z" fill="white"/>
<path d="M68.0827 21.8935L67.2341 20.9725L69.1011 17.498L69.6527 16.9957L70.4589 17.8748L72.3683 16.1585L71.3499 15.0282L66.0884 19.7167L65.2822 18.8376L71.2651 13.4375L73.4291 15.7817C73.7685 16.1166 73.7261 16.4934 73.3867 16.8283L71.2227 18.7957C70.9681 19.005 70.7135 19.0888 70.5013 18.9632C70.374 18.9213 70.1619 18.712 69.9073 18.4609L68.0827 21.8935Z" fill="white"/>
<path d="M71.4339 26.7072L69.6094 23.9025L76.3984 19.5908L78.223 22.3537L77.3319 22.9397L76.1863 21.1815L74.192 22.4374L75.1679 23.9444L74.2769 24.4886L73.3009 22.9816L71.1793 24.3211L72.325 26.1212L71.4339 26.7072Z" fill="white"/>
</svg>
