<svg width="25" height="20" viewBox="0 0 25 20" fill="none" xmlns="http://www.w3.org/2000/svg">
<path d="M24.375 17.5001H23.4109L14.0445 4.59968L16.1309 1.72664C16.3336 1.44734 16.2719 1.05632 15.9926 0.853588L14.9809 0.119604C14.7016 -0.0831305 14.3109 -0.0214117 14.1078 0.258276L12.5 2.47273L10.8918 0.257885C10.6891 -0.0214117 10.298 -0.0835211 10.0188 0.119213L9.00781 0.853588C8.72852 1.05632 8.66641 1.44734 8.86953 1.72664L10.9559 4.59968L1.58906 17.5001H0.625C0.279687 17.5001 0 17.7798 0 18.1251V19.3751C0 19.7204 0.279687 20.0001 0.625 20.0001H24.375C24.7203 20.0001 25 19.7204 25 19.3751V18.1251C25 17.7798 24.7203 17.5001 24.375 17.5001ZM12.5 11.2501L17.0453 17.5001H7.95469L12.5 11.2501Z" fill="white"/>
</svg>
