<svg width="25" height="25" viewBox="0 0 25 25" fill="none" xmlns="http://www.w3.org/2000/svg">
<g clip-path="url(#clip0_1460_8464)">
<g filter="url(#filter0_d_1460_8464)">
<path d="M21.25 10.75H20.6109C20.0406 9.99531 19.1441 9.5 18.125 9.5C16.3992 9.5 15 10.8992 15 12.625V13.4445L0.472266 24.8738C0.325664 24.9837 0.206667 25.1263 0.124696 25.2902C0.0427257 25.454 3.3352e-05 25.6347 0 25.818C0 26.6953 0.923437 27.266 1.7082 26.8738L6.45586 24.5H10.225L11.9598 29.1914C12.0484 29.4348 12.3172 29.5602 12.5605 29.4715L13.4414 29.1508C13.6848 29.0621 13.8102 28.7934 13.7215 28.55L12.2242 24.5H13.75C13.8246 24.5 13.8969 24.491 13.9711 24.4887L15.7098 29.191C15.7984 29.4344 16.0672 29.5598 16.3105 29.4711L17.1914 29.1504C17.4348 29.0617 17.5602 28.793 17.4715 28.5496L15.8605 24.193C18.9742 23.2813 21.25 20.4086 21.25 17V13.875L25 13.25C25 11.8691 23.3211 10.75 21.25 10.75ZM18.125 13.5625C17.6074 13.5625 17.1875 13.1426 17.1875 12.625C17.1875 12.107 17.6074 11.6875 18.125 11.6875C18.6426 11.6875 19.0625 12.107 19.0625 12.625C19.0625 13.1426 18.6426 13.5625 18.125 13.5625Z" fill="white"/>
</g>
</g>
<defs>
<filter id="filter0_d_1460_8464" x="-4" y="9.5" width="33" height="28" filterUnits="userSpaceOnUse" color-interpolation-filters="sRGB">
<feFlood flood-opacity="0" result="BackgroundImageFix"/>
<feColorMatrix in="SourceAlpha" type="matrix" values="0 0 0 0 0 0 0 0 0 0 0 0 0 0 0 0 0 0 127 0" result="hardAlpha"/>
<feOffset dy="4"/>
<feGaussianBlur stdDeviation="2"/>
<feComposite in2="hardAlpha" operator="out"/>
<feColorMatrix type="matrix" values="0 0 0 0 0.101961 0 0 0 0 0.321569 0 0 0 0 0.321569 0 0 0 0.25 0"/>
<feBlend mode="normal" in2="BackgroundImageFix" result="effect1_dropShadow_1460_8464"/>
<feBlend mode="normal" in="SourceGraphic" in2="effect1_dropShadow_1460_8464" result="shape"/>
</filter>
<clipPath id="clip0_1460_8464">
<rect width="25" height="25" fill="white"/>
</clipPath>
</defs>
</svg>
