<svg width="25" height="25" viewBox="0 0 25 25" fill="none" xmlns="http://www.w3.org/2000/svg">
<path d="M23.8275 16.3296L17.1903 12.5L23.8275 8.67041C24.2015 8.45459 24.3295 7.97705 24.1137 7.60303L22.5502 4.89648C22.3344 4.52295 21.8563 4.39453 21.4823 4.61035L14.8451 8.43994V0.78125C14.8451 0.349609 14.495 0 14.0634 0H10.9364C10.5048 0 10.1547 0.349609 10.1547 0.78125V8.44043L3.51747 4.61084C3.14344 4.39502 2.66542 4.52344 2.4496 4.89697L0.886119 7.60303C0.670299 7.97656 0.798228 8.45459 1.17225 8.67041L7.80946 12.5L1.17225 16.3296C0.798228 16.5454 0.670299 17.0234 0.886119 17.397L2.4496 20.1035C2.66542 20.4771 3.14344 20.605 3.51747 20.3896L10.1547 16.5601V24.2188C10.1547 24.6504 10.5048 25 10.9364 25H14.0634C14.495 25 14.8451 24.6504 14.8451 24.2188V16.5596L21.4823 20.3892C21.8563 20.605 22.3344 20.4771 22.5502 20.103L24.1137 17.3965C24.3295 17.0229 24.2015 16.5454 23.8275 16.3296Z" fill="white"/>
</svg>
