<svg width="25" height="25" viewBox="0 0 25 25" fill="none" xmlns="http://www.w3.org/2000/svg">
<g clip-path="url(#clip0_1460_8466)">
<path d="M5.55556 8.33366H19.4444V16.667H5.55556V8.33366ZM22.9167 12.5003C22.9167 13.6509 23.8494 14.5837 25 14.5837V18.7503C25 19.9009 24.0673 20.8337 22.9167 20.8337H2.08333C0.932726 20.8337 0 19.9009 0 18.7503V14.5837C1.15061 14.5837 2.08333 13.6509 2.08333 12.5003C2.08333 11.3497 1.15061 10.417 0 10.417V6.25033C0 5.09972 0.932726 4.16699 2.08333 4.16699H22.9167C24.0673 4.16699 25 5.09972 25 6.25033V10.417C23.8494 10.417 22.9167 11.3497 22.9167 12.5003ZM20.8333 7.98644C20.8333 7.41113 20.367 6.94477 19.7917 6.94477H5.20833C4.63303 6.94477 4.16667 7.41113 4.16667 7.98644V17.0142C4.16667 17.5895 4.63303 18.0559 5.20833 18.0559H19.7917C20.367 18.0559 20.8333 17.5895 20.8333 17.0142V7.98644Z" fill="white"/>
</g>
<defs>
<clipPath id="clip0_1460_8466">
<rect width="25" height="25" fill="white"/>
</clipPath>
</defs>
</svg>
