<svg width="102" height="85" viewBox="0 0 102 85" fill="none" xmlns="http://www.w3.org/2000/svg">
<path d="M82.875 21.25C82.7555 21.25 82.6559 21.2832 82.5563 21.2832C82.7754 20.4199 82.875 19.5234 82.875 18.5938C82.875 11.2559 75.743 5.3125 66.9375 5.3125C62.0367 5.3125 57.7137 7.18848 54.7852 10.0938C51.0797 4.11719 43.6887 0 35.0625 0C22.7309 0 12.75 8.31738 12.75 18.5938C12.75 19.8057 12.9094 20.9678 13.1684 22.1133C5.53828 24.2051 0 30.1318 0 37.1875C0 45.9863 8.56641 53.125 19.125 53.125H82.875C93.4336 53.125 102 45.9863 102 37.1875C102 28.3887 93.4336 21.25 82.875 21.25ZM17.5312 62.1231C14.9812 69.4941 9.5625 71.4863 9.5625 76.6826C9.5625 81.2812 13.8457 85 19.125 85C24.4043 85 28.6875 81.2812 28.6875 76.6826C28.6875 71.4697 23.2687 69.5273 20.7188 62.1231C20.2805 60.7783 18.0293 60.7119 17.5312 62.1231ZM49.4062 62.1231C46.8563 69.4941 41.4375 71.4863 41.4375 76.6826C41.4375 81.2812 45.7207 85 51 85C56.2793 85 60.5625 81.2812 60.5625 76.6826C60.5625 71.4697 55.1437 69.5273 52.5938 62.1231C52.1555 60.7783 49.9043 60.7119 49.4062 62.1231ZM81.2812 62.1231C78.7312 69.4941 73.3125 71.4863 73.3125 76.6826C73.3125 81.2812 77.5957 85 82.875 85C88.1543 85 92.4375 81.2812 92.4375 76.6826C92.4375 71.4697 87.0188 69.5273 84.4688 62.1231C84.0305 60.7783 81.7793 60.7119 81.2812 62.1231Z" fill="white"/>
</svg>
