<svg width="321" height="356" viewBox="0 0 321 356" fill="none" xmlns="http://www.w3.org/2000/svg">
<path d="M358.113 90.6031C358.113 90.6031 343.826 84.7472 339.931 86.3745C336.036 88.0017 284.339 123.988 284.339 123.988C284.339 123.988 250.32 124.432 246.75 123.783C243.177 123.131 238.957 120.855 237.009 118.903C235.06 116.951 230.84 103.185 230.84 103.185C230.84 103.185 228.566 100.363 225.969 98.0863C223.372 95.8096 221.099 95.8096 221.099 95.8096C221.099 95.8096 218.177 89.629 216.553 88.9796C214.93 88.3283 210.384 87.6789 206.164 87.0277C203.94 86.684 203.159 86.703 202.917 86.7979V83.4503L201.619 78.2457C201.619 78.2457 197.073 75.9691 196.748 74.9931C196.423 74.0171 198.047 73.0411 198.047 73.0411L199.995 66.8605C199.995 66.8605 202.917 58.4033 202.917 57.1026C202.917 55.8019 199.995 50.922 199.995 50.922C199.995 50.922 195.125 46.3687 194.151 46.3687C193.178 46.3687 172.398 48.3206 172.398 48.3206C172.398 48.3206 156.165 53.2006 155.19 53.2006C154.977 53.2006 153.04 53.6942 150.14 54.467C153.608 51.5277 153.621 51.4404 154.277 46.8377C153.251 47.9808 152.175 49.177 151.078 50.3979C150.986 49.0707 150.929 48.2276 150.842 46.9402C151.099 46.5168 151.602 45.744 152.068 44.9009C152.484 44.149 152.857 43.3192 153.251 42.5255C153.154 42.3831 153.059 42.2407 152.962 42.0983C152.427 42.9053 151.893 43.7142 151.523 44.2743C150.819 43.6515 150.251 43.1483 149.504 42.4875C149.966 41.5002 150.445 40.471 150.926 39.4437C150.186 39.252 149.544 39.9261 148.966 39.8311C147.941 39.6602 147.781 38.7279 148.279 37.0475C148.279 37.5563 148.274 38.0652 148.272 38.576C148.433 38.519 148.728 38.4925 148.738 38.4013C148.789 37.8753 148.878 37.2146 148.755 36.831C148.58 36.286 148.209 35.9766 147.962 35.5C147.736 35.067 147.561 34.543 147.363 34.0607C147.458 33.9923 147.551 33.9259 147.646 33.8575C148.106 34.336 148.565 34.8145 149.025 35.293C149.171 35.0993 149.317 34.9075 149.464 34.7139C149.152 33.3942 148.84 32.0726 148.519 30.7074C148.646 30.2251 149.026 29.3706 149.045 28.5314C149.057 27.956 148.566 27.3997 148.167 26.5528C148.182 26.3553 148.234 25.6851 148.289 24.973C147.895 24.8895 147.584 24.823 147.527 24.8116C147.127 22.3546 146.778 20.2089 146.357 17.6209C145.348 20.6267 144.38 23.5071 143.409 26.4028C143.135 26.1769 142.774 25.8787 142.468 25.6262C142.358 28.0016 142.255 30.1928 142.143 32.6309C141.936 32.5948 141.521 32.2853 141.232 32.5321C140.856 32.8568 140.327 33.6277 140.31 34.1993C140.261 35.931 140.43 37.6608 140.5 39.3944C140.504 39.4969 140.4 39.626 140.341 39.7495C140.095 39.5292 139.85 39.309 139.278 38.7963C139.405 40.4425 139.491 41.5818 139.569 42.5939C138.919 42.8787 138.272 43.1616 137.624 43.4445C137.645 43.6553 137.666 43.868 137.685 44.0787C139.175 44.7756 139.084 47.4814 139.459 49.458C139.569 50.0371 138.799 51.2657 138.521 51.9682C138.825 52.4999 139.213 53.1759 139.599 53.8518C139.531 54.0664 139.464 54.2829 139.396 54.4974C138.061 54.2373 136.727 53.9791 135.318 53.7037C135.172 55.2057 135.776 55.8627 136.43 56.4171C137.004 56.9013 137.672 57.1994 138.229 57.7045C133.001 59.14 127.554 60.6476 123.471 61.7793C123.697 61.1964 123.726 60.6287 122.632 60.2584C123.841 57.7918 126.495 61.2875 127.37 57.5925C125.71 57.7956 124.098 57.995 122.486 58.1925C122.796 57.4976 123.144 57.3494 123.475 57.152C123.828 56.9431 124.165 56.6886 124.779 56.2728C121.187 56.3386 119.252 55.838 118.975 54.7709C120.347 54.6266 121.085 53.8006 120.61 52.2322C121.718 51.9834 122.707 51.7632 123.817 51.5144C123.695 50.8347 123.589 50.2498 123.524 49.8947C124.993 48.8466 126.36 47.8706 127.727 46.8965C127.645 46.6611 127.564 46.4237 127.484 46.1883C125.549 46.6687 123.615 47.1491 121.68 47.6276C121.585 47.4453 121.492 47.2649 121.397 47.0826L125.682 42.1268C125.602 42.0375 125.524 41.9464 125.444 41.8571C122.912 42.9148 120.378 43.9743 117.804 45.049C117.49 45.5503 117.085 46.1978 116.68 46.8453C116.538 46.6972 116.395 46.5472 116.253 46.3991C116.502 46.0914 116.752 45.782 117.015 45.4611C116.694 45.1326 116.378 44.8117 116.011 44.4357C118.695 43.5091 118.758 43.3895 117.686 41.4204C121.17 39.3988 123.2 36.8278 123.777 33.7075C122.317 34.8316 120.79 36.0069 119.231 37.2051C119.074 35.8759 118.973 35.031 118.821 33.7398C119.182 33.322 119.895 32.5587 120.551 31.7232C121.134 30.9789 121.659 30.1567 122.208 29.3687C122.066 29.2244 121.923 29.0801 121.783 28.9358C121.028 29.7333 120.273 30.5308 119.75 31.0853C118.72 30.4473 117.891 29.9327 116.8 29.2548C117.444 28.2769 118.117 27.2573 118.79 26.2376C117.718 26.0306 116.806 26.6933 115.967 26.5832C114.485 26.3914 114.235 25.4534 114.918 23.7825C114.926 24.2913 114.931 24.8021 114.937 25.311C115.171 25.2578 115.595 25.2369 115.606 25.1458C115.669 24.6217 115.785 23.961 115.599 23.5736C115.334 23.0229 114.794 22.7077 114.426 22.2236C114.091 21.7849 113.827 21.2571 113.532 20.7691L113.937 20.5716C114.61 21.0596 115.283 21.5495 115.956 22.0375C116.163 21.8476 116.37 21.6577 116.578 21.4678C116.1 20.1406 115.623 18.8114 115.131 17.4386C115.306 16.9582 115.838 16.1113 115.846 15.2702C115.851 14.6929 115.131 14.1271 114.538 13.2707C114.555 13.0732 114.616 12.403 114.68 11.6909C114.11 11.5998 113.659 11.5257 113.578 11.5124C112.95 9.04398 112.401 6.89074 111.741 4.29128C110.346 7.27999 109.01 10.1434 107.666 13.0201C107.266 12.7884 106.738 12.4827 106.291 12.2226C106.181 14.598 106.078 16.7892 105.966 19.2272C105.668 19.1874 105.061 18.8684 104.649 19.1114C104.112 19.4285 103.363 20.188 103.352 20.7615C103.316 22.4951 103.595 24.2287 103.734 25.9642C103.742 26.0667 103.593 26.1939 103.512 26.3174C103.152 26.0914 102.795 25.8674 101.957 25.3414C102.173 26.9933 102.324 28.1326 102.457 29.1485C101.523 29.42 100.596 29.6896 99.6678 29.9612C99.702 30.1738 99.7363 30.3865 99.7686 30.5973C101.934 31.3245 101.858 34.0322 102.44 36.0183C102.611 36.6013 101.523 37.8146 101.139 38.5115C101.59 39.0507 102.162 39.7343 102.734 40.4178C102.641 40.6324 102.548 40.8451 102.455 41.0596C100.523 40.7729 98.5918 40.4843 96.552 40.1824C96.3733 41.6843 97.2573 42.3546 98.2154 42.9205C99.4264 43.6382 100.917 43.9705 101.806 45.0908C102.711 46.2301 103.552 46.7352 104.744 46.7257C105.034 46.7238 105.323 46.9706 105.612 47.1035C105.567 47.3751 105.523 47.6485 105.477 47.92C102.683 47.3333 99.8883 46.7446 97.0938 46.1579C96.9854 46.3326 96.879 46.5073 96.7706 46.682C97.3257 47.5934 97.8808 48.5048 98.647 49.7618C97.8409 49.6099 97.0634 49.5131 96.3068 49.308C95.5464 49.103 94.8069 48.7878 94.0578 48.5219C94.0407 48.6529 94.0236 48.7839 94.0065 48.915C94.7403 49.6612 95.4741 50.4055 96.3182 51.2619C97.7269 51.5239 99.3789 51.8315 101.033 52.1391C101.09 52.3803 101.149 52.6195 101.206 52.8607C100.417 53.248 99.6431 53.7189 98.8333 54.0057C97.5767 54.45 95.2517 54.6588 95.2099 55.1639C95.0464 57.1197 94.2784 57.1937 93.056 57.4064C93.4818 57.8678 93.9058 58.3273 94.5331 59.0071C93.2328 59.0679 92.2633 59.1134 91.1911 59.1647C91.9648 60.0191 92.5427 60.6591 93.3259 61.5249C92.1606 61.8268 91.4268 62.0186 90.2196 62.3319C91.2595 62.968 91.8279 63.3154 92.6283 63.8053C92.0541 64.506 91.6853 65.032 91.2595 65.4649C89.7748 66.9726 89.7748 68.3473 91.2405 69.7068C91.4477 69.8986 91.6207 70.1511 91.788 70.4094L81.0946 73.3069C81.7125 72.593 82.3303 71.8771 82.9482 71.1632C82.8683 71.0739 82.7904 70.9828 82.7105 70.8936C80.1783 71.9512 77.6442 73.0107 75.0702 74.0855C75.0189 74.1671 74.9638 74.2544 74.9086 74.3456H74.133C73.8612 74.0683 73.5874 73.7892 73.2776 73.4721C75.9618 72.5455 76.0246 72.4259 74.9524 70.4568C78.4364 68.4352 80.4667 65.8643 81.0433 62.7439C79.5833 63.868 78.0568 65.0434 76.4979 66.2415C76.3401 64.9123 76.2394 64.0655 76.0873 62.7762C76.4485 62.3585 77.1614 61.5952 77.8172 60.7616C78.4009 60.0173 78.9255 59.1951 79.4749 58.4071C79.3324 58.2627 79.1898 58.1184 79.0491 57.9741C78.2944 58.7716 77.5397 59.5691 77.0169 60.1236C75.9865 59.4856 75.1577 58.971 74.0665 58.2932C74.7109 57.3153 75.3839 56.2956 76.0569 55.2759C74.9847 55.069 74.0722 55.7317 73.2338 55.6215C71.751 55.4298 71.502 54.4917 72.1845 52.8208C72.1921 53.3297 72.1978 53.8404 72.2035 54.3493C72.4373 54.2962 72.8612 54.2753 72.8726 54.1841C72.9354 53.6601 73.0513 52.9993 72.865 52.6119C72.6008 52.0613 72.0609 51.7461 71.6921 51.2619C71.3575 50.8233 71.0933 50.2954 70.7986 49.8074C70.9336 49.741 71.0685 49.6764 71.2035 49.6099C71.8765 50.0979 72.5495 50.5859 73.2224 51.0758C73.4296 50.8859 73.6369 50.696 73.8441 50.5062C73.3669 49.1789 72.8897 47.8497 72.3974 46.4769C72.5723 45.9965 73.1046 45.1496 73.1122 44.3085C73.1179 43.7312 72.3974 43.1654 71.8043 42.3091C71.8214 42.1116 71.8822 41.4413 71.9468 40.7292C71.3765 40.6381 70.926 40.5641 70.8442 40.5508C70.2169 38.0823 69.6675 35.9291 69.0078 33.3296C67.6315 36.2747 66.314 39.1001 64.9909 41.935C64.9282 41.9502 64.8654 41.9654 64.8027 41.9824C64.4225 41.7622 63.9605 41.4945 63.5594 41.2609C63.5423 41.6122 63.5271 41.9578 63.5119 42.3034C62.126 42.647 60.7402 42.9907 59.3543 43.3344C59.2593 43.1521 59.1661 42.9717 59.0711 42.7894C60.4988 41.1375 61.9283 39.4855 63.356 37.8336C63.2762 37.7443 63.1982 37.6532 63.1184 37.564C60.5862 38.6216 58.0521 39.6811 55.4781 40.7558C55.1644 41.2571 54.7595 41.9046 54.3546 42.5521C54.212 42.404 54.0694 42.254 53.9269 42.1059C54.1759 41.7983 54.4268 41.4888 54.6892 41.1679C54.3679 40.8394 54.0523 40.5185 53.6854 40.1425C56.3697 39.2159 56.4324 39.0963 55.3602 37.1272C58.8442 35.1056 60.8745 32.5347 61.4512 29.4143C59.9912 30.5384 58.4646 31.7138 56.9058 32.9119C56.748 31.5827 56.6472 30.7359 56.4952 29.4466C56.8564 29.0289 57.5692 28.2655 58.2251 27.4319C58.8087 26.6876 59.3334 25.8655 59.8828 25.0775C59.7402 24.9331 59.5977 24.7888 59.457 24.6445C58.7023 25.442 57.9476 26.2395 57.4248 26.794C56.3944 26.156 55.5656 25.6414 54.4744 24.9635C55.1188 23.9856 55.7918 22.966 56.4647 21.9463C55.3926 21.7394 54.4801 22.402 53.6417 22.2919C52.1589 22.1001 51.9098 21.1621 52.5923 19.4912C52.5999 20.0001 52.6056 20.5108 52.6113 21.0197C52.8452 20.9666 53.2691 20.9457 53.2805 20.8545C53.3432 20.3305 53.4592 19.6697 53.2729 19.2823C53.0086 18.7317 52.4688 18.4165 52.0999 17.9323C51.7654 17.4936 51.5011 16.9658 51.2065 16.4778L51.6114 16.2803L53.6303 17.7462C53.8375 17.5563 54.0447 17.3664 54.2519 17.1766C53.7748 15.8493 53.2976 14.5201 52.8052 13.1473C52.9801 12.6669 53.5124 11.82 53.52 10.9789C53.5257 10.4016 52.8052 9.83579 52.2121 8.97943C52.2292 8.78195 52.2901 8.11166 52.3547 7.39961C51.7844 7.30847 51.3338 7.23443 51.2521 7.22114C50.6247 4.7527 50.0753 2.59946 49.4157 0C48.0203 2.98871 46.6839 5.85209 45.3398 8.72877C44.9406 8.49712 44.4121 8.19142 43.9654 7.93129C43.8551 10.3067 43.7525 12.4979 43.6403 14.936C43.3419 14.8961 42.7354 14.5771 42.3229 14.8201C41.7868 15.1372 41.0378 15.8967 41.0264 16.4702C40.9903 18.2038 41.2697 19.9374 41.4085 21.6729C41.4161 21.7754 41.2678 21.9026 41.1861 22.0261C40.8268 21.8001 40.4694 21.5761 39.631 21.0501C39.8477 22.702 39.9979 23.8413 40.131 24.8572C39.1976 25.1287 38.2699 25.3983 37.3422 25.6699C37.3764 25.8825 37.4106 26.0952 37.4429 26.306C39.6082 27.0332 39.5322 29.7409 40.1139 31.727C40.285 32.31 39.1976 33.5233 38.8136 34.2202C39.2641 34.7594 39.8363 35.443 40.4085 36.1266C40.3154 36.3411 40.2222 36.5538 40.1291 36.7683C38.1976 36.4816 36.2662 36.193 34.2264 35.8911C34.0477 37.3931 34.9316 38.0633 35.8898 38.6292C37.1007 39.3469 38.5911 39.6792 39.4808 40.7995C40.3857 41.9388 41.226 42.4439 42.4179 42.4344C42.7088 42.4325 42.9978 42.6793 43.2867 42.8122C43.2411 43.0837 43.1974 43.3572 43.1517 43.6287C40.3572 43.042 37.5627 42.4533 34.7682 41.8666C34.6598 42.0413 34.5533 42.216 34.445 42.3907C35.0001 43.3021 35.5552 44.2135 36.3213 45.4705C35.5153 45.3186 34.7377 45.2218 33.9811 45.0167C33.2207 44.8117 32.4812 44.4965 31.7322 44.2306C31.7151 44.3617 31.698 44.4927 31.6809 44.6237C32.4147 45.3699 33.1485 46.1142 33.9925 46.9706C35.4012 47.2326 37.0532 47.5402 38.7071 47.8478C38.7641 48.089 38.8231 48.3282 38.8801 48.5694C38.0912 48.9567 37.3175 49.4277 36.5076 49.7144C35.251 50.1587 32.926 50.3676 32.8842 50.8726C32.7207 52.8284 31.9527 52.9024 30.7303 53.1151C31.1562 53.5765 31.5801 54.036 32.2075 54.7158C30.9071 54.7766 29.9376 54.8221 28.8654 54.8734C29.6391 55.7279 30.2171 56.3678 31.0003 57.2336C29.835 57.5355 29.1011 57.7273 27.894 58.0406C28.9339 58.6767 29.5023 59.0242 30.3026 59.5141C29.7285 60.2147 29.3597 60.7407 28.9339 61.1736C27.4491 62.6813 27.4491 64.056 28.9148 65.4156C29.3008 65.7744 29.5669 66.3365 29.911 66.777C30.7056 67.7928 31.5136 68.7897 32.4869 70.0087C32.5325 70.4037 32.6447 71.355 32.7607 72.3481C33.677 71.9512 34.3936 71.6398 35.5153 71.1537C35.0248 72.312 34.7758 72.9006 34.5267 73.4892C34.5952 73.5538 34.6636 73.6202 34.732 73.6848C35.097 73.2291 35.462 72.7734 35.7662 72.3936C36.1502 72.6709 36.7015 73.2405 36.8156 73.1227C37.6805 72.2189 38.4619 71.1803 39.2679 70.1834C39.2242 69.8018 39.1805 69.422 39.1367 69.0403C40.2489 69.5815 41.361 70.1227 42.4731 70.6638C42.4332 70.8822 42.3913 71.1024 42.3514 71.3208C43.0339 70.9372 43.7145 70.5537 44.6479 70.0296C44.5604 71.9151 44.5167 73.6525 44.4102 75.3576L0 83.4465V355.055H366.23V93.8557L358.113 90.6031ZM60.1547 53.8974C60.3619 53.436 60.5843 53.2158 60.8067 53.062C60.8333 53.3107 60.8581 53.5594 60.8847 53.8082C60.6413 53.8386 60.398 53.8689 60.1547 53.8974V53.8974ZM60.82 55.2892C60.8029 55.3101 60.7877 55.331 60.7744 55.35L60.7592 55.3405C60.7801 55.3234 60.7991 55.3044 60.82 55.2873V55.2892ZM58.2783 47.9371C59.3866 47.6884 60.3752 47.4681 61.4854 47.2193C61.3637 46.5396 61.2573 45.9547 61.1926 45.5997C61.9607 45.0509 62.7002 44.5249 63.4264 44.0047C63.3617 45.3965 63.2971 46.7845 63.2286 48.2618C62.9302 48.2219 62.3238 47.9029 61.9112 48.146C61.3751 48.4631 60.6261 49.2226 60.6147 49.796C60.5995 50.5327 60.6432 51.2714 60.706 52.0081C57.0541 52.0537 57.0065 51.8828 56.6434 50.4777C58.016 50.3334 58.7536 49.5074 58.2783 47.939V47.9371ZM56.6092 69.0536C57.1054 68.8201 57.554 68.4118 58.5388 67.7207C58.1928 68.6093 57.9133 69.2473 57.7042 69.796C56.9818 69.6878 56.2537 69.5796 55.5142 69.4714C55.8678 69.3138 56.2746 69.2131 56.6092 69.0555V69.0536ZM47.8245 73.9316C48.0108 72.1696 48.8587 71.2392 50.389 72.0537C50.7806 72.2626 51.562 72.3006 51.7407 72.0063C52.8414 70.1758 53.3984 71.5164 54.0295 72.4677C55.1378 74.1367 55.4895 74.1918 57.1529 72.8835C57.1244 72.8379 57.0978 72.7867 57.0712 72.7354C57.8259 73.0867 58.5502 73.4721 59.0711 74.1272C59.13 74.2013 59.1889 74.2716 59.246 74.3418H50.0031L47.7466 74.7538C47.7713 74.4804 47.7979 74.207 47.8264 73.9335L47.8245 73.9316Z" fill="#174D59"/>
</svg>
