<svg width="365" height="431" viewBox="0 0 365 431" fill="none" xmlns="http://www.w3.org/2000/svg">
<path d="M363.766 108.935C363.7 108.548 363.532 108.219 363.196 107.98V109.057C363.107 109.076 363.015 109.095 362.922 109.114C362.464 108.705 362.052 108.339 361.641 107.972C361.261 107.446 362.354 106.33 361.327 105.905C361.818 104.27 363.082 106.455 363.396 104.034C362.656 104.217 361.937 104.393 361.219 104.57C361.344 104.11 361.496 104.004 361.641 103.867C361.795 103.721 361.941 103.546 362.207 103.258C360.598 103.408 359.72 103.143 359.574 102.46C360.187 102.325 360.5 101.769 360.255 100.766C360.747 100.573 361.185 100.398 361.679 100.204C361.61 99.7677 361.55 99.3917 361.514 99.1639C362.15 98.4404 362.744 97.7683 363.337 97.0942C363.295 96.9442 363.253 96.7923 363.213 96.6423C362.356 97.0125 361.498 97.3809 360.641 97.7512C360.595 97.6372 360.55 97.5214 360.502 97.4075C361.109 96.2948 361.715 95.1821 362.32 94.0675C362.282 94.0124 362.245 93.9555 362.207 93.9004C361.093 94.6618 359.979 95.4251 358.848 96.1979C358.717 96.5321 358.55 96.9632 358.383 97.3942L358.181 97.1189C358.287 96.9119 358.392 96.7049 358.502 96.4885C358.352 96.2853 358.204 96.0859 358.031 95.8543C359.215 95.1726 359.24 95.0947 358.719 93.8491C360.239 92.4339 361.095 90.7073 361.289 88.6692C360.658 89.4401 359.998 90.249 359.324 91.0731C359.225 90.2167 359.162 89.6718 359.067 88.8401C359.221 88.5591 359.523 88.0426 359.801 87.4825C360.048 86.9831 360.265 86.4343 360.495 85.9084L360.295 85.6406C359.974 86.1799 359.652 86.7191 359.428 87.0932C358.953 86.7116 358.571 86.402 358.067 85.9976C358.335 85.3444 358.616 84.6627 358.896 83.983C358.411 83.8804 358.016 84.3381 357.637 84.2925C356.968 84.2127 356.837 83.6127 357.109 82.5095C357.122 82.8399 357.135 83.1703 357.149 83.4988C357.251 83.457 357.442 83.4304 357.445 83.3716C357.462 83.0298 357.5 82.5988 357.409 82.3538C357.278 82.0063 357.031 81.8164 356.856 81.5145C356.696 81.2411 356.567 80.9069 356.424 80.5993C356.483 80.5519 356.542 80.5063 356.601 80.4588C356.913 80.755 357.225 81.0512 357.537 81.3474C357.626 81.2183 357.713 81.0892 357.803 80.9601C357.561 80.1132 357.32 79.2683 357.071 78.3929C357.139 78.0758 357.36 77.5119 357.346 76.9669C357.337 76.5929 357.002 76.2473 356.717 75.7118C356.721 75.5827 356.734 75.1479 356.748 74.6846C356.491 74.6428 356.288 74.6086 356.25 74.6029C355.917 73.0231 355.626 71.6446 355.276 69.9812C354.714 71.9598 354.174 73.8548 353.63 75.7593C353.445 75.6207 353.202 75.4384 352.997 75.2846V79.8322C352.862 79.8151 352.582 79.6271 352.404 79.7961C352.17 80.0164 351.851 80.5329 351.856 80.905C351.875 82.0291 352.037 83.1437 352.136 84.264C352.141 84.3305 352.077 84.4159 352.043 84.4994C351.877 84.3646 351.712 84.2298 351.326 83.9146C351.457 84.9779 351.548 85.7128 351.628 86.366C351.216 86.5691 350.805 86.7723 350.394 86.9755C350.413 87.1122 350.434 87.2489 350.453 87.3856C351.44 87.792 351.463 89.5465 351.763 90.8168C351.852 91.1889 351.39 92.0073 351.233 92.4706C351.446 92.8067 351.717 93.232 351.987 93.6573C351.949 93.7979 351.913 93.9403 351.875 94.0808C351.003 93.9536 350.132 93.8245 349.21 93.6896C349.161 94.6675 349.571 95.0758 350.012 95.4137C350.571 95.8429 351.246 96.0119 351.668 96.7125C352.098 97.4246 352.485 97.7246 353.02 97.6828C353.151 97.6714 353.284 97.8233 353.417 97.9012C353.402 98.0797 353.388 98.2562 353.373 98.4347C352.107 98.1385 350.843 97.8423 349.577 97.5461C349.533 97.6619 349.488 97.7797 349.444 97.8955C349.712 98.4689 349.98 99.0423 350.349 99.8341C349.984 99.7601 349.634 99.7202 349.29 99.6101C348.946 99.5 348.607 99.3196 348.265 99.1696C348.259 99.255 348.256 99.3405 348.25 99.4259C348.594 99.8873 348.94 100.347 349.335 100.877C349.972 101.004 350.719 101.154 351.468 101.302C351.499 101.456 351.529 101.61 351.562 101.763C351.216 102.039 350.879 102.367 350.522 102.576C349.968 102.903 348.929 103.108 348.921 103.436C348.889 104.708 348.545 104.781 348.003 104.953C348.202 105.238 348.404 105.525 348.699 105.946C348.155 106.02 347.74 106.076 347.298 106.136C346.136 103.816 345.398 100.455 344.412 96.0062C342.463 87.2242 343.438 88.8496 339.541 86.8976C335.646 84.9457 330.776 83.9697 325.255 77.1397C319.736 70.3097 314.541 70.3097 314.541 70.3097C314.541 70.3097 309.995 67.3818 306.423 64.4538C302.851 61.5259 296.682 61.2012 296.682 61.2012C296.682 61.2012 288.565 57.2973 286.293 57.6239C284.019 57.9486 282.721 62.1772 279.474 62.1772C276.227 62.1772 274.929 61.8525 271.357 60.2252C268.975 59.1404 267.568 58.0561 267.136 56.9726C266.486 55.3453 265.513 50.4673 265.513 50.4673C265.513 50.4673 263.564 44.938 263.239 42.986C262.914 41.034 263.564 37.4567 263.239 32.5768C262.914 27.6969 265.513 26.7285 265.513 26.7285C265.513 26.7285 257.395 22.8189 255.124 21.8429C252.85 20.8669 245.383 19.5662 243.436 19.5662C241.489 19.5662 234.02 25.7468 232.397 26.7285C230.773 27.7102 223.306 35.8313 223.306 35.8313L210.968 37.7833C210.968 37.7833 198.955 42.0119 194.41 42.9879C192.956 43.2993 191.136 43.9449 189.291 44.6361L189.262 44.5316C188.838 44.7139 188.412 44.8981 187.988 45.0804C187.966 45.0234 187.943 44.9664 187.92 44.9095C188.22 44.3588 188.521 43.8063 188.821 43.2556C188.802 43.2272 188.785 43.2006 188.766 43.1721C188.215 43.5499 187.661 43.9278 187.102 44.3114C187.038 44.4766 186.954 44.6911 186.871 44.9038L186.772 44.7671C186.825 44.6645 186.876 44.562 186.931 44.4538C186.857 44.3531 186.783 44.2544 186.698 44.1405C187.285 43.8025 187.296 43.7645 187.038 43.1474C187.791 42.4461 188.215 41.5904 188.312 40.5802C188 40.9619 187.671 41.3625 187.338 41.7708C187.289 41.3454 187.258 41.0758 187.211 40.6638C187.287 40.5252 187.437 40.2688 187.574 39.9916C187.696 39.7447 187.804 39.4732 187.918 39.2112C187.886 39.1675 187.851 39.122 187.819 39.0783C187.659 39.346 187.5 39.6118 187.39 39.7979C187.154 39.6081 186.964 39.4561 186.715 39.2549C186.848 38.9321 186.987 38.5941 187.125 38.2561C186.886 38.2048 186.69 38.4327 186.502 38.4099C186.171 38.37 186.104 38.0738 186.239 37.527C186.247 37.6902 186.253 37.8536 186.26 38.0169C186.312 37.996 186.405 37.9827 186.407 37.9542C186.416 37.7852 186.433 37.5706 186.39 37.4491C186.325 37.2763 186.201 37.1833 186.116 37.0333C186.036 36.8985 185.973 36.7314 185.903 36.5795C185.931 36.5567 185.962 36.5339 185.99 36.5092L186.454 36.9497C186.498 36.8852 186.542 36.8206 186.585 36.758C186.466 36.3383 186.346 35.9206 186.222 35.4857C186.257 35.33 186.365 35.049 186.359 34.7794C186.355 34.5952 186.188 34.4224 186.047 34.1566L186.063 33.6477C185.935 33.6268 185.834 33.6097 185.815 33.6078C185.65 32.8255 185.506 32.142 185.333 31.3179C185.053 32.2977 184.785 33.2376 184.517 34.1794C184.426 34.111 184.306 34.0199 184.203 33.9439V36.1959C184.137 36.1883 183.998 36.0934 183.909 36.1788C183.793 36.2889 183.635 36.5434 183.637 36.7276C183.646 37.2839 183.726 37.8365 183.776 38.3928C183.779 38.4251 183.747 38.4688 183.73 38.5086L183.375 38.2181C183.439 38.7441 183.485 39.1087 183.525 39.4334C183.319 39.534 183.116 39.6346 182.913 39.7353C182.922 39.8036 182.932 39.8701 182.941 39.9384C183.43 40.1397 183.441 41.0094 183.591 41.6379C183.635 41.822 183.407 42.2284 183.329 42.4562C183.435 42.6233 183.568 42.8341 183.703 43.0449C183.684 43.1151 183.665 43.1854 183.648 43.2556C183.217 43.193 182.783 43.1284 182.327 43.062C182.302 43.5461 182.506 43.7474 182.724 43.9164C183 44.1291 183.335 44.2126 183.544 44.5601C183.757 44.9133 183.949 45.0614 184.213 45.0405C184.278 45.0348 184.344 45.1108 184.411 45.1487L184.39 45.4127C183.762 45.2665 183.135 45.1184 182.51 44.9722C182.487 45.0291 182.466 45.088 182.443 45.1449C182.576 45.4298 182.709 45.7127 182.892 46.1057C182.711 46.0697 182.538 46.0488 182.367 45.9956C182.196 45.9405 182.029 45.8513 181.859 45.7772L181.852 45.9045C182.023 46.1323 182.194 46.3602 182.39 46.6222C182.641 46.6716 182.926 46.7285 183.219 46.7874C181.863 47.1634 180.844 47.2792 180.451 46.8842C179.152 45.5836 177.529 42.9803 177.529 42.9803H171.36C171.36 42.9803 166.815 44.6076 162.919 44.9323C159.024 45.257 158.374 41.6796 158.374 39.403C158.374 37.1263 158.049 36.1503 156.425 33.8737C154.802 31.597 156.425 33.8737 154.477 34.1984C152.528 34.5231 144.088 33.5471 144.088 33.5471L140.516 26.7228L132.723 21.5125L125.581 15.6566L109.348 16.9573C109.348 16.9573 109.046 17.6123 108.7 18.4668C108.656 18.0851 108.616 17.732 108.563 17.282C108.696 17.037 108.962 16.587 109.203 16.0971C109.418 15.6623 109.608 15.1838 109.81 14.7224C109.751 14.6445 109.694 14.5667 109.635 14.4888C109.354 14.9597 109.074 15.4306 108.878 15.7572C108.464 15.423 108.129 15.1553 107.69 14.8002C107.924 14.2306 108.169 13.6363 108.415 13.0419C107.991 12.9527 107.647 13.3515 107.318 13.3116C106.734 13.2413 106.62 12.7191 106.856 11.7565C106.869 12.0451 106.88 12.3318 106.892 12.6204C106.981 12.5843 107.148 12.5615 107.15 12.5103C107.166 12.2122 107.198 11.8362 107.118 11.6216C107.004 11.3178 106.787 11.1526 106.635 10.8906C106.496 10.6514 106.384 10.3608 106.259 10.0931C106.31 10.0532 106.361 10.0115 106.413 9.97158C106.685 10.2298 106.956 10.4881 107.228 10.7463C107.306 10.6343 107.384 10.5203 107.46 10.4083C107.249 9.66968 107.038 8.93294 106.821 8.16962C106.88 7.8943 107.074 7.40062 107.061 6.92592C107.053 6.59933 106.761 6.29931 106.514 5.83031C106.517 5.71828 106.529 5.3385 106.54 4.93406C106.316 4.89798 106.137 4.86762 106.105 4.86193C105.814 3.4834 105.561 2.28144 105.255 0.828857C104.763 2.55487 104.293 4.20683 103.82 5.86828C103.66 5.74865 103.447 5.58917 103.267 5.45435V9.42092C103.149 9.40573 102.905 9.24245 102.749 9.39056C102.546 9.58424 102.267 10.0323 102.272 10.357C102.289 11.3368 102.43 12.309 102.516 13.2869C102.521 13.3439 102.464 13.4198 102.434 13.492C102.289 13.3742 102.145 13.2565 101.808 12.9812C101.922 13.9078 102.002 14.5496 102.073 15.1192C101.713 15.2977 101.354 15.4743 100.997 15.6509C101.014 15.7705 101.031 15.8882 101.048 16.0079C101.907 16.3629 101.928 17.8934 102.191 19.0023C102.268 19.327 101.865 20.0409 101.727 20.4454C101.913 20.7378 102.149 21.1099 102.384 21.4802C102.352 21.6036 102.32 21.7271 102.286 21.8505C101.525 21.7384 100.765 21.6283 99.9606 21.5106C99.9169 22.3631 100.276 22.7182 100.66 23.0144C101.147 23.3885 101.736 23.5366 102.105 24.1461C102.479 24.767 102.818 25.0291 103.284 24.993C103.398 24.9835 103.516 25.1164 103.63 25.1829C103.616 25.3386 103.605 25.4924 103.592 25.6481C102.487 25.3898 101.384 25.1316 100.28 24.8734C100.242 24.9759 100.202 25.0765 100.164 25.1791C100.398 25.6804 100.632 26.1797 100.955 26.8709C100.637 26.8063 100.331 26.7721 100.031 26.6753C99.7306 26.5785 99.434 26.4209 99.1375 26.2899L99.1242 26.5139C99.4245 26.9165 99.7249 27.3171 100.071 27.7785C100.626 27.8887 101.278 28.0197 101.932 28.1507L102.012 28.5532C101.71 28.7925 101.417 29.0792 101.105 29.2634C100.622 29.5482 99.7154 29.7267 99.7078 30.0134C99.6793 31.1223 99.3808 31.185 98.9055 31.3369C99.0804 31.5856 99.2553 31.8344 99.512 32.2027C99.0044 32.2711 98.6261 32.3223 98.2079 32.3793C98.5253 32.8407 98.7649 33.1882 99.0861 33.6572C98.6356 33.8585 98.3523 33.9857 97.8866 34.1946C98.3048 34.5269 98.5348 34.7091 98.8561 34.9636C98.6451 35.3756 98.5101 35.6813 98.3504 35.9377C98.206 36.1693 98.1033 36.3915 98.0368 36.6098C95.17 37.9827 92.7823 39.0764 92.7823 39.0764L48.9785 56.1143C49.007 56.0175 49.0431 55.9073 49.0868 55.7744C49.1648 55.5371 49.2922 55.3168 49.3663 55.0795C49.4024 54.9655 49.372 54.8288 49.372 54.7035C49.3264 54.7035 49.2807 54.7035 49.2351 54.7035C49.1895 54.844 49.1458 54.9864 49.1001 55.1269C49.0735 54.4453 48.5298 54.3921 48.0926 54.2497C48.1097 53.9535 48.1249 53.6876 48.1344 53.5111H47.2333C47.1421 53.0914 47.0698 52.761 47.009 52.4819C47.1649 52.3983 47.3474 52.3015 47.4938 52.2237C47.5185 52.2635 47.5926 52.3813 47.6668 52.4971C47.7181 52.4838 47.7694 52.4686 47.8207 52.4553C47.8207 52.2692 47.8246 52.0813 47.8207 51.8952C47.815 51.7433 47.7979 51.5914 47.7827 51.3825C47.682 51.4091 47.5204 51.449 47.3322 51.4983C47.1383 51.3464 47.1934 50.7502 46.625 51.0331C46.7866 50.3135 46.0452 50.2717 45.8075 49.8653C46.1307 49.647 46.4501 49.4305 46.663 49.2881C46.4368 48.7773 46.2505 48.3596 46.068 47.9476C46.1725 47.8564 46.2999 47.7463 46.4273 47.6381C46.2961 47.564 46.1535 47.5033 46.0357 47.4121C45.9292 47.3305 45.7885 47.2279 45.7657 47.114C45.684 46.7076 45.6269 46.2937 45.6003 45.8798C45.5737 45.4696 45.5946 45.0576 45.5946 44.6455C44.9939 45.5019 44.5567 46.4019 43.6898 47.0741V48.0368C43.532 47.8963 43.4465 47.8185 43.3685 47.7482C43.3001 47.9875 43.243 48.183 43.1803 48.4071C43.4103 48.3083 43.5985 48.2267 43.8 48.1393C43.8248 48.3862 43.8761 48.5457 43.8476 48.6881C43.781 49.0204 43.7696 49.4305 43.5662 49.6546C43.0929 50.173 43.0605 50.1521 43.5301 50.678C43.6385 50.7996 43.6499 51.0065 43.6765 51.0901C43.3742 50.9496 43.1271 50.8129 42.8609 50.7293C42.7944 50.7084 42.6746 50.8622 42.5796 50.9344C42.6936 51.016 42.7374 51.0046 42.783 50.9913C43.0206 50.923 43.5054 51.3977 43.3609 51.561C43.2392 51.5059 43.1176 51.4509 43.1081 51.449C42.9066 51.6199 42.7925 51.7926 42.648 51.8268C41.8705 52.011 41.7849 52.1249 41.918 52.706C41.7298 53.0383 41.61 53.249 41.5226 53.4028C41.8534 53.6705 42.1081 53.8775 42.3343 54.0598C42.2374 54.2782 42.0948 54.4396 42.1195 54.5668C42.2203 55.0832 41.9712 55.3453 41.458 55.2636C41.1462 55.2143 40.7603 55.0965 40.6272 55.5617C41.0188 55.913 41.3819 56.2396 41.7393 56.5624C40.9808 56.6801 40.2774 56.6118 39.5284 56.9574C39.7432 57.0599 39.825 57.0998 40.036 57.2004C39.7451 57.2403 39.6044 57.2593 39.4219 57.284C40.5569 58.2884 40.8572 58.9017 40.363 59.1372C40.2337 58.6264 40.0588 58.5713 39.6425 58.9625C39.8022 58.9815 39.9257 58.9967 40.0227 59.0081C40.1424 59.5948 39.7242 59.6138 39.2585 59.6461C39.2927 59.7239 39.3231 59.7942 39.3535 59.8644L37.5912 60.5499L31.2684 62.1886C31.3273 62.0537 31.39 61.9189 31.4338 61.7784C31.4699 61.6645 31.4395 61.5278 31.4395 61.4024C31.3938 61.4024 31.3482 61.4024 31.3026 61.4024C31.257 61.543 31.2132 61.6854 31.1676 61.8259C31.141 61.1442 30.5973 61.091 30.1601 60.9486C30.1772 60.6524 30.1924 60.3866 30.2019 60.21H29.3008C29.2096 59.7904 29.1373 59.46 29.0765 59.1809C29.2324 59.0973 29.4149 59.0005 29.5612 58.9226C29.586 58.9625 29.6601 59.0802 29.7342 59.196C29.7856 59.1828 29.8369 59.1676 29.8882 59.1543C29.8882 58.9682 29.892 58.7802 29.8882 58.5941C29.8825 58.4422 29.8654 58.2903 29.8502 58.0815C29.7494 58.108 29.5879 58.1479 29.3997 58.1973C29.2057 58.0454 29.2609 57.4492 28.6925 57.7321C28.8541 57.0124 28.1126 56.9707 27.875 56.5643C28.1982 56.346 28.5176 56.1295 28.7305 55.9871C28.5043 55.4763 28.318 55.0586 28.1355 54.6465C28.24 54.5554 28.3674 54.4453 28.4948 54.337C28.3636 54.263 28.221 54.2022 28.1031 54.1111C27.9967 54.0294 27.856 53.9269 27.8332 53.813C27.7515 53.4066 27.6944 52.9927 27.6678 52.5787C27.6412 52.1686 27.6621 51.7566 27.6621 51.3445C27.0614 52.2009 26.6241 53.1009 25.7573 53.7731V54.7358C25.5995 54.5953 25.5139 54.5174 25.436 54.4471C25.3675 54.6864 25.3105 54.882 25.2478 55.106C25.4778 55.0073 25.666 54.9257 25.8675 54.8383C25.8922 55.0852 25.9436 55.2447 25.915 55.3871C25.8485 55.7194 25.8371 56.1295 25.6337 56.3535C25.1603 56.8719 25.128 56.851 25.5976 57.377C25.7059 57.4985 25.7173 57.7055 25.744 57.7891C25.4417 57.6485 25.1946 57.5118 24.9284 57.4283C24.8619 57.4074 24.7421 57.5612 24.647 57.6333C24.7611 57.715 24.8048 57.7036 24.8505 57.6903C25.0881 57.622 25.5729 58.0967 25.4284 58.26C25.3067 58.2049 25.185 58.1498 25.1755 58.1479C24.974 58.3188 24.86 58.4916 24.7155 58.5258C23.938 58.71 23.8524 58.8239 23.9855 59.4049C23.7973 59.7372 23.6775 59.948 23.5901 60.1018C23.9208 60.3695 24.1756 60.5765 24.4018 60.7588C24.3049 60.9771 24.1623 61.1385 24.187 61.2657C24.2878 61.7822 24.0387 62.0443 23.5254 61.9626C23.2137 61.9132 22.8278 61.7955 22.6947 62.2607C23.0863 62.612 23.4494 62.9386 23.8068 63.2614C23.0483 63.3791 22.3449 63.3107 21.5959 63.6563C21.8107 63.7589 21.8924 63.7987 22.1035 63.8994C21.8126 63.9392 21.6719 63.9582 21.4894 63.9829C21.7309 64.1956 21.9305 64.3912 22.0978 64.5697L-0.060791 70.3059V431.366H366.169V108.364C366.169 108.364 365.222 108.618 363.768 108.935H363.766ZM348.212 107.61H348.208C348.031 107.38 347.862 107.131 347.702 106.867C347.864 107.103 348.028 107.338 348.214 107.61H348.212Z" fill="#123C45"/>
</svg>
