<svg width="390" height="411" viewBox="0 0 390 411" fill="none" xmlns="http://www.w3.org/2000/svg">
<path d="M363.371 171.796L354.871 181.88C353.381 182.175 351.921 182.461 350.465 182.75C350.792 181.734 351.145 181.51 351.484 181.218C351.845 180.906 352.189 180.53 352.816 179.913C349.194 180.083 347.254 179.395 346.997 177.851C348.385 177.612 349.145 176.398 348.697 174.126C349.818 173.742 350.82 173.4 351.944 173.015C351.833 172.031 351.74 171.181 351.683 170.666C353.185 169.113 354.584 167.666 355.983 166.219C355.905 165.877 355.829 165.535 355.751 165.194L349.871 167.408C349.78 167.146 349.689 166.884 349.598 166.622C351.071 164.191 352.546 161.761 354.02 159.328C353.942 159.199 353.864 159.07 353.786 158.941C351.21 160.532 348.636 162.123 346.02 163.739C345.693 164.476 345.271 165.423 344.849 166.373C344.708 166.16 344.568 165.947 344.427 165.733C344.685 165.279 344.944 164.827 345.214 164.352C344.896 163.882 344.585 163.42 344.224 162.883C346.948 161.48 347.012 161.305 345.974 158.464C349.528 155.453 351.628 151.674 352.274 147.127C350.78 148.79 349.216 150.531 347.621 152.306C347.489 150.377 347.406 149.151 347.278 147.277C347.651 146.661 348.385 145.537 349.064 144.311C349.668 143.217 350.212 142.011 350.784 140.855C350.643 140.648 350.503 140.441 350.364 140.234C349.586 141.409 348.811 142.585 348.271 143.401C347.246 142.495 346.419 141.762 345.336 140.804C346.007 139.368 346.704 137.872 347.404 136.376C346.328 136.096 345.395 137.078 344.552 136.938C343.062 136.689 342.83 135.333 343.554 132.887C343.552 133.628 343.547 134.369 343.543 135.109C343.779 135.027 344.206 134.988 344.22 134.856C344.294 134.093 344.423 133.13 344.244 132.572C343.988 131.779 343.452 131.329 343.091 130.635C342.762 130.005 342.507 129.244 342.22 128.541L342.632 128.247C343.3 128.944 343.969 129.639 344.636 130.335C344.849 130.054 345.062 129.773 345.273 129.494C344.82 127.573 344.366 125.653 343.898 123.667C344.085 122.966 344.638 121.722 344.665 120.502C344.682 119.664 343.967 118.853 343.387 117.623C343.41 117.336 343.484 116.36 343.564 115.325C342.992 115.204 342.539 115.107 342.456 115.09C341.874 111.515 341.366 108.395 340.754 104.631C339.287 109.004 337.88 113.195 336.465 117.405C336.068 117.076 335.541 116.643 335.097 116.275C334.937 119.731 334.789 122.917 334.623 126.464C334.323 126.413 333.718 125.961 333.298 126.321C332.751 126.792 331.981 127.914 331.958 128.746C331.886 131.266 332.131 133.782 332.236 136.303C332.241 136.451 332.087 136.639 332.004 136.82C331.646 136.499 331.291 136.18 330.456 135.432C330.641 137.828 330.768 139.482 330.88 140.957C329.933 141.371 328.992 141.783 328.051 142.195C328.082 142.503 328.11 142.811 328.141 143.118C330.308 144.13 330.177 148.066 330.72 150.945C330.88 151.788 329.76 153.575 329.359 154.594C329.802 155.369 330.365 156.351 330.928 157.334C330.829 157.648 330.73 157.961 330.631 158.272C328.69 157.895 326.749 157.519 324.7 157.12C324.487 159.305 325.365 160.262 326.319 161.066C327.527 162.083 329.021 162.537 329.893 164.147C330.783 165.786 331.618 166.502 332.819 166.462C333.112 166.452 333.399 166.806 333.688 166.994C333.637 167.391 333.587 167.787 333.536 168.184C330.732 167.389 327.928 166.593 325.124 165.797C325.012 166.054 324.899 166.31 324.787 166.566C325.327 167.88 325.869 169.194 326.614 171.006C325.806 170.803 325.025 170.677 324.264 170.394C323.502 170.111 322.765 169.671 322.016 169.299C321.995 169.489 321.976 169.68 321.955 169.87C322.679 170.939 323.403 172.006 324.236 173.233C325.65 173.584 327.31 173.998 328.97 174.41C329.023 174.758 329.076 175.107 329.129 175.455C328.325 176.036 327.536 176.735 326.713 177.167C325.437 177.84 323.09 178.191 323.036 178.926C322.831 181.772 322.055 181.897 320.82 182.232C321.238 182.892 321.658 183.553 322.276 184.529C320.964 184.645 319.987 184.732 318.904 184.827C319.666 186.052 320.236 186.971 321.006 188.213C319.826 188.676 319.082 188.968 317.86 189.449C318.896 190.353 319.461 190.846 320.257 191.541C320.225 191.596 320.196 191.65 320.164 191.705L289.975 193.457C289.785 191.617 289.601 189.775 289.43 187.934C289.008 183.399 288.801 178.846 288.494 174.3C288.261 170.816 288.827 167.738 290.434 165.049C291.348 163.521 292.163 161.838 292.817 160.073C293.901 157.15 294.793 154.086 295.815 151.118C296.639 148.733 297.924 147.043 299.88 146.282C301.245 145.75 302.515 144.928 303.414 143.331C304.393 141.593 305.459 139.947 306.471 138.242C306.967 137.407 307.473 136.571 307.887 135.662C308.452 134.42 308.362 133.129 307.724 131.828C307.482 131.338 307.324 130.755 307.208 130.189C307.022 129.283 306.992 128.317 306.739 127.449C305.79 124.195 305.775 121.115 307.051 118.179C307.438 117.289 307.817 116.374 308.077 115.401C308.294 114.591 308.328 113.681 308.442 112.813C308.334 112.766 308.225 112.718 308.117 112.671C307.853 112.999 307.522 113.269 307.334 113.668C306.345 115.747 305.319 117.803 304.467 119.993C304.191 120.703 304.3 121.806 304.419 122.698C304.577 123.868 304.921 125.007 305.184 126.162C306.161 130.453 306.442 134.621 304.26 138.185C303.716 139.074 302.946 139.729 302.226 140.384C301.298 141.225 300.292 141.912 299.365 142.754C298.758 143.302 298.27 144.075 297.663 144.624C296.981 145.243 296.42 144.92 296.31 143.781C296.209 142.746 296.241 141.654 296.386 140.646C296.656 138.757 297.146 136.938 297.353 135.037C297.496 133.738 297.967 133.113 298.83 133.1C300.294 133.077 301.768 133.218 303.237 133.288C303.71 133.311 304.184 133.326 304.653 133.345C304.648 133.022 304.661 132.931 304.64 132.857C304.606 132.741 304.566 132.599 304.496 132.532C303.007 131.133 301.534 129.688 299.623 129.866C298.844 129.939 298.055 129.944 297.27 129.906C296.948 129.891 296.551 129.798 296.315 129.53C295.591 128.716 294.886 128.661 294.576 129.722C293.538 133.267 291.911 136.552 292.599 140.862C292.785 142.026 292.53 143.652 291.998 144.512C291.261 145.704 290.531 146.608 291.091 148.357C291.146 148.528 291.002 148.832 290.913 149.044C290.551 149.908 290.232 150.82 289.793 151.604C288.278 154.312 286.835 157.023 286.259 160.507C286.027 161.912 285.17 163.038 283.9 163.035C282.66 163.033 282.168 161.753 281.734 160.456C281.248 158.996 280.909 157.424 280.286 156.076C278.522 152.265 278.094 148.14 277.873 143.902C277.689 140.344 277.906 137.069 279.381 134.029C281.316 130.043 284.603 128.108 286.854 124.62C287.289 123.944 288.257 123.904 288.977 123.562C289.082 123.513 289.175 123.422 289.264 123.357C288.964 122.093 290.331 120.395 293.54 117.997C291.599 116.544 290.783 118.861 289.589 119.74C288.692 118.236 288.726 117.811 289.671 116.67C290.122 116.125 290.542 115.504 290.886 114.83C291.943 112.753 292.355 110.394 292.198 107.793C292.051 105.357 291.956 102.919 291.836 100.483C291.743 100.545 291.65 100.606 291.557 100.669C291.156 100.475 290.665 100.422 290.369 100.067C287.515 96.6508 284.706 93.1664 281.854 89.7448C280.932 88.6378 280.09 87.5062 280.031 85.7801C280.014 85.2751 280.109 84.5459 280.356 84.3351C280.58 84.1434 281.12 84.4187 281.455 84.6655C282.039 85.0947 282.552 85.3358 283.073 84.6105C281.208 84.1339 280.795 82.9395 281.727 80.7882C281.928 80.3249 282.162 79.8882 282.407 79.4666C284.191 76.3906 285.375 72.931 285.774 68.9568C285.814 68.5561 285.922 68.0871 286.124 67.8308C287.247 66.4067 288.411 65.0396 289.437 63.8015C289.302 63.2775 289.082 62.7097 289.025 62.1249C288.934 61.2173 288.692 60.8793 288.048 61.2628C288.557 62.7933 288.346 63.8547 287.477 64.3807C286.993 64.6731 286.529 65.0206 285.968 65.4041C285.938 64.9085 285.81 64.3484 285.888 63.8661C286.171 62.1135 286.35 60.2641 286.894 58.6767C287.65 56.4741 286.996 54.6151 286.268 52.6385C286.124 53.2613 286.078 53.8955 286.073 54.5335C286.059 55.8361 286.23 57.2013 286.029 58.4298C285.681 60.5565 284.795 62.4781 284.979 64.8117C284.983 64.8516 284.972 64.8952 284.962 64.9351C284.455 67.1168 284.014 69.3346 283.417 71.4632C283.042 72.8018 282.47 74.038 281.923 75.2627C281.297 76.6602 280.569 77.9666 279.945 79.3641C279.506 80.3477 279.273 81.5268 278.769 82.4307C277.419 84.8554 277.398 86.1029 278.911 88.6435C279.345 89.3708 279.826 90.0505 280.419 90.9562C279.71 91.0246 279.179 91.0284 278.672 91.1499C278.487 91.1955 278.25 91.4993 278.223 91.7367C278.195 91.9911 278.349 92.35 278.495 92.5816C278.607 92.7601 278.828 92.8304 279.008 92.9215C280.233 93.5443 281.468 94.1215 282.675 94.8051C282.972 94.9741 283.177 95.4811 283.424 95.8343C283.179 96.14 282.972 96.5805 282.677 96.7172C282.289 96.8957 281.831 96.833 281.426 96.8729C281.297 96.3602 281.288 95.9311 281.124 95.7393C280.58 95.0994 280.022 94.3893 279.381 94.0456C279.183 93.9393 278.52 94.8279 278.392 95.4127C277.997 97.2318 277.634 99.0964 277.489 100.993C277.36 102.695 277.611 104.47 277.558 106.196C277.522 107.409 277.138 108.473 276.195 108.911C275.718 109.133 275.358 109.01 275.343 108.224C275.32 107.109 274.837 106.642 274.113 106.382C272.805 105.913 271.663 105.142 271.106 103.259C270.984 102.845 270.68 102.49 270.419 102.171C269.239 100.718 268.043 99.2863 266.828 97.8166C266.728 98.1584 266.627 98.4983 266.536 98.8021C268.518 101.21 270.364 103.676 271.841 106.646C272.294 107.556 273.164 108.116 273.864 108.797C274.109 109.037 274.415 109.158 274.566 109.255C274.278 111.08 273.9 112.72 273.784 114.414C273.651 116.366 272.999 117.908 272.223 119.391C271.67 120.448 271.073 120.532 270.444 119.49C269.153 117.353 267.484 116.605 265.614 116.127C264.197 115.764 262.811 115.029 261.435 114.365C261.144 114.224 260.77 113.685 260.735 113.305C260.549 111.234 260.509 109.149 260.321 107.075C259.886 102.286 259.41 97.5014 258.901 92.7202C258.85 92.2322 258.458 91.7841 258.226 91.3189C258.549 97.7274 259.498 103.955 259.114 110.455C257.025 106.699 254.289 104.552 251.371 102.727C250.384 102.11 249.426 101.356 248.527 100.515C247.303 99.366 247.455 96.8672 248.742 96.0299C250.048 95.183 250.388 94.3228 250.228 92.1639C249.839 92.1506 249.443 92.1354 249.048 92.1221C249.105 92.2436 249.16 92.3633 249.217 92.4848C248.73 93.1 248.303 93.8367 247.746 94.3057C245.731 96.0014 245.529 96.7077 246.345 99.9262C246.371 100.031 246.339 100.156 246.322 100.509C245.145 100.19 243.985 100.006 242.877 99.5464C241.465 98.9597 240.792 97.3951 240.953 95.4393C241.001 94.8678 241.113 94.3114 241.219 93.5899C240.636 93.4627 240.071 93.3392 239.621 93.2405C239.45 94.2374 239.44 95.145 239.149 95.8153C238.442 97.4388 237.965 99.0717 238.541 101.056C238.109 101.179 237.765 101.278 237.138 101.457C237.552 101.833 237.74 102.102 237.957 102.178C238.478 102.362 239.012 102.51 239.545 102.581C244.183 103.196 248.582 105.231 252.918 107.639C253.076 107.726 253.219 107.869 253.369 107.985C246.755 109.511 240.189 111.066 233.366 108.575C233.781 109.001 234.193 109.304 234.63 109.473C239.499 111.349 244.369 112.099 249.31 111.087C251.285 110.683 253.358 110.901 255.388 110.877C255.608 110.875 255.924 111.047 256.053 111.279C256.711 112.454 257.549 113.584 257.886 114.904C258.266 116.394 258.903 117.114 259.888 117.604C262.739 119.022 265.57 120.526 268.437 121.867C270.106 122.647 270.845 124.187 271.013 126.38C271.104 127.578 270.758 128.028 269.923 127.559C267.269 126.067 264.399 125.418 261.918 123.247C261.45 122.839 260.907 122.605 260.351 122.262C260.085 124.893 261.872 123.823 262.502 124.869C262.026 125.038 261.572 125.201 261.045 125.389C261.235 125.888 261.376 126.257 261.547 126.707C262.114 126.485 262.635 126.249 263.173 126.086C263.391 126.019 263.697 125.993 263.87 126.149C265.787 127.867 267.921 128.507 270.094 128.879C271.334 129.092 272.117 129.918 272.655 131.439C274.073 135.443 274.621 139.491 273.419 143.538C272.499 146.639 273.145 149.21 274.87 151.579C275.164 151.984 275.478 152.39 275.699 152.861C275.969 153.44 276.204 154.07 276.358 154.712C276.613 155.776 276.841 156.858 276.982 157.948C277.052 158.506 276.906 159.097 276.858 159.672C276.406 159.49 275.765 159.495 275.535 159.091C274.453 157.188 273.033 156.007 271.526 154.876C270.159 153.848 269.703 152.379 270.06 150.273C270.398 148.283 270.914 146.359 271.376 144.421C271.628 143.361 271.933 142.326 272.204 141.314C270.298 139.469 270.205 139.153 269.575 142.372C269.56 142.452 269.564 142.539 269.554 142.623C269.444 143.703 269.381 144.802 269.214 145.862C268.843 148.194 268.265 148.609 266.556 147.892C266.1 147.7 265.648 147.483 265.192 147.288C263.376 146.511 261.536 146.097 259.68 146.382C258.222 146.606 256.947 147.322 256.144 149.073C257.228 150.358 257.196 150.149 258.416 149.885C260.583 149.415 262.79 149.189 264.99 148.94C265.513 148.881 266.032 149.2 266.171 150.168C265.973 150.258 265.838 150.337 265.693 150.379C263.431 151.055 261.167 151.718 258.909 152.411C258.582 152.512 258.237 152.671 257.983 152.941C257.724 153.216 257.568 153.662 257.367 154.032C257.439 154.144 257.513 154.258 257.585 154.37C258.371 154.167 259.148 153.919 259.941 153.772C260.61 153.649 261.313 153.467 261.969 153.634C262.718 153.825 263.418 154.372 263.996 153.311C264.066 153.182 264.41 153.265 264.61 153.345C266.404 154.074 268.051 155.267 269.058 157.473C270.052 159.655 271.419 161.026 273.092 161.941C275.248 163.118 277.086 164.992 278.748 167.138C279.484 168.087 280.206 169.42 280.407 170.691C280.82 173.313 280.98 176.011 281.058 178.673C281.181 182.832 281.058 186.984 281.214 191.143C281.248 192.081 281.297 193.019 281.354 193.957L276.366 194.247C276.366 194.247 268.573 194.247 264.678 193.922C260.783 193.598 250.069 196.524 250.069 196.524C250.069 196.524 244.55 204.33 241.628 207.582C238.706 210.835 232.212 215.064 226.043 217.34C219.874 219.617 220.2 224.497 220.2 224.497L207.537 233.93L192.277 239.459C192.277 239.459 181.563 232.954 177.991 230.351C174.419 227.748 163.056 219.651 163.056 219.651L145.525 203.027L135.461 194.57L121.824 194.245L115.656 182.535C115.656 182.535 117.279 172.777 117.929 169.849C118.579 166.922 121.824 158.36 121.824 158.36L115.656 151.634C115.656 151.634 105.915 143.502 103.318 142.201C102.97 142.026 102.514 141.804 101.981 141.548L102.575 141.166L102.082 139.628C102.082 139.628 100.932 138.914 100.603 138.859C100.274 138.804 98.1907 138.476 98.0272 138.476C97.8637 138.476 96.2726 136.389 96.2726 136.389C96.2726 136.389 94.9019 134.357 94.8468 134.055C94.7916 133.753 94.1339 124.09 94.1339 124.09L94.0788 120.027L95.5578 117.995L96.3258 115.36L96.2706 112.01C96.2706 112.01 95.2289 109.32 95.1205 108.936C95.0103 108.552 95.1757 107.288 95.1757 107.288C95.1757 107.288 95.8334 105.587 96.052 105.256C96.2707 104.926 97.4227 102.676 97.4227 102.676L97.0938 100.919L98.7382 99.4363L99.2857 97.4596L99.9435 91.3645L99.012 89.9366L99.1222 87.8498L99.7248 84.0617L99.3408 79.6698C99.3408 79.6698 102.246 79.3945 102.575 79.3394C102.903 79.2843 106.685 78.8457 106.685 78.8457L109.589 77.6381C109.589 77.6381 110.686 74.9475 110.082 72.0917C109.479 69.2359 108.108 66.2719 108.108 66.2719L107.177 64.0199L107.122 61.109C107.122 61.109 107.012 59.9014 106.519 60.0115C106.027 60.1217 106.356 59.0773 105.751 59.3526C105.149 59.628 104.491 59.5729 104.491 59.5729L103.943 58.4754C103.943 58.4754 103.341 57.8716 103.341 58.0368C103.341 58.202 102.901 58.8609 102.738 58.8609C102.575 58.8609 100.765 58.3672 100.765 58.3672L99.7781 58.0083L98.0234 58.257L97.4208 58.5324L97.2022 54.1405L96.2973 53.2347L96.0501 52.9879C96.0501 52.9879 94.9 53.8119 94.6244 53.8119C94.3487 53.8119 93.1453 53.3183 93.1453 53.3183C93.1453 53.3183 91.1721 52.8246 90.7329 52.9879C90.2938 53.1531 87.8833 53.4816 87.8833 53.4816C87.8833 53.4816 88.0467 54.8544 87.8833 55.1829C87.7198 55.5133 87.8833 57.4349 87.8833 57.4349C87.8833 57.4349 87.7369 58.3691 87.811 58.6425C87.8833 58.9178 86.4594 59.2463 86.4594 59.2463L85.6914 59.7951C85.6914 59.7951 85.5811 60.6742 85.6362 60.9476C85.6914 61.223 85.621 61.4964 85.621 61.4964L84.8682 61.6065C84.8682 61.6065 84.5393 61.7717 84.5393 62.0452V62.9243L82.8398 63.3629H82.566L81.9083 64.6807C81.9083 64.6807 81.1954 65.5598 80.7582 65.8333C80.319 66.1086 79.7164 66.8757 79.5529 67.2061C79.3894 67.5365 78.0739 67.92 78.0739 67.92L76.9238 67.9751L75.6082 69.5131L74.3478 71.3796C74.3478 71.3796 73.6901 72.8075 73.4715 73.0278C73.2528 73.2481 72.4297 73.6316 72.2662 73.7418C72.1027 73.8519 72.2662 74.6759 72.2662 74.6759V75.6652C72.2662 75.6652 71.1693 76.3792 71.1161 76.6545C71.0609 76.9298 71.0609 78.0273 71.0609 78.466C71.0609 78.9046 71.3347 81.1015 71.3347 81.4869C71.3347 81.8724 71.3898 83.3535 71.3898 83.6288C71.3898 83.9041 71.5533 85.4403 71.5533 85.4403C71.5533 85.4403 71.6084 86.9783 71.443 87.2517C71.2796 87.527 71.3879 89.0631 71.3879 89.0631L72.2092 90.436L73.7984 92.4126C73.7984 92.4126 77.1424 94.938 78.3476 95.1032C79.5529 95.2684 80.4844 95.9824 80.4844 95.9824C80.4844 95.9824 80.703 95.4887 80.9235 95.5438C81.1422 95.5988 81.7999 95.9824 81.7999 96.1476C81.7999 96.3128 82.0185 97.4103 82.1839 97.7407C82.3493 98.0711 83.6097 99.1135 83.6097 99.1135L83.5546 100.652C83.5546 100.652 83.3911 101.255 83.7181 101.421C84.047 101.586 84.7598 101.751 84.7598 101.751C84.7598 101.751 85.199 102.74 85.199 103.124C85.199 103.507 85.583 105.155 85.583 105.155C85.583 105.155 85.5279 107.187 85.5279 107.352C85.5279 107.518 84.7598 112.734 83.3911 114.49C82.0204 116.246 80.9254 122.945 80.9254 122.945L81.0357 125.856L80.9806 128.163C80.9806 128.163 80.4882 131.184 80.4882 131.788C80.4882 132.048 80.3456 133.005 80.1821 134.008C77.0701 133.645 74.422 133.43 74.422 133.43C74.422 133.43 65.6563 138.96 64.0328 139.286C63.1146 139.471 56.6986 140.382 51.2939 141.14C51.6627 138.191 53.7424 139.668 54.8146 138.502C55.2196 135.358 55.6283 132.17 56.1606 128.038C55.1378 129.517 54.4097 130.569 52.9915 132.62C53.79 127.73 55.1891 123.181 52.0695 120.971V125.347C50.2483 123.726 48.6857 122.334 47.123 120.942C45.914 119.269 49.3948 115.715 46.1269 114.359C47.6876 109.156 51.7102 116.112 52.714 108.404C50.3586 108.983 48.0716 109.547 45.7828 110.109C46.1801 108.647 46.6649 108.306 47.1249 107.871C47.6154 107.406 48.0811 106.851 48.9271 105.934C43.8044 106.414 41.0099 105.567 40.5435 103.393C42.494 102.962 43.492 101.191 42.7088 97.9989C44.2753 97.3799 45.6706 96.8292 47.239 96.2102C47.0185 94.8222 46.8284 93.6222 46.7143 92.8987C48.7408 90.5974 50.6285 88.4536 52.5163 86.3099C52.3851 85.8295 52.252 85.351 52.1209 84.8706C49.391 86.046 46.6611 87.2232 43.9331 88.3986C43.7867 88.034 43.6403 87.6675 43.4939 87.303C45.4235 83.7598 47.353 80.2166 49.2826 76.6735C49.1628 76.495 49.045 76.3165 48.9252 76.1399C45.3798 78.5647 41.8324 80.9914 38.2318 83.456C37.8174 84.5212 37.2813 85.8941 36.7471 87.2669C36.5342 86.9745 36.3213 86.6821 36.1084 86.3877C36.4449 85.7289 36.7814 85.0681 37.133 84.3788C36.6521 83.7332 36.1806 83.099 35.6312 82.3623C39.401 80.1939 39.4827 79.9432 37.8212 75.9823C42.66 71.4784 45.388 65.9814 46.0052 59.4913C43.9958 61.9483 41.8933 64.5193 39.7489 67.1415C39.4352 64.4148 39.2356 62.6812 38.9333 60.0343C39.4219 59.1381 40.3876 57.4956 41.2678 55.7107C42.0529 54.1214 42.7449 52.3746 43.4787 50.6979C43.2658 50.415 43.0529 50.1302 42.8419 49.8473C41.8172 51.5638 40.7945 53.2822 40.0816 54.4746C38.5702 53.2575 37.3498 52.2758 35.7491 50.9847C36.6046 48.9055 37.498 46.737 38.3896 44.5705C36.846 44.2458 35.5875 45.6984 34.3841 45.556C32.255 45.3015 31.8367 43.3951 32.7017 39.8805C32.7473 40.9305 32.7892 41.9805 32.831 43.0325C33.1599 42.8996 33.7644 42.816 33.7739 42.628C33.829 41.54 33.9488 40.1672 33.6579 39.3868C33.2435 38.2779 32.4527 37.6779 31.8938 36.7171C31.3862 35.8455 30.9756 34.7822 30.5231 33.8043C30.7113 33.6562 30.8995 33.5081 31.0877 33.3581C32.0801 34.2999 33.0743 35.2436 34.0667 36.1854C34.3499 35.7734 34.6313 35.3613 34.9145 34.9493C34.1465 32.2568 33.3766 29.5624 32.582 26.7787C32.8006 25.7724 33.5021 23.9742 33.4583 22.2406C33.4279 21.052 32.3614 19.9507 31.4584 18.2437C31.4717 17.8354 31.5136 16.4474 31.5573 14.9739C30.7379 14.8391 30.0897 14.7328 29.9699 14.7138C28.9091 9.68387 27.9852 5.29575 26.8693 0C25.0747 6.29642 23.3581 12.3289 21.6301 18.3918C21.0445 17.9531 20.2708 17.3721 19.6149 16.8803V31.3549C19.1853 31.3017 18.2975 30.6998 17.7272 31.2409C16.982 31.9454 15.9649 33.586 15.9859 34.7689C16.0486 38.3462 16.5619 41.8951 16.8755 45.4629C16.8946 45.6718 16.6892 45.949 16.5809 46.2111C16.0524 45.78 15.5277 45.3509 14.2977 44.3464C14.716 47.7301 15.0049 50.0694 15.2635 52.1505C13.9498 52.7999 12.6419 53.4455 11.3359 54.093C11.3986 54.5278 11.4614 54.9626 11.5241 55.3956C14.6627 56.6886 14.735 62.2768 15.695 66.3193C15.9764 67.5042 14.5068 70.1112 14.005 71.5847C14.6836 72.6537 15.5467 74.0095 16.4079 75.3633C16.2881 75.8133 16.1703 76.2634 16.0505 76.7134C13.275 76.307 10.4995 75.9007 7.56614 75.4697C7.41026 78.5818 8.71628 79.8787 10.1211 80.9572C11.8986 82.3205 14.0468 82.8636 15.3908 85.089C16.7596 87.3523 17.9896 88.3131 19.691 88.1764C20.1073 88.1442 20.5351 88.6264 20.9571 88.8733C20.9115 89.4391 20.8658 90.005 20.8202 90.5708C16.7919 89.629 12.7636 88.6853 8.73719 87.7435C8.59461 88.1138 8.45393 88.4859 8.31135 88.8562C9.16492 90.6828 10.0185 92.5095 11.1933 95.0273C10.0337 94.7918 8.91779 94.6665 7.82279 94.3171C6.72398 93.9659 5.64799 93.3905 4.5606 92.9139C4.54539 93.1854 4.52828 93.457 4.51307 93.7285C5.60997 95.1944 6.70878 96.6621 7.96917 98.3464C9.99758 98.7508 12.3777 99.2274 14.7578 99.7021C14.8566 100.192 14.9536 100.682 15.0524 101.172C13.9498 102.047 12.8777 103.091 11.7408 103.76C9.97667 104.799 6.67075 105.45 6.64414 106.494C6.53958 110.542 5.44839 110.772 3.71844 111.327C4.35529 112.236 4.99213 113.144 5.93505 114.488C4.08344 114.739 2.70328 114.927 1.17484 115.134C2.33448 116.82 3.20515 118.086 4.38 119.793C2.7375 120.528 1.70143 120.993 0 121.755C1.52844 122.968 2.36299 123.629 3.53594 124.561C2.76411 126.063 2.27174 127.182 1.69383 128.114C-0.325079 131.367 -0.233828 134.201 1.94667 136.864C2.52268 137.566 2.93901 138.7 3.4599 139.575C4.66135 141.593 5.88182 143.574 7.35133 145.993C7.44258 146.802 7.665 148.752 7.89693 150.789C9.17823 149.882 10.1801 149.173 11.7522 148.061C11.1287 150.497 10.8131 151.735 10.4957 152.973C10.5983 153.1 10.6991 153.229 10.8017 153.356C11.2922 152.38 11.7846 151.404 12.1914 150.596C12.7598 151.131 13.581 152.253 13.7369 151.997C14.9118 150.051 15.9573 147.835 17.0447 145.702C16.9573 144.92 16.8698 144.14 16.7805 143.357L21.6529 146.386C21.6091 146.842 21.5673 147.297 21.5236 147.753C22.4703 146.897 23.4189 146.042 24.7173 144.869C24.7173 149.547 24.7934 153.78 24.6964 157.997C24.6071 161.802 24.3124 165.594 24.206 169.396L22.8125 169.861V410.243H389.02V177.017L363.371 171.813V171.796ZM276.244 132.939C275.769 130.831 275.379 128.889 274.889 126.986C274.132 124.054 274.353 121.276 275.096 118.55C275.351 117.613 275.672 116.712 275.881 115.755C276.43 113.244 277.339 111.148 278.985 109.671C280.554 108.262 280.913 106.137 280.276 103.659C279.738 101.563 279.985 99.7059 280.906 98.0578C281.052 97.7957 281.449 97.6343 281.713 97.6837C282.86 97.9021 283.998 98.2211 285.141 98.4926C286.645 98.8496 287.713 100.065 288.401 101.844C289.025 103.452 289.572 105.121 290.048 106.811C290.643 108.923 290.293 110.051 288.738 110.681C287.457 111.201 287.008 112.265 286.814 113.991C286.584 116.045 286.111 118.046 285.616 120.004C285.147 121.865 284.099 123.092 282.75 123.781C281.373 124.483 280.394 125.718 279.56 127.328C278.537 129.301 277.339 131.103 276.242 132.937L276.244 132.939ZM97.6869 60.2793C97.9607 60.1141 98.1261 59.9489 98.1261 59.9489L98.839 61.1565L97.6888 61.5951C97.6888 61.5951 97.36 61.2647 97.36 61.1014C97.36 60.9381 97.4151 60.4426 97.6888 60.2774L97.6869 60.2793ZM97.2478 67.6922L99.0024 66.9782C99.0024 66.9782 99.5499 66.813 100.014 66.3193C100.478 65.8256 99.7705 66.044 99.7705 66.044C99.7705 66.044 99.0576 66.2092 98.8941 66.2092C98.7306 66.2092 98.1812 66.2092 97.9626 66.1541C97.744 66.0991 97.0311 66.0991 96.5919 66.044C96.1528 65.9889 96.4817 65.6605 96.4817 65.6605C96.4817 65.6605 96.0977 65.0016 96.1528 64.618C96.2079 64.2345 96.3714 64.0142 96.7003 63.7389C97.0292 63.4635 98.5633 62.8597 98.5633 62.8597C98.5633 62.8597 99.1108 62.6395 99.4948 62.4211C99.8788 62.2009 100.592 61.8724 100.592 61.8724L101.852 61.9274L103.113 63.1901C103.113 63.1901 103.223 64.1794 103.113 64.3978C103.002 64.6161 103.113 65.4402 103.113 65.4402L103.497 66.5377V67.8004C103.497 68.0207 103.113 68.8979 103.113 68.8979L103.881 69.8321V71.4252L103.333 71.7005C103.333 71.7005 102.183 71.7556 101.744 71.7005C101.305 71.6455 100.922 71.7005 100.702 71.4252C100.483 71.1499 99.5518 71.4252 99.5518 71.4252L99.3332 70.5461C99.3332 70.5461 98.8409 70.3258 98.6203 70.3258C98.3998 70.3258 97.9075 70.2157 97.9075 70.2157C97.9075 70.2157 97.6888 69.8853 97.5234 69.7771C97.3599 69.6669 96.3182 69.6119 96.3182 69.6119L95.8258 69.0631L97.2516 67.6903L97.2478 67.6922ZM47.2637 139.854C47.5793 140.397 47.8796 140.988 48.1895 141.554C47.7409 141.616 47.3131 141.675 46.912 141.732C46.8968 141.138 47.0242 140.549 47.2637 139.854ZM41.7108 141.686C42.4046 141.157 43.0168 140.27 44.376 138.751C44.0452 140.177 43.7582 141.293 43.5243 142.256C43.2202 142.691 41.3134 145.408 40.053 147.337C39.5968 146.984 39.247 146.572 39.1539 146.014C38.6159 142.78 40.5169 142.602 41.7108 141.686ZM41.2944 163.665L29.43 167.628C29.2855 162.625 29.2894 157.578 29.4928 152.591C29.6429 148.94 30.7912 146.939 33.0287 148.473C33.6009 148.866 34.7206 148.87 34.9545 148.245C36.4049 144.364 37.287 147.075 38.2547 148.978C38.9657 150.379 39.4675 151.203 39.9808 151.479C41.5035 153.816 44.2182 156.837 44.2182 156.837L41.2963 163.667L41.2944 163.665ZM86.4499 132.487C86.3947 132.156 86.0659 131.663 86.0659 131.663C86.0659 131.663 86.4499 130.62 86.6134 130.125C86.7768 129.631 87.0867 128.862 87.0867 128.862C87.0867 128.862 86.8339 127.983 87.1076 127.709C87.3814 127.434 86.9974 126.667 87.1076 126.226C87.2179 125.786 87.8757 126.226 87.8757 126.226C87.8757 126.226 87.5468 127.216 87.8757 127.764C88.2045 128.313 88.3148 130.894 88.3148 130.894V135.337C87.811 135.196 87.216 135.062 86.5601 134.932C86.6153 134.412 86.6153 133.749 86.6153 133.749C86.6153 133.749 86.505 132.815 86.4518 132.487H86.4499ZM351.212 186.221C351.063 186.046 350.854 185.889 350.565 185.752C351.124 184.163 351.942 184.246 352.763 184.379L351.212 186.221Z" fill="#061C28"/>
</svg>
