<svg width="429" height="317" viewBox="0 0 429 317" fill="none" xmlns="http://www.w3.org/2000/svg">
<path d="M362.572 117.532C363.802 117.951 364.46 118.718 363.935 120.194C363.219 120.158 362.477 120.12 361.728 120.082C363.097 121.348 364.405 122.588 365.747 123.786C366.163 124.159 366.675 124.422 367.142 124.736C367.397 124.113 367.673 123.5 367.897 122.865C367.986 122.613 368.015 122.315 367.981 122.047C367.621 119.14 369.695 116.467 368.794 113.497C368.711 113.223 368.899 112.813 369.064 112.525C369.555 111.672 370.099 110.85 370.621 110.014C370.543 109.935 370.465 109.855 370.387 109.775C369.279 110.975 368.218 112.225 367.045 113.358C366.051 114.319 365.62 115.183 366.656 116.406C367.023 116.839 367.095 117.526 367.357 118.249C364.517 119.121 364.209 115.618 361.831 115.838C361.274 116.438 361.312 117.103 362.57 117.532H362.572Z" fill="#224963"/>
<path d="M360.552 124.157C360.725 124.026 360.896 123.893 361.069 123.762C360.428 122.873 359.789 121.983 359.149 121.094C358.947 121.244 358.747 121.392 358.546 121.542C359.215 122.414 359.882 123.285 360.55 124.157H360.552Z" fill="#224963"/>
<path d="M349.096 160.386C348.499 161.827 347.864 163.365 347.254 164.842C348.43 165 349.516 165.144 350.569 165.287C351.763 163.137 349.847 161.85 349.096 160.386Z" fill="#224963"/>
<path d="M358.69 147.964C358.244 146.853 357.989 146.221 357.869 145.923C357.202 146.335 356.696 146.646 356.19 146.959C356.035 146.923 355.877 146.889 355.721 146.853C355.841 148.887 357.358 147.402 358.69 147.962V147.964Z" fill="#224963"/>
<path d="M354.058 160.676C354.316 160.329 354.584 159.991 354.862 159.67C354.626 159.292 354.369 158.88 354.058 158.385V160.676Z" fill="#224963"/>
<path d="M361.728 143.49C361.935 143.538 362.141 143.585 362.348 143.633C362.702 142.776 363.055 141.922 363.411 141.066C362.84 140.853 362.272 140.642 361.73 140.441V143.49H361.728Z" fill="#224963"/>
<path d="M358.765 111.393C358.791 111.19 358.818 110.989 358.844 110.786C358.343 110.394 357.841 110.003 357.305 109.585C356.561 110.55 355.951 111.34 355.341 112.13L355.599 112.591C356.654 112.193 357.71 111.792 358.765 111.393V111.393Z" fill="#224963"/>
<path d="M347.883 134.961C348.524 135.24 349.212 135.445 349.797 135.813C351.472 136.873 352.942 138.358 354.9 138.297C356.155 136.628 357.288 135.12 358.5 133.505C354.29 133.151 351.579 133.163 351.624 130.432C351.271 131.011 351.005 131.676 350.541 132.145C350.058 132.633 349.383 132.931 348.792 133.313C348.708 132.68 348.41 131.982 348.583 131.431C348.984 130.161 349.615 128.963 350.218 127.594C349.548 127.594 349.037 127.726 348.663 127.554C348.322 127.398 347.847 126.707 347.921 126.602C348.543 125.727 348.246 124.886 347.545 124.516C347.007 124.233 346.151 124.554 345.21 124.622C345.691 125.575 345.91 126.306 346.362 126.836C347.14 127.746 347.119 128.748 346.507 129.513C346.237 129.851 345.197 129.57 344.421 129.57V133.111C344.235 133.159 344.049 133.208 343.862 133.256C343.165 132.236 342.469 131.216 341.568 129.899V133.512C343.646 134.809 345.465 135.945 347.206 137.031C347.472 136.222 347.68 135.589 347.885 134.959L347.883 134.961Z" fill="#224963"/>
<path d="M339.365 109.494C340.218 109.752 340.853 109.944 341.366 110.1C341.296 109.04 341.229 108.038 341.148 106.802C340.496 107.785 339.979 108.566 339.365 109.494V109.494Z" fill="#224963"/>
<path d="M366.409 79.4951C366.289 79.4286 366.171 79.3622 366.051 79.2976C364.975 80.0248 363.897 80.7502 362.673 81.5762C363.897 82.6034 364.734 81.4565 365.587 81.0445C366.011 80.8394 366.144 80.0306 366.409 79.4951V79.4951Z" fill="#224963"/>
<path d="M361.223 73.381C360.388 72.424 359.879 71.5505 361.612 70.9296C363.135 70.3847 364.605 69.6879 366.089 69.0612C365.731 68.3182 364.224 67.7289 361.569 67.2935C361.202 68.1916 360.951 69.1657 360.434 69.9651C359.97 70.6809 359.209 71.2031 358.58 71.8107C358.272 71.1689 357.962 70.5271 357.751 70.0847C356.335 71.1309 354.789 72.2721 353.084 73.5329C354.533 74.0797 355.94 74.919 357.422 75.0823C358.996 75.257 360.641 74.788 362.445 74.5772C361.96 74.1044 361.565 73.7665 361.226 73.3791L361.223 73.381Z" fill="#224963"/>
<path d="M354.544 82.6148C357.879 84.4547 360.409 84.4661 361.698 82.7325C359.415 81.0938 357.09 81.8666 354.544 82.6148Z" fill="#224963"/>
<path d="M349.214 86.9003C348.978 86.7883 348.744 86.6782 348.509 86.5662C348.567 85.5902 348.626 84.6142 348.693 83.5015C348.064 83.8224 347.347 84.0104 346.908 84.4642C346.509 84.8781 346.203 85.6035 346.258 86.1503C346.288 86.4522 347.132 86.832 347.642 86.8908C349.482 87.1035 351.351 87.4719 353.05 86.2282C353.539 85.8712 354.219 85.7781 354.835 85.5541C354.004 84.9503 353.229 84.3844 352.366 83.7578C351.301 84.8192 350.257 85.8579 349.214 86.8984V86.9003Z" fill="#224963"/>
<path d="M362.996 35.7069C361.694 35.1809 360.413 34.6644 359.132 34.1479C359.057 34.2486 358.983 34.3492 358.909 34.4499C359.594 35.3708 360.276 36.2917 360.831 37.0379C361.55 36.5974 362.118 36.248 362.996 35.7088V35.7069Z" fill="#224963"/>
<path d="M357.776 79.6622C360.249 80.9762 360.569 78.6483 361.85 78.2115C361.774 78.0596 361.698 77.9058 361.622 77.7539C360.436 78.3425 359.248 78.9312 357.776 79.6622V79.6622Z" fill="#224963"/>
<path d="M442.526 169.181C443.296 168.144 444.154 166.992 445.275 165.486C440.12 165.112 437.681 169.494 433.749 170.639C434.945 168.984 436.11 167.463 437.152 165.858C437.392 165.49 437.202 164.842 437.209 164.322C436.681 164.47 435.974 164.451 435.652 164.795C433.189 167.413 430.801 170.104 428.531 172.614C426.598 173.077 424.66 173.543 422.6 174.036C422.394 172.982 424.098 171.52 422.261 170.233C421.623 170.831 420.915 171.406 420.317 172.079C419.678 172.796 419.138 173.603 418.511 174.433C416.296 173 414.665 174.669 412.918 175.449C412.568 174.059 412.366 172.682 411.863 171.429C411.382 170.231 410.34 170.174 409.319 171.004C408.503 171.667 407.619 172.246 406.768 172.863C406.783 172.046 407.192 171.503 407.389 170.894C407.53 170.457 407.523 169.561 407.353 169.5C405.479 168.818 405.724 166.646 404.471 165.516C403.802 164.913 403.494 163.91 402.945 162.955C404.116 163.549 405.173 164.567 406.066 164.44C408.028 164.159 409.108 165.64 410.633 166.156C412.844 166.906 414.908 168.234 417.237 167.421C417.128 165.59 417.032 163.994 416.936 162.381C418.351 162.469 419.67 162.742 420.919 162.552C421.67 162.438 422.313 161.605 423.005 161.094C422.421 160.648 421.891 160.08 421.237 159.79C420.632 159.522 419.862 159.649 419.223 159.433C417.151 158.734 414.676 159.095 413.077 157.031C414.258 157.029 415.423 157.12 416.532 157.426C417.914 157.807 419.223 158.455 420.609 158.816C421.315 158.998 422.117 158.804 422.875 158.779C422.828 157.99 423.022 157.061 422.67 156.442C422.227 155.664 421.339 155.138 420.351 154.234C421.739 154.625 422.79 155.014 423.875 155.2C425.048 155.401 426.274 155.597 427.436 155.453C428.674 155.299 428.807 154.42 427.885 153.533C427.715 153.372 427.584 153.168 427.366 152.899C428.548 152.81 429.569 152.832 430.54 152.625C431.225 152.479 431.843 152.024 432.491 151.705C432.101 151.002 431.742 150.28 431.301 149.612C431.19 149.445 430.822 149.403 430.567 149.39C428.63 149.291 426.691 149.213 424.757 149.13C424.841 148.915 425.134 148.446 425.181 147.954C425.225 147.501 425.01 147.02 424.908 146.549C424.506 146.675 424.103 146.798 423.704 146.929C421.927 147.51 420.149 148.093 418.357 148.68C418.509 145.228 416.821 145.858 414.944 146.977C414.87 146.426 414.807 145.944 414.708 145.207C413.516 145.788 412.515 146.276 411.581 146.73C410.361 144.238 409.144 141.757 407.926 139.273C408.448 139.476 408.568 139.93 408.857 140.213C409.654 140.992 410.524 142.313 411.357 142.307C413.296 142.294 414.227 143.779 415.659 144.459C417.608 145.385 419.398 146.808 421.744 146.23V141.538C423.906 141.324 426.411 143.618 427.949 140.424C425.065 138.276 421.168 138.848 418.585 136.208C422.244 135.348 424.417 138.842 427.991 138.783C427.991 138.054 428.215 137.131 427.93 136.41C427.626 135.641 426.839 135.063 426.183 134.308C427.942 134.868 429.573 135.494 431.261 135.872C431.955 136.028 432.768 135.643 433.527 135.504C433.306 134.856 433.088 134.209 432.846 133.501C433.768 133.548 434.795 133.748 435.772 133.601C436.475 133.497 437.11 132.933 437.778 132.574C437.276 131.915 436.833 131.194 436.243 130.626C435.964 130.356 435.409 130.335 434.968 130.284C433.544 130.119 432.114 129.992 430.639 129.846C430.858 129.337 431.249 128.811 431.251 128.283C431.251 127.924 430.628 127.212 430.415 127.259C428.622 127.651 426.86 128.182 425.107 128.665C424.818 127.806 423.646 127.136 421.59 126.654C421.56 126.181 421.533 125.708 421.489 124.99C420.351 125.414 419.406 125.765 418.756 126.006C417.153 124.121 415.61 122.305 414.005 120.418C414.688 120.147 415.148 120.04 415.522 119.801C416.779 119 417.954 118.747 419.174 119.917C419.651 120.374 420.28 120.836 420.902 120.944C421.737 121.088 422.628 120.893 423.495 120.843C423.299 120.11 423.305 119.21 422.864 118.681C422.039 117.688 420.955 116.909 419.877 115.952C420.44 116.011 420.906 116.134 421.355 116.087C421.864 116.034 422.358 115.829 422.858 115.692C422.554 115.21 422.362 114.53 421.927 114.283C420.668 113.567 419.313 113.024 417.668 112.263C419.174 112.035 420.204 111.15 421.512 112.175C422.046 112.595 423.043 112.424 423.83 112.521C423.678 111.843 423.52 111.169 423.385 110.487C423.37 110.409 423.476 110.307 423.465 110.328C425.189 110.611 426.864 111.002 428.558 111.11C429.248 111.154 429.976 110.584 430.687 110.292C430.219 109.688 429.871 108.866 429.259 108.532C428.194 107.951 426.966 107.671 425.811 107.267C426.426 106.921 427.622 106.473 427.582 106.24C427.333 104.806 428.616 104.914 429.215 104.392C429.729 103.944 430.491 103.728 430.888 103.213C431.295 102.683 431.594 101.897 431.54 101.255C431.512 100.912 430.647 100.638 430.166 100.338C430.864 99.3034 431.683 98.0863 432.504 96.8672C432.365 96.7362 432.228 96.6052 432.09 96.4761C431.47 96.533 430.746 96.402 430.248 96.6792C428.531 97.6343 426.869 98.6957 425.233 99.7857C423.963 100.633 422.761 101.584 421.529 102.488C422.482 100.621 423.603 99.0547 424.581 97.4008C424.826 96.985 424.605 96.2938 424.6 95.7298C424.035 95.9444 423.278 95.9957 422.936 96.4001C420.64 99.1059 418.433 101.888 416.341 104.462C414.357 105.057 412.435 105.632 410.382 106.245C410.283 105.108 411.716 103.629 409.857 102.288C408.946 103.393 407.908 104.386 407.199 105.573C406.121 107.379 404.827 108.457 402.861 107.92C404.228 106.549 405.762 105.135 407.121 103.568C407.479 103.156 407.302 102.281 407.37 101.618C406.755 101.626 406.009 101.411 405.551 101.683C404.578 102.26 403.724 103.055 402.878 103.824C402.068 104.559 401.333 105.376 400.354 106.369C400.274 105.33 400.228 104.713 400.164 103.883C399.413 104.29 398.829 104.605 398.304 104.89C397.177 103.788 394.253 104.527 395.213 101.459C397.455 101.001 398.443 97.7084 401.664 98.5989C401.38 97.621 401.164 96.8767 400.92 96.0355C404.241 97.6723 407.302 99.5844 411.366 98.5837C410.638 97.4521 410.034 96.5159 409.435 95.5836C411.275 94.5013 409.249 93.4361 409.237 92.7734C411.298 93.3449 413.34 94.0019 415.429 94.4368C416.022 94.5602 416.75 94.0437 417.416 93.8215C417.144 93.2405 416.916 92.6291 416.579 92.088C416.408 91.8145 416.066 91.6114 415.76 91.4652C414.697 90.9563 413.615 90.4873 412.804 90.1208C413.528 89.6119 414.262 88.9359 415.125 88.541C415.849 88.2087 416.591 88.0245 417.442 88.8258C418.575 89.8948 420.001 90.6961 421.406 91.4044C421.854 91.6303 422.638 91.1917 423.267 91.0588C422.866 90.5309 422.514 89.9537 422.05 89.4885C421.484 88.9207 420.822 88.446 420.201 87.9315C422.503 87.7739 424.493 88.0834 426.484 88.1023C427.276 88.1099 428.508 87.6675 428.78 87.0789C429.31 85.9263 427.839 85.9586 427.253 85.4422C427.194 85.3909 427.212 85.2504 427.195 85.1478C428.461 84.9978 429.751 84.9542 430.983 84.6636C431.894 84.4491 433.236 84.0921 433.078 83.0136C432.977 82.3243 431.797 81.4509 430.972 81.2781C428.742 80.8129 426.476 80.9629 424.223 82.1306C424.366 81.6312 424.453 81.3009 424.554 80.9762C424.659 80.642 424.908 80.2926 424.858 79.9888C424.786 79.535 424.596 79.0166 424.274 78.728C424.141 78.6084 423.482 78.9426 423.168 79.2008C422.87 79.4457 422.719 79.8654 422.491 80.2015C422.021 80.8914 421.371 80.9629 420.541 80.416C421.961 78.7906 424.09 77.6685 424.472 74.9646C423.66 75.1222 422.946 75.0709 422.472 75.3842C419.936 77.0608 417.461 78.8286 415.148 80.4388C415.577 79.0755 416.153 77.4596 416.571 75.802C416.705 75.2741 416.416 74.6399 416.321 74.055C415.841 74.4652 415.06 74.7975 414.933 75.2969C414.037 78.8191 411.804 80.8945 408.374 81.8306C407.964 81.9427 407.61 82.2578 407.218 82.4534C406.287 82.9186 405.35 83.3686 404.279 83.8927C404.173 83.0497 404.11 82.5541 404.036 81.9712C404.411 81.9712 404.711 82.0452 404.954 81.9579C405.667 81.7034 406.359 81.3844 407.059 81.0901C406.557 80.3951 406.15 79.5881 405.519 79.0413C405.051 78.6349 404.291 78.5685 403.66 78.3501C404.194 77.8963 404.68 77.7748 405.171 77.6837C407.633 77.2298 410.112 76.8463 412.549 76.2899C413.106 76.1627 413.534 75.4545 414.02 75.0139C413.459 74.7272 412.893 74.1879 412.338 74.1993C410.437 74.2354 408.541 74.4652 406.789 74.6095C407.994 73.1607 409.079 71.3493 410.627 70.1283C412.429 68.708 414.041 67.358 414.537 64.7965C411.173 64.8686 409.192 67.0846 406.922 68.9644V66.6308C405.694 67.4055 404.734 67.9219 403.878 68.5732C402.97 69.2663 402.162 70.0885 401.635 70.5613C400.692 69.0251 400.091 66.9972 398.753 66.1712C397.476 65.3813 395.428 65.8446 393.576 65.7497C393.981 65.4611 394.314 65.0339 394.7 64.9788C396.407 64.7377 398.185 64.806 399.829 64.3598C400.875 64.075 402.12 63.2756 402.559 62.3604C402.99 61.4641 403.122 61.1793 404.158 61.2666C405.768 61.4015 407.437 61.335 409.062 59.8919C407.878 59.3622 407 58.9691 406.03 58.5343C409.834 57.2203 409.88 55.3652 408.237 53.9923C409.456 52.2113 411.353 50.7986 411.399 48.0738C407.091 48.9207 404.899 52.2075 402.527 55.1544C402.527 53.7018 402.671 52.3347 402.456 51.0264C402.371 50.5043 401.536 50.0087 400.937 49.7333C400.774 49.6574 400.065 50.3675 399.888 50.8252C399.629 51.5011 399.723 52.3081 399.481 52.9955C399.232 53.7056 398.896 54.4822 398.365 54.9778C397.074 56.1797 395.478 57.0836 394.325 58.3937C393.164 59.7153 392.4 61.3882 391.438 62.8901C391.158 63.325 390.791 63.7028 390.588 63.9572V60.8053C389.449 61.1318 388.312 61.4565 387.17 61.785C386.828 60.5128 386.868 60.5964 388.174 59.966C388.74 59.6925 389.098 58.9881 389.55 58.4792C390.124 57.621 390.936 57.019 391.769 56.4475C392.713 55.7981 393.677 55.1772 394.962 54.3265C393.77 53.6601 393.12 53.2955 392.246 52.8037C393.219 52.5436 393.981 52.4391 394.645 52.1258C395.084 51.9169 395.379 51.4062 395.738 51.0302C395.282 50.7606 394.799 50.2251 394.377 50.2707C393.016 50.4188 391.677 50.7834 390.257 51.0777C390.522 49.7656 390.885 48.3909 391.035 46.9915C391.088 46.494 390.63 45.9414 390.406 45.4136C389.881 45.7041 389.107 45.8636 388.877 46.3079C388.286 47.451 387.938 48.7213 387.486 49.9365C387.368 50.2536 387.225 50.5593 386.968 51.1669C386.67 50.66 386.583 50.4568 386.448 50.2916C385.541 49.1941 384.699 48.0263 383.668 47.0598C383.364 46.775 382.522 47.0674 381.925 47.0959C381.984 47.5839 381.921 48.1346 382.126 48.5485C382.457 49.215 382.967 49.7903 383.668 50.7834C382.199 50.1682 381.208 49.7523 380.216 49.3365C380.098 49.4732 379.98 49.6118 379.864 49.7485C380.191 50.4795 380.52 51.2106 380.815 51.8657C379.417 52.7866 378.034 53.698 376.336 54.8164C376.773 53.1322 377.131 51.7479 377.478 50.4131C375.342 49.1656 375.212 48.0719 377.11 46.9174C379.484 45.4743 381.929 44.13 384.431 42.9223C387.195 41.5875 387.417 41.4052 387.318 38.4981C389.375 37.2658 392.109 37.1633 393.668 35.086C393.576 34.8296 393.485 34.5752 393.394 34.3189C391.442 34.805 389.491 35.2911 387.729 35.7316C388.328 34.6816 388.793 33.3391 389.693 32.422C390.651 31.4441 392.122 30.9466 392.08 29.0383C391.253 29.1086 390.546 29.1674 390.039 29.2111C390.601 27.9028 391.299 26.5604 391.75 25.1382C392.118 23.978 391.392 23.6495 390.387 24.0293C389.919 24.2059 389.451 24.5173 389.12 24.8913C387.917 26.2471 386.773 27.6522 385.659 28.9795C385.638 28.744 385.678 28.3718 385.56 28.0585C385.377 27.5743 385.088 27.1301 384.843 26.6705C384.368 26.9383 383.746 27.0996 383.455 27.5022C383.098 27.994 383.033 28.6927 382.815 29.2927C382.543 30.0352 382.241 30.7643 381.952 31.5011C382.03 29.5586 382.364 27.7262 382.516 25.8806C382.556 25.3964 382.031 24.8648 381.765 24.3559C381.357 24.804 380.809 25.1876 380.571 25.7135C380.212 26.5072 380.068 27.3997 379.87 28.1193C377.701 27.3123 376.448 28.8883 374.882 29.5263C375.602 28.5712 376.469 27.7699 377.165 26.8395C377.631 26.2186 377.853 25.4173 378.184 24.6958C377.52 24.4394 376.855 24.1831 376.302 23.9704C377.212 21.4963 378.184 18.857 379.305 15.8075C377.927 16.2803 376.802 16.6677 375.558 17.0949C376.724 15.8816 377.834 14.8315 378.8 13.6637C379.187 13.1947 379.26 12.4618 379.475 11.8485C378.686 11.7688 377.895 11.6207 377.108 11.632C376.596 11.6396 376.087 11.8808 375.452 12.0517C376.319 9.29461 377.064 6.9382 375.595 4.16595C374.631 5.32802 373.836 6.28693 373.064 7.21924C372.237 4.83624 372.673 1.91779 370.431 0C370.083 0.421533 369.665 0.710143 369.564 1.08421C368.732 4.15456 368.272 7.2648 368.65 10.4662C368.715 11.013 368.469 11.596 368.409 11.9377C367.167 11.1573 366.222 10.3048 365.12 9.97059C364.529 9.79211 363.546 10.3693 362.983 10.8763C362.721 11.1137 362.814 12.1865 363.127 12.5492C364.251 13.8441 365.572 14.9663 366.751 16.2176C367.542 17.0588 368.218 18.0082 368.947 18.9082C368.836 18.9709 368.726 19.0335 368.616 19.0962C367.675 18.4544 366.732 17.8107 365.791 17.1689C365.565 17.2924 365.338 17.4139 365.112 17.5373C366.47 21.6748 367.08 25.9262 368.049 30.5289C364.983 28.5731 364.065 24.992 360.584 24.3654C360.504 24.7508 360.341 25.0584 360.407 25.3034C360.766 26.6306 361.179 27.9237 359.706 28.9282C359.605 28.9966 359.854 29.9801 360.171 30.1947C361.228 30.9105 362.392 31.4707 363.645 32.1619C361.732 32.5036 360.031 32.8074 357.89 33.191C356.877 31.8903 355.62 30.2156 354.291 28.6016C353.835 28.0472 353.248 27.3826 352.619 27.2515C351.934 27.1091 350.991 27.3427 350.436 27.7718C350.126 28.0111 350.202 29.0364 350.404 29.5985C350.708 30.4415 351.276 31.1897 351.782 32.0631H348.801C349.742 34.6436 351.696 35.817 354.096 37.0949C353.326 37.2221 352.902 37.2544 352.501 37.3664C351.347 37.6873 350.1 38.1355 350.303 39.5843C350.499 40.978 351.835 40.4938 352.736 40.5337C353.628 40.5736 354.639 40.1387 355.4 40.4292C357.229 41.1318 358.943 42.1362 360.831 43.0837C358.761 43.3021 358.58 44.8212 358.611 46.325C356.833 45.4706 355.126 44.6521 353.421 43.8319C353.301 44.0123 353.179 44.1927 353.06 44.3711C353.447 47.3504 356.257 48.5029 357.936 50.3295C356.776 50.5441 355.635 50.753 354.495 50.9638C354.457 51.1802 354.419 51.3948 354.381 51.6112C355.242 52.2056 356.04 52.9347 356.976 53.36C358.413 54.0132 359.546 54.6968 358.751 56.7323C358.28 56.4247 357.831 56.1266 357.377 55.838C356.461 55.2569 355.58 54.5924 354.603 54.1386C354.126 53.9183 353.464 54.0949 352.887 54.093C352.904 54.7386 352.666 55.5911 352.987 55.988C353.885 57.0931 355.002 58.0216 356.056 58.9938C356.423 59.3337 356.856 59.5995 357.259 59.8995C357.181 60.0666 357.105 60.2318 357.027 60.3989C356.411 60.2546 355.719 60.2413 355.194 59.9375C354.404 59.478 353.98 59.5197 353.592 60.4008C352.972 61.8021 352.096 61.7034 351.273 60.5907C350.079 58.9767 349.007 57.2716 347.767 55.6975C347.375 55.2019 346.611 55.0006 346.016 54.6664C345.885 55.4013 345.48 56.2215 345.678 56.85C346.058 58.0501 346.782 59.14 347.362 60.2774C345.881 59.4248 344.602 58.3254 343.389 57.1576C341.393 55.2379 339.469 53.2461 337.444 51.3587C337.083 51.0226 336.384 51.053 335.84 50.9144C335.699 51.1062 335.559 51.298 335.418 51.4897C336.701 53.0468 337.984 54.6019 339.334 56.2405C335.969 55.5494 333.669 52.0043 329.464 52.7354C330.449 54.0208 331.186 54.9816 331.806 55.7905C331.215 56.2519 330.3 56.7285 330.357 56.9677C330.528 57.6722 330.937 58.5343 331.521 58.8836C332.977 59.7533 334.581 60.3723 336.074 61.0673C335.129 61.5742 334.078 62.0205 333.177 62.6736C332.753 62.9831 332.618 63.6914 332.351 64.2193C332.928 64.3959 333.559 64.8174 334.07 64.7034C335.663 64.3503 337.211 63.794 338.615 63.3648C338.555 63.8756 338.631 64.656 338.342 65.2636C338.028 65.9244 337.281 66.3668 336.897 67.0105C336.498 67.6789 336.309 68.4707 336.028 69.2093C336.815 69.1466 337.754 69.3365 338.359 68.9719C339.916 68.0339 341.326 66.851 342.847 65.7269C342.678 66.4428 342.514 67.1263 342.349 67.8232C343.642 68.3587 344.767 68.8257 345.703 69.2131C344.912 69.7922 343.961 70.4075 343.119 71.1461C342.84 71.391 342.619 72.0708 342.765 72.3367C342.935 72.6443 343.545 72.8816 343.944 72.855C344.712 72.8057 345.467 72.5474 346.313 72.3575C345.815 73.6544 345.364 74.8241 344.915 75.9956C345.117 76.1684 345.317 76.3412 345.518 76.5159C347.09 75.3842 348.661 74.2525 350.113 73.2063C350.847 74.1538 351.59 75.1108 352.206 75.9064C350.832 76.3013 349.233 76.4969 347.902 77.2033C345.799 78.3178 345.817 78.4432 344.579 76.3355C344.26 75.7924 343.984 75.1867 343.541 74.7633C342.999 74.2411 342.305 73.8785 341.678 73.4474C341.435 74.0361 341.189 74.6247 340.988 75.1108C340.596 74.9076 340.115 74.7386 339.733 74.4424C339.032 73.9012 338.321 73.3449 337.733 72.6879C337.076 71.9531 336.553 71.1005 335.969 70.2992C335.758 70.3733 335.545 70.4473 335.334 70.5214C335.121 71.4993 334.907 72.4771 334.697 73.436C333.422 71.8258 332.205 70.2252 330.907 68.6947C330.582 68.3112 329.907 67.8593 329.549 67.9656C329.171 68.0776 328.981 68.82 328.751 69.2112C327.591 68.5314 326.403 67.7187 325.112 67.1358C324.609 66.908 323.873 67.1985 323.244 67.2517C323.474 67.8384 323.534 68.6568 323.964 68.9701C325.439 70.0486 327.042 70.9505 328.565 71.9018C327.981 72.048 327.319 72.2132 326.658 72.3803C326.563 72.5702 326.468 72.762 326.373 72.9519C326.896 73.174 327.418 73.3981 327.941 73.6202C327.84 73.7304 327.74 73.8405 327.639 73.9506C326.358 73.3069 325.118 72.5531 323.785 72.0518C322.472 71.5581 321.082 70.7948 319.284 71.9094C320.512 72.9253 321.544 73.7797 322.626 74.674C321.571 75.4241 321.766 75.9766 322.848 76.3526C323.698 76.6469 324.557 76.9166 325.504 77.228C323.493 77.228 321.656 77.1577 319.829 77.2735C319.31 77.3058 318.826 77.8773 318.326 78.202C318.801 78.6122 319.246 79.3242 319.755 79.3736C321.335 79.5274 322.941 79.4305 324.35 79.4305C324.166 79.985 323.993 80.511 323.818 81.0388C324.449 81.0996 325.118 81.3236 325.702 81.185C326.759 80.9363 327.764 80.473 328.791 80.0989C328.772 80.2318 328.751 80.3648 328.732 80.4977C329.874 80.7255 331.017 80.9515 332.108 81.168C331.865 82.2389 331.652 83.1731 331.426 84.1661C330.536 84.7984 329.492 85.539 328.449 86.2814C328.511 86.4675 328.572 86.6536 328.635 86.8378H332.57C332.46 87.5346 332.374 88.0682 332.277 88.6758C334.815 89.1448 335.515 86.139 337.49 86.0175C337.148 87.5308 336.83 88.9322 336.515 90.3316C336.756 90.4702 336.998 90.6088 337.237 90.7474C337.95 90.0069 338.944 89.3878 339.321 88.503C340.18 86.4846 341.963 86.044 343.708 85.2541C343.478 88.2561 343.528 88.3416 345.746 88.9207C344.397 89.6043 343.047 90.286 341.697 90.9695C341.788 91.186 341.88 91.4006 341.971 91.617C344.381 92.462 346.499 90.8803 349.033 90.4227C346.917 91.7462 346.845 91.8487 346.942 93.4019C350.052 92.6652 352.425 90.6297 355.025 89.0157C354.879 89.4942 354.521 89.7695 354.404 90.1246C354.156 90.8765 354.033 91.6721 353.86 92.4487C354.691 92.3253 355.66 92.4316 356.324 92.0291C357.491 91.3208 358.47 90.305 359.614 89.3442C360.278 90.9619 359.17 93.7494 362.373 94.1956C362.734 92.1924 362.415 90.0543 364.692 88.8353C362.479 91.7044 364.73 94.0019 365.669 96.29C364.707 96.4932 364.084 96.6261 363.46 96.7571C363.692 97.321 363.857 97.9268 364.173 98.4356C364.532 99.0129 365.029 99.5047 365.471 100.044C363.58 100.671 361.114 98.3635 359.426 101.31C357.727 100.319 355.833 99.1553 353.875 98.1128C353.385 97.8508 352.333 97.7255 352.164 97.9704C351.835 98.447 351.919 99.2293 351.892 99.8863C351.883 100.108 352.062 100.338 352.155 100.566C352.044 100.69 351.934 100.815 351.824 100.938C350.565 100.183 349.206 99.5502 348.071 98.6388C346.448 97.3362 345.003 95.8134 343.45 94.4196C342.433 93.5063 342.013 94.1975 341.916 95.1507C341.862 95.6596 341.952 96.3109 342.239 96.702C343.129 97.9115 344.144 99.028 345.111 100.181C343.53 99.7439 341.99 99.1591 340.631 98.2875C338.378 96.8425 336.325 95.0729 334.019 93.7266C332.967 93.1133 331.903 91.731 330.158 92.6842C331.154 95.4108 333.859 96.0925 335.758 97.7501C333.696 97.2735 331.699 96.6185 329.684 96.028C327.875 95.4963 326.048 94.79 323.837 96.0261C325.116 97.1236 326.181 98.0369 327.118 98.8382C326.473 99.366 325.595 99.8028 325.639 100.108C325.732 100.767 326.219 101.434 326.702 101.95C326.973 102.241 327.549 102.262 327.996 102.372C329.667 102.786 331.34 103.188 332.815 103.547C331.905 104.307 330.863 105.026 330.03 105.938C329.644 106.361 329.665 107.159 329.502 107.787C330.213 107.838 331.047 108.154 331.614 107.892C333.26 107.126 334.8 106.131 336.252 105.3C335.844 106.838 336.861 109.084 334.697 110.081C334.11 110.032 333.222 109.798 333.131 109.978C332.768 110.681 332.654 111.513 332.445 112.308C332.078 112.079 331.542 111.665 330.941 111.395C330.565 111.226 329.884 111.065 329.694 111.256C328.063 112.889 326.599 111.613 325.371 110.848C323.673 109.789 322.261 108.283 320.668 107.045C320.111 106.612 319.379 106.403 318.729 106.092C318.542 106.331 318.356 106.572 318.172 106.811C319.586 108.357 321 109.902 322.208 111.222C318.594 111.461 315.075 108.758 310.721 109.551C312.488 112.023 314.911 112.754 317.354 113.615C316.107 115.665 317.972 115.392 318.649 115.696C317.255 116.402 315.744 117.169 314.233 117.936L314.394 118.738C315.134 118.886 315.911 119.254 316.605 119.134C318.05 118.888 319.43 118.428 320.238 120.221C320.308 120.374 320.622 120.447 320.835 120.505C322.979 121.077 325.126 121.639 327.088 122.154C325.008 123.369 322.873 124.506 320.883 125.858C320.371 126.206 320.318 127.231 320.054 127.943C320.702 128.131 321.428 128.6 321.981 128.448C323.272 128.093 324.533 127.533 325.705 126.88C327.099 126.103 328.39 125.14 329.905 124.14C329.441 125.366 329.076 126.331 328.711 127.295L329.287 127.778C330.114 127.178 331.055 126.688 331.741 125.957C333.114 124.493 333.581 124.405 335.214 125.769C334.205 126.834 333.133 127.85 332.217 128.989C331.897 129.386 331.958 130.09 331.846 130.654C332.538 130.749 333.391 131.148 333.891 130.88C335.114 130.229 336.173 129.272 337.294 128.433C337.648 128.169 337.99 127.888 338.539 127.455C338.539 128.748 338.404 129.673 338.574 130.539C338.8 131.691 338.929 133.224 339.697 133.827C341.02 134.866 340.492 135.827 340.022 137.238C339.007 136.514 338.423 135.401 337.558 134.591C336.899 133.972 335.88 133.736 335.022 133.33C334.768 134.106 334.519 134.885 334.253 135.66C334.226 135.736 334.11 135.781 334.137 135.76C332.129 135.035 330.534 132.954 328.049 134.553C327.607 133.579 327.27 132.648 326.772 131.815C326.525 131.399 325.985 131.158 325.576 130.837C325.323 131.31 324.882 131.773 324.86 132.257C324.825 133.045 325.063 133.844 325.186 134.638C325.046 134.739 324.905 134.841 324.766 134.942C323.257 133.233 321.757 131.513 320.23 129.819C319.691 129.221 319.124 128.628 318.491 128.137C316.89 126.893 315.476 127.016 314.062 128.52C313.704 127.82 313.372 127.149 313.026 126.485C312.225 124.952 311.47 123.39 310.581 121.91C310.332 121.497 309.674 121.329 309.203 121.048C309.05 121.591 308.701 122.171 308.79 122.67C308.976 123.712 309.332 124.738 309.737 125.721C310.197 126.84 310.788 127.903 311.149 128.64C307.471 127.472 304.226 124.597 299.612 124.662C300.557 127.996 303.19 129.018 305.328 130.277C303.811 132.612 301.792 131.325 299.895 131.07C299.739 131.049 299.572 130.806 299.456 130.839C298.789 131.019 297.848 131.068 297.561 131.52C297.273 131.974 297.391 133.201 297.77 133.47C299.032 134.367 300.424 135.331 301.893 135.622C303.739 135.986 305.712 135.709 307.716 135.709C307.241 137.046 304.832 137.775 306.168 139.919C306.897 139.725 307.594 139.539 308.322 139.345C310.071 141.916 312.723 140.581 315.06 141.012C314.582 141.369 314.037 141.449 313.564 141.677C313.147 141.878 312.594 142.193 312.505 142.558C312.427 142.879 312.813 143.483 313.159 143.703C313.693 144.045 314.368 144.164 314.961 144.371C313.653 144.84 312.366 145.091 311.332 145.746C310.647 146.179 310.326 147.187 309.841 147.937C310.674 148.302 311.531 149.018 312.334 148.959C314.32 148.813 316.282 148.311 318.054 147.99C317.145 148.925 317.198 150.075 318.054 151.636C318.611 152.654 318.772 153.218 319.921 152.677C320.639 152.339 321.375 152.031 322.059 151.634C322.922 151.135 323.744 150.561 324.464 150.098C324.464 151.858 324.361 153.503 324.517 155.122C324.576 155.73 325.236 156.281 325.622 156.858C326.025 156.246 326.645 155.681 326.787 155.012C327.053 153.772 327.04 152.474 327.162 150.979C327.751 152.246 328.19 153.189 328.679 154.238C330.445 152.84 331.471 151.336 331.101 149.462C332.41 149.551 333.608 149.631 334.905 149.72C334.747 152.041 336.239 151.207 337.737 150.706C337.161 151.665 336.724 152.257 336.425 152.912C335.072 155.886 335.211 156.172 337.988 156.564C336.482 157.553 334.935 158.571 333.389 159.586C333.464 159.833 333.536 160.08 333.61 160.327C335.08 160.448 336.547 160.57 338.167 160.703C336.889 162.366 336.988 162.754 338.593 163.471C338.887 163.602 339.207 163.728 339.44 163.938C340.454 164.852 341.708 164.628 342.539 163.536C343.338 162.488 344.309 161.574 345.203 160.6C345.349 160.73 345.495 160.859 345.64 160.988C344.231 162.366 345.108 165.131 342.49 165.82C341.982 165.953 341.427 166.437 341.174 166.91C340.727 167.747 340.418 167.932 339.482 167.43C338.545 166.927 337.399 166.726 336.319 166.606C335.65 166.532 334.618 166.644 334.334 167.068C334.051 167.491 334.45 168.418 334.64 169.098C334.722 169.392 335.028 169.624 335.268 169.929C333.298 170.624 331.654 169.857 330.051 169.132C327.842 168.131 325.711 166.954 323.491 165.978C323.139 165.822 322.497 166.329 321.989 166.53C322.303 167.316 322.403 168.346 322.97 168.837C324.287 169.979 325.829 170.862 327.53 172.018C326.74 172.018 326.162 172.145 325.667 171.997C322.405 171.023 319.172 169.948 315.906 168.991C314.008 168.435 312.079 167.968 310.136 167.611C309.613 167.514 308.99 167.962 308.412 168.16C308.733 168.63 308.953 169.28 309.398 169.538C310.393 170.113 311.476 170.56 312.565 170.937C313.816 171.372 315.111 171.676 316.387 172.037C314.744 172.392 313.176 172.424 311.609 172.381C310.187 172.341 308.729 171.976 307.357 172.194C305.707 172.456 303.758 172.155 302.34 174.099C303.973 174.883 305.496 175.616 306.874 176.277C306.264 177.04 305.45 177.657 305.549 178.024C305.726 178.669 306.406 179.228 306.984 179.687C307.265 179.911 307.79 179.896 308.201 179.877C310.463 179.773 312.725 179.636 315.06 179.505C314.803 179.776 314.478 180.021 314.28 180.344C313.744 181.227 313.172 182.099 312.678 183.004L302.169 189.202L284.204 203.732L266.456 207.527L252.928 208.503L240.59 212.299L226.089 216.961C226.089 216.961 212.128 224.225 210.613 224.985C209.097 225.744 197.302 235.611 197.302 235.611L187.561 251.766L180.527 256.754L175.765 250.79L167.539 245.585L163.535 240.815L156.716 234.743L146.435 227.262C146.435 227.262 135.938 224.334 132.257 223.792C128.577 223.249 118.404 222.925 117.648 222.925C116.891 222.925 110.397 215.227 110.397 215.227L105.635 206.77L93.7309 202.108L90.5922 201.024H81.9349L71.7624 200.591L67.217 198.855C67.217 198.855 63.7533 194.843 63.645 194.084C63.5366 193.324 64.0784 191.699 64.4035 190.939C64.7286 190.18 65.2685 187.687 65.2685 187.687L66.7836 182.482C66.7836 182.482 68.9489 179.554 69.1637 179.013C69.3804 178.47 70.4621 178.905 70.4621 178.905L75.1159 179.989L76.1976 177.496V174.46L75.2242 172.4V175.001L74.8991 176.953H72.519L72.6274 174.352L77.9313 167.846C77.9313 167.846 75.2261 168.93 74.6843 169.363C74.1425 169.796 70.7891 173.159 70.7891 173.159L67.1087 176.195L68.9489 166.221C68.9489 166.221 71.1142 159.064 71.5457 157.221C71.9791 155.377 73.3859 152.992 73.3859 152.992V144.535H71.9791L71.2206 150.391C71.2206 150.391 66.7836 153.643 66.7836 153.21C66.7836 152.777 68.6238 147.789 68.6238 147.789C68.6238 147.789 69.274 142.26 69.274 141.284C69.274 140.308 67.449 140.959 67.449 140.959V144.32L64.6221 147.032C64.6221 147.032 65.7038 141.502 65.7038 140.635C65.7038 139.767 67.2189 135.105 67.4357 134.239C67.6524 133.375 65.2704 128.49 64.6221 128.273C63.972 128.057 64.6221 131.742 64.6221 131.742L63.2153 144.212C63.2153 144.212 61.0501 143.236 61.0501 141.284C61.0501 139.332 62.4568 134.239 62.4568 134.239C62.4568 134.239 61.3751 129.141 61.3751 128.598C61.3751 128.055 58.7783 125.454 58.4532 125.997C58.1282 126.54 56.5047 130.985 56.5047 132.069C56.5047 133.153 56.7214 140.418 56.7214 140.418L55.9648 144.863L54.2329 143.128V134.995L53.0429 141.609L52.5011 155.812L49.5792 182.484L45.7904 184.544L41.0283 188.665L36.3745 191.917H28.7989C27.3921 191.917 20.7898 191.266 20.7898 191.266L17.6512 188.989C17.6512 188.989 14.1875 188.338 13.8624 188.23C13.5373 188.122 10.9405 188.881 10.9405 188.881L9.10029 193.002L0.108359 202.655V210.571L0.864974 209.812C1.19005 209.16 5.62708 204.823 5.62708 204.823L7.90073 198.859C7.90073 198.859 14.503 192.895 14.7198 194.198C14.9365 195.498 30.736 197.017 30.736 197.017L17.3166 210.463L0 216.966V316.501H366.23V202.038C366.43 202.22 366.629 202.402 366.831 202.587C368.019 201.575 369.085 200.663 369.747 200.101C370.129 201.36 370.302 203.097 371.182 204.33C371.618 204.939 371.971 205.382 371.977 206.099C372 210.062 372.003 214.027 372.038 217.99C372.055 219.835 372.5 220.206 374.496 220.223C375.973 220.236 376.895 219.869 376.794 218.039C376.615 214.841 376.623 211.633 376.61 208.427C376.6 206.056 376.8 203.678 376.697 201.313C376.585 198.74 375.844 196.123 377.918 193.867H379.376C379.657 194.671 379.802 195.43 380.174 196.053C380.611 196.786 381.258 197.963 381.796 197.954C383.088 197.933 382.851 196.545 382.959 195.639C383.039 194.972 382.832 194.276 382.786 193.59C382.754 193.1 382.78 192.608 382.78 191.972C383.583 192.407 384.218 192.827 384.908 193.106C386.187 193.624 386.423 194.426 385.864 195.65C385.339 196.797 384.91 197.99 384.489 199.18C384.182 200.054 384.32 200.967 385.185 201.326C385.505 201.459 386.18 200.768 386.672 200.424C386.833 200.312 386.93 200.107 387.006 200.01C387.006 202.357 386.902 204.704 387.077 207.03C387.122 207.63 388.041 208.165 388.56 208.731C388.98 208.256 389.643 207.839 389.771 207.296C390.101 205.875 390.198 204.4 390.406 202.832H391.782C391.983 202.355 392.189 201.875 392.472 201.206C393.006 202.72 393.411 204.037 393.93 205.308C395.137 208.256 398.274 208.712 400.342 206.27C400.964 205.537 401.591 204.808 402.091 204.221C403.011 205.442 404.027 206.69 404.928 208.013C406.178 209.853 407.703 210.472 409.69 208.758C408.95 207.309 408.108 205.86 407.477 204.324C407.224 203.707 407.435 202.898 407.435 202.176C407.534 202.186 407.635 202.194 407.734 202.203C408.169 203.265 408.604 204.326 409.038 205.387C409.308 205.401 409.579 205.414 409.849 205.427C410.213 204.353 410.576 203.276 410.99 202.053C412.26 203.409 413.471 204.829 414.83 206.084C415.364 206.578 416.235 206.703 416.952 206.996C417.087 206.08 417.286 205.169 417.326 204.252C417.341 203.908 417.014 203.528 416.792 203.198C416.195 202.306 415.573 201.432 415.14 200.807C415.648 199.934 416.066 199.211 416.44 198.569C419.185 198.457 421.969 198.434 424.586 196.349C420.837 194.484 417.218 194.955 413.467 195.212C413.996 194.577 414.57 194.078 414.878 193.45C415.075 193.045 415.068 192.12 414.836 191.991C412.76 190.825 412.906 188.46 411.897 186.718C413.458 187.778 415.02 188.837 416.731 189.998C417.144 189.151 417.495 188.429 417.904 187.59C418.115 188.587 418.241 189.502 418.522 190.368C418.663 190.803 419.184 191.515 419.37 191.467C420.588 191.156 420.885 192.16 421.503 192.743C421.807 193.03 422.257 193.159 422.643 193.36C422.822 192.908 423.181 192.441 423.143 192.008C423.073 191.236 422.763 190.484 422.575 189.794C424.259 191.353 425.885 192.918 427.59 194.391C427.947 194.701 428.594 194.672 429.107 194.802C429.094 194.205 429.149 193.598 429.04 193.019C428.985 192.73 428.624 192.504 428.419 192.236C427.442 190.955 426.47 189.669 425.512 188.405C426.312 188.078 426.831 187.877 427.341 187.658C428.409 187.199 429.286 186.859 430.39 187.962C431.234 188.807 432.62 189.219 433.841 189.542C434.833 189.804 435.521 189.198 434.852 188.158C433.957 186.764 432.873 185.492 431.976 184.305H434.683C434.574 183.764 434.612 183.331 434.447 183.228C432.934 182.29 431.384 181.411 429.846 180.515C430.905 180.204 431.966 180.223 433.012 180.359C433.907 180.477 434.787 180.728 435.673 180.919C435.407 180.124 435.139 179.328 434.882 178.531C436.81 178.975 438.753 179.507 440.732 179.82C441.277 179.907 441.928 179.34 442.53 179.072C442.237 178.561 442.07 177.84 441.631 177.581C440.416 176.867 439.087 176.347 437.888 175.791C438.443 175.519 439.644 175.177 439.631 174.895C439.561 173.453 440.834 173.622 441.483 173.1C442.013 172.671 442.796 172.502 443.215 172.005C443.633 171.507 443.933 170.734 443.897 170.102C443.88 169.775 443.024 169.494 442.53 169.181H442.526ZM410.726 121.197C411.937 122.507 413.148 123.815 414.444 125.218C413.401 126.012 412.549 126.657 411.697 127.305C411.555 127.282 411.412 127.259 411.268 127.237C411.825 125.152 412.374 123.069 410.327 121.417C410.46 121.343 410.593 121.271 410.728 121.197H410.726ZM369.971 128.214C369.829 128.154 369.688 128.091 369.545 128.03C369.88 127.267 370.156 126.469 370.564 125.748C370.998 124.981 371.557 124.284 372.087 123.517C372.473 125.336 372.03 126.299 369.971 128.214V128.214ZM371.477 72.5246C370.754 74.1899 367.407 74.5867 365.211 72.8436C367.306 72.7373 369.403 72.631 371.477 72.5246ZM368.625 62.3318C368.985 63.9458 369.325 65.4763 369.728 67.2972C367.057 64.7699 365.93 63.6154 368.625 62.3318ZM368.768 49.8207C368.141 50.4967 367.825 50.8365 367.146 51.5695C369.986 51.2695 371.228 52.7106 371.965 54.7803C370.851 54.0987 369.774 53.3467 368.618 52.7467C367.532 52.1828 366.365 51.7783 365.061 51.2334C365.692 49.9498 367.287 50.5631 368.768 49.8207ZM358.907 34.448C358.981 34.3474 359.055 34.2467 359.13 34.1461C360.411 34.6626 361.692 35.179 362.994 35.705C362.116 36.2443 361.546 36.5936 360.829 37.0342C360.274 36.2879 359.592 35.367 358.907 34.4461V34.448ZM353.05 86.2302C351.351 87.4739 349.482 87.1055 347.642 86.8928C347.132 86.834 346.288 86.4523 346.258 86.1523C346.201 85.6055 346.507 84.8801 346.908 84.4662C347.347 84.0104 348.064 83.8244 348.693 83.5035C348.626 84.6162 348.567 85.5922 348.508 86.5681C348.744 86.6802 348.978 86.7903 349.214 86.9023C350.257 85.8637 351.301 84.8231 352.366 83.7617C353.229 84.3902 354.004 84.9542 354.835 85.558C354.219 85.782 353.539 85.8751 353.05 86.2321V86.2302ZM354.542 82.6148C357.088 81.8667 359.411 81.0939 361.696 82.7326C360.407 84.4662 357.877 84.4548 354.542 82.6148ZM357.772 79.6622C359.246 78.9312 360.432 78.3425 361.618 77.7539C361.694 77.9058 361.77 78.0596 361.846 78.2115C360.563 78.6483 360.246 80.9762 357.772 79.6622V79.6622ZM357.415 75.0823C355.934 74.919 354.527 74.0778 353.077 73.5329C354.782 72.2721 356.327 71.1309 357.744 70.0847C357.957 70.5271 358.265 71.1689 358.573 71.8107C359.202 71.2031 359.962 70.6809 360.426 69.9651C360.945 69.1657 361.194 68.1916 361.561 67.2934C364.216 67.7289 365.723 68.3182 366.082 69.0612C364.597 69.6878 363.127 70.3847 361.605 70.9296C359.871 71.5505 360.38 72.424 361.215 73.381C361.553 73.7683 361.949 74.1063 362.434 74.5791C360.63 74.7899 358.983 75.257 357.411 75.0842L357.415 75.0823ZM365.586 81.0426C364.732 81.4547 363.896 82.6015 362.671 81.5743C363.896 80.7483 364.971 80.023 366.049 79.2957C366.169 79.3622 366.287 79.4287 366.407 79.4932C366.143 80.0287 366.009 80.8375 365.586 81.0426V81.0426ZM361.831 115.836C364.209 115.618 364.515 119.119 367.357 118.248C367.095 117.524 367.023 116.839 366.656 116.404C365.62 115.181 366.051 114.317 367.046 113.356C368.218 112.223 369.277 110.973 370.388 109.773C370.465 109.853 370.543 109.933 370.621 110.013C370.099 110.846 369.557 111.67 369.064 112.523C368.899 112.81 368.711 113.22 368.794 113.495C369.696 116.465 367.622 119.138 367.981 122.045C368.013 122.311 367.987 122.611 367.897 122.864C367.673 123.496 367.397 124.111 367.142 124.734C366.675 124.421 366.163 124.157 365.747 123.785C364.405 122.585 363.097 121.347 361.728 120.08C362.479 120.118 363.221 120.156 363.935 120.192C364.46 118.717 363.802 117.95 362.572 117.53C361.314 117.101 361.276 116.436 361.833 115.836H361.831ZM355.719 146.851C355.875 146.887 356.033 146.921 356.189 146.958C356.694 146.646 357.2 146.333 357.867 145.921C357.987 146.217 358.242 146.849 358.689 147.962C357.356 147.4 355.839 148.885 355.719 146.853V146.851ZM354.058 160.674V158.383C354.367 158.878 354.624 159.29 354.862 159.668C354.586 159.989 354.318 160.327 354.058 160.674ZM347.254 164.842C347.864 163.365 348.501 161.827 349.096 160.386C349.845 161.85 351.763 163.137 350.569 165.287C349.516 165.146 348.431 165 347.254 164.842ZM362.348 143.633C362.141 143.585 361.936 143.538 361.728 143.49V140.441C362.27 140.642 362.84 140.855 363.409 141.066C363.055 141.922 362.702 142.776 362.346 143.633H362.348ZM361.069 123.76C360.896 123.891 360.725 124.024 360.552 124.155C359.884 123.283 359.215 122.412 358.548 121.54C358.749 121.39 358.949 121.242 359.151 121.092C359.791 121.981 360.43 122.871 361.071 123.76H361.069ZM357.305 109.583C357.841 110.001 358.343 110.392 358.844 110.784C358.818 110.987 358.791 111.188 358.765 111.391C357.71 111.79 356.654 112.191 355.599 112.589L355.341 112.128C355.951 111.338 356.559 110.548 357.305 109.583V109.583ZM339.364 109.492C339.978 108.566 340.496 107.783 341.148 106.8C341.229 108.036 341.296 109.039 341.366 110.098C340.853 109.942 340.218 109.751 339.364 109.492V109.492ZM341.564 133.51V129.897C342.465 131.215 343.161 132.234 343.859 133.254C344.045 133.206 344.231 133.157 344.417 133.11V129.568C345.193 129.568 346.233 129.849 346.503 129.511C347.115 128.746 347.136 127.744 346.358 126.834C345.904 126.304 345.687 125.571 345.206 124.62C346.149 124.552 347.003 124.231 347.541 124.514C348.244 124.884 348.539 125.723 347.917 126.6C347.843 126.707 348.318 127.396 348.659 127.552C349.033 127.723 349.546 127.592 350.214 127.592C349.613 128.963 348.982 130.159 348.579 131.429C348.404 131.98 348.704 132.679 348.788 133.311C349.379 132.929 350.054 132.631 350.537 132.143C351.001 131.674 351.269 131.01 351.62 130.43C351.573 133.163 354.286 133.151 358.497 133.503C357.284 135.117 356.151 136.626 354.896 138.295C352.938 138.356 351.468 136.871 349.794 135.812C349.21 135.441 348.522 135.238 347.879 134.959C347.672 135.589 347.465 136.22 347.201 137.031C345.459 135.945 343.64 134.809 341.562 133.512L341.564 133.51ZM366.228 161.968V161.774C366.228 161.774 366.038 161.588 365.711 161.295V155.191C365.734 155.187 365.878 155.111 365.937 155.155C366.412 155.498 366.873 155.865 367.338 156.224C367.757 155.633 368.452 155.081 368.542 154.443C368.793 152.662 368.793 150.844 368.89 149.054C371.897 151.192 370.716 155.02 372.106 157.633C370.106 159.108 368.275 160.458 366.228 161.968V161.968ZM371.431 175.136C371.226 175.092 371.023 175.046 370.817 175.003C370.631 173.981 370.445 172.96 370.239 171.83C370.848 171.908 371.368 171.974 372.235 172.084C371.958 173.134 371.695 174.135 371.431 175.136V175.136ZM376.716 35.6822C376.773 36.6335 376.821 37.4215 376.891 38.5532C375.468 37.5684 375.409 36.6114 376.716 35.6822ZM375.61 118.965C375.484 118.926 375.361 118.888 375.235 118.848V116.001C375.796 116.254 376.174 116.423 376.634 116.63C376.269 117.464 375.94 118.215 375.612 118.967L375.61 118.965ZM405.439 145.68C405.201 145.007 404.466 144.512 403.937 143.914C404.918 143.711 405.694 143.551 406.659 143.35C407.024 144.087 407.466 144.975 407.905 145.856C406.825 146.895 406.043 147.39 405.441 145.68H405.439ZM399.572 124.001C400.185 124.485 400.987 125.121 402.019 125.94C402.979 123.063 400.77 121.652 400.099 119.351C401.913 120.448 403.477 121.396 405.287 122.493C405.637 121.626 405.954 120.84 406.264 120.071C406.735 121.409 407.249 122.864 407.68 124.086C407.241 125.024 406.701 125.873 406.441 126.802C405.971 128.478 404.926 129.42 403.173 129.866C403.534 128.085 402.2 127.922 401.135 127.835C399.335 127.687 397.515 127.795 395.542 127.795C397.048 126.376 398.301 125.197 399.57 123.999L399.572 124.001ZM402.614 169.891C402.021 169.808 401.192 169.946 400.875 169.606C399.32 167.943 399.386 167.354 401.084 165.944C401.622 166.745 402.241 167.493 402.644 168.344C402.842 168.761 402.639 169.371 402.616 169.893L402.614 169.891ZM396.671 120.135C397.23 120.936 397.612 121.483 398.015 122.06C397.177 122.473 396.39 122.858 395.12 123.481C395.734 122.157 396.166 121.227 396.673 120.137L396.671 120.135ZM405.912 93.7589C404.667 93.2063 403.424 92.6557 402.196 92.1107C402.829 91.2316 403.319 91.3892 405.912 93.7589ZM399.711 81.5572C400.525 81.1357 401.726 81.4717 402.757 81.4717C402.802 81.692 402.848 81.9123 402.893 82.1325C401.063 82.9433 399.232 83.7541 397.401 84.5668C397.329 84.413 397.259 84.2592 397.188 84.1054C398.015 83.2282 398.702 82.0794 399.711 81.5572V81.5572ZM385.132 72.7923C385.579 72.5512 386.284 72.4999 386.484 72.143C387.615 70.1246 389.25 70.6961 390.938 71.0474C391.618 71.1879 392.371 70.9809 393.09 70.9315C392.854 70.265 392.616 69.5967 392.402 68.9871H397.78C397.58 70.1663 397.367 71.4309 397.09 73.0639C396.761 72.5474 396.536 72.3518 396.514 72.1354C396.365 70.6562 395.554 70.9771 394.708 71.4594C394.468 71.5961 394.242 71.8296 394.114 72.0727C393.153 73.9107 392.217 75.7602 391.316 77.5279C391.312 77.5203 391.234 77.1501 391.035 76.8634C390.708 76.3944 390.301 75.9804 389.928 75.5437C389.501 76.0203 388.9 76.4324 388.689 76.9906C388.438 77.6495 388.523 78.4356 388.457 79.2388C387.723 78.9995 387.005 78.9027 386.461 78.5419C386.024 78.2514 385.651 77.6818 385.505 77.1634C385.016 75.4222 383.516 75.3026 381.568 74.7899C383.014 73.9772 384.066 73.3696 385.134 72.7904L385.132 72.7923ZM393.989 118.297C393.299 119.562 392.639 120.843 391.892 122.074C391.763 122.286 391.261 122.271 390.932 122.362C390.898 122.07 390.725 121.685 390.848 121.498C391.668 120.27 392.554 119.085 393.417 117.885C393.609 118.022 393.799 118.16 393.991 118.297H393.989ZM381.547 97.3742C380.887 97.19 380.147 97.2945 379.094 97.2945C379.311 96.8274 379.416 96.1077 379.739 95.99C381.446 95.3709 381.727 93.8424 382.258 92.4392C382.364 92.1563 382.67 91.6816 382.794 91.7082C384.906 92.1696 387.006 92.686 389.099 93.231C389.25 93.2709 389.32 93.6184 389.215 93.4209C388.301 94.1614 387.231 94.5924 386.968 95.3178C386.018 97.9571 383.731 98.3824 381.566 99.1628C381.566 98.4584 381.693 97.416 381.543 97.3742H381.547ZM379.148 67.6219V60.2849C381.334 62.9167 381.395 65.9909 379.148 67.6219ZM385.845 116.93C387.012 117.051 388.179 117.173 389.465 117.306C389.286 118.555 389.124 119.679 388.947 120.912C387.666 119.558 386.584 118.417 385.503 117.274C385.617 117.16 385.731 117.046 385.847 116.93H385.845ZM383.254 61.8629C382.368 61.1033 381.627 60.4691 380.87 59.8216C381.328 59.2178 381.955 58.3919 382.583 57.5659C382.581 57.5583 382.577 57.5526 382.575 57.545C383.461 58.9007 384.031 60.2698 383.256 61.8648L383.254 61.8629ZM383.229 56.4873L382.56 57.5146C382.03 56.0677 380.967 55.7469 379.003 56.438C380.433 54.8696 380.836 54.8715 383.229 56.4873ZM378.053 131.894C378.174 131.826 378.296 131.756 378.418 131.687C378.899 132.291 379.379 132.897 379.86 133.501C379.374 133.882 378.887 134.264 378.218 134.79C378.148 133.565 378.1 132.73 378.053 131.894ZM383.009 164.096C381.501 163.306 380.098 162.569 379.043 162.017C379.123 160.697 379.191 159.541 379.254 158.508C380.596 159.717 382.13 161.1 383.784 162.588C383.495 163.149 383.242 163.642 383.009 164.096ZM387.472 146.221C385.674 144.821 383.216 144.041 381.798 141.78C383.649 141.542 385.256 141.352 386.856 141.119C387.242 141.062 387.736 140.973 387.953 140.71C388.366 140.211 388.615 139.577 388.932 138.998C388.411 138.713 387.908 138.233 387.368 138.189C386.444 138.113 385.499 138.312 384.564 138.396C384.547 138.274 384.531 138.151 384.514 138.029C385.6 137.287 386.685 136.543 388.035 135.618C388.742 136.36 389.58 137.243 390.518 138.229C389.345 139.974 388.74 141.797 390.179 143.743C390.898 143.447 391.573 143.168 392.248 142.89C392.375 142.97 392.504 143.052 392.632 143.131C392.27 144.02 391.909 144.909 391.491 145.938C391.016 145.399 390.655 144.992 390.265 144.55C389.339 145.104 388.398 145.666 387.468 146.221H387.472ZM388.101 150.579C389.069 149.561 390.136 148.439 391.31 147.201C392.687 147.945 393.632 147.108 394.308 145.851C394.926 144.704 395.42 143.488 396.217 141.772C397.415 143.754 399.027 145.323 399.24 147.064C399.493 149.128 398.928 151.585 396.126 152.261C396.01 151.779 395.898 151.321 395.719 150.58H388.101V150.579ZM397.116 204.763C396.126 202.866 395.211 201.111 394.293 199.351C398.738 201.024 399.217 201.916 397.116 204.763ZM402.283 189.215C399.903 189.403 397.538 189.796 395.158 189.924C394.377 189.965 393.567 189.447 392.835 189.206C393.192 188.275 393.47 187.554 393.757 186.808C395.865 186.726 396.057 186.394 395.485 184.349C395.314 183.737 395.561 183.01 395.639 182.083C397.249 183.576 398.46 184.696 399.671 185.818C399.915 185.674 400.158 185.532 400.401 185.387L398.949 179.351C399.141 179.26 399.331 179.167 399.523 179.076C400.338 180.454 401.192 181.814 401.933 183.23C402.051 183.454 401.629 183.929 401.53 184.307C401.209 185.526 400.92 186.756 400.557 188.232C403.331 188.241 403.749 185.976 405.123 184.964C405.564 186.601 403.833 189.092 402.285 189.213L402.283 189.215ZM405.066 192.819C405.506 190.694 407.836 191.701 408.462 190.208C408.099 189.886 407.69 189.523 407.152 189.046C407.553 188.469 407.903 187.966 408.287 187.415C409.15 188.517 409.941 189.525 410.838 190.67C408.872 191.403 407.127 192.052 405.066 192.819ZM434.865 178.478C434.848 178.396 434.879 178.318 434.865 178.478V178.478Z" fill="#224963"/>
</svg>
