<svg width="445" height="317" viewBox="0 0 445 317" fill="none" xmlns="http://www.w3.org/2000/svg">
<path d="M441.631 169.258C442.4 168.221 443.255 167.068 444.375 165.561C439.229 165.187 436.795 169.571 432.872 170.717C434.065 169.06 435.228 167.539 436.268 165.934C436.507 165.565 436.317 164.917 436.325 164.397C435.797 164.545 435.091 164.526 434.771 164.87C432.312 167.489 429.929 170.181 427.664 172.693C425.734 173.156 423.801 173.621 421.744 174.115C421.539 173.061 423.239 171.598 421.407 170.31C420.769 170.909 420.063 171.484 419.466 172.157C418.828 172.875 418.289 173.682 417.663 174.512C415.453 173.078 413.825 174.748 412.082 175.529C411.733 174.138 411.531 172.761 411.029 171.507C410.549 170.308 409.509 170.251 408.49 171.082C407.676 171.745 406.794 172.324 405.944 172.941C405.959 172.125 406.367 171.581 406.565 170.971C406.705 170.535 406.697 169.638 406.528 169.577C404.658 168.895 404.903 166.722 403.652 165.592C402.984 164.988 402.677 163.984 402.129 163.029C403.297 163.624 404.352 164.642 405.244 164.515C407.202 164.233 408.28 165.715 409.801 166.232C412.008 166.982 414.068 168.31 416.392 167.497C416.284 165.666 416.187 164.068 416.092 162.455C417.504 162.543 418.821 162.816 420.067 162.626C420.817 162.512 421.458 161.678 422.148 161.167C421.566 160.721 421.037 160.153 420.384 159.862C419.781 159.594 419.012 159.722 418.375 159.505C416.307 158.806 413.837 159.167 412.241 157.102C413.419 157.1 414.582 157.191 415.688 157.497C417.068 157.879 418.375 158.527 419.758 158.888C420.462 159.07 421.262 158.876 422.019 158.852C421.972 158.061 422.166 157.132 421.815 156.513C421.372 155.734 420.486 155.208 419.5 154.304C420.885 154.695 421.934 155.085 423.017 155.271C424.188 155.472 425.412 155.668 426.571 155.523C427.806 155.37 427.939 154.49 427.019 153.603C426.85 153.441 426.719 153.238 426.501 152.968C427.681 152.879 428.7 152.902 429.669 152.695C430.352 152.549 430.969 152.093 431.616 151.773C431.227 151.071 430.868 150.349 430.428 149.68C430.318 149.513 429.95 149.471 429.696 149.458C427.762 149.359 425.827 149.281 423.898 149.198C423.981 148.983 424.273 148.514 424.321 148.022C424.364 147.568 424.15 147.087 424.048 146.616C423.647 146.741 423.245 146.865 422.847 146.996C421.073 147.577 419.299 148.16 417.51 148.747C417.661 145.294 415.977 145.924 414.104 147.043C414.03 146.492 413.968 146.01 413.869 145.273C412.679 145.854 411.679 146.342 410.748 146.796C409.53 144.304 408.316 141.821 407.1 139.336C407.621 139.54 407.741 139.994 408.029 140.277C408.824 141.056 409.693 142.378 410.524 142.372C412.459 142.359 413.389 143.844 414.817 144.524C416.762 145.451 418.549 146.874 420.891 146.297C420.891 144.659 420.891 143.149 420.891 141.603C423.048 141.388 425.548 143.683 427.083 140.488C424.205 138.339 420.316 138.911 417.737 136.27C421.39 135.41 423.56 138.905 427.125 138.846C427.125 138.117 427.349 137.194 427.064 136.472C426.761 135.702 425.975 135.125 425.321 134.369C427.076 134.929 428.703 135.556 430.388 135.934C431.081 136.09 431.893 135.704 432.65 135.566C432.43 134.918 432.211 134.27 431.97 133.561C432.891 133.609 433.915 133.808 434.89 133.662C435.592 133.558 436.226 132.993 436.892 132.634C436.391 131.975 435.949 131.253 435.361 130.685C435.082 130.416 434.526 130.395 434.088 130.343C432.667 130.178 431.24 130.051 429.768 129.905C429.986 129.395 430.377 128.869 430.379 128.341C430.379 127.982 429.756 127.27 429.544 127.317C427.755 127.709 425.996 128.24 424.247 128.723C423.814 127.435 423.814 127.435 420.737 126.711C420.706 126.238 420.68 125.765 420.636 125.047C419.5 125.471 418.557 125.822 417.908 126.063C416.309 124.177 414.768 122.361 413.167 120.473C413.848 120.201 414.307 120.095 414.681 119.855C415.935 119.054 417.107 118.801 418.325 119.971C418.802 120.429 419.43 120.891 420.05 120.999C420.883 121.143 421.773 120.948 422.638 120.898C422.442 120.165 422.448 119.265 422.008 118.735C421.185 117.741 420.103 116.962 419.027 116.005C419.589 116.064 420.054 116.187 420.502 116.14C421.01 116.086 421.503 115.881 422.002 115.745C421.699 115.262 421.507 114.582 421.073 114.335C419.817 113.619 418.464 113.075 416.823 112.314C418.325 112.086 419.354 111.201 420.659 112.226C421.192 112.646 422.186 112.475 422.972 112.572C422.82 111.894 422.663 111.219 422.528 110.537C422.513 110.46 422.619 110.357 422.608 110.378C424.328 110.661 426 111.052 427.69 111.161C428.379 111.204 429.106 110.634 429.815 110.342C429.348 109.738 429.001 108.915 428.39 108.581C427.328 108 426.102 107.72 424.949 107.316C425.563 106.97 426.757 106.522 426.717 106.288C426.468 104.854 427.749 104.962 428.347 104.44C428.859 103.991 429.62 103.775 430.016 103.26C430.422 102.73 430.72 101.943 430.667 101.301C430.639 100.958 429.775 100.684 429.295 100.384C429.992 99.3485 430.809 98.1308 431.629 96.9112C431.49 96.7802 431.354 96.6491 431.215 96.5199C430.597 96.5769 429.874 96.4458 429.377 96.7232C427.664 97.6787 426.006 98.7406 424.372 99.831C423.105 100.678 421.906 101.63 420.676 102.534C421.627 100.667 422.746 99.0997 423.721 97.445C423.966 97.029 423.746 96.3375 423.74 95.7733C423.177 95.988 422.424 96.0393 422.08 96.4439C419.788 99.1509 417.586 101.934 415.499 104.51C413.518 105.104 411.6 105.68 409.551 106.294C409.452 105.156 410.883 103.676 409.027 102.335C408.118 103.44 407.082 104.434 406.375 105.621C405.299 107.428 404.007 108.507 402.045 107.969C403.409 106.598 404.94 105.182 406.297 103.615C406.654 103.203 406.477 102.327 406.546 101.664C405.931 101.672 405.189 101.457 404.73 101.729C403.759 102.306 402.907 103.102 402.062 103.872C401.254 104.607 400.52 105.424 399.543 106.417C399.463 105.378 399.418 104.761 399.353 103.93C398.604 104.337 398.021 104.652 397.498 104.937C396.373 103.835 393.455 104.574 394.413 101.505C396.65 101.047 397.636 97.7528 400.85 98.6437C400.567 97.6654 400.351 96.9208 400.108 96.0792C403.423 97.7167 406.477 99.6297 410.534 98.6285C409.807 97.4963 409.204 96.5598 408.606 95.6271C410.442 94.5443 408.42 93.4785 408.409 92.8156C410.465 93.3873 412.503 94.0446 414.588 94.4797C415.18 94.6031 415.906 94.0864 416.571 93.8642C416.299 93.2829 416.072 92.6712 415.736 92.1298C415.565 91.8562 415.223 91.653 414.918 91.5067C413.857 90.9976 412.778 90.5284 411.968 90.1617C412.691 89.6526 413.423 88.9764 414.284 88.5812C415.007 88.2488 415.747 88.0645 416.597 88.8662C417.728 89.9357 419.151 90.7373 420.553 91.4459C421.001 91.672 421.782 91.2331 422.41 91.1002C422.01 90.572 421.659 89.9946 421.196 89.5292C420.631 88.9612 419.97 88.4862 419.35 87.9714C421.648 87.8137 423.634 88.1234 425.62 88.1424C426.411 88.15 427.641 87.7074 427.912 87.1185C428.442 85.9654 426.973 85.9977 426.389 85.481C426.33 85.4297 426.347 85.2891 426.33 85.1865C427.593 85.0365 428.882 84.9928 430.111 84.7021C431.02 84.4874 432.359 84.1303 432.202 83.0513C432.101 82.3617 430.923 81.4879 430.1 81.315C427.874 80.8496 425.613 80.9997 423.365 82.168C423.507 81.6684 423.594 81.3378 423.695 81.013C423.799 80.6786 424.048 80.3291 423.998 80.0252C423.926 79.5711 423.736 79.0525 423.416 78.7638C423.283 78.6441 422.625 78.9784 422.312 79.2368C422.014 79.4818 421.864 79.9017 421.636 80.2379C420.932 81.2732 420.93 81.2713 419.69 80.4526C421.107 78.8265 423.232 77.7038 423.613 74.9987C422.803 75.1563 422.09 75.105 421.617 75.4185C419.086 77.0959 416.616 78.8644 414.307 80.4754C414.736 79.1114 415.311 77.4948 415.728 75.8364C415.861 75.3083 415.573 74.6738 415.478 74.0887C415 74.499 414.22 74.8315 414.093 75.3311C413.199 78.855 410.97 80.9313 407.547 81.8678C407.137 81.9799 406.785 82.2953 406.394 82.4909C405.464 82.9563 404.529 83.4065 403.461 83.9308C403.354 83.0874 403.292 82.5916 403.218 82.0084C403.592 82.0084 403.891 82.0825 404.134 81.9951C404.846 81.7405 405.536 81.4214 406.234 81.1269C405.734 80.4317 405.328 79.6243 404.698 79.0772C404.231 78.6707 403.472 78.6042 402.842 78.3857C403.375 77.9317 403.861 77.8101 404.35 77.7189C406.807 77.2649 409.281 76.8812 411.714 76.3246C412.27 76.1973 412.696 75.4887 413.182 75.048C412.622 74.7612 412.057 74.2217 411.503 74.2331C409.606 74.2692 407.714 74.499 405.965 74.6434C407.168 73.194 408.251 71.3817 409.795 70.1602C411.594 68.7392 413.203 67.3886 413.698 64.826C410.34 64.8982 408.363 67.1151 406.098 68.9957C406.098 68.3251 406.098 67.7742 406.098 66.661C404.872 67.4361 403.914 67.9528 403.06 68.6044C402.155 69.2978 401.347 70.1203 400.822 70.5933C399.881 69.0565 399.281 67.0277 397.945 66.2013C396.67 65.4111 394.627 65.8746 392.779 65.7796C393.183 65.4909 393.515 65.0634 393.9 65.0083C395.604 64.7671 397.378 64.8355 399.019 64.389C400.063 64.1041 401.305 63.3043 401.744 62.3887C402.174 61.492 402.305 61.2071 403.339 61.2945C404.946 61.4294 406.612 61.3629 408.234 59.9191C407.052 59.3891 406.176 58.9959 405.208 58.5609C409.004 57.2463 409.05 55.3903 407.411 54.0169C408.627 52.235 410.52 50.8217 410.566 48.0956C406.267 48.9429 404.079 52.2312 401.711 55.1795C401.711 53.7262 401.856 52.3585 401.641 51.0496C401.556 50.5272 400.723 50.0314 400.125 49.7559C399.962 49.68 399.254 50.3904 399.078 50.8482C398.82 51.5245 398.913 52.3319 398.672 53.0195C398.423 53.73 398.088 54.507 397.558 55.0028C396.27 56.2053 394.676 57.1096 393.527 58.4203C392.367 59.7425 391.607 61.4161 390.645 62.9187C390.366 63.3537 390 63.7317 389.797 63.9863C389.797 62.9244 389.797 61.8777 389.797 60.8329C388.66 61.1596 387.526 61.4844 386.385 61.8131C386.044 60.5403 386.084 60.6239 387.387 59.9932C387.953 59.7196 388.309 59.0149 388.761 58.5058C389.334 57.6471 390.144 57.045 390.975 56.4732C391.918 55.8235 392.88 55.2023 394.162 54.3512C392.973 53.6844 392.324 53.3197 391.451 52.8277C392.423 52.5674 393.183 52.463 393.845 52.1495C394.284 51.9406 394.578 51.4296 394.936 51.0534C394.481 50.7837 393.999 50.248 393.578 50.2936C392.22 50.4417 390.884 50.8065 389.467 51.1009C389.73 49.7882 390.093 48.4129 390.243 47.0128C390.296 46.5151 389.838 45.9623 389.615 45.4342C389.091 45.7249 388.319 45.8844 388.089 46.3289C387.499 47.4725 387.152 48.7434 386.7 49.9592C386.583 50.2765 386.441 50.5823 386.184 51.1902C385.887 50.683 385.799 50.4797 385.665 50.3144C384.76 49.2164 383.919 48.0481 382.891 47.0812C382.587 46.7963 381.747 47.0888 381.151 47.1173C381.21 47.6055 381.147 48.1564 381.352 48.5706C381.682 49.2373 382.191 49.8129 382.891 50.8065C381.424 50.191 380.436 49.7749 379.445 49.3589C379.328 49.4957 379.21 49.6344 379.094 49.7712C379.421 50.5025 379.749 51.2339 380.043 51.8893C378.649 52.8106 377.267 53.7224 375.573 54.8413C376.01 53.1563 376.366 51.7715 376.713 50.436C374.581 49.188 374.452 48.0937 376.345 46.9387C378.715 45.495 381.155 44.1501 383.652 42.9419C386.41 41.6064 386.632 41.424 386.533 38.5157C388.586 37.2828 391.315 37.1802 392.87 35.102C392.779 34.8455 392.688 34.591 392.597 34.3345C390.649 34.8208 388.702 35.3071 386.943 35.7478C387.541 34.6973 388.006 33.3543 388.903 32.4367C389.859 31.4584 391.328 30.9607 391.286 29.0515C390.461 29.1218 389.755 29.1807 389.248 29.2244C389.81 27.9155 390.506 26.5725 390.956 25.1496C391.324 23.9889 390.599 23.6603 389.596 24.0402C389.129 24.2169 388.662 24.5284 388.332 24.9027C387.131 26.259 385.989 27.6648 384.877 28.9926C384.856 28.7571 384.896 28.3848 384.779 28.0713C384.596 27.5869 384.308 27.1424 384.063 26.6827C383.589 26.9505 382.969 27.112 382.678 27.5147C382.322 28.0067 382.257 28.7058 382.039 29.3061C381.768 30.0489 381.466 30.7783 381.178 31.5154C381.255 29.572 381.589 27.7389 381.741 25.8924C381.781 25.408 381.257 24.8761 380.992 24.367C380.584 24.8153 380.037 25.199 379.8 25.7252C379.442 26.5193 379.297 27.4121 379.1 28.1321C376.935 27.3247 375.685 28.9015 374.122 29.5398C374.841 28.5842 375.706 27.7825 376.4 26.8517C376.865 26.2305 377.087 25.4289 377.417 24.707C376.755 24.4505 376.091 24.1941 375.539 23.9813C376.448 21.5061 377.417 18.8655 378.537 15.8147C377.161 16.2877 376.038 16.6752 374.797 17.1027C375.96 15.8888 377.068 14.8383 378.032 13.67C378.419 13.2008 378.491 12.4675 378.705 11.8539C377.918 11.7741 377.129 11.6259 376.343 11.6373C375.833 11.6449 375.325 11.8862 374.691 12.0572C375.556 9.29886 376.3 6.94137 374.833 4.16787C373.871 5.33046 373.078 6.28978 372.308 7.22252C371.483 4.83844 371.917 1.91866 369.68 0C369.333 0.421725 368.916 0.710489 368.815 1.08472C367.984 4.15647 367.525 7.2681 367.903 10.4709C367.967 11.018 367.722 11.6012 367.662 11.9432C366.423 11.1624 365.48 10.3095 364.379 9.97512C363.789 9.79656 362.809 10.3741 362.247 10.8813C361.985 11.1187 362.078 12.192 362.391 12.5549C363.512 13.8504 364.831 14.9731 366.007 16.225C366.797 17.0666 367.472 18.0164 368.199 18.9168C368.089 18.9795 367.979 19.0422 367.868 19.1049C366.929 18.4628 365.988 17.8188 365.049 17.1767C364.823 17.3002 364.598 17.4218 364.372 17.5453C365.727 21.6847 366.336 25.938 367.303 30.5428C364.243 28.5861 363.326 25.0033 359.853 24.3764C359.773 24.7621 359.61 25.0699 359.676 25.3149C360.035 26.6428 360.446 27.9364 358.976 28.9413C358.876 29.0097 359.124 29.9938 359.441 30.2084C360.496 30.9246 361.657 31.485 362.907 32.1765C360.999 32.5184 359.301 32.8224 357.164 33.2061C356.153 31.9048 354.899 30.2293 353.573 28.6146C353.117 28.0599 352.531 27.395 351.903 27.264C351.22 27.1215 350.279 27.3551 349.725 27.7845C349.416 28.0238 349.492 29.0496 349.693 29.6119C349.996 30.4554 350.564 31.2038 351.068 32.0777C350.061 32.0777 349.196 32.0777 348.094 32.0777C349.033 34.6593 350.983 35.8333 353.377 37.1118C352.609 37.2391 352.186 37.2714 351.786 37.3835C350.634 37.7045 349.389 38.1528 349.592 39.6023C349.788 40.9966 351.122 40.5122 352.021 40.5521C352.911 40.592 353.92 40.157 354.679 40.4476C356.504 41.1505 358.215 42.1554 360.099 43.1033C358.033 43.3218 357.853 44.8415 357.883 46.3461C356.109 45.4912 354.406 44.6724 352.704 43.8518C352.584 44.0322 352.463 44.2127 352.343 44.3913C352.73 47.3719 355.535 48.5249 357.21 50.3524C356.052 50.5671 354.914 50.7761 353.776 50.9869C353.738 51.2035 353.7 51.4181 353.662 51.6347C354.521 52.2293 355.318 52.9588 356.252 53.3843C357.686 54.0378 358.817 54.7217 358.024 56.7581C357.553 56.4504 357.105 56.1521 356.652 55.8633C355.738 55.282 354.859 54.6172 353.884 54.1631C353.408 53.9428 352.747 54.1195 352.171 54.1176C352.188 54.7634 351.951 55.6164 352.271 56.0134C353.167 57.119 354.282 58.048 355.333 59.0206C355.7 59.3606 356.132 59.6266 356.534 59.9267C356.457 60.0939 356.381 60.2592 356.303 60.4263C355.688 60.2819 354.998 60.2687 354.474 59.9647C353.685 59.505 353.262 59.5468 352.875 60.4282C352.256 61.8302 351.381 61.7314 350.56 60.6182C349.369 59.0035 348.298 57.2976 347.061 55.7228C346.671 55.2269 345.908 55.0256 345.314 54.6913C345.183 55.4264 344.779 56.2471 344.976 56.8759C345.356 58.0765 346.079 59.1669 346.657 60.3048C345.179 59.4518 343.903 58.3519 342.692 57.1836C340.7 55.2631 338.78 53.2703 336.759 51.3821C336.399 51.0458 335.701 51.0762 335.158 50.9375C335.018 51.1294 334.877 51.3213 334.737 51.5131C336.018 53.0708 337.298 54.6267 338.645 56.2661C335.287 55.5746 332.992 52.0279 328.795 52.7593C329.778 54.0454 330.514 55.0066 331.132 55.8158C330.542 56.2775 329.63 56.7543 329.687 56.9937C329.857 57.6984 330.265 58.5609 330.848 58.9104C332.301 59.7804 333.902 60.3997 335.392 61.095C334.449 61.6022 333.399 62.0486 332.5 62.7021C332.077 63.0118 331.942 63.7204 331.677 64.2485C332.252 64.4251 332.882 64.8469 333.392 64.7329C334.982 64.3796 336.526 63.8229 337.928 63.3936C337.867 63.9046 337.943 64.6854 337.655 65.2933C337.342 65.9544 336.596 66.397 336.213 67.041C335.815 67.7096 335.627 68.5018 335.346 69.2408C336.131 69.1781 337.069 69.3681 337.672 69.0033C339.226 68.0649 340.634 66.8814 342.151 65.7568C341.983 66.473 341.819 67.1568 341.654 67.854C342.944 68.3897 344.068 68.8571 345.001 69.2446C344.212 69.824 343.263 70.4395 342.423 71.1784C342.144 71.4235 341.924 72.1036 342.07 72.3695C342.239 72.6773 342.848 72.9147 343.246 72.8881C344.013 72.8387 344.766 72.5804 345.61 72.3904C345.113 73.6879 344.663 74.8581 344.216 76.0302C344.417 76.203 344.616 76.3759 344.817 76.5507C346.386 75.4185 347.953 74.2863 349.403 73.2396C350.135 74.1875 350.877 75.1449 351.492 75.9409C350.12 76.336 348.524 76.5317 347.196 77.2383C345.098 78.3534 345.115 78.4788 343.88 76.3702C343.561 75.8269 343.286 75.2209 342.844 74.7973C342.303 74.2749 341.611 73.912 340.985 73.4808C340.742 74.0697 340.497 74.6586 340.296 75.1449C339.905 74.9416 339.425 74.7726 339.044 74.4763C338.344 73.9349 337.634 73.3782 337.048 72.7209C336.391 71.9858 335.87 71.1328 335.287 70.3312C335.077 70.4053 334.864 70.4793 334.654 70.5534C334.441 71.5318 334.227 72.5101 334.018 73.4694C332.745 71.8585 331.531 70.2571 330.235 68.726C329.91 68.3422 329.237 67.8901 328.88 67.9965C328.503 68.1086 328.313 68.8514 328.083 69.2427C326.926 68.5626 325.74 67.7495 324.452 67.1663C323.949 66.9384 323.215 67.229 322.587 67.2822C322.817 67.8692 322.877 68.688 323.306 69.0014C324.778 70.0804 326.378 70.9828 327.898 71.9345C327.315 72.0808 326.655 72.246 325.995 72.4132C325.9 72.6032 325.805 72.795 325.71 72.985C326.232 73.2073 326.753 73.4314 327.275 73.6537C327.175 73.7639 327.074 73.874 326.974 73.9842C325.695 73.3402 324.458 72.5861 323.128 72.0846C321.817 71.5907 320.43 70.827 318.635 71.9421C319.861 72.9584 320.891 73.8133 321.971 74.708C320.918 75.4584 321.113 76.0111 322.193 76.3873C323.041 76.6817 323.898 76.9515 324.843 77.263C322.836 77.263 321.003 77.1928 319.18 77.3086C318.662 77.3409 318.178 77.9127 317.679 78.2376C318.153 78.6479 318.597 79.3603 319.106 79.4097C320.682 79.5635 322.285 79.4666 323.691 79.4666C323.507 80.0213 323.335 80.5476 323.16 81.0757C323.79 81.1365 324.458 81.3606 325.04 81.2219C326.095 80.9731 327.099 80.5095 328.123 80.1353C328.104 80.2683 328.083 80.4013 328.064 80.5343C329.205 80.7622 330.345 80.9883 331.434 81.2048C331.191 82.2763 330.979 83.2109 330.753 84.2044C329.865 84.837 328.823 85.5779 327.782 86.3206C327.844 86.5068 327.905 86.6929 327.968 86.8772C329.269 86.8772 330.571 86.8772 331.895 86.8772C331.785 87.5744 331.7 88.1082 331.603 88.7161C334.136 89.1853 334.834 86.1782 336.805 86.0566C336.464 87.5706 336.147 88.9726 335.832 90.3726C336.073 90.5113 336.314 90.65 336.553 90.7886C337.264 90.0478 338.256 89.4285 338.632 88.5432C339.49 86.5239 341.269 86.0832 343.011 85.2929C342.781 88.2963 342.831 88.3818 345.045 88.9612C343.698 89.6451 342.351 90.327 341.004 91.0109C341.095 91.2274 341.186 91.4421 341.277 91.6587C343.682 92.504 345.796 90.9216 348.325 90.4638C346.213 91.7879 346.141 91.8904 346.238 93.4443C349.342 92.7073 351.71 90.6709 354.305 89.0562C354.159 89.5349 353.802 89.8103 353.685 90.1655C353.438 90.9178 353.315 91.7138 353.142 92.4907C353.971 92.3672 354.939 92.4736 355.601 92.0709C356.766 91.3623 357.743 90.346 358.885 89.3848C359.547 91.0033 358.441 93.792 361.638 94.2384C361.998 92.2343 361.68 90.0952 363.953 88.8757C361.744 91.746 363.991 94.0446 364.928 96.3337C363.968 96.537 363.345 96.67 362.723 96.801C362.955 97.3652 363.12 97.9712 363.435 98.4804C363.793 99.0579 364.288 99.5499 364.73 100.089C362.843 100.716 360.382 98.4082 358.697 101.356C357.001 100.365 355.111 99.2003 353.157 98.1574C352.668 97.8953 351.619 97.7699 351.45 98.0149C351.122 98.4918 351.205 99.2744 351.178 99.9317C351.169 100.154 351.347 100.384 351.44 100.612C351.33 100.735 351.22 100.861 351.11 100.984C349.854 100.228 348.498 99.5955 347.365 98.6836C345.745 97.3805 344.303 95.8569 342.753 94.4626C341.738 93.5489 341.319 94.2403 341.222 95.1939C341.169 95.703 341.258 96.3547 341.544 96.746C342.432 97.9561 343.445 99.073 344.411 100.226C342.833 99.7892 341.296 99.2041 339.939 98.3322C337.691 96.8865 335.642 95.116 333.341 93.7692C332.291 93.1556 331.229 91.7726 329.487 92.7263C330.482 95.4542 333.181 96.1362 335.077 97.7946C333.018 97.3178 331.026 96.6624 329.015 96.0716C327.209 95.5397 325.386 94.833 323.179 96.0697C324.456 97.1677 325.518 98.0814 326.454 98.8831C325.811 99.4112 324.934 99.8481 324.978 100.154C325.071 100.813 325.556 101.48 326.038 101.997C326.31 102.287 326.884 102.308 327.33 102.418C328.998 102.832 330.667 103.235 332.14 103.594C331.231 104.354 330.191 105.074 329.36 105.986C328.975 106.41 328.996 107.207 328.833 107.836C329.542 107.887 330.375 108.203 330.941 107.941C332.584 107.175 334.12 106.18 335.57 105.348C335.162 106.886 336.177 109.134 334.018 110.131C333.432 110.082 332.546 109.848 332.455 110.028C332.092 110.731 331.978 111.563 331.77 112.359C331.404 112.129 330.869 111.715 330.269 111.446C329.893 111.276 329.214 111.115 329.024 111.307C327.397 112.941 325.936 111.664 324.71 110.898C323.016 109.838 321.606 108.332 320.016 107.093C319.46 106.66 318.73 106.451 318.081 106.14C317.895 106.379 317.709 106.62 317.525 106.86C318.937 108.406 320.348 109.952 321.553 111.273C317.946 111.512 314.435 108.807 310.09 109.601C311.853 112.074 314.272 112.806 316.709 113.666C315.465 115.718 317.326 115.444 318.002 115.748C316.611 116.455 315.103 117.222 313.594 117.99C313.647 118.258 313.702 118.524 313.755 118.792C314.494 118.94 315.269 119.308 315.962 119.189C317.404 118.942 318.781 118.482 319.588 120.275C319.658 120.429 319.971 120.501 320.183 120.56C322.323 121.132 324.465 121.694 326.423 122.209C324.348 123.425 322.217 124.563 320.231 125.915C319.72 126.263 319.667 127.289 319.404 128.001C320.051 128.189 320.775 128.658 321.327 128.506C322.616 128.151 323.873 127.591 325.044 126.937C326.435 126.16 327.723 125.197 329.235 124.196C328.772 125.423 328.408 126.388 328.044 127.353C328.235 127.515 328.427 127.674 328.618 127.836C329.444 127.236 330.383 126.745 331.068 126.014C332.438 124.549 332.904 124.462 334.534 125.826C333.527 126.892 332.457 127.908 331.542 129.048C331.223 129.445 331.284 130.15 331.172 130.714C331.863 130.809 332.715 131.208 333.214 130.94C334.433 130.288 335.49 129.331 336.61 128.491C336.962 128.227 337.304 127.946 337.852 127.513C337.852 128.807 337.718 129.732 337.886 130.598C338.112 131.751 338.241 133.284 339.008 133.888C340.328 134.927 339.801 135.889 339.332 137.3C338.319 136.576 337.737 135.463 336.873 134.652C336.215 134.033 335.198 133.797 334.342 133.39C334.088 134.167 333.84 134.946 333.574 135.721C333.547 135.797 333.432 135.843 333.458 135.822C331.455 135.096 329.863 133.014 327.383 134.614C326.941 133.639 326.605 132.708 326.108 131.875C325.862 131.458 325.323 131.217 324.915 130.896C324.663 131.369 324.223 131.833 324.2 132.317C324.166 133.106 324.403 133.905 324.526 134.699C324.386 134.8 324.245 134.903 324.107 135.003C322.6 133.294 321.103 131.572 319.58 129.878C319.041 129.28 318.476 128.687 317.844 128.195C316.247 126.951 314.835 127.074 313.423 128.579C313.067 127.878 312.735 127.207 312.389 126.542C311.591 125.009 310.838 123.446 309.95 121.966C309.701 121.552 309.045 121.385 308.574 121.103C308.422 121.647 308.073 122.226 308.162 122.726C308.348 123.769 308.703 124.794 309.107 125.778C309.566 126.897 310.156 127.961 310.517 128.698C306.846 127.53 303.607 124.654 299.003 124.719C299.946 128.054 302.573 129.076 304.708 130.336C303.194 132.672 301.179 131.384 299.285 131.13C299.13 131.109 298.963 130.866 298.847 130.898C298.181 131.079 297.242 131.128 296.955 131.58C296.669 132.034 296.787 133.261 297.164 133.531C298.424 134.428 299.813 135.393 301.279 135.683C303.121 136.048 305.091 135.771 307.091 135.771C306.616 137.108 304.212 137.838 305.546 139.982C306.273 139.788 306.969 139.602 307.696 139.409C309.441 141.981 312.088 140.645 314.42 141.076C313.943 141.434 313.399 141.513 312.926 141.741C312.511 141.943 311.959 142.258 311.87 142.623C311.792 142.944 312.177 143.548 312.522 143.768C313.055 144.11 313.729 144.23 314.321 144.437C313.016 144.906 311.731 145.157 310.699 145.812C310.016 146.245 309.695 147.254 309.212 148.005C310.043 148.369 310.898 149.085 311.699 149.027C313.682 148.88 315.639 148.379 317.408 148.058C316.501 148.992 316.554 150.144 317.408 151.705C317.964 152.723 318.125 153.287 319.271 152.746C319.988 152.408 320.722 152.1 321.405 151.703C322.266 151.204 323.086 150.63 323.805 150.166C323.805 151.927 323.703 153.572 323.858 155.193C323.917 155.801 324.575 156.352 324.961 156.929C325.363 156.317 325.981 155.751 326.124 155.083C326.389 153.842 326.376 152.543 326.497 151.048C327.085 152.315 327.524 153.259 328.011 154.308C329.774 152.909 330.798 151.405 330.428 149.53C331.736 149.619 332.931 149.699 334.225 149.788C334.067 152.11 335.557 151.276 337.052 150.774C336.477 151.734 336.04 152.326 335.743 152.982C334.392 155.956 334.53 156.243 337.302 156.635C335.799 157.624 334.255 158.643 332.713 159.659C332.787 159.906 332.859 160.153 332.933 160.4C334.399 160.521 335.864 160.643 337.48 160.776C336.205 162.44 336.304 162.828 337.905 163.546C338.199 163.677 338.518 163.802 338.752 164.013C339.763 164.927 341.015 164.703 341.844 163.61C342.641 162.562 343.61 161.648 344.502 160.673C344.648 160.803 344.794 160.932 344.938 161.061C343.533 162.44 344.407 165.206 341.795 165.896C341.288 166.029 340.734 166.513 340.482 166.986C340.036 167.824 339.727 168.008 338.793 167.506C337.858 167.003 336.714 166.802 335.636 166.682C334.968 166.608 333.938 166.72 333.656 167.144C333.373 167.567 333.771 168.494 333.961 169.174C334.043 169.469 334.348 169.701 334.587 170.006C332.622 170.702 330.981 169.934 329.381 169.209C327.177 168.207 325.05 167.03 322.834 166.053C322.483 165.897 321.842 166.405 321.335 166.606C321.648 167.392 321.749 168.422 322.314 168.914C323.629 170.056 325.167 170.939 326.865 172.096C326.076 172.096 325.499 172.223 325.006 172.075C321.75 171.101 318.523 170.025 315.264 169.068C313.37 168.511 311.445 168.044 309.506 167.687C308.984 167.59 308.362 168.038 307.785 168.236C308.106 168.707 308.326 169.357 308.77 169.615C309.762 170.191 310.843 170.637 311.93 171.015C313.179 171.45 314.471 171.754 315.744 172.115C314.105 172.47 312.539 172.503 310.976 172.459C309.557 172.419 308.102 172.054 306.732 172.273C305.085 172.535 303.14 172.233 301.725 174.178C303.355 174.963 304.875 175.696 306.25 176.357C305.641 177.121 304.829 177.738 304.928 178.105C305.104 178.751 305.783 179.309 306.36 179.769C306.641 179.993 307.164 179.978 307.574 179.959C309.832 179.854 312.09 179.717 314.42 179.586C314.163 179.858 313.839 180.103 313.642 180.426C313.107 181.309 312.536 182.181 312.042 183.087L301.554 189.288L283.625 203.824L265.913 207.622L252.412 208.598L240.099 212.395L225.627 217.059C225.627 217.059 211.694 224.327 210.182 225.087C208.669 225.847 196.897 235.718 196.897 235.718L187.176 251.88L180.156 256.87L175.403 250.904L167.194 245.697L163.198 240.925L156.393 234.849L146.133 227.365C146.133 227.365 135.656 224.435 131.983 223.894C128.31 223.351 118.158 223.026 117.403 223.026C116.646 223.026 110.167 215.325 110.167 215.325L105.414 206.864L93.5338 202.2L90.4014 201.115H81.7614L71.6093 200.682L67.073 198.946C67.073 198.946 63.6162 194.932 63.5081 194.172C63.4 193.412 63.9407 191.786 64.2651 191.026C64.5895 190.266 65.1283 187.772 65.1283 187.772L66.6404 182.565C66.6404 182.565 68.8014 179.636 69.0158 179.094C69.2321 178.551 70.3116 178.986 70.3116 178.986L74.956 180.071L76.0356 177.577V174.539L75.0642 172.478V175.08L74.7397 177.033H72.3644L72.4725 174.431L77.7658 167.922C77.7658 167.922 75.0661 169.007 74.5253 169.44C73.9846 169.873 70.6379 173.238 70.6379 173.238L66.9649 176.275L68.8014 166.296C68.8014 166.296 70.9623 159.137 71.393 157.292C71.8237 155.447 73.2295 153.061 73.2295 153.061V144.6H71.8256L71.0686 150.459C71.0686 150.459 66.6404 153.713 66.6404 153.28C66.6404 152.847 68.477 147.856 68.477 147.856C68.477 147.856 69.1258 142.325 69.1258 141.348C69.1258 140.372 67.3045 141.023 67.3045 141.023V144.386L64.4833 147.098C64.4833 147.098 65.5628 141.567 65.5628 140.698C65.5628 139.83 67.0749 135.167 67.2912 134.3C67.5075 133.436 65.1302 128.548 64.4833 128.332C63.8344 128.115 64.4833 131.802 64.4833 131.802L63.0793 144.277C63.0793 144.277 60.9184 143.301 60.9184 141.348C60.9184 139.395 62.3223 134.3 62.3223 134.3C62.3223 134.3 61.2428 129.2 61.2428 128.656C61.2428 128.115 58.6512 125.511 58.3267 126.054C58.0023 126.597 56.3821 131.044 56.3821 132.129C56.3821 133.214 56.5984 140.482 56.5984 140.482L55.8433 144.929L54.1149 143.193V135.056L52.9272 141.673L52.3865 155.882L49.4704 182.567L45.6892 184.628L40.9367 188.75L36.2922 192.004C36.2922 192.004 30.1357 192.004 28.7318 192.004C27.3278 192.004 20.7387 191.353 20.7387 191.353L17.6064 189.075C17.6064 189.075 14.1496 188.424 13.8252 188.315C13.5007 188.207 10.9091 188.967 10.9091 188.967L9.07259 193.089L0.108142 202.743V210.663L0.863243 209.903C1.18767 209.252 5.61582 204.913 5.61582 204.913L7.88492 198.946C7.88492 198.946 14.474 192.979 14.6903 194.282C14.9066 195.585 30.6745 197.103 30.6745 197.103L17.2819 210.555L0 217.063V316.643H365.497V202.128C365.696 202.31 365.895 202.493 366.096 202.677C367.282 201.664 368.347 200.752 369.007 200.19C369.388 201.45 369.561 203.188 370.439 204.421C370.874 205.03 371.227 205.473 371.232 206.191C371.255 210.156 371.259 214.122 371.293 218.087C371.31 219.933 371.754 220.304 373.746 220.321C375.22 220.334 376.14 219.968 376.04 218.136C375.862 214.937 375.869 211.727 375.856 208.52C375.846 206.147 376.046 203.769 375.943 201.402C375.831 198.828 375.091 196.21 377.161 193.954C377.588 193.954 378.131 193.954 378.616 193.954C378.897 194.757 379.041 195.517 379.413 196.14C379.85 196.873 380.495 198.051 381.031 198.042C382.322 198.021 382.084 196.632 382.193 195.726C382.272 195.059 382.065 194.362 382.02 193.676C381.988 193.186 382.014 192.694 382.014 192.058C382.815 192.493 383.449 192.913 384.137 193.192C385.414 193.71 385.649 194.512 385.092 195.737C384.568 196.885 384.139 198.078 383.72 199.269C383.413 200.143 383.551 201.056 384.414 201.415C384.733 201.548 385.407 200.857 385.898 200.513C386.059 200.401 386.156 200.196 386.232 200.099C386.232 202.447 386.127 204.795 386.302 207.122C386.348 207.722 387.264 208.258 387.782 208.824C388.201 208.349 388.863 207.931 388.99 207.388C389.321 205.967 389.417 204.491 389.624 202.922C389.975 202.922 390.459 202.922 390.998 202.922C391.199 202.445 391.404 201.964 391.686 201.296C392.22 202.81 392.624 204.128 393.142 205.399C394.346 208.349 397.477 208.805 399.541 206.362C400.161 205.629 400.787 204.899 401.286 204.312C402.205 205.534 403.218 206.782 404.117 208.106C405.365 209.947 406.887 210.566 408.872 208.851C408.134 207.401 407.293 205.952 406.663 204.415C406.411 203.798 406.621 202.988 406.621 202.266C406.72 202.276 406.821 202.284 406.919 202.293C407.354 203.355 407.788 204.417 408.221 205.479C408.49 205.492 408.762 205.505 409.031 205.519C409.393 204.443 409.756 203.366 410.169 202.143C411.437 203.499 412.643 204.92 414.002 206.176C414.535 206.67 415.404 206.795 416.119 207.088C416.254 206.172 416.453 205.26 416.493 204.343C416.508 203.999 416.182 203.619 415.96 203.288C415.364 202.396 414.744 201.522 414.311 200.897C414.817 200.023 415.235 199.299 415.609 198.657C418.348 198.545 421.126 198.522 423.738 196.436C419.997 194.571 416.385 195.042 412.641 195.298C413.169 194.664 413.742 194.164 414.049 193.536C414.246 193.131 414.239 192.206 414.007 192.077C411.936 190.91 412.082 188.543 411.074 186.801C412.632 187.861 414.191 188.921 415.899 190.082C416.311 189.235 416.662 188.513 417.07 187.673C417.28 188.671 417.405 189.586 417.686 190.452C417.827 190.887 418.346 191.6 418.532 191.552C419.748 191.241 420.044 192.246 420.661 192.829C420.965 193.116 421.414 193.245 421.799 193.446C421.978 192.994 422.336 192.527 422.298 192.094C422.228 191.321 421.919 190.568 421.731 189.879C423.412 191.438 425.034 193.004 426.736 194.478C427.093 194.788 427.738 194.759 428.25 194.888C428.237 194.292 428.292 193.684 428.184 193.104C428.128 192.816 427.768 192.59 427.563 192.322C426.588 191.039 425.618 189.753 424.662 188.488C425.461 188.161 425.979 187.96 426.487 187.742C427.554 187.282 428.428 186.942 429.531 188.046C430.373 188.891 431.756 189.303 432.974 189.626C433.964 189.888 434.651 189.282 433.983 188.241C433.09 186.847 432.008 185.574 431.113 184.387C431.695 184.387 432.707 184.387 433.815 184.387C433.706 183.845 433.744 183.412 433.579 183.31C432.069 182.371 430.523 181.492 428.988 180.595C430.045 180.284 431.103 180.303 432.147 180.439C433.04 180.557 433.919 180.808 434.803 181C434.537 180.204 434.27 179.408 434.014 178.61C435.938 179.055 437.876 179.586 439.852 179.9C440.396 179.987 441.045 179.419 441.646 179.151C441.354 178.64 441.187 177.919 440.749 177.66C439.537 176.946 438.21 176.425 437.013 175.869C437.567 175.597 438.766 175.255 438.753 174.972C438.683 173.53 439.954 173.699 440.601 173.177C441.13 172.748 441.912 172.579 442.329 172.081C442.747 171.583 443.046 170.81 443.01 170.177C442.978 169.853 442.124 169.571 441.631 169.258ZM409.896 121.252C411.105 122.562 412.313 123.871 413.607 125.275C412.565 126.069 411.716 126.715 410.866 127.363C410.723 127.34 410.581 127.317 410.437 127.294C410.993 125.209 411.539 123.125 409.498 121.472C409.629 121.398 409.761 121.326 409.896 121.252ZM369.223 128.273C369.081 128.212 368.94 128.149 368.798 128.088C369.132 127.325 369.407 126.527 369.815 125.805C370.248 125.038 370.805 124.34 371.335 123.573C371.72 125.395 371.278 126.356 369.223 128.273ZM370.726 72.5576C370.005 74.2236 366.664 74.6206 364.472 72.8767C366.563 72.7703 368.656 72.664 370.726 72.5576ZM367.878 62.3621C368.237 63.9768 368.576 65.5079 368.978 67.3297C366.313 64.8013 365.19 63.6463 367.878 62.3621ZM368.02 49.8452C367.394 50.5215 367.079 50.8615 366.402 51.5948C369.236 51.2947 370.475 52.7365 371.211 54.8072C370.1 54.1252 369.024 53.3729 367.87 52.7726C366.787 52.2084 365.622 51.8038 364.321 51.2586C364.951 49.9744 366.542 50.5899 368.02 49.8452ZM358.181 34.4656C358.255 34.3649 358.329 34.2642 358.403 34.1635C359.682 34.6802 360.961 35.197 362.26 35.7232C361.384 36.2627 360.815 36.6122 360.099 37.0529C359.545 36.3083 358.862 35.3869 358.181 34.4656ZM352.336 86.2712C350.64 87.5155 348.775 87.147 346.938 86.9342C346.43 86.8753 345.587 86.4935 345.557 86.1934C345.5 85.6463 345.806 84.9206 346.206 84.5064C346.644 84.0505 347.359 83.8644 347.987 83.5433C347.921 84.6565 347.862 85.6329 347.803 86.6094C348.039 86.7215 348.272 86.8316 348.507 86.9437C349.549 85.9046 350.59 84.8636 351.653 83.8017C352.514 84.4305 353.288 84.9946 354.117 85.5987C353.501 85.8191 352.823 85.9141 352.336 86.2712ZM353.825 82.6524C356.366 81.9039 358.684 81.1308 360.964 82.7702C359.678 84.5046 357.153 84.4931 353.825 82.6524ZM357.05 79.7003C358.521 78.969 359.705 78.3801 360.889 77.7912C360.964 77.9431 361.04 78.097 361.116 78.249C359.836 78.684 359.519 81.0149 357.05 79.7003ZM356.694 75.1183C355.216 74.955 353.812 74.1134 352.364 73.5682C354.066 72.3068 355.609 71.1651 357.022 70.1184C357.234 70.561 357.542 71.2031 357.849 71.8452C358.477 71.2373 359.236 70.7149 359.699 69.9987C360.217 69.199 360.465 68.2244 360.832 67.3259C364.806 67.9794 364.806 67.9794 365.343 69.0945C363.862 69.7214 362.395 70.4185 360.875 70.9637C359.145 71.5849 359.653 72.4588 360.486 73.4162C360.824 73.8038 361.219 74.1419 361.702 74.6149C359.906 74.8239 358.265 75.2931 356.694 75.1183ZM364.848 81.0813C363.996 81.4936 363.161 82.641 361.94 81.6133C363.161 80.7869 364.235 80.0612 365.311 79.3337C365.431 79.4001 365.548 79.4666 365.668 79.5312C365.402 80.0688 365.271 80.8781 364.848 81.0813ZM361.099 115.893C363.473 115.674 363.778 119.177 366.614 118.305C366.353 117.581 366.28 116.896 365.914 116.461C364.88 115.237 365.311 114.373 366.303 113.412C367.474 112.278 368.531 111.028 369.639 109.827C369.716 109.907 369.794 109.987 369.872 110.066C369.35 110.9 368.809 111.725 368.318 112.578C368.153 112.865 367.965 113.275 368.049 113.55C368.948 116.521 366.878 119.196 367.237 122.105C367.269 122.371 367.242 122.671 367.153 122.923C366.929 123.556 366.654 124.171 366.4 124.794C365.933 124.481 365.423 124.217 365.007 123.845C363.668 122.644 362.363 121.405 360.997 120.138C361.746 120.176 362.486 120.214 363.199 120.25C363.723 118.774 363.067 118.007 361.839 117.587C360.581 117.156 360.543 116.491 361.099 115.893ZM355 146.922C355.155 146.958 355.313 146.992 355.468 147.028C355.973 146.717 356.477 146.403 357.143 145.991C357.263 146.287 357.517 146.92 357.963 148.033C356.633 147.469 355.119 148.954 355 146.922ZM353.341 160.749C353.341 160.018 353.341 159.266 353.341 158.456C353.651 158.952 353.907 159.365 354.144 159.743C353.867 160.064 353.599 160.402 353.341 160.749ZM346.551 164.919C347.16 163.441 347.796 161.902 348.39 160.461C349.137 161.925 351.051 163.213 349.86 165.364C348.809 165.221 347.726 165.077 346.551 164.919ZM361.613 143.7C361.406 143.652 361.202 143.605 360.995 143.557C360.995 142.632 360.995 141.707 360.995 140.507C361.535 140.708 362.105 140.921 362.672 141.132C362.321 141.988 361.968 142.843 361.613 143.7ZM360.336 123.818C360.164 123.949 359.993 124.082 359.82 124.213C359.154 123.341 358.487 122.469 357.821 121.597C358.022 121.447 358.221 121.299 358.422 121.149C359.06 122.04 359.699 122.929 360.336 123.818ZM356.58 109.635C357.115 110.053 357.616 110.444 358.117 110.836C358.09 111.039 358.064 111.24 358.037 111.444C356.984 111.843 355.931 112.243 354.878 112.642C354.793 112.488 354.705 112.335 354.62 112.181C355.229 111.39 355.838 110.6 356.58 109.635ZM338.678 109.546C339.29 108.619 339.806 107.836 340.457 106.852C340.539 108.089 340.605 109.092 340.675 110.152C340.161 109.996 339.529 109.804 338.678 109.546ZM340.873 133.575C340.873 132.786 340.873 131.574 340.873 129.96C341.772 131.278 342.466 132.298 343.163 133.318C343.349 133.271 343.535 133.221 343.72 133.174C343.72 131.89 343.72 130.607 343.72 129.631C344.495 129.631 345.532 129.912 345.802 129.574C346.413 128.808 346.434 127.805 345.658 126.896C345.204 126.365 344.988 125.632 344.508 124.68C345.449 124.612 346.301 124.291 346.838 124.574C347.54 124.945 347.834 125.784 347.213 126.662C347.139 126.768 347.614 127.458 347.953 127.614C348.327 127.785 348.839 127.653 349.505 127.653C348.906 129.025 348.276 130.222 347.873 131.493C347.699 132.044 347.999 132.743 348.082 133.375C348.672 132.993 349.346 132.695 349.828 132.207C350.291 131.738 350.558 131.073 350.909 130.493C350.862 133.227 353.569 133.216 357.771 133.567C356.561 135.182 355.43 136.692 354.178 138.362C352.224 138.423 350.757 136.937 349.086 135.877C348.503 135.507 347.817 135.303 347.175 135.024C346.969 135.655 346.762 136.286 346.498 137.097C344.762 136.008 342.946 134.872 340.873 133.575ZM365.487 162.045V161.851C365.487 161.851 365.298 161.665 364.971 161.372C364.971 159.142 364.971 157.212 364.971 155.265C364.994 155.261 365.138 155.185 365.197 155.229C365.671 155.573 366.131 155.939 366.595 156.298C367.013 155.708 367.707 155.155 367.796 154.517C368.047 152.735 368.047 150.917 368.144 149.125C371.145 151.264 369.967 155.094 371.354 157.708C369.358 159.184 367.531 160.535 365.487 162.045ZM370.678 175.219C370.473 175.175 370.27 175.13 370.065 175.086C369.88 174.064 369.694 173.042 369.489 171.912C370.096 171.99 370.616 172.056 371.481 172.166C371.206 173.217 370.942 174.218 370.678 175.219ZM375.953 35.7022C376.01 36.654 376.057 37.4423 376.127 38.5745C373.997 37.0966 373.997 37.0966 375.953 35.7022ZM374.848 119.023C374.723 118.983 374.6 118.945 374.475 118.906C374.475 118.026 374.475 117.148 374.475 116.058C375.034 116.311 375.412 116.48 375.871 116.687C375.507 117.519 375.177 118.271 374.848 119.023ZM404.618 145.75C404.381 145.077 403.647 144.581 403.119 143.983C404.098 143.78 404.872 143.62 405.836 143.419C406.2 144.156 406.64 145.045 407.079 145.926C406.001 146.967 405.221 147.461 404.618 145.75ZM398.765 124.061C399.376 124.546 400.177 125.182 401.207 126.001C402.165 123.123 399.96 121.711 399.291 119.409C401.1 120.507 402.662 121.455 404.468 122.553C404.817 121.685 405.134 120.898 405.443 120.129C405.914 121.468 406.426 122.923 406.857 124.147C406.418 125.085 405.88 125.934 405.62 126.863C405.151 128.541 404.108 129.483 402.358 129.929C402.719 128.147 401.387 127.984 400.325 127.897C398.528 127.748 396.712 127.857 394.743 127.857C396.245 126.44 397.496 125.26 398.765 124.061ZM401.799 169.972C401.207 169.889 400.38 170.027 400.063 169.687C398.511 168.023 398.577 167.434 400.271 166.023C400.808 166.824 401.427 167.573 401.829 168.424C402.024 168.84 401.821 169.45 401.799 169.972ZM395.87 120.193C396.428 120.995 396.809 121.542 397.211 122.12C396.374 122.532 395.589 122.918 394.322 123.541C394.933 122.215 395.363 121.286 395.87 120.193ZM405.092 93.8053C403.85 93.2525 402.609 92.7016 401.383 92.1564C402.013 91.2787 402.504 91.4345 405.092 93.8053ZM398.902 81.5981C399.714 81.1764 400.913 81.5126 401.941 81.5126C401.986 81.7329 402.032 81.9533 402.078 82.1736C400.251 82.9848 398.423 83.796 396.596 84.609C396.524 84.4552 396.454 84.3013 396.384 84.1474C397.209 83.2698 397.894 82.1205 398.902 81.5981ZM384.352 72.8292C384.798 72.588 385.501 72.5367 385.701 72.1796C386.829 70.1602 388.461 70.732 390.146 71.0834C390.825 71.224 391.576 71.0169 392.293 70.9675C392.058 70.3008 391.821 69.6321 391.607 69.0223C393.193 69.0223 394.995 69.0223 396.974 69.0223C396.775 70.202 396.562 71.4672 396.285 73.1009C395.957 72.5842 395.733 72.3885 395.71 72.1719C395.562 70.6921 394.752 71.0131 393.908 71.4957C393.669 71.6324 393.443 71.8661 393.316 72.1092C392.356 73.9481 391.423 75.7984 390.523 77.567C390.52 77.5594 390.442 77.1889 390.243 76.9021C389.916 76.4329 389.51 76.0188 389.138 75.5818C388.712 76.0586 388.112 76.4709 387.901 77.0294C387.651 77.6886 387.736 78.475 387.67 79.2786C386.938 79.0392 386.22 78.9423 385.678 78.5814C385.241 78.2908 384.87 77.7209 384.724 77.2022C384.236 75.4603 382.739 75.3406 380.794 74.8277C382.236 74.0146 383.287 73.4067 384.352 72.8292ZM393.191 118.355C392.502 119.62 391.844 120.902 391.098 122.133C390.969 122.346 390.468 122.331 390.138 122.422C390.104 122.129 389.931 121.744 390.055 121.557C390.872 120.328 391.755 119.143 392.618 117.942C392.81 118.079 393.001 118.218 393.191 118.355ZM380.775 97.4222C380.117 97.238 379.379 97.3425 378.328 97.3425C378.544 96.8751 378.649 96.1552 378.971 96.0374C380.675 95.4181 380.956 93.8889 381.485 92.485C381.591 92.202 381.897 91.7271 382.02 91.7537C384.128 92.2153 386.224 92.732 388.313 93.2772C388.463 93.3171 388.533 93.6647 388.429 93.4672C387.516 94.208 386.448 94.6393 386.186 95.3649C385.238 98.0055 382.955 98.431 380.794 99.2117C380.796 98.5051 380.923 97.464 380.775 97.4222ZM378.381 67.6564C378.381 65.0805 378.381 62.856 378.381 60.3162C380.563 62.9491 380.622 66.0246 378.381 67.6564ZM385.065 116.989C386.23 117.11 387.395 117.232 388.677 117.365C388.499 118.615 388.338 119.739 388.161 120.972C386.883 119.618 385.803 118.476 384.724 117.333C384.835 117.217 384.951 117.103 385.065 116.989ZM382.479 61.8967C381.595 61.1368 380.855 60.5023 380.1 59.8545C380.557 59.2504 381.183 58.4241 381.809 57.5977C381.807 57.5901 381.804 57.5844 381.802 57.5768C382.684 58.9313 383.253 60.3028 382.479 61.8967ZM382.454 56.5188C382.232 56.8607 382.01 57.2026 381.787 57.5465C381.257 56.0989 380.197 55.7779 378.237 56.4694C379.665 54.9002 380.066 54.9021 382.454 56.5188ZM377.29 131.96C377.412 131.892 377.533 131.821 377.654 131.753C378.134 132.357 378.614 132.963 379.094 133.567C378.609 133.949 378.123 134.331 377.455 134.857C377.385 133.632 377.338 132.796 377.29 131.96ZM382.236 164.176C380.732 163.386 379.332 162.649 378.279 162.096C378.358 160.776 378.427 159.619 378.489 158.586C379.829 159.796 381.36 161.179 383.01 162.668C382.722 163.228 382.47 163.722 382.236 164.176ZM386.691 146.293C384.896 144.893 382.443 144.112 381.028 141.85C382.876 141.612 384.479 141.422 386.076 141.189C386.461 141.132 386.955 141.042 387.171 140.78C387.583 140.28 387.831 139.646 388.148 139.067C387.628 138.782 387.125 138.301 386.587 138.257C385.665 138.181 384.722 138.381 383.788 138.464C383.771 138.343 383.756 138.219 383.739 138.098C384.822 137.355 385.906 136.61 387.253 135.685C387.958 136.428 388.795 137.311 389.73 138.297C388.56 140.043 387.956 141.867 389.393 143.814C390.11 143.518 390.783 143.238 391.457 142.961C391.584 143.041 391.713 143.122 391.84 143.202C391.48 144.091 391.119 144.98 390.702 146.01C390.227 145.47 389.867 145.064 389.478 144.621C388.558 145.174 387.617 145.738 386.691 146.293ZM387.319 150.653C388.285 149.634 389.349 148.512 390.521 147.273C391.895 148.018 392.838 147.18 393.513 145.922C394.13 144.775 394.623 143.559 395.418 141.842C396.613 143.825 398.222 145.394 398.435 147.136C398.687 149.201 398.124 151.659 395.327 152.336C395.211 151.853 395.1 151.395 394.921 150.655C392.443 150.653 389.835 150.653 387.319 150.653ZM396.316 204.859C395.327 202.962 394.415 201.206 393.498 199.445C397.934 201.121 398.41 202.012 396.316 204.859ZM401.472 189.307C399.097 189.495 396.737 189.888 394.361 190.016C393.582 190.057 392.773 189.539 392.043 189.297C392.4 188.367 392.677 187.645 392.963 186.898C395.067 186.816 395.259 186.484 394.688 184.438C394.517 183.826 394.764 183.099 394.841 182.172C396.448 183.665 397.657 184.786 398.866 185.908C399.108 185.764 399.351 185.622 399.594 185.477C399.11 183.464 398.628 181.452 398.145 179.438C398.336 179.347 398.526 179.254 398.718 179.163C399.531 180.542 400.383 181.902 401.123 183.319C401.241 183.543 400.82 184.018 400.721 184.396C400.4 185.616 400.112 186.847 399.75 188.323C402.518 188.332 402.935 186.066 404.307 185.054C404.745 186.693 403.017 189.185 401.472 189.307ZM404.25 192.913C404.688 190.787 407.014 191.794 407.638 190.301C407.276 189.978 406.868 189.615 406.331 189.138C406.731 188.56 407.081 188.057 407.464 187.506C408.325 188.608 409.114 189.617 410.01 190.762C408.046 191.495 406.306 192.145 404.25 192.913ZM433.989 178.564C433.97 178.483 434 178.405 433.989 178.564V178.564Z" fill="#0E1C25"/>
</svg>
