<svg width="389" height="411" viewBox="0 0 389 411" fill="none" xmlns="http://www.w3.org/2000/svg">
<path d="M362.643 171.874L354.161 181.963C352.674 182.257 351.216 182.544 349.763 182.833C350.089 181.817 350.442 181.592 350.78 181.3C351.141 180.988 351.484 180.612 352.11 179.995C346.688 180.249 346.688 180.249 346.303 177.932C347.688 177.692 348.446 176.479 347.999 174.205C349.118 173.821 350.118 173.479 351.239 173.093C351.129 172.109 351.036 171.258 350.979 170.743C352.478 169.19 353.874 167.742 355.271 166.294C355.193 165.953 355.117 165.611 355.039 165.269C353.083 166.008 351.127 166.745 349.171 167.484C349.08 167.221 348.989 166.959 348.898 166.697C350.368 164.266 351.841 161.834 353.311 159.401C353.233 159.271 353.155 159.142 353.078 159.013C350.507 160.605 347.938 162.197 345.327 163.814C345.001 164.551 344.58 165.498 344.159 166.448C344.018 166.236 343.878 166.023 343.738 165.808C343.996 165.354 344.254 164.902 344.523 164.427C344.206 163.956 343.895 163.494 343.535 162.957C346.253 161.553 346.318 161.378 345.282 158.536C350.602 154.017 350.602 154.017 351.569 147.193C350.078 148.857 348.517 150.599 346.925 152.376C346.794 150.446 346.71 149.218 346.583 147.343C346.955 146.728 347.688 145.603 348.365 144.376C348.968 143.282 349.511 142.076 350.082 140.919C349.942 140.712 349.801 140.505 349.663 140.298C348.887 141.473 348.113 142.649 347.574 143.466C346.551 142.56 345.726 141.827 344.644 140.868C345.314 139.431 346.01 137.934 346.709 136.437C345.635 136.158 344.703 137.14 343.863 137C342.375 136.751 342.144 135.395 342.867 132.948C342.865 133.689 342.859 134.43 342.855 135.17C343.091 135.089 343.517 135.049 343.531 134.918C343.605 134.154 343.734 133.191 343.555 132.632C343.299 131.838 342.764 131.388 342.404 130.695C342.076 130.064 341.821 129.302 341.535 128.599C341.671 128.501 341.808 128.402 341.947 128.305C342.612 129.002 343.28 129.697 343.946 130.395C344.159 130.113 344.371 129.832 344.582 129.553C344.13 127.631 343.677 125.71 343.21 123.723C343.396 123.022 343.948 121.778 343.975 120.556C343.992 119.719 343.278 118.907 342.7 117.676C342.723 117.39 342.796 116.413 342.876 115.378C342.305 115.256 341.854 115.159 341.77 115.142C341.19 111.565 340.683 108.444 340.072 104.679C338.607 109.054 337.203 113.246 335.792 117.458C335.395 117.129 334.87 116.696 334.426 116.328C334.267 119.785 334.119 122.973 333.953 126.521C333.654 126.47 333.05 126.018 332.631 126.379C332.085 126.85 331.316 127.973 331.294 128.805C331.221 131.326 331.466 133.843 331.571 136.365C331.576 136.513 331.423 136.702 331.339 136.882C330.982 136.561 330.628 136.242 329.795 135.493C329.979 137.891 330.106 139.545 330.218 141.021C329.273 141.436 328.334 141.848 327.395 142.26C327.425 142.568 327.454 142.875 327.484 143.183C329.647 144.196 329.516 148.134 330.058 151.014C330.218 151.857 329.1 153.645 328.7 154.665C329.142 155.44 329.704 156.422 330.265 157.406C330.167 157.719 330.068 158.033 329.969 158.344C328.032 157.966 326.095 157.59 324.05 157.191C323.837 159.378 324.714 160.335 325.666 161.139C326.871 162.157 328.362 162.611 329.233 164.222C330.121 165.861 330.954 166.577 332.153 166.538C332.445 166.528 332.732 166.881 333.02 167.07C332.969 167.467 332.919 167.864 332.868 168.261C330.07 167.465 327.271 166.669 324.473 165.873C324.361 166.129 324.249 166.386 324.137 166.642C324.676 167.957 325.217 169.271 325.96 171.084C325.154 170.88 324.374 170.755 323.615 170.472C322.855 170.189 322.119 169.748 321.371 169.376C321.35 169.566 321.331 169.758 321.31 169.948C322.033 171.017 322.756 172.085 323.587 173.312C324.999 173.663 326.655 174.077 328.311 174.49C328.364 174.837 328.417 175.187 328.47 175.534C327.668 176.116 326.881 176.815 326.059 177.248C324.786 177.92 322.443 178.272 322.39 179.007C322.185 181.855 321.411 181.98 320.178 182.314C320.595 182.975 321.014 183.636 321.631 184.613C320.322 184.729 319.347 184.816 318.265 184.911C319.026 186.136 319.595 187.056 320.364 188.298C319.185 188.762 318.444 189.054 317.224 189.535C318.258 190.439 318.821 190.933 319.616 191.628C319.584 191.683 319.555 191.737 319.523 191.792L289.395 193.545C289.205 191.704 289.021 189.862 288.85 188.019C288.429 183.483 288.222 178.927 287.917 174.379C287.684 170.894 288.249 167.814 289.852 165.124C290.765 163.595 291.579 161.912 292.231 160.145C293.313 157.222 294.203 154.156 295.223 151.186C296.045 148.8 297.327 147.11 299.28 146.348C300.642 145.816 301.909 144.994 302.807 143.396C303.784 141.658 304.848 140.011 305.857 138.305C306.352 137.469 306.857 136.633 307.271 135.723C307.834 134.481 307.745 133.189 307.108 131.888C306.867 131.398 306.709 130.815 306.593 130.248C306.407 129.342 306.377 128.375 306.125 127.507C305.178 124.251 305.163 121.17 306.436 118.233C306.823 117.342 307.201 116.426 307.46 115.454C307.677 114.643 307.711 113.733 307.825 112.865C307.717 112.817 307.608 112.77 307.5 112.722C307.237 113.051 306.906 113.321 306.719 113.719C305.732 115.8 304.708 117.857 303.858 120.047C303.583 120.758 303.691 121.861 303.81 122.754C303.968 123.924 304.311 125.064 304.573 126.219C305.548 130.512 305.829 134.682 303.651 138.248C303.108 139.137 302.34 139.792 301.621 140.448C300.695 141.289 299.691 141.977 298.765 142.818C298.16 143.367 297.673 144.141 297.067 144.69C296.386 145.309 295.827 144.986 295.717 143.846C295.616 142.811 295.648 141.719 295.792 140.71C296.062 138.82 296.551 137 296.758 135.098C296.9 133.799 297.371 133.174 298.232 133.161C299.693 133.138 301.164 133.278 302.63 133.349C303.103 133.371 303.575 133.387 304.044 133.406C304.038 133.083 304.051 132.991 304.03 132.917C303.996 132.802 303.956 132.659 303.886 132.593C302.401 131.193 300.93 129.747 299.023 129.925C298.246 129.998 297.458 130.003 296.675 129.965C296.354 129.95 295.958 129.857 295.722 129.589C294.999 128.774 294.296 128.719 293.986 129.781C292.95 133.328 291.326 136.614 292.013 140.926C292.199 142.091 291.945 143.717 291.414 144.578C290.678 145.771 289.949 146.675 290.509 148.424C290.564 148.595 290.419 148.899 290.33 149.112C289.97 149.976 289.651 150.888 289.213 151.673C287.701 154.382 286.261 157.094 285.686 160.58C285.454 161.986 284.599 163.113 283.331 163.109C282.094 163.107 281.603 161.826 281.17 160.529C280.685 159.068 280.347 157.495 279.725 156.146C277.964 152.334 277.537 148.208 277.317 143.968C277.133 140.408 277.349 137.131 278.822 134.09C280.753 130.102 284.033 128.166 286.28 124.677C286.714 124 287.68 123.961 288.399 123.619C288.503 123.569 288.596 123.478 288.685 123.413C288.386 122.148 289.75 120.45 292.952 118.051C291.015 116.597 290.201 118.915 289.01 119.795C288.114 118.29 288.148 117.864 289.091 116.723C289.541 116.178 289.96 115.556 290.304 114.882C291.359 112.804 291.77 110.444 291.613 107.842C291.467 105.405 291.372 102.965 291.252 100.528C291.159 100.591 291.066 100.652 290.973 100.714C290.573 100.521 290.084 100.467 289.788 100.112C286.94 96.6947 284.136 93.2088 281.29 89.7856C280.37 88.6781 279.529 87.5459 279.471 85.8191C279.453 85.3138 279.548 84.5843 279.795 84.3735C280.019 84.1816 280.558 84.457 280.892 84.704C281.474 85.1333 281.986 85.3746 282.506 84.6489C280.645 84.1721 280.233 82.9772 281.163 80.8249C281.364 80.3614 281.597 79.9245 281.842 79.5027C283.622 76.4253 284.804 72.9641 285.202 68.9881C285.242 68.5873 285.35 68.1181 285.551 67.8616C286.672 66.4369 287.834 65.0691 288.858 63.8305C288.723 63.3062 288.503 62.7382 288.446 62.1531C288.355 61.2451 288.114 60.9069 287.471 61.2907C287.98 62.8218 287.769 63.8837 286.902 64.4099C286.418 64.7025 285.955 65.0501 285.396 65.4339C285.365 64.938 285.238 64.3776 285.316 63.8951C285.599 62.1417 285.777 60.2915 286.32 58.7033C287.075 56.4997 286.422 54.64 285.695 52.6624C285.551 53.2855 285.506 53.92 285.5 54.5583C285.487 55.8615 285.657 57.2273 285.456 58.4564C285.109 60.584 284.225 62.5065 284.409 64.8412C284.413 64.8811 284.401 64.9247 284.392 64.9646C283.885 67.1473 283.445 69.3661 282.85 71.4957C282.476 72.8349 281.905 74.0716 281.358 75.2969C280.734 76.695 280.007 78.002 279.385 79.4001C278.947 80.3842 278.714 81.5639 278.211 82.4681C276.864 84.894 276.843 86.142 278.353 88.6838C278.786 89.4114 279.266 90.0914 279.858 90.9976C279.15 91.066 278.621 91.0698 278.114 91.1914C277.93 91.2369 277.693 91.5409 277.666 91.7783C277.638 92.0329 277.791 92.3919 277.938 92.6237C278.05 92.8023 278.27 92.8725 278.45 92.9637C279.672 93.5868 280.905 94.1643 282.11 94.8482C282.406 95.0173 282.61 95.5245 282.857 95.8778C282.612 96.1836 282.406 96.6244 282.112 96.7612C281.724 96.9397 281.267 96.877 280.863 96.9169C280.734 96.404 280.725 95.9747 280.561 95.7828C280.019 95.1426 279.461 94.4322 278.822 94.0883C278.624 93.982 277.962 94.871 277.835 95.4561C277.44 97.276 277.078 99.1414 276.934 101.039C276.805 102.741 277.055 104.517 277.002 106.244C276.966 107.458 276.583 108.522 275.642 108.961C275.166 109.183 274.807 109.06 274.792 108.273C274.769 107.158 274.287 106.691 273.564 106.43C272.259 105.961 271.119 105.19 270.563 103.305C270.442 102.891 270.138 102.536 269.878 102.217C268.7 100.764 267.507 99.3314 266.294 97.8611C266.194 98.203 266.093 98.543 266.002 98.847C267.981 101.256 269.823 103.723 271.297 106.694C271.749 107.604 272.618 108.165 273.316 108.847C273.561 109.086 273.866 109.208 274.016 109.305C273.73 111.13 273.352 112.772 273.236 114.466C273.103 116.419 272.453 117.961 271.679 119.445C271.127 120.503 270.531 120.587 269.903 119.544C268.615 117.407 266.949 116.658 265.082 116.18C263.668 115.817 262.285 115.081 260.912 114.417C260.622 114.276 260.248 113.737 260.214 113.357C260.028 111.284 259.988 109.198 259.8 107.124C259.366 102.333 258.891 97.5457 258.383 92.7624C258.332 92.2742 257.941 91.8258 257.709 91.3604C258.032 97.7718 258.978 104.003 258.595 110.505C256.51 106.748 253.78 104.599 250.868 102.774C249.883 102.156 248.927 101.402 248.03 100.56C246.808 99.4112 246.96 96.9112 248.244 96.0735C249.547 95.2262 249.887 94.3657 249.728 92.2058C249.339 92.1925 248.944 92.1773 248.549 92.164C248.606 92.2856 248.661 92.4052 248.718 92.5268C248.233 93.1423 247.806 93.8794 247.25 94.3486C245.239 96.045 245.038 96.7517 245.852 99.9716C245.878 100.076 245.846 100.201 245.829 100.555C244.654 100.236 243.497 100.051 242.391 99.5917C240.981 99.0047 240.31 97.4393 240.471 95.4827C240.518 94.9109 240.63 94.3543 240.737 93.6324C240.154 93.5051 239.591 93.3817 239.141 93.2829C238.97 94.2802 238.961 95.1882 238.67 95.8588C237.965 97.483 237.488 99.1167 238.063 101.102C237.633 101.225 237.289 101.324 236.663 101.503C237.077 101.879 237.265 102.149 237.481 102.225C238.001 102.409 238.534 102.557 239.065 102.627C243.694 103.243 248.085 105.279 252.412 107.688C252.57 107.775 252.712 107.918 252.862 108.034C246.261 109.561 239.708 111.117 232.899 108.625C233.313 109.05 233.724 109.354 234.161 109.523C239.02 111.4 243.88 112.15 248.811 111.138C250.782 110.733 252.85 110.952 254.877 110.927C255.097 110.925 255.412 111.098 255.541 111.33C256.197 112.506 257.034 113.636 257.37 114.956C257.749 116.447 258.385 117.167 259.367 117.657C262.213 119.076 265.038 120.581 267.899 121.922C269.565 122.703 270.303 124.244 270.47 126.438C270.561 127.636 270.216 128.087 269.383 127.617C266.734 126.124 263.87 125.475 261.394 123.303C260.927 122.895 260.384 122.661 259.83 122.317C259.565 124.95 261.348 123.879 261.976 124.926C261.502 125.095 261.048 125.258 260.523 125.446C260.713 125.946 260.853 126.314 261.024 126.764C261.589 126.542 262.109 126.307 262.646 126.143C262.864 126.077 263.169 126.05 263.342 126.206C265.255 127.925 267.385 128.565 269.554 128.938C270.791 129.15 271.572 129.977 272.109 131.498C273.525 135.505 274.071 139.555 272.872 143.603C271.954 146.705 272.599 149.277 274.32 151.648C274.614 152.053 274.927 152.459 275.147 152.93C275.416 153.51 275.651 154.14 275.805 154.783C276.059 155.846 276.287 156.929 276.427 158.02C276.498 158.578 276.351 159.169 276.304 159.744C275.852 159.562 275.213 159.568 274.984 159.163C273.904 157.26 272.487 156.078 270.982 154.946C269.618 153.918 269.163 152.448 269.52 150.341C269.857 148.35 270.371 146.426 270.832 144.486C271.085 143.426 271.388 142.391 271.66 141.378C269.757 139.532 269.664 139.217 269.036 142.437C269.021 142.516 269.024 142.604 269.015 142.687C268.905 143.768 268.842 144.868 268.675 145.928C268.305 148.261 267.729 148.677 266.023 147.959C265.568 147.767 265.116 147.55 264.661 147.355C262.849 146.578 261.012 146.164 259.161 146.449C257.705 146.673 256.432 147.389 255.632 149.141C256.713 150.427 256.681 150.218 257.899 149.954C260.062 149.482 262.265 149.256 264.46 149.008C264.981 148.949 265.499 149.268 265.638 150.237C265.44 150.326 265.306 150.406 265.162 150.447C262.904 151.124 260.644 151.787 258.39 152.48C258.064 152.581 257.721 152.74 257.466 153.01C257.208 153.286 257.053 153.732 256.852 154.102C256.924 154.215 256.998 154.328 257.07 154.441C257.853 154.237 258.629 153.988 259.421 153.842C260.088 153.719 260.79 153.536 261.445 153.704C262.192 153.895 262.891 154.442 263.467 153.381C263.538 153.251 263.881 153.335 264.08 153.415C265.871 154.144 267.514 155.337 268.52 157.545C269.512 159.727 270.876 161.099 272.546 162.015C274.697 163.192 276.532 165.067 278.19 167.214C278.924 168.164 279.645 169.497 279.846 170.768C280.258 173.392 280.417 176.091 280.495 178.754C280.618 182.915 280.495 187.069 280.651 191.229C280.685 192.168 280.734 193.106 280.791 194.045L275.813 194.335C275.813 194.335 268.036 194.335 264.148 194.011C260.261 193.686 249.568 196.613 249.568 196.613C249.568 196.613 244.061 204.423 241.144 207.677C238.228 210.931 231.747 215.161 225.591 217.439C219.434 219.717 219.759 224.599 219.759 224.599L207.121 234.036L191.892 239.568C191.892 239.568 181.199 233.06 177.634 230.456C174.07 227.851 162.73 219.751 162.73 219.751L145.233 203.119L135.189 194.658L121.581 194.333L115.424 182.618C115.424 182.618 117.044 172.856 117.693 169.927C118.342 166.997 121.581 158.432 121.581 158.432L115.424 151.703C115.424 151.703 105.703 143.567 103.111 142.266C102.764 142.091 102.308 141.869 101.777 141.612L102.369 141.23L101.878 139.692C101.878 139.692 100.73 138.977 100.402 138.922C100.074 138.867 97.9942 138.539 97.831 138.539C97.6678 138.539 96.0799 136.451 96.0799 136.451C96.0799 136.451 94.7119 134.418 94.6569 134.116C94.6019 133.814 93.9455 124.147 93.9455 124.147L93.8904 120.081L95.3665 118.049L96.133 115.412L96.078 112.061C96.078 112.061 95.0383 109.369 94.9301 108.985C94.8201 108.602 94.9851 107.337 94.9851 107.337C94.9851 107.337 95.6416 105.634 95.8598 105.304C96.078 104.973 97.2277 102.722 97.2277 102.722L96.8995 100.965L98.5406 99.4815L99.087 97.5039L99.7434 91.406L98.8138 89.9775L98.9238 87.8897L99.5252 84.0999L99.142 79.706C99.142 79.706 102.041 79.4305 102.369 79.3754C102.697 79.3204 106.471 78.8815 106.471 78.8815L109.37 77.6734C109.37 77.6734 110.465 74.9815 109.861 72.1245C109.26 69.2674 107.892 66.302 107.892 66.302L106.962 64.049L106.907 61.1368C106.907 61.1368 106.797 59.9286 106.306 60.0388C105.815 60.149 106.143 59.1042 105.539 59.3796C104.938 59.6551 104.282 59.6 104.282 59.6L103.735 58.502C103.735 58.502 103.134 57.8979 103.134 58.0632C103.134 58.2284 102.696 58.8876 102.532 58.8876C102.369 58.8876 100.563 58.3937 100.563 58.3937L99.5784 58.0347L97.8272 58.2835L97.2258 58.559L97.0076 54.165L96.1045 53.2589L95.8579 53.012C95.8579 53.012 94.71 53.8364 94.4349 53.8364C94.1617 53.8364 92.9589 53.3425 92.9589 53.3425C92.9589 53.3425 90.9896 52.8486 90.5513 53.012C90.113 53.1772 87.7074 53.5059 87.7074 53.5059C87.7074 53.5059 87.8705 54.8793 87.7074 55.208C87.5442 55.5366 87.7074 57.461 87.7074 57.461C87.7074 57.461 87.5613 58.3956 87.6353 58.6691C87.7073 58.9446 86.2863 59.2732 86.2863 59.2732L85.5198 59.8222C85.5198 59.8222 85.4098 60.7018 85.4648 60.9753C85.5198 61.2508 85.4496 61.5243 85.4496 61.5243L84.6983 61.6345C84.6983 61.6345 84.3701 61.7998 84.3701 62.0733C84.3701 62.3488 84.3701 62.9529 84.3701 62.9529L82.674 63.3917H82.4008L81.7443 64.7101C81.7443 64.7101 81.0329 65.5896 80.5965 65.8632C80.1582 66.1386 79.5568 66.9061 79.3937 67.2366C79.2305 67.5672 77.9176 67.9509 77.9176 67.9509L76.7698 68.006L75.4569 69.5447L74.199 71.4121C74.199 71.4121 73.5426 72.8406 73.3244 73.061C73.1062 73.2813 72.2847 73.6651 72.1216 73.7752C71.9584 73.8854 72.1216 74.7099 72.1216 74.7099V75.6996C72.1216 75.6996 71.0268 76.4139 70.9737 76.6893C70.9187 76.9648 70.9187 78.0628 70.9187 78.5016C70.9187 78.9404 71.1919 81.1383 71.1919 81.524C71.1919 81.9077 71.2469 83.3913 71.2469 83.6668C71.2469 83.9422 71.4101 85.4791 71.4101 85.4791C71.4101 85.4791 71.4651 87.0178 71.3 87.2913C71.1369 87.5668 71.245 89.1036 71.245 89.1036L72.0646 90.4771L73.6507 92.4546C73.6507 92.4546 76.988 94.9812 78.1908 95.1464C79.3937 95.3117 80.3233 96.026 80.3233 96.026C80.3233 96.026 80.5415 95.5321 80.7616 95.5872C80.9797 95.6423 81.6362 96.026 81.6362 96.1913C81.6362 96.3565 81.8544 97.4545 82.0194 97.7851C82.1845 98.1156 83.4424 99.1585 83.4424 99.1585L83.3873 100.697C83.3873 100.697 83.2242 101.301 83.5505 101.467C83.8787 101.632 84.5902 101.797 84.5902 101.797C84.5902 101.797 85.0285 102.787 85.0285 103.171C85.0285 103.554 85.4117 105.203 85.4117 105.203C85.4117 105.203 85.3567 107.236 85.3567 107.401C85.3567 107.566 84.5902 112.785 83.2242 114.542C81.8563 116.299 80.7635 123.001 80.7635 123.001L80.8735 125.913L80.8185 128.221C80.8185 128.221 80.3271 131.244 80.3271 131.848C80.3271 132.108 80.1848 133.066 80.0216 134.069C76.9159 133.706 74.273 133.491 74.273 133.491C74.273 133.491 65.5249 139.023 63.9046 139.35C62.9883 139.534 56.5851 140.446 51.1912 141.204C51.5593 138.254 53.6349 139.731 54.7049 138.565C55.109 135.419 55.5169 132.23 56.0482 128.096C55.0274 129.576 54.3008 130.628 52.8855 132.68C53.6823 127.788 55.0787 123.237 51.9653 121.026C51.9653 122.397 51.9653 123.782 51.9653 125.404C50.1478 123.782 48.5882 122.389 47.0287 120.997C45.8221 119.323 49.2959 115.767 46.0346 114.411C47.5922 109.206 51.6067 116.164 52.6085 108.454C50.2578 109.033 47.9754 109.597 45.6911 110.159C46.0877 108.697 46.5715 108.355 47.0306 107.92C47.5201 107.454 47.9849 106.9 48.8292 105.982C41.1605 106.702 41.1605 106.702 40.4624 103.44C42.4089 103.009 43.405 101.237 42.6233 98.0434C44.1866 97.4241 45.5792 96.8732 47.1444 96.254C46.9244 94.8653 46.7346 93.6647 46.6208 92.9409C48.6433 90.6385 50.5272 88.4938 52.4112 86.3491C52.2803 85.8685 52.1474 85.3898 52.0165 84.9092C49.2921 86.0851 46.5677 87.2629 43.8451 88.4387C43.6991 88.074 43.553 87.7074 43.4069 87.3426C45.3326 83.7979 47.2583 80.2531 49.184 76.7083C49.0644 76.5298 48.9468 76.3512 48.8273 76.1745C45.2889 78.6004 41.7487 81.0282 38.1553 83.4939C37.7417 84.5596 37.2067 85.9331 36.6736 87.3065C36.4611 87.014 36.2486 86.7214 36.0361 86.427C36.3719 85.7678 36.7077 85.1067 37.0587 84.4172C36.5787 83.7713 36.1082 83.1368 35.5599 82.3997C39.3221 80.2303 39.4037 79.9796 37.7455 76.0169C44.9892 69.2579 44.9892 69.2579 45.9131 59.5183C43.9077 61.9765 41.8094 64.5486 39.6693 67.172C39.3563 64.4441 39.1571 62.7097 38.8554 60.0616C39.343 59.165 40.3068 57.5218 41.1852 55.7361C41.9688 54.1461 42.6594 52.3984 43.3917 50.721C43.1792 50.4379 42.9667 50.153 42.7561 49.8699C41.7335 51.5872 40.7128 53.3064 40.0013 54.4994C38.493 53.2817 37.275 52.2996 35.6775 51.0078C36.5313 48.9277 37.423 46.7583 38.3128 44.5907C36.7722 44.2659 35.5163 45.7192 34.3153 45.5767C32.1904 45.3221 31.773 43.4149 32.6363 39.8986C32.6818 40.9491 32.7235 41.9996 32.7653 43.052C33.0935 42.9191 33.6968 42.8355 33.7063 42.6474C33.7613 41.5589 33.8809 40.1854 33.5906 39.4047C33.177 38.2953 32.3877 37.695 31.8299 36.7338C31.3234 35.8618 30.9136 34.798 30.462 33.8197C30.6499 33.6715 30.8377 33.5233 31.0255 33.3733C32.0159 34.3155 33.0081 35.2596 33.9985 36.2019C34.2812 35.7896 34.562 35.3774 34.8446 34.9652C34.0782 32.2715 33.3098 29.5758 32.5167 26.7909C32.7349 25.7841 33.435 23.9851 33.3914 22.2507C33.361 21.0615 32.2967 19.9598 31.3955 18.252C31.4088 17.8435 31.4505 16.4549 31.4941 14.9807C30.6764 14.8459 30.0295 14.7395 29.9099 14.7205C28.8513 9.68827 27.9292 5.29816 26.8155 0C25.0245 6.29928 23.3113 12.3345 21.5868 18.4001C21.0024 17.9613 20.2302 17.38 19.5757 16.888C19.5757 21.7986 19.5757 26.3293 19.5757 31.3691C19.1469 31.3159 18.2609 30.7137 17.6917 31.2551C16.948 31.9599 15.933 33.6012 15.9539 34.7847C16.0165 38.3637 16.5287 41.9141 16.8418 45.4836C16.8607 45.6926 16.6558 45.9699 16.5477 46.2321C16.0203 45.8008 15.4966 45.3715 14.2691 44.3666C14.6865 47.7518 14.9749 50.0922 15.2329 52.1742C13.9219 52.8239 12.6166 53.4698 11.3132 54.1176C11.3758 54.5526 11.4384 54.9876 11.501 55.4207C14.6334 56.7144 14.7055 62.3051 15.6636 66.3495C15.9444 67.5349 14.4778 70.1431 13.9769 71.6172C14.6543 72.6867 15.5156 74.0431 16.375 75.3976C16.2555 75.8478 16.1379 76.298 16.0184 76.7482C13.2484 76.3417 10.4784 75.9352 7.551 75.5039C7.39543 78.6175 8.69883 79.915 10.1009 80.994C11.8748 82.3579 14.0187 82.9012 15.36 85.1276C16.726 87.392 17.9535 88.3533 19.6516 88.2165C20.0671 88.1842 20.494 88.6667 20.9151 88.9137C20.8696 89.4798 20.8241 90.0458 20.7785 90.6119C16.7583 89.6697 12.738 88.7256 8.7197 87.7833C8.57741 88.1538 8.43701 88.5261 8.29472 88.8965C9.14658 90.724 9.99844 92.5515 11.1709 95.0704C10.0136 94.8349 8.89994 94.7095 7.80713 94.36C6.71053 94.0085 5.63669 93.433 4.55147 92.9561C4.53629 93.2278 4.51922 93.4994 4.50404 93.7711C5.59875 95.2376 6.69535 96.7061 7.95322 98.3911C9.97757 98.7957 12.3529 99.2725 14.7282 99.7474C14.8269 100.238 14.9237 100.728 15.0223 101.218C13.9219 102.094 12.8519 103.138 11.7173 103.807C9.9567 104.846 6.6574 105.498 6.63084 106.543C6.52649 110.593 5.43748 110.822 3.711 111.377C4.34657 112.287 4.98214 113.195 5.92317 114.54C4.07526 114.791 2.69787 114.979 1.17249 115.186C2.32981 116.873 3.19874 118.14 4.37123 119.848C2.73202 120.583 1.69803 121.048 0 121.81C1.52538 123.024 2.35827 123.685 3.52886 124.618C2.75858 126.12 2.2672 127.239 1.69044 128.172C-0.324427 131.426 -0.233359 134.262 1.94277 136.926C2.51763 137.629 2.93313 138.763 3.45297 139.638C4.65202 141.658 5.87005 143.639 7.33661 146.059C7.42768 146.869 7.64966 148.819 7.88112 150.858C9.15986 149.95 10.1597 149.241 11.7287 148.128C11.1064 150.565 10.7915 151.804 10.4746 153.042C10.5771 153.17 10.6776 153.299 10.7801 153.426C11.2696 152.45 11.761 151.473 12.167 150.664C12.7343 151.2 13.5539 152.322 13.7094 152.066C14.8819 150.119 15.9254 147.902 17.0106 145.769C16.9234 144.986 16.8361 144.205 16.7469 143.423C18.3671 144.433 19.9874 145.442 21.6095 146.452C21.5659 146.908 21.5241 147.364 21.4805 147.82C22.4253 146.964 23.3721 146.109 24.6679 144.935C24.6679 149.615 24.7438 153.85 24.647 158.069C24.5578 161.876 24.2638 165.669 24.1575 169.473L22.7668 169.938V410.429H388.264V177.081L362.643 171.874ZM275.691 132.999C275.217 130.89 274.828 128.947 274.339 127.044C273.583 124.111 273.804 121.331 274.545 118.603C274.8 117.667 275.12 116.765 275.329 115.807C275.877 113.296 276.784 111.199 278.427 109.721C279.992 108.311 280.351 106.185 279.715 103.706C279.178 101.609 279.425 99.7512 280.343 98.1023C280.489 97.8402 280.886 97.6787 281.15 97.7281C282.294 97.9466 283.43 98.2657 284.57 98.5373C286.071 98.8945 287.137 100.11 287.824 101.89C288.446 103.499 288.993 105.169 289.467 106.86C290.061 108.972 289.712 110.101 288.16 110.731C286.881 111.252 286.433 112.316 286.24 114.042C286.01 116.098 285.538 118.1 285.045 120.059C284.576 121.92 283.531 123.147 282.184 123.837C280.81 124.54 279.833 125.775 279 127.386C277.981 129.361 276.786 131.164 275.691 132.999ZM97.4914 60.3048C97.7646 60.1395 97.9297 59.9742 97.9297 59.9742L98.6411 61.1824L97.4933 61.6212C97.4933 61.6212 97.1651 61.2907 97.1651 61.1273C97.1632 60.9639 97.2182 60.47 97.4914 60.3048ZM97.055 67.721L98.8062 67.0068C98.8062 67.0068 99.3526 66.8415 99.8155 66.3476C100.278 65.8537 99.5727 66.0721 99.5727 66.0721C99.5727 66.0721 98.8612 66.2374 98.698 66.2374C98.5349 66.2374 97.9866 66.2374 97.7684 66.1823C97.5502 66.1272 96.8388 66.1272 96.4005 66.0721C95.9622 66.017 96.2904 65.6884 96.2904 65.6884C96.2904 65.6884 95.9072 65.0292 95.9622 64.6455C96.0172 64.2618 96.1804 64.0414 96.5086 63.7659C96.8368 63.4905 98.3679 62.8864 98.3679 62.8864C98.3679 62.8864 98.9143 62.666 99.2976 62.4476C99.6808 62.2291 100.392 61.8986 100.392 61.8986L101.65 61.9537L102.908 63.2169C102.908 63.2169 103.018 64.2067 102.908 64.4251C102.798 64.6436 102.908 65.468 102.908 65.468L103.291 66.566C103.291 66.566 103.291 67.609 103.291 67.8293C103.291 68.0497 102.908 68.9273 102.908 68.9273L103.674 69.862V71.4558L103.128 71.7312C103.128 71.7312 101.98 71.7863 101.542 71.7312C101.104 71.6761 100.722 71.7312 100.502 71.4558C100.284 71.1803 99.3545 71.4558 99.3545 71.4558L99.1363 70.5762C99.1363 70.5762 98.6449 70.3559 98.4248 70.3559C98.2048 70.3559 97.7134 70.2457 97.7134 70.2457C97.7134 70.2457 97.4952 69.9151 97.3301 69.8069C97.167 69.6967 96.1273 69.6416 96.1273 69.6416L95.6359 69.0926L97.055 67.721ZM47.171 139.916C47.4859 140.459 47.7857 141.05 48.0949 141.616C47.6472 141.679 47.2203 141.738 46.82 141.795C46.8048 141.202 46.9319 140.613 47.171 139.916ZM41.6292 141.749C42.3217 141.219 42.9326 140.332 44.2891 138.812C43.959 140.239 43.6725 141.356 43.4391 142.319C43.1356 142.754 41.2326 145.472 39.9748 147.402C39.5194 147.049 39.1703 146.637 39.0774 146.078C38.5424 142.843 40.4377 142.665 41.6292 141.749ZM41.2137 163.738L29.373 167.702C29.2288 162.697 29.2326 157.647 29.4356 152.659C29.5855 149.006 30.7314 147.003 32.9645 148.538C33.5356 148.932 34.653 148.935 34.8864 148.31C36.334 144.427 37.2143 147.14 38.18 149.044C38.8896 150.446 39.3904 151.27 39.9027 151.545C41.4224 153.884 44.1316 156.906 44.1316 156.906L41.2137 163.738ZM86.2787 132.545C86.2237 132.215 85.8955 131.721 85.8955 131.721C85.8955 131.721 86.2787 130.678 86.4419 130.182C86.6051 129.688 86.9143 128.919 86.9143 128.919C86.9143 128.919 86.662 128.039 86.9352 127.766C87.2084 127.49 86.8251 126.723 86.9352 126.282C87.0452 125.841 87.7017 126.282 87.7017 126.282C87.7017 126.282 87.3734 127.272 87.7017 127.821C88.0299 128.37 88.1399 130.951 88.1399 130.951V135.396C87.6372 135.256 87.0433 135.121 86.3888 134.992C86.4438 134.471 86.4438 133.808 86.4438 133.808C86.4438 133.808 86.3338 132.876 86.2787 132.545ZM350.511 186.304C350.363 186.129 350.154 185.971 349.866 185.834C350.423 184.244 351.239 184.328 352.059 184.461L350.511 186.304Z" fill="#08262B"/>
</svg>
