<svg width="366" height="356" viewBox="0 0 366 356" fill="none" xmlns="http://www.w3.org/2000/svg">
<path d="M357.388 90.6461C357.388 90.6461 343.13 84.7876 339.243 86.4156C335.356 88.0436 283.762 124.046 283.762 124.046C283.762 124.046 249.811 124.49 246.248 123.841C242.683 123.189 238.471 120.912 236.527 118.959C234.582 117.006 230.37 103.233 230.37 103.233C230.37 103.233 228.101 100.41 225.509 98.1327C222.918 95.855 220.649 95.855 220.649 95.855C220.649 95.855 217.733 89.6716 216.112 89.0219C214.492 88.3722 209.956 87.7207 205.744 87.0691C203.524 86.7253 202.744 86.7442 202.503 86.8392V83.4901L201.208 78.2832C201.208 78.2832 196.671 76.0054 196.347 75.029C196.022 74.0526 197.643 73.0762 197.643 73.0762L199.587 66.8928C199.587 66.8928 202.503 58.4317 202.503 57.1304C202.503 55.8291 199.587 50.947 199.587 50.947C199.587 50.947 194.727 46.3916 193.755 46.3916C192.784 46.3916 172.045 48.3445 172.045 48.3445C172.045 48.3445 155.845 53.2266 154.871 53.2266C154.659 53.2266 152.726 53.7205 149.832 54.4937C153.293 51.553 153.306 51.4656 153.961 46.8608C152.936 48.0044 151.862 49.2012 150.768 50.4227C150.677 49.0948 150.62 48.2514 150.532 46.9634C150.789 46.5398 151.291 45.7666 151.756 44.9232C152.172 44.1709 152.544 43.3408 152.936 42.5467C152.839 42.4042 152.745 42.2618 152.648 42.1193C152.115 42.9266 151.582 43.7359 151.212 44.2963C150.51 43.6732 149.942 43.1698 149.197 42.5087C149.658 41.5209 150.136 40.4913 150.616 39.4636C149.878 39.2717 149.237 39.9461 148.66 39.8511C147.637 39.6801 147.478 38.7474 147.975 37.0662C147.973 37.5753 147.969 38.0844 147.967 38.5954C148.129 38.5384 148.423 38.5118 148.432 38.4207C148.483 37.8944 148.573 37.2334 148.449 36.8496C148.275 36.3044 147.905 35.9948 147.658 35.518C147.432 35.0848 147.258 34.5605 147.06 34.078C147.155 34.0096 147.248 33.9431 147.343 33.8748C147.802 34.3535 148.26 34.8322 148.719 35.3109C148.865 35.1171 149.011 34.9253 149.157 34.7315C148.846 33.4112 148.535 32.0891 148.214 30.7232C148.341 30.2407 148.721 29.3859 148.74 28.5462C148.751 27.9706 148.261 27.414 147.863 26.5668C147.878 26.3692 147.929 25.6986 147.984 24.9863C147.592 24.9027 147.281 24.8362 147.224 24.8248C146.825 22.3666 146.476 20.22 146.057 17.6307C145.049 20.6379 144.084 23.5197 143.114 26.4167C142.841 26.1906 142.481 25.8924 142.175 25.6397C142.065 28.0162 141.963 30.2084 141.851 32.6476C141.644 32.6115 141.23 32.3018 140.942 32.5488C140.566 32.8736 140.039 33.6449 140.022 34.2167C139.972 35.9492 140.141 37.6798 140.211 39.4142C140.215 39.5168 140.111 39.6459 140.052 39.7694C139.807 39.549 139.563 39.3287 138.992 38.8158C139.119 40.4628 139.204 41.6026 139.282 42.6151C138.633 42.9 137.988 43.1831 137.341 43.4661C137.362 43.677 137.383 43.8898 137.402 44.1006C138.889 44.7978 138.798 47.5048 139.172 49.4824C139.282 50.0618 138.513 51.2908 138.236 51.9937C138.54 52.5256 138.927 53.2019 139.312 53.8782C139.244 54.0929 139.177 54.3094 139.109 54.5241C137.777 54.2638 136.445 54.0055 135.04 53.73C134.894 55.2326 135.497 55.8899 136.149 56.4446C136.722 56.9291 137.388 57.2273 137.944 57.7326C132.727 59.1688 127.291 60.6771 123.216 61.8093C123.442 61.2261 123.47 60.6581 122.379 60.2876C123.586 57.82 126.235 61.3173 127.107 57.6186C125.451 57.8219 123.842 58.0214 122.233 58.2189C122.543 57.5236 122.89 57.3755 123.22 57.1779C123.573 56.9689 123.909 56.7144 124.521 56.2984C119.145 56.3971 119.145 56.3971 118.729 54.7957C120.099 54.6514 120.835 53.825 120.361 52.2559C121.467 52.007 122.453 51.7867 123.561 51.5378C123.44 50.8577 123.334 50.2726 123.269 49.9174C124.736 48.8688 126.1 47.8924 127.464 46.9178C127.382 46.6823 127.301 46.4448 127.221 46.2093C125.29 46.6899 123.36 47.1705 121.429 47.6492C121.334 47.4668 121.241 47.2864 121.146 47.104C122.571 45.4513 123.998 43.7986 125.423 42.1459C125.343 42.0566 125.265 41.9654 125.185 41.8761C122.658 42.9342 120.129 43.9943 117.56 45.0695C117.247 45.571 116.843 46.2188 116.439 46.8665C116.297 46.7184 116.155 46.5683 116.012 46.4201C116.261 46.1124 116.511 45.8027 116.773 45.4817C116.452 45.153 116.137 44.832 115.771 44.4559C118.45 43.5288 118.513 43.4092 117.443 41.4392C122.658 38.4055 122.658 38.4055 123.521 33.7228C122.064 34.8474 120.541 36.0233 118.985 37.222C118.828 35.8922 118.727 35.0468 118.575 33.7551C118.936 33.3371 119.647 32.5735 120.302 31.7376C120.884 30.993 121.408 30.1704 121.956 29.382C121.814 29.2377 121.672 29.0933 121.531 28.9489C120.778 29.7468 120.025 30.5446 119.503 31.0993C118.475 30.4611 117.648 29.9463 116.559 29.2681C117.202 28.2897 117.873 27.2696 118.545 26.2495C117.475 26.0424 116.564 26.7054 115.728 26.5953C114.248 26.4034 113.999 25.465 114.68 23.7933C114.688 24.3024 114.694 24.8134 114.699 25.3225C114.933 25.2693 115.356 25.2484 115.367 25.1572C115.43 24.6329 115.545 23.9718 115.36 23.5843C115.096 23.0334 114.557 22.7181 114.189 22.2336C113.855 21.7948 113.591 21.2667 113.297 20.7785C113.432 20.712 113.567 20.6474 113.701 20.5809C114.373 21.0691 115.045 21.5592 115.716 22.0475C115.923 21.8575 116.13 21.6675 116.337 21.4776C115.86 20.1497 115.384 18.8199 114.893 17.4465C115.067 16.9659 115.599 16.1186 115.606 15.2771C115.612 14.6996 114.893 14.1335 114.301 13.2767C114.318 13.0792 114.379 12.4086 114.443 11.6962C113.874 11.605 113.424 11.5309 113.343 11.5176C112.717 9.04809 112.168 6.89387 111.51 4.29323C110.118 7.2833 108.784 10.148 107.442 13.026C107.044 12.7942 106.517 12.4884 106.071 12.2281C105.961 14.6046 105.858 16.7968 105.746 19.236C105.448 19.1961 104.843 18.8769 104.431 19.1201C103.896 19.4373 103.149 20.1972 103.138 20.7709C103.102 22.5053 103.38 24.2397 103.519 25.976C103.527 26.0786 103.379 26.2058 103.297 26.3293C102.938 26.1032 102.582 25.8791 101.745 25.3529C101.961 27.0056 102.111 28.1454 102.244 29.1617C101.312 29.4334 100.387 29.7031 99.4607 29.9748C99.4949 30.1875 99.529 30.4003 99.5613 30.6111C101.722 31.3387 101.646 34.0476 102.227 36.0347C102.398 36.6179 101.312 37.8317 100.929 38.5289C101.379 39.0684 101.95 39.7523 102.521 40.4362C102.428 40.6509 102.335 40.8636 102.242 41.0783C100.314 40.7914 98.3869 40.5027 96.3512 40.2006C96.1728 41.7033 97.055 42.3739 98.0112 42.94C99.2198 43.658 100.707 43.9905 101.595 45.1113C102.498 46.2511 103.337 46.7564 104.526 46.7469C104.817 46.745 105.105 46.9919 105.393 47.1249C105.348 47.3965 105.304 47.6701 105.259 47.9418C102.47 47.3548 99.6808 46.7659 96.8919 46.1789C96.7837 46.3536 96.6775 46.5284 96.5693 46.7032C97.1233 47.615 97.6773 48.5268 98.4419 49.7844C97.6375 49.6324 96.8615 49.5356 96.1064 49.3304C95.3475 49.1252 94.6095 48.8099 93.862 48.544C93.8449 48.675 93.8278 48.8061 93.8108 48.9372C94.5431 49.6837 95.2754 50.4284 96.1178 51.2852C97.5236 51.5473 99.1723 51.8551 100.823 52.1628C100.88 52.4041 100.939 52.6434 100.996 52.8847C100.208 53.2722 99.4361 53.7433 98.6278 54.0302C97.3738 54.4747 95.0534 54.6837 95.0117 55.189C94.8485 57.1456 94.0821 57.2197 92.8621 57.4325C93.2871 57.8941 93.7102 58.3538 94.3363 59.0339C93.0386 59.0947 92.071 59.1403 91.001 59.1916C91.7731 60.0464 92.3499 60.6866 93.1315 61.5528C91.9685 61.8549 91.2362 62.0467 90.0315 62.3602C91.0692 62.9966 91.6365 63.3442 92.4353 63.8343C91.8623 64.5353 91.4942 65.0615 91.0692 65.4946C89.5875 67.003 89.5875 68.3783 91.0503 69.7384C91.2571 69.9303 91.4297 70.183 91.5967 70.4414L80.9247 73.3402C81.5413 72.626 82.1579 71.9098 82.7745 71.1955C82.6948 71.1062 82.6171 71.015 82.5374 70.9257C80.0103 71.9838 77.4812 73.0439 74.9124 74.1191C74.8612 74.2008 74.8061 74.2882 74.7511 74.3794H73.977C73.7057 74.102 73.4325 73.8227 73.1233 73.5055C75.8022 72.5785 75.8648 72.4588 74.7948 70.4888C80.0103 67.4551 80.0103 67.4551 80.8735 62.7724C79.4164 63.897 77.8929 65.0729 76.3372 66.2716C76.1797 64.9418 76.0792 64.0946 75.9274 62.8047C76.2879 62.3868 76.9993 61.6231 77.6539 60.7892C78.2363 60.0445 78.76 59.222 79.3083 58.4336C79.166 58.2892 79.0237 58.1448 78.8833 58.0005C78.1301 58.7983 77.3769 59.5962 76.8552 60.1509C75.8269 59.5126 74.9997 58.9978 73.9106 58.3196C74.5538 57.3413 75.2254 56.3212 75.897 55.301C74.827 55.094 73.9163 55.7569 73.0797 55.6468C71.5998 55.4549 71.3513 54.5165 72.0324 52.8448C72.04 53.3539 72.0457 53.8649 72.0514 54.374C72.2847 54.3208 72.7078 54.2999 72.7192 54.2087C72.7818 53.6844 72.8975 53.0233 72.7116 52.6358C72.4479 52.0849 71.9091 51.7696 71.541 51.2852C71.2071 50.8463 70.9434 50.3182 70.6493 49.83C70.784 49.7635 70.9187 49.6989 71.0534 49.6325C71.725 50.1207 72.3967 50.6089 73.0683 51.099C73.2751 50.909 73.4819 50.7191 73.6887 50.5291C73.2125 49.2012 72.7363 47.8715 72.2449 46.498C72.4194 46.0174 72.9506 45.1701 72.9582 44.3286C72.9639 43.7511 72.2449 43.185 71.6529 42.3282C71.67 42.1307 71.7307 41.4601 71.7952 40.7477C71.2261 40.6566 70.7764 40.5825 70.6948 40.5692C70.0687 38.0996 69.5204 35.9454 68.8621 33.3448C67.4885 36.2911 66.1737 39.1178 64.8532 41.954C64.7906 41.9692 64.728 41.9844 64.6654 42.0015C64.286 41.7811 63.8249 41.5133 63.4246 41.2796C63.4075 41.6311 63.3924 41.9768 63.3772 42.3226C61.9941 42.6664 60.611 43.0102 59.2279 43.3541C59.1331 43.1717 59.0401 42.9912 58.9452 42.8089C60.3701 41.1562 61.7968 39.5035 63.2216 37.8508C63.1419 37.7615 63.0641 37.6703 62.9845 37.581C60.4573 38.6391 57.9283 39.6991 55.3595 40.7743C55.0464 41.2758 54.6423 41.9236 54.2382 42.5714C54.0959 42.4232 53.9536 42.2732 53.8113 42.125C54.0599 41.8172 54.3103 41.5076 54.5721 41.1865C54.2515 40.8579 53.9365 40.5369 53.5704 40.1607C56.2493 39.2337 56.3119 39.114 55.2418 37.1441C60.4573 34.1103 60.4573 34.1103 61.3206 29.4277C59.8635 30.5523 58.34 31.7281 56.7843 32.9268C56.6268 31.5971 56.5263 30.7498 56.3745 29.4599C56.735 29.042 57.4464 28.2784 58.101 27.4444C58.6834 26.6997 59.2071 25.8772 59.7554 25.0888C59.6131 24.9444 59.4708 24.8001 59.3304 24.6557C58.5772 25.4536 57.824 26.2514 57.3022 26.8061C56.2739 26.1678 55.4467 25.653 54.3577 24.9748C55.0009 23.9965 55.6725 22.9764 56.3441 21.9563C55.2741 21.7492 54.3634 22.4122 53.5267 22.302C52.0469 22.1102 51.7983 21.1717 52.4795 19.5C52.487 20.0091 52.4927 20.5201 52.4984 21.0292C52.7318 20.9761 53.1549 20.9552 53.1663 20.864C53.2289 20.3397 53.3446 19.6786 53.1587 19.291C52.895 18.7401 52.3561 18.4248 51.9881 17.9404C51.6542 17.5016 51.3904 16.9735 51.0964 16.4853C51.2311 16.4188 51.3658 16.3542 51.5005 16.2877C52.1721 16.7759 52.8437 17.266 53.5153 17.7542C53.7221 17.5643 53.9289 17.3743 54.1357 17.1843C53.6595 15.8565 53.1833 14.5267 52.6919 13.1533C52.8665 12.6726 53.3977 11.8254 53.4053 10.9838C53.411 10.4063 52.6919 9.84025 52.1 8.98351C52.1171 8.78594 52.1778 8.11535 52.2423 7.40297C51.6731 7.31179 51.2235 7.23772 51.1419 7.22442C50.5158 4.75486 49.9675 2.60064 49.3092 0C47.9166 2.99007 46.5829 5.85475 45.2415 8.73274C44.8431 8.50098 44.3157 8.19514 43.8698 7.93489C43.7598 10.3114 43.6573 12.5036 43.5454 14.9427C43.2475 14.9029 42.6423 14.5837 42.2306 14.8268C41.6956 15.1441 40.9481 15.904 40.9367 16.4777C40.9006 18.2121 41.1795 19.9464 41.318 21.6827C41.3256 21.7853 41.1776 21.9126 41.096 22.0361C40.7375 21.81 40.3808 21.5858 39.5441 21.0596C39.7604 22.7123 39.9103 23.8522 40.0431 24.8685C39.1115 25.1401 38.1857 25.4099 37.2598 25.6815C37.294 25.8943 37.3281 26.1071 37.3604 26.3179C39.5213 27.0455 39.4454 29.7544 40.026 31.7414C40.1968 32.3246 39.1115 33.5385 38.7283 34.2357C39.1779 34.7752 39.749 35.4591 40.3201 36.143C40.2271 36.3576 40.1341 36.5704 40.0412 36.785C38.1136 36.4982 36.186 36.2095 34.1503 35.9074C33.9719 37.41 34.8541 38.0806 35.8103 38.6467C37.0189 39.3648 38.5063 39.6972 39.3942 40.818C40.2973 41.9578 41.1359 42.4631 42.3255 42.4536C42.6157 42.4517 42.9041 42.6987 43.1925 42.8317C43.147 43.1033 43.1033 43.3769 43.0578 43.6485C40.2688 43.0615 37.4799 42.4726 34.691 41.8856C34.5828 42.0604 34.4766 42.2352 34.3684 42.4099C34.9224 43.3218 35.4764 44.2336 36.241 45.4912C35.4366 45.3392 34.6606 45.2423 33.9055 45.0372C33.1466 44.832 32.4086 44.5167 31.6611 44.2507C31.644 44.3818 31.6269 44.5129 31.6099 44.6439C32.3422 45.3905 33.0745 46.1352 33.9169 46.9919C35.3228 47.2541 36.9715 47.5618 38.622 47.8696C38.679 48.1108 38.7378 48.3502 38.7947 48.5914C38.0073 48.979 37.2352 49.4501 36.4269 49.7369C35.1729 50.1814 32.8525 50.3904 32.8108 50.8957C32.6476 52.8524 31.8812 52.9265 30.6612 53.1392C31.0862 53.6008 31.5093 54.0606 32.1354 54.7407C30.8377 54.8014 29.8701 54.847 28.8001 54.8983C29.5722 55.7532 30.149 56.3933 30.9306 57.2596C29.7676 57.5616 29.0353 57.7535 27.8306 58.0669C28.8684 58.7033 29.4356 59.051 30.2344 59.5411C29.6614 60.2421 29.2933 60.7683 28.8684 61.2014C27.3866 62.7097 27.3866 64.0851 28.8494 65.4452C29.2345 65.8043 29.5001 66.3666 29.8435 66.8073C30.6366 67.8236 31.4429 68.8209 32.4143 70.0405C32.4598 70.4356 32.5718 71.3874 32.6875 72.3809C33.602 71.9839 34.3172 71.6723 35.4366 71.186C34.9471 72.3448 34.6986 72.9337 34.45 73.5226C34.5183 73.5872 34.5866 73.6537 34.6549 73.7183C35.0192 73.2624 35.3835 72.8064 35.687 72.4265C36.0703 72.7038 36.6205 73.2738 36.7343 73.156C37.5975 72.2517 38.3773 71.2126 39.1817 70.2153C39.1381 69.8334 39.0945 69.4535 39.0508 69.0717C40.1607 69.6131 41.2706 70.1545 42.3805 70.6959C42.3406 70.9143 42.2989 71.1347 42.259 71.3532C42.9402 70.9694 43.6194 70.5857 44.5509 70.0614C44.4636 71.9478 44.42 73.6859 44.3138 75.3918L0 83.4844V355.216H365.497V93.8984L357.388 90.6461ZM60.0267 53.9238C60.2335 53.4622 60.4554 53.2418 60.6774 53.0879C60.704 53.3368 60.7286 53.5857 60.7552 53.8345C60.5124 53.863 60.2695 53.8934 60.0267 53.9238ZM60.6907 55.3162C60.6736 55.3371 60.6584 55.358 60.6452 55.377C60.6395 55.3732 60.6357 55.3713 60.63 55.3675C60.6509 55.3523 60.6698 55.3314 60.6907 55.3162ZM58.1541 47.9607C59.2602 47.7119 60.2467 47.4915 61.3547 47.2427C61.2333 46.5626 61.1271 45.9775 61.0626 45.6223C61.829 45.0733 62.5671 44.5471 63.2918 44.0266C63.2273 45.419 63.1628 46.8076 63.0945 48.2856C62.7966 48.2457 62.1914 47.9265 61.7797 48.1697C61.2447 48.4869 60.4972 49.2468 60.4858 49.8205C60.4706 50.5576 60.5143 51.2966 60.5769 52.0336C56.9323 52.0792 56.8848 51.9082 56.5225 50.5025C57.8923 50.3562 58.6303 49.5318 58.1541 47.9607ZM56.4864 69.0869C56.9816 68.8532 57.4294 68.4448 58.4121 67.7533C58.0668 68.6423 57.7879 69.2807 57.5792 69.8297C56.8583 69.7214 56.1316 69.6131 55.3936 69.5048C55.7465 69.3452 56.1525 69.2445 56.4864 69.0869ZM47.7193 73.9652C47.9052 72.2023 48.7514 71.2715 50.2787 72.0864C50.6695 72.2954 51.4493 72.3334 51.6276 72.039C52.7261 70.2077 53.282 71.5488 53.9119 72.5006C55.018 74.1704 55.369 74.2255 57.029 72.9166C57.0006 72.871 56.974 72.8197 56.9475 72.7684C57.7007 73.1199 58.4235 73.5055 58.9433 74.1609C59.0022 74.2349 59.061 74.3053 59.1179 74.3755H49.8935L47.6415 74.7878C47.6643 74.5123 47.6908 74.2387 47.7193 73.9652Z" fill="#15443D"/>
</svg>
