<svg width="366" height="431" viewBox="0 0 366 431" fill="none" xmlns="http://www.w3.org/2000/svg">
<path d="M363.097 108.155C363.031 107.768 362.864 107.439 362.528 107.2C362.528 107.544 362.528 107.891 362.528 108.277C362.439 108.296 362.348 108.315 362.255 108.334C361.797 107.925 361.386 107.559 360.976 107.192C360.596 106.666 361.687 105.549 360.663 105.123C361.152 103.488 362.414 105.674 362.727 103.252C361.989 103.435 361.272 103.611 360.555 103.788C360.68 103.328 360.832 103.222 360.976 103.085C361.129 102.939 361.276 102.764 361.541 102.475C359.132 102.701 359.132 102.701 358.914 101.677C359.524 101.543 359.837 100.986 359.593 99.983C360.084 99.7892 360.52 99.6144 361.014 99.4207C360.945 98.9837 360.885 98.6076 360.849 98.3797C361.484 97.6559 362.076 96.9834 362.668 96.309C362.626 96.159 362.585 96.007 362.545 95.8569C361.689 96.2273 360.834 96.5959 359.978 96.9663C359.932 96.8523 359.887 96.7365 359.839 96.6225C360.445 95.5093 361.05 94.3961 361.653 93.281C361.615 93.2259 361.579 93.1689 361.541 93.1138C360.429 93.8756 359.318 94.6392 358.189 95.4124C358.058 95.7467 357.891 96.178 357.724 96.6092C357.658 96.518 357.591 96.4249 357.523 96.3337C357.629 96.1267 357.733 95.9196 357.843 95.703C357.694 95.4998 357.546 95.3003 357.373 95.0685C358.555 94.3866 358.58 94.3087 358.06 93.0625C360.335 90.9387 360.335 90.9387 360.625 87.8802C359.995 88.6515 359.337 89.4608 358.663 90.2852C358.564 89.4285 358.502 88.8833 358.407 88.0512C358.561 87.7701 358.862 87.2533 359.139 86.6929C359.386 86.1933 359.602 85.6443 359.832 85.1181C359.765 85.0288 359.699 84.9396 359.633 84.8503C359.312 85.3898 358.991 85.9293 358.767 86.3035C358.293 85.9217 357.912 85.612 357.409 85.2074C357.677 84.5539 357.957 83.872 358.236 83.1919C357.752 83.0893 357.358 83.5471 356.98 83.5015C356.312 83.4217 356.182 82.8214 356.453 81.7177C356.466 82.0483 356.479 82.3788 356.493 82.7075C356.595 82.6657 356.785 82.6391 356.789 82.5802C356.806 82.2382 356.844 81.807 356.753 81.562C356.622 81.2143 356.375 81.0244 356.2 80.7223C356.041 80.4488 355.912 80.1144 355.77 79.8067C355.829 79.7592 355.887 79.7136 355.946 79.6661C356.257 79.9624 356.569 80.2588 356.88 80.5551C356.969 80.426 357.056 80.2968 357.145 80.1676C356.904 79.3204 356.663 78.475 356.415 77.5993C356.483 77.282 356.703 76.7178 356.69 76.1726C356.68 75.7984 356.347 75.4526 356.062 74.9169C356.066 74.7878 356.079 74.3527 356.092 73.8892C355.836 73.8474 355.633 73.8132 355.595 73.8075C355.263 72.227 354.973 70.8479 354.624 69.1838C354.062 71.1632 353.523 73.0591 352.981 74.9644C352.797 74.8258 352.554 74.6434 352.349 74.4895C352.349 76.032 352.349 77.4549 352.349 79.0392C352.214 79.0221 351.935 78.834 351.757 79.0031C351.524 79.2235 351.205 79.7402 351.211 80.1125C351.23 81.2371 351.391 82.3522 351.49 83.473C351.495 83.5395 351.431 83.625 351.397 83.7086C351.232 83.5737 351.067 83.4388 350.681 83.1235C350.812 84.1873 350.903 84.9225 350.983 85.5759C350.571 85.7792 350.162 85.9825 349.752 86.1857C349.771 86.3225 349.792 86.4593 349.811 86.5961C350.795 87.0026 350.818 88.7579 351.118 90.0288C351.207 90.4011 350.746 91.2198 350.588 91.6834C350.801 92.0196 351.072 92.4451 351.342 92.8706C351.304 93.0112 351.268 93.1537 351.23 93.2943C350.359 93.167 349.49 93.0378 348.57 92.9029C348.52 93.8813 348.93 94.2897 349.37 94.6278C349.928 95.0572 350.602 95.2262 351.023 95.9272C351.452 96.6396 351.839 96.9397 352.372 96.8979C352.503 96.8865 352.636 97.0385 352.768 97.1164C352.753 97.2949 352.74 97.4716 352.725 97.6502C351.461 97.3538 350.2 97.0575 348.936 96.7611C348.892 96.877 348.847 96.9948 348.803 97.1107C349.071 97.6844 349.338 98.2581 349.706 99.0502C349.342 98.9762 348.993 98.9363 348.649 98.8261C348.306 98.7159 347.968 98.5354 347.627 98.3854C347.621 98.4708 347.617 98.5563 347.612 98.6418C347.955 99.1034 348.3 99.5632 348.695 100.093C349.331 100.22 350.076 100.371 350.824 100.519C350.854 100.673 350.884 100.826 350.917 100.98C350.571 101.256 350.236 101.584 349.879 101.793C349.327 102.12 348.289 102.325 348.281 102.654C348.249 103.927 347.906 103.999 347.365 104.172C347.564 104.457 347.765 104.744 348.059 105.165C347.517 105.239 347.103 105.294 346.661 105.355C345.502 103.034 344.766 99.6714 343.781 95.2205C341.836 86.4346 342.81 88.0607 338.92 86.1079C335.033 84.155 330.172 83.1786 324.663 76.3455C319.155 69.5124 313.97 69.5124 313.97 69.5124C313.97 69.5124 309.434 66.5831 305.869 63.6538C302.304 60.7246 296.147 60.3997 296.147 60.3997C296.147 60.3997 288.046 56.494 285.779 56.8208C283.512 57.1475 282.214 61.3761 278.973 61.3761C275.733 61.3761 274.437 61.0513 270.872 59.4233C267.307 57.7953 267.307 57.7953 266.66 56.1692C266.012 54.5412 265.04 49.661 265.04 49.661C265.04 49.661 263.095 44.1291 262.771 42.1763C262.447 40.2234 263.095 36.6445 262.771 31.7623C262.447 26.8802 265.04 25.9114 265.04 25.9114C265.04 25.9114 256.939 22 254.672 21.0236C252.403 20.0471 244.95 18.7459 243.008 18.7459C241.063 18.7459 233.611 24.9293 231.99 25.9114C230.37 26.8935 222.918 35.0183 222.918 35.0183L210.605 36.9712C210.605 36.9712 198.616 41.2018 194.08 42.1782C192.628 42.4897 190.813 43.1356 188.97 43.8271C188.961 43.7929 188.951 43.7568 188.942 43.7226C188.519 43.905 188.094 44.0892 187.671 44.2716C187.648 44.2146 187.625 44.1576 187.603 44.1006C187.902 43.5497 188.202 42.9969 188.502 42.446C188.483 42.4175 188.466 42.3909 188.447 42.3624C187.897 42.7405 187.345 43.1185 186.787 43.5022C186.722 43.6675 186.639 43.8822 186.555 44.0949C186.523 44.0493 186.489 44.0038 186.457 43.9582C186.51 43.8556 186.561 43.753 186.616 43.6447C186.542 43.544 186.468 43.4452 186.383 43.3313C186.969 42.9931 186.98 42.9551 186.722 42.3377C187.849 41.2853 187.849 41.2853 187.993 39.7694C187.682 40.1512 187.354 40.5521 187.022 40.9605C186.973 40.535 186.942 40.2652 186.895 39.853C186.971 39.7143 187.121 39.4579 187.257 39.1805C187.379 38.9336 187.487 38.6619 187.601 38.3998C187.568 38.3561 187.534 38.3105 187.502 38.2668C187.343 38.5346 187.183 38.8006 187.073 38.9867C186.838 38.7968 186.648 38.6448 186.4 38.4434C186.532 38.1205 186.671 37.7824 186.81 37.4442C186.57 37.3929 186.375 37.6209 186.187 37.5981C185.857 37.5582 185.791 37.2619 185.925 36.7148C185.933 36.8781 185.939 37.0415 185.946 37.2049C185.997 37.184 186.09 37.1707 186.092 37.1422C186.102 36.9731 186.119 36.7584 186.075 36.6369C186.011 36.464 185.887 36.3709 185.802 36.2208C185.722 36.086 185.66 35.9188 185.59 35.7668C185.618 35.744 185.648 35.7212 185.677 35.6965C185.831 35.8428 185.986 35.991 186.14 36.1373C186.183 36.0727 186.227 36.0081 186.271 35.9454C186.151 35.5256 186.032 35.1076 185.908 34.6726C185.942 34.5168 186.051 34.2357 186.045 33.966C186.041 33.7817 185.874 33.6088 185.734 33.3429C185.736 33.2802 185.741 33.0636 185.749 32.8337C185.622 32.8128 185.521 32.7958 185.502 32.7939C185.337 32.0112 185.193 31.3273 185.02 30.5029C184.742 31.4831 184.474 32.4234 184.206 33.3657C184.115 33.2973 183.996 33.2061 183.893 33.1301C183.893 33.8938 183.893 34.5985 183.893 35.3831C183.827 35.3755 183.689 35.2805 183.599 35.366C183.484 35.4762 183.326 35.7307 183.328 35.915C183.338 36.4716 183.417 37.0244 183.467 37.581C183.47 37.6133 183.438 37.657 183.421 37.6969C183.339 37.6304 183.258 37.5639 183.066 37.4062C183.131 37.9324 183.176 38.2972 183.216 38.622C183.011 38.7227 182.808 38.8234 182.605 38.9241C182.615 38.9925 182.624 39.0589 182.634 39.1273C183.121 39.3287 183.133 40.1987 183.283 40.8275C183.326 41.0118 183.099 41.4183 183.021 41.6463C183.127 41.8134 183.26 42.0243 183.394 42.2352C183.376 42.3054 183.357 42.3757 183.339 42.446C182.909 42.3833 182.476 42.3188 182.021 42.2523C181.996 42.7367 182.199 42.9381 182.417 43.1071C182.692 43.3199 183.026 43.4035 183.235 43.7511C183.448 44.1044 183.639 44.2526 183.903 44.2317C183.967 44.226 184.034 44.302 184.1 44.34C184.093 44.4274 184.085 44.5167 184.079 44.6041C183.453 44.4578 182.827 44.3096 182.203 44.1633C182.18 44.2203 182.159 44.2792 182.137 44.3362C182.269 44.6211 182.402 44.9042 182.584 45.2974C182.404 45.2613 182.231 45.2404 182.061 45.1872C181.89 45.1322 181.723 45.0429 181.554 44.9688C181.552 45.0106 181.548 45.0524 181.547 45.0961C181.717 45.324 181.888 45.552 182.083 45.8141C182.334 45.8635 182.619 45.9205 182.911 45.9794C181.558 46.3555 180.541 46.4714 180.148 46.0763C178.852 44.775 177.232 42.1706 177.232 42.1706H171.076C171.076 42.1706 166.539 43.7986 162.652 44.1234C158.765 44.4483 158.116 40.8693 158.116 38.5916C158.116 36.3139 157.791 35.3375 156.171 33.0598C154.551 30.7821 156.171 33.0598 154.226 33.3846C152.282 33.7095 143.858 32.7331 143.858 32.7331L140.293 25.9057L132.516 20.693L125.388 14.8344L109.188 16.1357C109.188 16.1357 108.886 16.7911 108.541 17.646C108.497 17.2641 108.457 16.9108 108.404 16.4606C108.537 16.2155 108.803 15.7653 109.044 15.2752C109.258 14.8402 109.448 14.3614 109.649 13.8998C109.59 13.8219 109.533 13.744 109.474 13.6662C109.194 14.1373 108.915 14.6084 108.719 14.9351C108.306 14.6008 107.972 14.3329 107.533 13.9777C107.767 13.4078 108.012 12.8132 108.256 12.2186C107.833 12.1293 107.49 12.5283 107.162 12.4884C106.579 12.4181 106.465 11.8957 106.701 10.9326C106.714 11.2213 106.725 11.5081 106.737 11.7969C106.826 11.7608 106.993 11.738 106.995 11.6867C107.01 11.3885 107.042 11.0123 106.962 10.7977C106.849 10.4937 106.632 10.3285 106.481 10.0663C106.342 9.82695 106.23 9.53631 106.105 9.26845C106.156 9.22856 106.207 9.18677 106.259 9.14687C106.53 9.40523 106.801 9.66357 107.072 9.92193C107.15 9.80985 107.228 9.69586 107.304 9.58378C107.093 8.84481 106.883 8.10776 106.666 7.3441C106.725 7.06865 106.919 6.57472 106.905 6.09981C106.898 5.77307 106.606 5.47292 106.359 5.0037C106.363 4.89162 106.374 4.51169 106.386 4.10707C106.162 4.07097 105.983 4.04058 105.951 4.03488C105.661 2.65572 105.409 1.45324 105.103 0C104.612 1.72679 104.143 3.3795 103.671 5.04171C103.511 4.92203 103.299 4.76245 103.119 4.62757C103.119 5.97443 103.119 7.21491 103.119 8.59597C103.001 8.58077 102.758 8.41739 102.603 8.56557C102.4 8.75933 102.121 9.20767 102.126 9.53251C102.143 10.5127 102.284 11.4853 102.369 12.4637C102.375 12.5207 102.318 12.5966 102.288 12.6688C102.143 12.5511 101.999 12.4333 101.663 12.1578C101.777 13.0849 101.857 13.727 101.927 14.2969C101.569 14.4754 101.21 14.6521 100.853 14.8288C100.87 14.9484 100.887 15.0662 100.905 15.1859C101.762 15.5411 101.783 17.0722 102.045 18.1817C102.123 18.5065 101.72 19.2208 101.582 19.6254C101.768 19.918 102.003 20.2903 102.238 20.6607C102.206 20.7842 102.174 20.9077 102.14 21.0311C101.381 20.9191 100.622 20.8089 99.8193 20.6911C99.7757 21.5441 100.134 21.8993 100.517 22.1956C101.003 22.5699 101.591 22.7181 101.959 23.3278C102.333 23.949 102.671 24.2112 103.136 24.1751C103.25 24.1656 103.367 24.2986 103.481 24.3651C103.468 24.5208 103.456 24.6747 103.443 24.8305C102.341 24.5721 101.24 24.3138 100.138 24.0554C100.1 24.158 100.06 24.2587 100.022 24.3613C100.256 24.8628 100.489 25.3624 100.812 26.0539C100.495 25.9893 100.189 25.9551 99.8895 25.8582C99.5897 25.7613 99.2938 25.6036 98.9978 25.4726C98.994 25.5466 98.9883 25.6207 98.9845 25.6967C99.2843 26.0994 99.5841 26.5003 99.9294 26.9619C100.483 27.0721 101.134 27.2032 101.787 27.3342C101.813 27.4691 101.84 27.6021 101.866 27.737C101.565 27.9763 101.273 28.2632 100.961 28.4474C100.48 28.7324 99.5746 28.9109 99.567 29.1978C99.5385 30.3072 99.2407 30.3699 98.7663 30.5219C98.9409 30.7707 99.1154 31.0196 99.3716 31.3881C98.865 31.4565 98.4875 31.5078 98.0701 31.5648C98.3869 32.0264 98.626 32.374 98.9466 32.8432C98.4969 33.0446 98.2143 33.1719 97.7494 33.3808C98.1668 33.7133 98.3964 33.8957 98.717 34.1502C98.5064 34.5624 98.3717 34.8683 98.2124 35.1247C98.0682 35.3565 97.9657 35.5787 97.8993 35.7972C95.0383 37.1707 92.6553 38.2649 92.6553 38.2649L48.9506 55.3143C48.9791 55.2175 49.0151 55.1073 49.0587 54.9743C49.1365 54.7368 49.2636 54.5165 49.3376 54.279C49.3737 54.165 49.3433 54.0283 49.3433 53.9029C49.2978 53.9029 49.2523 53.9029 49.2067 53.9048C49.1612 54.0454 49.1176 54.1878 49.072 54.3284C49.0455 53.6464 48.5029 53.5932 48.0665 53.4508C48.0836 53.1544 48.0987 52.8885 48.1082 52.7118C47.7591 52.7118 47.4461 52.7118 47.2089 52.7118C47.1179 52.292 47.0458 51.9614 46.9851 51.6822C47.1406 51.5986 47.3228 51.5017 47.4689 51.4238C47.4935 51.4637 47.5675 51.5815 47.6415 51.6974C47.6927 51.6841 47.744 51.6689 47.7952 51.6556C47.7952 51.4694 47.799 51.2814 47.7933 51.0952C47.7876 50.9432 47.7705 50.7912 47.7553 50.5823C47.6548 50.6089 47.4935 50.6488 47.3057 50.6982C47.1122 50.5462 47.1672 49.9497 46.5999 50.2328C46.7612 49.5128 46.0213 49.471 45.7841 49.0645C46.1066 48.846 46.4254 48.6294 46.6379 48.487C46.4121 47.9759 46.2262 47.558 46.044 47.1458C46.1484 47.0546 46.2755 46.9444 46.4026 46.8362C46.2717 46.7621 46.1294 46.7013 46.0118 46.6101C45.9055 46.5284 45.7651 46.4258 45.7424 46.3118C45.6608 45.9053 45.6039 45.4912 45.5773 45.0771C45.5508 44.6667 45.5716 44.2545 45.5716 43.8423C44.9721 44.699 44.5357 45.5995 43.6706 46.2719C43.6706 46.5037 43.6706 46.8362 43.6706 47.2351C43.5131 47.0945 43.4277 47.0166 43.35 46.9463C43.2817 47.1857 43.2247 47.3813 43.1621 47.6055C43.3917 47.5067 43.5795 47.425 43.7806 47.3376C43.8053 47.5846 43.8565 47.7442 43.8281 47.8867C43.7617 48.2191 43.7503 48.6294 43.5473 48.8536C43.0749 49.3722 43.0426 49.3513 43.5112 49.8775C43.6194 49.9991 43.6307 50.2061 43.6573 50.2897C43.3556 50.1492 43.109 50.0124 42.8434 49.9288C42.777 49.9079 42.6575 50.0618 42.5626 50.134C42.6764 50.2157 42.7201 50.2042 42.7656 50.1909C43.0028 50.1226 43.4866 50.5975 43.3424 50.7608C43.2209 50.7058 43.0995 50.6507 43.09 50.6488C42.8889 50.8197 42.7751 50.9926 42.6309 51.0268C41.8549 51.2111 41.7696 51.325 41.9024 51.9063C41.7145 52.2388 41.595 52.4497 41.5077 52.6035C41.8379 52.8714 42.0921 53.0784 42.3179 53.2608C42.2211 53.4793 42.0788 53.6407 42.1035 53.768C42.204 54.2847 41.9555 54.5469 41.4432 54.4652C41.1321 54.4158 40.7469 54.298 40.6141 54.7634C41.005 55.1149 41.3673 55.4416 41.724 55.7646C40.967 55.8823 40.2651 55.8139 39.5175 56.1597C39.7319 56.2623 39.8135 56.3022 40.0241 56.4028C39.7338 56.4427 39.5934 56.4617 39.4113 56.4864C40.5439 57.4913 40.8437 58.1049 40.3504 58.3405C40.2214 57.8295 40.0469 57.7744 39.6314 58.1657C39.7907 58.1847 39.9141 58.1999 40.0108 58.2113C40.1303 58.7983 39.713 58.8173 39.2481 58.8496C39.2823 58.9275 39.3126 58.9978 39.343 59.0681L37.5843 59.7539L31.274 61.3933C31.3329 61.2584 31.3955 61.1235 31.4391 60.9829C31.4752 60.869 31.4448 60.7322 31.4448 60.6068C31.3993 60.6068 31.3537 60.6068 31.3082 60.6087C31.2627 60.7493 31.219 60.8917 31.1735 61.0323C31.1469 60.3503 30.6043 60.2972 30.168 60.1547C30.185 59.8583 30.2002 59.5924 30.2097 59.4157C29.8606 59.4157 29.5476 59.4157 29.3104 59.4157C29.2193 58.9959 29.1472 58.6653 29.0865 58.3861C29.2421 58.3025 29.4242 58.2056 29.5703 58.1277C29.595 58.1676 29.669 58.2854 29.743 58.4013C29.7942 58.388 29.8454 58.3728 29.8967 58.3595C29.8967 58.1733 29.9004 57.9853 29.8948 57.7991C29.8891 57.6471 29.872 57.4952 29.8568 57.2862C29.7563 57.3128 29.595 57.3527 29.4072 57.4021C29.2136 57.2501 29.2687 56.6536 28.7014 56.9366C28.8627 56.2167 28.1227 56.1749 27.8856 55.7683C28.2081 55.5499 28.5268 55.3333 28.7393 55.1909C28.5136 54.6799 28.3276 54.2619 28.1455 53.8497C28.2499 53.7585 28.377 53.6483 28.5041 53.54C28.3732 53.466 28.2309 53.4052 28.1132 53.314C28.007 53.2323 27.8666 53.1297 27.8438 53.0157C27.7623 52.6092 27.7053 52.1951 27.6788 51.781C27.6522 51.3706 27.6731 50.9584 27.6731 50.5462C27.0736 51.4029 26.6372 52.3034 25.7721 52.9759C25.7721 53.2076 25.7721 53.54 25.7721 53.939C25.6146 53.7984 25.5292 53.7205 25.4514 53.6502C25.3831 53.8896 25.3262 54.0853 25.2636 54.3094C25.4932 54.2106 25.681 54.1289 25.8821 54.0416C25.9068 54.2885 25.958 54.4481 25.9295 54.5906C25.8631 54.923 25.8517 55.3333 25.6487 55.5575C25.1763 56.0761 25.1441 56.0552 25.6127 56.5814C25.7208 56.703 25.7322 56.9101 25.7588 56.9936C25.4571 56.8531 25.2105 56.7163 24.9449 56.6327C24.8785 56.6118 24.7589 56.7657 24.6641 56.8379C24.7779 56.9195 24.8215 56.9082 24.8671 56.8949C25.1042 56.8265 25.588 57.3014 25.4438 57.4648C25.3224 57.4097 25.201 57.3546 25.1915 57.3527C24.9904 57.5236 24.8766 57.6965 24.7324 57.7307C23.9564 57.915 23.871 58.029 24.0038 58.6103C23.816 58.9427 23.6965 59.1535 23.6092 59.3074C23.9393 59.5753 24.1936 59.7823 24.4193 59.9647C24.3226 60.1832 24.1803 60.3446 24.2049 60.4719C24.3055 60.9886 24.057 61.2508 23.5447 61.1691C23.2336 61.1197 22.8484 61.0019 22.7156 61.4673C23.1064 61.8188 23.4688 62.1455 23.8255 62.4685C23.0685 62.5862 22.3665 62.5179 21.619 62.8636C21.8334 62.9662 21.915 63.0061 22.1256 63.1067C21.8353 63.1466 21.6949 63.1656 21.5128 63.1903C21.7537 63.4031 21.9529 63.5988 22.1199 63.7773L0 69.5219V430.746H365.497V107.585C365.493 107.585 364.548 107.84 363.097 108.155ZM347.574 106.829C347.572 106.829 347.572 106.831 347.57 106.831C347.393 106.599 347.225 106.351 347.065 106.087C347.225 106.322 347.388 106.558 347.574 106.829Z" fill="#356D4E"/>
</svg>
